<svg id="Layer_1" data-name="Layer 1" xmlns="http://www.w3.org/2000/svg" xmlns:xlink="http://www.w3.org/1999/xlink" viewBox="0 0 216 215"><defs><style>.cls-1{fill:none;}.cls-2{clip-path:url(#clip-path);}.cls-3{opacity:0.47;}.cls-4{fill:#2165e5;}</style><clipPath id="clip-path"><rect class="cls-1" x="-2602.09" y="-1021.56" width="1041.91" height="736.34"/></clipPath></defs><title>Titus</title><path class="cls-4" d="M139.88,44.38H76.05a9.37,9.37,0,0,0-9.36,9.37V75.56H92.38v51.38h31.18V75.56h25.68V53.75A9.37,9.37,0,0,0,139.88,44.38Zm-42,5.5h20.19V70.07H97.87ZM72.18,70.07V53.75a3.87,3.87,0,0,1,3.87-3.87H92.38V70.07ZM118.06,98.5v22.94H97.87V75.56h20.19Zm25.69-28.43H123.56V49.88h16.32a3.87,3.87,0,0,1,3.87,3.87Z"/><path class="cls-4" d="M94.35,154.21h-5v12.17H85.49V154.21h-5v-3.47H94.35Z"/><path class="cls-4" d="M95.52,151.39a2.19,2.19,0,1,1,2.19,2.09A2.12,2.12,0,0,1,95.52,151.39Zm4.07,3.84v11.15H95.87V155.23Z"/><path class="cls-4" d="M110.93,166.13a8,8,0,0,1-3,.55c-3,0-4.87-2-4.87-5v-3.27h-2.19v-3.19h2.19v-3.8h3.72v3.8h3.8v3.19h-3.8v3.15a1.54,1.54,0,0,0,1.75,1.68,5.5,5.5,0,0,0,2-.46Z"/><path class="cls-4" d="M123.74,155.23v11.15H120v-.78a4.84,4.84,0,0,1-3.06,1.08c-2.83,0-4.76-2-4.76-5.13v-6.32h3.72V161c0,1.58.83,2.34,2,2.34a2.9,2.9,0,0,0,2-1.1v-7Z"/><path class="cls-4" d="M130.57,163.94c1,0,1.61-.27,1.61-.76s-.44-.66-1.17-.78l-2.25-.39c-1.91-.32-3.27-1.4-3.27-3.36,0-2.34,2-3.72,5-3.72,2.64,0,5,.89,5.19,3.84h-3.28c-.07-.83-.88-1.2-1.91-1.2s-1.41.35-1.41.76.28.74,1.18.9l2.07.34c2.07.39,3.47,1.41,3.47,3.38,0,2.58-2.3,3.73-5.22,3.73s-5.24-1.17-5.5-4.14l3.31,0C128.53,163.53,129.4,163.94,130.57,163.94Z"/></svg>