<svg xmlns="http://www.w3.org/2000/svg" viewBox="0 0 141.81 36.99"><defs><style>.cls-1{fill:#76a3c5;}.cls-2{fill:#394662;}</style></defs><title>Accel_Logo_Titus</title><g id="Layer_2" data-name="Layer 2"><g id="Web"><path class="cls-1" d="M23.23.42l-2.59,9.79a.94.94,0,0,1-.91.7H17.47a1,1,0,0,1-.91-.69L13.84.42A.34.34,0,0,1,14.08,0h2.43a.33.33,0,0,1,.33.26l1.81,8.53L20.32.27A.34.34,0,0,1,20.65,0h2.26a.33.33,0,0,1,.33.33A.28.28,0,0,1,23.23.42Z"/><path class="cls-1" d="M13.84,36.57l2.59-9.79a.93.93,0,0,1,.91-.7H19.6a1,1,0,0,1,.91.69l2.71,9.79A.33.33,0,0,1,23,37l-.09,0H20.55a.33.33,0,0,1-.32-.27l-1.81-8.53-1.68,8.53a.33.33,0,0,1-.32.27H14.16a.34.34,0,0,1-.33-.34A.19.19,0,0,1,13.84,36.57Z"/><path class="cls-1" d="M36.57,23.35l-9.79-2.59a.93.93,0,0,1-.7-.91V17.59a1,1,0,0,1,.69-.91L36.56,14a.33.33,0,0,1,.41.23.29.29,0,0,1,0,.09v2.35a.33.33,0,0,1-.27.32l-8.53,1.81,8.53,1.68a.33.33,0,0,1,.27.32V23a.34.34,0,0,1-.34.33Z"/><path class="cls-1" d="M.42,14l9.79,2.59a.94.94,0,0,1,.7.91v2.26a1,1,0,0,1-.69.91L.42,23.35A.34.34,0,0,1,0,23.11.28.28,0,0,1,0,23V20.68a.33.33,0,0,1,.26-.33l8.53-1.81L.27,16.87A.34.34,0,0,1,0,16.54V14.28A.33.33,0,0,1,.33,14Z"/><path class="cls-1" d="M34.65,9.12,25.9,14.21a1,1,0,0,1-1.15-.14l-1.59-1.6A.94.94,0,0,1,23,11.34l5-8.85a.33.33,0,0,1,.45-.13l.08.06L30.2,4.08a.33.33,0,0,1,0,.42l-4.75,7.31L32.7,7a.33.33,0,0,1,.42,0l1.6,1.6a.33.33,0,0,1,0,.47Z"/><path class="cls-1" d="M2.45,28,11.2,23a1,1,0,0,1,1.14.15l1.6,1.6a.94.94,0,0,1,.15,1.13l-5,8.85a.34.34,0,0,1-.46.12l-.07,0L6.9,33.09a.33.33,0,0,1,0-.42l4.74-7.31L4.4,30.2a.35.35,0,0,1-.43,0L2.38,28.57a.34.34,0,0,1,0-.48Z"/><path class="cls-1" d="M27.86,34.77,22.77,26a1,1,0,0,1,.15-1.15l1.6-1.59a1,1,0,0,1,1.13-.16l8.85,5a.33.33,0,0,1,.12.45.35.35,0,0,1,0,.08l-1.66,1.66a.33.33,0,0,1-.42,0l-7.31-4.75L30,32.82a.33.33,0,0,1,0,.42l-1.59,1.6a.34.34,0,0,1-.48,0Z"/><path class="cls-1" d="M8.94,2.57,14,11.32a.94.94,0,0,1-.14,1.14l-1.6,1.6a.94.94,0,0,1-1.13.15l-8.85-5a.34.34,0,0,1-.13-.46l.06-.07L3.9,7a.33.33,0,0,1,.42,0l7.31,4.75L6.78,4.52a.35.35,0,0,1,0-.43L8.42,2.5a.33.33,0,0,1,.47,0A.18.18,0,0,1,8.94,2.57Z"/><circle class="cls-1" cx="18.43" cy="18.72" r="4.35"/><path class="cls-2" d="M68.15,12.64H61.43V29H56.22V12.64H49.5V8H68.15Z"/><path class="cls-2" d="M76.42,8V29H71.18V8Z"/><path class="cls-2" d="M98.1,12.64H91.38V29h-5.2V12.64H79.45V8H98.1Z"/><path class="cls-2" d="M120.4,19.21c0,6.53-3.78,10.22-9.82,10.22s-9.78-3.69-9.78-10.22V8h5.26V19.3c0,3.22,1.77,5.23,4.52,5.23s4.56-2,4.56-5.23V8h5.26Z"/><path class="cls-2" d="M141.78,14.5h-5.27c-.28-1.58-1.24-2.67-3.47-2.67-1.86,0-3.06.72-3.06,2.08,0,1.21.86,1.73,2.54,2.07l2.94.62c3.87.81,6.35,2.39,6.35,6,0,4.22-3.47,6.82-8.74,6.82-4.74,0-9-2.26-9.51-7.47h5.27c.34,1.86,1.92,3,4.4,3,1.86,0,3-.71,3-1.89,0-.75-.4-1.52-2.23-1.86l-3.47-.74c-4.15-.9-6.1-2.79-6.1-6.14,0-4.21,3.41-6.81,8.36-6.81C136.17,7.56,141.25,8.83,141.78,14.5Z"/></g></g></svg>