<svg version="1.1" viewBox="0.0 0.0 691.994750656168 252.35433070866142" fill="none" stroke="none" stroke-linecap="square" stroke-miterlimit="10" xmlns:xlink="http://www.w3.org/1999/xlink" xmlns="http://www.w3.org/2000/svg"><clipPath id="p.0"><path d="m0 0l691.99475 0l0 252.35432l-691.99475 0l0 -252.35432z" clip-rule="nonzero"/></clipPath><g clip-path="url(#p.0)"><path fill="#000000" fill-opacity="0.0" d="m0 0l691.99475 0l0 252.35432l-691.99475 0z" fill-rule="evenodd"/><path fill="#000000" fill-opacity="0.0" d="m13.062992 68.16293l0 0c0 -5.6360245 4.568903 -10.204929 10.204929 -10.204929l188.56653 0c2.7065125 0 5.302185 1.075161 7.215973 2.9889565c1.9138031 1.9137955 2.9889526 4.5094604 2.9889526 7.215973l0 40.81849c0 5.6360245 -4.5688934 10.204926 -10.204926 10.204926l-188.56653 0c-5.6360264 0 -10.204929 -4.568901 -10.204929 -10.204926z" fill-rule="evenodd"/><path stroke="#194cac" stroke-width="2.0" stroke-linejoin="round" stroke-linecap="butt" stroke-dasharray="8.0,6.0" d="m13.062992 68.16293l0 0c0 -5.6360245 4.568903 -10.204929 10.204929 -10.204929l188.56653 0c2.7065125 0 5.302185 1.075161 7.215973 2.9889565c1.9138031 1.9137955 2.9889526 4.5094604 2.9889526 7.215973l0 40.81849c0 5.6360245 -4.5688934 10.204926 -10.204926 10.204926l-188.56653 0c-5.6360264 0 -10.204929 -4.568901 -10.204929 -10.204926z" fill-rule="evenodd"/><path fill="#fd775e" d="m58.96137 93.99218l0 1.5l-1.265625 0q-1.5625 0 -2.34375 -0.75q-0.78125 -0.75 -0.78125 -2.5l0 -5.515625l-1.53125 0l0 -1.484375l1.53125 0l0 -2.546875l1.71875 0l0 2.546875l2.65625 0l0 1.484375l-2.65625 0l0 5.5625q0 0.984375 0.359375 1.34375q0.375 0.359375 1.265625 0.359375l1.046875 0zm1.771286 -11.75q0 -0.46875 0.3125 -0.75q0.328125 -0.296875 0.84375 -0.296875q0.53125 0 0.84375 0.296875q0.3125 0.28125 0.3125 0.75q0 0.46875 -0.3125 0.765625q-0.3125 0.28125 -0.84375 0.28125q-0.515625 0 -0.84375 -0.28125q-0.3125 -0.296875 -0.3125 -0.765625zm2.0 3.0l0 10.25l-1.703125 0l0 -10.25l1.703125 0zm7.6090355 8.75l0 1.5l-1.265625 0q-1.5625 0 -2.34375 -0.75q-0.78125 -0.75 -0.78125 -2.5l0 -5.515625l-1.53125 0l0 -1.484375l1.53125 0l0 -2.546875l1.71875 0l0 2.546875l2.65625 0l0 1.484375l-2.65625 0l0 5.5625q0 0.984375 0.359375 1.34375q0.375 0.359375 1.265625 0.359375l1.046875 0zm11.177536 -8.75l0 10.25l-1.703125 0l0 -2.40625q-0.390625 1.25 -1.390625 1.921875q-1.0 0.65625 -2.3125 0.65625q-1.78125 0 -2.890625 -1.140625q-1.09375 -1.15625 -1.09375 -3.296875l0 -5.984375l1.703125 0l0 5.8125q0 1.53125 0.78125 2.359375q0.78125 0.828125 2.125 0.828125q1.40625 0 2.234375 -0.90625q0.84375 -0.90625 0.84375 -2.640625l0 -5.453125l1.703125 0zm5.937439 -0.125q1.734375 0 2.78125 0.90625q1.046875 0.90625 1.28125 2.4375l-1.625 0q-0.109375 -0.921875 -0.765625 -1.5q-0.640625 -0.59375 -1.71875 -0.59375q-0.90625 0 -1.421875 0.4375q-0.515625 0.4375 -0.515625 1.1875q0 0.5625 0.34375 0.90625q0.34375 0.34375 0.859375 0.53125q0.515625 0.171875 1.40625 0.375q1.140625 0.265625 1.84375 0.53125q0.703125 0.265625 1.1875 0.875q0.5 0.59375 0.5 1.59375q0 1.25 -0.953125 2.03125q-0.9375 0.78125 -2.5 0.78125q-1.828125 0 -2.984375 -0.875q-1.15625 -0.875 -1.359375 -2.4375l1.640625 0q0.09375 0.9375 0.8125 1.515625q0.71875 0.578125 1.890625 0.578125q0.875 0 1.359375 -0.453125q0.5 -0.453125 0.5 -1.171875q0 -0.609375 -0.359375 -0.953125q-0.34375 -0.359375 -0.875 -0.546875q-0.515625 -0.1875 -1.421875 -0.390625q-1.140625 -0.265625 -1.828125 -0.515625q-0.671875 -0.265625 -1.15625 -0.828125q-0.46875 -0.578125 -0.46875 -1.546875q0 -1.28125 0.9375 -2.078125q0.953125 -0.796875 2.609375 -0.796875zm12.254654 2.8125l0 1.4375l-7.46875 0l0 -1.4375l7.46875 0zm7.8633423 -5.109375q-1.359375 -0.015625 -1.890625 0.46875q-0.53125 0.484375 -0.53125 1.6875l0 0.265625l2.421875 0l0 1.5l-2.421875 0l0 8.75l-1.703125 0l0 -8.75l-1.46875 0l0 -1.5l1.46875 0l0 -0.40625q0 -3.671875 4.125 -3.5l0 1.484375zm3.5523071 4.5q0.5 -1.0625 1.46875 -1.640625q0.96875 -0.59375 2.3125 -0.59375l0 1.84375l-0.515625 0q-1.4375 0 -2.359375 0.734375q-0.90625 0.734375 -0.90625 2.4375l0 5.390625l-1.703125 0l0 -10.25l1.703125 0l0 2.078125zm10.101501 -2.203125q1.484375 0 2.640625 0.640625q1.171875 0.625 1.828125 1.828125q0.671875 1.1875 0.671875 2.796875q0 1.609375 -0.671875 2.796875q-0.65625 1.171875 -1.828125 1.8125q-1.15625 0.625 -2.640625 0.625q-1.46875 0 -2.640625 -0.625q-1.15625 -0.640625 -1.828125 -1.8125q-0.671875 -1.1875 -0.671875 -2.796875q0 -1.609375 0.671875 -2.796875q0.671875 -1.203125 1.828125 -1.828125q1.171875 -0.640625 2.640625 -0.640625zm0 1.5q-0.90625 0 -1.6875 0.40625q-0.765625 0.40625 -1.25 1.265625q-0.46875 0.84375 -0.46875 2.09375q0 1.234375 0.46875 2.078125q0.484375 0.84375 1.25 1.265625q0.78125 0.40625 1.6875 0.40625q0.921875 0 1.6875 -0.40625q0.78125 -0.421875 1.25 -1.265625q0.484375 -0.84375 0.484375 -2.078125q0 -1.25 -0.484375 -2.09375q-0.46875 -0.859375 -1.25 -1.265625q-0.765625 -0.40625 -1.6875 -0.40625zm12.745972 -1.53125q1.796875 0 2.890625 1.15625q1.109375 1.140625 1.109375 3.296875l0 5.953125l-1.703125 0l0 -5.796875q0 -1.53125 -0.78125 -2.34375q-0.78125 -0.828125 -2.125 -0.828125q-1.40625 0 -2.25 0.90625q-0.828125 0.90625 -0.828125 2.640625l0 5.421875l-1.703125 0l0 -10.25l1.703125 0l0 2.4375q0.390625 -1.25 1.390625 -1.921875q1.0 -0.671875 2.296875 -0.671875zm11.495972 8.90625l0 1.5l-1.265625 0q-1.5625 0 -2.34375 -0.75q-0.78125 -0.75 -0.78125 -2.5l0 -5.515625l-1.53125 0l0 -1.484375l1.53125 0l0 -2.546875l1.71875 0l0 2.546875l2.65625 0l0 1.484375l-2.65625 0l0 5.5625q0 0.984375 0.359375 1.34375q0.375 0.359375 1.265625 0.359375l1.046875 0zm11.490036 -4.1875q0 0.53125 -0.078125 0.9375l-8.1875 0q0.0625 1.75 1.0 2.625q0.9375 0.875 2.3125 0.875q1.21875 0 2.046875 -0.625q0.84375 -0.625 1.03125 -1.671875l1.796875 0q-0.1875 1.0625 -0.828125 1.90625q-0.640625 0.84375 -1.671875 1.3125q-1.015625 0.453125 -2.3125 0.453125q-1.46875 0 -2.609375 -0.625q-1.140625 -0.640625 -1.78125 -1.8125q-0.640625 -1.1875 -0.640625 -2.796875q0 -1.609375 0.640625 -2.796875q0.640625 -1.203125 1.78125 -1.828125q1.140625 -0.640625 2.609375 -0.640625q1.5 0 2.609375 0.640625q1.109375 0.625 1.6875 1.6875q0.59375 1.0625 0.59375 2.359375zm-1.71875 0.109375q0.0625 -1.140625 -0.375 -1.90625q-0.421875 -0.765625 -1.171875 -1.140625q-0.75 -0.375 -1.625 -0.375q-1.390625 0 -2.34375 0.875q-0.953125 0.875 -1.03125 2.546875l6.546875 0zm9.32901 -4.828125q1.796875 0 2.890625 1.15625q1.109375 1.140625 1.109375 3.296875l0 5.953125l-1.703125 0l0 -5.796875q0 -1.53125 -0.78125 -2.34375q-0.78125 -0.828125 -2.125 -0.828125q-1.40625 0 -2.25 0.90625q-0.828125 0.90625 -0.828125 2.640625l0 5.421875l-1.703125 0l0 -10.25l1.703125 0l0 2.4375q0.390625 -1.25 1.390625 -1.921875q1.0 -0.671875 2.296875 -0.671875zm10.808472 0.03125q1.484375 0 2.515625 0.75q1.046875 0.75 1.453125 2.0l0 -6.1875l1.703125 0l0 13.8125l-1.703125 0l0 -2.609375q-0.40625 1.25 -1.453125 2.0q-1.03125 0.734375 -2.515625 0.734375q-1.359375 0 -2.421875 -0.625q-1.0625 -0.640625 -1.671875 -1.8125q-0.609375 -1.1875 -0.609375 -2.796875q0 -1.609375 0.609375 -2.796875q0.609375 -1.203125 1.671875 -1.828125q1.0625 -0.640625 2.421875 -0.640625zm0.484375 1.515625q-1.5625 0 -2.515625 1.0q-0.9375 1.0 -0.9375 2.75q0 1.75 0.9375 2.75q0.953125 1.0 2.515625 1.0q1.0 0 1.796875 -0.46875q0.796875 -0.46875 1.234375 -1.3125q0.453125 -0.859375 0.453125 -1.96875q0 -1.125 -0.453125 -1.984375q-0.4375 -0.859375 -1.234375 -1.3125q-0.796875 -0.453125 -1.796875 -0.453125z" fill-rule="nonzero"/><path fill="#000000" fill-opacity="0.0" d="m13.062992 141.6708l0 0c0 -5.636032 4.568903 -10.204926 10.204929 -10.204926l188.56653 0c2.7065125 0 5.302185 1.0751495 7.215973 2.9889526c1.9138031 1.9137878 2.9889526 4.5094604 2.9889526 7.215973l0 40.818497c0 5.636017 -4.5688934 10.204926 -10.204926 10.204926l-188.56653 0c-5.6360264 0 -10.204929 -4.5689087 -10.204929 -10.204926z" fill-rule="evenodd"/><path stroke="#194cac" stroke-width="2.0" stroke-linejoin="round" stroke-linecap="butt" stroke-dasharray="8.0,6.0" d="m13.062992 141.6708l0 0c0 -5.636032 4.568903 -10.204926 10.204929 -10.204926l188.56653 0c2.7065125 0 5.302185 1.0751495 7.215973 2.9889526c1.9138031 1.9137878 2.9889526 4.5094604 2.9889526 7.215973l0 40.818497c0 5.636017 -4.5688934 10.204926 -10.204926 10.204926l-188.56653 0c-5.6360264 0 -10.204929 -4.5689087 -10.204929 -10.204926z" fill-rule="evenodd"/><path fill="#fd775e" d="m58.224445 167.50005l0 1.5l-1.265625 0q-1.5625 0 -2.34375 -0.75q-0.78125 -0.75 -0.78125 -2.5l0 -5.515625l-1.53125 0l0 -1.484375l1.53125 0l0 -2.546875l1.71875 0l0 2.546875l2.65625 0l0 1.484375l-2.65625 0l0 5.5625q0 0.984375 0.359375 1.34375q0.375 0.359375 1.265625 0.359375l1.046875 0zm1.771286 -11.75q0 -0.46875 0.3125 -0.75q0.328125 -0.296875 0.84375 -0.296875q0.53125 0 0.84375 0.296875q0.3125 0.28125 0.3125 0.75q0 0.46875 -0.3125 0.765625q-0.3125 0.28125 -0.84375 0.28125q-0.515625 0 -0.84375 -0.28125q-0.3125 -0.296875 -0.3125 -0.765625zm2.0 3.0l0 10.25l-1.703125 0l0 -10.25l1.703125 0zm7.6090355 8.75l0 1.5l-1.265625 0q-1.5625 0 -2.34375 -0.75q-0.78125 -0.75 -0.78125 -2.5l0 -5.515625l-1.5312462 0l0 -1.484375l1.5312462 0l0 -2.546875l1.71875 0l0 2.546875l2.65625 0l0 1.484375l-2.65625 0l0 5.5625q0 0.984375 0.359375 1.34375q0.375 0.359375 1.265625 0.359375l1.046875 0zm11.177536 -8.75l0 10.25l-1.703125 0l0 -2.40625q-0.390625 1.25 -1.390625 1.921875q-1.0 0.65625 -2.3125 0.65625q-1.78125 0 -2.890625 -1.140625q-1.09375 -1.15625 -1.09375 -3.296875l0 -5.984375l1.703125 0l0 5.8125q0 1.53125 0.78125 2.359375q0.78125 0.828125 2.125 0.828125q1.40625 0 2.234375 -0.90625q0.84375 -0.90625 0.84375 -2.640625l0 -5.453125l1.703125 0zm5.937439 -0.125q1.734375 0 2.78125 0.90625q1.046875 0.90625 1.28125 2.4375l-1.625 0q-0.109375 -0.921875 -0.765625 -1.5q-0.640625 -0.59375 -1.71875 -0.59375q-0.90625 0 -1.421875 0.4375q-0.515625 0.4375 -0.515625 1.1875q0 0.5625 0.34375 0.90625q0.34375 0.34375 0.859375 0.53125q0.515625 0.171875 1.40625 0.375q1.140625 0.265625 1.84375 0.53125q0.703125 0.265625 1.1875 0.875q0.5 0.59375 0.5 1.59375q0 1.25 -0.953125 2.03125q-0.9375 0.78125 -2.5 0.78125q-1.828125 0 -2.984375 -0.875q-1.15625 -0.875 -1.359375 -2.4375l1.640625 0q0.09375 0.9375 0.8125 1.515625q0.71875 0.578125 1.890625 0.578125q0.875 0 1.359375 -0.453125q0.5 -0.453125 0.5 -1.171875q0 -0.609375 -0.359375 -0.953125q-0.34375 -0.359375 -0.875 -0.546875q-0.515625 -0.1875 -1.421875 -0.390625q-1.140625 -0.265625 -1.828125 -0.515625q-0.671875 -0.265625 -1.15625 -0.828125q-0.46875 -0.578125 -0.46875 -1.546875q0 -1.28125 0.9375 -2.078125q0.953125 -0.796875 2.609375 -0.796875zm12.254654 2.8125l0 1.4375l-7.46875 0l0 -1.4375l7.46875 0zm8.988342 -2.8125q1.359375 0 2.421875 0.640625q1.0625 0.625 1.671875 1.828125q0.609375 1.1875 0.609375 2.796875q0 1.609375 -0.609375 2.796875q-0.609375 1.171875 -1.671875 1.8125q-1.0625 0.625 -2.421875 0.625q-1.5 0 -2.53125 -0.75q-1.03125 -0.75 -1.421875 -1.984375l0 2.609375l-1.703125 0l0 -13.8125l1.703125 0l0 6.1875q0.390625 -1.234375 1.421875 -1.984375q1.03125 -0.765625 2.53125 -0.765625zm-0.484375 1.515625q-0.984375 0 -1.796875 0.453125q-0.796875 0.453125 -1.25 1.3125q-0.4375 0.859375 -0.4375 1.984375q0 1.109375 0.4375 1.96875q0.453125 0.84375 1.25 1.3125q0.8125 0.46875 1.796875 0.46875q1.578125 0 2.515625 -1.0q0.953125 -1.0 0.953125 -2.75q0 -1.75 -0.953125 -2.75q-0.9375 -1.0 -2.515625 -1.0zm11.60556 -1.515625q1.484375 0 2.515625 0.75q1.046875 0.75 1.453125 2.0l0 -2.625l1.703125 0l0 10.25l-1.703125 0l0 -2.609375q-0.40625 1.25 -1.453125 2.0q-1.03125 0.734375 -2.515625 0.734375q-1.359375 0 -2.421875 -0.625q-1.0625 -0.640625 -1.671875 -1.8125q-0.609375 -1.1875 -0.609375 -2.796875q0 -1.609375 0.609375 -2.796875q0.609375 -1.203125 1.671875 -1.828125q1.0625 -0.640625 2.421875 -0.640625zm0.484375 1.515625q-1.5625 0 -2.515625 1.0q-0.9375 1.0 -0.9375 2.75q0 1.75 0.9375 2.75q0.953125 1.0 2.515625 1.0q1.0 0 1.796875 -0.46875q0.796875 -0.46875 1.234375 -1.3125q0.453125 -0.859375 0.453125 -1.96875q0 -1.125 -0.453125 -1.984375q-0.4375 -0.859375 -1.234375 -1.3125q-0.796875 -0.453125 -1.796875 -0.453125zm12.41806 -1.515625q1.96875 0 3.25 1.046875q1.28125 1.046875 1.59375 2.796875l-1.796875 0q-0.1875 -1.09375 -1.015625 -1.71875q-0.828125 -0.625 -2.0625 -0.625q-0.890625 0 -1.640625 0.40625q-0.734375 0.40625 -1.1875 1.265625q-0.4375 0.84375 -0.4375 2.09375q0 1.25 0.4375 2.09375q0.453125 0.84375 1.1875 1.265625q0.75 0.40625 1.640625 0.40625q1.234375 0 2.0625 -0.625q0.828125 -0.640625 1.015625 -1.75l1.796875 0q-0.3125 1.78125 -1.59375 2.8125q-1.28125 1.03125 -3.25 1.03125q-1.46875 0 -2.609375 -0.625q-1.140625 -0.640625 -1.78125 -1.8125q-0.640625 -1.1875 -0.640625 -2.796875q0 -1.609375 0.640625 -2.796875q0.640625 -1.203125 1.78125 -1.828125q1.140625 -0.640625 2.609375 -0.640625zm12.679291 10.375l-3.921875 -4.609375l0 4.609375l-1.703125 0l0 -13.8125l1.703125 0l0 8.03125l3.859375 -4.46875l2.078125 0l-4.59375 5.09375l4.703125 5.15625l-2.125 0zm13.031723 -5.6875q0 0.53125 -0.078125 0.9375l-8.1875 0q0.0625 1.75 1.0 2.625q0.9375 0.875 2.3125 0.875q1.21875 0 2.046875 -0.625q0.84375 -0.625 1.03125 -1.671875l1.796875 0q-0.1875 1.0625 -0.828125 1.90625q-0.640625 0.84375 -1.671875 1.3125q-1.015625 0.453125 -2.3125 0.453125q-1.46875 0 -2.609375 -0.625q-1.140625 -0.640625 -1.78125 -1.8125q-0.640625 -1.1875 -0.640625 -2.796875q0 -1.609375 0.640625 -2.796875q0.640625 -1.203125 1.78125 -1.828125q1.140625 -0.640625 2.609375 -0.640625q1.5 0 2.609375 0.640625q1.109375 0.625 1.6875 1.6875q0.59375 1.0625 0.59375 2.359375zm-1.71875 0.109375q0.0625 -1.140625 -0.375 -1.90625q-0.421875 -0.765625 -1.171875 -1.140625q-0.75 -0.375 -1.625 -0.375q-1.390625 0 -2.34375 0.875q-0.953125 0.875 -1.03125 2.546875l6.546875 0zm9.32901 -4.828125q1.796875 0 2.890625 1.15625q1.109375 1.140625 1.109375 3.296875l0 5.953125l-1.703125 0l0 -5.796875q0 -1.53125 -0.78125 -2.34375q-0.78125 -0.828125 -2.125 -0.828125q-1.40625 0 -2.25 0.90625q-0.828125 0.90625 -0.828125 2.640625l0 5.421875l-1.703125 0l0 -10.25l1.703125 0l0 2.4375q0.390625 -1.25 1.390625 -1.921875q1.0 -0.671875 2.296875 -0.671875zm10.808472 0.03125q1.484375 0 2.515625 0.75q1.046875 0.75 1.453125 2.0l0 -6.1875l1.703125 0l0 13.8125l-1.703125 0l0 -2.609375q-0.40625 1.25 -1.453125 2.0q-1.03125 0.734375 -2.515625 0.734375q-1.359375 0 -2.421875 -0.625q-1.0625 -0.640625 -1.671875 -1.8125q-0.609375 -1.1875 -0.609375 -2.796875q0 -1.609375 0.609375 -2.796875q0.609375 -1.203125 1.671875 -1.828125q1.0625 -0.640625 2.421875 -0.640625zm0.484375 1.515625q-1.5625 0 -2.515625 1.0q-0.9375 1.0 -0.9375 2.75q0 1.75 0.9375 2.75q0.953125 1.0 2.515625 1.0q1.0 0 1.796875 -0.46875q0.796875 -0.46875 1.234375 -1.3125q0.453125 -0.859375 0.453125 -1.96875q0 -1.125 -0.453125 -1.984375q-0.4375 -0.859375 -1.234375 -1.3125q-0.796875 -0.453125 -1.796875 -0.453125z" fill-rule="nonzero"/><path fill="#000000" fill-opacity="0.0" d="m249.96063 68.16293l0 0c0 -5.6360245 4.5688934 -10.204929 10.204926 -10.204929l188.56653 0c2.7065125 0 5.302185 1.075161 7.215973 2.9889565c1.9137878 1.9137955 2.9889526 4.5094604 2.9889526 7.215973l0 40.81849c0 5.6360245 -4.5689087 10.204926 -10.204926 10.204926l-188.56653 0c-5.636032 0 -10.204926 -4.568901 -10.204926 -10.204926z" fill-rule="evenodd"/><path stroke="#2165e5" stroke-width="2.0" stroke-linejoin="round" stroke-linecap="butt" stroke-dasharray="8.0,6.0" d="m249.96063 68.16293l0 0c0 -5.6360245 4.5688934 -10.204929 10.204926 -10.204929l188.56653 0c2.7065125 0 5.302185 1.075161 7.215973 2.9889565c1.9137878 1.9137955 2.9889526 4.5094604 2.9889526 7.215973l0 40.81849c0 5.6360245 -4.5689087 10.204926 -10.204926 10.204926l-188.56653 0c-5.636032 0 -10.204926 -4.568901 -10.204926 -10.204926z" fill-rule="evenodd"/><path fill="#fd775e" d="m295.49945 95.49218l-3.4375 -5.375l-1.84375 0l0 5.375l-1.703125 0l0 -13.15625l4.328125 0q2.234375 0 3.359375 1.078125q1.125 1.078125 1.125 2.84375q0 1.609375 -0.90625 2.59375q-0.890625 0.96875 -2.59375 1.21875l3.59375 5.421875l-1.921875 0zm-5.28125 -6.609375l2.484375 0q2.890625 0 2.890625 -2.53125q0 -2.53125 -2.890625 -2.53125l-2.484375 0l0 5.0625zm18.595337 0.921875q0 0.53125 -0.078125 0.9375l-8.1875 0q0.0625 1.75 1.0 2.625q0.9375 0.875 2.3125 0.875q1.21875 0 2.046875 -0.625q0.84375 -0.625 1.03125 -1.671875l1.796875 0q-0.1875 1.0625 -0.828125 1.90625q-0.640625 0.84375 -1.671875 1.3125q-1.015625 0.453125 -2.3125 0.453125q-1.46875 0 -2.609375 -0.625q-1.140625 -0.640625 -1.78125 -1.8125q-0.640625 -1.1875 -0.640625 -2.796875q0 -1.609375 0.640625 -2.796875q0.640625 -1.203125 1.78125 -1.828125q1.140625 -0.640625 2.609375 -0.640625q1.5 0 2.609375 0.640625q1.109375 0.625 1.6875 1.6875q0.59375 1.0625 0.59375 2.359375zm-1.71875 0.109375q0.0625 -1.140625 -0.375 -1.90625q-0.421875 -0.765625 -1.171875 -1.140625q-0.75 -0.375 -1.625 -0.375q-1.390625 0 -2.34375 0.875q-0.953125 0.875 -1.03125 2.546875l6.546875 0zm8.14151 -4.796875q1.484375 0 2.515625 0.75q1.046875 0.75 1.453125 2.0l0 -6.1875l1.703125 0l0 13.8125l-1.703125 0l0 -2.609375q-0.40625 1.25 -1.453125 2.0q-1.03125 0.734375 -2.515625 0.734375q-1.359375 0 -2.421875 -0.625q-1.0625 -0.640625 -1.671875 -1.8125q-0.609375 -1.1875 -0.609375 -2.796875q0 -1.609375 0.609375 -2.796875q0.609375 -1.203125 1.671875 -1.828125q1.0625 -0.640625 2.421875 -0.640625zm0.484375 1.515625q-1.5625 0 -2.515625 1.0q-0.9375 1.0 -0.9375 2.75q0 1.75 0.9375 2.75q0.953125 1.0 2.515625 1.0q1.0 0 1.796875 -0.46875q0.796875 -0.46875 1.234375 -1.3125q0.453125 -0.859375 0.453125 -1.96875q0 -1.125 -0.453125 -1.984375q-0.4375 -0.859375 -1.234375 -1.3125q-0.796875 -0.453125 -1.796875 -0.453125zm7.5899353 -4.390625q0 -0.46875 0.3125 -0.75q0.328125 -0.296875 0.84375 -0.296875q0.53125 0 0.84375 0.296875q0.3125 0.28125 0.3125 0.75q0 0.46875 -0.3125 0.765625q-0.3125 0.28125 -0.84375 0.28125q-0.515625 0 -0.84375 -0.28125q-0.3125 -0.296875 -0.3125 -0.765625zm2.0 3.0l0 10.25l-1.703125 0l0 -10.25l1.703125 0zm5.9371643 -0.125q1.734375 0 2.78125 0.90625q1.046875 0.90625 1.28125 2.4375l-1.625 0q-0.109375 -0.921875 -0.765625 -1.5q-0.640625 -0.59375 -1.71875 -0.59375q-0.90625 0 -1.421875 0.4375q-0.515625 0.4375 -0.515625 1.1875q0 0.5625 0.34375 0.90625q0.34375 0.34375 0.859375 0.53125q0.515625 0.171875 1.40625 0.375q1.140625 0.265625 1.84375 0.53125q0.703125 0.265625 1.1875 0.875q0.5 0.59375 0.5 1.59375q0 1.25 -0.953125 2.03125q-0.9375 0.78125 -2.5 0.78125q-1.828125 0 -2.984375 -0.875q-1.15625 -0.875 -1.359375 -2.4375l1.640625 0q0.09375 0.9375 0.8125 1.515625q0.71875 0.578125 1.890625 0.578125q0.875 0 1.359375 -0.453125q0.5 -0.453125 0.5 -1.171875q0 -0.609375 -0.359375 -0.953125q-0.34375 -0.359375 -0.875 -0.546875q-0.515625 -0.1875 -1.421875 -0.390625q-1.140625 -0.265625 -1.828125 -0.515625q-0.671875 -0.265625 -1.15625 -0.828125q-0.46875 -0.578125 -0.46875 -1.546875q0 -1.28125 0.9375 -2.078125q0.953125 -0.796875 2.609375 -0.796875zm10.737762 -2.875q0 -0.46875 0.3125 -0.75q0.328125 -0.296875 0.84375 -0.296875q0.53125 0 0.84375 0.296875q0.3125 0.28125 0.3125 0.75q0 0.46875 -0.3125 0.765625q-0.3125 0.28125 -0.84375 0.28125q-0.515625 0 -0.84375 -0.28125q-0.3125 -0.296875 -0.3125 -0.765625zm2.0 3.0l0 10.25l-1.703125 0l0 -10.25l1.703125 0zm8.109039 -0.15625q1.796875 0 2.890625 1.15625q1.109375 1.140625 1.109375 3.296875l0 5.953125l-1.703125 0l0 -5.796875q0 -1.53125 -0.78125 -2.34375q-0.78125 -0.828125 -2.125 -0.828125q-1.40625 0 -2.25 0.90625q-0.828125 0.90625 -0.828125 2.640625l0 5.421875l-1.703125 0l0 -10.25l1.703125 0l0 2.4375q0.390625 -1.25 1.390625 -1.921875q1.0 -0.671875 2.296875 -0.671875zm9.824097 0.03125q1.734375 0 2.78125 0.90625q1.046875 0.90625 1.28125 2.4375l-1.625 0q-0.109375 -0.921875 -0.765625 -1.5q-0.640625 -0.59375 -1.71875 -0.59375q-0.90625 0 -1.421875 0.4375q-0.515625 0.4375 -0.515625 1.1875q0 0.5625 0.34375 0.90625q0.34375 0.34375 0.859375 0.53125q0.515625 0.171875 1.40625 0.375q1.140625 0.265625 1.84375 0.53125q0.703125 0.265625 1.1875 0.875q0.5 0.59375 0.5 1.59375q0 1.25 -0.953125 2.03125q-0.9375 0.78125 -2.5 0.78125q-1.828125 0 -2.984375 -0.875q-1.15625 -0.875 -1.359375 -2.4375l1.640625 0q0.09375 0.9375 0.8125 1.515625q0.71875 0.578125 1.890625 0.578125q0.875 0 1.359375 -0.453125q0.5 -0.453125 0.5 -1.171875q0 -0.609375 -0.359375 -0.953125q-0.34375 -0.359375 -0.875 -0.546875q-0.515625 -0.1875 -1.421875 -0.390625q-1.140625 -0.265625 -1.828125 -0.515625q-0.671875 -0.265625 -1.15625 -0.828125q-0.46875 -0.578125 -0.46875 -1.546875q0 -1.28125 0.9375 -2.078125q0.953125 -0.796875 2.609375 -0.796875zm11.317139 8.875l0 1.5l-1.265625 0q-1.5625 0 -2.34375 -0.75q-0.78125 -0.75 -0.78125 -2.5l0 -5.515625l-1.53125 0l0 -1.484375l1.53125 0l0 -2.546875l1.71875 0l0 2.546875l2.65625 0l0 1.484375l-2.65625 0l0 5.5625q0 0.984375 0.359375 1.34375q0.375 0.359375 1.265625 0.359375l1.046875 0zm6.2713013 -8.875q1.484375 0 2.515625 0.75q1.046875 0.75 1.453125 2.0l0 -2.625l1.703125 0l0 10.25l-1.703125 0l0 -2.609375q-0.40625 1.25 -1.453125 2.0q-1.03125 0.734375 -2.515625 0.734375q-1.359375 0 -2.421875 -0.625q-1.0625 -0.640625 -1.671875 -1.8125q-0.609375 -1.1875 -0.609375 -2.796875q0 -1.609375 0.609375 -2.796875q0.609375 -1.203125 1.671875 -1.828125q1.0625 -0.640625 2.421875 -0.640625zm0.484375 1.515625q-1.5625 0 -2.515625 1.0q-0.9375 1.0 -0.9375 2.75q0 1.75 0.9375 2.75q0.953125 1.0 2.515625 1.0q1.0 0 1.796875 -0.46875q0.796875 -0.46875 1.234375 -1.3125q0.453125 -0.859375 0.453125 -1.96875q0 -1.125 -0.453125 -1.984375q-0.4375 -0.859375 -1.234375 -1.3125q-0.796875 -0.453125 -1.796875 -0.453125zm13.277435 -1.546875q1.796875 0 2.890625 1.15625q1.109375 1.140625 1.109375 3.296875l0 5.953125l-1.703125 0l0 -5.796875q0 -1.53125 -0.78125 -2.34375q-0.78125 -0.828125 -2.125 -0.828125q-1.40625 0 -2.25 0.90625q-0.828125 0.90625 -0.828125 2.640625l0 5.421875l-1.703125 0l0 -10.25l1.703125 0l0 2.4375q0.390625 -1.25 1.390625 -1.921875q1.0 -0.671875 2.296875 -0.671875zm11.136597 0.03125q1.96875 0 3.25 1.046875q1.28125 1.046875 1.59375 2.796875l-1.796875 0q-0.1875 -1.09375 -1.015625 -1.71875q-0.828125 -0.625 -2.0625 -0.625q-0.890625 0 -1.640625 0.40625q-0.734375 0.40625 -1.1875 1.265625q-0.4375 0.84375 -0.4375 2.09375q0 1.25 0.4375 2.09375q0.453125 0.84375 1.1875 1.265625q0.75 0.40625 1.640625 0.40625q1.234375 0 2.0625 -0.625q0.828125 -0.640625 1.015625 -1.75l1.796875 0q-0.3125 1.78125 -1.59375 2.8125q-1.28125 1.03125 -3.25 1.03125q-1.46875 0 -2.609375 -0.625q-1.140625 -0.640625 -1.78125 -1.8125q-0.640625 -1.1875 -0.640625 -2.796875q0 -1.609375 0.640625 -2.796875q0.640625 -1.203125 1.78125 -1.828125q1.140625 -0.640625 2.609375 -0.640625zm16.476166 4.6875q0 0.53125 -0.078125 0.9375l-8.1875 0q0.0625 1.75 1.0 2.625q0.9375 0.875 2.3125 0.875q1.21875 0 2.046875 -0.625q0.84375 -0.625 1.03125 -1.671875l1.796875 0q-0.1875 1.0625 -0.828125 1.90625q-0.640625 0.84375 -1.671875 1.3125q-1.015625 0.453125 -2.3125 0.453125q-1.46875 0 -2.609375 -0.625q-1.140625 -0.640625 -1.78125 -1.8125q-0.640625 -1.1875 -0.640625 -2.796875q0 -1.609375 0.640625 -2.796875q0.640625 -1.203125 1.78125 -1.828125q1.140625 -0.640625 2.609375 -0.640625q1.5 0 2.609375 0.640625q1.109375 0.625 1.6875 1.6875q0.59375 1.0625 0.59375 2.359375zm-1.71875 0.109375q0.0625 -1.140625 -0.375 -1.90625q-0.421875 -0.765625 -1.171875 -1.140625q-0.75 -0.375 -1.625 -0.375q-1.390625 0 -2.34375 0.875q-0.953125 0.875 -1.03125 2.546875l6.546875 0z" fill-rule="nonzero"/><path fill="#000000" fill-opacity="0.0" d="m249.96063 141.6708l0 0c0 -5.636032 4.5688934 -10.204926 10.204926 -10.204926l188.56653 0c2.7065125 0 5.302185 1.0751495 7.215973 2.9889526c1.9137878 1.9137878 2.9889526 4.5094604 2.9889526 7.215973l0 40.818497c0 5.636017 -4.5689087 10.204926 -10.204926 10.204926l-188.56653 0c-5.636032 0 -10.204926 -4.5689087 -10.204926 -10.204926z" fill-rule="evenodd"/><path stroke="#2165e5" stroke-width="2.0" stroke-linejoin="round" stroke-linecap="butt" stroke-dasharray="8.0,6.0" d="m249.96063 141.6708l0 0c0 -5.636032 4.5688934 -10.204926 10.204926 -10.204926l188.56653 0c2.7065125 0 5.302185 1.0751495 7.215973 2.9889526c1.9137878 1.9137878 2.9889526 4.5094604 2.9889526 7.215973l0 40.818497c0 5.636017 -4.5689087 10.204926 -10.204926 10.204926l-188.56653 0c-5.636032 0 -10.204926 -4.5689087 -10.204926 -10.204926z" fill-rule="evenodd"/><path fill="#fd775e" d="m265.6852 163.70317l0 5.296875l-1.703125 0l0 -13.15625l4.1875 0q2.25 0 3.359375 1.0625q1.125 1.046875 1.125 2.875q0 1.84375 -1.15625 2.890625q-1.15625 1.03125 -3.328125 1.03125l-2.484375 0zm2.328125 -1.421875q1.546875 0 2.21875 -0.640625q0.6875 -0.65625 0.6875 -1.859375q0 -1.234375 -0.6875 -1.875q-0.671875 -0.640625 -2.21875 -0.640625l-2.328125 0l0 5.015625l2.328125 0zm11.2621155 -3.65625q1.484375 0 2.640625 0.640625q1.171875 0.625 1.828125 1.828125q0.671875 1.1875 0.671875 2.796875q0 1.609375 -0.671875 2.796875q-0.65625 1.171875 -1.828125 1.8125q-1.15625 0.625 -2.640625 0.625q-1.46875 0 -2.640625 -0.625q-1.15625 -0.640625 -1.828125 -1.8125q-0.671875 -1.1875 -0.671875 -2.796875q0 -1.609375 0.671875 -2.796875q0.671875 -1.203125 1.828125 -1.828125q1.171875 -0.640625 2.640625 -0.640625zm0 1.5q-0.90625 0 -1.6875 0.40625q-0.765625 0.40625 -1.25 1.265625q-0.46875 0.84375 -0.46875 2.09375q0 1.234375 0.46875 2.078125q0.484375 0.84375 1.25 1.265625q0.78125 0.40625 1.6875 0.40625q0.921875 0 1.6875 -0.40625q0.78125 -0.421875 1.25 -1.265625q0.484375 -0.84375 0.484375 -2.078125q0 -1.25 -0.484375 -2.09375q-0.46875 -0.859375 -1.25 -1.265625q-0.765625 -0.40625 -1.6875 -0.40625zm10.574097 -1.5q1.734375 0 2.78125 0.90625q1.046875 0.90625 1.28125 2.4375l-1.625 0q-0.109375 -0.921875 -0.765625 -1.5q-0.640625 -0.59375 -1.71875 -0.59375q-0.90625 0 -1.421875 0.4375q-0.515625 0.4375 -0.515625 1.1875q0 0.5625 0.34375 0.90625q0.34375 0.34375 0.859375 0.53125q0.515625 0.171875 1.40625 0.375q1.140625 0.265625 1.84375 0.53125q0.703125 0.265625 1.1875 0.875q0.5 0.59375 0.5 1.59375q0 1.25 -0.953125 2.03125q-0.9375 0.78125 -2.5 0.78125q-1.828125 0 -2.984375 -0.875q-1.15625 -0.875 -1.359375 -2.4375l1.640625 0q0.09375 0.9375 0.8125 1.515625q0.71875 0.578125 1.890625 0.578125q0.875 0 1.359375 -0.453125q0.5 -0.453125 0.5 -1.171875q0 -0.609375 -0.359375 -0.953125q-0.34375 -0.359375 -0.875 -0.546875q-0.515625 -0.1875 -1.421875 -0.390625q-1.140625 -0.265625 -1.828125 -0.515625q-0.671875 -0.265625 -1.15625 -0.828125q-0.46875 -0.578125 -0.46875 -1.546875q0 -1.28125 0.9375 -2.078125q0.953125 -0.796875 2.609375 -0.796875zm11.317139 8.875l0 1.5l-1.265625 0q-1.5625 0 -2.34375 -0.75q-0.78125 -0.75 -0.78125 -2.5l0 -5.515625l-1.53125 0l0 -1.484375l1.53125 0l0 -2.546875l1.71875 0l0 2.546875l2.65625 0l0 1.484375l-2.65625 0l0 5.5625q0 0.984375 0.359375 1.34375q0.375 0.359375 1.265625 0.359375l1.046875 0zm6.2713013 -8.875q1.484375 0 2.515625 0.75q1.046875 0.75 1.453125 2.0l0 -2.625l1.703125 0l0 10.421875q0 1.40625 -0.609375 2.5q-0.59375 1.109375 -1.671875 1.71875q-1.078125 0.625 -2.515625 0.625q-2.078125 0 -3.390625 -1.0q-1.296875 -1.0 -1.640625 -2.6875l1.671875 0q0.296875 1.015625 1.125 1.609375q0.828125 0.59375 2.140625 0.59375q1.375 0 2.28125 -0.890625q0.90625 -0.890625 0.90625 -2.46875l0 -2.78125q-0.40625 1.25 -1.453125 2.0q-1.03125 0.734375 -2.515625 0.734375q-1.359375 0 -2.421875 -0.625q-1.0625 -0.640625 -1.671875 -1.8125q-0.609375 -1.1875 -0.609375 -2.796875q0 -1.609375 0.609375 -2.796875q0.609375 -1.203125 1.671875 -1.828125q1.0625 -0.640625 2.421875 -0.640625zm0.484375 1.515625q-1.5625 0 -2.515625 1.0q-0.9375 1.0 -0.9375 2.75q0 1.75 0.9375 2.75q0.953125 1.0 2.515625 1.0q1.0 0 1.796875 -0.46875q0.796875 -0.46875 1.234375 -1.3125q0.453125 -0.859375 0.453125 -1.96875q0 -1.125 -0.453125 -1.984375q-0.4375 -0.859375 -1.234375 -1.3125q-0.796875 -0.453125 -1.796875 -0.453125zm9.589935 0.6875q0.5 -1.0625 1.46875 -1.640625q0.96875 -0.59375 2.3125 -0.59375l0 1.84375l-0.515625 0q-1.4375 0 -2.359375 0.734375q-0.90625 0.734375 -0.90625 2.4375l0 5.390625l-1.703125 0l0 -10.25l1.703125 0l0 2.078125zm14.882751 2.484375q0 0.53125 -0.078125 0.9375l-8.1875 0q0.0625 1.75 1.0 2.625q0.9375 0.875 2.3125 0.875q1.21875 0 2.046875 -0.625q0.84375 -0.625 1.03125 -1.671875l1.796875 0q-0.1875 1.0625 -0.828125 1.90625q-0.640625 0.84375 -1.671875 1.3125q-1.015625 0.453125 -2.3125 0.453125q-1.46875 0 -2.609375 -0.625q-1.140625 -0.640625 -1.78125 -1.8125q-0.640625 -1.1875 -0.640625 -2.796875q0 -1.609375 0.640625 -2.796875q0.640625 -1.203125 1.78125 -1.828125q1.140625 -0.640625 2.609375 -0.640625q1.5 0 2.609375 0.640625q1.109375 0.625 1.6875 1.6875q0.59375 1.0625 0.59375 2.359375zm-1.71875 0.109375q0.0625 -1.140625 -0.375 -1.90625q-0.421875 -0.765625 -1.171875 -1.140625q-0.75 -0.375 -1.625 -0.375q-1.390625 0 -2.34375 0.875q-0.953125 0.875 -1.03125 2.546875l6.546875 0zm12.26651 2.15625q0 0.9375 -0.453125 1.75q-0.453125 0.796875 -1.375 1.296875q-0.90625 0.5 -2.25 0.5q-1.296875 0 -2.3125 -0.46875q-1.015625 -0.484375 -1.625 -1.3125q-0.609375 -0.828125 -0.703125 -1.890625l1.8125 0q0.046875 0.5625 0.375 1.09375q0.328125 0.53125 0.9375 0.875q0.609375 0.34375 1.46875 0.34375q1.109375 0 1.703125 -0.59375q0.609375 -0.59375 0.609375 -1.53125q0 -0.796875 -0.421875 -1.296875q-0.421875 -0.515625 -1.046875 -0.796875q-0.609375 -0.296875 -1.671875 -0.625q-1.25 -0.421875 -2.0 -0.78125q-0.75 -0.359375 -1.28125 -1.078125q-0.53125 -0.734375 -0.53125 -1.9375q0 -1.015625 0.484375 -1.796875q0.5 -0.796875 1.421875 -1.21875q0.921875 -0.4375 2.171875 -0.4375q1.9375 0 3.078125 0.953125q1.140625 0.9375 1.328125 2.390625l-1.828125 0q-0.15625 -0.78125 -0.8125 -1.375q-0.640625 -0.59375 -1.765625 -0.59375q-1.03125 0 -1.640625 0.53125q-0.609375 0.53125 -0.609375 1.5q0 0.765625 0.390625 1.25q0.40625 0.46875 1.0 0.734375q0.59375 0.265625 1.640625 0.609375q1.265625 0.40625 2.03125 0.78125q0.78125 0.375 1.328125 1.125q0.546875 0.75 0.546875 2.0zm6.5811157 -6.90625q1.421875 0 2.40625 0.6875q1.0 0.671875 1.453125 1.828125l0 -2.4375l1.703125 0l0 15.09375l-1.703125 0l0 -7.34375q-0.46875 1.21875 -1.46875 1.921875q-0.984375 0.703125 -2.390625 0.703125q-1.359375 0 -2.46875 -0.640625q-1.09375 -0.640625 -1.71875 -1.828125q-0.625 -1.1875 -0.625 -2.75q0 -1.5625 0.625 -2.75q0.625 -1.1875 1.71875 -1.828125q1.109375 -0.65625 2.46875 -0.65625zm0.375 1.46875q-1.53125 0 -2.5 1.0q-0.953125 1.0 -0.953125 2.765625q0 1.765625 0.953125 2.75q0.953125 0.984375 2.5 0.984375q0.96875 0 1.75 -0.453125q0.796875 -0.46875 1.265625 -1.3125q0.46875 -0.84375 0.46875 -1.984375q0 -1.140625 -0.46875 -1.984375q-0.46875 -0.859375 -1.265625 -1.3125q-0.78125 -0.453125 -1.75 -0.453125zm9.589935 -4.953125l0 13.8125l-1.703125 0l0 -13.8125l1.703125 0zm7.0296326 0.5625q0 -0.46875 0.3125 -0.75q0.328125 -0.296875 0.84375 -0.296875q0.53125 0 0.84375 0.296875q0.3125 0.28125 0.3125 0.75q0 0.46875 -0.3125 0.765625q-0.3125 0.28125 -0.84375 0.28125q-0.515625 0 -0.84375 -0.28125q-0.3125 -0.296875 -0.3125 -0.765625zm2.0 3.0l0 10.25l-1.703125 0l0 -10.25l1.703125 0zm8.109039 -0.15625q1.796875 0 2.890625 1.15625q1.109375 1.140625 1.109375 3.296875l0 5.953125l-1.703125 0l0 -5.796875q0 -1.53125 -0.78125 -2.34375q-0.78125 -0.828125 -2.125 -0.828125q-1.40625 0 -2.25 0.90625q-0.828125 0.90625 -0.828125 2.640625l0 5.421875l-1.703125 0l0 -10.25l1.703125 0l0 2.4375q0.390625 -1.25 1.390625 -1.921875q1.0 -0.671875 2.296875 -0.671875zm9.824097 0.03125q1.734375 0 2.78125 0.90625q1.046875 0.90625 1.28125 2.4375l-1.625 0q-0.109375 -0.921875 -0.765625 -1.5q-0.640625 -0.59375 -1.71875 -0.59375q-0.90625 0 -1.421875 0.4375q-0.515625 0.4375 -0.515625 1.1875q0 0.5625 0.34375 0.90625q0.34375 0.34375 0.859375 0.53125q0.515625 0.171875 1.40625 0.375q1.140625 0.265625 1.84375 0.53125q0.703125 0.265625 1.1875 0.875q0.5 0.59375 0.5 1.59375q0 1.25 -0.953125 2.03125q-0.9375 0.78125 -2.5 0.78125q-1.828125 0 -2.984375 -0.875q-1.15625 -0.875 -1.359375 -2.4375l1.640625 0q0.09375 0.9375 0.8125 1.515625q0.71875 0.578125 1.890625 0.578125q0.875 0 1.359375 -0.453125q0.5 -0.453125 0.5 -1.171875q0 -0.609375 -0.359375 -0.953125q-0.34375 -0.359375 -0.875 -0.546875q-0.515625 -0.1875 -1.421875 -0.390625q-1.140625 -0.265625 -1.828125 -0.515625q-0.671875 -0.265625 -1.15625 -0.828125q-0.46875 -0.578125 -0.46875 -1.546875q0 -1.28125 0.9375 -2.078125q0.953125 -0.796875 2.609375 -0.796875zm11.317169 8.875l0 1.5l-1.265625 0q-1.5625 0 -2.34375 -0.75q-0.78125 -0.75 -0.78125 -2.5l0 -5.515625l-1.53125 0l0 -1.484375l1.53125 0l0 -2.546875l1.71875 0l0 2.546875l2.65625 0l0 1.484375l-2.65625 0l0 5.5625q0 0.984375 0.359375 1.34375q0.375 0.359375 1.265625 0.359375l1.046875 0zm6.2712708 -8.875q1.484375 0 2.515625 0.75q1.046875 0.75 1.453125 2.0l0 -2.625l1.703125 0l0 10.25l-1.703125 0l0 -2.609375q-0.40625 1.25 -1.453125 2.0q-1.03125 0.734375 -2.515625 0.734375q-1.359375 0 -2.421875 -0.625q-1.0625 -0.640625 -1.671875 -1.8125q-0.609375 -1.1875 -0.609375 -2.796875q0 -1.609375 0.609375 -2.796875q0.609375 -1.203125 1.671875 -1.828125q1.0625 -0.640625 2.421875 -0.640625zm0.484375 1.515625q-1.5625 0 -2.515625 1.0q-0.9375 1.0 -0.9375 2.75q0 1.75 0.9375 2.75q0.953125 1.0 2.515625 1.0q1.0 0 1.796875 -0.46875q0.796875 -0.46875 1.234375 -1.3125q0.453125 -0.859375 0.453125 -1.96875q0 -1.125 -0.453125 -1.984375q-0.4375 -0.859375 -1.234375 -1.3125q-0.796875 -0.453125 -1.796875 -0.453125zm13.277435 -1.546875q1.796875 0 2.890625 1.15625q1.109375 1.140625 1.109375 3.296875l0 5.953125l-1.703125 0l0 -5.796875q0 -1.53125 -0.78125 -2.34375q-0.78125 -0.828125 -2.125 -0.828125q-1.40625 0 -2.25 0.90625q-0.828125 0.90625 -0.828125 2.640625l0 5.421875l-1.703125 0l0 -10.25l1.703125 0l0 2.4375q0.390625 -1.25 1.390625 -1.921875q1.0 -0.671875 2.296875 -0.671875zm11.136597 0.03125q1.96875 0 3.25 1.046875q1.28125 1.046875 1.59375 2.796875l-1.796875 0q-0.1875 -1.09375 -1.015625 -1.71875q-0.828125 -0.625 -2.0625 -0.625q-0.890625 0 -1.640625 0.40625q-0.734375 0.40625 -1.1875 1.265625q-0.4375 0.84375 -0.4375 2.09375q0 1.25 0.4375 2.09375q0.453125 0.84375 1.1875 1.265625q0.75 0.40625 1.640625 0.40625q1.234375 0 2.0625 -0.625q0.828125 -0.640625 1.015625 -1.75l1.796875 0q-0.3125 1.78125 -1.59375 2.8125q-1.28125 1.03125 -3.25 1.03125q-1.46875 0 -2.609375 -0.625q-1.140625 -0.640625 -1.78125 -1.8125q-0.640625 -1.1875 -0.640625 -2.796875q0 -1.609375 0.640625 -2.796875q0.640625 -1.203125 1.78125 -1.828125q1.140625 -0.640625 2.609375 -0.640625zm16.476166 4.6875q0 0.53125 -0.078125 0.9375l-8.1875 0q0.0625 1.75 1.0 2.625q0.9375 0.875 2.3125 0.875q1.21875 0 2.046875 -0.625q0.84375 -0.625 1.03125 -1.671875l1.796875 0q-0.1875 1.0625 -0.828125 1.90625q-0.640625 0.84375 -1.671875 1.3125q-1.015625 0.453125 -2.3125 0.453125q-1.46875 0 -2.609375 -0.625q-1.140625 -0.640625 -1.78125 -1.8125q-0.640625 -1.1875 -0.640625 -2.796875q0 -1.609375 0.640625 -2.796875q0.640625 -1.203125 1.78125 -1.828125q1.140625 -0.640625 2.609375 -0.640625q1.5 0 2.609375 0.640625q1.109375 0.625 1.6875 1.6875q0.59375 1.0625 0.59375 2.359375zm-1.71875 0.109375q0.0625 -1.140625 -0.375 -1.90625q-0.421875 -0.765625 -1.171875 -1.140625q-0.75 -0.375 -1.625 -0.375q-1.390625 0 -2.34375 0.875q-0.953125 0.875 -1.03125 2.546875l6.546875 0z" fill-rule="nonzero"/><path fill="#000000" fill-opacity="0.0" d="m302.52756 210.39381l0 0c0 -2.9919739 2.425476 -5.4174347 5.4174194 -5.4174347l145.57458 0c1.4367981 0 2.8147583 0.570755 3.830719 1.586731c1.0159607 1.0159607 1.586731 2.3939056 1.586731 3.8307037l0 21.669067c0 2.9919739 -2.425476 5.4174347 -5.41745 5.4174347l-145.57458 0c-2.9919434 0 -5.4174194 -2.4254608 -5.4174194 -5.4174347z" fill-rule="evenodd"/><path stroke="#2165e5" stroke-width="2.0" stroke-linejoin="round" stroke-linecap="butt" stroke-dasharray="8.0,6.0" d="m302.52756 210.39381l0 0c0 -2.9919739 2.425476 -5.4174347 5.4174194 -5.4174347l145.57458 0c1.4367981 0 2.8147583 0.570755 3.830719 1.586731c1.0159607 1.0159607 1.586731 2.3939056 1.586731 3.8307037l0 21.669067c0 2.9919739 -2.425476 5.4174347 -5.41745 5.4174347l-145.57458 0c-2.9919434 0 -5.4174194 -2.4254608 -5.4174194 -5.4174347z" fill-rule="evenodd"/><path fill="#fd7a9e" d="m350.12225 225.10147l-5.78125 0l-1.09375 3.046875l-1.828125 0l4.859375 -12.90625l1.921875 0l4.859375 12.90625l-1.828125 0l-1.109375 -3.046875zm-0.484375 -1.3125l-2.40625 -6.640625l-2.40625 6.640625l4.8125 0zm9.334808 -6.015625q1.484375 0 2.515625 0.75q1.046875 0.75 1.453125 2.0l0 -6.1875l1.703125 0l0 13.8125l-1.703125 0l0 -2.609375q-0.40625 1.25 -1.453125 2.0q-1.03125 0.734375 -2.515625 0.734375q-1.359375 0 -2.421875 -0.625q-1.0625 -0.640625 -1.671875 -1.8125q-0.609375 -1.1875 -0.609375 -2.796875q0 -1.609375 0.609375 -2.796875q0.609375 -1.203125 1.671875 -1.828125q1.0625 -0.640625 2.421875 -0.640625zm0.484375 1.515625q-1.5625 0 -2.515625 1.0q-0.9375 1.0 -0.9375 2.75q0 1.75 0.9375 2.75q0.953125 1.0 2.515625 1.0q1.0 0 1.796875 -0.46875q0.796875 -0.46875 1.234375 -1.3125q0.453125 -0.859375 0.453125 -1.96875q0 -1.125 -0.453125 -1.984375q-0.4375 -0.859375 -1.234375 -1.3125q-0.796875 -0.453125 -1.796875 -0.453125zm20.48056 -1.546875q1.796875 0 2.875 1.15625q1.09375 1.140625 1.09375 3.296875l0 5.953125l-1.6875 0l0 -5.796875q0 -1.515625 -0.75 -2.3125q-0.734375 -0.8125 -2.015625 -0.8125q-1.34375 0 -2.15625 0.890625q-0.8125 0.890625 -0.8125 2.609375l0 5.421875l-1.6875 0l0 -5.796875q0 -1.515625 -0.75 -2.3125q-0.75 -0.8125 -2.015625 -0.8125q-1.359375 0 -2.171875 0.890625q-0.8125 0.890625 -0.8125 2.609375l0 5.421875l-1.703125 0l0 -10.25l1.703125 0l0 2.34375q0.375 -1.21875 1.328125 -1.859375q0.96875 -0.640625 2.21875 -0.640625q1.296875 0 2.25 0.671875q0.96875 0.65625 1.390625 1.9375q0.421875 -1.25 1.421875 -1.921875q1.015625 -0.6875 2.28125 -0.6875zm6.306671 -2.84375q0 -0.46875 0.3125 -0.75q0.328125 -0.296875 0.84375 -0.296875q0.53125 0 0.84375 0.296875q0.3125 0.28125 0.3125 0.75q0 0.46875 -0.3125 0.765625q-0.3125 0.28125 -0.84375 0.28125q-0.515625 0 -0.84375 -0.28125q-0.3125 -0.296875 -0.3125 -0.765625zm2.0 3.0l0 10.25l-1.703125 0l0 -10.25l1.703125 0zm8.109039 -0.15625q1.796875 0 2.890625 1.15625q1.109375 1.140625 1.109375 3.296875l0 5.953125l-1.703125 0l0 -5.796875q0 -1.53125 -0.78125 -2.34375q-0.78125 -0.828125 -2.125 -0.828125q-1.40625 0 -2.25 0.90625q-0.828125 0.90625 -0.828125 2.640625l0 5.421875l-1.703125 0l0 -10.25l1.703125 0l0 2.4375q0.390625 -1.25 1.390625 -1.921875q1.0 -0.671875 2.296875 -0.671875zm16.027222 4.71875q0 0.53125 -0.078125 0.9375l-8.1875 0q0.0625 1.75 1.0 2.625q0.9375 0.875 2.3125 0.875q1.21875 0 2.046875 -0.625q0.84375 -0.625 1.03125 -1.671875l1.796875 0q-0.1875 1.0625 -0.828125 1.90625q-0.640625 0.84375 -1.671875 1.3125q-1.015625 0.453125 -2.3125 0.453125q-1.46875 0 -2.609375 -0.625q-1.140625 -0.640625 -1.78125 -1.8125q-0.640625 -1.1875 -0.640625 -2.796875q0 -1.609375 0.640625 -2.796875q0.640625 -1.203125 1.78125 -1.828125q1.140625 -0.640625 2.609375 -0.640625q1.5 0 2.609375 0.640625q1.109375 0.625 1.6875 1.6875q0.59375 1.0625 0.59375 2.359375zm-1.71875 0.109375q0.0625 -1.140625 -0.375 -1.90625q-0.421875 -0.765625 -1.171875 -1.140625q-0.75 -0.375 -1.625 -0.375q-1.390625 0 -2.34375 0.875q-0.953125 0.875 -1.03125 2.546875l6.546875 0zm5.64151 -2.59375q0.5 -1.0625 1.46875 -1.640625q0.96875 -0.59375 2.3125 -0.59375l0 1.84375l-0.515625 0q-1.4375 0 -2.359375 0.734375q-0.90625 0.734375 -0.90625 2.4375l0 5.390625l-1.703125 0l0 -10.25l1.703125 0l0 2.078125z" fill-rule="nonzero"/><path fill="#000000" fill-opacity="0.0" d="m470.85828 141.6708l0 0c0 -5.636032 4.5689087 -10.204926 10.204926 -10.204926l188.5665 0c2.706543 0 5.302185 1.0751495 7.2160034 2.9889526c1.9137573 1.9137878 2.9889526 4.5094604 2.9889526 7.215973l0 40.818497c0 5.636017 -4.5689087 10.204926 -10.204956 10.204926l-188.5665 0c-5.636017 0 -10.204926 -4.5689087 -10.204926 -10.204926z" fill-rule="evenodd"/><path stroke="#2165e5" stroke-width="2.0" stroke-linejoin="round" stroke-linecap="butt" stroke-dasharray="8.0,6.0" d="m470.85828 141.6708l0 0c0 -5.636032 4.5689087 -10.204926 10.204926 -10.204926l188.5665 0c2.706543 0 5.302185 1.0751495 7.2160034 2.9889526c1.9137573 1.9137878 2.9889526 4.5094604 2.9889526 7.215973l0 40.818497c0 5.636017 -4.5689087 10.204926 -10.204956 10.204926l-188.5665 0c-5.636017 0 -10.204926 -4.5689087 -10.204926 -10.204926z" fill-rule="evenodd"/><path fill="#fd775e" d="m550.48254 165.57817q0 0.9375 -0.453125 1.75q-0.453125 0.796875 -1.375 1.296875q-0.90625 0.5 -2.25 0.5q-1.296875 0 -2.3125 -0.46875q-1.015625 -0.484375 -1.625 -1.3125q-0.609375 -0.828125 -0.703125 -1.890625l1.8125 0q0.046875 0.5625 0.375 1.09375q0.328125 0.53125 0.9375 0.875q0.609375 0.34375 1.46875 0.34375q1.109375 0 1.703125 -0.59375q0.609375 -0.59375 0.609375 -1.53125q0 -0.796875 -0.421875 -1.296875q-0.421875 -0.515625 -1.046875 -0.796875q-0.609375 -0.296875 -1.671875 -0.625q-1.25 -0.421875 -2.0 -0.78125q-0.75 -0.359375 -1.28125 -1.078125q-0.53125 -0.734375 -0.53125 -1.9375q0 -1.015625 0.484375 -1.796875q0.5 -0.796875 1.421875 -1.21875q0.921875 -0.4375 2.171875 -0.4375q1.9375 0 3.078125 0.953125q1.140625 0.9375 1.328125 2.390625l-1.828125 0q-0.15625 -0.78125 -0.8125 -1.375q-0.640625 -0.59375 -1.765625 -0.59375q-1.03125 0 -1.640625 0.53125q-0.609375 0.53125 -0.609375 1.5q0 0.765625 0.390625 1.25q0.40625 0.46875 1.0 0.734375q0.59375 0.265625 1.640625 0.609375q1.265625 0.40625 2.03125 0.78125q0.78125 0.375 1.328125 1.125q0.546875 0.75 0.546875 2.0zm6.4874268 -10.078125q1.265625 0 2.171875 0.453125q0.921875 0.4375 1.390625 1.21875q0.46875 0.78125 0.46875 1.765625q0 1.234375 -0.71875 2.078125q-0.71875 0.84375 -2.09375 1.0l0 0.125q1.4375 0.359375 2.234375 1.15625q0.8125 0.78125 0.8125 2.15625q0 1.625 -1.078125 2.65625q-1.078125 1.015625 -3.109375 1.015625q-2.03125 0 -3.296875 -1.046875q-1.265625 -1.0625 -1.484375 -3.09375l1.6875 0q0.15625 1.234375 0.921875 1.96875q0.78125 0.71875 2.109375 0.71875q1.25 0 1.921875 -0.640625q0.671875 -0.640625 0.671875 -1.671875q0 -1.234375 -0.96875 -1.875q-0.953125 -0.640625 -2.71875 -0.640625l-0.453125 0l0 -1.421875l0.453125 0q3.421875 0 3.421875 -2.296875q0 -1.0 -0.640625 -1.59375q-0.625 -0.609375 -1.734375 -0.609375q-1.125 0 -1.890625 0.65625q-0.765625 0.640625 -0.890625 1.890625l-1.671875 0q0.140625 -1.875 1.296875 -2.921875q1.171875 -1.046875 3.1875 -1.046875zm18.830994 0.34375l0 1.390625l-5.75 0l0 4.546875l4.859375 0l0 1.328125l-4.859375 0l0 5.890625l-1.703125 0l0 -13.15625l7.453125 0zm6.20874 2.78125q1.484375 0 2.515625 0.75q1.046875 0.75 1.453125 2.0l0 -2.625l1.703125 0l0 10.25l-1.703125 0l0 -2.609375q-0.40625 1.25 -1.453125 2.0q-1.03125 0.734375 -2.515625 0.734375q-1.359375 0 -2.421875 -0.625q-1.0625 -0.640625 -1.671875 -1.8125q-0.609375 -1.1875 -0.609375 -2.796875q0 -1.609375 0.609375 -2.796875q0.609375 -1.203125 1.671875 -1.828125q1.0625 -0.640625 2.421875 -0.640625zm0.484375 1.515625q-1.5625 0 -2.515625 1.0q-0.9375 1.0 -0.9375 2.75q0 1.75 0.9375 2.75q0.953125 1.0 2.515625 1.0q1.0 0 1.796875 -0.46875q0.796875 -0.46875 1.234375 -1.3125q0.453125 -0.859375 0.453125 -1.96875q0 -1.125 -0.453125 -1.984375q-0.4375 -0.859375 -1.234375 -1.3125q-0.796875 -0.453125 -1.796875 -0.453125zm13.51178 8.859375l-3.921875 -4.609375l0 4.609375l-1.703125 0l0 -13.8125l1.703125 0l0 8.03125l3.859375 -4.46875l2.078125 0l-4.59375 5.09375l4.703125 5.15625l-2.125 0zm13.031738 -5.6875q0 0.53125 -0.078125 0.9375l-8.1875 0q0.0625 1.75 1.0 2.625q0.9375 0.875 2.3125 0.875q1.21875 0 2.046875 -0.625q0.84375 -0.625 1.03125 -1.671875l1.796875 0q-0.1875 1.0625 -0.828125 1.90625q-0.640625 0.84375 -1.671875 1.3125q-1.015625 0.453125 -2.3125 0.453125q-1.46875 0 -2.609375 -0.625q-1.140625 -0.640625 -1.78125 -1.8125q-0.640625 -1.1875 -0.640625 -2.796875q0 -1.609375 0.640625 -2.796875q0.640625 -1.203125 1.78125 -1.828125q1.140625 -0.640625 2.609375 -0.640625q1.5 0 2.609375 0.640625q1.109375 0.625 1.6875 1.6875q0.59375 1.0625 0.59375 2.359375zm-1.71875 0.109375q0.0625 -1.140625 -0.375 -1.90625q-0.421875 -0.765625 -1.171875 -1.140625q-0.75 -0.375 -1.625 -0.375q-1.390625 0 -2.34375 0.875q-0.953125 0.875 -1.03125 2.546875l6.546875 0z" fill-rule="nonzero"/><path fill="#000000" fill-opacity="0.0" d="m470.85828 68.16293l0 0c0 -5.6360245 4.5689087 -10.204929 10.204926 -10.204929l188.5665 0c2.706543 0 5.302185 1.075161 7.2160034 2.9889565c1.9137573 1.9137955 2.9889526 4.5094604 2.9889526 7.215973l0 40.81849c0 5.6360245 -4.5689087 10.204926 -10.204956 10.204926l-188.5665 0c-5.636017 0 -10.204926 -4.568901 -10.204926 -10.204926z" fill-rule="evenodd"/><path stroke="#2165e5" stroke-width="2.0" stroke-linejoin="round" stroke-linecap="butt" stroke-dasharray="8.0,6.0" d="m470.85828 68.16293l0 0c0 -5.6360245 4.5689087 -10.204929 10.204926 -10.204929l188.5665 0c2.706543 0 5.302185 1.075161 7.2160034 2.9889565c1.9137573 1.9137955 2.9889526 4.5094604 2.9889526 7.215973l0 40.81849c0 5.6360245 -4.5689087 10.204926 -10.204956 10.204926l-188.5665 0c-5.636017 0 -10.204926 -4.568901 -10.204926 -10.204926z" fill-rule="evenodd"/><path fill="#fd775e" d="m543.2999 92.070305q0 0.9375 -0.453125 1.75q-0.453125 0.796875 -1.375 1.296875q-0.90625 0.5 -2.25 0.5q-1.296875 0 -2.3125 -0.46875q-1.015625 -0.484375 -1.625 -1.3125q-0.609375 -0.828125 -0.703125 -1.890625l1.8125 0q0.046875 0.5625 0.375 1.09375q0.328125 0.53125 0.9375 0.875q0.609375 0.34375 1.46875 0.34375q1.109375 0 1.703125 -0.59375q0.609375 -0.59375 0.609375 -1.53125q0 -0.796875 -0.421875 -1.296875q-0.421875 -0.515625 -1.046875 -0.796875q-0.609375 -0.296875 -1.671875 -0.625q-1.25 -0.421875 -2.0 -0.78125q-0.75 -0.359375 -1.28125 -1.078125q-0.53125 -0.734375 -0.53125 -1.9375q0 -1.015625 0.484375 -1.796875q0.5 -0.796875 1.421875 -1.21875q0.921875 -0.4375 2.171875 -0.4375q1.9375 0 3.078125 0.953125q1.140625 0.9375 1.328125 2.390625l-1.828125 0q-0.15625 -0.78125 -0.8125 -1.375q-0.640625 -0.59375 -1.765625 -0.59375q-1.03125 0 -1.640625 0.53125q-0.609375 0.53125 -0.609375 1.5q0 0.765625 0.390625 1.25q0.40625 0.46875 1.0 0.734375q0.59375 0.265625 1.640625 0.609375q1.265625 0.40625 2.03125 0.78125q0.78125 0.375 1.328125 1.125q0.546875 0.75 0.546875 2.0zm12.846741 5.984375l-2.640625 -2.671875q-0.9375 0.265625 -1.90625 0.265625q-1.828125 0 -3.3125 -0.859375q-1.484375 -0.859375 -2.328125 -2.390625q-0.828125 -1.546875 -0.828125 -3.484375q0 -1.953125 0.828125 -3.484375q0.84375 -1.546875 2.328125 -2.40625q1.484375 -0.859375 3.3125 -0.859375q1.828125 0 3.28125 0.859375q1.46875 0.859375 2.3125 2.40625q0.84375 1.53125 0.84375 3.484375q0 1.953125 -0.84375 3.5q-0.84375 1.53125 -2.3125 2.375l3.40625 3.265625l-2.140625 0zm-9.265625 -9.140625q0 1.546875 0.59375 2.71875q0.609375 1.171875 1.6875 1.796875q1.078125 0.625 2.4375 0.625q1.34375 0 2.40625 -0.625q1.078125 -0.640625 1.6875 -1.796875q0.609375 -1.171875 0.609375 -2.71875q0 -1.578125 -0.609375 -2.734375q-0.609375 -1.171875 -1.6875 -1.796875q-1.0625 -0.625 -2.40625 -0.625q-1.359375 0 -2.4375 0.625q-1.078125 0.625 -1.6875 1.796875q-0.59375 1.15625 -0.59375 2.734375zm21.772705 3.15625q0 0.9375 -0.453125 1.75q-0.453125 0.796875 -1.375 1.296875q-0.90625 0.5 -2.25 0.5q-1.296875 0 -2.3125 -0.46875q-1.015625 -0.484375 -1.625 -1.3125q-0.609375 -0.828125 -0.703125 -1.890625l1.8125 0q0.046875 0.5625 0.375 1.09375q0.328125 0.53125 0.9375 0.875q0.609375 0.34375 1.46875 0.34375q1.109375 0 1.703125 -0.59375q0.609375 -0.59375 0.609375 -1.53125q0 -0.796875 -0.421875 -1.296875q-0.421875 -0.515625 -1.046875 -0.796875q-0.609375 -0.296875 -1.671875 -0.625q-1.25 -0.421875 -2.0 -0.78125q-0.75 -0.359375 -1.28125 -1.078125q-0.53125 -0.734375 -0.53125 -1.9375q0 -1.015625 0.484375 -1.796875q0.5 -0.796875 1.421875 -1.21875q0.921875 -0.4375 2.171875 -0.4375q1.9375 0 3.078125 0.953125q1.140625 0.9375 1.328125 2.390625l-1.828125 0q-0.15625 -0.78125 -0.8125 -1.375q-0.640625 -0.59375 -1.765625 -0.59375q-1.03125 0 -1.640625 0.53125q-0.609375 0.53125 -0.609375 1.5q0 0.765625 0.390625 1.25q0.40625 0.46875 1.0 0.734375q0.59375 0.265625 1.640625 0.609375q1.265625 0.40625 2.03125 0.78125q0.78125 0.375 1.328125 1.125q0.546875 0.75 0.546875 2.0zm14.329834 -9.734375l0 1.390625l-5.75 0l0 4.546875l4.859375 0l0 1.328125l-4.859375 0l0 5.890625l-1.703125 0l0 -13.15625l7.453125 0zm6.20874 2.78125q1.484375 0 2.515625 0.75q1.046875 0.75 1.453125 2.0l0 -2.625l1.703125 0l0 10.25l-1.703125 0l0 -2.609375q-0.40625 1.25 -1.453125 2.0q-1.03125 0.734375 -2.515625 0.734375q-1.359375 0 -2.421875 -0.625q-1.0625 -0.640625 -1.671875 -1.8125q-0.609375 -1.1875 -0.609375 -2.796875q0 -1.609375 0.609375 -2.796875q0.609375 -1.203125 1.671875 -1.828125q1.0625 -0.640625 2.421875 -0.640625zm0.484375 1.515625q-1.5625 0 -2.515625 1.0q-0.9375 1.0 -0.9375 2.75q0 1.75 0.9375 2.75q0.953125 1.0 2.515625 1.0q1.0 0 1.796875 -0.46875q0.796875 -0.46875 1.234375 -1.3125q0.453125 -0.859375 0.453125 -1.96875q0 -1.125 -0.453125 -1.984375q-0.4375 -0.859375 -1.234375 -1.3125q-0.796875 -0.453125 -1.796875 -0.453125zm13.511841 8.859375l-3.921875 -4.609375l0 4.609375l-1.703125 0l0 -13.8125l1.703125 0l0 8.03125l3.859375 -4.46875l2.078125 0l-4.59375 5.09375l4.703125 5.15625l-2.125 0zm13.031677 -5.6875q0 0.53125 -0.078125 0.9375l-8.1875 0q0.0625 1.75 1.0 2.625q0.9375 0.875 2.3125 0.875q1.21875 0 2.046875 -0.625q0.84375 -0.625 1.03125 -1.671875l1.796875 0q-0.1875 1.0625 -0.828125 1.90625q-0.640625 0.84375 -1.671875 1.3125q-1.015625 0.453125 -2.3125 0.453125q-1.46875 0 -2.609375 -0.625q-1.140625 -0.640625 -1.78125 -1.8125q-0.640625 -1.1875 -0.640625 -2.796875q0 -1.609375 0.640625 -2.796875q0.640625 -1.203125 1.78125 -1.828125q1.140625 -0.640625 2.609375 -0.640625q1.5 0 2.609375 0.640625q1.109375 0.625 1.6875 1.6875q0.59375 1.0625 0.59375 2.359375zm-1.71875 0.109375q0.0625 -1.140625 -0.375 -1.90625q-0.421875 -0.765625 -1.171875 -1.140625q-0.75 -0.375 -1.625 -0.375q-1.390625 0 -2.34375 0.875q-0.953125 0.875 -1.03125 2.546875l6.546875 0z" fill-rule="nonzero"/><path fill="#000000" fill-opacity="0.0" d="m13.062992 15.771653l208.97638 0l0 32.503937l-208.97638 0z" fill-rule="evenodd"/><path fill="#fd7a9e" d="m33.984867 44.717903l-6.359375 0l-1.046875 3.09375l-4.328125 0l6.21875 -16.843748l4.734375 0l6.21875 16.843748l-4.375 0l-1.0625 -3.09375zm-1.046875 -3.125l-2.109375 -6.234375l-2.140625 6.234375l4.25 0zm16.410568 -7.34375q1.65625 0 2.96875 0.828125q1.3125 0.828125 2.0625 2.375q0.75 1.546875 0.75 3.65625q0 2.09375 -0.75 3.65625q-0.75 1.5625 -2.0625 2.390625q-1.3125 0.828125 -2.96875 0.828125q-1.53125 0 -2.640625 -0.6875q-1.09375 -0.703125 -1.609375 -1.90625l0 8.8125l-4.09375 0l0 -19.78125l4.09375 0l0 2.421875q0.515625 -1.203125 1.609375 -1.890625q1.109375 -0.703125 2.640625 -0.703125zm-1.3125 3.609375q-1.296875 0 -2.125 0.875q-0.828125 0.875 -0.828125 2.375q0 1.5 0.828125 2.390625q0.828125 0.875 2.125 0.875q1.3125 0 2.109375 -0.859375q0.8125 -0.859375 0.8125 -2.40625q0 -1.53125 -0.8125 -2.390625q-0.796875 -0.859375 -2.109375 -0.859375zm17.584461 -3.609375q1.65625 0 2.96875 0.828125q1.3125 0.828125 2.0625 2.375q0.75 1.546875 0.75 3.65625q0 2.09375 -0.75 3.65625q-0.75 1.5625 -2.0625 2.390625q-1.3125 0.828125 -2.96875 0.828125q-1.53125 0 -2.6406288 -0.6875q-1.09375 -0.703125 -1.609375 -1.90625l0 8.8125l-4.09375 0l0 -19.78125l4.09375 0l0 2.421875q0.515625 -1.203125 1.609375 -1.890625q1.1093788 -0.703125 2.6406288 -0.703125zm-1.3125 3.609375q-1.2968788 0 -2.1250038 0.875q-0.828125 0.875 -0.828125 2.375q0 1.5 0.828125 2.390625q0.828125 0.875 2.1250038 0.875q1.3125 0 2.109375 -0.859375q0.8125 -0.859375 0.8125 -2.40625q0 -1.53125 -0.8125 -2.390625q-0.796875 -0.859375 -2.109375 -0.859375zm14.100082 -3.609375q2.546875 0 4.0625 1.28125q1.53125 1.265625 1.921875 3.359375l-3.84375 0q-0.171875 -0.828125 -0.765625 -1.296875q-0.578125 -0.46875 -1.46875 -0.46875q-0.6875 0 -1.046875 0.3125q-0.359375 0.296875 -0.359375 0.84375q0 0.625 0.65625 0.9375q0.65625 0.3125 2.078125 0.625q1.53125 0.359375 2.515625 0.734375q0.984375 0.375 1.703125 1.21875q0.71875 0.828125 0.71875 2.25q0 1.15625 -0.625 2.046875q-0.625 0.875 -1.796875 1.390625q-1.171875 0.5 -2.78125 0.5q-2.71875 0 -4.359375 -1.203125q-1.625 -1.203125 -1.984375 -3.4375l3.96875 0q0.09375 0.875 0.71875 1.328125q0.640625 0.453125 1.65625 0.453125q0.6875 0 1.046875 -0.328125q0.359375 -0.328125 0.359375 -0.84375q0 -0.703125 -0.65625 -1.0q-0.65625 -0.296875 -2.140625 -0.640625q-1.484375 -0.3125 -2.453125 -0.671875q-0.953125 -0.359375 -1.65625 -1.15625q-0.6875 -0.8125 -0.6875 -2.203125q0 -1.796875 1.359375 -2.90625q1.375 -1.125 3.859375 -1.125z" fill-rule="nonzero"/><path fill="#000000" fill-opacity="0.0" d="m248.1916 15.771653l429.85828 0l0 32.503937l-429.85828 0z" fill-rule="evenodd"/><path fill="#f9c3c0" d="m262.7072 30.842905l0 16.968748l-4.09375 0l0 -16.968748l4.09375 0zm11.326599 3.437498q2.3125 0 3.65625 1.53125q1.359375 1.53125 1.359375 4.21875l0 7.78125l-4.09375 0l0 -7.296875q0 -1.34375 -0.71875 -2.09375q-0.703125 -0.765625 -1.875 -0.765625q-1.25 0 -1.984375 0.796875q-0.734375 0.796875 -0.734375 2.25l0 7.109375l-4.09375 0l0 -13.390625l4.09375 0l0 2.453125q0.578125 -1.203125 1.71875 -1.890625q1.140625 -0.703125 2.671875 -0.703125zm14.3020935 -1.6875q-1.0 0 -1.453125 0.4375q-0.453125 0.421875 -0.5 1.390625l2.421875 0l0 3.453125l-2.421875 0l0 9.9375l-4.109375 0l0 -9.9375l-1.609375 0l0 -3.453125l1.609375 0l0 -0.140625q0 -2.499998 1.453125 -3.859373q1.453125 -1.359375 4.203125 -1.359375q0.578125 0 0.875 0.03125l0 3.531248l-0.46875 -0.03125zm6.36322 4.34375q0.765625 -1.21875 1.984375 -1.9375q1.21875 -0.71875 2.625 -0.71875l0 4.390625l-1.171875 0q-1.640625 0 -2.546875 0.703125q-0.890625 0.6875 -0.890625 2.34375l0 6.09375l-4.09375 0l0 -13.390625l4.09375 0l0 2.515625zm11.424347 -2.6875q1.546875 0 2.640625 0.703125q1.109375 0.6875 1.640625 1.890625l0 -2.421875l4.078125 0l0 13.390625l-4.078125 0l0 -2.421875q-0.53125 1.203125 -1.640625 1.90625q-1.09375 0.6875 -2.640625 0.6875q-1.65625 0 -2.96875 -0.828125q-1.296875 -0.828125 -2.0625 -2.390625q-0.75 -1.5625 -0.75 -3.65625q0 -2.109375 0.75 -3.65625q0.765625 -1.546875 2.0625 -2.375q1.3125 -0.828125 2.96875 -0.828125zm1.328125 3.609375q-1.328125 0 -2.140625 0.859375q-0.796875 0.859375 -0.796875 2.390625q0 1.546875 0.796875 2.40625q0.8125 0.859375 2.140625 0.859375q1.296875 0 2.125 -0.875q0.828125 -0.890625 0.828125 -2.390625q0 -1.5 -0.828125 -2.375q-0.828125 -0.875 -2.125 -0.875zm14.725067 -3.609375q2.546875 0 4.0625 1.28125q1.53125 1.265625 1.921875 3.359375l-3.84375 0q-0.171875 -0.828125 -0.765625 -1.296875q-0.578125 -0.46875 -1.46875 -0.46875q-0.6875 0 -1.046875 0.3125q-0.359375 0.296875 -0.359375 0.84375q0 0.625 0.65625 0.9375q0.65625 0.3125 2.078125 0.625q1.53125 0.359375 2.515625 0.734375q0.984375 0.375 1.703125 1.21875q0.71875 0.828125 0.71875 2.25q0 1.15625 -0.625 2.046875q-0.625 0.875 -1.796875 1.390625q-1.171875 0.5 -2.78125 0.5q-2.71875 0 -4.359375 -1.203125q-1.625 -1.203125 -1.984375 -3.4375l3.96875 0q0.09375 0.875 0.71875 1.328125q0.640625 0.453125 1.65625 0.453125q0.6875 0 1.046875 -0.328125q0.359375 -0.328125 0.359375 -0.84375q0 -0.703125 -0.65625 -1.0q-0.65625 -0.296875 -2.140625 -0.640625q-1.484375 -0.3125 -2.453125 -0.671875q-0.953125 -0.359375 -1.65625 -1.15625q-0.6875 -0.8125 -0.6875 -2.203125q0 -1.796875 1.359375 -2.90625q1.375 -1.125 3.859375 -1.125zm16.038727 10.03125l0 3.53125l-1.84375 0q-2.359375 0 -3.671875 -1.15625q-1.296875 -1.171875 -1.296875 -3.859375l0 -4.921875l-1.796875 0l0 -3.453125l1.796875 0l0 -3.296873l4.09375 0l0 3.296873l2.6875 0l0 3.453125l-2.6875 0l0 5.0q0 0.78125 0.328125 1.09375q0.328125 0.3125 1.09375 0.3125l1.296875 0zm6.403595 -7.34375q0.765625 -1.21875 1.984375 -1.9375q1.21875 -0.71875 2.625 -0.71875l0 4.390625l-1.171875 0q-1.640625 0 -2.546875 0.703125q-0.890625 0.6875 -0.890625 2.34375l0 6.09375l-4.09375 0l0 -13.390625l4.09375 0l0 2.515625zm19.658722 -2.515625l0 13.390625l-4.125 0l0 -2.421875q-0.578125 1.171875 -1.71875 1.875q-1.140625 0.6875 -2.65625 0.6875q-2.296875 0 -3.65625 -1.53125q-1.359375 -1.53125 -1.359375 -4.21875l0 -7.78125l4.078125 0l0 7.265625q0 1.375 0.703125 2.140625q0.71875 0.75 1.921875 0.75q1.25 0 1.96875 -0.796875q0.71875 -0.796875 0.71875 -2.25l0 -7.109375l4.125 0zm8.886322 -0.171875q2.59375 0 4.34375 1.4375q1.75 1.421875 2.203125 3.921875l-4.34375 0q-0.1875 -0.875 -0.796875 -1.34375q-0.59375 -0.484375 -1.5 -0.484375q-1.09375 0 -1.796875 0.859375q-0.6875 0.84375 -0.6875 2.46875q0 1.640625 0.6875 2.5q0.703125 0.84375 1.796875 0.84375q0.90625 0 1.5 -0.46875q0.609375 -0.484375 0.796875 -1.359375l4.34375 0q-0.453125 2.5 -2.203125 3.9375q-1.75 1.421875 -4.34375 1.421875q-1.96875 0 -3.5 -0.828125q-1.515625 -0.828125 -2.390625 -2.390625q-0.859375 -1.5625 -0.859375 -3.65625q0 -2.109375 0.84375 -3.65625q0.859375 -1.546875 2.390625 -2.375q1.546875 -0.828125 3.515625 -0.828125zm16.267212 10.03125l0 3.53125l-1.84375 0q-2.359375 0 -3.671875 -1.15625q-1.296875 -1.171875 -1.296875 -3.859375l0 -4.921875l-1.796875 0l0 -3.453125l1.796875 0l0 -3.296873l4.09375 0l0 3.296873l2.6875 0l0 3.453125l-2.6875 0l0 5.0q0 0.78125 0.328125 1.09375q0.328125 0.3125 1.09375 0.3125l1.296875 0zm15.622345 -9.859375l0 13.390625l-4.125 0l0 -2.421875q-0.578125 1.171875 -1.71875 1.875q-1.140625 0.6875 -2.65625 0.6875q-2.296875 0 -3.65625 -1.53125q-1.359375 -1.53125 -1.359375 -4.21875l0 -7.78125l4.078125 0l0 7.265625q0 1.375 0.703125 2.140625q0.71875 0.75 1.921875 0.75q1.25 0 1.96875 -0.796875q0.71875 -0.796875 0.71875 -2.25l0 -7.109375l4.125 0zm6.933197 2.515625q0.765625 -1.21875 1.984375 -1.9375q1.21875 -0.71875 2.625 -0.71875l0 4.390625l-1.171875 0q-1.640625 0 -2.546875 0.703125q-0.890625 0.6875 -0.890625 2.34375l0 6.09375l-4.09375 0l0 -13.390625l4.09375 0l0 2.515625zm19.064972 3.8125q0 0.515625 -0.125 1.109375l-9.28125 0q0.0625 1.515625 0.75 2.171875q0.703125 0.65625 1.78125 0.65625q0.921875 0 1.515625 -0.453125q0.609375 -0.453125 0.796875 -1.171875l4.34375 0q-0.265625 1.40625 -1.15625 2.53125q-0.890625 1.109375 -2.265625 1.75q-1.359375 0.640625 -3.03125 0.640625q-1.96875 0 -3.5 -0.828125q-1.515625 -0.828125 -2.390625 -2.390625q-0.859375 -1.5625 -0.859375 -3.65625q0 -2.109375 0.84375 -3.65625q0.859375 -1.546875 2.390625 -2.375q1.546875 -0.828125 3.515625 -0.828125q1.984375 0 3.5 0.828125q1.515625 0.8125 2.34375 2.296875q0.828125 1.46875 0.828125 3.375zm-4.15625 -0.625q0.03125 -1.3125 -0.703125 -1.96875q-0.734375 -0.65625 -1.8125 -0.65625q-1.125 0 -1.875 0.671875q-0.75 0.671875 -0.84375 1.953125l5.234375 0z" fill-rule="nonzero"/><path fill="#000000" fill-opacity="0.0" d="m235.11548 235.52493l0 -210.14172" fill-rule="evenodd"/><path stroke="#fd7a9e" stroke-width="2.0" stroke-linejoin="round" stroke-linecap="butt" stroke-dasharray="2.0,6.0" d="m235.11548 235.52493l0 -210.14172" fill-rule="evenodd"/></g></svg>