<?xml version="1.0" encoding="UTF-8"?>
<svg width="70px" height="102px" viewBox="0 0 70 102" version="1.1" xmlns="http://www.w3.org/2000/svg" xmlns:xlink="http://www.w3.org/1999/xlink">
    <!-- Generator: Sketch 57.1 (83088) - https://sketch.com -->
    <title>MIRA</title>
    <desc>Created with Sketch.</desc>
    <g id="Accelerator-Website" stroke="none" stroke-width="1" fill="none" fill-rule="evenodd">
        <g id="HOME" transform="translate(-1171.000000, -620.000000)" fill="#FFFFFF">
            <g id="Accelerators" transform="translate(133.000000, 571.000000)">
                <g id="MIRA" transform="translate(1038.000000, 49.000000)">
                    <path d="M12.8347,6.9025 C14.7207,6.9025 16.2547,8.4365 16.2547,10.3225 C16.2547,12.2085 14.7207,13.7425 12.8347,13.7425 C10.9477,13.7425 9.4137,12.2085 9.4137,10.3225 C9.4137,8.4365 10.9477,6.9025 12.8347,6.9025 M34.8227,0.0005 C32.5797,0.0005 30.3507,0.2295 28.1707,0.6855 C26.9927,0.9315 26.2727,2.1325 26.5987,3.2915 C26.8957,4.3405 27.9517,4.9755 29.0207,4.7525 C30.9207,4.3545 32.8647,4.1535 34.8227,4.1535 C51.4097,4.1535 64.6927,18.5695 62.8007,35.5305 C61.3587,48.4475 50.9577,58.8465 38.0407,60.2875 C21.0807,62.1785 6.6657,48.8955 6.6657,32.3105 C6.6657,27.0935 8.1037,22.0515 10.8137,17.6145 C12.2137,18.0025 13.7597,18.0345 15.3887,17.4265 C18.0437,16.4375 20.0287,14.0405 20.3557,11.2245 C20.9497,6.1165 16.4217,1.8535 11.2467,2.9115 C8.3557,3.5025 6.0307,5.8255 5.4287,8.7145 C4.8867,11.3135 5.6977,13.7385 7.2737,15.4465 C3.5917,21.4705 1.9557,28.4705 2.6807,35.6235 C4.2827,51.4495 17.5377,63.9215 33.4307,64.5915 C51.8777,65.3705 67.1337,50.5885 67.1337,32.3105 C67.1337,14.4945 52.6387,0.0005 34.8227,0.0005" id="Fill-1"></path>
                    <path d="M34.823,16.5226 C43.529,16.5226 50.612,23.6046 50.612,32.3106 C50.612,41.0166 43.529,48.0996 34.823,48.0996 C26.117,48.0996 19.034,41.0166 19.034,32.3106 C19.034,23.6046 26.117,16.5226 34.823,16.5226 M34.823,52.2526 C45.819,52.2526 54.765,43.3066 54.765,32.3106 C54.765,21.3146 45.819,12.3686 34.823,12.3686 C23.827,12.3686 14.881,21.3146 14.881,32.3106 C14.881,43.3066 23.827,52.2526 34.823,52.2526" id="Fill-3"></path>
                    <polygon id="Fill-5" points="19.654 101.4524 15.129 101.4524 15.129 92.3214 11.086 98.5604 11.086 98.5874 8.568 98.5874 8.568 98.5604 4.499 92.2674 4.525 101.4524 0 101.4524 0 83.2444 3.374 83.2444 9.827 92.9644 16.28 83.2444 19.654 83.2444"></polygon>
                    <polygon id="Fill-8" points="23.457 101.452 27.981 101.452 27.981 83.244 23.457 83.244"></polygon>
                    <path d="M36.3093,92.1066 L39.6563,92.1066 C41.3963,92.1066 42.7623,91.1426 42.7623,89.6436 C42.7623,88.1706 41.3963,87.2336 39.6563,87.2336 L36.3093,87.2336 L36.3093,92.1066 Z M43.2173,101.4526 L39.7633,96.1766 L39.7363,96.1766 L36.3093,96.1766 L36.3093,101.4526 L31.7843,101.4526 L31.7843,83.2446 L39.7363,83.2446 C44.2613,83.2446 47.2873,85.7086 47.2873,89.6436 C47.2873,92.0266 46.1353,93.9546 44.2073,95.0796 L48.4923,101.4526 L43.2173,101.4526 Z" id="Fill-10"></path>
                    <path d="M62.1218,94.5441 L59.7388,88.4121 L57.3548,94.5441 L62.1218,94.5441 Z M63.5948,98.3191 L55.8828,98.3191 L54.6778,101.4521 L49.8578,101.4521 L57.5968,83.2441 L61.9348,83.2441 L69.6458,101.4521 L64.8258,101.4521 L63.5948,98.3191 Z" id="Fill-11"></path>
                </g>
            </g>
        </g>
    </g>
</svg>