<?xml version="1.0" encoding="UTF-8"?>
<svg width="32px" height="30px" viewBox="0 0 32 30" version="1.1" xmlns="http://www.w3.org/2000/svg" xmlns:xlink="http://www.w3.org/1999/xlink">
    <!-- Generator: Sketch 57.1 (83088) - https://sketch.com -->
    <title>Fill 1</title>
    <desc>Created with Sketch.</desc>
    <g id="Accelerator-Website" stroke="none" stroke-width="1" fill="none" fill-rule="evenodd">
        <g id="ORION" transform="translate(-33.000000, -29.000000)" fill="#FFFFFF">
            <g id="NF-Logo" transform="translate(33.000000, 29.000000)">
                <path d="M29.9560144,23.3895841 L22.0942437,12.9496903 L22.0942437,2.15396284 L28.5908639,2.15396284 C29.3451252,2.15396284 29.9560144,2.77335356 29.9560144,3.53811149 L29.9560144,23.3895841 Z M28.6694068,27.8251801 L22.7855459,27.8251801 C21.4609136,27.8251801 20.2123308,27.2001011 19.4069543,26.1344963 L2.55264439,3.82315763 C2.03712866,3.13993174 2.51711308,2.15396284 3.36550112,2.15396284 L9.22754456,2.15396284 C10.5509302,2.15396284 11.7988896,2.77840981 12.6048895,3.8427506 L29.4816402,26.1559853 C29.9984026,26.8385792 29.5177949,27.8251801 28.6694068,27.8251801 Z M9.92570371,27.8251801 L3.42908347,27.8251801 C2.6754456,27.8251801 2.06393299,27.2057894 2.06393299,26.4416635 L2.06393299,6.52951586 L9.92570371,17.0098597 L9.92570371,27.8251801 Z M28.547229,0 L21.1342749,0 C20.5495666,0 20.0708289,0.485400076 20.0708289,1.07887751 L20.0708289,10.28315 L14.2511737,2.53507774 C13.051836,0.937934522 11.1848836,0 9.20510373,0 L3.45277101,0 C1.54592383,0 0,1.56743774 0,3.50082164 L0,26.4991784 C0,28.4325623 1.54592383,30 3.45277101,30 L10.8856725,30 C11.4734976,30 11.9491185,29.517128 11.9491185,28.9211225 L11.9491185,19.6201492 L17.7376059,27.4314246 C18.9356969,29.0487928 20.814493,30 22.8086101,30 L28.547229,30 C30.4540762,30 32,28.4325623 32,26.4991784 L32,3.50082164 C32,1.56743774 30.4540762,0 28.547229,0 L28.547229,0 Z" id="Fill-1"></path>
            </g>
        </g>
    </g>
</svg>