<?xml version="1.0" encoding="UTF-8"?>
<svg width="203px" height="30px" viewBox="0 0 203 30" version="1.1" xmlns="http://www.w3.org/2000/svg" xmlns:xlink="http://www.w3.org/1999/xlink">
    <!-- Generator: Sketch 57.1 (83088) - https://sketch.com -->
    <title>NF Logo</title>
    <desc>Created with Sketch.</desc>
    <g id="Accelerator-Website" stroke="none" stroke-width="1" fill="none" fill-rule="evenodd">
        <g id="HOME" transform="translate(-33.000000, -29.000000)" fill="#FFFFFF">
            <g id="Header">
                <g id="NF-Logo" transform="translate(33.000000, 29.000000)">
                    <path d="M29.9560144,23.3895841 L22.0942437,12.9496903 L22.0942437,2.15396284 L28.5908639,2.15396284 C29.3451252,2.15396284 29.9560144,2.77335356 29.9560144,3.53811149 L29.9560144,23.3895841 Z M28.6694068,27.8251801 L22.7855459,27.8251801 C21.4609136,27.8251801 20.2123308,27.2001011 19.4069543,26.1344963 L2.55264439,3.82315763 C2.03712866,3.13993174 2.51711308,2.15396284 3.36550112,2.15396284 L9.22754456,2.15396284 C10.5509302,2.15396284 11.7988896,2.77840981 12.6048895,3.8427506 L29.4816402,26.1559853 C29.9984026,26.8385792 29.5177949,27.8251801 28.6694068,27.8251801 Z M9.92570371,27.8251801 L3.42908347,27.8251801 C2.6754456,27.8251801 2.06393299,27.2057894 2.06393299,26.4416635 L2.06393299,6.52951586 L9.92570371,17.0098597 L9.92570371,27.8251801 Z M28.547229,0 L21.1342749,0 C20.5495666,0 20.0708289,0.485400076 20.0708289,1.07887751 L20.0708289,10.28315 L14.2511737,2.53507774 C13.051836,0.937934522 11.1848836,0 9.20510373,0 L3.45277101,0 C1.54592383,0 0,1.56743774 0,3.50082164 L0,26.4991784 C0,28.4325623 1.54592383,30 3.45277101,30 L10.8856725,30 C11.4734976,30 11.9491185,29.517128 11.9491185,28.9211225 L11.9491185,19.6201492 L17.7376059,27.4314246 C18.9356969,29.0487928 20.814493,30 22.8086101,30 L28.547229,30 C30.4540762,30 32,28.4325623 32,26.4991784 L32,3.50082164 C32,1.56743774 30.4540762,0 28.547229,0 L28.547229,0 Z" id="Fill-1"></path>
                    <polyline id="Fill-2" points="72 27 67.3964088 27 55.9393923 13.8351855 55.9393923 27 50 27 50 3 54.5337017 3 66.0606077 16.5175851 66.0606077 3 72 3 72 27"></polyline>
                    <path d="M78.5492977,16.3140733 L85.5928027,16.3140733 C85.2723079,14.4316802 84.0278528,13.4376833 82.1774717,13.4376833 C80.2212843,13.4376833 78.9762141,14.5747322 78.5492977,16.3140733 Z M90.8929633,19.5803261 L90.8609754,19.6865407 L78.6206555,19.6865407 C79.0832507,21.2484481 80.2926421,22.4554881 82.4973514,22.4554881 C83.7073579,22.4554881 84.6325484,21.9937922 85.1302074,21.2134525 L90.8216056,21.2134525 C90.0040668,24.7639675 86.6951574,27 82.4272239,27 C76.7702744,27 73,23.2370557 73,17.9821952 C73,12.7635582 76.6638529,9 82.1774717,9 C87.1940467,9 91,12.4436865 91,17.6273279 C91,18.2658435 91,18.9411965 90.8929633,19.5803261 L90.8929633,19.5803261 Z" id="Fill-3"></path>
                    <path d="M104.955154,20.6676122 L104.955154,15.3323878 C103.835619,14.0867024 102.529602,13.695465 101.186159,13.695465 C98.7238264,13.695465 96.9325698,15.6165886 96.9325698,17.9996924 C96.9325698,20.3834114 98.7238264,22.268241 101.186159,22.268241 C102.529602,22.268241 103.835619,21.9126824 104.955154,20.6676122 Z M111,26.6438263 L104.955154,26.6438263 L104.955154,25.6829568 C103.611712,26.5011107 101.969511,27 99.9924181,27 C95.104533,27 91,23.1220738 91,17.9996924 C91,12.8416322 95.104533,9 99.9924181,9 C101.969511,9 103.611712,9.49827415 104.955154,10.316428 L104.955154,9.39185264 L111,9.39185264 L111,26.6438263 L111,26.6438263 Z" id="Fill-4"></path>
                    <path d="M124,14.6236978 C121.118739,14.7329264 119.294612,15.4994212 117.908857,16.8871935 L117.908857,27 L112,27 L112,9.29296012 L117.908857,9.29296012 L117.908857,11.1908871 C119.476899,9.83973482 121.374192,9 124,9 L124,14.6236978" id="Fill-5"></path>
                    <path d="M143,8.2578578 L143,3 L125,3 L125,27 L131.002251,27 L131.002251,18.5288374 L140.001637,18.5288374 L140.001637,18.4244736 C140.001637,16.5331096 140.463207,14.8071407 141.288754,13.3375038 L131.002251,13.3375038 L131.002251,8.2578578 L143,8.2578578" id="Fill-6"></path>
                    <path d="M173,14.6236978 C170.118739,14.7329264 168.294612,15.4994212 166.908226,16.8871935 L166.908226,27 L161,27 L161,9.29296012 L166.908226,9.29296012 L166.908226,11.1908871 C168.47753,9.83973482 170.373561,9 173,9 L173,14.6236978" id="Fill-7"></path>
                    <path d="M203,17.0284993 L203,27 L197.135167,27 L197.135167,17.964203 C197.135167,15.4795767 195.948014,14.2917373 194.004892,14.2917373 C193.105194,14.2917373 192.206119,14.6876837 191.342509,15.7323349 C191.377974,16.1637672 191.414684,16.5958219 191.414684,17.0284993 L191.414684,27 L185.585316,27 L185.585316,17.964203 C185.585316,15.4795767 184.362698,14.2917373 182.455041,14.2917373 C181.555966,14.2917373 180.692356,14.7237921 179.828746,15.8400374 L179.828746,27 L174,27 L174,9.54037976 L179.828746,9.54037976 L179.828746,10.5837858 C181.015898,9.57586553 182.239138,9 184.182883,9 C186.376751,9 188.248321,9.82800125 189.543114,11.3395704 C191.377974,9.71905371 193.141282,9 195.732112,9 C199.905812,9 203,12.0598693 203,17.0284993" id="Fill-8"></path>
                    <path d="M154.473091,18.4434179 C154.473091,16.101692 152.883979,14.2055499 150.535917,14.2055499 C148.15225,14.2055499 146.562514,16.101692 146.562514,18.4434179 C146.562514,20.8610152 148.15225,22.7944501 150.535917,22.7944501 C152.883979,22.7944501 154.473091,20.8610152 154.473091,18.4434179 Z M160,18.4067682 C160,23.9100169 156.026597,28 150.499688,28 C144.973403,28 141,23.9100169 141,18.4067682 C141,12.9787479 144.973403,9 150.499688,9 C156.026597,9 160,12.9787479 160,18.4067682 L160,18.4067682 Z" id="Fill-9"></path>
                </g>
            </g>
        </g>
    </g>
</svg>