<?xml version="1.0" encoding="UTF-8"?>
<svg width="89px" height="106px" viewBox="0 0 89 106" version="1.1" xmlns="http://www.w3.org/2000/svg" xmlns:xlink="http://www.w3.org/1999/xlink">
    <!-- Generator: Sketch 57.1 (83088) - https://sketch.com -->
    <title>ORION</title>
    <desc>Created with Sketch.</desc>
    <g id="Accelerator-Website" stroke="none" stroke-width="1" fill="none" fill-rule="evenodd">
        <g id="HOME" transform="translate(-576.000000, -621.000000)" fill="#FFFFFF">
            <g id="Accelerators" transform="translate(133.000000, 571.000000)">
                <g id="ORION" transform="translate(443.000000, 50.000000)">
                    <path d="M57.6569,34.1776 C57.3969,34.2336 57.2119,34.4616 57.2119,34.7276 L57.2119,36.4806 L55.8459,37.8456 C55.6569,38.0346 55.6279,38.3326 55.7769,38.5556 L63.9119,50.6626 L51.6349,42.6866 C51.4119,42.5416 51.1189,42.5736 50.9309,42.7606 L49.8949,43.7966 L48.1039,43.7966 C47.8359,43.7966 47.6049,43.9876 47.5529,44.2496 L44.7439,58.5636 L41.7029,44.2416 C41.6469,43.9826 41.4189,43.7966 41.1529,43.7966 L39.1409,43.7966 L38.0779,42.7336 C37.8879,42.5436 37.5909,42.5146 37.3679,42.6646 L25.2609,50.7986 L33.2369,38.5216 C33.3819,38.2996 33.3509,38.0056 33.1639,37.8186 L31.7409,36.3966 L31.7409,34.8926 C31.7409,34.6236 31.5509,34.3936 31.2879,34.3416 L16.9739,31.5316 L31.2959,28.4906 C31.5549,28.4366 31.7409,28.2066 31.7409,27.9426 L31.7409,25.9296 L32.8039,24.8666 C32.9939,24.6766 33.0229,24.3796 32.8729,24.1566 L24.7389,12.0486 L37.0159,20.0256 C37.2379,20.1696 37.5319,20.1396 37.7199,19.9516 L39.3449,18.3256 L40.9879,18.3256 C41.2569,18.3256 41.4869,18.1356 41.5389,17.8726 L44.3479,3.5596 L47.3889,17.8806 C47.4439,18.1406 47.6739,18.3256 47.9379,18.3256 L49.6919,18.3256 L51.0569,19.6916 C51.2469,19.8806 51.5449,19.9096 51.7669,19.7606 L63.8749,11.6256 L55.8979,23.9036 C55.7539,24.1256 55.7849,24.4186 55.9719,24.6066 L57.2119,25.8456 L57.2119,27.7766 C57.2119,28.0446 57.4019,28.2766 57.6649,28.3266 L71.9779,31.1366 L57.6569,34.1776 Z M74.3559,27.7936 L61.3049,24.3416 L68.0519,12.4136 C68.4029,11.7926 68.2969,11.0136 67.7929,10.5096 L65.1139,7.8306 C64.6039,7.3216 63.8149,7.2186 63.1919,7.5806 L51.5229,14.3666 L47.8589,1.1626 C47.6689,0.4756 47.0429,-0.0004 46.3289,-0.0004 L42.5409,-0.0004 C41.8199,-0.0004 41.1899,0.4856 41.0059,1.1816 L37.4519,14.6156 L25.5269,7.8716 C24.9059,7.5206 24.1269,7.6266 23.6229,8.1316 L20.9439,10.8106 C20.4339,11.3196 20.3319,12.1086 20.6939,12.7316 L27.5009,24.4356 L14.5779,28.0216 C13.8899,28.2116 13.4149,28.8376 13.4149,29.5516 L13.4149,33.3396 C13.4149,34.0606 13.8999,34.6906 14.5959,34.8746 L27.6849,38.3376 L21.0839,50.0106 C20.7319,50.6316 20.8389,51.4106 21.3439,51.9156 L24.0209,54.5936 C24.5309,55.1036 25.3199,55.2056 25.9429,54.8436 L37.6469,48.0366 L41.2319,60.9596 C41.4239,61.6476 42.0499,62.1226 42.7629,62.1226 L46.5519,62.1226 C47.2719,62.1226 47.9019,61.6376 48.0869,60.9416 L51.4469,48.2366 L63.1239,54.8396 C63.7449,55.1916 64.5239,55.0856 65.0279,54.5806 L67.7069,51.9026 C68.2169,51.3926 68.3189,50.6036 67.9569,49.9806 L61.1709,38.3116 L74.3749,34.6486 C75.0619,34.4566 75.5379,33.8306 75.5379,33.1166 L75.5379,29.3296 C75.5379,28.6086 75.0529,27.9786 74.3559,27.7936 L74.3559,27.7936 Z" id="Fill-1"></path>
                    <path d="M14.6998,95.8349 C14.6998,92.9699 12.5848,90.6139 9.6388,90.6139 C6.6938,90.6139 4.5788,92.9699 4.5788,95.8349 C4.5788,98.6999 6.6938,101.0569 9.6388,101.0569 C12.5848,101.0569 14.6998,98.6999 14.6998,95.8349 M19.2788,95.8349 C19.2788,101.1369 15.1288,105.2869 9.6388,105.2869 C4.1498,105.2869 -0.0002,101.1369 -0.0002,95.8349 C-0.0002,90.5329 4.1498,86.3839 9.6388,86.3839 C15.1288,86.3839 19.2788,90.5329 19.2788,95.8349" id="Fill-4"></path>
                    <path d="M27.1783,95.5946 L30.5263,95.5946 C32.2663,95.5946 33.6313,94.6296 33.6313,93.1306 C33.6313,91.6576 32.2663,90.7206 30.5263,90.7206 L27.1783,90.7206 L27.1783,95.5946 Z M34.0863,104.9396 L30.6323,99.6636 L30.6063,99.6636 L27.1783,99.6636 L27.1783,104.9396 L22.6533,104.9396 L22.6533,86.7316 L30.6063,86.7316 C35.1313,86.7316 38.1573,89.1956 38.1573,93.1306 C38.1573,95.5136 37.0053,97.4416 35.0773,98.5666 L39.3623,104.9396 L34.0863,104.9396 Z" id="Fill-7"></path>
                    <polygon id="Fill-9" points="41.665 104.939 46.19 104.939 46.19 86.731 41.665 86.731"></polygon>
                    <path d="M64.2643,95.8349 C64.2643,92.9699 62.1493,90.6139 59.2033,90.6139 C56.2583,90.6139 54.1433,92.9699 54.1433,95.8349 C54.1433,98.6999 56.2583,101.0569 59.2033,101.0569 C62.1493,101.0569 64.2643,98.6999 64.2643,95.8349 M68.8423,95.8349 C68.8423,101.1369 64.6933,105.2869 59.2033,105.2869 C53.7143,105.2869 49.5643,101.1369 49.5643,95.8349 C49.5643,90.5329 53.7143,86.3839 59.2033,86.3839 C64.6933,86.3839 68.8423,90.5329 68.8423,95.8349" id="Fill-11"></path>
                    <polygon id="Fill-12" points="88.9528 86.7314 88.9528 104.9394 85.4728 104.9394 76.7418 94.9524 76.7418 104.9394 72.2178 104.9394 72.2178 86.7314 75.6718 86.7314 84.4538 96.9864 84.4538 86.7314"></polygon>
                </g>
            </g>
        </g>
    </g>
</svg>