<?xml version="1.0" encoding="UTF-8"?>
<svg width="116px" height="101px" viewBox="0 0 116 101" version="1.1" xmlns="http://www.w3.org/2000/svg" xmlns:xlink="http://www.w3.org/1999/xlink">
    <!-- Generator: Sketch 57.1 (83088) - https://sketch.com -->
    <title>POLARIS</title>
    <desc>Created with Sketch.</desc>
    <g id="Accelerator-Website" stroke="none" stroke-width="1" fill="none" fill-rule="evenodd">
        <g id="HOME" transform="translate(-953.000000, -620.000000)" fill="#FFFFFF">
            <g id="Accelerators" transform="translate(133.000000, 571.000000)">
                <g id="POLARIS" transform="translate(820.000000, 49.000000)">
                    <path d="M65.6474,0.7051 L60.9864,18.3261 L54.7674,18.3261 L49.8794,0.7111 C49.7964,0.4121 49.9724,0.1021 50.2714,0.0201 C50.3204,0.0071 50.3704,0.0001 50.4204,0.0001 L54.3664,0.0001 C54.6304,0.0001 54.8604,0.1851 54.9154,0.4441 L57.9564,14.7661 L60.7654,0.4531 C60.8174,0.1891 61.0474,0.0001 61.3164,0.0001 L65.1044,0.0001 C65.4154,0.0001 65.6664,0.2511 65.6664,0.5611 C65.6664,0.6091 65.6604,0.6581 65.6474,0.7051" id="Fill-1"></path>
                    <path d="M86.4277,18.2344 L69.8107,25.6984 L65.8977,20.8624 L76.4997,5.9764 C76.6797,5.7234 77.0307,5.6654 77.2827,5.8444 C77.3237,5.8744 77.3617,5.9094 77.3937,5.9494 L79.8757,9.0164 C80.0427,9.2224 80.0427,9.5174 79.8757,9.7234 L70.6677,21.1014 L83.5507,14.2794 C83.7877,14.1534 84.0807,14.2134 84.2497,14.4214 L86.6347,17.3694 C86.8287,17.6104 86.7917,17.9634 86.5507,18.1594 C86.5137,18.1894 86.4717,18.2144 86.4277,18.2344" id="Fill-3"></path>
                    <path d="M85.5869,45.5743 L69.4809,37.0653 L70.8789,31.0023 L89.1279,30.1983 C89.4379,30.1843 89.6999,30.4253 89.7139,30.7343 C89.7159,30.7853 89.7109,30.8363 89.6989,30.8853 L88.8129,34.7323 C88.7519,34.9913 88.5209,35.1723 88.2549,35.1683 L73.6279,34.9113 L86.9309,40.8703 C87.1759,40.9803 87.3089,41.2483 87.2489,41.5093 L86.3969,45.2043 C86.3259,45.5063 86.0249,45.6943 85.7229,45.6253 C85.6759,45.6143 85.6299,45.5963 85.5869,45.5743" id="Fill-5"></path>
                    <path d="M63.8828,61.9239 L60.3538,44.0409 L65.9428,41.3139 L78.0518,55.0009 C78.2568,55.2339 78.2358,55.5879 78.0028,55.7939 C77.9648,55.8269 77.9228,55.8559 77.8778,55.8779 L74.3318,57.6089 C74.0938,57.7249 73.8058,57.6579 73.6428,57.4489 L64.6368,45.9109 L68.3808,60.0089 C68.4498,60.2689 68.3258,60.5399 68.0848,60.6569 L64.6798,62.3199 C64.4018,62.4559 64.0648,62.3399 63.9288,62.0619 C63.9068,62.0179 63.8918,61.9719 63.8828,61.9239" id="Fill-7"></path>
                    <path d="M37.4521,55.002 L49.3611,41.209 L54.9501,43.938 L51.6281,61.913 C51.5711,62.218 51.2781,62.42 50.9731,62.363 C50.9231,62.354 50.8751,62.338 50.8291,62.315 L47.2831,60.585 C47.0461,60.469 46.9211,60.202 46.9851,59.944 L50.5251,45.738 L41.7301,57.37 C41.5691,57.584 41.2781,57.653 41.0371,57.536 L37.6311,55.874 C37.3521,55.737 37.2371,55.401 37.3731,55.123 C37.3941,55.079 37.4211,55.039 37.4521,55.002" id="Fill-9"></path>
                    <path d="M26.3808,30.188375 L44.5848,30.7705 L45.9838,36.8345 L29.9338,45.5625 C29.6608,45.7095 29.3198,45.6095 29.1728,45.3365 C29.1488,45.2925 29.1298,45.2455 29.1178,45.1955 L28.2318,41.3475 C28.1718,41.0895 28.3008,40.8255 28.5408,40.7125 L41.8008,34.5265 L27.2338,35.0055 C26.9648,35.0145 26.7288,34.8335 26.6678,34.5715 L25.8158,30.8755 C25.7458,30.5745 25.9348,30.2725 26.2358,30.2035 C26.2828,30.1925 26.3318,30.1875 26.3808,30.188375" id="Fill-11"></path>
                    <path d="M39.0195,5.9639 L49.7685,20.6779 L45.8555,25.5139 L29.1005,18.2309 C28.8165,18.1069 28.6865,17.7759 28.8095,17.4909 C28.8305,17.4449 28.8565,17.4019 28.8885,17.3619 L31.3715,14.2939 C31.5385,14.0879 31.8265,14.0269 32.0625,14.1469 L45.0975,20.7939 L35.7505,9.6019 C35.5785,9.3959 35.5765,9.0969 35.7455,8.8889 L38.1285,5.9419 C38.3245,5.7009 38.6775,5.6629 38.9185,5.8589 C38.9575,5.8889 38.9905,5.9249 39.0195,5.9639" id="Fill-13"></path>
                    <path d="M10.5497,88.7891 C10.5497,87.1561 9.2377,86.0851 7.2567,86.0851 L4.5257,86.0851 L4.5257,91.7341 L7.2567,91.7341 C9.2377,91.7341 10.5497,90.5831 10.5497,88.7891 M15.0477,88.7891 C15.0477,93.0471 11.9427,95.6971 6.9877,95.6971 L4.5257,95.6971 L4.5257,100.3301 L-0.0003,100.3301 L-0.0003,82.1221 L7.3367,82.1221 C12.1027,82.1221 15.0477,84.6921 15.0477,88.7891" id="Fill-15"></path>
                    <path d="M31.248,91.2256 C31.248,88.3606 29.133,86.0046 26.187,86.0046 C23.242,86.0046 21.127,88.3606 21.127,91.2256 C21.127,94.0906 23.242,96.4476 26.187,96.4476 C29.133,96.4476 31.248,94.0906 31.248,91.2256 M35.827,91.2256 C35.827,96.5276 31.677,100.6776 26.187,100.6776 C20.698,100.6776 16.549,96.5276 16.549,91.2256 C16.549,85.9246 20.698,81.7746 26.187,81.7746 C31.677,81.7746 35.827,85.9246 35.827,91.2256" id="Fill-18"></path>
                    <polygon id="Fill-20" points="51.9472 96.2862 51.9472 100.3302 38.4252 100.3302 38.4252 82.1222 42.9502 82.1222 42.9502 96.2862"></polygon>
                    <path d="M64.8798,93.4219 L62.4968,87.2899 L60.1138,93.4219 L64.8798,93.4219 Z M66.3528,97.1969 L58.6418,97.1969 L57.4368,100.3299 L52.6168,100.3299 L60.3558,82.1219 L64.6928,82.1219 L72.4038,100.3299 L67.5848,100.3299 L66.3528,97.1969 Z" id="Fill-22"></path>
                    <path d="M78.6708,90.9844 L82.0178,90.9844 C83.7588,90.9844 85.1238,90.0214 85.1238,88.5214 C85.1238,87.0484 83.7588,86.1114 82.0178,86.1114 L78.6708,86.1114 L78.6708,90.9844 Z M85.5788,100.3304 L82.1248,95.0544 L82.0978,95.0544 L78.6708,95.0544 L78.6708,100.3304 L74.1458,100.3304 L74.1458,82.1224 L82.0978,82.1224 C86.6228,82.1224 89.6498,84.5864 89.6498,88.5214 C89.6498,90.9044 88.4968,92.8334 86.5688,93.9574 L90.8538,100.3304 L85.5788,100.3304 Z" id="Fill-24"></path>
                    <polygon id="Fill-26" points="92.729 100.33 97.254 100.33 97.254 82.122 92.729 82.122"></polygon>
                    <path d="M115.4882,87.7715 L110.9352,87.7715 C110.6952,86.4065 109.8652,85.4685 107.9372,85.4685 C106.3312,85.4685 105.2862,86.0845 105.2862,87.2625 C105.2862,88.3075 106.0362,88.7625 107.4822,89.0565 L110.0252,89.5925 C113.3732,90.2895 115.5142,91.6545 115.5142,94.7875 C115.5142,98.4285 112.5152,100.6775 107.9642,100.6775 C103.8672,100.6775 100.1722,98.7235 99.7432,94.2245 L104.2962,94.2245 C104.5902,95.8315 105.9562,96.8485 108.0972,96.8485 C109.7042,96.8485 110.6682,96.2335 110.6682,95.2145 C110.6682,94.5735 110.3202,93.9035 108.7402,93.6085 L105.7412,92.9665 C102.1532,92.1895 100.4672,90.5565 100.4672,87.6655 C100.4672,84.0235 103.4122,81.7745 107.6962,81.7745 C110.6412,81.7745 115.0332,82.8725 115.4882,87.7715" id="Fill-28"></path>
                </g>
            </g>
        </g>
    </g>
</svg>