<?xml version="1.0" encoding="UTF-8"?>
<svg width="110px" height="96px" viewBox="0 0 110 96" version="1.1" xmlns="http://www.w3.org/2000/svg" xmlns:xlink="http://www.w3.org/1999/xlink">
    <!-- Generator: Sketch 57.1 (83088) - https://sketch.com -->
    <title>TAURUS</title>
    <desc>Created with Sketch.</desc>
    <g id="Accelerator-Website" stroke="none" stroke-width="1" fill="none" fill-rule="evenodd">
        <g id="HOME" transform="translate(-761.000000, -620.000000)" fill="#FFFFFF">
            <g id="Accelerators" transform="translate(133.000000, 571.000000)">
                <g id="TAURUS" transform="translate(628.000000, 49.000000)">
                    <path d="M53.7359,9.0728 L54.8179,3.5598 L55.9709,8.9908 C57.5769,9.0108 59.1419,9.1978 60.6519,9.5348 L58.3299,1.1668 C58.1379,0.4768 57.5099,0.0008 56.7959,0.0008 L53.0139,0.0008 C52.2919,0.0008 51.6589,0.4868 51.4739,1.1848 L49.1579,9.9398 C50.6279,9.5008 52.1589,9.2078 53.7359,9.0728" id="Fill-1"></path>
                    <path d="M38.4595,16.8892 L35.2085,12.0492 L40.0655,15.2052 C41.2195,14.1162 42.4815,13.1412 43.8425,12.3102 L35.9995,7.8732 C35.3765,7.5222 34.5955,7.6282 34.0895,8.1342 L31.4155,10.8082 C30.9045,11.3192 30.8015,12.1102 31.1645,12.7352 L35.7975,20.7002 C36.5545,19.3362 37.4485,18.0612 38.4595,16.8892" id="Fill-3"></path>
                    <path d="M70.3247,14.3267 L74.3447,11.6267 L71.7457,15.6257 C72.8397,16.7167 73.8197,17.9207 74.6747,19.2157 L78.5187,12.4177 C78.8717,11.7947 78.7647,11.0137 78.2597,10.5077 L75.5857,7.8337 C75.0747,7.3227 74.2837,7.2197 73.6587,7.5827 L66.5277,11.7297 C67.8837,12.4667 69.1527,13.3407 70.3247,14.3267" id="Fill-5"></path>
                    <path d="M32.9683,32.6167 L27.4443,31.5317 L32.9903,30.3537 C33.0873,28.7157 33.3613,27.1237 33.7873,25.5957 L25.0513,28.0197 C24.3613,28.2117 23.8843,28.8397 23.8843,29.5547 L23.8843,33.3367 C23.8843,34.0587 24.3703,34.6907 25.0703,34.8757 L33.5983,37.1327 C33.2423,35.6767 33.0283,34.1667 32.9683,32.6167" id="Fill-7"></path>
                    <path d="M72.1734,47.3775 L74.3814,50.6635 L71.0434,48.4945 C69.8964,49.5455 68.6404,50.4785 67.2954,51.2785 L73.5904,54.8385 C74.2124,55.1905 74.9934,55.0845 75.5004,54.5785 L78.1734,51.9045 C78.6854,51.3945 78.7874,50.6035 78.4244,49.9785 L74.8894,43.8995 C74.0974,45.1475 73.1874,46.3115 72.1734,47.3775" id="Fill-9"></path>
                    <path d="M39.8462,48.0337 L35.7302,50.7997 L38.4732,46.5767 C37.4262,45.3647 36.5022,44.0447 35.7282,42.6297 L31.5542,50.0077 C31.2022,50.6307 31.3092,51.4117 31.8152,51.9177 L34.4892,54.5917 C34.9992,55.1027 35.7902,55.2057 36.4152,54.8427 L43.3372,50.8157 C42.0832,50.0037 40.9132,49.0707 39.8462,48.0337" id="Fill-11"></path>
                    <path d="M77.6714,25.9019 C78.0484,27.3309 78.2894,28.8139 78.3814,30.3389 L82.4474,31.1369 L78.4204,31.9919 C78.4014,33.5629 78.2254,35.0949 77.9034,36.5739 L84.8404,34.6489 C85.5294,34.4579 86.0074,33.8299 86.0074,33.1149 L86.0074,29.3329 C86.0074,28.6099 85.5214,27.9779 84.8214,27.7939 L77.6714,25.9019 Z" id="Fill-13"></path>
                    <path d="M56.0191,54.4566 L55.2131,58.5626 L54.3331,54.4226 C52.7301,54.3276 51.1721,54.0656 49.6751,53.6566 L51.7011,60.9566 C51.8921,61.6456 52.5201,62.1236 53.2361,62.1236 L57.0171,62.1236 C57.7401,62.1236 58.3721,61.6366 58.5561,60.9376 L60.3991,53.9736 C58.9831,54.2716 57.5181,54.4356 56.0191,54.4566" id="Fill-15"></path>
                    <path d="M55.6861,45.8355 C47.9061,45.8355 41.5761,39.5055 41.5761,31.7255 C41.5761,23.9445 47.9061,17.6145 55.6861,17.6145 C63.4671,17.6145 69.7961,23.9445 69.7961,31.7255 C69.7961,39.5055 63.4671,45.8355 55.6861,45.8355 M55.6861,13.4765 C45.6081,13.4765 37.4371,21.6465 37.4371,31.7255 C37.4371,41.8035 45.6081,49.9735 55.6861,49.9735 C65.7651,49.9735 73.9351,41.8035 73.9351,31.7255 C73.9351,21.6465 65.7651,13.4765 55.6861,13.4765" id="Fill-17"></path>
                    <polygon id="Fill-19" points="16.1197 80.5728 10.3087 80.5728 10.3087 94.7378 5.8097 94.7378 5.8097 80.5728 -0.0003 80.5728 -0.0003 76.5298 16.1197 76.5298"></polygon>
                    <path d="M26.9908,87.8296 L24.6078,81.6976 L22.2238,87.8296 L26.9908,87.8296 Z M28.4638,91.6046 L20.7518,91.6046 L19.5478,94.7376 L14.7268,94.7376 L22.4658,76.5296 L26.8038,76.5296 L34.5148,94.7376 L29.6948,94.7376 L28.4638,91.6046 Z" id="Fill-22"></path>
                    <path d="M52.5894,86.2495 C52.5894,91.8985 49.3224,95.0855 44.1014,95.0855 C38.9064,95.0855 35.6404,91.8985 35.6404,86.2495 L35.6404,76.5295 L40.1924,76.5295 L40.1924,86.3295 C40.1924,89.1145 41.7184,90.8545 44.1014,90.8545 C46.4844,90.8545 48.0374,89.1145 48.0374,86.3295 L48.0374,76.5295 L52.5894,76.5295 L52.5894,86.2495 Z" id="Fill-24"></path>
                    <path d="M60.649,85.3931 L63.997,85.3931 C65.737,85.3931 67.102,84.4291 67.102,82.9291 C67.102,81.4561 65.737,80.5191 63.997,80.5191 L60.649,80.5191 L60.649,85.3931 Z M67.557,94.7381 L64.103,89.4621 L64.077,89.4621 L60.649,89.4621 L60.649,94.7381 L56.124,94.7381 L56.124,76.5301 L64.077,76.5301 C68.602,76.5301 71.628,78.9941 71.628,82.9291 C71.628,85.3121 70.476,87.2411 68.548,88.3651 L72.833,94.7381 L67.557,94.7381 Z" id="Fill-26"></path>
                    <path d="M91.3882,86.2495 C91.3882,91.8985 88.1222,95.0855 82.9012,95.0855 C77.7062,95.0855 74.4392,91.8985 74.4392,86.2495 L74.4392,76.5295 L78.9922,76.5295 L78.9922,86.3295 C78.9922,89.1145 80.5172,90.8545 82.9012,90.8545 C85.2842,90.8545 86.8362,89.1145 86.8362,86.3295 L86.8362,76.5295 L91.3882,76.5295 L91.3882,86.2495 Z" id="Fill-28"></path>
                    <path d="M109.8648,82.1792 L105.3128,82.1792 C105.0718,80.8142 104.2418,79.8762 102.3138,79.8762 C100.7078,79.8762 99.6628,80.4922 99.6628,81.6712 C99.6628,82.7152 100.4128,83.1702 101.8588,83.4642 L104.4028,84.0002 C107.7498,84.6972 109.8908,86.0622 109.8908,89.1952 C109.8908,92.8362 106.8918,95.0852 102.3408,95.0852 C98.2438,95.0852 94.5498,93.1312 94.1208,88.6322 L98.6728,88.6322 C98.9678,90.2402 100.3328,91.2562 102.4738,91.2562 C104.0818,91.2562 105.0448,90.6412 105.0448,89.6232 C105.0448,88.9812 104.6968,88.3112 103.1178,88.0162 L100.1188,87.3742 C96.5298,86.5972 94.8438,84.9642 94.8438,82.0732 C94.8438,78.4312 97.7888,76.1822 102.0728,76.1822 C105.0178,76.1822 109.4098,77.2802 109.8648,82.1792" id="Fill-30"></path>
                </g>
            </g>
        </g>
    </g>
</svg>