<svg version="1.1" viewBox="0.0 0.0 683.7532808398951 100.0" fill="none" stroke="none" stroke-linecap="square" stroke-miterlimit="10" xmlns:xlink="http://www.w3.org/1999/xlink" xmlns="http://www.w3.org/2000/svg"><clipPath id="p.0"><path d="m0 0l683.7533 0l0 100.0l-683.7533 0l0 -100.0z" clip-rule="nonzero"/></clipPath><g clip-path="url(#p.0)"><path fill="#000000" fill-opacity="0.0" d="m0 0l683.7533 0l0 100.0l-683.7533 0z" fill-rule="evenodd"/><path fill="#2165e3" d="m14.179875 48.73239l0 0c0 -2.9919624 2.4254656 -5.417431 5.41743 -5.417431l107.1179 0c1.4367905 0 2.8147354 0.57076263 3.830696 1.5867271c1.015976 1.0159683 1.586731 2.3939133 1.586731 3.8307037l0 21.669075c0 2.9919662 -2.4254608 5.4174347 -5.417427 5.4174347l-107.1179 0c-2.9919643 0 -5.41743 -2.4254684 -5.41743 -5.4174347z" fill-rule="evenodd"/><path fill="#ffffff" d="m47.97852 64.36693l0 -5.40625l-1.0625 0l0 -0.828125l1.0625 0l0 -2.0625l0.90625 0l0 2.0625l1.4375 0l0 0.828125l-1.4375 0l0 5.40625l-0.90625 0zm6.024597 -6.453125q0.84375 0 1.515625 0.421875q0.6875 0.40625 1.0625 1.125q0.390625 0.703125 0.390625 1.59375q0 0.25 -0.015625 0.375l-5.125 0q0.046875 0.96875 0.625 1.65625q0.578125 0.671875 1.5625 0.671875q0.796875 0 1.3125 -0.296875q0.53125 -0.3125 0.859375 -0.84375l0.71875 0.484375q-0.4375 0.6875 -1.15625 1.09375q-0.71875 0.390625 -1.703125 0.390625q-0.90625 0 -1.625 -0.421875q-0.703125 -0.4375 -1.109375 -1.1875q-0.390625 -0.765625 -0.390625 -1.734375q0 -0.953125 0.390625 -1.703125q0.390625 -0.765625 1.09375 -1.1875q0.703125 -0.4375 1.59375 -0.4375zm2.0625 2.78125q-0.125 -0.984375 -0.65625 -1.46875q-0.515625 -0.484375 -1.40625 -0.484375q-0.859375 0 -1.421875 0.5625q-0.546875 0.546875 -0.703125 1.390625l4.1875 0zm5.309738 -2.78125q0.3125 0 0.609375 0.09375l0 0.828125q-0.28125 -0.140625 -0.609375 -0.140625q-0.578125 0 -1.078125 0.328125q-0.484375 0.3125 -0.78125 0.921875q-0.296875 0.609375 -0.296875 1.4375l0 2.984375l-0.90625 0l0 -6.234375l0.90625 0l0 1.25q0.359375 -0.6875 0.90625 -1.078125q0.5625 -0.390625 1.25 -0.390625zm4.518223 0q0.3125 0 0.609375 0.09375l0 0.828125q-0.28125 -0.140625 -0.609375 -0.140625q-0.578125 0 -1.078125 0.328125q-0.484375 0.3125 -0.78125 0.921875q-0.2968788 0.609375 -0.2968788 1.4375l0 2.984375l-0.90625 0l0 -6.234375l0.90625 0l0 1.25q0.3593788 -0.6875 0.9062538 -1.078125q0.5625 -0.390625 1.25 -0.390625zm7.252594 0.21875l0 6.234375l-0.90625 0l0 -0.921875q-0.390625 0.53125 -0.953125 0.84375q-0.5625 0.296875 -1.21875 0.296875q-0.890625 0 -1.609375 -0.421875q-0.703125 -0.4375 -1.109375 -1.1875q-0.390625 -0.765625 -0.390625 -1.734375q0 -0.96875 0.390625 -1.71875q0.390625 -0.75 1.09375 -1.171875q0.703125 -0.4375 1.59375 -0.4375q0.6875 0 1.25 0.3125q0.5625 0.296875 0.953125 0.84375l0 -0.9375l0.90625 0zm-3.109375 5.625q0.640625 0 1.140625 -0.3125q0.5 -0.328125 0.78125 -0.90625q0.28125 -0.578125 0.28125 -1.296875q0 -0.71875 -0.28125 -1.28125q-0.28125 -0.578125 -0.78125 -0.890625q-0.5 -0.328125 -1.140625 -0.328125q-0.625 0 -1.125 0.328125q-0.484375 0.3125 -0.765625 0.875q-0.28125 0.5625 -0.28125 1.296875q0 0.71875 0.28125 1.296875q0.28125 0.578125 0.765625 0.90625q0.5 0.3125 1.125 0.3125zm7.086426 -8.46875q-0.46875 0 -0.765625 0.328125q-0.296875 0.3125 -0.296875 0.8125l0 1.703125l1.4375 0l0 0.828125l-1.4375 0l0 5.40625l-0.90625 0l0 -5.40625l-0.796875 0l0 -0.828125l0.796875 0l0 -1.703125q0 -0.859375 0.546875 -1.40625q0.5625 -0.5625 1.421875 -0.5625l0.375 0l0 0.828125l-0.375 0zm4.0870895 9.296875q-0.890625 0 -1.6093674 -0.421875q-0.703125 -0.4375 -1.109375 -1.203125q-0.390625 -0.765625 -0.390625 -1.71875q0 -0.96875 0.390625 -1.71875q0.390625 -0.75 1.09375 -1.171875q0.7031174 -0.4375 1.5937424 -0.4375q0.890625 0 1.59375 0.4375q0.71875 0.421875 1.109375 1.1875q0.40625 0.75 0.40625 1.703125q0 0.96875 -0.40625 1.734375q-0.390625 0.75 -1.09375 1.1875q-0.6875 0.421875 -1.578125 0.421875zm-0.03125 -0.828125q0.640625 0 1.140625 -0.3125q0.5 -0.328125 0.78125 -0.90625q0.28125 -0.578125 0.28125 -1.296875q0 -0.71875 -0.28125 -1.28125q-0.28125 -0.578125 -0.78125 -0.890625q-0.5 -0.328125 -1.140625 -0.328125q-0.625 0 -1.125 0.328125q-0.48436737 0.3125 -0.7656174 0.875q-0.28125 0.5625 -0.28125 1.296875q0 0.71875 0.28125 1.296875q0.28125 0.578125 0.7656174 0.90625q0.5 0.3125 1.125 0.3125zm7.4522095 -5.84375q0.3125 0 0.609375 0.09375l0 0.828125q-0.28125 -0.140625 -0.609375 -0.140625q-0.578125 0 -1.078125 0.328125q-0.484375 0.3125 -0.78125 0.921875q-0.296875 0.609375 -0.296875 1.4375l0 2.984375l-0.90625 0l0 -6.234375l0.90625 0l0 1.25q0.359375 -0.6875 0.90625 -1.078125q0.5625 -0.390625 1.25 -0.390625zm8.096344 0q0.859375 0 1.421875 0.609375q0.578125 0.609375 0.578125 1.671875l0 4.171875l-0.90625 0l0 -3.765625q0 -1.0 -0.375 -1.421875q-0.359375 -0.4375 -0.96875 -0.4375q-0.734375 0 -1.140625 0.578125q-0.40625 0.5625 -0.46875 1.53125l0 3.515625l-0.90625 0l0 -3.765625q0 -1.0 -0.375 -1.421875q-0.375 -0.4375 -0.96875 -0.4375q-0.8125 0 -1.21875 0.6875q-0.40625 0.671875 -0.40625 1.8125l0 3.125l-0.90625 0l0 -6.234375l0.90625 0l0 0.96875q0.296875 -0.578125 0.765625 -0.875q0.484375 -0.3125 1.09375 -0.3125q0.6875 0 1.1875 0.375q0.5 0.359375 0.703125 1.046875q0.296875 -0.671875 0.796875 -1.046875q0.515625 -0.375 1.1875 -0.375z" fill-rule="nonzero"/><path fill="#fd7a9e" d="m385.07217 48.729767l0 0c0 -2.9919624 2.425476 -5.417431 5.41745 -5.417431l107.11789 0c1.4367981 0 2.8147278 0.57076263 3.8306885 1.5867271c1.0159912 1.0159683 1.586731 2.3939133 1.586731 3.8307037l0 21.669075c0 2.9919662 -2.4254456 5.4174347 -5.4174194 5.4174347l-107.11789 0c-2.9919739 0 -5.41745 -2.4254684 -5.41745 -5.4174347z" fill-rule="evenodd"/><path fill="#ffffff" d="m432.36716 57.91118q0.65625 0 1.203125 0.265625q0.5625 0.265625 0.875 0.796875q0.328125 0.515625 0.328125 1.21875l0 4.171875l-0.90625 0l0 -3.765625q0 -1.859375 -1.640625 -1.859375q-0.96875 0 -1.453125 0.6875q-0.46875 0.671875 -0.46875 1.8125l0 3.125l-0.90625 0l0 -6.234375l0.90625 0l0 1.03125q0.3125 -0.59375 0.84375 -0.921875q0.53125 -0.328125 1.21875 -0.328125zm6.907196 6.671875q-0.890625 0 -1.609375 -0.421875q-0.703125 -0.4375 -1.109375 -1.203125q-0.390625 -0.765625 -0.390625 -1.71875q0 -0.96875 0.390625 -1.71875q0.390625 -0.75 1.09375 -1.171875q0.703125 -0.4375 1.59375 -0.4375q0.890625 0 1.59375 0.4375q0.71875 0.421875 1.109375 1.1875q0.40625 0.75 0.40625 1.703125q0 0.96875 -0.40625 1.734375q-0.390625 0.75 -1.09375 1.1875q-0.6875 0.421875 -1.578125 0.421875zm-0.03125 -0.828125q0.640625 0 1.140625 -0.3125q0.5 -0.328125 0.78125 -0.90625q0.28125 -0.578125 0.28125 -1.296875q0 -0.71875 -0.28125 -1.28125q-0.28125 -0.578125 -0.78125 -0.890625q-0.5 -0.328125 -1.140625 -0.328125q-0.625 0 -1.125 0.328125q-0.484375 0.3125 -0.765625 0.875q-0.28125 0.5625 -0.28125 1.296875q0 0.71875 0.28125 1.296875q0.28125 0.578125 0.765625 0.90625q0.5 0.3125 1.125 0.3125zm4.8740845 0.609375l0 -6.234375l0.90625 0l0 6.234375l-0.90625 0zm0.453125 -7.453125q-0.296875 0 -0.515625 -0.203125q-0.203125 -0.21875 -0.203125 -0.53125q0 -0.296875 0.203125 -0.5q0.21875 -0.203125 0.515625 -0.203125q0.296875 0 0.5 0.203125q0.21875 0.203125 0.21875 0.515625q0 0.296875 -0.21875 0.515625q-0.203125 0.203125 -0.5 0.203125zm4.82193 7.671875q-0.90625 0 -1.59375 -0.390625q-0.671875 -0.390625 -1.03125 -1.09375l0.8125 -0.40625q0.484375 1.0625 1.921875 1.0625q0.703125 0 1.15625 -0.25q0.453125 -0.265625 0.453125 -0.796875q0 -0.546875 -0.375 -0.8125q-0.359375 -0.265625 -1.28125 -0.34375q-1.28125 -0.109375 -1.84375 -0.578125q-0.546875 -0.46875 -0.546875 -1.234375q0 -0.859375 0.625 -1.34375q0.625 -0.484375 1.71875 -0.484375q1.859375 0 2.53125 1.46875l-0.8125 0.40625q-0.234375 -0.546875 -0.671875 -0.796875q-0.421875 -0.25 -1.109375 -0.25q-0.6875 0 -1.0625 0.25q-0.359375 0.25 -0.359375 0.71875q0 0.4375 0.390625 0.71875q0.390625 0.265625 1.359375 0.359375q1.171875 0.09375 1.75 0.578125q0.59375 0.46875 0.59375 1.234375q0 0.625 -0.359375 1.078125q-0.359375 0.453125 -0.96875 0.6875q-0.59375 0.21875 -1.296875 0.21875zm6.6842346 -6.671875q0.84375 0 1.515625 0.421875q0.6875 0.40625 1.0625 1.125q0.390625 0.703125 0.390625 1.59375q0 0.25 -0.015625 0.375l-5.125 0q0.046875 0.96875 0.625 1.65625q0.578125 0.671875 1.5625 0.671875q0.796875 0 1.3125 -0.296875q0.53125 -0.3125 0.859375 -0.84375l0.71875 0.484375q-0.4375 0.6875 -1.15625 1.09375q-0.71875 0.390625 -1.703125 0.390625q-0.90625 0 -1.625 -0.421875q-0.703125 -0.4375 -1.109375 -1.1875q-0.390625 -0.765625 -0.390625 -1.734375q0 -0.953125 0.390625 -1.703125q0.390625 -0.765625 1.09375 -1.1875q0.703125 -0.4375 1.59375 -0.4375zm2.0625 2.78125q-0.125 -0.984375 -0.65625 -1.46875q-0.515625 -0.484375 -1.40625 -0.484375q-0.859375 0 -1.421875 0.5625q-0.546875 0.546875 -0.703125 1.390625l4.1875 0z" fill-rule="nonzero"/><path fill="#fb775e" d="m551.6207 48.729767l0 0c0 -2.9919624 2.425476 -5.417431 5.4174194 -5.417431l107.11792 0c1.4367676 0 2.8146973 0.57076263 3.8306885 1.5867271c1.0159912 1.0159683 1.586731 2.3939133 1.586731 3.8307037l0 21.669075c0 2.9919662 -2.425476 5.4174347 -5.4174194 5.4174347l-107.11792 0c-2.9919434 0 -5.4174194 -2.4254684 -5.4174194 -5.4174347z" fill-rule="evenodd"/><path fill="#ffffff" d="m584.51483 64.3643l-3.109375 -4.375l-0.96875 1.140625l0 3.234375l-1.0 0l0 -9.09375l1.0 0l0 4.609375l3.84375 -4.609375l1.109375 0l-3.40625 4.03125l3.671875 5.0625l-1.140625 0zm7.451294 -6.234375l0 6.234375l-0.90625 0l0 -1.046875q-0.3125 0.609375 -0.84375 0.9375q-0.53125 0.328125 -1.21875 0.328125q-0.65625 0 -1.203125 -0.265625q-0.546875 -0.265625 -0.875 -0.78125q-0.328125 -0.53125 -0.328125 -1.234375l0 -4.171875l0.90625 0l0 3.765625q0 1.859375 1.640625 1.859375q0.96875 0 1.4375 -0.671875q0.484375 -0.6875 0.484375 -1.84375l0 -3.109375l0.90625 0zm4.7977905 -0.21875q0.890625 0 1.59375 0.4375q0.703125 0.421875 1.09375 1.171875q0.390625 0.75 0.390625 1.71875q0 0.96875 -0.40625 1.734375q-0.390625 0.75 -1.09375 1.1875q-0.703125 0.421875 -1.59375 0.421875q-0.671875 0 -1.234375 -0.296875q-0.5625 -0.3125 -0.9375 -0.84375l0 0.921875l-0.90625 0l0 -9.671875l0.90625 0l0 4.375q0.375 -0.546875 0.9375 -0.84375q0.578125 -0.3125 1.25 -0.3125zm0 5.84375q0.625 0 1.125 -0.3125q0.5 -0.328125 0.765625 -0.90625q0.28125 -0.578125 0.28125 -1.296875q0 -0.734375 -0.28125 -1.296875q-0.265625 -0.5625 -0.765625 -0.875q-0.5 -0.328125 -1.125 -0.328125q-0.640625 0 -1.140625 0.328125q-0.5 0.3125 -0.78125 0.890625q-0.265625 0.5625 -0.265625 1.28125q0 0.71875 0.265625 1.296875q0.28125 0.578125 0.78125 0.90625q0.5 0.3125 1.140625 0.3125zm7.055176 -5.84375q0.84375 0 1.515625 0.421875q0.6875 0.40625 1.0625 1.125q0.390625 0.703125 0.390625 1.59375q0 0.25 -0.015625 0.375l-5.125 0q0.046875 0.96875 0.625 1.65625q0.578125 0.671875 1.5625 0.671875q0.796875 0 1.3125 -0.296875q0.53125 -0.3125 0.859375 -0.84375l0.71875 0.484375q-0.4375 0.6875 -1.15625 1.09375q-0.71875 0.390625 -1.703125 0.390625q-0.90625 0 -1.625 -0.421875q-0.703125 -0.4375 -1.109375 -1.1875q-0.390625 -0.765625 -0.390625 -1.734375q0 -0.953125 0.390625 -1.703125q0.390625 -0.765625 1.09375 -1.1875q0.703125 -0.4375 1.59375 -0.4375zm2.0625 2.78125q-0.125 -0.984375 -0.65625 -1.46875q-0.515625 -0.484375 -1.40625 -0.484375q-0.859375 0 -1.421875 0.5625q-0.546875 0.546875 -0.703125 1.390625l4.1875 0zm5.3097534 -2.78125q0.3125 0 0.609375 0.09375l0 0.828125q-0.28125 -0.140625 -0.609375 -0.140625q-0.578125 0 -1.078125 0.328125q-0.484375 0.3125 -0.78125 0.921875q-0.296875 0.609375 -0.296875 1.4375l0 2.984375l-0.90625 0l0 -6.234375l0.90625 0l0 1.25q0.359375 -0.6875 0.90625 -1.078125q0.5625 -0.390625 1.25 -0.390625zm4.4244385 0q0.65625 0 1.203125 0.265625q0.5625 0.265625 0.875 0.796875q0.328125 0.515625 0.328125 1.21875l0 4.171875l-0.90625 0l0 -3.765625q0 -1.859375 -1.640625 -1.859375q-0.96875 0 -1.453125 0.6875q-0.46875 0.671875 -0.46875 1.8125l0 3.125l-0.90625 0l0 -6.234375l0.90625 0l0 1.03125q0.3125 -0.59375 0.84375 -0.921875q0.53125 -0.328125 1.21875 -0.328125zm6.8759155 0q0.84375 0 1.515625 0.421875q0.6875 0.40625 1.0625 1.125q0.390625 0.703125 0.390625 1.59375q0 0.25 -0.015625 0.375l-5.125 0q0.046875 0.96875 0.625 1.65625q0.578125 0.671875 1.5625 0.671875q0.796875 0 1.3125 -0.296875q0.53125 -0.3125 0.859375 -0.84375l0.71875 0.484375q-0.4375 0.6875 -1.15625 1.09375q-0.71875 0.390625 -1.703125 0.390625q-0.90625 0 -1.625 -0.421875q-0.703125 -0.4375 -1.109375 -1.1875q-0.390625 -0.765625 -0.390625 -1.734375q0 -0.953125 0.390625 -1.703125q0.390625 -0.765625 1.09375 -1.1875q0.703125 -0.4375 1.59375 -0.4375zm2.0625 2.78125q-0.125 -0.984375 -0.65625 -1.46875q-0.515625 -0.484375 -1.40625 -0.484375q-0.859375 0 -1.421875 0.5625q-0.546875 0.546875 -0.703125 1.390625l4.1875 0zm2.5753784 3.671875l0 -5.40625l-1.0625 0l0 -0.828125l1.0625 0l0 -2.0625l0.90625 0l0 2.0625l1.4375 0l0 0.828125l-1.4375 0l0 5.40625l-0.90625 0zm6.024597 -6.453125q0.84375 0 1.515625 0.421875q0.6875 0.40625 1.0625 1.125q0.390625 0.703125 0.390625 1.59375q0 0.25 -0.015625 0.375l-5.125 0q0.046875 0.96875 0.625 1.65625q0.578125 0.671875 1.5625 0.671875q0.796875 0 1.3125 -0.296875q0.53125 -0.3125 0.859375 -0.84375l0.71875 0.484375q-0.4375 0.6875 -1.15625 1.09375q-0.71875 0.390625 -1.703125 0.390625q-0.90625 0 -1.625 -0.421875q-0.703125 -0.4375 -1.109375 -1.1875q-0.390625 -0.765625 -0.390625 -1.734375q0 -0.953125 0.390625 -1.703125q0.390625 -0.765625 1.09375 -1.1875q0.703125 -0.4375 1.59375 -0.4375zm2.0625 2.78125q-0.125 -0.984375 -0.65625 -1.46875q-0.515625 -0.484375 -1.40625 -0.484375q-0.859375 0 -1.421875 0.5625q-0.546875 0.546875 -0.703125 1.390625l4.1875 0zm4.4347534 3.890625q-0.90625 0 -1.59375 -0.390625q-0.671875 -0.390625 -1.03125 -1.09375l0.8125 -0.40625q0.484375 1.0625 1.921875 1.0625q0.703125 0 1.15625 -0.25q0.453125 -0.265625 0.453125 -0.796875q0 -0.546875 -0.375 -0.8125q-0.359375 -0.265625 -1.28125 -0.34375q-1.28125 -0.109375 -1.84375 -0.578125q-0.546875 -0.46875 -0.546875 -1.234375q0 -0.859375 0.625 -1.34375q0.625 -0.484375 1.71875 -0.484375q1.859375 0 2.53125 1.46875l-0.8125 0.40625q-0.234375 -0.546875 -0.671875 -0.796875q-0.421875 -0.25 -1.109375 -0.25q-0.6875 0 -1.0625 0.25q-0.359375 0.25 -0.359375 0.71875q0 0.4375 0.390625 0.71875q0.390625 0.265625 1.359375 0.359375q1.171875 0.09375 1.75 0.578125q0.59375 0.46875 0.59375 1.234375q0 0.625 -0.359375 1.078125q-0.359375 0.453125 -0.96875 0.6875q-0.59375 0.21875 -1.296875 0.21875z" fill-rule="nonzero"/><path fill="#f9c3c0" d="m199.62608 48.73239l0 0c0 -2.9919624 2.4254608 -5.417431 5.4174347 -5.417431l107.11789 0c1.4367981 0 2.8147278 0.57076263 3.8306885 1.5867271c1.0159912 1.0159683 1.586731 2.3939133 1.586731 3.8307037l0 21.669075c0 2.9919662 -2.4254456 5.4174347 -5.4174194 5.4174347l-107.11789 0c-2.9919739 0 -5.4174347 -2.4254684 -5.4174347 -5.4174347z" fill-rule="evenodd"/><path fill="#ffffff" d="m229.89278 64.36693l0 -5.40625l-1.0625 0l0 -0.828125l1.0625 0l0 -2.0625l0.90625 0l0 2.0625l1.4375 0l0 0.828125l-1.4375 0l0 5.40625l-0.90625 0zm3.8214722 0l0 -6.234375l0.90625 0l0 6.234375l-0.90625 0zm0.453125 -7.453125q-0.296875 0 -0.515625 -0.203125q-0.203125 -0.21875 -0.203125 -0.53125q0 -0.296875 0.203125 -0.5q0.21875 -0.203125 0.515625 -0.203125q0.296875 0 0.5 0.203125q0.21875 0.203125 0.21875 0.515625q0 0.296875 -0.21875 0.515625q-0.203125 0.203125 -0.5 0.203125zm2.962555 7.453125l0 -5.40625l-1.0625 0l0 -0.828125l1.0625 0l0 -2.0625l0.90625 0l0 2.0625l1.4375 0l0 0.828125l-1.4375 0l0 5.40625l-0.90625 0zm8.805847 -6.234375l0 6.234375l-0.90625 0l0 -1.046875q-0.3125 0.609375 -0.84375 0.9375q-0.53125 0.328125 -1.21875 0.328125q-0.65625 0 -1.203125 -0.265625q-0.546875 -0.265625 -0.875 -0.78125q-0.328125 -0.53125 -0.328125 -1.234375l0 -4.171875l0.90625 0l0 3.765625q0 1.859375 1.640625 1.859375q0.96875 0 1.4375 -0.671875q0.484375 -0.6875 0.484375 -1.84375l0 -3.109375l0.90625 0zm3.8759308 6.453125q-0.90625 0 -1.59375 -0.390625q-0.671875 -0.390625 -1.03125 -1.09375l0.8125 -0.40625q0.484375 1.0625 1.921875 1.0625q0.703125 0 1.15625 -0.25q0.453125 -0.265625 0.453125 -0.796875q0 -0.546875 -0.375 -0.8125q-0.359375 -0.265625 -1.28125 -0.34375q-1.28125 -0.109375 -1.84375 -0.578125q-0.546875 -0.46875 -0.546875 -1.234375q0 -0.859375 0.625 -1.34375q0.625 -0.484375 1.71875 -0.484375q1.859375 0 2.53125 1.46875l-0.8125 0.40625q-0.234375 -0.546875 -0.671875 -0.796875q-0.421875 -0.25 -1.109375 -0.25q-0.6875 0 -1.0625 0.25q-0.359375 0.25 -0.359375 0.71875q0 0.4375 0.390625 0.71875q0.390625 0.265625 1.359375 0.359375q1.171875 0.09375 1.75 0.578125q0.59375 0.46875 0.59375 1.234375q0 0.625 -0.359375 1.078125q-0.359375 0.453125 -0.96875 0.6875q-0.59375 0.21875 -1.296875 0.21875zm3.9186096 -3.125l0 -0.75l3.015625 0l0 0.75l-3.015625 0zm7.5783997 -3.546875q0.65625 0 1.203125 0.265625q0.5625 0.265625 0.875 0.796875q0.328125 0.515625 0.328125 1.21875l0 4.171875l-0.90625 0l0 -3.765625q0 -1.859375 -1.640625 -1.859375q-0.96875 0 -1.453125 0.6875q-0.46875 0.671875 -0.46875 1.8125l0 3.125l-0.90625 0l0 -6.234375l0.90625 0l0 1.03125q0.3125 -0.59375 0.84375 -0.921875q0.53125 -0.328125 1.21875 -0.328125zm6.907196 6.671875q-0.890625 0 -1.609375 -0.421875q-0.703125 -0.4375 -1.109375 -1.203125q-0.390625 -0.765625 -0.390625 -1.71875q0 -0.96875 0.390625 -1.71875q0.390625 -0.75 1.09375 -1.171875q0.703125 -0.4375 1.59375 -0.4375q0.890625 0 1.59375 0.4375q0.71875 0.421875 1.109375 1.1875q0.40625 0.75 0.40625 1.703125q0 0.96875 -0.40625 1.734375q-0.390625 0.75 -1.09375 1.1875q-0.6875 0.421875 -1.578125 0.421875zm-0.03125 -0.828125q0.640625 0 1.140625 -0.3125q0.5 -0.328125 0.78125 -0.90625q0.28125 -0.578125 0.28125 -1.296875q0 -0.71875 -0.28125 -1.28125q-0.28125 -0.578125 -0.78125 -0.890625q-0.5 -0.328125 -1.140625 -0.328125q-0.625 0 -1.125 0.328125q-0.484375 0.3125 -0.765625 0.875q-0.28125 0.5625 -0.28125 1.296875q0 0.71875 0.28125 1.296875q0.28125 0.578125 0.765625 0.90625q0.5 0.3125 1.125 0.3125zm4.8740845 0.609375l0 -6.234375l0.90625 0l0 6.234375l-0.90625 0zm0.453125 -7.453125q-0.296875 0 -0.515625 -0.203125q-0.203125 -0.21875 -0.203125 -0.53125q0 -0.296875 0.203125 -0.5q0.21875 -0.203125 0.515625 -0.203125q0.296875 0 0.5 0.203125q0.21875 0.203125 0.21875 0.515625q0 0.296875 -0.21875 0.515625q-0.203125 0.203125 -0.5 0.203125zm4.82193 7.671875q-0.90625 0 -1.59375 -0.390625q-0.671875 -0.390625 -1.03125 -1.09375l0.8125 -0.40625q0.484375 1.0625 1.921875 1.0625q0.703125 0 1.15625 -0.25q0.453125 -0.265625 0.453125 -0.796875q0 -0.546875 -0.375 -0.8125q-0.359375 -0.265625 -1.28125 -0.34375q-1.28125 -0.109375 -1.84375 -0.578125q-0.546875 -0.46875 -0.546875 -1.234375q0 -0.859375 0.625 -1.34375q0.625 -0.484375 1.71875 -0.484375q1.859375 0 2.53125 1.46875l-0.8125 0.40625q-0.234375 -0.546875 -0.671875 -0.796875q-0.421875 -0.25 -1.109375 -0.25q-0.6875 0 -1.0625 0.25q-0.359375 0.25 -0.359375 0.71875q0 0.4375 0.390625 0.71875q0.390625 0.265625 1.359375 0.359375q1.171875 0.09375 1.75 0.578125q0.59375 0.46875 0.59375 1.234375q0 0.625 -0.359375 1.078125q-0.359375 0.453125 -0.96875 0.6875q-0.59375 0.21875 -1.296875 0.21875zm6.6842346 -6.671875q0.84375 0 1.515625 0.421875q0.6875 0.40625 1.0625 1.125q0.390625 0.703125 0.390625 1.59375q0 0.25 -0.015625 0.375l-5.125 0q0.046875 0.96875 0.625 1.65625q0.578125 0.671875 1.5625 0.671875q0.796875 0 1.3125 -0.296875q0.53125 -0.3125 0.859375 -0.84375l0.71875 0.484375q-0.4375 0.6875 -1.15625 1.09375q-0.71875 0.390625 -1.703125 0.390625q-0.90625 0 -1.625 -0.421875q-0.703125 -0.4375 -1.109375 -1.1875q-0.390625 -0.765625 -0.390625 -1.734375q0 -0.953125 0.390625 -1.703125q0.390625 -0.765625 1.09375 -1.1875q0.703125 -0.4375 1.59375 -0.4375zm2.0625 2.78125q-0.125 -0.984375 -0.65625 -1.46875q-0.515625 -0.484375 -1.40625 -0.484375q-0.859375 0 -1.421875 0.5625q-0.546875 0.546875 -0.703125 1.390625l4.1875 0z" fill-rule="nonzero"/><path fill="#000000" fill-opacity="0.0" d="m132.13263 59.56693l67.49606 0" fill-rule="evenodd"/><path stroke="#194cac" stroke-width="1.0" stroke-linejoin="round" stroke-linecap="butt" stroke-dasharray="1.0,3.0" d="m132.13263 59.56693l61.496063 0" fill-rule="evenodd"/><path fill="#194cac" stroke="#194cac" stroke-width="1.0" stroke-linecap="butt" d="m193.6287 61.218662l4.538101 -1.6517334l-4.538101 -1.6517334z" fill-rule="evenodd"/><path fill="#000000" fill-opacity="0.0" d="m317.57883 59.56693l67.49606 0" fill-rule="evenodd"/><path stroke="#194cac" stroke-width="1.0" stroke-linejoin="round" stroke-linecap="butt" stroke-dasharray="1.0,3.0" d="m317.57886 59.56693l61.496033 0" fill-rule="evenodd"/><path fill="#194cac" stroke="#194cac" stroke-width="1.0" stroke-linecap="butt" d="m379.0749 61.218662l4.538086 -1.6517334l-4.538086 -1.6517334z" fill-rule="evenodd"/><path fill="#000000" fill-opacity="0.0" d="m503.02493 59.564304l48.59842 0" fill-rule="evenodd"/><path stroke="#194cac" stroke-width="1.0" stroke-linejoin="round" stroke-linecap="butt" stroke-dasharray="1.0,3.0" d="m503.02493 59.564304l42.59842 0" fill-rule="evenodd"/><path fill="#194cac" stroke="#194cac" stroke-width="1.0" stroke-linecap="butt" d="m545.62335 61.216038l4.538086 -1.6517334l-4.538086 -1.6517334z" fill-rule="evenodd"/><path fill="#000000" fill-opacity="0.0" d="m5.8792653 1.8976378l261.25983 0l0 37.354332l-261.25983 0z" fill-rule="evenodd"/><path fill="#194cac" d="m19.17614 15.630136l0 13.187501l-3.203125 0l0 -13.187501l3.203125 0zm8.797913 2.671876q1.796875 0 2.84375 1.1875q1.0625 1.1875 1.0625 3.28125l0 6.046875l-3.203125 0l0 -5.671875q0 -1.046875 -0.546875 -1.625q-0.546875 -0.59375 -1.453125 -0.59375q-0.984375 0 -1.546875 0.625q-0.5625 0.609375 -0.5625 1.75l0 5.515625l-3.203125 0l0 -10.40625l3.203125 0l0 1.90625q0.4375 -0.9375 1.328125 -1.46875q0.890625 -0.546875 2.078125 -0.546875zm11.127258 -1.3125q-0.796875 0 -1.15625 0.34375q-0.34375 0.328125 -0.375 1.078125l1.875 0l0 2.6875l-1.875 0l0 7.71875l-3.1875 0l0 -7.71875l-1.25 0l0 -2.6875l1.25 0l0 -0.109375q0 -1.953125 1.125 -3.000001q1.125 -1.0625 3.265625 -1.0625q0.453125 0 0.671875 0.03125l0 2.734376l-0.34375 -0.015625zm4.943634 3.375q0.59375 -0.953125 1.53125 -1.5q0.9375 -0.5625 2.046875 -0.5625l0 3.40625l-0.921875 0q-1.265625 0 -1.96875 0.546875q-0.6875 0.53125 -0.6875 1.828125l0 4.734375l-3.203125 0l0 -10.40625l3.203125 0l0 1.953125zm8.881088 -2.09375q1.1875 0 2.046875 0.546875q0.859375 0.546875 1.265625 1.46875l0 -1.875l3.171875 0l0 10.40625l-3.171875 0l0 -1.890625q-0.40625 0.9375 -1.265625 1.484375q-0.859375 0.53125 -2.046875 0.53125q-1.296875 0 -2.3125 -0.640625q-1.015625 -0.640625 -1.609375 -1.84375q-0.578125 -1.21875 -0.578125 -2.84375q0 -1.640625 0.578125 -2.84375q0.59375 -1.203125 1.609375 -1.84375q1.015625 -0.65625 2.3125 -0.65625zm1.015625 2.796875q-1.015625 0 -1.640625 0.671875q-0.625 0.671875 -0.625 1.875q0 1.1875 0.625 1.859375q0.625 0.671875 1.640625 0.671875q1.015625 0 1.65625 -0.6875q0.640625 -0.6875 0.640625 -1.84375q0 -1.171875 -0.640625 -1.859375q-0.640625 -0.6875 -1.65625 -0.6875zm11.461441 -2.796875q1.96875 0 3.15625 1.0q1.1875 0.984375 1.484375 2.609375l-2.984375 0q-0.125 -0.640625 -0.59375 -1.0q-0.453125 -0.359375 -1.140625 -0.359375q-0.546875 0 -0.828125 0.234375q-0.265625 0.234375 -0.265625 0.65625q0 0.484375 0.5 0.734375q0.515625 0.234375 1.625 0.484375q1.1875 0.28125 1.953125 0.578125q0.765625 0.28125 1.328125 0.9375q0.5625 0.640625 0.5625 1.75q0 0.890625 -0.484375 1.578125q-0.484375 0.6875 -1.40625 1.078125q-0.90625 0.390625 -2.15625 0.390625q-2.109375 0 -3.390625 -0.921875q-1.265625 -0.9375 -1.546875 -2.671875l3.078125 0q0.078125 0.671875 0.5625 1.03125q0.5 0.34375 1.296875 0.34375q0.53125 0 0.8125 -0.25q0.28125 -0.25 0.28125 -0.65625q0 -0.546875 -0.515625 -0.78125q-0.515625 -0.234375 -1.671875 -0.484375q-1.15625 -0.25 -1.90625 -0.53125q-0.734375 -0.28125 -1.28125 -0.90625q-0.53125 -0.625 -0.53125 -1.703125q0 -1.40625 1.0625 -2.265625q1.0625 -0.875 3.0 -0.875zm12.463593 7.796875l0 2.75l-1.4375 0q-1.828125 0 -2.84375 -0.90625q-1.015625 -0.90625 -1.015625 -3.0l0 -3.8125l-1.40625 0l0 -2.6875l1.40625 0l0 -2.562501l3.1875 0l0 2.562501l2.09375 0l0 2.6875l-2.09375 0l0 3.875q0 0.609375 0.25 0.859375q0.25 0.234375 0.84375 0.234375l1.015625 0zm4.983246 -5.703125q0.59375 -0.953125 1.53125 -1.5q0.9375 -0.5625 2.046875 -0.5625l0 3.40625l-0.921875 0q-1.265625 0 -1.96875 0.546875q-0.6875 0.53125 -0.6875 1.828125l0 4.734375l-3.203125 0l0 -10.40625l3.203125 0l0 1.953125zm15.271713 -1.953125l0 10.40625l-3.203125 0l0 -1.890625q-0.453125 0.921875 -1.34375 1.46875q-0.875 0.53125 -2.0625 0.53125q-1.78125 0 -2.84375 -1.1875q-1.046875 -1.203125 -1.046875 -3.28125l0 -6.046875l3.171875 0l0 5.65625q0 1.0625 0.546875 1.65625q0.546875 0.578125 1.484375 0.578125q0.96875 0 1.53125 -0.609375q0.5625 -0.625 0.5625 -1.765625l0 -5.515625l3.203125 0zm6.899414 -0.140625q2.015625 0 3.375 1.109375q1.375 1.109375 1.71875 3.0625l-3.375 0q-0.140625 -0.671875 -0.609375 -1.046875q-0.46875 -0.375 -1.171875 -0.375q-0.84375 0 -1.390625 0.671875q-0.53125 0.65625 -0.53125 1.921875q0 1.265625 0.53125 1.9375q0.546875 0.65625 1.390625 0.65625q0.703125 0 1.171875 -0.375q0.46875 -0.375 0.609375 -1.046875l3.375 0q-0.34375 1.9375 -1.71875 3.046875q-1.359375 1.109375 -3.375 1.109375q-1.53125 0 -2.71875 -0.640625q-1.171875 -0.640625 -1.84375 -1.84375q-0.671875 -1.21875 -0.671875 -2.84375q0 -1.640625 0.65625 -2.84375q0.671875 -1.203125 1.859375 -1.84375q1.1875 -0.65625 2.71875 -0.65625zm12.658066 7.796875l0 2.75l-1.4375 0q-1.828125 0 -2.84375 -0.90625q-1.015625 -0.90625 -1.015625 -3.0l0 -3.8125l-1.40625 0l0 -2.6875l1.40625 0l0 -2.562501l3.1875 0l0 2.562501l2.09375 0l0 2.6875l-2.09375 0l0 3.875q0 0.609375 0.25 0.859375q0.25 0.234375 0.84375 0.234375l1.015625 0zm12.1395035 -7.65625l0 10.40625l-3.2031326 0l0 -1.890625q-0.453125 0.921875 -1.34375 1.46875q-0.875 0.53125 -2.0625 0.53125q-1.78125 0 -2.84375 -1.1875q-1.046875 -1.203125 -1.046875 -3.28125l0 -6.046875l3.171875 0l0 5.65625q0 1.0625 0.546875 1.65625q0.546875 0.578125 1.484375 0.578125q0.96875 0 1.53125 -0.609375q0.5625 -0.625 0.5625 -1.765625l0 -5.515625l3.2031326 0zm5.399414 1.953125q0.59375 -0.953125 1.53125 -1.5q0.9375 -0.5625 2.046875 -0.5625l0 3.40625l-0.921875 0q-1.265625 0 -1.96875 0.546875q-0.6875 0.53125 -0.6875 1.828125l0 4.734375l-3.203125 0l0 -10.40625l3.203125 0l0 1.953125zm14.802963 2.96875q0 0.390625 -0.09375 0.859375l-7.21875 0q0.0625 1.171875 0.59375 1.6875q0.546875 0.515625 1.390625 0.515625q0.703125 0 1.171875 -0.359375q0.46875 -0.359375 0.609375 -0.90625l3.390625 0q-0.21875 1.09375 -0.90625 1.96875q-0.6875 0.859375 -1.75 1.359375q-1.0625 0.484375 -2.375 0.484375q-1.53125 0 -2.71875 -0.640625q-1.171875 -0.640625 -1.84375 -1.84375q-0.671875 -1.21875 -0.671875 -2.84375q0 -1.640625 0.65625 -2.84375q0.671875 -1.203125 1.859375 -1.84375q1.1875 -0.65625 2.71875 -0.65625q1.546875 0 2.71875 0.640625q1.1875 0.640625 1.828125 1.78125q0.640625 1.140625 0.640625 2.640625zm-3.21875 -0.484375q0.015625 -1.03125 -0.5625 -1.53125q-0.5625 -0.515625 -1.40625 -0.515625q-0.875 0 -1.453125 0.515625q-0.578125 0.515625 -0.65625 1.53125l4.078125 0zm15.10759 -4.578125q1.28125 0 2.296875 0.65625q1.015625 0.640625 1.609375 1.84375q0.59375 1.203125 0.59375 2.84375q0 1.625 -0.59375 2.84375q-0.59375 1.203125 -1.609375 1.84375q-1.015625 0.640625 -2.296875 0.640625q-1.1875 0 -2.046875 -0.53125q-0.859375 -0.546875 -1.25 -1.484375l0 6.859373l-3.203125 0l0 -15.374998l3.203125 0l0 1.875q0.390625 -0.921875 1.25 -1.46875q0.859375 -0.546875 2.046875 -0.546875zm-1.03125 2.796875q-1.0 0 -1.65625 0.6875q-0.640625 0.6875 -0.640625 1.859375q0 1.15625 0.640625 1.84375q0.65625 0.6875 1.65625 0.6875q1.03125 0 1.65625 -0.671875q0.625 -0.671875 0.625 -1.859375q0 -1.203125 -0.625 -1.875q-0.625 -0.671875 -1.65625 -0.671875zm6.883316 -5.593751q0 -0.71875 0.515625 -1.1875q0.53125 -0.484375 1.390625 -0.484375q0.859375 0 1.375 0.484375q0.53125 0.46875 0.53125 1.1875q0 0.71875095 -0.53125 1.203126q-0.515625 0.46875 -1.375 0.46875q-0.859375 0 -1.390625 -0.46875q-0.515625 -0.484375 -0.515625 -1.203126zm3.5 2.937501l0 10.40625l-3.203125 0l0 -10.40625l3.203125 0zm8.688538 -0.140625q1.28125 0 2.296875 0.65625q1.015625 0.640625 1.609375 1.84375q0.59375 1.203125 0.59375 2.84375q0 1.625 -0.59375 2.84375q-0.59375 1.203125 -1.609375 1.84375q-1.015625 0.640625 -2.296875 0.640625q-1.1875 0 -2.046875 -0.53125q-0.859375 -0.546875 -1.25 -1.484375l0 6.859373l-3.203125 0l0 -15.374998l3.203125 0l0 1.875q0.390625 -0.921875 1.25 -1.46875q0.859375 -0.546875 2.046875 -0.546875zm-1.03125 2.796875q-1.0 0 -1.65625 0.6875q-0.640625 0.6875 -0.640625 1.859375q0 1.15625 0.640625 1.84375q0.65625 0.6875 1.65625 0.6875q1.03125 0 1.65625 -0.671875q0.625 -0.671875 0.625 -1.859375q0 -1.203125 -0.625 -1.875q-0.625 -0.671875 -1.65625 -0.671875zm17.070816 2.265625q0 0.390625 -0.09375 0.859375l-7.21875 0q0.0625 1.171875 0.59375 1.6875q0.546875 0.515625 1.390625 0.515625q0.703125 0 1.171875 -0.359375q0.46875 -0.359375 0.609375 -0.90625l3.390625 0q-0.21875 1.09375 -0.90625 1.96875q-0.6875 0.859375 -1.75 1.359375q-1.0625 0.484375 -2.375 0.484375q-1.53125 0 -2.71875 -0.640625q-1.171875 -0.640625 -1.84375 -1.84375q-0.671875 -1.21875 -0.671875 -2.84375q0 -1.640625 0.65625 -2.84375q0.671875 -1.203125 1.859375 -1.84375q1.1875 -0.65625 2.71875 -0.65625q1.546875 0 2.71875 0.640625q1.1875 0.640625 1.828125 1.78125q0.640625 1.140625 0.640625 2.640625zm-3.21875 -0.484375q0.015625 -1.03125 -0.5625 -1.53125q-0.5625 -0.515625 -1.40625 -0.515625q-0.875 0 -1.453125 0.515625q-0.578125 0.515625 -0.65625 1.53125l4.078125 0zm8.079468 -7.843751l0 13.812501l-3.203125 0l0 -13.812501l3.203125 0zm1.8916626 0.46875q0 -0.71875 0.515625 -1.1875q0.53125 -0.484375 1.390625 -0.484375q0.859375 0 1.375 0.484375q0.53125 0.46875 0.53125 1.1875q0 0.71875095 -0.53125 1.203126q-0.515625 0.46875 -1.375 0.46875q-0.859375 0 -1.390625 -0.46875q-0.515625 -0.484375 -0.515625 -1.203126zm3.5 2.937501l0 10.40625l-3.203125 0l0 -10.40625l3.203125 0zm8.797913 -0.109375q1.796875 0 2.84375 1.1875q1.0625 1.1875 1.0625 3.28125l0 6.046875l-3.203125 0l0 -5.671875q0 -1.046875 -0.546875 -1.625q-0.546875 -0.59375 -1.453125 -0.59375q-0.984375 0 -1.546875 0.625q-0.5625 0.609375 -0.5625 1.75l0 5.515625l-3.203125 0l0 -10.40625l3.203125 0l0 1.90625q0.4375 -0.9375 1.328125 -1.46875q0.890625 -0.546875 2.078125 -0.546875zm15.892883 5.03125q0 0.390625 -0.09375 0.859375l-7.21875 0q0.0625 1.171875 0.59375 1.6875q0.546875 0.515625 1.390625 0.515625q0.703125 0 1.171875 -0.359375q0.46875 -0.359375 0.609375 -0.90625l3.390625 0q-0.21875 1.09375 -0.90625 1.96875q-0.6875 0.859375 -1.75 1.359375q-1.0625 0.484375 -2.375 0.484375q-1.53125 0 -2.71875 -0.640625q-1.171875 -0.640625 -1.84375 -1.84375q-0.671875 -1.21875 -0.671875 -2.84375q0 -1.640625 0.65625 -2.84375q0.671875 -1.203125 1.859375 -1.84375q1.1875 -0.65625 2.71875 -0.65625q1.546875 0 2.71875 0.640625q1.1875 0.640625 1.828125 1.78125q0.640625 1.140625 0.640625 2.640625zm-3.21875 -0.484375q0.015625 -1.03125 -0.5625 -1.53125q-0.5625 -0.515625 -1.40625 -0.515625q-0.875 0 -1.453125 0.515625q-0.578125 0.515625 -0.65625 1.53125l4.078125 0z" fill-rule="nonzero"/></g></svg>