<svg version="1.1" viewBox="0.0 0.0 910.0551181102362 374.0787401574803" fill="none" stroke="none" stroke-linecap="square" stroke-miterlimit="10" xmlns:xlink="http://www.w3.org/1999/xlink" xmlns="http://www.w3.org/2000/svg"><clipPath id="p.0"><path d="m0 0l910.0551 0l0 374.07874l-910.0551 0l0 -374.07874z" clip-rule="nonzero"/></clipPath><g clip-path="url(#p.0)"><path fill="#000000" fill-opacity="0.0" d="m0 0l910.0551 0l0 374.07874l-910.0551 0z" fill-rule="evenodd"/><path fill="#fb7a9c" d="m389.52887 166.25197l202.96063 0l0 42.614166l-202.96063 0z" fill-rule="evenodd"/><path fill="#ffffff" d="m454.0407 194.47905l0 -7.578125l-1.484375 0l0 -1.15625l1.484375 0l0 -2.890625l1.265625 0l0 2.890625l2.015625 0l0 1.15625l-2.015625 0l0 7.578125l-1.265625 0zm5.3492126 0l0 -8.734375l1.28125 0l0 8.734375l-1.28125 0zm0.640625 -10.421875q-0.4375 0 -0.734375 -0.296875q-0.28125 -0.3125 -0.28125 -0.734375q0 -0.40625 0.28125 -0.6875q0.296875 -0.296875 0.734375 -0.296875q0.40625 0 0.703125 0.296875q0.296875 0.28125 0.296875 0.703125q0 0.40625 -0.296875 0.71875q-0.296875 0.296875 -0.703125 0.296875zm4.140503 10.421875l0 -7.578125l-1.484375 0l0 -1.15625l1.484375 0l0 -2.890625l1.265625 0l0 2.890625l2.015625 0l0 1.15625l-2.015625 0l0 7.578125l-1.265625 0zm12.333588 -8.734375l0 8.734375l-1.265625 0l0 -1.453125q-0.453125 0.84375 -1.1875 1.296875q-0.734375 0.453125 -1.703125 0.453125q-0.921875 0 -1.703125 -0.375q-0.765625 -0.375 -1.21875 -1.09375q-0.453125 -0.734375 -0.453125 -1.71875l0 -5.84375l1.265625 0l0 5.28125q0 2.59375 2.3125 2.59375q1.34375 0 2.015625 -0.953125q0.671875 -0.953125 0.671875 -2.546875l0 -4.375l1.265625 0zm5.424652 9.03125q-1.265625 0 -2.234375 -0.53125q-0.953125 -0.546875 -1.453125 -1.53125l1.140625 -0.5625q0.6875 1.46875 2.703125 1.46875q0.96875 0 1.59375 -0.34375q0.640625 -0.359375 0.640625 -1.109375q0 -0.765625 -0.515625 -1.140625q-0.515625 -0.375 -1.796875 -0.484375q-1.796875 -0.140625 -2.578125 -0.796875q-0.765625 -0.65625 -0.765625 -1.734375q0 -1.21875 0.875 -1.890625q0.890625 -0.671875 2.40625 -0.671875q2.59375 0 3.53125 2.046875l-1.140625 0.5625q-0.3125 -0.734375 -0.921875 -1.09375q-0.609375 -0.359375 -1.5625 -0.359375q-0.96875 0 -1.484375 0.359375q-0.5 0.359375 -0.5 1.0q0 0.625 0.546875 1.015625q0.546875 0.375 1.890625 0.484375q1.65625 0.140625 2.46875 0.8125q0.8125 0.65625 0.8125 1.734375q0 0.890625 -0.5 1.515625q-0.5 0.625 -1.34375 0.9375q-0.84375 0.3125 -1.8125 0.3125zm5.4690247 -4.359375l0 -1.046875l4.234375 0l0 1.046875l-4.234375 0zm7.139984 4.0625l0 -8.734375l1.28125 0l0 8.734375l-1.28125 0zm0.640625 -10.421875q-0.4375 0 -0.734375 -0.296875q-0.28125 -0.3125 -0.28125 -0.734375q0 -0.40625 0.28125 -0.6875q0.296875 -0.296875 0.734375 -0.296875q0.40625 0 0.703125 0.296875q0.296875 0.28125 0.296875 0.703125q0 0.40625 -0.296875 0.71875q-0.296875 0.296875 -0.703125 0.296875zm7.828003 1.390625q0.921875 0 1.6875 0.375q0.78125 0.375 1.234375 1.109375q0.46875 0.71875 0.46875 1.703125l0 5.84375l-1.28125 0l0 -5.28125q0 -2.59375 -2.3125 -2.59375q-1.34375 0 -2.015625 0.953125q-0.671875 0.953125 -0.671875 2.5625l0 4.359375l-1.265625 0l0 -8.734375l1.265625 0l0 1.453125q0.453125 -0.828125 1.1875 -1.28125q0.734375 -0.46875 1.703125 -0.46875zm9.096527 -3.671875q-0.65625 0 -1.078125 0.453125q-0.421875 0.4375 -0.421875 1.15625l0 2.359375l2.015625 0l0 1.15625l-2.015625 0l0 7.578125l-1.265625 0l0 -7.578125l-1.125 0l0 -1.15625l1.125 0l0 -2.359375q0 -1.21875 0.765625 -1.984375q0.78125 -0.78125 2.0 -0.78125l0.515625 0l0 1.15625l-0.515625 0zm6.192993 3.671875q0.4375 0 0.859375 0.125l0 1.15625q-0.390625 -0.171875 -0.859375 -0.171875q-0.796875 0 -1.5 0.453125q-0.6875 0.4375 -1.109375 1.296875q-0.421875 0.84375 -0.421875 2.0l0 4.171875l-1.265625 0l0 -8.734375l1.265625 0l0 1.75q0.515625 -0.96875 1.28125 -1.5q0.78125 -0.546875 1.75 -0.546875zm10.152588 0.296875l0 8.734375l-1.28125 0l0 -1.28125q-0.53125 0.734375 -1.328125 1.15625q-0.78125 0.421875 -1.703125 0.421875q-1.25 0 -2.25 -0.59375q-0.984375 -0.59375 -1.546875 -1.65625q-0.546875 -1.0625 -0.546875 -2.4375q0 -1.34375 0.546875 -2.390625q0.546875 -1.046875 1.515625 -1.640625q0.984375 -0.609375 2.234375 -0.609375q0.953125 0 1.75 0.421875q0.796875 0.421875 1.328125 1.1875l0 -1.3125l1.28125 0zm-4.359375 7.875q0.90625 0 1.59375 -0.4375q0.703125 -0.453125 1.09375 -1.25q0.390625 -0.8125 0.390625 -1.8125q0 -1.015625 -0.390625 -1.8125q-0.390625 -0.8125 -1.09375 -1.25q-0.6875 -0.453125 -1.59375 -0.453125q-0.875 0 -1.5625 0.453125q-0.6875 0.4375 -1.078125 1.234375q-0.390625 0.796875 -0.390625 1.796875q0 1.03125 0.390625 1.84375q0.390625 0.796875 1.078125 1.25q0.6875 0.4375 1.5625 0.4375z" fill-rule="nonzero"/><path fill="#fb7a9c" d="m389.52887 227.13911l202.96063 0l0 42.61418l-202.96063 0z" fill-rule="evenodd"/><path fill="#ffffff" d="m446.1118 255.3662l0 -7.578125l-1.484375 0l0 -1.15625l1.484375 0l0 -2.890625l1.265625 0l0 2.890625l2.015625 0l0 1.15625l-2.015625 0l0 7.578125l-1.265625 0zm5.3492126 0l0 -8.734375l1.28125 0l0 8.734375l-1.28125 0zm0.640625 -10.421875q-0.4375 0 -0.734375 -0.296875q-0.28125 -0.3125 -0.28125 -0.734375q0 -0.40625 0.28125 -0.6875q0.296875 -0.296875 0.734375 -0.296875q0.40625 0 0.703125 0.296875q0.296875 0.28125 0.296875 0.703125q0 0.40625 -0.296875 0.71875q-0.296875 0.296875 -0.703125 0.296875zm4.140503 10.421875l0 -7.578125l-1.484375 0l0 -1.15625l1.484375 0l0 -2.890625l1.265625 0l0 2.890625l2.015625 0l0 1.15625l-2.015625 0l0 7.578125l-1.265625 0zm12.333588 -8.734375l0 8.734375l-1.265625 0l0 -1.453125q-0.453125 0.84375 -1.1875 1.296875q-0.734375 0.453125 -1.703125 0.453125q-0.921875 0 -1.703125 -0.375q-0.765625 -0.375 -1.21875 -1.09375q-0.453125 -0.734375 -0.453125 -1.71875l0 -5.84375l1.265625 0l0 5.28125q0 2.59375 2.3125 2.59375q1.34375 0 2.015625 -0.953125q0.671875 -0.953125 0.671875 -2.546875l0 -4.375l1.265625 0zm5.424652 9.03125q-1.265625 0 -2.234375 -0.53125q-0.953125 -0.546875 -1.453125 -1.53125l1.140625 -0.5625q0.6875 1.46875 2.703125 1.46875q0.96875 0 1.59375 -0.34375q0.640625 -0.359375 0.640625 -1.109375q0 -0.765625 -0.515625 -1.140625q-0.515625 -0.375 -1.796875 -0.484375q-1.796875 -0.140625 -2.578125 -0.796875q-0.765625 -0.65625 -0.765625 -1.734375q0 -1.21875 0.875 -1.890625q0.890625 -0.671875 2.40625 -0.671875q2.59375 0 3.53125 2.046875l-1.140625 0.5625q-0.3125 -0.734375 -0.921875 -1.09375q-0.609375 -0.359375 -1.5625 -0.359375q-0.96875 0 -1.484375 0.359375q-0.5 0.359375 -0.5 1.0q0 0.625 0.546875 1.015625q0.546875 0.375 1.890625 0.484375q1.65625 0.140625 2.46875 0.8125q0.8125 0.65625 0.8125 1.734375q0 0.890625 -0.5 1.515625q-0.5 0.625 -1.34375 0.9375q-0.84375 0.3125 -1.8125 0.3125zm5.4690247 -4.359375l0 -1.046875l4.234375 0l0 1.046875l-4.234375 0zm14.577484 -9.484375l0 13.546875l-1.28125 0l0 -1.28125q-0.53125 0.734375 -1.328125 1.15625q-0.78125 0.421875 -1.703125 0.421875q-1.25 0 -2.25 -0.59375q-0.984375 -0.59375 -1.546875 -1.65625q-0.546875 -1.0625 -0.546875 -2.4375q0 -1.34375 0.546875 -2.390625q0.546875 -1.046875 1.515625 -1.640625q0.984375 -0.609375 2.234375 -0.609375q0.953125 0 1.75 0.421875q0.796875 0.421875 1.328125 1.1875l0 -6.125l1.28125 0zm-4.359375 12.6875q0.90625 0 1.59375 -0.4375q0.703125 -0.453125 1.09375 -1.25q0.390625 -0.8125 0.390625 -1.8125q0 -1.015625 -0.390625 -1.8125q-0.390625 -0.8125 -1.09375 -1.25q-0.6875 -0.453125 -1.59375 -0.453125q-0.875 0 -1.5625 0.453125q-0.6875 0.4375 -1.078125 1.234375q-0.390625 0.796875 -0.390625 1.796875q0 1.03125 0.390625 1.84375q0.390625 0.796875 1.078125 1.25q0.6875 0.4375 1.5625 0.4375zm10.466156 -8.171875q1.1875 0 2.125 0.578125q0.953125 0.578125 1.5 1.578125q0.546875 1.0 0.546875 2.234375q0 0.34375 -0.03125 0.53125l-7.171875 0q0.078125 1.34375 0.875 2.296875q0.796875 0.953125 2.1875 0.953125q1.109375 0 1.84375 -0.421875q0.75 -0.421875 1.1875 -1.15625l1.015625 0.671875q-0.625 0.96875 -1.640625 1.515625q-1.0 0.546875 -2.375 0.546875q-1.265625 0 -2.265625 -0.59375q-0.984375 -0.59375 -1.546875 -1.65625q-0.546875 -1.0625 -0.546875 -2.40625q0 -1.34375 0.546875 -2.40625q0.546875 -1.0625 1.515625 -1.65625q0.984375 -0.609375 2.234375 -0.609375zm2.890625 3.875q-0.171875 -1.359375 -0.90625 -2.03125q-0.734375 -0.6875 -1.984375 -0.6875q-1.203125 0 -1.984375 0.78125q-0.765625 0.765625 -0.96875 1.9375l5.84375 0zm7.4664307 -3.875q1.25 0 2.2343445 0.609375q1.0 0.59375 1.546875 1.65625q0.5625 1.0625 0.5625 2.421875q0 1.34375 -0.546875 2.40625q-0.546875 1.046875 -1.53125 1.640625q-0.9687195 0.59375 -2.2187195 0.59375q-0.953125 0 -1.75 -0.421875q-0.796875 -0.421875 -1.328125 -1.1875l0 5.0468597l-1.28125 0l0 -12.468735l1.28125 0l0 1.296875q0.53125 -0.75 1.3125 -1.171875q0.796875 -0.421875 1.71875 -0.421875zm0.046875 8.171875q0.875 0 1.5624695 -0.4375q0.6875 -0.453125 1.078125 -1.25q0.390625 -0.796875 0.390625 -1.796875q0 -1.03125 -0.390625 -1.828125q-0.390625 -0.8125 -1.078125 -1.25q-0.6874695 -0.453125 -1.5624695 -0.453125q-0.90625 0 -1.609375 0.453125q-0.6875 0.4375 -1.078125 1.25q-0.390625 0.796875 -0.390625 1.8125q0 1.0 0.390625 1.8125q0.390625 0.796875 1.078125 1.25q0.703125 0.4375 1.609375 0.4375zm6.184906 0.859375l0 -13.546875l1.265625 0l0 13.546875l-1.265625 0zm7.5059814 0.296875q-1.25 0 -2.25 -0.59375q-0.984375 -0.59375 -1.546875 -1.671875q-0.546875 -1.078125 -0.546875 -2.421875q0 -1.34375 0.546875 -2.390625q0.546875 -1.046875 1.515625 -1.640625q0.984375 -0.609375 2.234375 -0.609375q1.25 0 2.234375 0.609375q1.0 0.59375 1.5625 1.65625q0.5625 1.0625 0.5625 2.40625q0 1.34375 -0.5625 2.40625q-0.546875 1.0625 -1.53125 1.65625q-0.96875 0.59375 -2.21875 0.59375zm-0.046875 -1.15625q0.90625 0 1.59375 -0.4375q0.703125 -0.453125 1.09375 -1.25q0.390625 -0.8125 0.390625 -1.8125q0 -1.015625 -0.390625 -1.8125q-0.390625 -0.8125 -1.09375 -1.25q-0.6875 -0.453125 -1.59375 -0.453125q-0.875 0 -1.5625 0.453125q-0.6875 0.4375 -1.078125 1.234375q-0.390625 0.796875 -0.390625 1.796875q0 1.03125 0.390625 1.84375q0.390625 0.796875 1.078125 1.25q0.6875 0.4375 1.5625 0.4375zm12.156433 -7.875l1.1875 0l-4.71875 12.468735l-1.265625 0l1.375 -3.5624847l-3.578125 -8.90625l1.328125 0l2.890625 7.234375l2.78125 -7.234375z" fill-rule="nonzero"/><path fill="#f6bab8" d="m116.31233 92.178474l202.96065 0l0 42.614174l-202.96065 0z" fill-rule="evenodd"/><path fill="#ffffff" d="m202.46542 120.40556l0 -7.578125l-1.484375 0l0 -1.15625l1.484375 0l0 -2.890625l1.265625 0l0 2.890625l2.015625 0l0 1.15625l-2.015625 0l0 7.578125l-1.265625 0zm5.3492126 0l0 -8.734375l1.28125 0l0 8.734375l-1.28125 0zm0.640625 -10.421875q-0.4375 0 -0.734375 -0.296875q-0.28125 -0.3125 -0.28125 -0.734375q0 -0.40625 0.28125 -0.6875q0.296875 -0.296875 0.734375 -0.296875q0.40625 0 0.703125 0.296875q0.296875 0.28125 0.296875 0.703125q0 0.40625 -0.296875 0.71875q-0.296875 0.296875 -0.703125 0.296875zm4.140503 10.421875l0 -7.578125l-1.484375 0l0 -1.15625l1.484375 0l0 -2.890625l1.265625 0l0 2.890625l2.015625 0l0 1.15625l-2.015625 0l0 7.578125l-1.265625 0zm12.333588 -8.734375l0 8.734375l-1.265625 0l0 -1.453125q-0.453125 0.84375 -1.1875 1.296875q-0.734375 0.453125 -1.703125 0.453125q-0.921875 0 -1.703125 -0.375q-0.765625 -0.375 -1.21875 -1.09375q-0.453125 -0.734375 -0.453125 -1.71875l0 -5.84375l1.265625 0l0 5.28125q0 2.59375 2.3125 2.59375q1.34375 0 2.015625 -0.953125q0.671875 -0.953125 0.671875 -2.546875l0 -4.375l1.265625 0zm5.424652 9.03125q-1.265625 0 -2.234375 -0.53125q-0.953125 -0.546875 -1.453125 -1.53125l1.140625 -0.5625q0.6875 1.46875 2.703125 1.46875q0.96875 0 1.59375 -0.34375q0.640625 -0.359375 0.640625 -1.109375q0 -0.765625 -0.515625 -1.140625q-0.515625 -0.375 -1.796875 -0.484375q-1.796875 -0.140625 -2.578125 -0.796875q-0.765625 -0.65625 -0.765625 -1.734375q0 -1.21875 0.875 -1.890625q0.890625 -0.671875 2.40625 -0.671875q2.59375 0 3.53125 2.046875l-1.140625 0.5625q-0.3125 -0.734375 -0.921875 -1.09375q-0.609375 -0.359375 -1.5625 -0.359375q-0.96875 0 -1.484375 0.359375q-0.5 0.359375 -0.5 1.0q0 0.625 0.546875 1.015625q0.546875 0.375 1.890625 0.484375q1.65625 0.140625 2.46875 0.8125q0.8125 0.65625 0.8125 1.734375q0 0.890625 -0.5 1.515625q-0.5 0.625 -1.34375 0.9375q-0.84375 0.3125 -1.8125 0.3125z" fill-rule="nonzero"/><path fill="#fb7a9c" d="m116.31102 165.74803l202.96065 0l0 42.614166l-202.96065 0z" fill-rule="evenodd"/><path fill="#ffffff" d="m201.43156 184.94386q0.921875 0 1.6875 0.375q0.78125 0.375 1.234375 1.109375q0.46875 0.71875 0.46875 1.703125l0 5.84375l-1.28125 0l0 -5.28125q0 -2.59375 -2.3125 -2.59375q-1.34375 0 -2.015625 0.953125q-0.671875 0.953125 -0.671875 2.5625l0 4.359375l-1.265625 0l0 -8.734375l1.265625 0l0 1.453125q0.453125 -0.828125 1.1875 -1.28125q0.734375 -0.46875 1.703125 -0.46875zm9.674652 9.328125q-1.25 0 -2.25 -0.59375q-0.984375 -0.59375 -1.546875 -1.671875q-0.546875 -1.078125 -0.546875 -2.421875q0 -1.34375 0.546875 -2.390625q0.546875 -1.046875 1.515625 -1.640625q0.984375 -0.609375 2.234375 -0.609375q1.25 0 2.234375 0.609375q1.0 0.59375 1.5625 1.65625q0.5625 1.0625 0.5625 2.40625q0 1.34375 -0.5625 2.40625q-0.546875 1.0625 -1.53125 1.65625q-0.96875 0.59375 -2.21875 0.59375zm-0.046875 -1.15625q0.90625 0 1.59375 -0.4375q0.703125 -0.453125 1.09375 -1.25q0.390625 -0.8125 0.390625 -1.8125q0 -1.015625 -0.390625 -1.8125q-0.390625 -0.8125 -1.09375 -1.25q-0.6875 -0.453125 -1.59375 -0.453125q-0.875 0 -1.5625 0.453125q-0.6875 0.4375 -1.078125 1.234375q-0.390625 0.796875 -0.390625 1.796875q0 1.03125 0.390625 1.84375q0.390625 0.796875 1.078125 1.25q0.6875 0.4375 1.5625 0.4375zm6.8283386 0.859375l0 -8.734375l1.28125 0l0 8.734375l-1.28125 0zm0.640625 -10.421875q-0.4375 0 -0.734375 -0.296875q-0.28125 -0.3125 -0.28125 -0.734375q0 -0.40625 0.28125 -0.6875q0.296875 -0.296875 0.734375 -0.296875q0.40625 0 0.703125 0.296875q0.296875 0.28125 0.296875 0.703125q0 0.40625 -0.296875 0.71875q-0.296875 0.296875 -0.703125 0.296875zm6.749878 10.71875q-1.265625 0 -2.234375 -0.53125q-0.953125 -0.546875 -1.453125 -1.53125l1.140625 -0.5625q0.6875 1.46875 2.703125 1.46875q0.96875 0 1.59375 -0.34375q0.640625 -0.359375 0.640625 -1.109375q0 -0.765625 -0.515625 -1.140625q-0.515625 -0.375 -1.796875 -0.484375q-1.796875 -0.140625 -2.578125 -0.796875q-0.765625 -0.65625 -0.765625 -1.734375q0 -1.21875 0.875 -1.890625q0.890625 -0.671875 2.40625 -0.671875q2.59375 0 3.53125 2.046875l-1.140625 0.5625q-0.3125 -0.734375 -0.921875 -1.09375q-0.609375 -0.359375 -1.5625 -0.359375q-0.96875 0 -1.484375 0.359375q-0.5 0.359375 -0.5 1.0q0 0.625 0.546875 1.015625q0.546875 0.375 1.890625 0.484375q1.65625 0.140625 2.46875 0.8125q0.8125 0.65625 0.8125 1.734375q0 0.890625 -0.5 1.515625q-0.5 0.625 -1.34375 0.9375q-0.84375 0.3125 -1.8125 0.3125zm9.344009 -9.328125q1.1875 0 2.125 0.578125q0.953125 0.578125 1.5 1.578125q0.546875 1.0 0.546875 2.234375q0 0.34375 -0.03125 0.53125l-7.171875 0q0.078125 1.34375 0.875 2.296875q0.796875 0.953125 2.1875 0.953125q1.109375 0 1.84375 -0.421875q0.75 -0.421875 1.1875 -1.15625l1.015625 0.671875q-0.625 0.96875 -1.640625 1.515625q-1.0 0.546875 -2.375 0.546875q-1.265625 0 -2.265625 -0.59375q-0.984375 -0.59375 -1.546875 -1.65625q-0.546875 -1.0625 -0.546875 -2.40625q0 -1.34375 0.546875 -2.40625q0.546875 -1.0625 1.515625 -1.65625q0.984375 -0.609375 2.234375 -0.609375zm2.890625 3.875q-0.171875 -1.359375 -0.90625 -2.03125q-0.734375 -0.6875 -1.984375 -0.6875q-1.203125 0 -1.984375 0.78125q-0.765625 0.765625 -0.96875 1.9375l5.84375 0z" fill-rule="nonzero"/><path fill="#fb7a9c" d="m116.31102 227.13911l202.96065 0l0 42.61418l-202.96065 0z" fill-rule="evenodd"/><path fill="#ffffff" d="m193.32056 255.66307q-1.609375 0 -2.78125 -0.78125q-1.15625 -0.796875 -1.78125 -2.28125q-0.625 -1.484375 -0.625 -3.5625q0 -2.078125 0.59375 -3.578125q0.609375 -1.515625 1.734375 -2.296875q1.140625 -0.796875 2.6875 -0.796875q1.578125 0 2.703125 0.703125q1.140625 0.6875 1.765625 1.96875l-1.109375 0.640625q-0.59375 -1.09375 -1.40625 -1.5625q-0.796875 -0.484375 -1.953125 -0.484375q-1.65625 0 -2.609375 1.4375q-0.9375 1.421875 -0.9375 3.953125q0 1.65625 0.421875 2.875q0.4375 1.21875 1.234375 1.859375q0.8125 0.640625 1.875 0.640625q1.3125 0 2.046875 -0.578125q0.75 -0.59375 1.375 -1.84375l1.1875 0.703125q-0.671875 1.453125 -1.78125 2.21875q-1.109375 0.765625 -2.640625 0.765625zm6.927658 -0.296875l0 -8.734375l1.28125 0l0 8.734375l-1.28125 0zm0.640625 -10.421875q-0.4375 0 -0.734375 -0.296875q-0.28125 -0.3125 -0.28125 -0.734375q0 -0.40625 0.28125 -0.6875q0.296875 -0.296875 0.734375 -0.296875q0.40625 0 0.703125 0.296875q0.296875 0.28125 0.296875 0.703125q0 0.40625 -0.296875 0.71875q-0.296875 0.296875 -0.703125 0.296875zm7.968628 1.390625q0.4375 0 0.859375 0.125l0 1.15625q-0.390625 -0.171875 -0.859375 -0.171875q-0.796875 0 -1.5 0.453125q-0.6875 0.4375 -1.109375 1.296875q-0.421875 0.84375 -0.421875 2.0l0 4.171875l-1.265625 0l0 -8.734375l1.265625 0l0 1.75q0.515625 -0.96875 1.28125 -1.5q0.78125 -0.546875 1.75 -0.546875zm5.824463 9.328125q-1.28125 0 -2.265625 -0.59375q-0.984375 -0.59375 -1.546875 -1.65625q-0.5625 -1.0625 -0.5625 -2.40625q0 -1.34375 0.546875 -2.40625q0.5625 -1.0625 1.546875 -1.65625q0.984375 -0.609375 2.234375 -0.609375q1.0625 0 1.859375 0.46875q0.796875 0.453125 1.453125 1.28125l-0.9375 0.734375q-0.921875 -1.328125 -2.375 -1.328125q-0.875 0 -1.578125 0.453125q-0.6875 0.4375 -1.09375 1.25q-0.390625 0.796875 -0.390625 1.8125q0 1.0 0.390625 1.8125q0.40625 0.796875 1.09375 1.25q0.703125 0.4375 1.578125 0.4375q0.90625 0 1.484375 -0.296875q0.578125 -0.3125 1.03125 -0.921875l1.0 0.703125q-0.625 0.765625 -1.53125 1.21875q-0.90625 0.453125 -1.9375 0.453125zm5.1959076 -0.296875l0 -13.546875l1.265625 0l0 13.546875l-1.265625 0zm7.459091 -9.03125q1.1875 0 2.125 0.578125q0.953125 0.578125 1.5 1.578125q0.546875 1.0 0.546875 2.234375q0 0.34375 -0.03125 0.53125l-7.171875 0q0.078125 1.34375 0.875 2.296875q0.796875 0.953125 2.1875 0.953125q1.109375 0 1.84375 -0.421875q0.75 -0.421875 1.1875 -1.15625l1.015625 0.671875q-0.625 0.96875 -1.640625 1.515625q-1.0 0.546875 -2.375 0.546875q-1.265625 0 -2.265625 -0.59375q-0.984375 -0.59375 -1.546875 -1.65625q-0.546875 -1.0625 -0.546875 -2.40625q0 -1.34375 0.546875 -2.40625q0.546875 -1.0625 1.515625 -1.65625q0.984375 -0.609375 2.234375 -0.609375zm2.890625 3.875q-0.171875 -1.359375 -0.90625 -2.03125q-0.734375 -0.6875 -1.984375 -0.6875q-1.203125 0 -1.984375 0.78125q-0.765625 0.765625 -0.96875 1.9375l5.84375 0zm8.185165 5.453125q-1.609375 0 -2.78125 -0.78125q-1.15625 -0.796875 -1.78125 -2.28125q-0.625 -1.484375 -0.625 -3.5625q0 -2.078125 0.59375 -3.578125q0.609375 -1.515625 1.734375 -2.296875q1.140625 -0.796875 2.6875 -0.796875q1.578125 0 2.703125 0.703125q1.140625 0.6875 1.765625 1.96875l-1.109375 0.640625q-0.59375 -1.09375 -1.40625 -1.5625q-0.796875 -0.484375 -1.953125 -0.484375q-1.65625 0 -2.609375 1.4375q-0.9375 1.421875 -0.9375 3.953125q0 1.65625 0.421875 2.875q0.4375 1.21875 1.234375 1.859375q0.8125 0.640625 1.875 0.640625q1.3125 0 2.046875 -0.578125q0.75 -0.59375 1.375 -1.84375l1.1875 0.703125q-0.671875 1.453125 -1.78125 2.21875q-1.109375 0.765625 -2.640625 0.765625zm6.927658 -0.296875l0 -8.734375l1.28125 0l0 8.734375l-1.28125 0zm0.640625 -10.421875q-0.4375 0 -0.734375 -0.296875q-0.28125 -0.3125 -0.28125 -0.734375q0 -0.40625 0.28125 -0.6875q0.296875 -0.296875 0.734375 -0.296875q0.40625 0 0.703125 0.296875q0.296875 0.28125 0.296875 0.703125q0 0.40625 -0.296875 0.71875q-0.296875 0.296875 -0.703125 0.296875z" fill-rule="nonzero"/><path fill="#fb7a9c" d="m640.7257 166.25197l202.96063 0l0 42.614166l-202.96063 0z" fill-rule="evenodd"/><path fill="#ffffff" d="m694.94867 194.47905l0 -7.578125l-1.484375 0l0 -1.15625l1.484375 0l0 -2.890625l1.265625 0l0 2.890625l2.015625 0l0 1.15625l-2.015625 0l0 7.578125l-1.265625 0zm8.427307 -9.03125q1.1875 0 2.125 0.578125q0.953125 0.578125 1.5 1.578125q0.546875 1.0 0.546875 2.234375q0 0.34375 -0.03125 0.53125l-7.171875 0q0.078125 1.34375 0.875 2.296875q0.796875 0.953125 2.1875 0.953125q1.109375 0 1.84375 -0.421875q0.75 -0.421875 1.1875 -1.15625l1.015625 0.671875q-0.625 0.96875 -1.640625 1.515625q-1.0 0.546875 -2.375 0.546875q-1.265625 0 -2.265625 -0.59375q-0.984375 -0.59375 -1.546875 -1.65625q-0.546875 -1.0625 -0.546875 -2.40625q0 -1.34375 0.546875 -2.40625q0.546875 -1.0625 1.515625 -1.65625q0.984375 -0.609375 2.234375 -0.609375zm2.890625 3.875q-0.171875 -1.359375 -0.90625 -2.03125q-0.734375 -0.6875 -1.984375 -0.6875q-1.203125 0 -1.984375 0.78125q-0.765625 0.765625 -0.96875 1.9375l5.84375 0zm7.4351807 -3.875q0.4375 0 0.859375 0.125l0 1.15625q-0.390625 -0.171875 -0.859375 -0.171875q-0.796875 0 -1.5 0.453125q-0.6875 0.4375 -1.109375 1.296875q-0.421875 0.84375 -0.421875 2.0l0 4.171875l-1.265625 0l0 -8.734375l1.265625 0l0 1.75q0.515625 -0.96875 1.28125 -1.5q0.78125 -0.546875 1.75 -0.546875zm6.324463 0q0.4375 0 0.859375 0.125l0 1.15625q-0.390625 -0.171875 -0.859375 -0.171875q-0.796875 0 -1.5 0.453125q-0.6875 0.4375 -1.109375 1.296875q-0.421875 0.84375 -0.421875 2.0l0 4.171875l-1.265625 0l0 -8.734375l1.265625 0l0 1.75q0.515625 -0.96875 1.28125 -1.5q0.78125 -0.546875 1.75 -0.546875zm10.152588 0.296875l0 8.734375l-1.28125 0l0 -1.28125q-0.53125 0.734375 -1.328125 1.15625q-0.78125 0.421875 -1.703125 0.421875q-1.25 0 -2.25 -0.59375q-0.984375 -0.59375 -1.546875 -1.65625q-0.546875 -1.0625 -0.546875 -2.4375q0 -1.34375 0.546875 -2.390625q0.546875 -1.046875 1.515625 -1.640625q0.984375 -0.609375 2.234375 -0.609375q0.953125 0 1.75 0.421875q0.796875 0.421875 1.328125 1.1875l0 -1.3125l1.28125 0zm-4.359375 7.875q0.90625 0 1.59375 -0.4375q0.703125 -0.453125 1.09375 -1.25q0.390625 -0.8125 0.390625 -1.8125q0 -1.015625 -0.390625 -1.8125q-0.390625 -0.8125 -1.09375 -1.25q-0.6875 -0.453125 -1.59375 -0.453125q-0.875 0 -1.5625 0.453125q-0.6875 0.4375 -1.078125 1.234375q-0.390625 0.796875 -0.390625 1.796875q0 1.03125 0.390625 1.84375q0.390625 0.796875 1.078125 1.25q0.6875 0.4375 1.5625 0.4375zm9.9348755 -11.84375q-0.65625 0 -1.078125 0.453125q-0.421875 0.4375 -0.421875 1.15625l0 2.359375l2.015625 0l0 1.15625l-2.015625 0l0 7.578125l-1.265625 0l0 -7.578125l-1.125 0l0 -1.15625l1.125 0l0 -2.359375q0 -1.21875 0.765625 -1.984375q0.78125 -0.78125 2.0 -0.78125l0.515625 0l0 1.15625l-0.515625 0zm5.708618 13.0q-1.25 0 -2.25 -0.59375q-0.984375 -0.59375 -1.546875 -1.671875q-0.546875 -1.078125 -0.546875 -2.421875q0 -1.34375 0.546875 -2.390625q0.546875 -1.046875 1.515625 -1.640625q0.984375 -0.609375 2.234375 -0.609375q1.25 0 2.234375 0.609375q1.0 0.59375 1.5625 1.65625q0.5625 1.0625 0.5625 2.40625q0 1.34375 -0.5625 2.40625q-0.546875 1.0625 -1.53125 1.65625q-0.96875 0.59375 -2.21875 0.59375zm-0.046875 -1.15625q0.90625 0 1.59375 -0.4375q0.703125 -0.453125 1.09375 -1.25q0.390625 -0.8125 0.390625 -1.8125q0 -1.015625 -0.390625 -1.8125q-0.390625 -0.8125 -1.09375 -1.25q-0.6875 -0.453125 -1.59375 -0.453125q-0.875 0 -1.5625 0.453125q-0.6875 0.4375 -1.078125 1.234375q-0.390625 0.796875 -0.390625 1.796875q0 1.03125 0.390625 1.84375q0.390625 0.796875 1.078125 1.25q0.6875 0.4375 1.5625 0.4375zm10.437683 -8.171875q0.4375 0 0.859375 0.125l0 1.15625q-0.390625 -0.171875 -0.859375 -0.171875q-0.796875 0 -1.5 0.453125q-0.6875 0.4375 -1.109375 1.296875q-0.421875 0.84375 -0.421875 2.0l0 4.171875l-1.265625 0l0 -8.734375l1.265625 0l0 1.75q0.515625 -0.96875 1.28125 -1.5q0.78125 -0.546875 1.75 -0.546875zm11.324463 0q1.203125 0 2.0 0.859375q0.8125 0.84375 0.8125 2.328125l0 5.84375l-1.265625 0l0 -5.28125q0 -1.375 -0.53125 -1.984375q-0.515625 -0.609375 -1.359375 -0.609375q-1.015625 0 -1.59375 0.796875q-0.5625 0.796875 -0.65625 2.15625l0 4.921875l-1.265625 0l0 -5.28125q0 -1.375 -0.53125 -1.984375q-0.515625 -0.609375 -1.359375 -0.609375q-1.140625 0 -1.71875 0.953125q-0.5625 0.953125 -0.5625 2.5625l0 4.359375l-1.265625 0l0 -8.734375l1.265625 0l0 1.359375q0.4375 -0.796875 1.09375 -1.21875q0.671875 -0.4375 1.53125 -0.4375q0.9375 0 1.640625 0.515625q0.71875 0.515625 1.0 1.46875q0.40625 -0.9375 1.109375 -1.453125q0.71875 -0.53125 1.65625 -0.53125zm4.9591064 4.96875l0 -1.046875l4.234375 0l0 1.046875l-4.234375 0zm10.249329 4.359375q-1.28125 0 -2.265625 -0.59375q-0.984375 -0.59375 -1.546875 -1.65625q-0.5625 -1.0625 -0.5625 -2.40625q0 -1.34375 0.546875 -2.40625q0.5625 -1.0625 1.546875 -1.65625q0.984375 -0.609375 2.234375 -0.609375q1.0625 0 1.859375 0.46875q0.796875 0.453125 1.453125 1.28125l-0.9375 0.734375q-0.921875 -1.328125 -2.375 -1.328125q-0.875 0 -1.578125 0.453125q-0.6875 0.4375 -1.09375 1.25q-0.390625 0.796875 -0.390625 1.8125q0 1.0 0.390625 1.8125q0.40625 0.796875 1.09375 1.25q0.703125 0.4375 1.578125 0.4375q0.90625 0 1.484375 -0.296875q0.578125 -0.3125 1.03125 -0.921875l1.0 0.703125q-0.625 0.765625 -1.53125 1.21875q-0.90625 0.453125 -1.9375 0.453125zm5.195923 -0.296875l0 -13.546875l1.265625 0l0 13.546875l-1.265625 0zm4.3809814 0l0 -8.734375l1.28125 0l0 8.734375l-1.28125 0zm0.640625 -10.421875q-0.4375 0 -0.734375 -0.296875q-0.28125 -0.3125 -0.28125 -0.734375q0 -0.40625 0.28125 -0.6875q0.296875 -0.296875 0.734375 -0.296875q0.40625 0 0.703125 0.296875q0.296875 0.28125 0.296875 0.703125q0 0.40625 -0.296875 0.71875q-0.296875 0.296875 -0.703125 0.296875z" fill-rule="nonzero"/><path fill="#fb7a9c" d="m640.7257 227.13911l202.96063 0l0 42.61418l-202.96063 0z" fill-rule="evenodd"/><path fill="#ffffff" d="m716.56476 246.33495q0.921875 0 1.6875 0.375q0.78125 0.375 1.234375 1.109375q0.46875 0.71875 0.46875 1.703125l0 5.84375l-1.28125 0l0 -5.28125q0 -2.59375 -2.3125 -2.59375q-1.34375 0 -2.015625 0.953125q-0.671875 0.953125 -0.671875 2.5625l0 4.359375l-1.265625 0l0 -13.546875l1.265625 0l0 6.265625q0.453125 -0.828125 1.1875 -1.28125q0.734375 -0.46875 1.703125 -0.46875zm9.571838 0q1.1875 0 2.125 0.578125q0.953125 0.578125 1.5 1.578125q0.546875 1.0 0.546875 2.234375q0 0.34375 -0.03125 0.53125l-7.171875 0q0.078125 1.34375 0.875 2.296875q0.796875 0.953125 2.1875 0.953125q1.109375 0 1.84375 -0.421875q0.75 -0.421875 1.1875 -1.15625l1.015625 0.671875q-0.625 0.96875 -1.640625 1.515625q-1.0 0.546875 -2.375 0.546875q-1.265625 0 -2.265625 -0.59375q-0.984375 -0.59375 -1.546875 -1.65625q-0.546875 -1.0625 -0.546875 -2.40625q0 -1.34375 0.546875 -2.40625q0.546875 -1.0625 1.515625 -1.65625q0.984375 -0.609375 2.234375 -0.609375zm2.890625 3.875q-0.171875 -1.359375 -0.90625 -2.03125q-0.734375 -0.6875 -1.984375 -0.6875q-1.203125 0 -1.984375 0.78125q-0.765625 0.765625 -0.96875 1.9375l5.84375 0zm3.2320557 5.15625l0 -13.546875l1.265625 0l0 13.546875l-1.265625 0zm12.990295 -9.03125q1.203125 0 2.0 0.859375q0.8125 0.84375 0.8125 2.328125l0 5.84375l-1.265625 0l0 -5.28125q0 -1.375 -0.53125 -1.984375q-0.515625 -0.609375 -1.359375 -0.609375q-1.015625 0 -1.59375 0.796875q-0.5625 0.796875 -0.65625 2.15625l0 4.921875l-1.265625 0l0 -5.28125q0 -1.375 -0.53125 -1.984375q-0.515625 -0.609375 -1.359375 -0.609375q-1.140625 0 -1.71875 0.953125q-0.5625 0.953125 -0.5625 2.5625l0 4.359375l-1.265625 0l0 -8.734375l1.265625 0l0 1.359375q0.4375 -0.796875 1.09375 -1.21875q0.671875 -0.4375 1.53125 -0.4375q0.9375 0 1.640625 0.515625q0.71875 0.515625 1.0 1.46875q0.40625 -0.9375 1.109375 -1.453125q0.71875 -0.53125 1.65625 -0.53125zm4.9591064 4.96875l0 -1.046875l4.234375 0l0 1.046875l-4.234375 0zm10.249329 4.359375q-1.28125 0 -2.265625 -0.59375q-0.984375 -0.59375 -1.546875 -1.65625q-0.5625 -1.0625 -0.5625 -2.40625q0 -1.34375 0.546875 -2.40625q0.5625 -1.0625 1.546875 -1.65625q0.984375 -0.609375 2.234375 -0.609375q1.0625 0 1.859375 0.46875q0.796875 0.453125 1.453125 1.28125l-0.9375 0.734375q-0.921875 -1.328125 -2.375 -1.328125q-0.875 0 -1.578125 0.453125q-0.6875 0.4375 -1.09375 1.25q-0.390625 0.796875 -0.390625 1.8125q0 1.0 0.390625 1.8125q0.40625 0.796875 1.09375 1.25q0.703125 0.4375 1.578125 0.4375q0.90625 0 1.484375 -0.296875q0.578125 -0.3125 1.03125 -0.921875l1.0 0.703125q-0.625 0.765625 -1.53125 1.21875q-0.90625 0.453125 -1.9375 0.453125zm5.195923 -0.296875l0 -13.546875l1.265625 0l0 13.546875l-1.265625 0zm4.3809814 0l0 -8.734375l1.28125 0l0 8.734375l-1.28125 0zm0.640625 -10.421875q-0.4375 0 -0.734375 -0.296875q-0.28125 -0.3125 -0.28125 -0.734375q0 -0.40625 0.28125 -0.6875q0.296875 -0.296875 0.734375 -0.296875q0.40625 0 0.703125 0.296875q0.296875 0.28125 0.296875 0.703125q0 0.40625 -0.296875 0.71875q-0.296875 0.296875 -0.703125 0.296875z" fill-rule="nonzero"/><path fill="#000000" fill-opacity="0.0" d="m320.521 187.55905l69.00787 0" fill-rule="evenodd"/><path stroke="#2165e3" stroke-width="1.0" stroke-linejoin="round" stroke-linecap="butt" d="m320.521 187.55905l63.007874 0" fill-rule="evenodd"/><path fill="#2165e3" stroke="#2165e3" stroke-width="1.0" stroke-linecap="butt" d="m383.52887 189.21078l4.538086 -1.6517334l-4.538086 -1.6517334z" fill-rule="evenodd"/><path fill="#000000" fill-opacity="0.0" d="m319.51312 247.43832l70.01575 1.0078735" fill-rule="evenodd"/><path stroke="#2165e3" stroke-width="1.0" stroke-linejoin="round" stroke-linecap="butt" d="m319.51312 247.43832l64.01636 0.9215088" fill-rule="evenodd"/><path fill="#2165e3" stroke="#2165e3" stroke-width="1.0" stroke-linecap="butt" d="m383.5057 250.0114l4.5614014 -1.5862427l-4.513855 -1.7168884z" fill-rule="evenodd"/><path fill="#000000" fill-opacity="0.0" d="m592.47375 186.55118l48.251953 1.0078735" fill-rule="evenodd"/><path stroke="#2165e3" stroke-width="1.0" stroke-linejoin="round" stroke-linecap="butt" d="m592.47375 186.55118l42.253296 0.88256836" fill-rule="evenodd"/><path fill="#2165e3" stroke="#2165e3" stroke-width="1.0" stroke-linecap="butt" d="m634.69257 189.08513l4.571594 -1.5566101l-4.5026245 -1.7461395z" fill-rule="evenodd"/><path fill="#000000" fill-opacity="0.0" d="m594.521 247.43832l46.204712 1.0078735" fill-rule="evenodd"/><path stroke="#2165e3" stroke-width="1.0" stroke-linejoin="round" stroke-linecap="butt" d="m594.521 247.43832l40.206177 0.8770294" fill-rule="evenodd"/><path fill="#2165e3" stroke="#2165e3" stroke-width="1.0" stroke-linecap="butt" d="m634.6911 249.96669l4.573059 -1.5523834l-4.5009766 -1.7503052z" fill-rule="evenodd"/><path fill="#fb775e" d="m116.31102 308.32547l727.37006 0l0 42.614166l-727.37006 0z" fill-rule="evenodd"/><path fill="#ffffff" d="m331.7031 336.55255l-4.359375 -6.125l-1.34375 1.59375l0 4.53125l-1.40625 0l0 -12.71875l1.40625 0l0 6.4375l5.375 -6.4375l1.546875 0l-4.765625 5.625l5.140625 7.09375l-1.59375 0zm10.433289 -8.734375l0 8.734375l-1.265625 0l0 -1.453125q-0.453125 0.84375 -1.1875 1.296875q-0.734375 0.453125 -1.703125 0.453125q-0.921875 0 -1.703125 -0.375q-0.765625 -0.375 -1.21875 -1.09375q-0.453125 -0.734375 -0.453125 -1.71875l0 -5.84375l1.265625 0l0 5.28125q0 2.59375 2.3125 2.59375q1.34375 0 2.015625 -0.953125q0.671875 -0.953125 0.671875 -2.546875l0 -4.375l1.265625 0zm6.721527 -0.296875q1.25 0 2.21875 0.609375q0.984375 0.59375 1.53125 1.640625q0.546875 1.046875 0.546875 2.390625q0 1.375 -0.5625 2.4375q-0.546875 1.0625 -1.546875 1.65625q-0.984375 0.59375 -2.234375 0.59375q-0.921875 0 -1.71875 -0.421875q-0.78125 -0.421875 -1.3125 -1.15625l0 1.28125l-1.28125 0l0 -13.546875l1.28125 0l0 6.125q0.53125 -0.765625 1.328125 -1.1875q0.796875 -0.421875 1.75 -0.421875zm0 8.171875q0.875 0 1.5625 -0.4375q0.6875 -0.453125 1.078125 -1.25q0.390625 -0.8125 0.390625 -1.84375q0 -1.0 -0.390625 -1.796875q-0.390625 -0.796875 -1.078125 -1.234375q-0.6875 -0.453125 -1.5625 -0.453125q-0.90625 0 -1.609375 0.453125q-0.6875 0.4375 -1.078125 1.25q-0.390625 0.796875 -0.390625 1.8125q0 1.0 0.390625 1.8125q0.390625 0.796875 1.078125 1.25q0.703125 0.4375 1.609375 0.4375zm9.856781 -8.171875q1.1875 0 2.125 0.578125q0.953125 0.578125 1.5 1.578125q0.546875 1.0 0.546875 2.234375q0 0.34375 -0.03125 0.53125l-7.171875 0q0.078125 1.34375 0.875 2.296875q0.796875 0.953125 2.1875 0.953125q1.109375 0 1.84375 -0.421875q0.75 -0.421875 1.1875 -1.15625l1.015625 0.671875q-0.625 0.96875 -1.640625 1.515625q-1.0 0.546875 -2.375 0.546875q-1.265625 0 -2.265625 -0.59375q-0.984375 -0.59375 -1.546875 -1.65625q-0.546875 -1.0625 -0.546875 -2.40625q0 -1.34375 0.546875 -2.40625q0.546875 -1.0625 1.515625 -1.65625q0.984375 -0.609375 2.234375 -0.609375zm2.890625 3.875q-0.171875 -1.359375 -0.90625 -2.03125q-0.734375 -0.6875 -1.984375 -0.6875q-1.203125 0 -1.984375 0.78125q-0.765625 0.765625 -0.96875 1.9375l5.84375 0zm7.43515 -3.875q0.4375 0 0.859375 0.125l0 1.15625q-0.390625 -0.171875 -0.859375 -0.171875q-0.796875 0 -1.5 0.453125q-0.6875 0.4375 -1.109375 1.296875q-0.421875 0.84375 -0.421875 2.0l0 4.171875l-1.265625 0l0 -8.734375l1.265625 0l0 1.75q0.515625 -0.96875 1.28125 -1.5q0.78125 -0.546875 1.75 -0.546875zm6.183838 0q0.921875 0 1.6875 0.375q0.78125 0.375 1.234375 1.109375q0.46875 0.71875 0.46875 1.703125l0 5.84375l-1.28125 0l0 -5.28125q0 -2.59375 -2.3125 -2.59375q-1.34375 0 -2.015625 0.953125q-0.671875 0.953125 -0.671875 2.5625l0 4.359375l-1.265625 0l0 -8.734375l1.265625 0l0 1.453125q0.453125 -0.828125 1.1875 -1.28125q0.734375 -0.46875 1.703125 -0.46875zm9.627808 0q1.1875 0 2.125 0.578125q0.953125 0.578125 1.5 1.578125q0.546875 1.0 0.546875 2.234375q0 0.34375 -0.03125 0.53125l-7.171875 0q0.078125 1.34375 0.875 2.296875q0.796875 0.953125 2.1875 0.953125q1.109375 0 1.84375 -0.421875q0.75 -0.421875 1.1875 -1.15625l1.015625 0.671875q-0.625 0.96875 -1.640625 1.515625q-1.0 0.546875 -2.375 0.546875q-1.265625 0 -2.265625 -0.59375q-0.984375 -0.59375 -1.546875 -1.65625q-0.546875 -1.0625 -0.546875 -2.40625q0 -1.34375 0.546875 -2.40625q0.546875 -1.0625 1.515625 -1.65625q0.984375 -0.609375 2.234375 -0.609375zm2.890625 3.875q-0.171875 -1.359375 -0.90625 -2.03125q-0.734375 -0.6875 -1.984375 -0.6875q-1.203125 0 -1.984375 0.78125q-0.765625 0.765625 -0.96875 1.9375l5.84375 0zm3.6070251 5.15625l0 -7.578125l-1.484375 0l0 -1.15625l1.484375 0l0 -2.890625l1.265625 0l0 2.890625l2.015625 0l0 1.15625l-2.015625 0l0 7.578125l-1.265625 0zm8.427338 -9.03125q1.1875 0 2.125 0.578125q0.953125 0.578125 1.5 1.578125q0.546875 1.0 0.546875 2.234375q0 0.34375 -0.03125 0.53125l-7.171875 0q0.078125 1.34375 0.875 2.296875q0.796875 0.953125 2.1875 0.953125q1.109375 0 1.84375 -0.421875q0.75 -0.421875 1.1875 -1.15625l1.015625 0.671875q-0.625 0.96875 -1.640625 1.515625q-1.0 0.546875 -2.375 0.546875q-1.265625 0 -2.265625 -0.59375q-0.984375 -0.59375 -1.546875 -1.65625q-0.546875 -1.0625 -0.546875 -2.40625q0 -1.34375 0.546875 -2.40625q0.546875 -1.0625 1.515625 -1.65625q0.984375 -0.609375 2.234375 -0.609375zm2.890625 3.875q-0.171875 -1.359375 -0.90625 -2.03125q-0.734375 -0.6875 -1.984375 -0.6875q-1.203125 0 -1.984375 0.78125q-0.765625 0.765625 -0.96875 1.9375l5.84375 0zm6.2164307 5.453125q-1.265625 0 -2.234375 -0.53125q-0.953125 -0.546875 -1.453125 -1.53125l1.140625 -0.5625q0.6875 1.46875 2.703125 1.46875q0.96875 0 1.59375 -0.34375q0.640625 -0.359375 0.640625 -1.109375q0 -0.765625 -0.515625 -1.140625q-0.515625 -0.375 -1.796875 -0.484375q-1.796875 -0.140625 -2.578125 -0.796875q-0.765625 -0.65625 -0.765625 -1.734375q0 -1.21875 0.875 -1.890625q0.890625 -0.671875 2.40625 -0.671875q2.59375 0 3.53125 2.046875l-1.140625 0.5625q-0.3125 -0.734375 -0.921875 -1.09375q-0.609375 -0.359375 -1.5625 -0.359375q-0.96875 0 -1.484375 0.359375q-0.5 0.359375 -0.5 1.0q0 0.625 0.546875 1.015625q0.546875 0.375 1.890625 0.484375q1.65625 0.140625 2.46875 0.8125q0.8125 0.65625 0.8125 1.734375q0 0.890625 -0.5 1.515625q-0.5 0.625 -1.34375 0.9375q-0.84375 0.3125 -1.8125 0.3125zm14.7855835 0q-1.609375 0 -2.78125 -0.78125q-1.15625 -0.796875 -1.78125 -2.28125q-0.625 -1.484375 -0.625 -3.5625q0 -2.078125 0.59375 -3.578125q0.609375 -1.515625 1.734375 -2.296875q1.140625 -0.796875 2.6875 -0.796875q1.578125 0 2.703125 0.703125q1.140625 0.6875 1.765625 1.96875l-1.109375 0.640625q-0.59375 -1.09375 -1.40625 -1.5625q-0.796875 -0.484375 -1.953125 -0.484375q-1.65625 0 -2.609375 1.4375q-0.9375 1.421875 -0.9375 3.953125q0 1.65625 0.421875 2.875q0.4375 1.21875 1.234375 1.859375q0.8125 0.640625 1.875 0.640625q1.3125 0 2.046875 -0.578125q0.75 -0.59375 1.375 -1.84375l1.1875 0.703125q-0.671875 1.453125 -1.78125 2.21875q-1.109375 0.765625 -2.640625 0.765625zm6.3339233 -0.296875l0 -13.546875l1.265625 0l0 13.546875l-1.265625 0zm11.365326 -8.734375l0 8.734375l-1.265625 0l0 -1.453125q-0.453125 0.84375 -1.1875 1.296875q-0.734375 0.453125 -1.703125 0.453125q-0.921875 0 -1.703125 -0.375q-0.765625 -0.375 -1.21875 -1.09375q-0.453125 -0.734375 -0.453125 -1.71875l0 -5.84375l1.265625 0l0 5.28125q0 2.59375 2.3125 2.59375q1.34375 0 2.015625 -0.953125q0.671875 -0.953125 0.671875 -2.546875l0 -4.375l1.265625 0zm5.424652 9.03125q-1.265625 0 -2.234375 -0.53125q-0.953125 -0.546875 -1.453125 -1.53125l1.140625 -0.5625q0.6875 1.46875 2.703125 1.46875q0.96875 0 1.59375 -0.34375q0.640625 -0.359375 0.640625 -1.109375q0 -0.765625 -0.515625 -1.140625q-0.515625 -0.375 -1.796875 -0.484375q-1.796875 -0.140625 -2.578125 -0.796875q-0.765625 -0.65625 -0.765625 -1.734375q0 -1.21875 0.875 -1.890625q0.890625 -0.671875 2.40625 -0.671875q2.59375 0 3.53125 2.046875l-1.140625 0.5625q-0.3125 -0.734375 -0.921875 -1.09375q-0.609375 -0.359375 -1.5625 -0.359375q-0.96875 0 -1.484375 0.359375q-0.5 0.359375 -0.5 1.0q0 0.625 0.546875 1.015625q0.546875 0.375 1.890625 0.484375q1.65625 0.140625 2.46875 0.8125q0.8125 0.65625 0.8125 1.734375q0 0.890625 -0.5 1.515625q-0.5 0.625 -1.34375 0.9375q-0.84375 0.3125 -1.8125 0.3125zm6.047119 -0.296875l0 -7.578125l-1.484375 0l0 -1.15625l1.484375 0l0 -2.890625l1.265625 0l0 2.890625l2.015625 0l0 1.15625l-2.015625 0l0 7.578125l-1.265625 0zm8.427368 -9.03125q1.1875 0 2.125 0.578125q0.953125 0.578125 1.5 1.578125q0.546875 1.0 0.546875 2.234375q0 0.34375 -0.03125 0.53125l-7.171875 0q0.078125 1.34375 0.875 2.296875q0.796875 0.953125 2.1875 0.953125q1.109375 0 1.84375 -0.421875q0.75 -0.421875 1.1875 -1.15625l1.015625 0.671875q-0.625 0.96875 -1.640625 1.515625q-1.0 0.546875 -2.375 0.546875q-1.265625 0 -2.265625 -0.59375q-0.984375 -0.59375 -1.546875 -1.65625q-0.546875 -1.0625 -0.546875 -2.40625q0 -1.34375 0.546875 -2.40625q0.546875 -1.0625 1.515625 -1.65625q0.984375 -0.609375 2.234375 -0.609375zm2.890625 3.875q-0.171875 -1.359375 -0.90625 -2.03125q-0.734375 -0.6875 -1.984375 -0.6875q-1.203125 0 -1.984375 0.78125q-0.765625 0.765625 -0.96875 1.9375l5.84375 0zm7.43515 -3.875q0.4375 0 0.859375 0.125l0 1.15625q-0.390625 -0.171875 -0.859375 -0.171875q-0.796875 0 -1.5 0.453125q-0.6875 0.4375 -1.109375 1.296875q-0.421875 0.84375 -0.421875 2.0l0 4.171875l-1.265625 0l0 -8.734375l1.265625 0l0 1.75q0.515625 -0.96875 1.28125 -1.5q0.78125 -0.546875 1.75 -0.546875zm5.6566772 9.03125l4.625 -12.71875l1.15625 0l-4.625 12.71875l-1.15625 0zm22.881256 -12.71875l1.578125 0l0 12.71875l-1.390625 0l0 -10.171875l-4.25 10.171875l-1.3125 0l-4.0625 -10.125l0 10.125l-1.390625 0l0 -12.71875l1.703125 0l4.46875 11.15625l4.65625 -11.15625zm12.360107 3.984375l0 8.734375l-1.2812195 0l0 -1.28125q-0.53125 0.734375 -1.328125 1.15625q-0.78125 0.421875 -1.703125 0.421875q-1.25 0 -2.25 -0.59375q-0.984375 -0.59375 -1.546875 -1.65625q-0.546875 -1.0625 -0.546875 -2.4375q0 -1.34375 0.546875 -2.390625q0.546875 -1.046875 1.515625 -1.640625q0.984375 -0.609375 2.234375 -0.609375q0.953125 0 1.75 0.421875q0.796875 0.421875 1.328125 1.1875l0 -1.3125l1.2812195 0zm-4.3593445 7.875q0.90625 0 1.59375 -0.4375q0.703125 -0.453125 1.09375 -1.25q0.390625 -0.8125 0.390625 -1.8125q0 -1.015625 -0.390625 -1.8125q-0.390625 -0.8125 -1.09375 -1.25q-0.6875 -0.453125 -1.59375 -0.453125q-0.875 0 -1.5625 0.453125q-0.6875 0.4375 -1.078125 1.234375q-0.390625 0.796875 -0.390625 1.796875q0 1.03125 0.390625 1.84375q0.390625 0.796875 1.078125 1.25q0.6875 0.4375 1.5625 0.4375zm10.856781 -8.171875q0.921875 0 1.6875 0.375q0.78125 0.375 1.234375 1.109375q0.46875 0.71875 0.46875 1.703125l0 5.84375l-1.28125 0l0 -5.28125q0 -2.59375 -2.3125 -2.59375q-1.34375 0 -2.015625 0.953125q-0.671875 0.953125 -0.671875 2.5625l0 4.359375l-1.265625 0l0 -8.734375l1.265625 0l0 1.453125q0.453125 -0.828125 1.1875 -1.28125q0.734375 -0.46875 1.703125 -0.46875zm13.987122 0.296875l0 8.734375l-1.28125 0l0 -1.28125q-0.53125 0.734375 -1.328125 1.15625q-0.78125 0.421875 -1.703125 0.421875q-1.25 0 -2.25 -0.59375q-0.984375 -0.59375 -1.546875 -1.65625q-0.546875 -1.0625 -0.546875 -2.4375q0 -1.34375 0.546875 -2.390625q0.546875 -1.046875 1.515625 -1.640625q0.984375 -0.609375 2.234375 -0.609375q0.953125 0 1.75 0.421875q0.796875 0.421875 1.328125 1.1875l0 -1.3125l1.28125 0zm-4.359375 7.875q0.90625 0 1.59375 -0.4375q0.703125 -0.453125 1.09375 -1.25q0.390625 -0.8125 0.390625 -1.8125q0 -1.015625 -0.390625 -1.8125q-0.390625 -0.8125 -1.09375 -1.25q-0.6875 -0.453125 -1.59375 -0.453125q-0.875 0 -1.5625 0.453125q-0.6875 0.4375 -1.078125 1.234375q-0.390625 0.796875 -0.390625 1.796875q0 1.03125 0.390625 1.84375q0.390625 0.796875 1.078125 1.25q0.6875 0.4375 1.5625 0.4375zm14.825562 -7.875l0 8.40625q0 1.171875 -0.484375 2.09375q-0.484375 0.921875 -1.375 1.4375q-0.875 0.53125 -1.984375 0.53125l-3.625 0l0 -1.15625l3.625 0q1.125 0 1.84375 -0.828125q0.71875 -0.8125 0.71875 -2.078125l0 -0.953125q-0.53125 0.734375 -1.328125 1.15625q-0.78125 0.421875 -1.703125 0.421875q-1.25 0 -2.25 -0.59375q-0.984375 -0.59375 -1.546875 -1.65625q-0.546875 -1.0625 -0.546875 -2.4375q0 -1.34375 0.546875 -2.390625q0.546875 -1.046875 1.515625 -1.640625q0.984375 -0.609375 2.234375 -0.609375q0.953125 0 1.75 0.421875q0.796875 0.421875 1.328125 1.1875l0 -1.3125l1.28125 0zm-4.359375 7.875q0.90625 0 1.59375 -0.4375q0.703125 -0.453125 1.09375 -1.25q0.390625 -0.8125 0.390625 -1.8125q0 -1.015625 -0.390625 -1.8125q-0.390625 -0.8125 -1.09375 -1.25q-0.6875 -0.453125 -1.59375 -0.453125q-0.875 0 -1.5625 0.453125q-0.6875 0.4375 -1.078125 1.234375q-0.390625 0.796875 -0.390625 1.796875q0 1.03125 0.390625 1.84375q0.390625 0.796875 1.078125 1.25q0.6875 0.4375 1.5625 0.4375zm10.4661255 -8.171875q1.1875 0 2.125 0.578125q0.953125 0.578125 1.5 1.578125q0.546875 1.0 0.546875 2.234375q0 0.34375 -0.03125 0.53125l-7.171875 0q0.078125 1.34375 0.875 2.296875q0.796875 0.953125 2.1875 0.953125q1.109375 0 1.84375 -0.421875q0.75 -0.421875 1.1875 -1.15625l1.015625 0.671875q-0.625 0.96875 -1.640625 1.515625q-1.0 0.546875 -2.375 0.546875q-1.265625 0 -2.265625 -0.59375q-0.984375 -0.59375 -1.546875 -1.65625q-0.546875 -1.0625 -0.546875 -2.40625q0 -1.34375 0.546875 -2.40625q0.546875 -1.0625 1.515625 -1.65625q0.984375 -0.609375 2.234375 -0.609375zm2.890625 3.875q-0.171875 -1.359375 -0.90625 -2.03125q-0.734375 -0.6875 -1.984375 -0.6875q-1.203125 0 -1.984375 0.78125q-0.765625 0.765625 -0.96875 1.9375l5.84375 0zm11.263306 -8.390625l0 13.546875l-1.28125 0l0 -1.28125q-0.53125 0.734375 -1.328125 1.15625q-0.78125 0.421875 -1.703125 0.421875q-1.25 0 -2.25 -0.59375q-0.984375 -0.59375 -1.546875 -1.65625q-0.546875 -1.0625 -0.546875 -2.4375q0 -1.34375 0.546875 -2.390625q0.546875 -1.046875 1.515625 -1.640625q0.984375 -0.609375 2.234375 -0.609375q0.953125 0 1.75 0.421875q0.796875 0.421875 1.328125 1.1875l0 -6.125l1.28125 0zm-4.359375 12.6875q0.90625 0 1.59375 -0.4375q0.703125 -0.453125 1.09375 -1.25q0.390625 -0.8125 0.390625 -1.8125q0 -1.015625 -0.390625 -1.8125q-0.390625 -0.8125 -1.09375 -1.25q-0.6875 -0.453125 -1.59375 -0.453125q-0.875 0 -1.5625 0.453125q-0.6875 0.4375 -1.078125 1.234375q-0.390625 0.796875 -0.390625 1.796875q0 1.03125 0.390625 1.84375q0.390625 0.796875 1.078125 1.25q0.6875 0.4375 1.5625 0.4375zm15.423401 1.15625q-1.40625 0 -2.734375 -0.6875q-1.328125 -0.703125 -2.203125 -1.90625l1.140625 -1.0q0.671875 1.0625 1.71875 1.6875q1.046875 0.625 2.25 0.625q1.328125 0 2.015625 -0.59375q0.703125 -0.59375 0.703125 -1.59375q0 -1.09375 -0.75 -1.6875q-0.734375 -0.59375 -2.328125 -1.03125q-4.03125 -1.0 -4.03125 -3.65625q0 -1.671875 1.078125 -2.5625q1.078125 -0.890625 3.0 -0.890625q1.40625 0 2.515625 0.53125q1.109375 0.515625 1.984375 1.59375l-1.09375 0.9375q-0.671875 -0.921875 -1.484375 -1.359375q-0.796875 -0.4375 -1.921875 -0.4375q-1.171875 0 -1.921875 0.546875q-0.75 0.546875 -0.75 1.5q0 0.96875 0.6875 1.546875q0.703125 0.5625 2.34375 0.953125q1.9375 0.53125 3.0 1.453125q1.078125 0.90625 1.078125 2.5625q0 1.03125 -0.515625 1.8125q-0.515625 0.78125 -1.5 1.21875q-0.984375 0.4375 -2.28125 0.4375zm10.079712 -9.328125q1.1875 0 2.125 0.578125q0.953125 0.578125 1.5 1.578125q0.546875 1.0 0.546875 2.234375q0 0.34375 -0.03125 0.53125l-7.171875 0q0.078125 1.34375 0.875 2.296875q0.796875 0.953125 2.1875 0.953125q1.109375 0 1.84375 -0.421875q0.75 -0.421875 1.1875 -1.15625l1.015625 0.671875q-0.625 0.96875 -1.640625 1.515625q-1.0 0.546875 -2.375 0.546875q-1.265625 0 -2.265625 -0.59375q-0.984375 -0.59375 -1.546875 -1.65625q-0.546875 -1.0625 -0.546875 -2.40625q0 -1.34375 0.546875 -2.40625q0.546875 -1.0625 1.515625 -1.65625q0.984375 -0.609375 2.234375 -0.609375zm2.890625 3.875q-0.171875 -1.359375 -0.90625 -2.03125q-0.734375 -0.6875 -1.984375 -0.6875q-1.203125 0 -1.984375 0.78125q-0.765625 0.765625 -0.96875 1.9375l5.84375 0zm7.4351196 -3.875q0.4375 0 0.859375 0.125l0 1.15625q-0.390625 -0.171875 -0.859375 -0.171875q-0.796875 0 -1.5 0.453125q-0.6875 0.4375 -1.109375 1.296875q-0.421875 0.84375 -0.421875 2.0l0 4.171875l-1.265625 0l0 -8.734375l1.265625 0l0 1.75q0.515625 -0.96875 1.28125 -1.5q0.78125 -0.546875 1.75 -0.546875zm7.683838 0.296875l1.28125 0l-3.171875 8.734375l-1.390625 0l-3.15625 -8.734375l1.328125 0l2.578125 7.375l2.53125 -7.375zm3.5198364 8.734375l0 -8.734375l1.28125 0l0 8.734375l-1.28125 0zm0.640625 -10.421875q-0.4375 0 -0.734375 -0.296875q-0.28125 -0.3125 -0.28125 -0.734375q0 -0.40625 0.28125 -0.6875q0.296875 -0.296875 0.734375 -0.296875q0.40625 0 0.703125 0.296875q0.296875 0.28125 0.296875 0.703125q0 0.40625 -0.296875 0.71875q-0.296875 0.296875 -0.703125 0.296875zm7.468628 10.71875q-1.28125 0 -2.265625 -0.59375q-0.984375 -0.59375 -1.546875 -1.65625q-0.5625 -1.0625 -0.5625 -2.40625q0 -1.34375 0.546875 -2.40625q0.5625 -1.0625 1.546875 -1.65625q0.984375 -0.609375 2.234375 -0.609375q1.0625 0 1.859375 0.46875q0.796875 0.453125 1.453125 1.28125l-0.9375 0.734375q-0.921875 -1.328125 -2.375 -1.328125q-0.875 0 -1.578125 0.453125q-0.6875 0.4375 -1.09375 1.25q-0.390625 0.796875 -0.390625 1.8125q0 1.0 0.390625 1.8125q0.40625 0.796875 1.09375 1.25q0.703125 0.4375 1.578125 0.4375q0.90625 0 1.484375 -0.296875q0.578125 -0.3125 1.03125 -0.921875l1.0 0.703125q-0.625 0.765625 -1.53125 1.21875q-0.90625 0.453125 -1.9375 0.453125zm8.867798 -9.328125q1.1875 0 2.125 0.578125q0.953125 0.578125 1.5 1.578125q0.546875 1.0 0.546875 2.234375q0 0.34375 -0.03125 0.53125l-7.171875 0q0.078125 1.34375 0.875 2.296875q0.796875 0.953125 2.1875 0.953125q1.109375 0 1.84375 -0.421875q0.75 -0.421875 1.1875 -1.15625l1.015625 0.671875q-0.625 0.96875 -1.640625 1.515625q-1.0 0.546875 -2.375 0.546875q-1.265625 0 -2.265625 -0.59375q-0.984375 -0.59375 -1.546875 -1.65625q-0.546875 -1.0625 -0.546875 -2.40625q0 -1.34375 0.546875 -2.40625q0.546875 -1.0625 1.515625 -1.65625q0.984375 -0.609375 2.234375 -0.609375zm2.890625 3.875q-0.171875 -1.359375 -0.90625 -2.03125q-0.734375 -0.6875 -1.984375 -0.6875q-1.203125 0 -1.984375 0.78125q-0.765625 0.765625 -0.96875 1.9375l5.84375 0zm6.2164917 5.453125q-1.265625 0 -2.234375 -0.53125q-0.953125 -0.546875 -1.453125 -1.53125l1.140625 -0.5625q0.6875 1.46875 2.703125 1.46875q0.96875 0 1.59375 -0.34375q0.640625 -0.359375 0.640625 -1.109375q0 -0.765625 -0.515625 -1.140625q-0.515625 -0.375 -1.796875 -0.484375q-1.796875 -0.140625 -2.578125 -0.796875q-0.765625 -0.65625 -0.765625 -1.734375q0 -1.21875 0.875 -1.890625q0.890625 -0.671875 2.40625 -0.671875q2.59375 0 3.53125 2.046875l-1.140625 0.5625q-0.3125 -0.734375 -0.921875 -1.09375q-0.609375 -0.359375 -1.5625 -0.359375q-0.96875 0 -1.484375 0.359375q-0.5 0.359375 -0.5 1.0q0 0.625 0.546875 1.015625q0.546875 0.375 1.890625 0.484375q1.65625 0.140625 2.46875 0.8125q0.8125 0.65625 0.8125 1.734375q0 0.890625 -0.5 1.515625q-0.5 0.625 -1.34375 0.9375q-0.84375 0.3125 -1.8125 0.3125z" fill-rule="nonzero"/><path fill="#000000" fill-opacity="0.0" d="m843.68634 187.55905l25.0 0l0 142.07874l-24.937012 0" fill-rule="evenodd"/><path stroke="#2165e3" stroke-width="1.0" stroke-linejoin="round" stroke-linecap="butt" d="m843.68634 187.55905l25.0 0l0 142.07874l-24.937012 0" fill-rule="evenodd"/><path fill="#000000" fill-opacity="0.0" d="m843.68634 248.4462l25.0 0l0 81.19684l-24.937012 0" fill-rule="evenodd"/><path stroke="#2165e3" stroke-width="1.0" stroke-linejoin="round" stroke-linecap="butt" d="m843.68634 248.4462l25.0 0l0 81.19684l-21.509888 0" fill-rule="evenodd"/><path fill="#2165e3" stroke="#2165e3" stroke-width="1.0" stroke-linecap="butt" d="m847.17645 329.64304l1.1245728 -1.1245728l-3.0897827 1.1245728l3.0897827 1.1246033z" fill-rule="evenodd"/><path fill="#000000" fill-opacity="0.0" d="m116.31233 53.6063l-25.001305 0l0 194.83466l25.0643 0" fill-rule="evenodd"/><path fill="#000000" fill-opacity="0.0" d="m116.31233 113.485565l-25.001305 0l0 134.96063l25.0643 0" fill-rule="evenodd"/><path stroke="#2165e3" stroke-width="1.0" stroke-linejoin="round" stroke-linecap="butt" d="m116.31233 113.485565l-25.001312 0l0 134.96063l21.637222 0" fill-rule="evenodd"/><path fill="#2165e3" stroke="#2165e3" stroke-width="1.0" stroke-linecap="butt" d="m112.94824 248.4462l-1.124588 1.1245728l3.089775 -1.1245728l-3.089775 -1.124588z" fill-rule="evenodd"/></g></svg>