<svg version="1.1" viewBox="0.0 0.0 630.2204724409448 113.30971128608924" fill="none" stroke="none" stroke-linecap="square" stroke-miterlimit="10" xmlns:xlink="http://www.w3.org/1999/xlink" xmlns="http://www.w3.org/2000/svg"><clipPath id="p.0"><path d="m0 0l630.22046 0l0 113.30971l-630.22046 0l0 -113.30971z" clip-rule="nonzero"/></clipPath><g clip-path="url(#p.0)"><path fill="#000000" fill-opacity="0.0" d="m0 0l630.22046 0l0 113.30971l-630.22046 0z" fill-rule="evenodd"/><path fill="#000000" fill-opacity="0.0" d="m57.88189 9.867455l514.45667 0l0 93.57481l-514.45667 0z" fill-rule="evenodd"/><path fill="#f9c3c0" d="m175.3867 19.351105l0 16.84375l-4.109375 0l0 -10.53125l-3.640625 10.53125l-3.5625 0l-3.671875 -10.5625l0 10.5625l-4.09375 0l0 -16.84375l5.015625 0l4.578125 11.734375l4.484375 -11.734375l5.0 0zm7.9119415 3.28125q1.546875 0 2.640625 0.703125q1.109375 0.6875 1.640625 1.890625l0 -2.421875l4.078125 0l0 13.390625l-4.078125 0l0 -2.421875q-0.53125 1.203125 -1.640625 1.90625q-1.09375 0.6875 -2.640625 0.6875q-1.65625 0 -2.96875 -0.828125q-1.296875 -0.828125 -2.0625 -2.390625q-0.75 -1.5625 -0.75 -3.65625q0 -2.109375 0.75 -3.65625q0.765625 -1.546875 2.0625 -2.375q1.3125 -0.828125 2.96875 -0.828125zm1.328125 3.609375q-1.328125 0 -2.140625 0.859375q-0.796875 0.859375 -0.796875 2.390625q0 1.546875 0.796875 2.40625q0.8125 0.859375 2.140625 0.859375q1.296875 0 2.125 -0.875q0.828125 -0.890625 0.828125 -2.390625q0 -1.5 -0.828125 -2.375q-0.828125 -0.875 -2.125 -0.875zm17.975082 9.953125l-4.015625 -5.6875l0 5.6875l-4.09375 0l0 -17.765625l4.09375 0l0 9.75l4.015625 -5.375l4.828125 0l-5.40625 6.6875l5.515625 6.703125l-4.9375 0zm19.153336 -7.0625q0 0.515625 -0.125 1.109375l-9.28125 0q0.0625 1.515625 0.75 2.171875q0.703125 0.65625 1.78125 0.65625q0.921875 0 1.515625 -0.453125q0.609375 -0.453125 0.796875 -1.171875l4.34375 0q-0.265625 1.40625 -1.15625 2.53125q-0.890625 1.109375 -2.265625 1.75q-1.359375 0.640625 -3.03125 0.640625q-1.96875 0 -3.5 -0.828125q-1.515625 -0.828125 -2.390625 -2.390625q-0.859375 -1.5625 -0.859375 -3.65625q0 -2.109375 0.84375 -3.65625q0.859375 -1.546875 2.390625 -2.375q1.546875 -0.828125 3.515625 -0.828125q1.984375 0 3.5 0.828125q1.515625 0.8125 2.34375 2.296875q0.828125 1.46875 0.828125 3.375zm-4.15625 -0.625q0.03125 -1.3125 -0.703125 -1.96875q-0.734375 -0.65625 -1.8125 -0.65625q-1.125 0 -1.875 0.671875q-0.75 0.671875 -0.84375 1.953125l5.234375 0zm15.187195 -10.078125l0 17.765625l-4.09375 0l0 -17.765625l4.09375 0zm2.4515991 0.609375q0 -0.9375 0.671875 -1.546875q0.671875 -0.609375 1.78125 -0.609375q1.09375 0 1.765625 0.609375q0.671875 0.609375 0.671875 1.546875q0 0.90625 -0.671875 1.515625q-0.671875 0.609375 -1.765625 0.609375q-1.109375 0 -1.78125 -0.609375q-0.671875 -0.609375 -0.671875 -1.515625zm4.484375 3.765625l0 13.390625l-4.09375 0l0 -13.390625l4.09375 0zm9.404724 -1.828125q-1.0 0 -1.453125 0.4375q-0.453125 0.421875 -0.5 1.390625l2.421875 0l0 3.453125l-2.421875 0l0 9.9375l-4.109375 0l0 -9.9375l-1.609375 0l0 -3.453125l1.609375 0l0 -0.140625q0 -2.5 1.453125 -3.859375q1.453125 -1.359375 4.203125 -1.359375q0.578125 0 0.875 0.03125l0 3.53125l-0.46875 -0.03125zm14.98822 8.15625q0 0.515625 -0.125 1.109375l-9.28125 0q0.0625 1.515625 0.75 2.171875q0.703125 0.65625 1.78125 0.65625q0.921875 0 1.515625 -0.453125q0.609375 -0.453125 0.796875 -1.171875l4.34375 0q-0.265625 1.40625 -1.15625 2.53125q-0.890625 1.109375 -2.265625 1.75q-1.359375 0.640625 -3.03125 0.640625q-1.96875 0 -3.5 -0.828125q-1.515625 -0.828125 -2.390625 -2.390625q-0.859375 -1.5625 -0.859375 -3.65625q0 -2.109375 0.84375 -3.65625q0.859375 -1.546875 2.390625 -2.375q1.546875 -0.828125 3.515625 -0.828125q1.984375 0 3.5 0.828125q1.515625 0.8125 2.34375 2.296875q0.828125 1.46875 0.828125 3.375zm-4.15625 -0.625q0.03125 -1.3125 -0.703125 -1.96875q-0.734375 -0.65625 -1.8125 -0.65625q-1.125 0 -1.875 0.671875q-0.75 0.671875 -0.84375 1.953125l5.234375 0zm23.812195 0.625q0 0.515625 -0.125 1.109375l-9.28125 0q0.0625 1.515625 0.75 2.171875q0.703125 0.65625 1.78125 0.65625q0.921875 0 1.515625 -0.453125q0.609375 -0.453125 0.796875 -1.171875l4.34375 0q-0.265625 1.40625 -1.15625 2.53125q-0.890625 1.109375 -2.265625 1.75q-1.359375 0.640625 -3.03125 0.640625q-1.96875 0 -3.5 -0.828125q-1.515625 -0.828125 -2.390625 -2.390625q-0.859375 -1.5625 -0.859375 -3.65625q0 -2.109375 0.84375 -3.65625q0.859375 -1.546875 2.390625 -2.375q1.546875 -0.828125 3.515625 -0.828125q1.984375 0 3.5 0.828125q1.515625 0.8125 2.34375 2.296875q0.828125 1.46875 0.828125 3.375zm-4.15625 -0.625q0.03125 -1.3125 -0.703125 -1.96875q-0.734375 -0.65625 -1.8125 -0.65625q-1.125 0 -1.875 0.671875q-0.75 0.671875 -0.84375 1.953125l5.234375 0zm11.371582 -5.875q1.546875 0 2.640625 0.703125q1.109375 0.6875 1.640625 1.890625l0 -2.421875l4.078125 0l0 13.390625l-4.078125 0l0 -2.421875q-0.53125 1.203125 -1.640625 1.90625q-1.09375 0.6875 -2.640625 0.6875q-1.65625 0 -2.96875 -0.828125q-1.296875 -0.828125 -2.0625 -2.390625q-0.75 -1.5625 -0.75 -3.65625q0 -2.109375 0.75 -3.65625q0.765625 -1.546875 2.0625 -2.375q1.3125 -0.828125 2.96875 -0.828125zm1.328125 3.609375q-1.328125 0 -2.140625 0.859375q-0.796875 0.859375 -0.796875 2.390625q0 1.546875 0.796875 2.40625q0.8125 0.859375 2.140625 0.859375q1.296875 0 2.125 -0.875q0.828125 -0.890625 0.828125 -2.390625q0 -1.5 -0.828125 -2.375q-0.828125 -0.875 -2.125 -0.875zm14.725067 -3.609375q2.546875 0 4.0625 1.28125q1.53125 1.265625 1.921875 3.359375l-3.84375 0q-0.171875 -0.828125 -0.765625 -1.296875q-0.578125 -0.46875 -1.46875 -0.46875q-0.6875 0 -1.046875 0.3125q-0.359375 0.296875 -0.359375 0.84375q0 0.625 0.65625 0.9375q0.65625 0.3125 2.078125 0.625q1.53125 0.359375 2.515625 0.734375q0.984375 0.375 1.703125 1.21875q0.71875 0.828125 0.71875 2.25q0 1.15625 -0.625 2.046875q-0.625 0.875 -1.796875 1.390625q-1.171875 0.5 -2.78125 0.5q-2.71875 0 -4.359375 -1.203125q-1.625 -1.203125 -1.984375 -3.4375l3.96875 0q0.09375 0.875 0.71875 1.328125q0.640625 0.453125 1.65625 0.453125q0.6875 0 1.046875 -0.328125q0.359375 -0.328125 0.359375 -0.84375q0 -0.703125 -0.65625 -1.0q-0.65625 -0.296875 -2.140625 -0.640625q-1.484375 -0.3125 -2.453125 -0.671875q-0.953125 -0.359375 -1.65625 -1.15625q-0.6875 -0.8125 -0.6875 -2.203125q0 -1.796875 1.359375 -2.90625q1.375 -1.125 3.859375 -1.125zm11.554352 0.171875l3.21875 8.203125l3.0 -8.203125l4.53125 0l-8.359375 19.78125l-4.5 0l3.140625 -6.890625l-5.625 -12.890625l4.59375 0zm23.48468 -1.828125q-1.0 0 -1.453125 0.4375q-0.453125 0.421875 -0.5 1.390625l2.421875 0l0 3.453125l-2.421875 0l0 9.9375l-4.109375 0l0 -9.9375l-1.609375 0l0 -3.453125l1.609375 0l0 -0.140625q0 -2.5 1.453125 -3.859375q1.453125 -1.359375 4.203125 -1.359375q0.578125 0 0.875 0.03125l0 3.53125l-0.46875 -0.03125zm8.535095 1.65625q1.984375 0 3.546875 0.828125q1.578125 0.828125 2.46875 2.390625q0.90625 1.5625 0.90625 3.640625q0 2.09375 -0.90625 3.65625q-0.890625 1.5625 -2.46875 2.390625q-1.5625 0.828125 -3.546875 0.828125q-2.0 0 -3.59375 -0.828125q-1.578125 -0.828125 -2.484375 -2.390625q-0.890625 -1.5625 -0.890625 -3.65625q0 -2.078125 0.890625 -3.640625q0.90625 -1.5625 2.484375 -2.390625q1.59375 -0.828125 3.59375 -0.828125zm0 3.546875q-1.1875 0 -2.0 0.859375q-0.796875 0.859375 -0.796875 2.453125q0 1.609375 0.796875 2.453125q0.8125 0.84375 2.0 0.84375q1.171875 0 1.953125 -0.84375q0.796875 -0.84375 0.796875 -2.453125q0 -1.59375 -0.796875 -2.453125q-0.78125 -0.859375 -1.953125 -0.859375zm13.164093 -0.859375q0.765625 -1.21875 1.984375 -1.9375q1.21875 -0.71875 2.625 -0.71875l0 4.390625l-1.171875 0q-1.640625 0 -2.546875 0.703125q-0.890625 0.6875 -0.890625 2.34375l0 6.09375l-4.09375 0l0 -13.390625l4.09375 0l0 2.515625zm26.411835 2.359375q0 2.484375 -1.078125 4.421875q-1.0625 1.9375 -3.078125 3.015625q-2.0 1.078125 -4.703125 1.078125l-6.40625 0l0 -16.96875l6.40625 0q2.734375 0 4.71875 1.0625q2.0 1.046875 3.0625 2.96875q1.078125 1.921875 1.078125 4.421875zm-9.21875 4.84375q2.390625 0 3.71875 -1.265625q1.34375 -1.28125 1.34375 -3.578125q0 -2.3125 -1.34375 -3.578125q-1.328125 -1.28125 -3.71875 -1.28125l-1.953125 0l0 9.703125l1.953125 0zm24.263824 -3.390625q0 0.515625 -0.125 1.109375l-9.28125 0q0.0625 1.515625 0.75 2.171875q0.703125 0.65625 1.78125 0.65625q0.921875 0 1.515625 -0.453125q0.609375 -0.453125 0.796875 -1.171875l4.34375 0q-0.265625 1.40625 -1.15625 2.53125q-0.890625 1.109375 -2.265625 1.75q-1.359375 0.640625 -3.03125 0.640625q-1.96875 0 -3.5 -0.828125q-1.515625 -0.828125 -2.390625 -2.390625q-0.859375 -1.5625 -0.859375 -3.65625q0 -2.109375 0.84375 -3.65625q0.859375 -1.546875 2.390625 -2.375q1.546875 -0.828125 3.515625 -0.828125q1.984375 0 3.5 0.828125q1.515625 0.8125 2.34375 2.296875q0.828125 1.46875 0.828125 3.375zm-4.15625 -0.625q0.03125 -1.3125 -0.703125 -1.96875q-0.734375 -0.65625 -1.8125 -0.65625q-1.125 0 -1.875 0.671875q-0.75 0.671875 -0.84375 1.953125l5.234375 0zm12.480957 3.671875l2.90625 -9.375l4.359375 0l-4.75 13.390625l-5.078125 0l-4.765625 -13.390625l4.375 0l2.953125 9.375zm17.042938 -13.21875q2.390625 0 4.34375 1.125q1.96875 1.109375 3.09375 3.09375q1.125 1.96875 1.125 4.46875q0 2.5 -1.140625 4.5q-1.140625 1.984375 -3.09375 3.109375q-1.953125 1.109375 -4.328125 1.109375q-2.375 0 -4.34375 -1.109375q-1.953125 -1.125 -3.09375 -3.109375q-1.140625 -2.0 -1.140625 -4.5q0 -2.5 1.140625 -4.46875q1.140625 -1.984375 3.09375 -3.09375q1.96875 -1.125 4.34375 -1.125zm0 3.8125q-2.015625 0 -3.203125 1.3125q-1.1875 1.3125 -1.1875 3.5625q0 2.234375 1.1875 3.5625q1.1875 1.3125 3.203125 1.3125q1.984375 0 3.1875 -1.3125q1.203125 -1.328125 1.203125 -3.5625q0 -2.234375 -1.1875 -3.546875q-1.1875 -1.328125 -3.203125 -1.328125zm19.217224 -0.140625q1.65625 0 2.96875 0.828125q1.3125 0.828125 2.0625 2.375q0.75 1.546875 0.75 3.65625q0 2.09375 -0.75 3.65625q-0.75 1.5625 -2.0625 2.390625q-1.3125 0.828125 -2.96875 0.828125q-1.53125 0 -2.640625 -0.6875q-1.09375 -0.703125 -1.609375 -1.90625l0 8.8125l-4.09375 0l0 -19.78125l4.09375 0l0 2.421875q0.515625 -1.203125 1.609375 -1.890625q1.109375 -0.703125 2.640625 -0.703125zm-1.3125 3.609375q-1.296875 0 -2.125 0.875q-0.828125 0.875 -0.828125 2.375q0 1.5 0.828125 2.390625q0.828125 0.875 2.125 0.875q1.3125 0 2.109375 -0.859375q0.8125 -0.859375 0.8125 -2.40625q0 -1.53125 -0.8125 -2.390625q-0.796875 -0.859375 -2.109375 -0.859375zm14.100098 -3.609375q2.546875 0 4.0625 1.28125q1.53125 1.265625 1.921875 3.359375l-3.84375 0q-0.171875 -0.828125 -0.765625 -1.296875q-0.578125 -0.46875 -1.46875 -0.46875q-0.6875 0 -1.046875 0.3125q-0.359375 0.296875 -0.359375 0.84375q0 0.625 0.65625 0.9375q0.65625 0.3125 2.078125 0.625q1.53125 0.359375 2.515625 0.734375q0.984375 0.375 1.703125 1.21875q0.71875 0.828125 0.71875 2.25q0 1.15625 -0.625 2.046875q-0.625 0.875 -1.796875 1.390625q-1.171875 0.5 -2.78125 0.5q-2.71875 0 -4.359375 -1.203125q-1.625 -1.203125 -1.984375 -3.4375l3.96875 0q0.09375 0.875 0.71875 1.328125q0.640625 0.453125 1.65625 0.453125q0.6875 0 1.046875 -0.328125q0.359375 -0.328125 0.359375 -0.84375q0 -0.703125 -0.65625 -1.0q-0.65625 -0.296875 -2.140625 -0.640625q-1.484375 -0.3125 -2.453125 -0.671875q-0.953125 -0.359375 -1.65625 -1.15625q-0.6875 -0.8125 -0.6875 -2.203125q0 -1.796875 1.359375 -2.90625q1.375 -1.125 3.859375 -1.125zm11.101196 11.015625q0.71875 1.390625 0.71875 3.03125q0 1.65625 -0.875 2.734375q-0.875 1.078125 -2.734375 1.078125l0 -1.515625q0.65625 0 0.953125 -0.296875q0.296875 -0.28125 0.296875 -1.09375l0 -0.234375l-1.75 0l0 -3.703125l3.390625 0z" fill-rule="nonzero"/><path fill="#fd7a9e" d="m111.52683 51.632355q1.546875 0 2.640625 0.703125q1.109375 0.6875 1.640625 1.890625l0 -2.421875l4.078125 0l0 13.390625l-4.078125 0l0 -2.421875q-0.53125 1.203125 -1.640625 1.90625q-1.09375 0.6875 -2.640625 0.6875q-1.65625 0 -2.96875 -0.828125q-1.296875 -0.828125 -2.0625 -2.390625q-0.75 -1.5625 -0.75 -3.65625q0 -2.109375 0.75 -3.65625q0.765625 -1.546875 2.0625 -2.375q1.3125 -0.828125 2.96875 -0.828125zm1.328125 3.609375q-1.328125 0 -2.140625 0.859375q-0.796875 0.859375 -0.796875 2.390625q0 1.546875 0.796875 2.40625q0.8125 0.859375 2.140625 0.859375q1.296875 0 2.125 -0.875q0.828125 -0.890625 0.828125 -2.390625q0 -1.5 -0.828125 -2.375q-0.828125 -0.875 -2.125 -0.875zm14.725082 -3.609375q2.5468826 0 4.0625076 1.28125q1.53125 1.265625 1.921875 3.359375l-3.84375 0q-0.171875 -0.828125 -0.765625 -1.296875q-0.578125 -0.46875 -1.4687576 -0.46875q-0.6875 0 -1.046875 0.3125q-0.359375 0.296875 -0.359375 0.84375q0 0.625 0.65625 0.9375q0.65625 0.3125 2.0781326 0.625q1.53125 0.359375 2.515625 0.734375q0.984375 0.375 1.703125 1.21875q0.71875 0.828125 0.71875 2.25q0 1.15625 -0.625 2.046875q-0.625 0.875 -1.796875 1.390625q-1.171875 0.5 -2.78125 0.5q-2.7187576 0 -4.3593826 -1.203125q-1.625 -1.203125 -1.984375 -3.4375l3.96875 0q0.09375 0.875 0.71875 1.328125q0.640625 0.453125 1.6562576 0.453125q0.6875 0 1.046875 -0.328125q0.359375 -0.328125 0.359375 -0.84375q0 -0.703125 -0.65625 -1.0q-0.65625 -0.296875 -2.1406326 -0.640625q-1.484375 -0.3125 -2.453125 -0.671875q-0.953125 -0.359375 -1.65625 -1.15625q-0.6875 -0.8125 -0.6875 -2.203125q0 -1.796875 1.359375 -2.90625q1.375 -1.125 3.859375 -1.125zm12.869957 -3.59375q0 -0.9375 0.671875 -1.546875q0.671875 -0.609375 1.78125 -0.609375q1.09375 0 1.765625 0.609375q0.671875 0.609375 0.671875 1.546875q0 0.90625 -0.671875 1.515625q-0.671875 0.609375 -1.765625 0.609375q-1.109375 0 -1.78125 -0.609375q-0.671875 -0.609375 -0.671875 -1.515625zm4.484375 3.765625l0 13.390625l-4.09375 0l0 -13.390625l4.09375 0zm10.420349 9.859375l0 3.53125l-1.84375 0q-2.359375 0 -3.671875 -1.15625q-1.296875 -1.171875 -1.296875 -3.859375l0 -4.921875l-1.796875 0l0 -3.453125l1.796875 0l0 -3.296875l4.09375 0l0 3.296875l2.6875 0l0 3.453125l-2.6875 0l0 5.0q0 0.78125 0.328125 1.09375q0.328125 0.3125 1.09375 0.3125l1.296875 0zm6.719208 -13.625q0 -0.9375 0.671875 -1.546875q0.671875 -0.609375 1.78125 -0.609375q1.09375 0 1.765625 0.609375q0.671875 0.609375 0.671875 1.546875q0 0.90625 -0.671875 1.515625q-0.671875 0.609375 -1.765625 0.609375q-1.109375 0 -1.78125 -0.609375q-0.671875 -0.609375 -0.671875 -1.515625zm4.484375 3.765625l0 13.390625l-4.09375 0l0 -13.390625l4.09375 0zm7.701599 -0.171875q2.546875 0 4.0625 1.28125q1.53125 1.265625 1.921875 3.359375l-3.84375 0q-0.171875 -0.828125 -0.765625 -1.296875q-0.578125 -0.46875 -1.46875 -0.46875q-0.6875 0 -1.046875 0.3125q-0.359375 0.296875 -0.359375 0.84375q0 0.625 0.65625 0.9375q0.65625 0.3125 2.078125 0.625q1.53125 0.359375 2.515625 0.734375q0.984375 0.375 1.703125 1.21875q0.71875 0.828125 0.71875 2.25q0 1.15625 -0.625 2.046875q-0.625 0.875 -1.796875 1.390625q-1.171875 0.5 -2.78125 0.5q-2.71875 0 -4.359375 -1.203125q-1.625 -1.203125 -1.984375 -3.4375l3.96875 0q0.09375 0.875 0.71875 1.328125q0.640625 0.453125 1.65625 0.453125q0.6875 0 1.046875 -0.328125q0.359375 -0.328125 0.359375 -0.84375q0 -0.703125 -0.65625 -1.0q-0.65625 -0.296875 -2.140625 -0.640625q-1.484375 -0.3125 -2.453125 -0.671875q-0.953125 -0.359375 -1.65625 -1.15625q-0.6875 -0.8125 -0.6875 -2.203125q0 -1.796875 1.359375 -2.90625q1.375 -1.125 3.859375 -1.125zm20.8387 10.03125l0 3.53125l-1.84375 0q-2.359375 0 -3.671875 -1.15625q-1.296875 -1.171875 -1.296875 -3.859375l0 -4.921875l-1.796875 0l0 -3.453125l1.796875 0l0 -3.296875l4.09375 0l0 3.296875l2.6875 0l0 3.453125l-2.6875 0l0 5.0q0 0.78125 0.328125 1.09375q0.328125 0.3125 1.09375 0.3125l1.296875 0zm10.79422 -10.0q2.3125 0 3.65625 1.53125q1.359375 1.53125 1.359375 4.21875l0 7.78125l-4.09375 0l0 -7.296875q0 -1.34375 -0.71875 -2.09375q-0.703125 -0.765625 -1.875 -0.765625q-1.25 0 -1.984375 0.796875q-0.734375 0.796875 -0.734375 2.25l0 7.109375l-4.09375 0l0 -17.765625l4.09375 0l0 6.828125q0.578125 -1.203125 1.71875 -1.890625q1.140625 -0.703125 2.671875 -0.703125zm20.458328 6.46875q0 0.515625 -0.125 1.109375l-9.28125 0q0.0625 1.515625 0.75 2.171875q0.703125 0.65625 1.78125 0.65625q0.921875 0 1.515625 -0.453125q0.609375 -0.453125 0.796875 -1.171875l4.34375 0q-0.265625 1.40625 -1.15625 2.53125q-0.890625 1.109375 -2.265625 1.75q-1.359375 0.640625 -3.03125 0.640625q-1.96875 0 -3.5 -0.828125q-1.515625 -0.828125 -2.390625 -2.390625q-0.859375 -1.5625 -0.859375 -3.65625q0 -2.109375 0.84375 -3.65625q0.859375 -1.546875 2.390625 -2.375q1.546875 -0.828125 3.515625 -0.828125q1.984375 0 3.5 0.828125q1.515625 0.8125 2.34375 2.296875q0.828125 1.46875 0.828125 3.375zm-4.15625 -0.625q0.03125 -1.3125 -0.703125 -1.96875q-0.734375 -0.65625 -1.8125 -0.65625q-1.125 0 -1.875 0.671875q-0.75 0.671875 -0.84375 1.953125l5.234375 0zm5.902832 -9.46875q0 -0.9375 0.671875 -1.546875q0.671875 -0.609375 1.78125 -0.609375q1.09375 0 1.765625 0.609375q0.671875 0.609375 0.671875 1.546875q0 0.90625 -0.671875 1.515625q-0.671875 0.609375 -1.765625 0.609375q-1.109375 0 -1.78125 -0.609375q-0.671875 -0.609375 -0.671875 -1.515625zm4.484375 3.765625l0 13.390625l-4.09375 0l0 -13.390625l4.09375 0zm6.935974 2.515625q0.765625 -1.21875 1.984375 -1.9375q1.21875 -0.71875 2.625 -0.71875l0 4.390625l-1.171875 0q-1.640625 0 -2.546875 0.703125q-0.890625 0.6875 -0.890625 2.34375l0 6.09375l-4.09375 0l0 -13.390625l4.09375 0l0 2.515625zm16.224335 -2.6875q1.5468597 0 2.6406097 0.703125q1.109375 0.6875 1.640625 1.890625l0 -2.421875l4.078125 0l0 13.390625l-4.078125 0l0 -2.421875q-0.53125 1.203125 -1.640625 1.90625q-1.09375 0.6875 -2.6406097 0.6875q-1.65625 0 -2.96875 -0.828125q-1.296875 -0.828125 -2.0625 -2.390625q-0.75 -1.5625 -0.75 -3.65625q0 -2.109375 0.75 -3.65625q0.765625 -1.546875 2.0625 -2.375q1.3125 -0.828125 2.96875 -0.828125zm1.3281097 3.609375q-1.3281097 0 -2.1406097 0.859375q-0.796875 0.859375 -0.796875 2.390625q0 1.546875 0.796875 2.40625q0.8125 0.859375 2.1406097 0.859375q1.296875 0 2.125 -0.875q0.828125 -0.890625 0.828125 -2.390625q0 -1.5 -0.828125 -2.375q-0.828125 -0.875 -2.125 -0.875zm18.209473 -3.609375q1.65625 0 2.96875 0.828125q1.3125 0.828125 2.0625 2.375q0.75 1.546875 0.75 3.65625q0 2.09375 -0.75 3.65625q-0.75 1.5625 -2.0625 2.390625q-1.3125 0.828125 -2.96875 0.828125q-1.53125 0 -2.640625 -0.6875q-1.09375 -0.703125 -1.609375 -1.90625l0 2.421875l-4.09375 0l0 -17.765625l4.09375 0l0 6.796875q0.515625 -1.203125 1.609375 -1.890625q1.109375 -0.703125 2.640625 -0.703125zm-1.3125 3.609375q-1.296875 0 -2.125 0.875q-0.828125 0.875 -0.828125 2.375q0 1.5 0.828125 2.390625q0.828125 0.875 2.125 0.875q1.3125 0 2.109375 -0.859375q0.8125 -0.859375 0.8125 -2.40625q0 -1.53125 -0.8125 -2.390625q-0.796875 -0.859375 -2.109375 -0.859375zm8.850067 -7.203125q0 -0.9375 0.671875 -1.546875q0.671875 -0.609375 1.78125 -0.609375q1.09375 0 1.765625 0.609375q0.671875 0.609375 0.671875 1.546875q0 0.90625 -0.671875 1.515625q-0.671875 0.609375 -1.765625 0.609375q-1.109375 0 -1.78125 -0.609375q-0.671875 -0.609375 -0.671875 -1.515625zm4.484375 3.765625l0 13.390625l-4.09375 0l0 -13.390625l4.09375 0zm6.935974 -4.375l0 17.765625l-4.09375 0l0 -17.765625l4.09375 0zm2.4515991 0.609375q0 -0.9375 0.671875 -1.546875q0.671875 -0.609375 1.78125 -0.609375q1.09375 0 1.765625 0.609375q0.671875 0.609375 0.671875 1.546875q0 0.90625 -0.671875 1.515625q-0.671875 0.609375 -1.765625 0.609375q-1.109375 0 -1.78125 -0.609375q-0.671875 -0.609375 -0.671875 -1.515625zm4.484375 3.765625l0 13.390625l-4.09375 0l0 -13.390625l4.09375 0zm10.420349 9.859375l0 3.53125l-1.84375 0q-2.359375 0 -3.671875 -1.15625q-1.296875 -1.171875 -1.296875 -3.859375l0 -4.921875l-1.796875 0l0 -3.453125l1.796875 0l0 -3.296875l4.09375 0l0 3.296875l2.6875 0l0 3.453125l-2.6875 0l0 5.0q0 0.78125 0.328125 1.09375q0.328125 0.3125 1.09375 0.3125l1.296875 0zm5.4036255 -9.859375l3.21875 8.203125l3.0 -8.203125l4.53125 0l-8.359375 19.78125l-4.5 0l3.140625 -6.890625l-5.6250305 -12.890625l4.5937805 0zm24.500305 9.859375l0 3.53125l-1.84375 0q-2.359375 0 -3.671875 -1.15625q-1.296875 -1.171875 -1.296875 -3.859375l0 -4.921875l-1.796875 0l0 -3.453125l1.796875 0l0 -3.296875l4.09375 0l0 3.296875l2.6875 0l0 3.453125l-2.6875 0l0 5.0q0 0.78125 0.328125 1.09375q0.328125 0.3125 1.09375 0.3125l1.296875 0zm8.57547 -10.03125q1.984375 0 3.546875 0.828125q1.578125 0.828125 2.46875 2.390625q0.90625 1.5625 0.90625 3.640625q0 2.09375 -0.90625 3.65625q-0.890625 1.5625 -2.46875 2.390625q-1.5625 0.828125 -3.546875 0.828125q-2.0 0 -3.59375 -0.828125q-1.578125 -0.828125 -2.484375 -2.390625q-0.890625 -1.5625 -0.890625 -3.65625q0 -2.078125 0.890625 -3.640625q0.90625 -1.5625 2.484375 -2.390625q1.59375 -0.828125 3.59375 -0.828125zm0 3.546875q-1.1875 0 -2.0 0.859375q-0.796875 0.859375 -0.796875 2.453125q0 1.609375 0.796875 2.453125q0.8125 0.84375 2.0 0.84375q1.171875 0 1.953125 -0.84375q0.796875 -0.84375 0.796875 -2.453125q0 -1.59375 -0.796875 -2.453125q-0.78125 -0.859375 -1.953125 -0.859375zm33.448456 -3.375l-3.4375 13.390625l-4.578125 0l-2.421875 -8.96875l-2.453125 8.96875l-4.578125 0l-3.4375 -13.390625l4.109375 0l1.765625 9.640625l2.5 -9.640625l4.375 0l2.5625 9.671875l1.78125 -9.671875l3.8125 0zm7.7594604 -0.171875q1.984375 0 3.546875 0.828125q1.578125 0.828125 2.46875 2.390625q0.90625 1.5625 0.90625 3.640625q0 2.09375 -0.90625 3.65625q-0.890625 1.5625 -2.46875 2.390625q-1.5625 0.828125 -3.546875 0.828125q-2.0 0 -3.59375 -0.828125q-1.578125 -0.828125 -2.484375 -2.390625q-0.890625 -1.5625 -0.890625 -3.65625q0 -2.078125 0.890625 -3.640625q0.90625 -1.5625 2.484375 -2.390625q1.59375 -0.828125 3.59375 -0.828125zm0 3.546875q-1.1875 0 -2.0 0.859375q-0.796875 0.859375 -0.796875 2.453125q0 1.609375 0.796875 2.453125q0.8125 0.84375 2.0 0.84375q1.171875 0 1.953125 -0.84375q0.796875 -0.84375 0.796875 -2.453125q0 -1.59375 -0.796875 -2.453125q-0.78125 -0.859375 -1.953125 -0.859375zm13.1640625 -0.859375q0.765625 -1.21875 1.984375 -1.9375q1.21875 -0.71875 2.625 -0.71875l0 4.390625l-1.171875 0q-1.640625 0 -2.546875 0.703125q-0.890625 0.6875 -0.890625 2.34375l0 6.09375l-4.09375 0l0 -13.390625l4.09375 0l0 2.515625zm14.455566 10.875l-4.015625 -5.6875l0 5.6875l-4.09375 0l0 -17.765625l4.09375 0l0 9.75l4.015625 -5.375l4.828125 0l-5.40625 6.6875l5.515625 6.703125l-4.9375 0zm16.60962 -13.515625q2.6875 0 3.984375 2.0625l0 -1.9375l4.078125 0l0 19.78125l-4.078125 0l0 -8.546875q-1.390625 2.296875 -3.984375 2.296875q-1.6875 0 -3.0625 -0.84375q-1.375 -0.859375 -2.203125 -2.390625q-0.8125 -1.53125 -0.8125 -3.53125q0 -1.984375 0.8125 -3.5625q0.828125 -1.578125 2.21875 -2.453125q1.390625 -0.875 3.046875 -0.875zm1.03125 3.578125q-1.203125 0 -2.078125 0.859375q-0.859375 0.84375 -0.859375 2.453125q0 1.578125 0.84375 2.390625q0.859375 0.796875 2.09375 0.796875q1.203125 0 2.078125 -0.84375q0.875 -0.859375 0.875 -2.421875q0 -1.546875 -0.875 -2.390625q-0.875 -0.84375 -2.078125 -0.84375zm23.178223 -3.453125l0 13.390625l-4.125 0l0 -2.421875q-0.578125 1.171875 -1.71875 1.875q-1.140625 0.6875 -2.65625 0.6875q-2.296875 0 -3.65625 -1.53125q-1.359375 -1.53125 -1.359375 -4.21875l0 -7.78125l4.078125 0l0 7.265625q0 1.375 0.703125 2.140625q0.71875 0.75 1.921875 0.75q1.25 0 1.96875 -0.796875q0.71875 -0.796875 0.71875 -2.25l0 -7.109375l4.125 0zm2.4487915 -3.765625q0 -0.9375 0.671875 -1.546875q0.671875 -0.609375 1.78125 -0.609375q1.09375 0 1.765625 0.609375q0.671875 0.609375 0.671875 1.546875q0 0.90625 -0.671875 1.515625q-0.671875 0.609375 -1.765625 0.609375q-1.109375 0 -1.78125 -0.609375q-0.671875 -0.609375 -0.671875 -1.515625zm4.484375 3.765625l0 13.390625l-4.09375 0l0 -13.390625l4.09375 0zm8.889099 -0.171875q2.59375 0 4.34375 1.4375q1.75 1.421875 2.203125 3.921875l-4.34375 0q-0.1875 -0.875 -0.796875 -1.34375q-0.59375 -0.484375 -1.5 -0.484375q-1.09375 0 -1.796875 0.859375q-0.6875 0.84375 -0.6875 2.46875q0 1.640625 0.6875 2.5q0.703125 0.84375 1.796875 0.84375q0.90625 0 1.5 -0.46875q0.609375 -0.484375 0.796875 -1.359375l4.34375 0q-0.453125 2.5 -2.203125 3.9375q-1.75 1.421875 -4.34375 1.421875q-1.96875 0 -3.5 -0.828125q-1.515625 -0.828125 -2.390625 -2.390625q-0.859375 -1.5625 -0.859375 -3.65625q0 -2.109375 0.84375 -3.65625q0.859375 -1.546875 2.390625 -2.375q1.546875 -0.828125 3.515625 -0.828125zm16.798462 13.5625l-4.015625 -5.6875l0 5.6875l-4.09375 0l0 -17.765625l4.09375 0l0 9.75l4.015625 -5.375l4.828125 0l-5.40625 6.6875l5.515625 6.703125l-4.9375 0zm10.528381 -17.765625l0 17.765625l-4.09375 0l0 -17.765625l4.09375 0zm5.935974 4.375l3.21875 8.203125l3.0 -8.203125l4.53125 0l-8.359375 19.78125l-4.5 0l3.140625 -6.890625l-5.625 -12.890625l4.59375 0zm14.762817 10.84375q0.71875 1.390625 0.71875 3.03125q0 1.65625 -0.875 2.734375q-0.875 1.078125 -2.734375 1.078125l0 -1.515625q0.65625 0 0.953125 -0.296875q0.296875 -0.28125 0.296875 -1.09375l0 -0.234375l-1.75 0l0 -3.703125l3.390625 0z" fill-rule="nonzero"/><path fill="#fd775e" d="m83.822945 90.663605l0 3.53125l-1.84375 0q-2.359375 0 -3.671875 -1.15625q-1.296875 -1.171875 -1.296875 -3.859375l0 -4.921875l-1.796875 0l0 -3.453125l1.796875 0l0 -3.296875l4.09375 0l0 3.296875l2.6875 0l0 3.453125l-2.6875 0l0 5.0q0 0.78125 0.328125 1.09375q0.328125 0.3125 1.09375 0.3125l1.296875 0zm10.79422 -10.0q2.3125 0 3.65625 1.53125q1.359375 1.53125 1.359375 4.21875l0 7.78125l-4.09375 0l0 -7.296875q0 -1.34375 -0.71875 -2.09375q-0.703125 -0.765625 -1.875 -0.765625q-1.25 0 -1.984375 0.796875q-0.734375 0.796875 -0.734375 2.25l0 7.109375l-4.09375 0l0 -17.765625l4.09375 0l0 6.828125q0.578125 -1.203125 1.71875 -1.890625q1.140625 -0.703125 2.671875 -0.703125zm12.817703 -0.03125q1.546875 0 2.640625 0.703125q1.109375 0.6875 1.640625 1.890625l0 -2.421875l4.078125 0l0 13.390625l-4.078125 0l0 -2.421875q-0.53125 1.203125 -1.640625 1.90625q-1.09375 0.6875 -2.640625 0.6875q-1.65625 0 -2.96875 -0.828125q-1.296875 -0.828125 -2.0625 -2.390625q-0.75 -1.5625 -0.75 -3.65625q0 -2.109375 0.75 -3.65625q0.765625 -1.546875 2.0625 -2.375q1.3125 -0.828125 2.96875 -0.828125zm1.328125 3.609375q-1.328125 0 -2.140625 0.859375q-0.796875 0.859375 -0.796875 2.390625q0 1.546875 0.796875 2.40625q0.8125 0.859375 2.140625 0.859375q1.296875 0 2.125 -0.875q0.828125 -0.890625 0.828125 -2.390625q0 -1.5 -0.828125 -2.375q-0.828125 -0.875 -2.125 -0.875zm17.443832 6.421875l0 3.53125l-1.84375 0q-2.359375 0 -3.671875 -1.15625q-1.296875 -1.171875 -1.296875 -3.859375l0 -4.921875l-1.796875 0l0 -3.453125l1.796875 0l0 -3.296875l4.09375 0l0 3.296875l2.6875 0l0 3.453125l-2.6875 0l0 5.0q0 0.78125 0.328125 1.09375q0.328125 0.3125 1.09375 0.3125l1.296875 0zm12.187965 -10.03125q1.546875 0 2.640625 0.703125q1.109375 0.6875 1.609375 1.890625l0 -6.796875l4.109375 0l0 17.765625l-4.109375 0l0 -2.421875q-0.5 1.203125 -1.609375 1.90625q-1.09375 0.6875 -2.640625 0.6875q-1.65625 0 -2.96875 -0.828125q-1.296875 -0.828125 -2.0625 -2.390625q-0.75 -1.5625 -0.75 -3.65625q0 -2.109375 0.75 -3.65625q0.765625 -1.546875 2.0625 -2.375q1.3125 -0.828125 2.96875 -0.828125zm1.328125 3.609375q-1.328125 0 -2.140625 0.859375q-0.796875 0.859375 -0.796875 2.390625q0 1.546875 0.796875 2.40625q0.8125 0.859375 2.140625 0.859375q1.296875 0 2.125 -0.875q0.828125 -0.890625 0.828125 -2.390625q0 -1.5 -0.828125 -2.375q-0.828125 -0.875 -2.125 -0.875zm22.584457 2.890625q0 0.515625 -0.125 1.109375l-9.28125 0q0.0625 1.515625 0.75 2.171875q0.703125 0.65625 1.78125 0.65625q0.921875 0 1.515625 -0.453125q0.609375 -0.453125 0.796875 -1.171875l4.34375 0q-0.265625 1.40625 -1.15625 2.53125q-0.890625 1.109375 -2.265625 1.75q-1.359375 0.640625 -3.03125 0.640625q-1.96875 0 -3.5 -0.828125q-1.515625 -0.828125 -2.390625 -2.390625q-0.859375 -1.5625 -0.859375 -3.65625q0 -2.109375 0.84375 -3.65625q0.859375 -1.546875 2.390625 -2.375q1.546875 -0.828125 3.515625 -0.828125q1.984375 0 3.5 0.828125q1.515625 0.8125 2.34375 2.296875q0.828125 1.46875 0.828125 3.375zm-4.15625 -0.625q0.03125 -1.3125 -0.703125 -1.96875q-0.734375 -0.65625 -1.8125 -0.65625q-1.125 0 -1.875 0.671875q-0.75 0.671875 -0.84375 1.953125l5.234375 0zm12.340332 -5.875q2.59375 0 4.34375 1.4375q1.75 1.421875 2.203125 3.921875l-4.34375 0q-0.1875 -0.875 -0.796875 -1.34375q-0.59375 -0.484375 -1.5 -0.484375q-1.09375 0 -1.796875 0.859375q-0.6875 0.84375 -0.6875 2.46875q0 1.640625 0.6875 2.5q0.703125 0.84375 1.796875 0.84375q0.90625 0 1.5 -0.46875q0.609375 -0.484375 0.796875 -1.359375l4.34375 0q-0.453125 2.5 -2.203125 3.9375q-1.75 1.421875 -4.34375 1.421875q-1.96875 0 -3.5 -0.828125q-1.515625 -0.828125 -2.390625 -2.390625q-0.859375 -1.5625 -0.859375 -3.65625q0 -2.109375 0.84375 -3.65625q0.859375 -1.546875 2.390625 -2.375q1.546875 -0.828125 3.515625 -0.828125zm8.298462 -3.59375q0 -0.9375 0.671875 -1.546875q0.671875 -0.609375 1.78125 -0.609375q1.09375 0 1.765625 0.609375q0.671875 0.609375 0.671875 1.546875q0 0.90625 -0.671875 1.515625q-0.671875 0.609375 -1.765625 0.609375q-1.109375 0 -1.78125 -0.609375q-0.671875 -0.609375 -0.671875 -1.515625zm4.484375 3.765625l0 13.390625l-4.09375 0l0 -13.390625l4.09375 0zm7.920349 -0.171875q1.546875 0 2.640625 0.703125q1.109375 0.6875 1.609375 1.890625l0 -6.796875l4.109375 0l0 17.765625l-4.109375 0l0 -2.421875q-0.5 1.203125 -1.609375 1.90625q-1.09375 0.6875 -2.640625 0.6875q-1.65625 0 -2.96875 -0.828125q-1.296875 -0.828125 -2.0625 -2.390625q-0.75 -1.5625 -0.75 -3.65625q0 -2.109375 0.75 -3.65625q0.765625 -1.546875 2.0625 -2.375q1.3125 -0.828125 2.96875 -0.828125zm1.328125 3.609375q-1.328125 0 -2.140625 0.859375q-0.796875 0.859375 -0.796875 2.390625q0 1.546875 0.796875 2.40625q0.8125 0.859375 2.140625 0.859375q1.296875 0 2.125 -0.875q0.828125 -0.890625 0.828125 -2.390625q0 -1.5 -0.828125 -2.375q-0.828125 -0.875 -2.125 -0.875zm22.584457 2.890625q0 0.515625 -0.125 1.109375l-9.28125 0q0.0625 1.515625 0.75 2.171875q0.703125 0.65625 1.78125 0.65625q0.921875 0 1.515625 -0.453125q0.609375 -0.453125 0.796875 -1.171875l4.34375 0q-0.265625 1.40625 -1.15625 2.53125q-0.890625 1.109375 -2.265625 1.75q-1.359375 0.640625 -3.03125 0.640625q-1.96875 0 -3.5 -0.828125q-1.515625 -0.828125 -2.390625 -2.390625q-0.859375 -1.5625 -0.859375 -3.65625q0 -2.109375 0.84375 -3.65625q0.859375 -1.546875 2.390625 -2.375q1.546875 -0.828125 3.515625 -0.828125q1.984375 0 3.5 0.828125q1.515625 0.8125 2.34375 2.296875q0.828125 1.46875 0.828125 3.375zm-4.15625 -0.625q0.03125 -1.3125 -0.703125 -1.96875q-0.734375 -0.65625 -1.8125 -0.65625q-1.125 0 -1.875 0.671875q-0.75 0.671875 -0.84375 1.953125l5.234375 0zm11.152832 -5.875q2.546875 0 4.0625 1.28125q1.53125 1.265625 1.921875 3.359375l-3.84375 0q-0.171875 -0.828125 -0.765625 -1.296875q-0.578125 -0.46875 -1.46875 -0.46875q-0.6875 0 -1.046875 0.3125q-0.359375 0.296875 -0.359375 0.84375q0 0.625 0.65625 0.9375q0.65625 0.3125 2.078125 0.625q1.53125 0.359375 2.515625 0.734375q0.984375 0.375 1.703125 1.21875q0.71875 0.828125 0.71875 2.25q0 1.15625 -0.625 2.046875q-0.625 0.875 -1.796875 1.390625q-1.171875 0.5 -2.78125 0.5q-2.71875 0 -4.359375 -1.203125q-1.625 -1.203125 -1.984375 -3.4375l3.96875 0q0.09375 0.875 0.71875 1.328125q0.640625 0.453125 1.65625 0.453125q0.6875 0 1.046875 -0.328125q0.359375 -0.328125 0.359375 -0.84375q0 -0.703125 -0.65625 -1.0q-0.65625 -0.296875 -2.140625 -0.640625q-1.484375 -0.3125 -2.453125 -0.671875q-0.953125 -0.359375 -1.65625 -1.15625q-0.6875 -0.8125 -0.6875 -2.203125q0 -1.796875 1.359375 -2.90625q1.375 -1.125 3.859375 -1.125zm21.74495 0.03125q2.3125 0 3.65625 1.53125q1.359375 1.53125 1.359375 4.21875l0 7.78125l-4.09375 0l0 -7.296875q0 -1.34375 -0.71875 -2.09375q-0.703125 -0.765625 -1.875 -0.765625q-1.25 0 -1.984375 0.796875q-0.734375 0.796875 -0.734375 2.25l0 7.109375l-4.09375 0l0 -17.765625l4.09375 0l0 6.828125q0.578125 -1.203125 1.71875 -1.890625q1.140625 -0.703125 2.671875 -0.703125zm14.005188 -0.03125q1.984375 0 3.546875 0.828125q1.578125 0.828125 2.46875 2.390625q0.90625 1.5625 0.90625 3.640625q0 2.09375 -0.90625 3.65625q-0.890625 1.5625 -2.46875 2.390625q-1.5625 0.828125 -3.546875 0.828125q-1.9999847 0 -3.5937347 -0.828125q-1.578125 -0.828125 -2.484375 -2.390625q-0.890625 -1.5625 -0.890625 -3.65625q0 -2.078125 0.890625 -3.640625q0.90625 -1.5625 2.484375 -2.390625q1.59375 -0.828125 3.5937347 -0.828125zm0 3.546875q-1.1875 0 -1.9999847 0.859375q-0.796875 0.859375 -0.796875 2.453125q0 1.609375 0.796875 2.453125q0.81248474 0.84375 1.9999847 0.84375q1.171875 0 1.953125 -0.84375q0.796875 -0.84375 0.796875 -2.453125q0 -1.59375 -0.796875 -2.453125q-0.78125 -0.859375 -1.953125 -0.859375zm28.648468 -3.375l-3.4375 13.390625l-4.578125 0l-2.421875 -8.96875l-2.453125 8.96875l-4.578125 0l-3.4375 -13.390625l4.109375 0l1.765625 9.640625l2.5 -9.640625l4.375 0l2.5625 9.671875l1.78125 -9.671875l3.8125 0zm12.559418 -0.171875q1.984375 0 3.546875 0.828125q1.578125 0.828125 2.46875 2.390625q0.90625 1.5625 0.90625 3.640625q0 2.09375 -0.90625 3.65625q-0.890625 1.5625 -2.46875 2.390625q-1.5625 0.828125 -3.546875 0.828125q-2.0 0 -3.59375 -0.828125q-1.578125 -0.828125 -2.484375 -2.390625q-0.890625 -1.5625 -0.890625 -3.65625q0 -2.078125 0.890625 -3.640625q0.90625 -1.5625 2.484375 -2.390625q1.59375 -0.828125 3.59375 -0.828125zm0 3.546875q-1.1875 0 -2.0 0.859375q-0.796875 0.859375 -0.796875 2.453125q0 1.609375 0.796875 2.453125q0.8125 0.84375 2.0 0.84375q1.171875 0 1.953125 -0.84375q0.796875 -0.84375 0.796875 -2.453125q0 -1.59375 -0.796875 -2.453125q-0.78125 -0.859375 -1.953125 -0.859375zm15.632843 -5.203125q-1.0 0 -1.453125 0.4375q-0.453125 0.421875 -0.5 1.390625l2.421875 0l0 3.453125l-2.421875 0l0 9.9375l-4.109375 0l0 -9.9375l-1.609375 0l0 -3.453125l1.609375 0l0 -0.140625q0 -2.5 1.453125 -3.859375q1.453125 -1.359375 4.203125 -1.359375q0.578125 0 0.875 0.03125l0 3.53125l-0.46875 -0.03125zm9.847595 11.6875l0 3.53125l-1.84375 0q-2.359375 0 -3.671875 -1.15625q-1.296875 -1.171875 -1.296875 -3.859375l0 -4.921875l-1.796875 0l0 -3.453125l1.796875 0l0 -3.296875l4.09375 0l0 3.296875l2.6875 0l0 3.453125l-2.6875 0l0 5.0q0 0.78125 0.328125 1.09375q0.328125 0.3125 1.09375 0.3125l1.296875 0zm15.028595 -3.53125q0 0.515625 -0.125 1.109375l-9.28125 0q0.0625 1.515625 0.75 2.171875q0.703125 0.65625 1.78125 0.65625q0.921875 0 1.515625 -0.453125q0.609375 -0.453125 0.796875 -1.171875l4.34375 0q-0.265625 1.40625 -1.15625 2.53125q-0.890625 1.109375 -2.265625 1.75q-1.359375 0.640625 -3.03125 0.640625q-1.96875 0 -3.5 -0.828125q-1.515625 -0.828125 -2.390625 -2.390625q-0.859375 -1.5625 -0.859375 -3.65625q0 -2.109375 0.84375 -3.65625q0.859375 -1.546875 2.390625 -2.375q1.546875 -0.828125 3.515625 -0.828125q1.984375 0 3.5 0.828125q1.515625 0.8125 2.34375 2.296875q0.828125 1.46875 0.828125 3.375zm-4.15625 -0.625q0.03125 -1.3125 -0.703125 -1.96875q-0.734375 -0.65625 -1.8125 -0.65625q-1.125 0 -1.875 0.671875q-0.75 0.671875 -0.84375 1.953125l5.234375 0zm14.777832 -5.84375q2.3125 0 3.65625 1.53125q1.359375 1.53125 1.359375 4.21875l0 7.78125l-4.09375 0l0 -7.296875q0 -1.34375 -0.71875 -2.09375q-0.703125 -0.765625 -1.875 -0.765625q-1.25 0 -1.984375 0.796875q-0.734375 0.796875 -0.734375 2.25l0 7.109375l-4.09375 0l0 -13.390625l4.09375 0l0 2.453125q0.578125 -1.203125 1.71875 -1.890625q1.140625 -0.703125 2.671875 -0.703125zm15.633301 0.140625l3.21875 8.203125l3.0 -8.203125l4.53125 0l-8.359375 19.78125l-4.5 0l3.140625 -6.890625l-5.625 -12.890625l4.59375 0zm18.387817 -0.171875q1.984375 0 3.546875 0.828125q1.578125 0.828125 2.46875 2.390625q0.90625 1.5625 0.90625 3.640625q0 2.09375 -0.90625 3.65625q-0.890625 1.5625 -2.46875 2.390625q-1.5625 0.828125 -3.546875 0.828125q-2.0 0 -3.59375 -0.828125q-1.578125 -0.828125 -2.484375 -2.390625q-0.890625 -1.5625 -0.890625 -3.65625q0 -2.078125 0.890625 -3.640625q0.90625 -1.5625 2.484375 -2.390625q1.59375 -0.828125 3.59375 -0.828125zm0 3.546875q-1.1875 0 -2.0 0.859375q-0.796875 0.859375 -0.796875 2.453125q0 1.609375 0.796875 2.453125q0.8125 0.84375 2.0 0.84375q1.171875 0 1.953125 -0.84375q0.796875 -0.84375 0.796875 -2.453125q0 -1.59375 -0.796875 -2.453125q-0.78125 -0.859375 -1.953125 -0.859375zm22.382812 -3.375l0 13.390625l-4.125 0l0 -2.421875q-0.578125 1.171875 -1.71875 1.875q-1.140625 0.6875 -2.65625 0.6875q-2.296875 0 -3.65625 -1.53125q-1.359375 -1.53125 -1.359375 -4.21875l0 -7.78125l4.078125 0l0 7.265625q0 1.375 0.703125 2.140625q0.71875 0.75 1.921875 0.75q1.25 0 1.96875 -0.796875q0.71875 -0.796875 0.71875 -2.25l0 -7.109375l4.125 0zm13.68634 -0.171875q2.59375 0 4.34375 1.4375q1.75 1.421875 2.203125 3.921875l-4.34375 0q-0.1875 -0.875 -0.796875 -1.34375q-0.59375 -0.484375 -1.5 -0.484375q-1.09375 0 -1.796875 0.859375q-0.6875 0.84375 -0.6875 2.46875q0 1.640625 0.6875 2.5q0.703125 0.84375 1.796875 0.84375q0.90625 0 1.5 -0.46875q0.609375 -0.484375 0.796875 -1.359375l4.34375 0q-0.453125 2.5 -2.203125 3.9375q-1.75 1.421875 -4.34375 1.421875q-1.96875 0 -3.5 -0.828125q-1.515625 -0.828125 -2.390625 -2.390625q-0.859375 -1.5625 -0.859375 -3.65625q0 -2.109375 0.84375 -3.65625q0.859375 -1.546875 2.390625 -2.375q1.546875 -0.828125 3.515625 -0.828125zm13.767212 0q1.546875 0 2.640625 0.703125q1.109375 0.6875 1.640625 1.890625l0 -2.421875l4.078125 0l0 13.390625l-4.078125 0l0 -2.421875q-0.53125 1.203125 -1.640625 1.90625q-1.09375 0.6875 -2.640625 0.6875q-1.65625 0 -2.96875 -0.828125q-1.296875 -0.828125 -2.0625 -2.390625q-0.75 -1.5625 -0.75 -3.65625q0 -2.109375 0.75 -3.65625q0.765625 -1.546875 2.0625 -2.375q1.3125 -0.828125 2.96875 -0.828125zm1.328125 3.609375q-1.328125 0 -2.140625 0.859375q-0.796875 0.859375 -0.796875 2.390625q0 1.546875 0.796875 2.40625q0.8125 0.859375 2.140625 0.859375q1.296875 0 2.125 -0.875q0.828125 -0.890625 0.828125 -2.390625q0 -1.5 -0.828125 -2.375q-0.828125 -0.875 -2.125 -0.875zm18.350037 -3.578125q2.3125 0 3.65625 1.53125q1.359375 1.53125 1.359375 4.21875l0 7.78125l-4.09375 0l0 -7.296875q0 -1.34375 -0.71875 -2.09375q-0.703125 -0.765625 -1.875 -0.765625q-1.25 0 -1.984375 0.796875q-0.734375 0.796875 -0.734375 2.25l0 7.109375l-4.09375 0l0 -13.390625l4.09375 0l0 2.453125q0.578125 -1.203125 1.71875 -1.890625q1.140625 -0.703125 2.671875 -0.703125zm17.617676 -0.03125q1.546875 0 2.640625 0.703125q1.109375 0.6875 1.609375 1.890625l0 -6.796875l4.109375 0l0 17.765625l-4.109375 0l0 -2.421875q-0.5 1.203125 -1.609375 1.90625q-1.09375 0.6875 -2.640625 0.6875q-1.65625 0 -2.96875 -0.828125q-1.296875 -0.828125 -2.0625 -2.390625q-0.75 -1.5625 -0.75 -3.65625q0 -2.109375 0.75 -3.65625q0.765625 -1.546875 2.0625 -2.375q1.3125 -0.828125 2.96875 -0.828125zm1.328125 3.609375q-1.328125 0 -2.140625 0.859375q-0.796875 0.859375 -0.796875 2.390625q0 1.546875 0.796875 2.40625q0.8125 0.859375 2.140625 0.859375q1.296875 0 2.125 -0.875q0.828125 -0.890625 0.828125 -2.390625q0 -1.5 -0.828125 -2.375q-0.828125 -0.875 -2.125 -0.875zm22.584473 2.890625q0 0.515625 -0.125 1.109375l-9.28125 0q0.0625 1.515625 0.75 2.171875q0.703125 0.65625 1.78125 0.65625q0.921875 0 1.515625 -0.453125q0.609375 -0.453125 0.796875 -1.171875l4.34375 0q-0.265625 1.40625 -1.15625 2.53125q-0.890625 1.109375 -2.265625 1.75q-1.359375 0.640625 -3.03125 0.640625q-1.96875 0 -3.5 -0.828125q-1.515625 -0.828125 -2.390625 -2.390625q-0.859375 -1.5625 -0.859375 -3.65625q0 -2.109375 0.84375 -3.65625q0.859375 -1.546875 2.390625 -2.375q1.546875 -0.828125 3.515625 -0.828125q1.984375 0 3.5 0.828125q1.515625 0.8125 2.34375 2.296875q0.828125 1.46875 0.828125 3.375zm-4.15625 -0.625q0.03125 -1.3125 -0.703125 -1.96875q-0.734375 -0.65625 -1.8125 -0.65625q-1.125 0 -1.875 0.671875q-0.75 0.671875 -0.84375 1.953125l5.234375 0zm14.637207 -5.875q1.65625 0 2.96875 0.828125q1.3125 0.828125 2.0625 2.375q0.75 1.546875 0.75 3.65625q0 2.09375 -0.75 3.65625q-0.75 1.5625 -2.0625 2.390625q-1.3125 0.828125 -2.96875 0.828125q-1.53125 0 -2.640625 -0.6875q-1.09375 -0.703125 -1.609375 -1.90625l0 8.8125l-4.09375 0l0 -19.78125l4.09375 0l0 2.421875q0.515625 -1.203125 1.609375 -1.890625q1.109375 -0.703125 2.640625 -0.703125zm-1.3125 3.609375q-1.296875 0 -2.125 0.875q-0.828125 0.875 -0.828125 2.375q0 1.5 0.828125 2.390625q0.828125 0.875 2.125 0.875q1.3125 0 2.109375 -0.859375q0.8125 -0.859375 0.8125 -2.40625q0 -1.53125 -0.8125 -2.390625q-0.796875 -0.859375 -2.109375 -0.859375zm13.334473 -7.8125l0 17.765625l-4.09375 0l0 -17.765625l4.09375 0zm9.107849 4.203125q1.984375 0 3.546875 0.828125q1.578125 0.828125 2.46875 2.390625q0.90625 1.5625 0.90625 3.640625q0 2.09375 -0.90625 3.65625q-0.890625 1.5625 -2.46875 2.390625q-1.5625 0.828125 -3.546875 0.828125q-2.0 0 -3.59375 -0.828125q-1.578125 -0.828125 -2.484375 -2.390625q-0.890625 -1.5625 -0.890625 -3.65625q0 -2.078125 0.890625 -3.640625q0.90625 -1.5625 2.484375 -2.390625q1.59375 -0.828125 3.59375 -0.828125zm0 3.546875q-1.1875 0 -2.0 0.859375q-0.796875 0.859375 -0.796875 2.453125q0 1.609375 0.796875 2.453125q0.8125 0.84375 2.0 0.84375q1.171875 0 1.953125 -0.84375q0.796875 -0.84375 0.796875 -2.453125q0 -1.59375 -0.796875 -2.453125q-0.78125 -0.859375 -1.953125 -0.859375zm12.1640625 -3.375l3.21875 8.203125l3.0 -8.203125l4.53125 0l-8.359375 19.78125l-4.5 0l3.140625 -6.890625l-5.625 -12.890625l4.59375 0zm15.637817 9.28125l0 4.109375l-4.234375 0l0 -4.109375l4.234375 0z" fill-rule="nonzero"/></g></svg>