<svg version="1.1" viewBox="0.0 0.0 684.9160104986877 191.03149606299212" fill="none" stroke="none" stroke-linecap="square" stroke-miterlimit="10" xmlns:xlink="http://www.w3.org/1999/xlink" xmlns="http://www.w3.org/2000/svg"><clipPath id="p.0"><path d="m0 0l684.916 0l0 191.0315l-684.916 0l0 -191.0315z" clip-rule="nonzero"/></clipPath><g clip-path="url(#p.0)"><path fill="#000000" fill-opacity="0.0" d="m0 0l684.916 0l0 191.0315l-684.916 0z" fill-rule="evenodd"/><path fill="#2165e3" d="m14.179875 48.73239l0 0c0 -2.9919624 2.4254656 -5.417431 5.41743 -5.417431l107.1179 0c1.4367905 0 2.8147354 0.57076263 3.830696 1.5867271c1.015976 1.0159683 1.586731 2.3939133 1.586731 3.8307037l0 21.669075c0 2.9919662 -2.4254608 5.4174347 -5.417427 5.4174347l-107.1179 0c-2.9919643 0 -5.41743 -2.4254684 -5.41743 -5.4174347z" fill-rule="evenodd"/><path fill="#ffffff" d="m55.342518 64.58568q-1.140625 0 -1.984375 -0.5625q-0.828125 -0.578125 -1.28125 -1.625q-0.4375 -1.0625 -0.4375 -2.546875q0 -1.5 0.421875 -2.5625q0.4375 -1.078125 1.25 -1.640625q0.8125 -0.578125 1.90625 -0.578125q1.140625 0 1.9375 0.5q0.8125 0.5 1.265625 1.40625l-0.796875 0.46875q-0.421875 -0.78125 -1.0 -1.125q-0.578125 -0.34375 -1.40625 -0.34375q-1.1875 0 -1.859375 1.03125q-0.671875 1.015625 -0.671875 2.828125q0 1.1875 0.3125 2.0625q0.3125 0.859375 0.875 1.328125q0.578125 0.453125 1.34375 0.453125q0.9375 0 1.453125 -0.421875q0.53125 -0.421875 0.984375 -1.3125l0.84375 0.5q-0.46875 1.046875 -1.265625 1.59375q-0.796875 0.546875 -1.890625 0.546875zm4.954117 -0.21875l0 -6.234375l0.90625 0l0 6.234375l-0.90625 0zm0.453125 -7.453125q-0.296875 0 -0.515625 -0.203125q-0.203125 -0.21875 -0.203125 -0.53125q0 -0.296875 0.203125 -0.5q0.21875 -0.203125 0.515625 -0.203125q0.296875 0 0.5 0.203125q0.21875 0.203125 0.21875 0.515625q0 0.296875 -0.21875 0.515625q-0.203125 0.203125 -0.5 0.203125zm5.6969337 1.0q0.3125 0 0.609375 0.09375l0 0.828125q-0.28125 -0.140625 -0.609375 -0.140625q-0.578125 0 -1.078125 0.328125q-0.484375 0.3125 -0.78125 0.921875q-0.296875 0.609375 -0.296875 1.4375l0 2.984375l-0.9062538 0l0 -6.234375l0.9062538 0l0 1.25q0.359375 -0.6875 0.90625 -1.078125q0.5625 -0.390625 1.25 -0.390625zm4.158844 6.671875q-0.90625 0 -1.625 -0.421875q-0.703125 -0.4375 -1.109375 -1.1875q-0.390625 -0.765625 -0.390625 -1.734375q0 -0.953125 0.390625 -1.703125q0.40625 -0.765625 1.109375 -1.1875q0.703125 -0.4375 1.59375 -0.4375q0.765625 0 1.328125 0.328125q0.5625 0.328125 1.03125 0.921875l-0.65625 0.53125q-0.65625 -0.953125 -1.703125 -0.953125q-0.625 0 -1.125 0.328125q-0.5 0.3125 -0.78125 0.890625q-0.28125 0.5625 -0.28125 1.28125q0 0.71875 0.28125 1.296875q0.28125 0.578125 0.78125 0.90625q0.5 0.3125 1.125 0.3125q0.640625 0 1.046875 -0.21875q0.421875 -0.21875 0.75 -0.65625l0.71875 0.5q-0.453125 0.546875 -1.09375 0.875q-0.640625 0.328125 -1.390625 0.328125zm3.7168732 -0.21875l0 -9.671875l0.90625 0l0 9.671875l-0.90625 0zm5.330597 -6.453125q0.8437424 0 1.5156174 0.421875q0.6875 0.40625 1.0625 1.125q0.390625 0.703125 0.390625 1.59375q0 0.25 -0.015625 0.375l-5.1249924 0q0.046875 0.96875 0.625 1.65625q0.578125 0.671875 1.5625 0.671875q0.7968674 0 1.3124924 -0.296875q0.53125 -0.3125 0.859375 -0.84375l0.71875 0.484375q-0.4375 0.6875 -1.15625 1.09375q-0.71875 0.390625 -1.7031174 0.390625q-0.90625 0 -1.625 -0.421875q-0.703125 -0.4375 -1.109375 -1.1875q-0.390625 -0.765625 -0.390625 -1.734375q0 -0.953125 0.390625 -1.703125q0.390625 -0.765625 1.09375 -1.1875q0.703125 -0.4375 1.59375 -0.4375zm2.0624924 2.78125q-0.125 -0.984375 -0.65625 -1.46875q-0.515625 -0.484375 -1.4062424 -0.484375q-0.859375 0 -1.421875 0.5625q-0.546875 0.546875 -0.703125 1.390625l4.1874924 0zm5.840988 3.890625q-1.140625 0 -1.984375 -0.5625q-0.828125 -0.578125 -1.28125 -1.625q-0.4375 -1.0625 -0.4375 -2.546875q0 -1.5 0.421875 -2.5625q0.4375 -1.078125 1.25 -1.640625q0.8125 -0.578125 1.90625 -0.578125q1.140625 0 1.9375 0.5q0.8125 0.5 1.265625 1.40625l-0.796875 0.46875q-0.421875 -0.78125 -1.0 -1.125q-0.578125 -0.34375 -1.40625 -0.34375q-1.1875 0 -1.859375 1.03125q-0.671875 1.015625 -0.671875 2.828125q0 1.1875 0.3125 2.0625q0.3125 0.859375 0.875 1.328125q0.578125 0.453125 1.34375 0.453125q0.9375 0 1.453125 -0.421875q0.53125 -0.421875 0.984375 -1.3125l0.84375 0.5q-0.46875 1.046875 -1.265625 1.59375q-0.796875 0.546875 -1.890625 0.546875zm4.360367 -0.21875l0 -0.875l0.875 0l0 -7.328125l-0.875 0l0 -0.890625l2.75 0l0 0.890625l-0.875 0l0 7.328125l0.875 0l0 0.875l-2.75 0z" fill-rule="nonzero"/><path fill="#fd7a9e" d="m385.07217 48.729767l0 0c0 -2.9919624 2.425476 -5.417431 5.41745 -5.417431l107.11789 0c1.4367981 0 2.8147278 0.57076263 3.8306885 1.5867271c1.0159912 1.0159683 1.586731 2.3939133 1.586731 3.8307037l0 21.669075c0 2.9919662 -2.4254456 5.4174347 -5.4174194 5.4174347l-107.11789 0c-2.9919739 0 -5.41745 -2.4254684 -5.41745 -5.4174347z" fill-rule="evenodd"/><path fill="#ffffff" d="m435.23627 59.47368q0.78125 0.203125 1.203125 0.78125q0.4375 0.5625 0.4375 1.5q0 1.203125 -0.734375 1.90625q-0.734375 0.703125 -2.015625 0.703125l-3.3125 0l0 -9.09375l3.0 0q1.21875 0 1.90625 0.640625q0.703125 0.625 0.703125 1.6875q0 0.671875 -0.3125 1.15625q-0.3125 0.484375 -0.875 0.71875zm-3.421875 -0.328125l2.125 0q1.421875 0 1.421875 -1.546875q0 -0.71875 -0.421875 -1.09375q-0.40625 -0.390625 -1.140625 -0.390625l-1.984375 0l0 3.03125zm2.171875 4.390625q0.859375 0 1.34375 -0.46875q0.484375 -0.484375 0.484375 -1.3125q0 -0.828125 -0.484375 -1.296875q-0.484375 -0.484375 -1.34375 -0.484375l-2.171875 0l0 3.5625l2.171875 0zm9.74408 -5.40625l0 6.234375l-0.90625 0l0 -1.046875q-0.3125 0.609375 -0.84375 0.9375q-0.53125 0.328125 -1.21875 0.328125q-0.65625 0 -1.203125 -0.265625q-0.546875 -0.265625 -0.875 -0.78125q-0.328125 -0.53125 -0.328125 -1.234375l0 -4.171875l0.90625 0l0 3.765625q0 1.859375 1.640625 1.859375q0.96875 0 1.4375 -0.671875q0.484375 -0.6875 0.484375 -1.84375l0 -3.109375l0.90625 0zm2.1727905 6.234375l0 -6.234375l0.90625 0l0 6.234375l-0.90625 0zm0.453125 -7.453125q-0.296875 0 -0.515625 -0.203125q-0.203125 -0.21875 -0.203125 -0.53125q0 -0.296875 0.203125 -0.5q0.21875 -0.203125 0.515625 -0.203125q0.296875 0 0.5 0.203125q0.21875 0.203125 0.21875 0.515625q0 0.296875 -0.21875 0.515625q-0.203125 0.203125 -0.5 0.203125zm2.69693 7.453125l0 -9.671875l0.90625 0l0 9.671875l-0.90625 0zm8.439972 -9.671875l0 9.671875l-0.90625 0l0 -0.921875q-0.390625 0.53125 -0.953125 0.84375q-0.5625 0.296875 -1.21875 0.296875q-0.890625 0 -1.609375 -0.421875q-0.703125 -0.4375 -1.109375 -1.1875q-0.390625 -0.765625 -0.390625 -1.734375q0 -0.96875 0.390625 -1.71875q0.390625 -0.75 1.09375 -1.171875q0.703125 -0.4375 1.59375 -0.4375q0.6875 0 1.25 0.3125q0.5625 0.296875 0.953125 0.84375l0 -4.375l0.90625 0zm-3.109375 9.0625q0.640625 0 1.140625 -0.3125q0.5 -0.328125 0.78125 -0.90625q0.28125 -0.578125 0.28125 -1.296875q0 -0.71875 -0.28125 -1.28125q-0.28125 -0.578125 -0.78125 -0.890625q-0.5 -0.328125 -1.140625 -0.328125q-0.625 0 -1.125 0.328125q-0.484375 0.3125 -0.765625 0.875q-0.28125 0.5625 -0.28125 1.296875q0 0.71875 0.28125 1.296875q0.28125 0.578125 0.765625 0.90625q0.5 0.3125 1.125 0.3125z" fill-rule="nonzero"/><path fill="#fb775e" d="m551.6207 48.729767l0 0c0 -2.9919624 2.425476 -5.417431 5.4174194 -5.417431l107.11792 0c1.4367676 0 2.8146973 0.57076263 3.8306885 1.5867271c1.0159912 1.0159683 1.586731 2.3939133 1.586731 3.8307037l0 21.669075c0 2.9919662 -2.425476 5.4174347 -5.4174194 5.4174347l-107.11792 0c-2.9919434 0 -5.4174194 -2.4254684 -5.4174194 -5.4174347z" fill-rule="evenodd"/><path fill="#ffffff" d="m597.86505 55.270554l3.046875 0q1.21875 0 1.953125 0.75q0.734375 0.75 0.734375 2.0625q0 1.3125 -0.765625 2.0625q-0.765625 0.734375 -2.03125 0.734375l-1.9375 0l0 3.484375l-1.0 0l0 -9.09375zm2.90625 4.78125q0.890625 0 1.359375 -0.484375q0.46875 -0.5 0.46875 -1.484375q0 -0.96875 -0.46875 -1.46875q-0.46875 -0.515625 -1.359375 -0.515625l-1.90625 0l0 3.953125l1.90625 0zm9.474243 -1.921875l0 6.234375l-0.90625 0l0 -1.046875q-0.3125 0.609375 -0.84375 0.9375q-0.53125 0.328125 -1.21875 0.328125q-0.65625 0 -1.203125 -0.265625q-0.546875 -0.265625 -0.875 -0.78125q-0.328125 -0.53125 -0.328125 -1.234375l0 -4.171875l0.90625 0l0 3.765625q0 1.859375 1.640625 1.859375q0.96875 0 1.4375 -0.671875q0.484375 -0.6875 0.484375 -1.84375l0 -3.109375l0.90625 0zm3.8759766 6.453125q-0.90625 0 -1.59375 -0.390625q-0.671875 -0.390625 -1.03125 -1.09375l0.8125 -0.40625q0.484375 1.0625 1.921875 1.0625q0.703125 0 1.15625 -0.25q0.453125 -0.265625 0.453125 -0.796875q0 -0.546875 -0.375 -0.8125q-0.359375 -0.265625 -1.28125 -0.34375q-1.28125 -0.109375 -1.84375 -0.578125q-0.546875 -0.46875 -0.546875 -1.234375q0 -0.859375 0.625 -1.34375q0.625 -0.484375 1.71875 -0.484375q1.859375 0 2.53125 1.46875l-0.8125 0.40625q-0.234375 -0.546875 -0.671875 -0.796875q-0.421875 -0.25 -1.109375 -0.25q-0.6875 0 -1.0625 0.25q-0.359375 0.25 -0.359375 0.71875q0 0.4375 0.390625 0.71875q0.390625 0.265625 1.359375 0.359375q1.171875 0.09375 1.75 0.578125q0.59375 0.46875 0.59375 1.234375q0 0.625 -0.359375 1.078125q-0.359375 0.453125 -0.96875 0.6875q-0.59375 0.21875 -1.296875 0.21875zm6.965454 -6.671875q0.65625 0 1.203125 0.265625q0.5625 0.265625 0.875 0.796875q0.328125 0.515625 0.328125 1.21875l0 4.171875l-0.90625 0l0 -3.765625q0 -1.859375 -1.640625 -1.859375q-0.96875 0 -1.453125 0.6875q-0.46875 0.671875 -0.46875 1.8125l0 3.125l-0.90625 0l0 -9.671875l0.90625 0l0 4.46875q0.3125 -0.59375 0.84375 -0.921875q0.53125 -0.328125 1.21875 -0.328125z" fill-rule="nonzero"/><path fill="#f9c3c0" d="m199.62608 48.73239l0 0c0 -2.9919624 2.4254608 -5.417431 5.4174347 -5.417431l107.11789 0c1.4367981 0 2.8147278 0.57076263 3.8306885 1.5867271c1.0159912 1.0159683 1.586731 2.3939133 1.586731 3.8307037l0 21.669075c0 2.9919662 -2.4254456 5.4174347 -5.4174194 5.4174347l-107.11789 0c-2.9919739 0 -5.4174347 -2.4254684 -5.4174347 -5.4174347z" fill-rule="evenodd"/><path fill="#ffffff" d="m249.68301 64.36693l0 -8.265625l-2.859375 0l0 -0.828125l6.71875 0l0 0.828125l-2.875 0l0 8.265625l-0.984375 0zm7.5859375 -6.453125q0.84375 0 1.515625 0.421875q0.6875 0.40625 1.0625 1.125q0.390625 0.703125 0.390625 1.59375q0 0.25 -0.015625 0.375l-5.125 0q0.046875 0.96875 0.625 1.65625q0.578125 0.671875 1.5625 0.671875q0.796875 0 1.3125 -0.296875q0.53125 -0.3125 0.859375 -0.84375l0.71875 0.484375q-0.4375 0.6875 -1.15625 1.09375q-0.71875 0.390625 -1.703125 0.390625q-0.90625 0 -1.625 -0.421875q-0.703125 -0.4375 -1.109375 -1.1875q-0.390625 -0.765625 -0.390625 -1.734375q0 -0.953125 0.390625 -1.703125q0.390625 -0.765625 1.09375 -1.1875q0.703125 -0.4375 1.59375 -0.4375zm2.0625 2.78125q-0.125 -0.984375 -0.65625 -1.46875q-0.515625 -0.484375 -1.40625 -0.484375q-0.859375 0 -1.421875 0.5625q-0.546875 0.546875 -0.703125 1.390625l4.1875 0zm4.4347534 3.890625q-0.90625 0 -1.59375 -0.390625q-0.671875 -0.390625 -1.03125 -1.09375l0.8125 -0.40625q0.484375 1.0625 1.921875 1.0625q0.703125 0 1.15625 -0.25q0.453125 -0.265625 0.453125 -0.796875q0 -0.546875 -0.375 -0.8125q-0.359375 -0.265625 -1.28125 -0.34375q-1.28125 -0.109375 -1.84375 -0.578125q-0.546875 -0.46875 -0.546875 -1.234375q0 -0.859375 0.625 -1.34375q0.625 -0.484375 1.71875 -0.484375q1.859375 0 2.53125 1.46875l-0.8125 0.40625q-0.234375 -0.546875 -0.671875 -0.796875q-0.421875 -0.25 -1.109375 -0.25q-0.6875 0 -1.0625 0.25q-0.359375 0.25 -0.359375 0.71875q0 0.4375 0.390625 0.71875q0.390625 0.265625 1.359375 0.359375q1.171875 0.09375 1.75 0.578125q0.59375 0.46875 0.59375 1.234375q0 0.625 -0.359375 1.078125q-0.359375 0.453125 -0.96875 0.6875q-0.59375 0.21875 -1.296875 0.21875zm4.3248596 -0.21875l0 -5.40625l-1.0625 0l0 -0.828125l1.0625 0l0 -2.0625l0.90625 0l0 2.0625l1.4375 0l0 0.828125l-1.4375 0l0 5.40625l-0.90625 0z" fill-rule="nonzero"/><path fill="#000000" fill-opacity="0.0" d="m132.13263 59.56693l67.49606 0" fill-rule="evenodd"/><path stroke="#194cac" stroke-width="1.0" stroke-linejoin="round" stroke-linecap="butt" stroke-dasharray="1.0,3.0" d="m132.13263 59.56693l61.496063 0" fill-rule="evenodd"/><path fill="#194cac" stroke="#194cac" stroke-width="1.0" stroke-linecap="butt" d="m193.6287 61.218662l4.538101 -1.6517334l-4.538101 -1.6517334z" fill-rule="evenodd"/><path fill="#000000" fill-opacity="0.0" d="m317.57883 59.56693l67.49606 0" fill-rule="evenodd"/><path stroke="#194cac" stroke-width="1.0" stroke-linejoin="round" stroke-linecap="butt" stroke-dasharray="1.0,3.0" d="m317.57886 59.56693l61.496033 0" fill-rule="evenodd"/><path fill="#194cac" stroke="#194cac" stroke-width="1.0" stroke-linecap="butt" d="m379.0749 61.218662l4.538086 -1.6517334l-4.538086 -1.6517334z" fill-rule="evenodd"/><path fill="#000000" fill-opacity="0.0" d="m503.02493 59.564304l48.59842 0" fill-rule="evenodd"/><path stroke="#194cac" stroke-width="1.0" stroke-linejoin="round" stroke-linecap="butt" stroke-dasharray="1.0,3.0" d="m503.02493 59.564304l42.59842 0" fill-rule="evenodd"/><path fill="#194cac" stroke="#194cac" stroke-width="1.0" stroke-linecap="butt" d="m545.62335 61.216038l4.538086 -1.6517334l-4.538086 -1.6517334z" fill-rule="evenodd"/><path fill="#000000" fill-opacity="0.0" d="m5.8792653 1.8976378l261.25983 0l0 37.354332l-261.25983 0z" fill-rule="evenodd"/><path fill="#194cac" d="m22.004265 15.489511q2.515625 0 4.171875 1.328126q1.65625 1.328125 2.140625 3.59375l-3.375 0q-0.375 -0.921875 -1.15625 -1.4375q-0.765625 -0.53125 -1.828125 -0.53125q-1.40625 0 -2.265625 1.03125q-0.859375 1.015625 -0.859375 2.734375q0 1.71875 0.859375 2.734375q0.859375 1.015625 2.265625 1.015625q1.0625 0 1.828125 -0.515625q0.78125 -0.53125 1.15625 -1.421875l3.375 0q-0.484375 2.234375 -2.140625 3.578125q-1.65625 1.328125 -4.171875 1.328125q-1.921875 0 -3.375 -0.84375q-1.453125 -0.84375 -2.25 -2.375q-0.796875 -1.53125 -0.796875 -3.5q0 -1.953125 0.796875 -3.484375q0.796875 -1.53125 2.25 -2.375q1.453125 -0.85937595 3.375 -0.85937595zm12.966537 2.781251q1.546875 0 2.765625 0.65625q1.234375 0.640625 1.921875 1.859375q0.703125 1.203125 0.703125 2.828125q0 1.625 -0.703125 2.84375q-0.6875 1.203125 -1.921875 1.84375q-1.21875 0.640625 -2.765625 0.640625q-1.546875 0 -2.78125 -0.640625q-1.234375 -0.640625 -1.9375 -1.84375q-0.6875 -1.21875 -0.6875 -2.84375q0 -1.625 0.6875 -2.828125q0.703125 -1.21875 1.9375 -1.859375q1.234375 -0.65625 2.78125 -0.65625zm0 2.765625q-0.90625 0 -1.53125 0.671875q-0.625 0.65625 -0.625 1.90625q0 1.25 0.625 1.90625q0.625 0.640625 1.53125 0.640625q0.921875 0 1.53125 -0.640625q0.609375 -0.65625 0.609375 -1.90625q0 -1.25 -0.609375 -1.90625q-0.609375 -0.671875 -1.53125 -0.671875zm13.655716 -2.734375q1.796875 0 2.84375 1.1875q1.0625 1.1875 1.0625 3.28125l0 6.046875l-3.203125 0l0 -5.671875q0 -1.046875 -0.546875 -1.625q-0.546875 -0.59375 -1.453125 -0.59375q-0.984375 0 -1.546875 0.625q-0.5625 0.609375 -0.5625 1.75l0 5.515625l-3.203125 0l0 -10.40625l3.203125 0l0 1.90625q0.4375 -0.9375 1.328125 -1.46875q0.890625 -0.546875 2.078125 -0.546875zm11.908508 7.765625l0 2.75l-1.4375 0q-1.828125 0 -2.84375 -0.90625q-1.015625 -0.90625 -1.015625 -3.0l0 -3.8125l-1.40625 0l0 -2.6875l1.40625 0l0 -2.562501l3.1875 0l0 2.562501l2.09375 0l0 2.6875l-2.09375 0l0 3.875q0 0.609375 0.25 0.859375q0.25 0.234375 0.84375 0.234375l1.015625 0zm5.748871 -7.796875q1.1875 0 2.046875 0.546875q0.859375 0.546875 1.265625 1.46875l0 -1.875l3.171875 0l0 10.40625l-3.171875 0l0 -1.890625q-0.40625 0.9375 -1.265625 1.484375q-0.859375 0.53125 -2.046875 0.53125q-1.296875 0 -2.3125 -0.640625q-1.015625 -0.640625 -1.609375 -1.84375q-0.578125 -1.21875 -0.578125 -2.84375q0 -1.640625 0.578125 -2.84375q0.59375 -1.203125 1.609375 -1.84375q1.015625 -0.65625 2.3125 -0.65625zm1.015625 2.796875q-1.015625 0 -1.640625 0.671875q-0.625 0.671875 -0.625 1.875q0 1.1875 0.625 1.859375q0.625 0.671875 1.640625 0.671875q1.015625 0 1.65625 -0.6875q0.640625 -0.6875 0.640625 -1.84375q0 -1.171875 -0.640625 -1.859375q-0.640625 -0.6875 -1.65625 -0.6875zm7.367691 -5.593751q0 -0.71875 0.515625 -1.1875q0.53125 -0.484375 1.390625 -0.484375q0.859375 0 1.375 0.484375q0.53125 0.46875 0.53125 1.1875q0 0.71875095 -0.53125 1.203126q-0.515625 0.46875 -1.375 0.46875q-0.859375 0 -1.390625 -0.46875q-0.515625 -0.484375 -0.515625 -1.203126zm3.5 2.937501l0 10.40625l-3.203125 0l0 -10.40625l3.203125 0zm8.797913 -0.109375q1.796875 0 2.84375 1.1875q1.0625 1.1875 1.0625 3.28125l0 6.046875l-3.203125 0l0 -5.671875q0 -1.046875 -0.546875 -1.625q-0.546875 -0.59375 -1.453125 -0.59375q-0.984375 0 -1.546875 0.625q-0.5625 0.609375 -0.5625 1.75l0 5.515625l-3.203125 0l0 -10.40625l3.203125 0l0 1.90625q0.4375 -0.9375 1.328125 -1.46875q0.890625 -0.546875 2.078125 -0.546875zm15.892883 5.03125q0 0.390625 -0.09375 0.859375l-7.21875 0q0.0625 1.171875 0.59375 1.6875q0.546875 0.515625 1.390625 0.515625q0.703125 0 1.171875 -0.359375q0.46875 -0.359375 0.609375 -0.90625l3.390625 0q-0.21875 1.09375 -0.90625 1.96875q-0.6875 0.859375 -1.75 1.359375q-1.0625 0.484375 -2.375 0.484375q-1.53125 0 -2.71875 -0.640625q-1.171875 -0.640625 -1.84375 -1.84375q-0.671875 -1.21875 -0.671875 -2.84375q0 -1.640625 0.65625 -2.84375q0.671875 -1.203125 1.859375 -1.84375q1.1875 -0.65625 2.71875 -0.65625q1.546875 0 2.71875 0.640625q1.1875 0.640625 1.828125 1.78125q0.640625 1.140625 0.640625 2.640625zm-3.21875 -0.484375q0.015625 -1.03125 -0.5625 -1.53125q-0.5625 -0.515625 -1.40625 -0.515625q-0.875 0 -1.453125 0.515625q-0.578125 0.515625 -0.65625 1.53125l4.078125 0zm8.079468 -2.484375q0.59375 -0.953125 1.53125 -1.5q0.9375 -0.5625 2.046875 -0.5625l0 3.40625l-0.921875 0q-1.265625 0 -1.96875 0.546875q-0.6875 0.53125 -0.6875 1.828125l0 4.734375l-3.203125 0l0 -10.40625l3.203125 0l0 1.953125zm15.143585 -2.09375q1.28125 0 2.296875 0.65625q1.015625 0.640625 1.609375 1.84375q0.59375 1.203125 0.59375 2.84375q0 1.625 -0.59375 2.84375q-0.59375 1.203125 -1.609375 1.84375q-1.015625 0.640625 -2.296875 0.640625q-1.1875 0 -2.046875 -0.53125q-0.859375 -0.546875 -1.25 -1.484375l0 6.859373l-3.203125 0l0 -15.374998l3.203125 0l0 1.875q0.390625 -0.921875 1.25 -1.46875q0.859375 -0.546875 2.046875 -0.546875zm-1.03125 2.796875q-1.0 0 -1.65625 0.6875q-0.640625 0.6875 -0.640625 1.859375q0 1.15625 0.640625 1.84375q0.65625 0.6875 1.65625 0.6875q1.03125 0 1.65625 -0.671875q0.625 -0.671875 0.625 -1.859375q0 -1.203125 -0.625 -1.875q-0.625 -0.671875 -1.65625 -0.671875zm6.8833237 -5.593751q0 -0.71875 0.515625 -1.1875q0.53125 -0.484375 1.390625 -0.484375q0.859375 0 1.375 0.484375q0.53125 0.46875 0.53125 1.1875q0 0.71875095 -0.53125 1.203126q-0.515625 0.46875 -1.375 0.46875q-0.859375 0 -1.390625 -0.46875q-0.515625 -0.484375 -0.515625 -1.203126zm3.5 2.937501l0 10.40625l-3.203125 0l0 -10.40625l3.203125 0zm8.688538 -0.140625q1.28125 0 2.296875 0.65625q1.015625 0.640625 1.609375 1.84375q0.59375 1.203125 0.59375 2.84375q0 1.625 -0.59375 2.84375q-0.59375 1.203125 -1.609375 1.84375q-1.015625 0.640625 -2.296875 0.640625q-1.1875 0 -2.046875 -0.53125q-0.859375 -0.546875 -1.25 -1.484375l0 6.859373l-3.203125 0l0 -15.374998l3.203125 0l0 1.875q0.390625 -0.921875 1.25 -1.46875q0.859375 -0.546875 2.046875 -0.546875zm-1.03125 2.796875q-1.0 0 -1.65625 0.6875q-0.640625 0.6875 -0.640625 1.859375q0 1.15625 0.640625 1.84375q0.65625 0.6875 1.65625 0.6875q1.03125 0 1.65625 -0.671875q0.625 -0.671875 0.625 -1.859375q0 -1.203125 -0.625 -1.875q-0.625 -0.671875 -1.65625 -0.671875zm17.070816 2.265625q0 0.390625 -0.09375 0.859375l-7.21875 0q0.0625 1.171875 0.59375 1.6875q0.546875 0.515625 1.390625 0.515625q0.703125 0 1.171875 -0.359375q0.46875 -0.359375 0.609375 -0.90625l3.390625 0q-0.21875 1.09375 -0.90625 1.96875q-0.6875 0.859375 -1.75 1.359375q-1.0625 0.484375 -2.375 0.484375q-1.53125 0 -2.71875 -0.640625q-1.171875 -0.640625 -1.84375 -1.84375q-0.671875 -1.21875 -0.671875 -2.84375q0 -1.640625 0.65625 -2.84375q0.671875 -1.203125 1.859375 -1.84375q1.1875 -0.65625 2.71875 -0.65625q1.546875 0 2.71875 0.640625q1.1875 0.640625 1.828125 1.78125q0.640625 1.140625 0.640625 2.640625zm-3.21875 -0.484375q0.015625 -1.03125 -0.5625 -1.53125q-0.5625 -0.515625 -1.40625 -0.515625q-0.875 0 -1.453125 0.515625q-0.578125 0.515625 -0.65625 1.53125l4.078125 0zm8.079468 -7.843751l0 13.812501l-3.203125 0l0 -13.812501l3.203125 0zm1.8916626 0.46875q0 -0.71875 0.515625 -1.1875q0.53125 -0.484375 1.390625 -0.484375q0.859375 0 1.375 0.484375q0.53125 0.46875 0.53125 1.1875q0 0.71875095 -0.53125 1.203126q-0.515625 0.46875 -1.375 0.46875q-0.859375 0 -1.390625 -0.46875q-0.515625 -0.484375 -0.515625 -1.203126zm3.5 2.937501l0 10.40625l-3.203125 0l0 -10.40625l3.203125 0zm8.797913 -0.109375q1.796875 0 2.84375 1.1875q1.0625 1.1875 1.0625 3.28125l0 6.046875l-3.203125 0l0 -5.671875q0 -1.046875 -0.546875 -1.625q-0.546875 -0.59375 -1.453125 -0.59375q-0.984375 0 -1.546875 0.625q-0.5625 0.609375 -0.5625 1.75l0 5.515625l-3.203125 0l0 -10.40625l3.203125 0l0 1.90625q0.4375 -0.9375 1.328125 -1.46875q0.890625 -0.546875 2.078125 -0.546875zm15.892883 5.03125q0 0.390625 -0.09375 0.859375l-7.21875 0q0.0625 1.171875 0.59375 1.6875q0.546875 0.515625 1.390625 0.515625q0.703125 0 1.171875 -0.359375q0.46875 -0.359375 0.609375 -0.90625l3.390625 0q-0.21875 1.09375 -0.90625 1.96875q-0.6875 0.859375 -1.75 1.359375q-1.0625 0.484375 -2.375 0.484375q-1.53125 0 -2.71875 -0.640625q-1.171875 -0.640625 -1.84375 -1.84375q-0.671875 -1.21875 -0.671875 -2.84375q0 -1.640625 0.65625 -2.84375q0.671875 -1.203125 1.859375 -1.84375q1.1875 -0.65625 2.71875 -0.65625q1.546875 0 2.71875 0.640625q1.1875 0.640625 1.828125 1.78125q0.640625 1.140625 0.640625 2.640625zm-3.21875 -0.484375q0.015625 -1.03125 -0.5625 -1.53125q-0.5625 -0.515625 -1.40625 -0.515625q-0.875 0 -1.453125 0.515625q-0.578125 0.515625 -0.65625 1.53125l4.078125 0z" fill-rule="nonzero"/><path fill="#2165e3" d="m14.481712 139.58803l0 0c0 -2.9919586 2.4254665 -5.4174194 5.417431 -5.4174194l107.11789 0c1.4367905 0 2.8147354 0.570755 3.830696 1.586731c1.015976 1.0159607 1.586731 2.3939056 1.586731 3.8306885l0 21.669083c0 2.9919586 -2.4254608 5.4174347 -5.417427 5.4174347l-107.11789 0c-2.9919643 0 -5.417431 -2.425476 -5.417431 -5.4174347z" fill-rule="evenodd"/><path fill="#ffffff" d="m55.644356 155.44131q-1.140625 0 -1.984375 -0.5625q-0.828125 -0.578125 -1.28125 -1.625q-0.4375 -1.0625 -0.4375 -2.546875q0 -1.5 0.421875 -2.5625q0.4375 -1.078125 1.25 -1.640625q0.8125 -0.578125 1.90625 -0.578125q1.140625 0 1.9375 0.5q0.8125 0.5 1.265625 1.40625l-0.796875 0.46875q-0.421875 -0.78125 -1.0 -1.125q-0.578125 -0.34375 -1.40625 -0.34375q-1.1875 0 -1.859375 1.03125q-0.671875 1.015625 -0.671875 2.828125q0 1.1875 0.3125 2.0625q0.3125 0.859375 0.875 1.328125q0.578125 0.453125 1.34375 0.453125q0.9375 0 1.453125 -0.421875q0.53125 -0.421875 0.984375 -1.3125l0.84375 0.5q-0.46875 1.046875 -1.265625 1.59375q-0.796875 0.546875 -1.890625 0.546875zm4.954117 -0.21875l0 -6.234375l0.90625 0l0 6.234375l-0.90625 0zm0.453125 -7.453125q-0.296875 0 -0.515625 -0.203125q-0.203125 -0.21875 -0.203125 -0.53125q0 -0.296875 0.203125 -0.5q0.21875 -0.203125 0.515625 -0.203125q0.296875 0 0.5 0.203125q0.21875 0.203125 0.21875 0.515625q0 0.296875 -0.21875 0.515625q-0.203125 0.203125 -0.5 0.203125zm5.69693 1.0q0.3125 0 0.609375 0.09375l0 0.828125q-0.28125 -0.140625 -0.609375 -0.140625q-0.578125 0 -1.078125 0.328125q-0.484375 0.3125 -0.78125 0.921875q-0.296875 0.609375 -0.296875 1.4375l0 2.984375l-0.90625 0l0 -6.234375l0.90625 0l0 1.25q0.359375 -0.6875 0.90625 -1.078125q0.5625 -0.390625 1.25 -0.390625zm4.158844 6.671875q-0.90625 0 -1.625 -0.421875q-0.703125 -0.4375 -1.109375 -1.1875q-0.390625 -0.765625 -0.390625 -1.734375q0 -0.953125 0.390625 -1.703125q0.40625 -0.765625 1.109375 -1.1875q0.703125 -0.4375 1.59375 -0.4375q0.765625 0 1.328125 0.328125q0.5625 0.328125 1.03125 0.921875l-0.65625 0.53125q-0.65625 -0.953125 -1.703125 -0.953125q-0.625 0 -1.125 0.328125q-0.5 0.3125 -0.78125 0.890625q-0.28125 0.5625 -0.28125 1.28125q0 0.71875 0.28125 1.296875q0.28125 0.578125 0.78125 0.90625q0.5 0.3125 1.125 0.3125q0.640625 0 1.046875 -0.21875q0.421875 -0.21875 0.75 -0.65625l0.71875 0.5q-0.453125 0.546875 -1.09375 0.875q-0.640625 0.328125 -1.390625 0.328125zm3.7168732 -0.21875l0 -9.671875l0.90625 0l0 9.671875l-0.90625 0zm5.330597 -6.453125q0.8437424 0 1.5156174 0.421875q0.6875 0.40625 1.0625 1.125q0.390625 0.703125 0.390625 1.59375q0 0.25 -0.015625 0.375l-5.1249924 0q0.046875 0.96875 0.625 1.65625q0.578125 0.671875 1.5625 0.671875q0.7968674 0 1.3124924 -0.296875q0.53125 -0.3125 0.859375 -0.84375l0.71875 0.484375q-0.4375 0.6875 -1.15625 1.09375q-0.71875 0.390625 -1.7031174 0.390625q-0.90625 0 -1.625 -0.421875q-0.703125 -0.4375 -1.109375 -1.1875q-0.390625 -0.765625 -0.390625 -1.734375q0 -0.953125 0.390625 -1.703125q0.390625 -0.765625 1.09375 -1.1875q0.703125 -0.4375 1.59375 -0.4375zm2.0624924 2.78125q-0.125 -0.984375 -0.65625 -1.46875q-0.515625 -0.484375 -1.4062424 -0.484375q-0.859375 0 -1.421875 0.5625q-0.546875 0.546875 -0.703125 1.390625l4.1874924 0zm5.840988 3.890625q-1.140625 0 -1.984375 -0.5625q-0.828125 -0.578125 -1.28125 -1.625q-0.4375 -1.0625 -0.4375 -2.546875q0 -1.5 0.421875 -2.5625q0.4375 -1.078125 1.25 -1.640625q0.8125 -0.578125 1.90625 -0.578125q1.140625 0 1.9375 0.5q0.8125 0.5 1.265625 1.40625l-0.796875 0.46875q-0.421875 -0.78125 -1.0 -1.125q-0.578125 -0.34375 -1.40625 -0.34375q-1.1875 0 -1.859375 1.03125q-0.671875 1.015625 -0.671875 2.828125q0 1.1875 0.3125 2.0625q0.3125 0.859375 0.875 1.328125q0.578125 0.453125 1.34375 0.453125q0.9375 0 1.453125 -0.421875q0.53125 -0.421875 0.984375 -1.3125l0.84375 0.5q-0.46875 1.046875 -1.265625 1.59375q-0.796875 0.546875 -1.890625 0.546875zm4.360367 -0.21875l0 -0.875l0.875 0l0 -7.328125l-0.875 0l0 -0.890625l2.75 0l0 0.890625l-0.875 0l0 7.328125l0.875 0l0 0.875l-2.75 0z" fill-rule="nonzero"/><path fill="#fd7a9e" d="m385.37402 139.5854l0 0c0 -2.9919586 2.425476 -5.4174194 5.4174194 -5.4174194l107.11792 0c1.4367676 0 2.8147278 0.570755 3.8306885 1.586731c1.0159607 1.0159607 1.586731 2.3939056 1.586731 3.8306885l0 21.669083c0 2.9919586 -2.425476 5.4174347 -5.4174194 5.4174347l-107.11792 0c-2.9919434 0 -5.4174194 -2.425476 -5.4174194 -5.4174347z" fill-rule="evenodd"/><path fill="#ffffff" d="m430.96527 155.21994l0 -9.09375l1.0 0l0 3.9375l4.796875 0l0 -3.9375l1.0 0l0 9.09375l-1.0 0l0 -4.328125l-4.796875 0l0 4.328125l-1.0 0zm11.39856 -6.453125q0.84375 0 1.515625 0.421875q0.6875 0.40625 1.0625 1.125q0.390625 0.703125 0.390625 1.59375q0 0.25 -0.015625 0.375l-5.125 0q0.046875 0.96875 0.625 1.65625q0.578125 0.671875 1.5625 0.671875q0.796875 0 1.3125 -0.296875q0.53125 -0.3125 0.859375 -0.84375l0.71875 0.484375q-0.4375 0.6875 -1.15625 1.09375q-0.71875 0.390625 -1.703125 0.390625q-0.90625 0 -1.625 -0.421875q-0.703125 -0.4375 -1.109375 -1.1875q-0.390625 -0.765625 -0.390625 -1.734375q0 -0.953125 0.390625 -1.703125q0.390625 -0.765625 1.09375 -1.1875q0.703125 -0.4375 1.59375 -0.4375zm2.0625 2.78125q-0.125 -0.984375 -0.65625 -1.46875q-0.515625 -0.484375 -1.40625 -0.484375q-0.859375 0 -1.421875 0.5625q-0.546875 0.546875 -0.703125 1.390625l4.1875 0zm2.309723 3.671875l0 -9.671875l0.90625 0l0 9.671875l-0.90625 0zm9.283722 -6.453125q0.859375 0 1.421875 0.609375q0.578125 0.609375 0.578125 1.671875l0 4.171875l-0.90625 0l0 -3.765625q0 -1.0 -0.375 -1.421875q-0.359375 -0.4375 -0.96875 -0.4375q-0.734375 0 -1.140625 0.578125q-0.40625 0.5625 -0.46875 1.53125l0 3.515625l-0.90625 0l0 -3.765625q0 -1.0 -0.375 -1.421875q-0.375 -0.4375 -0.96875 -0.4375q-0.8125 0 -1.21875 0.6875q-0.40625 0.671875 -0.40625 1.8125l0 3.125l-0.90625 0l0 -6.234375l0.90625 0l0 0.96875q0.296875 -0.578125 0.765625 -0.875q0.484375 -0.3125 1.09375 -0.3125q0.6875 0 1.1875 0.375q0.5 0.359375 0.703125 1.046875q0.296875 -0.671875 0.796875 -1.046875q0.515625 -0.375 1.1875 -0.375z" fill-rule="nonzero"/><path fill="#fb775e" d="m551.92255 139.5854l0 0c0 -2.9919586 2.425476 -5.4174194 5.4174194 -5.4174194l107.11792 0c1.4367676 0 2.8147583 0.570755 3.8306885 1.586731c1.0159912 1.0159607 1.586731 2.3939056 1.586731 3.8306885l0 21.669083c0 2.9919586 -2.425476 5.4174347 -5.4174194 5.4174347l-107.11792 0c-2.9919434 0 -5.4174194 -2.425476 -5.4174194 -5.4174347z" fill-rule="evenodd"/><path fill="#ffffff" d="m584.81665 155.21994l-3.109375 -4.375l-0.96875 1.140625l0 3.234375l-1.0 0l0 -9.09375l1.0 0l0 4.609375l3.84375 -4.609375l1.109375 0l-3.40625 4.03125l3.671875 5.0625l-1.140625 0zm7.451294 -6.234375l0 6.234375l-0.90625 0l0 -1.046875q-0.3125 0.609375 -0.84375 0.9375q-0.53125 0.328125 -1.21875 0.328125q-0.65625 0 -1.203125 -0.265625q-0.546875 -0.265625 -0.875 -0.78125q-0.328125 -0.53125 -0.328125 -1.234375l0 -4.171875l0.90625 0l0 3.765625q0 1.859375 1.640625 1.859375q0.96875 0 1.4375 -0.671875q0.484375 -0.6875 0.484375 -1.84375l0 -3.109375l0.90625 0zm4.7977905 -0.21875q0.890625 0 1.59375 0.4375q0.703125 0.421875 1.09375 1.171875q0.390625 0.75 0.390625 1.71875q0 0.96875 -0.40625 1.734375q-0.390625 0.75 -1.09375 1.1875q-0.703125 0.421875 -1.59375 0.421875q-0.671875 0 -1.234375 -0.296875q-0.5625 -0.3125 -0.9375 -0.84375l0 0.921875l-0.90625 0l0 -9.671875l0.90625 0l0 4.375q0.375 -0.546875 0.9375 -0.84375q0.578125 -0.3125 1.25 -0.3125zm0 5.84375q0.625 0 1.125 -0.3125q0.5 -0.328125 0.765625 -0.90625q0.28125 -0.578125 0.28125 -1.296875q0 -0.734375 -0.28125 -1.296875q-0.265625 -0.5625 -0.765625 -0.875q-0.5 -0.328125 -1.125 -0.328125q-0.640625 0 -1.140625 0.328125q-0.5 0.3125 -0.78125 0.890625q-0.265625 0.5625 -0.265625 1.28125q0 0.71875 0.265625 1.296875q0.28125 0.578125 0.78125 0.90625q0.5 0.3125 1.140625 0.3125zm7.055176 -5.84375q0.84375 0 1.515625 0.421875q0.6875 0.40625 1.0625 1.125q0.390625 0.703125 0.390625 1.59375q0 0.25 -0.015625 0.375l-5.125 0q0.046875 0.96875 0.625 1.65625q0.578125 0.671875 1.5625 0.671875q0.796875 0 1.3125 -0.296875q0.53125 -0.3125 0.859375 -0.84375l0.71875 0.484375q-0.4375 0.6875 -1.15625 1.09375q-0.71875 0.390625 -1.703125 0.390625q-0.90625 0 -1.625 -0.421875q-0.703125 -0.4375 -1.109375 -1.1875q-0.390625 -0.765625 -0.390625 -1.734375q0 -0.953125 0.390625 -1.703125q0.390625 -0.765625 1.09375 -1.1875q0.703125 -0.4375 1.59375 -0.4375zm2.0625 2.78125q-0.125 -0.984375 -0.65625 -1.46875q-0.515625 -0.484375 -1.40625 -0.484375q-0.859375 0 -1.421875 0.5625q-0.546875 0.546875 -0.703125 1.390625l4.1875 0zm5.3097534 -2.78125q0.3125 0 0.609375 0.09375l0 0.828125q-0.28125 -0.140625 -0.609375 -0.140625q-0.578125 0 -1.078125 0.328125q-0.484375 0.3125 -0.78125 0.921875q-0.296875 0.609375 -0.296875 1.4375l0 2.984375l-0.90625 0l0 -6.234375l0.90625 0l0 1.25q0.359375 -0.6875 0.90625 -1.078125q0.5625 -0.390625 1.25 -0.390625zm4.4244385 0q0.65625 0 1.203125 0.265625q0.5625 0.265625 0.875 0.796875q0.328125 0.515625 0.328125 1.21875l0 4.171875l-0.90625 0l0 -3.765625q0 -1.859375 -1.640625 -1.859375q-0.96875 0 -1.453125 0.6875q-0.46875 0.671875 -0.46875 1.8125l0 3.125l-0.90625 0l0 -6.234375l0.90625 0l0 1.03125q0.3125 -0.59375 0.84375 -0.921875q0.53125 -0.328125 1.21875 -0.328125zm6.8759766 0q0.84375 0 1.515625 0.421875q0.6875 0.40625 1.0625 1.125q0.390625 0.703125 0.390625 1.59375q0 0.25 -0.015625 0.375l-5.125 0q0.046875 0.96875 0.625 1.65625q0.578125 0.671875 1.5625 0.671875q0.796875 0 1.3125 -0.296875q0.53125 -0.3125 0.859375 -0.84375l0.71875 0.484375q-0.4375 0.6875 -1.15625 1.09375q-0.71875 0.390625 -1.703125 0.390625q-0.90625 0 -1.625 -0.421875q-0.703125 -0.4375 -1.109375 -1.1875q-0.390625 -0.765625 -0.390625 -1.734375q0 -0.953125 0.390625 -1.703125q0.390625 -0.765625 1.09375 -1.1875q0.703125 -0.4375 1.59375 -0.4375zm2.0625 2.78125q-0.125 -0.984375 -0.65625 -1.46875q-0.515625 -0.484375 -1.40625 -0.484375q-0.859375 0 -1.421875 0.5625q-0.546875 0.546875 -0.703125 1.390625l4.1875 0zm2.5753174 3.671875l0 -5.40625l-1.0625 0l0 -0.828125l1.0625 0l0 -2.0625l0.90625 0l0 2.0625l1.4375 0l0 0.828125l-1.4375 0l0 5.40625l-0.90625 0zm6.024597 -6.453125q0.84375 0 1.515625 0.421875q0.6875 0.40625 1.0625 1.125q0.390625 0.703125 0.390625 1.59375q0 0.25 -0.015625 0.375l-5.125 0q0.046875 0.96875 0.625 1.65625q0.578125 0.671875 1.5625 0.671875q0.796875 0 1.3125 -0.296875q0.53125 -0.3125 0.859375 -0.84375l0.71875 0.484375q-0.4375 0.6875 -1.15625 1.09375q-0.71875 0.390625 -1.703125 0.390625q-0.90625 0 -1.625 -0.421875q-0.703125 -0.4375 -1.109375 -1.1875q-0.390625 -0.765625 -0.390625 -1.734375q0 -0.953125 0.390625 -1.703125q0.390625 -0.765625 1.09375 -1.1875q0.703125 -0.4375 1.59375 -0.4375zm2.0625 2.78125q-0.125 -0.984375 -0.65625 -1.46875q-0.515625 -0.484375 -1.40625 -0.484375q-0.859375 0 -1.421875 0.5625q-0.546875 0.546875 -0.703125 1.390625l4.1875 0zm4.4347534 3.890625q-0.90625 0 -1.59375 -0.390625q-0.671875 -0.390625 -1.03125 -1.09375l0.8125 -0.40625q0.484375 1.0625 1.921875 1.0625q0.703125 0 1.15625 -0.25q0.453125 -0.265625 0.453125 -0.796875q0 -0.546875 -0.375 -0.8125q-0.359375 -0.265625 -1.28125 -0.34375q-1.28125 -0.109375 -1.84375 -0.578125q-0.546875 -0.46875 -0.546875 -1.234375q0 -0.859375 0.625 -1.34375q0.625 -0.484375 1.71875 -0.484375q1.859375 0 2.53125 1.46875l-0.8125 0.40625q-0.234375 -0.546875 -0.671875 -0.796875q-0.421875 -0.25 -1.109375 -0.25q-0.6875 0 -1.0625 0.25q-0.359375 0.25 -0.359375 0.71875q0 0.4375 0.390625 0.71875q0.390625 0.265625 1.359375 0.359375q1.171875 0.09375 1.75 0.578125q0.59375 0.46875 0.59375 1.234375q0 0.625 -0.359375 1.078125q-0.359375 0.453125 -0.96875 0.6875q-0.59375 0.21875 -1.296875 0.21875z" fill-rule="nonzero"/><path fill="#f9c3c0" d="m199.92792 139.58803l0 0c0 -2.9919586 2.4254608 -5.4174194 5.4174347 -5.4174194l107.117905 0c1.4367676 0 2.8147278 0.570755 3.8306885 1.586731c1.0159607 1.0159607 1.586731 2.3939056 1.586731 3.8306885l0 21.669083c0 2.9919586 -2.425476 5.4174347 -5.4174194 5.4174347l-107.117905 0c-2.9919739 0 -5.4174347 -2.425476 -5.4174347 -5.4174347z" fill-rule="evenodd"/><path fill="#ffffff" d="m232.99075 146.12881l3.046875 0q1.21875 0 1.953125 0.75q0.734375 0.75 0.734375 2.0625q0 1.3125 -0.765625 2.0625q-0.765625 0.734375 -2.03125 0.734375l-1.9375 0l0 3.484375l-1.0 0l0 -9.09375zm2.90625 4.78125q0.890625 0 1.359375 -0.484375q0.46875 -0.5 0.46875 -1.484375q0 -0.96875 -0.46875 -1.46875q-0.46875 -0.515625 -1.359375 -0.515625l-1.90625 0l0 3.953125l1.90625 0zm7.0680237 -2.140625q0.3125 0 0.609375 0.09375l0 0.828125q-0.28125 -0.140625 -0.609375 -0.140625q-0.578125 0 -1.078125 0.328125q-0.484375 0.3125 -0.78125 0.921875q-0.296875 0.609375 -0.296875 1.4375l0 2.984375l-0.90625 0l0 -6.234375l0.90625 0l0 1.25q0.359375 -0.6875 0.90625 -1.078125q0.5625 -0.390625 1.25 -0.390625zm4.143219 0q0.84375 0 1.515625 0.421875q0.6875 0.40625 1.0625 1.125q0.390625 0.703125 0.390625 1.59375q0 0.25 -0.015625 0.375l-5.125 0q0.046875 0.96875 0.625 1.65625q0.578125 0.671875 1.5625 0.671875q0.796875 0 1.3125 -0.296875q0.53125 -0.3125 0.859375 -0.84375l0.71875 0.484375q-0.4375 0.6875 -1.15625 1.09375q-0.71875 0.390625 -1.703125 0.390625q-0.90625 0 -1.625 -0.421875q-0.703125 -0.4375 -1.109375 -1.1875q-0.390625 -0.765625 -0.390625 -1.734375q0 -0.953125 0.390625 -1.703125q0.390625 -0.765625 1.09375 -1.1875q0.703125 -0.4375 1.59375 -0.4375zm2.0625 2.78125q-0.125 -0.984375 -0.65625 -1.46875q-0.515625 -0.484375 -1.40625 -0.484375q-0.859375 0 -1.421875 0.5625q-0.546875 0.546875 -0.703125 1.390625l4.1875 0zm4.950363 3.890625q-0.90625 0 -1.625 -0.421875q-0.703125 -0.4375 -1.109375 -1.1875q-0.390625 -0.765625 -0.390625 -1.734375q0 -0.953125 0.390625 -1.703125q0.40625 -0.765625 1.109375 -1.1875q0.703125 -0.4375 1.59375 -0.4375q0.765625 0 1.328125 0.328125q0.5625 0.328125 1.0312653 0.921875l-0.65626526 0.53125q-0.65625 -0.953125 -1.703125 -0.953125q-0.625 0 -1.125 0.328125q-0.5 0.3125 -0.78125 0.890625q-0.28125 0.5625 -0.28125 1.28125q0 0.71875 0.28125 1.296875q0.28125 0.578125 0.78125 0.90625q0.5 0.3125 1.125 0.3125q0.640625 0 1.046875 -0.21875q0.421875 -0.21875 0.75 -0.65625l0.71876526 0.5q-0.453125 0.546875 -1.0937653 0.875q-0.640625 0.328125 -1.390625 0.328125zm6.373123 0q-0.890625 0 -1.609375 -0.421875q-0.703125 -0.4375 -1.109375 -1.203125q-0.390625 -0.765625 -0.390625 -1.71875q0 -0.96875 0.390625 -1.71875q0.390625 -0.75 1.09375 -1.171875q0.703125 -0.4375 1.59375 -0.4375q0.890625 0 1.59375 0.4375q0.71875 0.421875 1.109375 1.1875q0.40625 0.75 0.40625 1.703125q0 0.96875 -0.40625 1.734375q-0.390625 0.75 -1.09375 1.1875q-0.6875 0.421875 -1.578125 0.421875zm-0.03125 -0.828125q0.640625 0 1.140625 -0.3125q0.5 -0.328125 0.78125 -0.90625q0.28125 -0.578125 0.28125 -1.296875q0 -0.71875 -0.28125 -1.28125q-0.28125 -0.578125 -0.78125 -0.890625q-0.5 -0.328125 -1.140625 -0.328125q-0.625 0 -1.125 0.328125q-0.484375 0.3125 -0.765625 0.875q-0.28125 0.5625 -0.28125 1.296875q0 0.71875 0.28125 1.296875q0.28125 0.578125 0.765625 0.90625q0.5 0.3125 1.125 0.3125zm7.3584595 -5.84375q0.65625 0 1.203125 0.265625q0.5625 0.265625 0.875 0.796875q0.328125 0.515625 0.328125 1.21875l0 4.171875l-0.90625 0l0 -3.765625q0 -1.859375 -1.640625 -1.859375q-0.96875 0 -1.453125 0.6875q-0.46875 0.671875 -0.46875 1.8125l0 3.125l-0.90625 0l0 -6.234375l0.90625 0l0 1.03125q0.3125 -0.59375 0.84375 -0.921875q0.53125 -0.328125 1.21875 -0.328125zm6.485321 -2.625q-0.46875 0 -0.765625 0.328125q-0.296875 0.3125 -0.296875 0.8125l0 1.703125l1.4375 0l0 0.828125l-1.4375 0l0 5.40625l-0.90625 0l0 -5.40625l-0.796875 0l0 -0.828125l0.796875 0l0 -1.703125q0 -0.859375 0.546875 -1.40625q0.5625 -0.5625 1.421875 -0.5625l0.375 0l0 0.828125l-0.375 0zm1.8527222 9.078125l0 -6.234375l0.90625 0l0 6.234375l-0.90625 0zm0.453125 -7.453125q-0.296875 0 -0.515625 -0.203125q-0.203125 -0.21875 -0.203125 -0.53125q0 -0.296875 0.203125 -0.5q0.21875 -0.203125 0.515625 -0.203125q0.296875 0 0.5 0.203125q0.21875 0.203125 0.21875 0.515625q0 0.296875 -0.21875 0.515625q-0.203125 0.203125 -0.5 0.203125zm8.431305 1.21875l0 6.0q0 0.828125 -0.359375 1.484375q-0.34375 0.671875 -0.96875 1.046875q-0.625 0.375 -1.421875 0.375l-2.578125 0l0 -0.828125l2.578125 0q0.8125 0 1.328125 -0.59375q0.515625 -0.578125 0.515625 -1.484375l0 -0.6875q-0.390625 0.53125 -0.953125 0.84375q-0.5625 0.296875 -1.21875 0.296875q-0.890625 0 -1.609375 -0.421875q-0.703125 -0.4375 -1.109375 -1.1875q-0.390625 -0.765625 -0.390625 -1.734375q0 -0.96875 0.390625 -1.71875q0.390625 -0.75 1.09375 -1.171875q0.703125 -0.4375 1.59375 -0.4375q0.6875 0 1.25 0.3125q0.5625 0.296875 0.953125 0.84375l0 -0.9375l0.90625 0zm-3.109375 5.625q0.640625 0 1.140625 -0.3125q0.5 -0.328125 0.78125 -0.90625q0.28125 -0.578125 0.28125 -1.296875q0 -0.71875 -0.28125 -1.28125q-0.28125 -0.578125 -0.78125 -0.890625q-0.5 -0.328125 -1.140625 -0.328125q-0.625 0 -1.125 0.328125q-0.484375 0.3125 -0.765625 0.875q-0.28125 0.5625 -0.28125 1.296875q0 0.71875 0.28125 1.296875q0.28125 0.578125 0.765625 0.90625q0.5 0.3125 1.125 0.3125z" fill-rule="nonzero"/><path fill="#000000" fill-opacity="0.0" d="m132.43446 150.42258l67.49606 0" fill-rule="evenodd"/><path stroke="#194cac" stroke-width="1.0" stroke-linejoin="round" stroke-linecap="butt" stroke-dasharray="1.0,3.0" d="m132.43446 150.42258l61.496063 0" fill-rule="evenodd"/><path fill="#194cac" stroke="#194cac" stroke-width="1.0" stroke-linecap="butt" d="m193.93053 152.07431l4.538101 -1.6517334l-4.538101 -1.6517334z" fill-rule="evenodd"/><path fill="#000000" fill-opacity="0.0" d="m317.88068 150.42258l67.49606 0" fill-rule="evenodd"/><path stroke="#194cac" stroke-width="1.0" stroke-linejoin="round" stroke-linecap="butt" stroke-dasharray="1.0,3.0" d="m317.88068 150.42258l61.496033 0" fill-rule="evenodd"/><path fill="#194cac" stroke="#194cac" stroke-width="1.0" stroke-linecap="butt" d="m379.3767 152.07431l4.5381165 -1.6517334l-4.5381165 -1.6517334z" fill-rule="evenodd"/><path fill="#000000" fill-opacity="0.0" d="m503.32678 150.41995l48.59845 0" fill-rule="evenodd"/><path stroke="#194cac" stroke-width="1.0" stroke-linejoin="round" stroke-linecap="butt" stroke-dasharray="1.0,3.0" d="m503.32678 150.41995l42.59839 0" fill-rule="evenodd"/><path fill="#194cac" stroke="#194cac" stroke-width="1.0" stroke-linecap="butt" d="m545.9252 152.07169l4.538147 -1.6517334l-4.538147 -1.6517334z" fill-rule="evenodd"/><path fill="#000000" fill-opacity="0.0" d="m6.1811023 92.75328l261.25986 0l0 37.354324l-261.25986 0z" fill-rule="evenodd"/><path fill="#194cac" d="m28.149853 113.04828q0 1.9375 -0.828125 3.453125q-0.828125 1.5 -2.390625 2.34375q-1.5625 0.828125 -3.671875 0.828125l-4.984375 0l0 -13.1875l4.984375 0q2.125 0 3.671875 0.828125q1.5625 0.8125 2.390625 2.3125q0.828125 1.484375 0.828125 3.421875zm-7.171875 3.765625q1.875 0 2.90625 -0.984375q1.03125 -0.984375 1.03125 -2.78125q0 -1.78125 -1.03125 -2.765625q-1.03125 -1.0 -2.90625 -1.0l-1.5 0l0 7.53125l1.5 0zm18.862534 -2.625q0 0.390625 -0.09375 0.859375l-7.21875 0q0.0625 1.171875 0.59375 1.6875q0.546875 0.515625 1.390625 0.515625q0.703125 0 1.171875 -0.359375q0.46875 -0.359375 0.609375 -0.90625l3.390625 0q-0.21875 1.09375 -0.90625 1.96875q-0.6875 0.859375 -1.75 1.359375q-1.0625 0.484375 -2.375 0.484375q-1.53125 0 -2.71875 -0.640625q-1.171875 -0.640625 -1.84375 -1.84375q-0.671875 -1.21875 -0.671875 -2.84375q0 -1.640625 0.65625 -2.84375q0.671875 -1.203125 1.859375 -1.84375q1.1875 -0.65625 2.71875 -0.65625q1.546875 0 2.71875 0.640625q1.1875 0.640625 1.828125 1.78125q0.640625 1.140625 0.640625 2.640625zm-3.21875 -0.484375q0.015625 -1.03125 -0.5625 -1.53125q-0.5625 -0.515625 -1.40625 -0.515625q-0.875 0 -1.453125 0.515625q-0.578125 0.515625 -0.65625 1.53125l4.078125 0zm11.376343 -4.578125q1.28125 0 2.296875 0.65625q1.015625 0.640625 1.609375 1.84375q0.59375 1.203125 0.59375 2.84375q0 1.625 -0.59375 2.84375q-0.59375 1.203125 -1.609375 1.84375q-1.015625 0.640625 -2.296875 0.640625q-1.1875 0 -2.046875 -0.53125q-0.859375 -0.546875 -1.25 -1.484375l0 6.859375l-3.203125 0l0 -15.375l3.203125 0l0 1.875q0.390625 -0.921875 1.25 -1.46875q0.859375 -0.546875 2.046875 -0.546875zm-1.03125 2.796875q-1.0 0 -1.65625 0.6875q-0.640625 0.6875 -0.640625 1.859375q0 1.15625 0.640625 1.84375q0.65625 0.6875 1.65625 0.6875q1.03125 0 1.65625 -0.671875q0.625 -0.671875 0.625 -1.859375q0 -1.203125 -0.625 -1.875q-0.625 -0.671875 -1.65625 -0.671875zm10.383316 -6.0625l0 13.8125l-3.203125 0l0 -13.8125l3.203125 0zm7.063534 3.265625q1.546875 0 2.765625 0.65625q1.234375 0.640625 1.921875 1.859375q0.703125 1.203125 0.703125 2.828125q0 1.625 -0.703125 2.84375q-0.6875 1.203125 -1.921875 1.84375q-1.21875 0.640625 -2.765625 0.640625q-1.5468712 0 -2.7812462 -0.640625q-1.234375 -0.640625 -1.9375 -1.84375q-0.6875 -1.21875 -0.6875 -2.84375q0 -1.625 0.6875 -2.828125q0.703125 -1.21875 1.9375 -1.859375q1.234375 -0.65625 2.7812462 -0.65625zm0 2.765625q-0.9062462 0 -1.5312462 0.671875q-0.625 0.65625 -0.625 1.90625q0 1.25 0.625 1.90625q0.625 0.640625 1.5312462 0.640625q0.921875 0 1.53125 -0.640625q0.609375 -0.65625 0.609375 -1.90625q0 -1.25 -0.609375 -1.90625q-0.609375 -0.671875 -1.53125 -0.671875zm9.452591 -2.625l2.5 6.375l2.34375 -6.375l3.515625 0l-6.484375 15.375l-3.515625 0l2.453125 -5.359375l-4.375 -10.015625l3.5625 0zm22.921814 -0.109375q1.921875 0 3.015625 1.1875q1.109375 1.171875 1.109375 3.28125l0 6.046875l-3.171875 0l0 -5.671875q0 -0.984375 -0.53125 -1.53125q-0.53125 -0.5625 -1.453125 -0.5625q-0.953125 0 -1.5 0.59375q-0.546875 0.59375 -0.546875 1.65625l0 5.515625l-3.1875 0l0 -5.671875q0 -0.984375 -0.53125 -1.53125q-0.515625 -0.5625 -1.4375 -0.5625q-0.953125 0 -1.515625 0.578125q-0.546875 0.578125 -0.546875 1.671875l0 5.515625l-3.203125 0l0 -10.40625l3.203125 0l0 1.765625q0.40625 -0.875 1.25 -1.375q0.859375 -0.5 1.984375 -0.5q1.203125 0 2.109375 0.546875q0.921875 0.546875 1.390625 1.578125q0.53125 -0.96875 1.46875 -1.546875q0.953125 -0.578125 2.09375 -0.578125zm16.128937 5.03125q0 0.390625 -0.09375 0.859375l-7.21875 0q0.0625 1.171875 0.59375 1.6875q0.546875 0.515625 1.390625 0.515625q0.703125 0 1.171875 -0.359375q0.46875 -0.359375 0.609375 -0.90625l3.390625 0q-0.21875 1.09375 -0.90625 1.96875q-0.6875 0.859375 -1.75 1.359375q-1.0625 0.484375 -2.375 0.484375q-1.53125 0 -2.71875 -0.640625q-1.171875 -0.640625 -1.84375 -1.84375q-0.671875 -1.21875 -0.671875 -2.84375q0 -1.640625 0.65625 -2.84375q0.671875 -1.203125 1.859375 -1.84375q1.1875 -0.65625 2.71875 -0.65625q1.546875 0 2.71875 0.640625q1.1875 0.640625 1.828125 1.78125q0.640625 1.140625 0.640625 2.640625zm-3.21875 -0.484375q0.015625 -1.03125 -0.5625 -1.53125q-0.5625 -0.515625 -1.40625 -0.515625q-0.875 0 -1.453125 0.515625q-0.578125 0.515625 -0.65625 1.53125l4.078125 0zm11.485718 -4.546875q1.796875 0 2.84375 1.1875q1.0625 1.1875 1.0625 3.28125l0 6.046875l-3.203125 0l0 -5.671875q0 -1.046875 -0.546875 -1.625q-0.546875 -0.59375 -1.453125 -0.59375q-0.984375 0 -1.546875 0.625q-0.5625 0.609375 -0.5625 1.75l0 5.515625l-3.203125 0l0 -10.40625l3.203125 0l0 1.90625q0.4375 -0.9375 1.328125 -1.46875q0.890625 -0.546875 2.078125 -0.546875zm11.908516 7.765625l0 2.75l-1.4375 0q-1.828125 0 -2.84375 -0.90625q-1.0156326 -0.90625 -1.0156326 -3.0l0 -3.8125l-1.40625 0l0 -2.6875l1.40625 0l0 -2.5625l3.1875076 0l0 2.5625l2.09375 0l0 2.6875l-2.09375 0l0 3.875q0 0.609375 0.25 0.859375q0.25 0.234375 0.84375 0.234375l1.015625 0zm12.011368 -7.796875q1.28125 0 2.296875 0.65625q1.015625 0.640625 1.609375 1.84375q0.59375 1.203125 0.59375 2.84375q0 1.625 -0.59375 2.84375q-0.59375 1.203125 -1.609375 1.84375q-1.015625 0.640625 -2.296875 0.640625q-1.1875 0 -2.046875 -0.53125q-0.859375 -0.546875 -1.25 -1.484375l0 6.859375l-3.203125 0l0 -15.375l3.203125 0l0 1.875q0.390625 -0.921875 1.25 -1.46875q0.859375 -0.546875 2.046875 -0.546875zm-1.03125 2.796875q-1.0 0 -1.65625 0.6875q-0.640625 0.6875 -0.640625 1.859375q0 1.15625 0.640625 1.84375q0.65625 0.6875 1.65625 0.6875q1.03125 0 1.65625 -0.671875q0.625 -0.671875 0.625 -1.859375q0 -1.203125 -0.625 -1.875q-0.625 -0.671875 -1.65625 -0.671875zm6.883316 -5.59375q0 -0.71875 0.515625 -1.1875q0.53125 -0.484375 1.390625 -0.484375q0.859375 0 1.375 0.484375q0.53125 0.46875 0.53125 1.1875q0 0.71875 -0.53125 1.203125q-0.515625 0.46875 -1.375 0.46875q-0.859375 0 -1.390625 -0.46875q-0.515625 -0.484375 -0.515625 -1.203125zm3.5 2.9375l0 10.40625l-3.203125 0l0 -10.40625l3.203125 0zm8.688538 -0.140625q1.28125 0 2.296875 0.65625q1.015625 0.640625 1.609375 1.84375q0.59375 1.203125 0.59375 2.84375q0 1.625 -0.59375 2.84375q-0.59375 1.203125 -1.609375 1.84375q-1.015625 0.640625 -2.296875 0.640625q-1.1875 0 -2.046875 -0.53125q-0.859375 -0.546875 -1.25 -1.484375l0 6.859375l-3.203125 0l0 -15.375l3.203125 0l0 1.875q0.390625 -0.921875 1.25 -1.46875q0.859375 -0.546875 2.046875 -0.546875zm-1.03125 2.796875q-1.0 0 -1.65625 0.6875q-0.640625 0.6875 -0.640625 1.859375q0 1.15625 0.640625 1.84375q0.65625 0.6875 1.65625 0.6875q1.03125 0 1.65625 -0.671875q0.625 -0.671875 0.625 -1.859375q0 -1.203125 -0.625 -1.875q-0.625 -0.671875 -1.65625 -0.671875zm17.070816 2.265625q0 0.390625 -0.09375 0.859375l-7.21875 0q0.0625 1.171875 0.59375 1.6875q0.546875 0.515625 1.390625 0.515625q0.703125 0 1.171875 -0.359375q0.46875 -0.359375 0.609375 -0.90625l3.390625 0q-0.21875 1.09375 -0.90625 1.96875q-0.6875 0.859375 -1.75 1.359375q-1.0625 0.484375 -2.375 0.484375q-1.53125 0 -2.71875 -0.640625q-1.171875 -0.640625 -1.84375 -1.84375q-0.671875 -1.21875 -0.671875 -2.84375q0 -1.640625 0.65625 -2.84375q0.671875 -1.203125 1.859375 -1.84375q1.1875 -0.65625 2.71875 -0.65625q1.546875 0 2.71875 0.640625q1.1875 0.640625 1.828125 1.78125q0.640625 1.140625 0.640625 2.640625zm-3.21875 -0.484375q0.015625 -1.03125 -0.5625 -1.53125q-0.5625 -0.515625 -1.40625 -0.515625q-0.875 0 -1.453125 0.515625q-0.578125 0.515625 -0.65625 1.53125l4.078125 0zm8.079468 -7.84375l0 13.8125l-3.203125 0l0 -13.8125l3.203125 0zm1.8916626 0.46875q0 -0.71875 0.515625 -1.1875q0.53125 -0.484375 1.390625 -0.484375q0.859375 0 1.375 0.484375q0.53125 0.46875 0.53125 1.1875q0 0.71875 -0.53125 1.203125q-0.515625 0.46875 -1.375 0.46875q-0.859375 0 -1.390625 -0.46875q-0.515625 -0.484375 -0.515625 -1.203125zm3.5 2.9375l0 10.40625l-3.203125 0l0 -10.40625l3.203125 0zm8.797913 -0.109375q1.796875 0 2.84375 1.1875q1.0625 1.1875 1.0625 3.28125l0 6.046875l-3.203125 0l0 -5.671875q0 -1.046875 -0.546875 -1.625q-0.546875 -0.59375 -1.453125 -0.59375q-0.984375 0 -1.546875 0.625q-0.5625 0.609375 -0.5625 1.75l0 5.515625l-3.203125 0l0 -10.40625l3.203125 0l0 1.90625q0.4375 -0.9375 1.328125 -1.46875q0.890625 -0.546875 2.078125 -0.546875zm15.892883 5.03125q0 0.390625 -0.09375 0.859375l-7.21875 0q0.0625 1.171875 0.59375 1.6875q0.546875 0.515625 1.390625 0.515625q0.703125 0 1.171875 -0.359375q0.46875 -0.359375 0.609375 -0.90625l3.390625 0q-0.21875 1.09375 -0.90625 1.96875q-0.6875 0.859375 -1.75 1.359375q-1.0625 0.484375 -2.375 0.484375q-1.53125 0 -2.71875 -0.640625q-1.171875 -0.640625 -1.84375 -1.84375q-0.671875 -1.21875 -0.671875 -2.84375q0 -1.640625 0.65625 -2.84375q0.671875 -1.203125 1.859375 -1.84375q1.1875 -0.65625 2.71875 -0.65625q1.546875 0 2.71875 0.640625q1.1875 0.640625 1.828125 1.78125q0.640625 1.140625 0.640625 2.640625zm-3.21875 -0.484375q0.015625 -1.03125 -0.5625 -1.53125q-0.5625 -0.515625 -1.40625 -0.515625q-0.875 0 -1.453125 0.515625q-0.578125 0.515625 -0.65625 1.53125l4.078125 0z" fill-rule="nonzero"/></g></svg>