<?xml version="1.0" encoding="UTF-8"?>
<svg width="80px" height="104px" viewBox="0 0 80 104" version="1.1" xmlns="http://www.w3.org/2000/svg" xmlns:xlink="http://www.w3.org/1999/xlink">
    <!-- Generator: Sketch 57.1 (83088) - https://sketch.com -->
    <title>TITUS</title>
    <desc>Created with Sketch.</desc>
    <g id="Accelerator-Website" stroke="none" stroke-width="1" fill="none" fill-rule="evenodd">
        <g id="HOME" transform="translate(-191.000000, -620.000000)" fill="#FFFFFF">
            <g id="Accelerators" transform="translate(133.000000, 571.000000)">
                <g id="TITUS" transform="translate(58.000000, 49.000000)">
                    <path d="M47.8558,0.7055 L43.5068,17.1435 C43.3228,17.8415 42.6928,18.3265 41.9718,18.3265 L38.1838,18.3265 C37.4698,18.3265 36.8438,17.8505 36.6538,17.1625 L32.0878,0.7115 C32.0058,0.4125 32.1808,0.1025 32.4798,0.0205 C32.5288,0.0075 32.5798,0.0005 32.6288,0.0005 L36.5748,0.0005 C36.8388,0.0005 37.0688,0.1855 37.1238,0.4445 L40.1648,14.7665 L42.9738,0.4535 C43.0258,0.1895 43.2558,0.0005 43.5248,0.0005 L47.3138,0.0005 C47.6238,0.0005 47.8758,0.2515 47.8758,0.5615 C47.8758,0.6095 47.8688,0.6585 47.8558,0.7055" id="Fill-1"></path>
                    <path d="M32.0775,61.4184 L36.4275,44.9794 C36.6105,44.2824 37.2415,43.7974 37.9625,43.7974 L41.7505,43.7974 C42.4635,43.7974 43.0895,44.2724 43.2805,44.9604 L47.8455,61.4114 C47.9285,61.7104 47.7535,62.0204 47.4545,62.1034 C47.4055,62.1164 47.3545,62.1234 47.3045,62.1234 L43.3595,62.1234 C43.0945,62.1234 42.8655,61.9384 42.8095,61.6784 L39.7685,47.3564 L36.9605,61.6694 C36.9085,61.9334 36.6775,62.1234 36.4085,62.1234 L32.6205,62.1234 C32.3105,62.1234 32.0585,61.8714 32.0585,61.5624 C32.0585,61.5134 32.0655,61.4654 32.0775,61.4184" id="Fill-3"></path>
                    <path d="M70.2533,39.2241 L53.8153,34.8751 C53.1173,34.6911 52.6323,34.0601 52.6323,33.3401 L52.6323,29.5511 C52.6323,28.8381 53.1083,28.2121 53.7963,28.0211 L70.2473,23.4561 C70.5463,23.3731 70.8563,23.5481 70.9383,23.8471 C70.9513,23.8961 70.9583,23.9471 70.9583,23.9971 L70.9583,27.9421 C70.9583,28.2071 70.7733,28.4361 70.5143,28.4921 L56.1923,31.5331 L70.5053,34.3411 C70.7693,34.3931 70.9583,34.6241 70.9583,34.8931 L70.9583,38.6811 C70.9583,38.9921 70.7073,39.2431 70.3973,39.2431 C70.3493,39.2431 70.3003,39.2371 70.2533,39.2241" id="Fill-5"></path>
                    <path d="M9.5404,23.4457 L25.9794,27.7947 C26.6774,27.9787 27.1614,28.6087 27.1614,29.3297 L27.1614,33.1177 C27.1614,33.8317 26.6864,34.4577 25.9984,34.6477 L9.5474,39.2137 C9.2484,39.2967 8.9384,39.1207 8.8554,38.8217 C8.8424,38.7727 8.8354,38.7227 8.8354,38.6727 L8.8354,34.7267 C8.8354,34.4627 9.0204,34.2327 9.2804,34.1777 L23.6024,31.1367 L9.2894,28.3277 C9.0254,28.2757 8.8354,28.0457 8.8354,27.7767 L8.8354,23.9887 C8.8354,23.6777 9.0874,23.4267 9.3964,23.4267 C9.4454,23.4267 9.4934,23.4327 9.5404,23.4457" id="Fill-7"></path>
                    <path d="M67.0326,15.3256 L52.3336,23.8756 C51.7106,24.2376 50.9216,24.1346 50.4116,23.6256 L47.7326,20.9466 C47.2286,20.4416 47.1226,19.6626 47.4736,19.0416 L55.8786,4.1806 C56.0316,3.9116 56.3736,3.8156 56.6436,3.9696 C56.6876,3.9936 56.7276,4.0246 56.7636,4.0606 L59.5536,6.8496 C59.7406,7.0376 59.7716,7.3306 59.6276,7.5536 L51.6506,19.8296 L63.7586,11.6956 C63.9806,11.5466 64.2786,11.5746 64.4686,11.7636 L67.1466,14.4436 C67.3666,14.6626 67.3666,15.0176 67.1466,15.2376 C67.1126,15.2716 67.0746,15.3016 67.0326,15.3256" id="Fill-9"></path>
                    <path d="M12.9447,47.0991 L27.6437,38.5501 C28.2667,38.1881 29.0557,38.2901 29.5657,38.8001 L32.2447,41.4791 C32.7487,41.9831 32.8547,42.7621 32.5037,43.3831 L24.0987,58.2441 C23.9467,58.5141 23.6037,58.6091 23.3337,58.4561 C23.2897,58.4311 23.2497,58.4011 23.2137,58.3651 L20.4237,55.5761 C20.2367,55.3881 20.2057,55.0951 20.3497,54.8721 L28.3267,42.5951 L16.2187,50.7301 C15.9967,50.8791 15.6987,50.8501 15.5087,50.6611 L12.8307,47.9821 C12.6107,47.7621 12.6107,47.4071 12.8307,47.1881 C12.8647,47.1541 12.9027,47.1231 12.9447,47.0991" id="Fill-11"></path>
                    <path d="M55.6331,58.3999 L47.0831,43.7009 C46.7221,43.0779 46.8241,42.2899 47.3331,41.7799 L50.0121,39.1009 C50.5171,38.5959 51.2961,38.4899 51.9171,38.8409 L66.7781,47.2469 C67.0471,47.3989 67.1431,47.7419 66.9891,48.0109 C66.9651,48.0549 66.9341,48.0959 66.8981,48.1319 L64.1091,50.9209 C63.9211,51.1089 63.6281,51.1389 63.4051,50.9949 L51.1291,43.0179 L59.2631,55.1259 C59.4131,55.3489 59.3841,55.6459 59.1951,55.8369 L56.5151,58.5149 C56.2961,58.7339 55.9411,58.7339 55.7211,58.5149 C55.6871,58.4809 55.6571,58.4419 55.6331,58.3999" id="Fill-13"></path>
                    <path d="M23.8597,4.3129 L32.4087,19.0119 C32.7707,19.6349 32.6687,20.4229 32.1587,20.9329 L29.4797,23.6119 C28.9757,24.1169 28.1967,24.2219 27.5757,23.8719 L12.7147,15.4659 C12.4447,15.3139 12.3497,14.9709 12.5027,14.7019 C12.5277,14.6579 12.5577,14.6169 12.5937,14.5809 L15.3827,11.7919 C15.5707,11.6039 15.8637,11.5729 16.0867,11.7169 L28.3637,19.6939 L20.2287,7.5859 C20.0797,7.3639 20.1087,7.0669 20.2977,6.8759 L22.9767,4.1979 C23.1967,3.9789 23.5517,3.9789 23.7707,4.1979 C23.8047,4.2319 23.8357,4.2709 23.8597,4.3129" id="Fill-15"></path>
                    <path d="M39.7953,38.7436 C43.8263,38.7436 47.0953,35.4746 47.0953,31.4436 C47.0953,27.4126 43.8263,24.1446 39.7953,24.1446 C35.7643,24.1446 32.4963,27.4126 32.4963,31.4436 C32.4963,35.4746 35.7643,38.7436 39.7953,38.7436" id="Fill-17"></path>
                    <polygon id="Fill-19" points="16.1195 89.0473 10.3085 89.0473 10.3085 103.2123 5.8105 103.2123 5.8105 89.0473 0.0005 89.0473 0.0005 85.0043 16.1195 85.0043"></polygon>
                    <polygon id="Fill-21" points="18.745 103.212 23.269 103.212 23.269 85.004 18.745 85.004"></polygon>
                    <polygon id="Fill-23" points="42.0121 89.0473 36.2011 89.0473 36.2011 103.2123 31.7031 103.2123 31.7031 89.0473 25.8931 89.0473 25.8931 85.0043 42.0121 85.0043"></polygon>
                    <path d="M61.2914,94.7241 C61.2914,100.3731 58.0244,103.5601 52.8044,103.5601 C47.6094,103.5601 44.3424,100.3731 44.3424,94.7241 L44.3424,85.0041 L48.8954,85.0041 L48.8954,94.8041 C48.8954,97.5891 50.4204,99.3291 52.8044,99.3291 C55.1874,99.3291 56.7394,97.5891 56.7394,94.8041 L56.7394,85.0041 L61.2914,85.0041 L61.2914,94.7241 Z" id="Fill-24"></path>
                    <path d="M79.7669,90.6538 L75.2149,90.6538 C74.9749,89.2888 74.1449,88.3508 72.2169,88.3508 C70.6109,88.3508 69.5659,88.9668 69.5659,90.1448 C69.5659,91.1898 70.3159,91.6448 71.7619,91.9388 L74.3049,92.4748 C77.6529,93.1718 79.7939,94.5368 79.7939,97.6698 C79.7939,101.3108 76.7949,103.5598 72.2439,103.5598 C68.1469,103.5598 64.4519,101.6058 64.0239,97.1068 L68.5759,97.1068 C68.8699,98.7138 70.2359,99.7308 72.3769,99.7308 C73.9839,99.7308 74.9479,99.1158 74.9479,98.0978 C74.9479,97.4558 74.5999,96.7858 73.0199,96.4908 L70.0209,95.8478 C66.4329,95.0718 64.7459,93.4388 64.7459,90.5478 C64.7459,86.9058 67.6919,84.6568 71.9759,84.6568 C74.9209,84.6568 79.3129,85.7548 79.7669,90.6538" id="Fill-25"></path>
                </g>
            </g>
        </g>
    </g>
</svg>