<svg version="1.1" viewBox="0.0 0.0 685.501312335958 171.95800524934384" fill="none" stroke="none" stroke-linecap="square" stroke-miterlimit="10" xmlns:xlink="http://www.w3.org/1999/xlink" xmlns="http://www.w3.org/2000/svg"><clipPath id="p.0"><path d="m0 0l685.50134 0l0 171.95801l-685.50134 0l0 -171.95801z" clip-rule="nonzero"/></clipPath><g clip-path="url(#p.0)"><path fill="#000000" fill-opacity="0.0" d="m0 0l685.50134 0l0 171.95801l-685.50134 0z" fill-rule="evenodd"/><path fill="#000000" fill-opacity="0.0" d="m0 6.0813646l142.23622 0l0 32.503937l-142.23622 0z" fill-rule="evenodd"/><path fill="#fd7a9e" d="m24.787964 22.628332q0 1.9375 -0.828125 3.453125q-0.828125 1.5 -2.390625 2.34375q-1.5625 0.828125 -3.671875 0.828125l-4.984375 0l0 -13.1875l4.984375 0q2.125 0 3.671875 0.828125q1.5625 0.8125 2.390625 2.3125q0.828125 1.484375 0.828125 3.421875zm-7.171875 3.765625q1.875 0 2.90625 -0.984375q1.03125 -0.984375 1.03125 -2.78125q0 -1.78125 -1.03125 -2.765625q-1.03125 -1.0 -2.90625 -1.0l-1.5 0l0 7.53125l1.5 0zm18.862534 -2.625q0 0.390625 -0.09375 0.859375l-7.21875 0q0.0625 1.171875 0.59375 1.6875q0.546875 0.515625 1.390625 0.515625q0.703125 0 1.171875 -0.359375q0.46875 -0.359375 0.609375 -0.90625l3.390625 0q-0.21875 1.09375 -0.90625 1.96875q-0.6875 0.859375 -1.75 1.359375q-1.0625 0.484375 -2.375 0.484375q-1.53125 0 -2.71875 -0.640625q-1.171875 -0.640625 -1.84375 -1.84375q-0.671875 -1.21875 -0.671875 -2.84375q0 -1.640625 0.65625 -2.84375q0.671875 -1.203125 1.859375 -1.84375q1.1875 -0.65625 2.71875 -0.65625q1.546875 0 2.71875 0.640625q1.1875 0.640625 1.828125 1.78125q0.640625 1.140625 0.640625 2.640625zm-3.21875 -0.484375q0.015625 -1.03125 -0.5625 -1.53125q-0.5625 -0.515625 -1.40625 -0.515625q-0.875 0 -1.453125 0.515625q-0.578125 0.515625 -0.65625 1.53125l4.078125 0zm11.376343 -4.578125q1.28125 0 2.296875 0.65625q1.015625 0.640625 1.609375 1.84375q0.59375 1.203125 0.59375 2.84375q0 1.625 -0.59375 2.84375q-0.59375 1.203125 -1.609375 1.84375q-1.015625 0.640625 -2.296875 0.640625q-1.1875 0 -2.046875 -0.53125q-0.859375 -0.546875 -1.25 -1.484375l0 6.859373l-3.203125 0l0 -15.374998l3.203125 0l0 1.875q0.390625 -0.921875 1.25 -1.46875q0.859375 -0.546875 2.046875 -0.546875zm-1.03125 2.796875q-1.0 0 -1.65625 0.6875q-0.640625 0.6875 -0.640625 1.859375q0 1.15625 0.640625 1.84375q0.65625 0.6875 1.65625 0.6875q1.03125 0 1.65625 -0.671875q0.625 -0.671875 0.625 -1.859375q0 -1.203125 -0.625 -1.875q-0.625 -0.671875 -1.65625 -0.671875zm10.383316 -6.062501l0 13.812501l-3.203125 0l0 -13.812501l3.203125 0zm7.0635376 3.265626q1.546875 0 2.765625 0.65625q1.234375 0.640625 1.921875 1.859375q0.703125 1.203125 0.703125 2.828125q0 1.625 -0.703125 2.84375q-0.6875 1.203125 -1.921875 1.84375q-1.21875 0.640625 -2.765625 0.640625q-1.546875 0 -2.78125 -0.640625q-1.234375 -0.640625 -1.9375 -1.84375q-0.6875 -1.21875 -0.6875 -2.84375q0 -1.625 0.6875 -2.828125q0.703125 -1.21875 1.9375 -1.859375q1.234375 -0.65625 2.78125 -0.65625zm0 2.765625q-0.90625 0 -1.53125 0.671875q-0.625 0.65625 -0.625 1.90625q0 1.25 0.625 1.90625q0.625 0.640625 1.53125 0.640625q0.921875 0 1.53125 -0.640625q0.609375 -0.65625 0.609375 -1.90625q0 -1.25 -0.609375 -1.90625q-0.609375 -0.671875 -1.53125 -0.671875zm9.452591 -2.625l2.5 6.375l2.34375 -6.375l3.515625 0l-6.484375 15.374998l-3.515625 0l2.453125 -5.359373l-4.375 -10.015625l3.5625 0zm22.921814 -0.109375q1.921875 0 3.015625 1.1875q1.109375 1.171875 1.109375 3.28125l0 6.046875l-3.171875 0l0 -5.671875q0 -0.984375 -0.53125 -1.53125q-0.53125 -0.5625 -1.453125 -0.5625q-0.953125 0 -1.5 0.59375q-0.546875 0.59375 -0.546875 1.65625l0 5.515625l-3.1875 0l0 -5.671875q0 -0.984375 -0.53125 -1.53125q-0.515625 -0.5625 -1.4375 -0.5625q-0.953125 0 -1.515625 0.578125q-0.546875 0.578125 -0.546875 1.671875l0 5.515625l-3.203125 0l0 -10.40625l3.203125 0l0 1.765625q0.40625 -0.875 1.25 -1.375q0.859375 -0.5 1.984375 -0.5q1.203125 0 2.109375 0.546875q0.921875 0.546875 1.390625 1.578125q0.53125 -0.96875 1.46875 -1.546875q0.953125 -0.578125 2.09375 -0.578125zm16.128937 5.03125q0 0.390625 -0.09375 0.859375l-7.21875 0q0.0625 1.171875 0.59375 1.6875q0.546875 0.515625 1.390625 0.515625q0.703125 0 1.171875 -0.359375q0.46875 -0.359375 0.609375 -0.90625l3.390625 0q-0.21875 1.09375 -0.90625 1.96875q-0.6875 0.859375 -1.75 1.359375q-1.0625 0.484375 -2.375 0.484375q-1.53125 0 -2.71875 -0.640625q-1.171875 -0.640625 -1.84375 -1.84375q-0.671875 -1.21875 -0.671875 -2.84375q0 -1.640625 0.65625 -2.84375q0.671875 -1.203125 1.859375 -1.84375q1.1875 -0.65625 2.71875 -0.65625q1.546875 0 2.71875 0.640625q1.1875 0.640625 1.828125 1.78125q0.640625 1.140625 0.640625 2.640625zm-3.21875 -0.484375q0.015625 -1.03125 -0.5625 -1.53125q-0.5625 -0.515625 -1.40625 -0.515625q-0.875 0 -1.453125 0.515625q-0.578125 0.515625 -0.65625 1.53125l4.078125 0zm11.485718 -4.546875q1.796875 0 2.84375 1.1875q1.0625 1.1875 1.0625 3.28125l0 6.046875l-3.203125 0l0 -5.671875q0 -1.046875 -0.546875 -1.625q-0.546875 -0.59375 -1.453125 -0.59375q-0.984375 0 -1.546875 0.625q-0.5625 0.609375 -0.5625 1.75l0 5.515625l-3.203125 0l0 -10.40625l3.203125 0l0 1.90625q0.4375 -0.9375 1.328125 -1.46875q0.890625 -0.546875 2.078125 -0.546875zm11.908508 7.765625l0 2.75l-1.4375 0q-1.828125 0 -2.84375 -0.90625q-1.015625 -0.90625 -1.015625 -3.0l0 -3.8125l-1.40625 0l0 -2.6875l1.40625 0l0 -2.5625l3.1875 0l0 2.5625l2.09375 0l0 2.6875l-2.09375 0l0 3.875q0 0.609375 0.25 0.859375q0.25 0.234375 0.84375 0.234375l1.015625 0z" fill-rule="nonzero"/><path fill="#fd7a9e" d="m10.684574 138.78786l0 0c0 -2.9919586 2.4254665 -5.4174347 5.417431 -5.4174347l88.22025 0c1.4367981 0 2.814743 0.57077026 3.8307037 1.586731c1.0159683 1.0159607 1.586731 2.3939056 1.586731 3.8307037l0 21.669083c0 2.9919586 -2.4254684 5.4174194 -5.4174347 5.4174194l-88.22025 0c-2.9919643 0 -5.417431 -2.4254608 -5.417431 -5.4174194z" fill-rule="evenodd"/><path fill="#ffffff" d="m29.4348 153.3599l0 1.0625l-0.90625 0q-1.125 0 -1.6875 -0.53125q-0.546875 -0.53125 -0.546875 -1.78125l0 -3.953125l-1.09375 0l0 -1.046875l1.09375 0l0 -1.828125l1.234375 0l0 1.828125l1.890625 0l0 1.046875l-1.890625 0l0 3.96875q0 0.703125 0.25 0.96875q0.265625 0.265625 0.90625 0.265625l0.75 0zm1.2682495 -8.40625q0 -0.328125 0.21875 -0.53125q0.234375 -0.203125 0.609375 -0.203125q0.359375 0 0.578125 0.203125q0.234375 0.203125 0.234375 0.53125q0 0.34375 -0.234375 0.546875q-0.21875 0.203125 -0.578125 0.203125q-0.375 0 -0.609375 -0.203125q-0.21875 -0.203125 -0.21875 -0.546875zm1.421875 2.15625l0 7.3125l-1.21875 0l0 -7.3125l1.21875 0zm5.4400024 6.25l0 1.0625l-0.90625 0q-1.125 0 -1.6875 -0.53125q-0.546875 -0.53125 -0.546875 -1.78125l0 -3.953125l-1.09375 0l0 -1.046875l1.09375 0l0 -1.828125l1.234375 0l0 1.828125l1.890625 0l0 1.046875l-1.890625 0l0 3.96875q0 0.703125 0.25 0.96875q0.265625 0.265625 0.90625 0.265625l0.75 0zm7.9869995 -6.25l0 7.3125l-1.21875 0l0 -1.71875q-0.28125 0.890625 -1.0 1.375q-0.703125 0.46875 -1.65625 0.46875q-1.265625 0 -2.0625 -0.8125q-0.78125 -0.828125 -0.78125 -2.359375l0 -4.265625l1.21875 0l0 4.140625q0 1.09375 0.5625 1.6875q0.5625 0.59375 1.515625 0.59375q1.0 0 1.59375 -0.640625q0.609375 -0.65625 0.609375 -1.890625l0 -3.890625l1.21875 0zm4.231247 -0.09375q1.234375 0 1.984375 0.640625q0.765625 0.640625 0.921875 1.734375l-1.15625 0q-0.078125 -0.640625 -0.546875 -1.0625q-0.453125 -0.421875 -1.234375 -0.421875q-0.65625 0 -1.015625 0.3125q-0.359375 0.3125 -0.359375 0.84375q0 0.40625 0.234375 0.65625q0.25 0.234375 0.609375 0.359375q0.375 0.125 1.015625 0.28125q0.8125 0.1875 1.3125 0.390625q0.5 0.1875 0.84375 0.609375q0.359375 0.421875 0.359375 1.140625q0 0.890625 -0.671875 1.453125q-0.671875 0.5625 -1.796875 0.5625q-1.296875 0 -2.125 -0.625q-0.828125 -0.625 -0.96875 -1.75l1.171875 0q0.0625 0.671875 0.578125 1.09375q0.515625 0.40625 1.34375 0.40625q0.625 0 0.984375 -0.3125q0.359375 -0.328125 0.359375 -0.859375q0 -0.421875 -0.265625 -0.671875q-0.25 -0.25 -0.625 -0.375q-0.359375 -0.140625 -1.015625 -0.296875q-0.8125 -0.1875 -1.3125 -0.375q-0.484375 -0.1875 -0.828125 -0.59375q-0.328125 -0.40625 -0.328125 -1.09375q0 -0.921875 0.671875 -1.484375q0.6875 -0.5625 1.859375 -0.5625zm8.749985 2.015625l0 1.015625l-5.328125 0l0 -1.015625l5.328125 0zm6.2472076 -2.046875q1.28125 0 2.0625 0.828125q0.78125 0.8125 0.78125 2.359375l0 4.25l-1.203125 0l0 -4.140625q0 -1.09375 -0.5625 -1.671875q-0.5625 -0.59375 -1.515625 -0.59375q-1.0 0 -1.609375 0.640625q-0.59375 0.640625 -0.59375 1.890625l0 3.875l-1.21875 0l0 -7.3125l1.21875 0l0 1.734375q0.28125 -0.90625 0.984375 -1.375q0.71875 -0.484375 1.65625 -0.484375zm8.038696 0.03125q1.046875 0 1.875 0.453125q0.84375 0.453125 1.3125 1.3125q0.46875 0.84375 0.46875 1.984375q0 1.15625 -0.46875 2.0q-0.46875 0.84375 -1.3125 1.296875q-0.828125 0.453125 -1.875 0.453125q-1.0625 0 -1.890625 -0.453125q-0.828125 -0.453125 -1.3125 -1.296875q-0.484375 -0.84375 -0.484375 -2.0q0 -1.140625 0.484375 -1.984375q0.484375 -0.859375 1.3125 -1.3125q0.828125 -0.453125 1.890625 -0.453125zm0 1.0625q-0.65625 0 -1.21875 0.296875q-0.546875 0.296875 -0.890625 0.90625q-0.328125 0.59375 -0.328125 1.484375q0 0.890625 0.328125 1.5q0.34375 0.59375 0.890625 0.890625q0.5625 0.296875 1.21875 0.296875q0.640625 0 1.1875 -0.296875q0.5625 -0.296875 0.90625 -0.890625q0.34375 -0.609375 0.34375 -1.5q0 -0.890625 -0.34375 -1.484375q-0.34375 -0.609375 -0.90625 -0.90625q-0.546875 -0.296875 -1.1875 -0.296875zm5.0386963 -3.125q0 -0.328125 0.21875 -0.53125q0.234375 -0.203125 0.609375 -0.203125q0.359375 0 0.578125 0.203125q0.234375 0.203125 0.234375 0.53125q0 0.34375 -0.234375 0.546875q-0.21875 0.203125 -0.578125 0.203125q-0.375 0 -0.609375 -0.203125q-0.21875 -0.203125 -0.21875 -0.546875zm1.421875 2.15625l0 7.3125l-1.21875 0l0 -7.3125l1.21875 0zm4.2368774 -0.09375q1.234375 0 1.984375 0.640625q0.765625 0.640625 0.921875 1.734375l-1.15625 0q-0.078125 -0.640625 -0.546875 -1.0625q-0.453125 -0.421875 -1.234375 -0.421875q-0.65625 0 -1.015625 0.3125q-0.359375 0.3125 -0.359375 0.84375q0 0.40625 0.234375 0.65625q0.25 0.234375 0.609375 0.359375q0.375 0.125 1.015625 0.28125q0.8125 0.1875 1.3125 0.390625q0.5 0.1875 0.84375 0.609375q0.359375 0.421875 0.359375 1.140625q0 0.890625 -0.671875 1.453125q-0.671875 0.5625 -1.796875 0.5625q-1.296875 0 -2.125 -0.625q-0.828125 -0.625 -0.96875 -1.75l1.171875 0q0.0625 0.671875 0.578125 1.09375q0.515625 0.40625 1.34375 0.40625q0.625 0 0.984375 -0.3125q0.359375 -0.328125 0.359375 -0.859375q0 -0.421875 -0.265625 -0.671875q-0.25 -0.25 -0.625 -0.375q-0.359375 -0.140625 -1.015625 -0.296875q-0.8125 -0.1875 -1.3125 -0.375q-0.484375 -0.1875 -0.828125 -0.59375q-0.328125 -0.40625 -0.328125 -1.09375q0 -0.921875 0.671875 -1.484375q0.6875 -0.5625 1.859375 -0.5625zm11.32811 3.34375q0 0.390625 -0.046875 0.65625l-5.859375 0q0.046875 1.265625 0.71875 1.890625q0.671875 0.625 1.640625 0.625q0.875 0 1.46875 -0.4375q0.59375 -0.453125 0.734375 -1.203125l1.296875 0q-0.140625 0.765625 -0.609375 1.359375q-0.453125 0.59375 -1.1875 0.9375q-0.734375 0.328125 -1.640625 0.328125q-1.0625 0 -1.875 -0.453125q-0.8125 -0.453125 -1.28125 -1.296875q-0.453125 -0.84375 -0.453125 -2.0q0 -1.140625 0.453125 -1.984375q0.46875 -0.859375 1.28125 -1.3125q0.8125 -0.453125 1.875 -0.453125q1.0625 0 1.84375 0.453125q0.796875 0.453125 1.21875 1.21875q0.421875 0.75 0.421875 1.671875zm-1.21875 0.078125q0.03125 -0.8125 -0.28125 -1.359375q-0.296875 -0.546875 -0.828125 -0.8125q-0.53125 -0.265625 -1.15625 -0.265625q-1.0 0 -1.6875 0.625q-0.671875 0.609375 -0.734375 1.8125l4.6875 0z" fill-rule="nonzero"/><path fill="#f9c3c0" d="m159.63402 92.26257l0 0c0 -2.9919586 2.4254608 -5.417427 5.4174347 -5.417427l88.220245 0c1.4367981 0 2.8147278 0.57076263 3.830719 1.5867233c1.0159607 1.0159683 1.586731 2.3939133 1.586731 3.8307037l0 21.669075c0 2.9919662 -2.425476 5.4174347 -5.41745 5.4174347l-88.220245 0c-2.9919739 0 -5.4174347 -2.4254684 -5.4174347 -5.4174347z" fill-rule="evenodd"/><path fill="#ffffff" d="m188.5234 98.412735q1.71875 0 2.84375 0.84375q1.125 0.84375 1.546875 2.3125l-1.28125 0q-0.359375 -0.9375 -1.15625 -1.484375q-0.796875 -0.5625 -1.953125 -0.5625q-0.921875 0 -1.65625 0.453125q-0.71875 0.4375 -1.140625 1.28125q-0.421875 0.828125 -0.421875 1.953125q0 1.109375 0.421875 1.9375q0.421875 0.8125 1.140625 1.265625q0.734375 0.4375 1.65625 0.4375q1.15625 0 1.953125 -0.546875q0.796875 -0.546875 1.15625 -1.484375l1.28125 0q-0.421875 1.46875 -1.546875 2.3125q-1.125 0.84375 -2.84375 0.84375q-1.3125 0 -2.328125 -0.609375q-1.015625 -0.609375 -1.578125 -1.6875q-0.5625 -1.09375 -0.5625 -2.46875q0 -1.40625 0.5625 -2.5q0.5625 -1.09375 1.578125 -1.6875q1.015625 -0.609375 2.328125 -0.609375zm5.809952 0.015625q0 -0.328125 0.21875 -0.53125q0.234375 -0.203125 0.609375 -0.203125q0.359375 0 0.578125 0.203125q0.234375 0.203125 0.234375 0.53125q0 0.34375 -0.234375 0.546875q-0.21875 0.203125 -0.578125 0.203125q-0.375 0 -0.609375 -0.203125q-0.21875 -0.203125 -0.21875 -0.546875zm1.421875 2.15625l0 7.3125l-1.21875 0l0 -7.3125l1.21875 0zm3.1587524 1.46875q0.359375 -0.75 1.046875 -1.171875q0.703125 -0.421875 1.65625 -0.421875l0 1.3125l-0.375 0q-1.03125 0 -1.6875 0.53125q-0.640625 0.53125 -0.640625 1.734375l0 3.859375l-1.21875 0l0 -7.3125l1.21875 0l0 1.46875zm7.149231 -1.5625q1.390625 0 2.3125 0.75q0.921875 0.734375 1.125 1.984375l-1.265625 0q-0.140625 -0.78125 -0.734375 -1.21875q-0.59375 -0.453125 -1.46875 -0.453125q-0.640625 0 -1.171875 0.296875q-0.515625 0.296875 -0.84375 0.90625q-0.3125 0.59375 -0.3125 1.484375q0 0.890625 0.3125 1.5q0.328125 0.609375 0.84375 0.90625q0.53125 0.296875 1.171875 0.296875q0.875 0 1.46875 -0.453125q0.59375 -0.453125 0.734375 -1.25l1.265625 0q-0.203125 1.265625 -1.125 2.015625q-0.921875 0.734375 -2.3125 0.734375q-1.0625 0 -1.875 -0.453125q-0.8125 -0.453125 -1.28125 -1.296875q-0.453125 -0.84375 -0.453125 -2.0q0 -1.140625 0.453125 -1.984375q0.46875 -0.859375 1.28125 -1.3125q0.8125 -0.453125 1.875 -0.453125zm6.2454834 -2.453125l0 9.859375l-1.21875 0l0 -9.859375l1.21875 0zm8.674377 5.796875q0 0.390625 -0.046875 0.65625l-5.859375 0q0.046875 1.265625 0.71875 1.890625q0.671875 0.625 1.640625 0.625q0.875 0 1.46875 -0.4375q0.59375 -0.453125 0.734375 -1.203125l1.296875 0q-0.140625 0.765625 -0.609375 1.359375q-0.453125 0.59375 -1.1875 0.9375q-0.734375 0.328125 -1.640625 0.328125q-1.0625 0 -1.875 -0.453125q-0.8125 -0.453125 -1.28125 -1.296875q-0.453125 -0.84375 -0.453125 -2.0q0 -1.140625 0.453125 -1.984375q0.46875 -0.859375 1.28125 -1.3125q0.8125 -0.453125 1.875 -0.453125q1.0625 0 1.84375 0.453125q0.796875 0.453125 1.21875 1.21875q0.421875 0.75 0.421875 1.671875zm-1.21875 0.078125q0.03125 -0.8125 -0.28125 -1.359375q-0.296875 -0.546875 -0.828125 -0.8125q-0.53125 -0.265625 -1.15625 -0.265625q-1.0 0 -1.6875 0.625q-0.671875 0.609375 -0.734375 1.8125l4.6875 0zm6.9573517 -5.5q1.71875 0 2.84375 0.84375q1.125 0.84375 1.546875 2.3125l-1.28125 0q-0.359375 -0.9375 -1.15625 -1.484375q-0.796875 -0.5625 -1.953125 -0.5625q-0.921875 0 -1.65625 0.453125q-0.71875 0.4375 -1.140625 1.28125q-0.421875 0.828125 -0.421875 1.953125q0 1.109375 0.421875 1.9375q0.421875 0.8125 1.140625 1.265625q0.734375 0.4375 1.65625 0.4375q1.15625 0 1.953125 -0.546875q0.796875 -0.546875 1.15625 -1.484375l1.28125 0q-0.421875 1.46875 -1.546875 2.3125q-1.125 0.84375 -2.84375 0.84375q-1.3125 0 -2.328125 -0.609375q-1.015625 -0.609375 -1.578125 -1.6875q-0.5625 -1.09375 -0.5625 -2.46875q0 -1.40625 0.5625 -2.5q0.5625 -1.09375 1.578125 -1.6875q1.015625 -0.609375 2.328125 -0.609375zm5.809952 0.015625q0 -0.328125 0.21875 -0.53125q0.234375 -0.203125 0.609375 -0.203125q0.359375 0 0.578125 0.203125q0.234375 0.203125 0.234375 0.53125q0 0.34375 -0.234375 0.546875q-0.21875 0.203125 -0.578125 0.203125q-0.375 0 -0.609375 -0.203125q-0.21875 -0.203125 -0.21875 -0.546875zm1.421875 2.15625l0 7.3125l-1.21875 0l0 -7.3125l1.21875 0z" fill-rule="nonzero"/><path fill="#f9c3c0" d="m258.6885 47.200897l0 0c0 -2.9919662 2.4254456 -5.417431 5.4174194 -5.417431l88.220245 0c1.4367981 0 2.8147583 0.57076263 3.830719 1.5867271c1.0159607 1.0159645 1.586731 2.3939095 1.586731 3.8307037l0 21.669075c0 2.9919662 -2.425476 5.417427 -5.41745 5.417427l-88.220245 0c-2.9919739 0 -5.4174194 -2.4254608 -5.4174194 -5.417427z" fill-rule="evenodd"/><path fill="#ffffff" d="m298.06177 54.42918l0 3.203125l3.5625 0l0 0.9375l-3.5625 0l0 3.28125l3.96875 0l0 0.984375l-5.1875 0l0 -9.390625l5.1875 0l0 0.984375l-3.96875 0zm9.681488 -1.078125q1.71875 0 2.84375 0.84375q1.125 0.84375 1.546875 2.3125l-1.28125 0q-0.359375 -0.9375 -1.15625 -1.484375q-0.796875 -0.5625 -1.953125 -0.5625q-0.921875 0 -1.65625 0.453125q-0.71875 0.4375 -1.140625 1.28125q-0.421875 0.828125 -0.421875 1.953125q0 1.109375 0.421875 1.9375q0.421875 0.8125 1.140625 1.265625q0.734375 0.4375 1.65625 0.4375q1.15625 0 1.953125 -0.546875q0.796875 -0.546875 1.15625 -1.484375l1.28125 0q-0.421875 1.46875 -1.546875 2.3125q-1.125 0.84375 -2.84375 0.84375q-1.3125 0 -2.328125 -0.609375q-1.015625 -0.609375 -1.578125 -1.6875q-0.5625 -1.09375 -0.5625 -2.46875q0 -1.40625 0.5625 -2.5q0.5625 -1.09375 1.578125 -1.6875q1.015625 -0.609375 2.328125 -0.609375zm10.997467 9.484375l-2.453125 -3.84375l-1.3125 0l0 3.84375l-1.21875 0l0 -9.390625l3.09375 0q1.609375 0 2.40625 0.765625q0.796875 0.765625 0.796875 2.03125q0 1.140625 -0.640625 1.84375q-0.640625 0.703125 -1.859375 0.875l2.5625 3.875l-1.375 0zm-3.765625 -4.71875l1.765625 0q2.078125 0 2.078125 -1.8125q0 -1.8125 -2.078125 -1.8125l-1.765625 0l0 3.625z" fill-rule="nonzero"/><path fill="#f9c3c0" d="m258.68896 137.32162l0 0c0 -2.9919586 2.425476 -5.4174194 5.41745 -5.4174194l88.220245 0c1.4367981 0 2.8147278 0.570755 3.830719 1.5867157c1.0159607 1.015976 1.5867004 2.393921 1.5867004 3.8307037l0 21.669083c0 2.9919586 -2.4254456 5.4174347 -5.4174194 5.4174347l-88.220245 0c-2.9919739 0 -5.41745 -2.425476 -5.41745 -5.4174347z" fill-rule="evenodd"/><path fill="#ffffff" d="m299.2308 143.56554l0 9.390625l-1.234375 0l0 -4.34375l-4.765625 0l0 4.34375l-1.21875 0l0 -9.390625l1.21875 0l0 4.0625l4.765625 0l0 -4.0625l1.234375 0zm8.672028 5.328125q0 0.390625 -0.046875 0.65625l-5.859375 0q0.046875 1.265625 0.71875 1.890625q0.671875 0.625 1.640625 0.625q0.875 0 1.46875 -0.4375q0.59375 -0.453125 0.734375 -1.203125l1.296875 0q-0.140625 0.765625 -0.609375 1.359375q-0.453125 0.59375 -1.1875 0.9375q-0.734375 0.328125 -1.640625 0.328125q-1.0625 0 -1.875 -0.453125q-0.8125 -0.453125 -1.28125 -1.296875q-0.453125 -0.84375 -0.453125 -2.0q0 -1.140625 0.453125 -1.984375q0.46875 -0.859375 1.28125 -1.3125q0.8125 -0.453125 1.875 -0.453125q1.0625 0 1.84375 0.453125q0.796875 0.453125 1.21875 1.21875q0.421875 0.75 0.421875 1.671875zm-1.21875 0.078125q0.03125 -0.8125 -0.28125 -1.359375q-0.296875 -0.546875 -0.828125 -0.8125q-0.53125 -0.265625 -1.15625 -0.265625q-1.0 0 -1.6875 0.625q-0.671875 0.609375 -0.734375 1.8125l4.6875 0zm4.0198364 -5.875l0 9.859375l-1.21875 0l0 -9.859375l1.21875 0zm10.940002 2.421875q1.28125 0 2.0625 0.828125q0.78125 0.8125 0.78125 2.359375l0 4.25l-1.21875 0l0 -4.140625q0 -1.078125 -0.53125 -1.65625q-0.515625 -0.578125 -1.4375 -0.578125q-0.96875 0 -1.546875 0.640625q-0.578125 0.625 -0.578125 1.859375l0 3.875l-1.203125 0l0 -4.140625q0 -1.078125 -0.546875 -1.65625q-0.53125 -0.578125 -1.4375 -0.578125q-0.96875 0 -1.546875 0.640625q-0.578125 0.625 -0.578125 1.859375l0 3.875l-1.21875 0l0 -7.3125l1.21875 0l0 1.65625q0.265625 -0.859375 0.953125 -1.3125q0.6875 -0.46875 1.578125 -0.46875q0.9375 0 1.625 0.484375q0.6875 0.46875 0.96875 1.375q0.3125 -0.890625 1.03125 -1.375q0.71875 -0.484375 1.625 -0.484375z" fill-rule="nonzero"/><path fill="#f9c3c0" d="m357.74408 92.26257l0 0c0 -2.9919586 2.425476 -5.417427 5.41745 -5.417427l88.220245 0c1.4367981 0 2.8147583 0.57076263 3.830719 1.5867233c1.0159607 1.0159683 1.586731 2.3939133 1.586731 3.8307037l0 21.669075c0 2.9919662 -2.425476 5.4174347 -5.41745 5.4174347l-88.220245 0c-2.9919739 0 -5.41745 -2.4254684 -5.41745 -5.4174347z" fill-rule="evenodd"/><path fill="#ffffff" d="m399.06848 105.725235l-4.140625 0l-0.78125 2.171875l-1.3125 0l3.484375 -9.21875l1.375 0l3.453125 9.21875l-1.296875 0l-0.78125 -2.171875zm-0.359375 -0.953125l-1.71875 -4.734375l-1.71875 4.734375l3.4375 0zm15.229431 -6.265625l-2.390625 9.390625l-1.484375 0l-2.171875 -7.671875l-2.171875 7.671875l-1.46875 0l-2.40625 -9.390625l1.34375 0l1.796875 7.984375l2.234375 -7.984375l1.34375 0l2.234375 7.953125l1.8125 -7.953125l1.328125 0zm7.3721924 6.953125q0 0.671875 -0.328125 1.25q-0.3125 0.5625 -0.96875 0.921875q-0.65625 0.359375 -1.609375 0.359375q-0.9375 0 -1.671875 -0.34375q-0.71875 -0.34375 -1.15625 -0.921875q-0.421875 -0.59375 -0.5 -1.359375l1.296875 0q0.046875 0.40625 0.28125 0.78125q0.234375 0.375 0.65625 0.625q0.4375 0.25 1.046875 0.25q0.796875 0 1.21875 -0.421875q0.4375 -0.4375 0.4375 -1.109375q0 -0.5625 -0.296875 -0.921875q-0.296875 -0.359375 -0.75 -0.5625q-0.4375 -0.21875 -1.1875 -0.453125q-0.890625 -0.296875 -1.4375 -0.546875q-0.546875 -0.265625 -0.921875 -0.78125q-0.375 -0.53125 -0.375 -1.375q0 -0.734375 0.34375 -1.296875q0.359375 -0.5625 1.015625 -0.859375q0.65625 -0.3125 1.5625 -0.3125q1.375 0 2.1875 0.671875q0.8125 0.671875 0.953125 1.71875l-1.3125 0q-0.109375 -0.5625 -0.578125 -0.984375q-0.453125 -0.4375 -1.25 -0.4375q-0.734375 0 -1.1875 0.390625q-0.4375 0.375 -0.4375 1.0625q0 0.546875 0.28125 0.890625q0.296875 0.34375 0.71875 0.53125q0.4375 0.1875 1.171875 0.4375q0.90625 0.296875 1.453125 0.5625q0.5625 0.265625 0.953125 0.8125q0.390625 0.53125 0.390625 1.421875z" fill-rule="nonzero"/><path fill="#fd775e" d="m506.6916 47.20221l0 0c0 -2.9919662 2.425476 -5.417431 5.4174194 -5.417431l67.99982 0c1.4367676 0 2.8146973 0.57076263 3.8306885 1.5867271c1.0159912 1.0159645 1.586731 2.3939095 1.586731 3.8307037l0 21.669075c0 2.9919662 -2.425476 5.417427 -5.4174194 5.417427l-67.99982 0c-2.9919434 0 -5.4174194 -2.4254608 -5.4174194 -5.417427z" fill-rule="evenodd"/><path fill="#ffffff" d="m537.8993 58.086742l4.28125 4.75l-1.484375 0l-3.921875 -4.390625l0 4.390625l-1.21875 0l0 -9.390625l1.21875 0l0 4.359375l3.9375 -4.359375l1.46875 0l-4.28125 4.640625zm5.4642334 -2.4375q0 -0.6875 0.359375 -1.25q0.375 -0.578125 1.109375 -0.90625q0.734375 -0.34375 1.75 -0.34375q1.015625 0 1.734375 0.34375q0.734375 0.328125 1.109375 0.90625q0.375 0.5625 0.375 1.25q0 0.796875 -0.4375 1.375q-0.421875 0.5625 -1.28125 0.796875q0.921875 0.25 1.4375 0.890625q0.53125 0.625 0.53125 1.546875q0 1.328125 -0.953125 2.09375q-0.9375 0.75 -2.515625 0.75q-1.578125 0 -2.53125 -0.75q-0.9375 -0.765625 -0.9375 -2.09375q0 -0.921875 0.515625 -1.546875q0.515625 -0.640625 1.453125 -0.890625q-0.875 -0.234375 -1.296875 -0.796875q-0.421875 -0.578125 -0.421875 -1.375zm1.1875 0.171875q0 0.8125 0.546875 1.25q0.546875 0.421875 1.484375 0.421875q0.9375 0 1.46875 -0.421875q0.546875 -0.4375 0.546875 -1.25q0 -0.796875 -0.546875 -1.21875q-0.546875 -0.4375 -1.46875 -0.4375q-0.921875 0 -1.484375 0.4375q-0.546875 0.421875 -0.546875 1.21875zm-0.25 4.359375q0 0.90625 0.609375 1.40625q0.625 0.5 1.671875 0.5q1.046875 0 1.65625 -0.5q0.609375 -0.515625 0.609375 -1.40625q0 -0.90625 -0.640625 -1.359375q-0.640625 -0.46875 -1.625 -0.46875q-1.0 0 -1.640625 0.46875q-0.640625 0.453125 -0.640625 1.359375zm9.705017 -4.75q1.234375 0 1.984375 0.640625q0.765625 0.640625 0.921875 1.734375l-1.15625 0q-0.078125 -0.640625 -0.546875 -1.0625q-0.453125 -0.421875 -1.234375 -0.421875q-0.65625 0 -1.015625 0.3125q-0.359375 0.3125 -0.359375 0.84375q0 0.40625 0.234375 0.65625q0.25 0.234375 0.609375 0.359375q0.375 0.125 1.015625 0.28125q0.8125 0.1875 1.3125 0.390625q0.5 0.1875 0.84375 0.609375q0.359375 0.421875 0.359375 1.140625q0 0.890625 -0.671875 1.453125q-0.671875 0.5625 -1.796875 0.5625q-1.296875 0 -2.125 -0.625q-0.828125 -0.625 -0.96875 -1.75l1.171875 0q0.0625 0.671875 0.578125 1.09375q0.515625 0.40625 1.34375 0.40625q0.625 0 0.984375 -0.3125q0.359375 -0.328125 0.359375 -0.859375q0 -0.421875 -0.265625 -0.671875q-0.25 -0.25 -0.625 -0.375q-0.359375 -0.140625 -1.015625 -0.296875q-0.8125 -0.1875 -1.3125 -0.375q-0.484375 -0.1875 -0.828125 -0.59375q-0.328125 -0.40625 -0.328125 -1.09375q0 -0.921875 0.671875 -1.484375q0.6875 -0.5625 1.859375 -0.5625z" fill-rule="nonzero"/><path fill="#fd775e" d="m506.6916 92.26257l0 0c0 -2.9919586 2.425476 -5.417427 5.4174194 -5.417427l67.99982 0c1.4367676 0 2.8146973 0.57076263 3.8306885 1.5867233c1.0159912 1.0159683 1.586731 2.3939133 1.586731 3.8307037l0 21.669075c0 2.9919662 -2.425476 5.4174347 -5.4174194 5.4174347l-67.99982 0c-2.9919434 0 -5.4174194 -2.4254684 -5.4174194 -5.4174347z" fill-rule="evenodd"/><path fill="#ffffff" d="m545.3205 105.45961q0 0.671875 -0.328125 1.25q-0.3125 0.5625 -0.96875 0.921875q-0.65625 0.359375 -1.609375 0.359375q-0.9375 0 -1.671875 -0.34375q-0.71875 -0.34375 -1.15625 -0.921875q-0.421875 -0.59375 -0.5 -1.359375l1.296875 0q0.046875 0.40625 0.28125 0.78125q0.234375 0.375 0.65625 0.625q0.4375 0.25 1.046875 0.25q0.796875 0 1.21875 -0.421875q0.4375 -0.4375 0.4375 -1.109375q0 -0.5625 -0.296875 -0.921875q-0.296875 -0.359375 -0.75 -0.5625q-0.4375 -0.21875 -1.1875 -0.453125q-0.890625 -0.296875 -1.4375 -0.546875q-0.546875 -0.265625 -0.921875 -0.78125q-0.375 -0.53125 -0.375 -1.375q0 -0.734375 0.34375 -1.296875q0.359375 -0.5625 1.015625 -0.859375q0.65625 -0.3125 1.5625 -0.3125q1.375 0 2.1875 0.671875q0.8125 0.671875 0.953125 1.71875l-1.3125 0q-0.109375 -0.5625 -0.578125 -0.984375q-0.453125 -0.4375 -1.25 -0.4375q-0.734375 0 -1.1875 0.390625q-0.4375 0.375 -0.4375 1.0625q0 0.546875 0.28125 0.890625q0.296875 0.34375 0.71875 0.53125q0.4375 0.1875 1.171875 0.4375q0.90625 0.296875 1.453125 0.5625q0.5625 0.265625 0.953125 0.8125q0.390625 0.53125 0.390625 1.421875zm4.6328735 -7.21875q0.90625 0 1.5625 0.328125q0.65625 0.3125 0.984375 0.875q0.328125 0.5625 0.328125 1.265625q0 0.890625 -0.515625 1.484375q-0.5 0.59375 -1.5 0.71875l0 0.078125q1.03125 0.265625 1.609375 0.828125q0.578125 0.5625 0.578125 1.546875q0 1.15625 -0.78125 1.890625q-0.765625 0.734375 -2.21875 0.734375q-1.453125 0 -2.359375 -0.75q-0.890625 -0.75 -1.046875 -2.203125l1.203125 0q0.125 0.875 0.671875 1.390625q0.546875 0.515625 1.5 0.515625q0.890625 0 1.359375 -0.453125q0.484375 -0.453125 0.484375 -1.1875q0 -0.890625 -0.6875 -1.34375q-0.671875 -0.453125 -1.9375 -0.453125l-0.328125 0l0 -1.015625l0.328125 0q2.453125 0 2.453125 -1.640625q0 -0.71875 -0.453125 -1.140625q-0.453125 -0.4375 -1.265625 -0.4375q-0.796875 0 -1.34375 0.46875q-0.546875 0.453125 -0.640625 1.34375l-1.1875 0q0.09375 -1.328125 0.921875 -2.078125q0.84375 -0.765625 2.28125 -0.765625z" fill-rule="nonzero"/><path fill="#fd775e" d="m595.6916 92.26257l0 0c0 -2.9919586 2.425476 -5.417427 5.4174194 -5.417427l67.99982 0c1.4367676 0 2.8146973 0.57076263 3.8306885 1.5867233c1.0159912 1.0159683 1.586731 2.3939133 1.586731 3.8307037l0 21.669075c0 2.9919662 -2.425476 5.4174347 -5.4174194 5.4174347l-67.99982 0c-2.9919434 0 -5.4174194 -2.4254684 -5.4174194 -5.4174347z" fill-rule="evenodd"/><path fill="#ffffff" d="m629.1892 105.45961q0 0.671875 -0.328125 1.25q-0.3125 0.5625 -0.96875 0.921875q-0.65625 0.359375 -1.609375 0.359375q-0.9375 0 -1.671875 -0.34375q-0.71875 -0.34375 -1.15625 -0.921875q-0.421875 -0.59375 -0.5 -1.359375l1.296875 0q0.046875 0.40625 0.28125 0.78125q0.234375 0.375 0.65625 0.625q0.4375 0.25 1.046875 0.25q0.796875 0 1.21875 -0.421875q0.4375 -0.4375 0.4375 -1.109375q0 -0.5625 -0.296875 -0.921875q-0.296875 -0.359375 -0.75 -0.5625q-0.4375 -0.21875 -1.1875 -0.453125q-0.890625 -0.296875 -1.4375 -0.546875q-0.546875 -0.265625 -0.921875 -0.78125q-0.375 -0.53125 -0.375 -1.375q0 -0.734375 0.34375 -1.296875q0.359375 -0.5625 1.015625 -0.859375q0.65625 -0.3125 1.5625 -0.3125q1.375 0 2.1875 0.671875q0.8125 0.671875 0.953125 1.71875l-1.3125 0q-0.109375 -0.5625 -0.578125 -0.984375q-0.453125 -0.4375 -1.25 -0.4375q-0.734375 0 -1.1875 0.390625q-0.4375 0.375 -0.4375 1.0625q0 0.546875 0.28125 0.890625q0.296875 0.34375 0.71875 0.53125q0.4375 0.1875 1.171875 0.4375q0.90625 0.296875 1.453125 0.5625q0.5625 0.265625 0.953125 0.8125q0.390625 0.53125 0.390625 1.421875zm9.1796875 4.265625l-1.890625 -1.90625q-0.671875 0.1875 -1.359375 0.1875q-1.3125 0 -2.375 -0.609375q-1.046875 -0.625 -1.65625 -1.71875q-0.59375 -1.09375 -0.59375 -2.484375q0 -1.390625 0.59375 -2.484375q0.609375 -1.109375 1.65625 -1.71875q1.0625 -0.609375 2.375 -0.609375q1.296875 0 2.34375 0.609375q1.046875 0.609375 1.640625 1.71875q0.609375 1.09375 0.609375 2.484375q0 1.390625 -0.609375 2.5q-0.59375 1.09375 -1.640625 1.703125l2.4375 2.328125l-1.53125 0zm-6.625 -6.53125q0 1.109375 0.421875 1.953125q0.4375 0.828125 1.203125 1.28125q0.78125 0.4375 1.75 0.4375q0.953125 0 1.71875 -0.453125q0.765625 -0.453125 1.203125 -1.28125q0.4375 -0.828125 0.4375 -1.9375q0 -1.125 -0.4375 -1.953125q-0.4375 -0.828125 -1.203125 -1.28125q-0.765625 -0.453125 -1.71875 -0.453125q-0.96875 0 -1.75 0.453125q-0.765625 0.453125 -1.203125 1.28125q-0.421875 0.828125 -0.421875 1.953125zm15.5581665 2.265625q0 0.671875 -0.328125 1.25q-0.3125 0.5625 -0.96875 0.921875q-0.65625 0.359375 -1.609375 0.359375q-0.9375 0 -1.671875 -0.34375q-0.71875 -0.34375 -1.15625 -0.921875q-0.421875 -0.59375 -0.5 -1.359375l1.296875 0q0.046875 0.40625 0.28125 0.78125q0.234375 0.375 0.65625 0.625q0.4375 0.25 1.046875 0.25q0.796875 0 1.21875 -0.421875q0.4375 -0.4375 0.4375 -1.109375q0 -0.5625 -0.296875 -0.921875q-0.296875 -0.359375 -0.75 -0.5625q-0.4375 -0.21875 -1.1875 -0.453125q-0.890625 -0.296875 -1.4375 -0.546875q-0.546875 -0.265625 -0.921875 -0.78125q-0.375 -0.53125 -0.375 -1.375q0 -0.734375 0.34375 -1.296875q0.359375 -0.5625 1.015625 -0.859375q0.65625 -0.3125 1.5625 -0.3125q1.375 0 2.1875 0.671875q0.8125 0.671875 0.953125 1.71875l-1.3125 0q-0.109375 -0.5625 -0.578125 -0.984375q-0.453125 -0.4375 -1.25 -0.4375q-0.734375 0 -1.1875 0.390625q-0.4375 0.375 -0.4375 1.0625q0 0.546875 0.28125 0.890625q0.296875 0.34375 0.71875 0.53125q0.4375 0.1875 1.171875 0.4375q0.90625 0.296875 1.453125 0.5625q0.5625 0.265625 0.953125 0.8125q0.390625 0.53125 0.390625 1.421875z" fill-rule="nonzero"/><path fill="#fd7a9e" d="m10.684574 48.666775l0 0c0 -2.9919662 2.4254665 -5.417431 5.417431 -5.417431l88.22025 0c1.4367981 0 2.814743 0.57076263 3.8307037 1.5867271c1.0159683 1.0159683 1.586731 2.3939133 1.586731 3.8307037l0 21.669071c0 2.9919662 -2.4254684 5.4174347 -5.4174347 5.4174347l-88.22025 0c-2.9919643 0 -5.417431 -2.4254684 -5.417431 -5.4174347z" fill-rule="evenodd"/><path fill="#ffffff" d="m47.28727 56.86381q1.28125 0 2.0625 0.828125q0.78125 0.8125 0.78125 2.359375l0 4.249996l-1.203125 0l0 -4.140621q0 -1.09375 -0.5625 -1.671875q-0.5625 -0.59375 -1.515625 -0.59375q-1.0 0 -1.609375 0.640625q-0.59375 0.640625 -0.59375 1.890625l0 3.8749962l-1.21875 0l0 -7.312496l1.21875 0l0 1.734375q0.28125 -0.90625 0.984375 -1.375q0.71875 -0.484375 1.65625 -0.484375zm8.038696 0.03125q1.046875 0 1.875 0.453125q0.84375 0.453125 1.3125 1.3125q0.46875 0.84375 0.46875 1.984375q0 1.15625 -0.46875 2.0q-0.46875 0.84375 -1.3125 1.296875q-0.828125 0.4531212 -1.875 0.4531212q-1.0625 0 -1.890625 -0.4531212q-0.828125 -0.453125 -1.3125 -1.296875q-0.484375 -0.84375 -0.484375 -2.0q0 -1.140625 0.484375 -1.984375q0.484375 -0.859375 1.3125 -1.3125q0.828125 -0.453125 1.890625 -0.453125zm0 1.0625q-0.65625 0 -1.21875 0.296875q-0.546875 0.296875 -0.890625 0.90625q-0.328125 0.59375 -0.328125 1.484375q0 0.890625 0.328125 1.5q0.34375 0.59375 0.890625 0.890625q0.5625 0.296875 1.21875 0.296875q0.640625 0 1.1875 -0.296875q0.5625 -0.296875 0.90625 -0.890625q0.34375 -0.609375 0.34375 -1.5q0 -0.890625 -0.34375 -1.484375q-0.34375 -0.609375 -0.90625 -0.90625q-0.546875 -0.296875 -1.1875 -0.296875zm5.0386963 -3.125q0 -0.328125 0.21875 -0.53125q0.234375 -0.203125 0.609375 -0.203125q0.359375 0 0.578125 0.203125q0.234375 0.203125 0.234375 0.53125q0 0.34375 -0.234375 0.546875q-0.21875 0.203125 -0.578125 0.203125q-0.375 0 -0.609375 -0.203125q-0.21875 -0.203125 -0.21875 -0.546875zm1.421875 2.15625l0 7.312496l-1.21875 0l0 -7.312496l1.21875 0zm4.2368774 -0.09375q1.234375 0 1.984375 0.640625q0.765625 0.640625 0.921875 1.734375l-1.15625 0q-0.078125 -0.640625 -0.546875 -1.0625q-0.453125 -0.421875 -1.234375 -0.421875q-0.65625 0 -1.015625 0.3125q-0.359375 0.3125 -0.359375 0.84375q0 0.40625 0.234375 0.65625q0.25 0.234375 0.609375 0.359375q0.375 0.125 1.015625 0.28125q0.8125 0.1875 1.3125 0.390625q0.5 0.1875 0.84375 0.609375q0.359375 0.421875 0.359375 1.140625q0 0.890625 -0.671875 1.453125q-0.671875 0.5624962 -1.796875 0.5624962q-1.296875 0 -2.125 -0.6249962q-0.828125 -0.625 -0.96875 -1.75l1.171875 0q0.0625 0.671875 0.578125 1.09375q0.515625 0.40625 1.34375 0.40625q0.625 0 0.984375 -0.3125q0.359375 -0.328125 0.359375 -0.859375q0 -0.421875 -0.265625 -0.671875q-0.25 -0.25 -0.625 -0.375q-0.359375 -0.140625 -1.015625 -0.296875q-0.8125 -0.1875 -1.3125 -0.375q-0.484375 -0.1875 -0.828125 -0.59375q-0.328125 -0.40625 -0.328125 -1.09375q0 -0.921875 0.671875 -1.484375q0.6875 -0.5625 1.859375 -0.5625zm11.32811 3.34375q0 0.390625 -0.046875 0.65625l-5.859375 0q0.046875 1.265625 0.71875 1.890625q0.671875 0.625 1.640625 0.625q0.875 0 1.46875 -0.4375q0.59375 -0.453125 0.734375 -1.203125l1.296875 0q-0.140625 0.765625 -0.609375 1.359375q-0.453125 0.59375 -1.1875 0.9374962q-0.734375 0.328125 -1.640625 0.328125q-1.0625 0 -1.875 -0.4531212q-0.8125 -0.453125 -1.28125 -1.296875q-0.453125 -0.84375 -0.453125 -2.0q0 -1.140625 0.453125 -1.984375q0.46875 -0.859375 1.28125 -1.3125q0.8125 -0.453125 1.875 -0.453125q1.0625 0 1.84375 0.453125q0.796875 0.453125 1.21875 1.21875q0.421875 0.75 0.421875 1.671875zm-1.21875 0.078125q0.03125 -0.8125 -0.28125 -1.359375q-0.296875 -0.546875 -0.828125 -0.8125q-0.53125 -0.265625 -1.15625 -0.265625q-1.0 0 -1.6875 0.625q-0.671875 0.609375 -0.734375 1.8125l4.6875 0z" fill-rule="nonzero"/><path fill="#fd775e" d="m595.6916 47.20221l0 0c0 -2.9919662 2.425476 -5.417431 5.4174194 -5.417431l67.99982 0c1.4367676 0 2.8146973 0.57076263 3.8306885 1.5867271c1.0159912 1.0159645 1.586731 2.3939095 1.586731 3.8307037l0 21.669075c0 2.9919662 -2.425476 5.417427 -5.4174194 5.417427l-67.99982 0c-2.9919434 0 -5.4174194 -2.4254608 -5.4174194 -5.417427z" fill-rule="evenodd"/><path fill="#ffffff" d="m628.61365 62.836742l-2.453125 -3.84375l-1.3125 0l0 3.84375l-1.21875 0l0 -9.390625l3.09375 0q1.609375 0 2.40625 0.765625q0.796875 0.765625 0.796875 2.03125q0 1.140625 -0.640625 1.84375q-0.640625 0.703125 -1.859375 0.875l2.5625 3.875l-1.375 0zm-3.765625 -4.71875l1.765625 0q2.078125 0 2.078125 -1.8125q0 -1.8125 -2.078125 -1.8125l-1.765625 0l0 3.625zm14.473389 0.015625q0 1.421875 -0.578125 2.484375q-0.5625 1.0625 -1.6875 1.640625q-1.109375 0.578125 -2.671875 0.578125l-2.984375 0l0 -9.390625l2.984375 0q1.5625 0 2.671875 0.5625q1.125 0.5625 1.6875 1.625q0.578125 1.0625 0.578125 2.5zm-5.03125 3.609375q1.84375 0 2.8125 -0.9375q0.984375 -0.953125 0.984375 -2.671875q0 -1.71875 -0.96875 -2.671875q-0.96875 -0.953125 -2.828125 -0.953125l-1.671875 0l0 7.234375l1.671875 0zm12.618713 -1.34375q0 0.671875 -0.328125 1.25q-0.3125 0.5625 -0.96875 0.921875q-0.65625 0.359375 -1.609375 0.359375q-0.9375 0 -1.671875 -0.34375q-0.71875 -0.34375 -1.15625 -0.921875q-0.421875 -0.59375 -0.5 -1.359375l1.296875 0q0.046875 0.40625 0.28125 0.78125q0.234375 0.375 0.65625 0.625q0.4375 0.25 1.046875 0.25q0.796875 0 1.21875 -0.421875q0.4375 -0.4375 0.4375 -1.109375q0 -0.5625 -0.296875 -0.921875q-0.296875 -0.359375 -0.75 -0.5625q-0.4375 -0.21875 -1.1875 -0.453125q-0.890625 -0.296875 -1.4375 -0.546875q-0.546875 -0.265625 -0.921875 -0.78125q-0.375 -0.53125 -0.375 -1.375q0 -0.734375 0.34375 -1.296875q0.359375 -0.5625 1.015625 -0.859375q0.65625 -0.3125 1.5625 -0.3125q1.375 0 2.1875 0.671875q0.8125 0.671875 0.953125 1.71875l-1.3125 0q-0.109375 -0.5625 -0.578125 -0.984375q-0.453125 -0.4375 -1.25 -0.4375q-0.734375 0 -1.1875 0.390625q-0.4375 0.375 -0.4375 1.0625q0 0.546875 0.28125 0.890625q0.296875 0.34375 0.71875 0.53125q0.4375 0.1875 1.171875 0.4375q0.90625 0.296875 1.453125 0.5625q0.5625 0.265625 0.953125 0.8125q0.390625 0.53125 0.390625 1.421875z" fill-rule="nonzero"/><path fill="#fd775e" d="m506.6916 137.32294l0 0c0 -2.9919586 2.425476 -5.4174194 5.4174194 -5.4174194l157.00769 0c1.4367676 0 2.8146973 0.570755 3.8306885 1.5867157c1.0159912 1.015976 1.586731 2.393921 1.586731 3.8307037l0 21.669083c0 2.9919586 -2.425476 5.4174347 -5.4174194 5.4174347l-157.00769 0l0 0c-2.9919434 0 -5.4174194 -2.425476 -5.4174194 -5.4174347z" fill-rule="evenodd"/><path fill="#ffffff" d="m550.4971 144.55122l0 3.203125l3.5625 0l0 0.9375l-3.5625 0l0 3.28125l3.96875 0l0 0.984375l-5.1875 0l0 -9.390625l5.1875 0l0 0.984375l-3.96875 0zm6.7439575 -1.453125l0 9.859375l-1.21875 0l0 -9.859375l1.21875 0zm4.9400024 2.453125q1.0625 0 1.796875 0.53125q0.75 0.53125 1.046875 1.421875l0 -1.859375l1.21875 0l0 7.3125l-1.21875 0l0 -1.859375q-0.296875 0.890625 -1.046875 1.421875q-0.734375 0.53125 -1.796875 0.53125q-0.96875 0 -1.734375 -0.453125q-0.75 -0.453125 -1.1875 -1.296875q-0.4375 -0.84375 -0.4375 -2.0q0 -1.140625 0.4375 -1.984375q0.4375 -0.859375 1.1875 -1.3125q0.765625 -0.453125 1.734375 -0.453125zm0.34375 1.078125q-1.109375 0 -1.78125 0.71875q-0.671875 0.703125 -0.671875 1.953125q0 1.25 0.671875 1.96875q0.671875 0.71875 1.78125 0.71875q0.71875 0 1.28125 -0.328125q0.578125 -0.34375 0.890625 -0.953125q0.328125 -0.609375 0.328125 -1.40625q0 -0.796875 -0.328125 -1.40625q-0.3125 -0.609375 -0.890625 -0.9375q-0.5625 -0.328125 -1.28125 -0.328125zm7.9362793 -1.078125q1.234375 0 1.984375 0.640625q0.765625 0.640625 0.921875 1.734375l-1.15625 0q-0.078125 -0.640625 -0.546875 -1.0625q-0.453125 -0.421875 -1.234375 -0.421875q-0.65625 0 -1.015625 0.3125q-0.359375 0.3125 -0.359375 0.84375q0 0.40625 0.234375 0.65625q0.25 0.234375 0.609375 0.359375q0.375 0.125 1.015625 0.28125q0.8125 0.1875 1.3125 0.390625q0.5 0.1875 0.84375 0.609375q0.359375 0.421875 0.359375 1.140625q0 0.890625 -0.671875 1.453125q-0.671875 0.5625 -1.796875 0.5625q-1.296875 0 -2.125 -0.625q-0.828125 -0.625 -0.96875 -1.75l1.171875 0q0.0625 0.671875 0.578125 1.09375q0.515625 0.40625 1.34375 0.40625q0.625 0 0.984375 -0.3125q0.359375 -0.328125 0.359375 -0.859375q0 -0.421875 -0.265625 -0.671875q-0.25 -0.25 -0.625 -0.375q-0.359375 -0.140625 -1.015625 -0.296875q-0.8125 -0.1875 -1.3125 -0.375q-0.484375 -0.1875 -0.828125 -0.59375q-0.328125 -0.40625 -0.328125 -1.09375q0 -0.921875 0.671875 -1.484375q0.6875 -0.5625 1.859375 -0.5625zm8.09375 6.34375l0 1.0625l-0.90625 0q-1.125 0 -1.6875 -0.53125q-0.546875 -0.53125 -0.546875 -1.78125l0 -3.953125l-1.09375 0l0 -1.046875l1.09375 0l0 -1.828125l1.234375 0l0 1.828125l1.890625 0l0 1.046875l-1.890625 0l0 3.96875q0 0.703125 0.25 0.96875q0.265625 0.265625 0.90625 0.265625l0.75 0zm1.2682495 -8.40625q0 -0.328125 0.21875 -0.53125q0.234375 -0.203125 0.609375 -0.203125q0.359375 0 0.578125 0.203125q0.234375 0.203125 0.234375 0.53125q0 0.34375 -0.234375 0.546875q-0.21875 0.203125 -0.578125 0.203125q-0.375 0 -0.609375 -0.203125q-0.21875 -0.203125 -0.21875 -0.546875zm1.421875 2.15625l0 7.3125l-1.21875 0l0 -7.3125l1.21875 0zm5.1900024 -0.09375q1.390625 0 2.3125 0.75q0.921875 0.734375 1.125 1.984375l-1.265625 0q-0.140625 -0.78125 -0.734375 -1.21875q-0.59375 -0.453125 -1.46875 -0.453125q-0.640625 0 -1.171875 0.296875q-0.515625 0.296875 -0.84375 0.90625q-0.3125 0.59375 -0.3125 1.484375q0 0.890625 0.3125 1.5q0.328125 0.609375 0.84375 0.90625q0.53125 0.296875 1.171875 0.296875q0.875 0 1.46875 -0.453125q0.59375 -0.453125 0.734375 -1.25l1.265625 0q-0.203125 1.265625 -1.125 2.015625q-0.921875 0.734375 -2.3125 0.734375q-1.0625 0 -1.875 -0.453125q-0.8125 -0.453125 -1.28125 -1.296875q-0.453125 -0.84375 -0.453125 -2.0q0 -1.140625 0.453125 -1.984375q0.46875 -0.859375 1.28125 -1.3125q0.8125 -0.453125 1.875 -0.453125zm8.276733 0q1.390625 0 2.3125 0.75q0.921875 0.734375 1.125 1.984375l-1.265625 0q-0.140625 -0.78125 -0.734375 -1.21875q-0.59375 -0.453125 -1.46875 -0.453125q-0.640625 0 -1.171875 0.296875q-0.515625 0.296875 -0.84375 0.90625q-0.3125 0.59375 -0.3125 1.484375q0 0.890625 0.3125 1.5q0.328125 0.609375 0.84375 0.90625q0.53125 0.296875 1.171875 0.296875q0.875 0 1.46875 -0.453125q0.59375 -0.453125 0.734375 -1.25l1.265625 0q-0.203125 1.265625 -1.125 2.015625q-0.921875 0.734375 -2.3125 0.734375q-1.0625 0 -1.875 -0.453125q-0.8125 -0.453125 -1.28125 -1.296875q-0.453125 -0.84375 -0.453125 -2.0q0 -1.140625 0.453125 -1.984375q0.46875 -0.859375 1.28125 -1.3125q0.8125 -0.453125 1.875 -0.453125zm8.026733 0q1.0625 0 1.796875 0.53125q0.75 0.53125 1.046875 1.421875l0 -1.859375l1.21875 0l0 7.3125l-1.21875 0l0 -1.859375q-0.296875 0.890625 -1.046875 1.421875q-0.734375 0.53125 -1.796875 0.53125q-0.96875 0 -1.734375 -0.453125q-0.75 -0.453125 -1.1875 -1.296875q-0.4375 -0.84375 -0.4375 -2.0q0 -1.140625 0.4375 -1.984375q0.4375 -0.859375 1.1875 -1.3125q0.765625 -0.453125 1.734375 -0.453125zm0.34375 1.078125q-1.109375 0 -1.78125 0.71875q-0.671875 0.703125 -0.671875 1.953125q0 1.25 0.671875 1.96875q0.671875 0.71875 1.78125 0.71875q0.71875 0 1.28125 -0.328125q0.578125 -0.34375 0.890625 -0.953125q0.328125 -0.609375 0.328125 -1.40625q0 -0.796875 -0.328125 -1.40625q-0.3125 -0.609375 -0.890625 -0.9375q-0.5625 -0.328125 -1.28125 -0.328125zm8.889343 -1.078125q1.390625 0 2.3125 0.75q0.921875 0.734375 1.125 1.984375l-1.265625 0q-0.140625 -0.78125 -0.734375 -1.21875q-0.59375 -0.453125 -1.46875 -0.453125q-0.640625 0 -1.171875 0.296875q-0.515625 0.296875 -0.84375 0.90625q-0.3125 0.59375 -0.3125 1.484375q0 0.890625 0.3125 1.5q0.328125 0.609375 0.84375 0.90625q0.53125 0.296875 1.171875 0.296875q0.875 0 1.46875 -0.453125q0.59375 -0.453125 0.734375 -1.25l1.265625 0q-0.203125 1.265625 -1.125 2.015625q-0.921875 0.734375 -2.3125 0.734375q-1.0625 0 -1.875 -0.453125q-0.8125 -0.453125 -1.28125 -1.296875q-0.453125 -0.84375 -0.453125 -2.0q0 -1.140625 0.453125 -1.984375q0.46875 -0.859375 1.28125 -1.3125q0.8125 -0.453125 1.875 -0.453125zm8.886108 -0.03125q1.28125 0 2.0625 0.828125q0.78125 0.8125 0.78125 2.359375l0 4.25l-1.203125 0l0 -4.140625q0 -1.09375 -0.5625 -1.671875q-0.5625 -0.59375 -1.515625 -0.59375q-1.0 0 -1.609375 0.640625q-0.59375 0.640625 -0.59375 1.890625l0 3.875l-1.21875 0l0 -9.859375l1.21875 0l0 4.28125q0.28125 -0.90625 0.984375 -1.375q0.71875 -0.484375 1.65625 -0.484375zm11.444946 3.375q0 0.390625 -0.046875 0.65625l-5.859375 0q0.046875 1.265625 0.71875 1.890625q0.671875 0.625 1.640625 0.625q0.875 0 1.46875 -0.4375q0.59375 -0.453125 0.734375 -1.203125l1.296875 0q-0.140625 0.765625 -0.609375 1.359375q-0.453125 0.59375 -1.1875 0.9375q-0.734375 0.328125 -1.640625 0.328125q-1.0625 0 -1.875 -0.453125q-0.8125 -0.453125 -1.28125 -1.296875q-0.453125 -0.84375 -0.453125 -2.0q0 -1.140625 0.453125 -1.984375q0.46875 -0.859375 1.28125 -1.3125q0.8125 -0.453125 1.875 -0.453125q1.0625 0 1.84375 0.453125q0.796875 0.453125 1.21875 1.21875q0.421875 0.75 0.421875 1.671875zm-1.21875 0.078125q0.03125 -0.8125 -0.28125 -1.359375q-0.296875 -0.546875 -0.828125 -0.8125q-0.53125 -0.265625 -1.15625 -0.265625q-1.0 0 -1.6875 0.625q-0.671875 0.609375 -0.734375 1.8125l4.6875 0z" fill-rule="nonzero"/><path fill="#000000" fill-opacity="0.0" d="m59.645203 134.36745l0.56692886 -58.614166" fill-rule="evenodd"/><path stroke="#194cac" stroke-width="1.0" stroke-linejoin="round" stroke-linecap="butt" stroke-dasharray="1.0,3.0" d="m59.645203 134.36745l0.5088997 -52.61445" fill-rule="evenodd"/><path fill="#194cac" stroke="#194cac" stroke-width="1.0" stroke-linecap="butt" d="m61.805756 81.768974l-1.6077614 -4.553856l-1.695549 4.521904z" fill-rule="evenodd"/><path fill="#000000" fill-opacity="0.0" d="m109.73969 59.501312l99.43307 27.338585" fill-rule="evenodd"/><path stroke="#194cac" stroke-width="1.0" stroke-linejoin="round" stroke-linecap="butt" stroke-dasharray="1.0,3.0" d="m109.73969 59.501312l93.64776 25.747948" fill-rule="evenodd"/><path fill="#194cac" stroke="#194cac" stroke-width="1.0" stroke-linecap="butt" d="m202.94955 86.84189l4.813614 -0.38955688l-3.9378357 -2.7957077z" fill-rule="evenodd"/><path fill="#000000" fill-opacity="0.0" d="m209.16158 119.34908l49.511795 28.818901" fill-rule="evenodd"/><path stroke="#194cac" stroke-width="1.0" stroke-linejoin="round" stroke-linecap="butt" stroke-dasharray="1.0,3.0" d="m209.16158 119.34908l44.326263 25.80059" fill-rule="evenodd"/><path fill="#194cac" stroke="#194cac" stroke-width="1.0" stroke-linecap="butt" d="m252.65695 146.5772l4.7529907 0.8553772l-3.0911865 -3.7104187z" fill-rule="evenodd"/><path fill="#000000" fill-opacity="0.0" d="m308.87747 131.1693l-0.6614075 -56.881897" fill-rule="evenodd"/><path stroke="#194cac" stroke-width="1.0" stroke-linejoin="round" stroke-linecap="butt" stroke-dasharray="1.0,3.0" d="m308.87747 131.1693l-0.5916443 -50.8823" fill-rule="evenodd"/><path fill="#194cac" stroke="#194cac" stroke-width="1.0" stroke-linecap="butt" d="m309.93744 80.26779l-1.7043762 -4.518585l-1.5988464 4.5569916z" fill-rule="evenodd"/><path fill="#000000" fill-opacity="0.0" d="m484.8189 4.616798l199.52753 0l0 32.503937l-199.52753 0z" fill-rule="evenodd"/><path fill="#fd775e" d="m523.51904 14.460639q2.515625 0 4.171875 1.328125q1.65625 1.328126 2.140625 3.593751l-3.375 0q-0.375 -0.921875 -1.15625 -1.4375q-0.765625 -0.53125 -1.828125 -0.53125q-1.40625 0 -2.265625 1.03125q-0.859375 1.015625 -0.859375 2.734375q0 1.71875 0.859375 2.734375q0.859375 1.015625 2.265625 1.015625q1.0625 0 1.828125 -0.515625q0.78125 -0.53125 1.15625 -1.421875l3.375 0q-0.484375 2.234375 -2.140625 3.578125q-1.65625 1.328125 -4.171875 1.328125q-1.921875 0 -3.375 -0.84375q-1.453125 -0.84375 -2.25 -2.375q-0.796875 -1.53125 -0.796875 -3.5q0 -1.953125 0.796875 -3.484375q0.796875 -1.53125 2.25 -2.375001q1.453125 -0.859375 3.375 -0.859375zm11.294678 -0.484375l0 13.812501l-3.203125 0l0 -13.812501l3.203125 0zm7.0635376 3.265626q1.546875 0 2.765625 0.65625q1.234375 0.640625 1.921875 1.859375q0.703125 1.203125 0.703125 2.828125q0 1.625 -0.703125 2.84375q-0.6875 1.203125 -1.921875 1.84375q-1.21875 0.640625 -2.765625 0.640625q-1.546875 0 -2.78125 -0.640625q-1.234375 -0.640625 -1.9375 -1.84375q-0.6875 -1.21875 -0.6875 -2.84375q0 -1.625 0.6875 -2.828125q0.703125 -1.21875 1.9375 -1.859375q1.234375 -0.65625 2.78125 -0.65625zm0 2.765625q-0.90625 0 -1.53125 0.671875q-0.625 0.65625 -0.625 1.90625q0 1.25 0.625 1.90625q0.625 0.640625 1.53125 0.640625q0.921875 0 1.53125 -0.640625q0.609375 -0.65625 0.609375 -1.90625q0 -1.25 -0.609375 -1.90625q-0.609375 -0.671875 -1.53125 -0.671875zm17.4057 -2.625l0 10.40625l-3.203125 0l0 -1.890625q-0.453125 0.921875 -1.34375 1.46875q-0.875 0.53125 -2.0625 0.53125q-1.78125 0 -2.84375 -1.1875q-1.046875 -1.203125 -1.046875 -3.28125l0 -6.046875l3.171875 0l0 5.65625q0 1.0625 0.546875 1.65625q0.546875 0.578125 1.484375 0.578125q0.96875 0 1.53125 -0.609375q0.5625 -0.625 0.5625 -1.765625l0 -5.515625l3.203125 0zm6.165039 -0.140625q1.1875 0 2.046875 0.546875q0.859375 0.546875 1.25 1.46875l0 -5.281251l3.1875 0l0 13.812501l-3.1875 0l0 -1.890625q-0.390625 0.9375 -1.25 1.484375q-0.859375 0.53125 -2.046875 0.53125q-1.296875 0 -2.3125 -0.640625q-1.015625 -0.640625 -1.609375 -1.84375q-0.578125 -1.21875 -0.578125 -2.84375q0 -1.640625 0.578125 -2.84375q0.59375 -1.203125 1.609375 -1.84375q1.015625 -0.65625 2.3125 -0.65625zm1.015625 2.796875q-1.015625 0 -1.640625 0.671875q-0.625 0.671875 -0.625 1.875q0 1.1875 0.625 1.859375q0.625 0.671875 1.640625 0.671875q1.015625 0 1.65625 -0.6875q0.640625 -0.6875 0.640625 -1.84375q0 -1.171875 -0.640625 -1.859375q-0.640625 -0.6875 -1.65625 -0.6875zm20.880188 4.03125q0 1.046875 -0.53125 1.921875q-0.53125 0.875 -1.578125 1.40625q-1.03125 0.515625 -2.5 0.515625q-2.21875 0 -3.65625 -1.078125q-1.4375 -1.078125 -1.5625 -3.015625l3.390625 0q0.078125 0.734375 0.53125 1.171875q0.453125 0.421875 1.171875 0.421875q0.609375 0 0.953125 -0.328125q0.359375 -0.34375 0.359375 -0.890625q0 -0.515625 -0.328125 -0.84375q-0.3125 -0.34375 -0.796875 -0.546875q-0.484375 -0.21875 -1.34375 -0.515625q-1.25 -0.4375 -2.046875 -0.828125q-0.796875 -0.40625 -1.375 -1.203125q-0.5625 -0.796875 -0.5625 -2.0625q0 -1.171875 0.59375 -2.03125q0.609375 -0.85937595 1.65625 -1.312501q1.0625 -0.453125 2.421875 -0.453125q2.203125 0 3.5 1.046875q1.296875 1.031251 1.453125 2.859376l-3.4375 0q-0.09375 -0.640625 -0.484375 -1.015625q-0.375 -0.390625 -1.03125 -0.390625q-0.5625 0 -0.90625 0.296875q-0.34375 0.296875 -0.34375 0.875q0 0.46875 0.296875 0.796875q0.3125 0.328125 0.78125 0.53125q0.46875 0.203125 1.34375 0.515625q1.265625 0.4375 2.0625 0.859375q0.8125 0.40625 1.390625 1.21875q0.578125 0.796875 0.578125 2.078125zm8.265381 -6.828125q1.28125 0 2.296875 0.65625q1.015625 0.640625 1.609375 1.84375q0.59375 1.203125 0.59375 2.84375q0 1.625 -0.59375 2.84375q-0.59375 1.203125 -1.609375 1.84375q-1.015625 0.640625 -2.296875 0.640625q-1.1875 0 -2.046875 -0.53125q-0.859375 -0.546875 -1.25 -1.484375l0 6.859375l-3.203125 0l0 -15.375l3.203125 0l0 1.875q0.390625 -0.921875 1.25 -1.46875q0.859375 -0.546875 2.046875 -0.546875zm-1.03125 2.796875q-1.0 0 -1.65625 0.6875q-0.640625 0.6875 -0.640625 1.859375q0 1.15625 0.640625 1.84375q0.65625 0.6875 1.65625 0.6875q1.03125 0 1.65625 -0.671875q0.625 -0.671875 0.625 -1.859375q0 -1.203125 -0.625 -1.875q-0.625 -0.671875 -1.65625 -0.671875zm17.0708 2.265625q0 0.390625 -0.09375 0.859375l-7.21875 0q0.0625 1.171875 0.59375 1.6875q0.546875 0.515625 1.390625 0.515625q0.703125 0 1.171875 -0.359375q0.46875 -0.359375 0.609375 -0.90625l3.390625 0q-0.21875 1.09375 -0.90625 1.96875q-0.6875 0.859375 -1.75 1.359375q-1.0625 0.484375 -2.375 0.484375q-1.53125 0 -2.71875 -0.640625q-1.171875 -0.640625 -1.84375 -1.84375q-0.671875 -1.21875 -0.671875 -2.84375q0 -1.640625 0.65625 -2.84375q0.671875 -1.203125 1.859375 -1.84375q1.1875 -0.65625 2.71875 -0.65625q1.546875 0 2.71875 0.640625q1.1875 0.640625 1.828125 1.78125q0.640625 1.140625 0.640625 2.640625zm-3.21875 -0.484375q0.015625 -1.03125 -0.5625 -1.53125q-0.5625 -0.515625 -1.40625 -0.515625q-0.875 0 -1.453125 0.515625q-0.578125 0.515625 -0.65625 1.53125l4.078125 0zm9.579468 -4.578125q2.015625 0 3.375 1.109375q1.375 1.109375 1.71875 3.0625l-3.375 0q-0.140625 -0.671875 -0.609375 -1.046875q-0.46875 -0.375 -1.171875 -0.375q-0.84375 0 -1.390625 0.671875q-0.53125 0.65625 -0.53125 1.921875q0 1.265625 0.53125 1.9375q0.546875 0.65625 1.390625 0.65625q0.703125 0 1.171875 -0.375q0.46875 -0.375 0.609375 -1.046875l3.375 0q-0.34375 1.9375 -1.71875 3.046875q-1.359375 1.109375 -3.375 1.109375q-1.53125 0 -2.71875 -0.640625q-1.171875 -0.640625 -1.84375 -1.84375q-0.671875 -1.21875 -0.671875 -2.84375q0 -1.640625 0.65625 -2.84375q0.671875 -1.203125 1.859375 -1.84375q1.1875 -0.65625 2.71875 -0.65625zm6.454956 -2.796876q0 -0.71875 0.515625 -1.1875q0.53125 -0.484375 1.390625 -0.484375q0.859375 0 1.375 0.484375q0.53125 0.46875 0.53125 1.1875q0 0.71875 -0.53125 1.203125q-0.515625 0.46875095 -1.375 0.46875095q-0.859375 0 -1.390625 -0.46875095q-0.515625 -0.484375 -0.515625 -1.203125zm3.5 2.937501l0 10.40625l-3.203125 0l0 -10.40625l3.203125 0zm7.3135376 -1.421876q-0.796875 0 -1.15625 0.34375095q-0.34375 0.328125 -0.375 1.078125l1.875 0l0 2.6875l-1.875 0l0 7.71875l-3.1875 0l0 -7.71875l-1.25 0l0 -2.6875l1.25 0l0 -0.109375q0 -1.953126 1.125 -3.000001q1.125 -1.0625 3.265625 -1.0625q0.453125 0 0.671875 0.03125l0 2.734375l-0.34375 -0.015625zm1.4436035 -1.515625q0 -0.71875 0.515625 -1.1875q0.53125 -0.484375 1.390625 -0.484375q0.859375 0 1.375 0.484375q0.53125 0.46875 0.53125 1.1875q0 0.71875 -0.53125 1.203125q-0.515625 0.46875095 -1.375 0.46875095q-0.859375 0 -1.390625 -0.46875095q-0.515625 -0.484375 -0.515625 -1.203125zm3.5 2.937501l0 10.40625l-3.203125 0l0 -10.40625l3.203125 0zm6.8916626 -0.140625q2.015625 0 3.375 1.109375q1.375 1.109375 1.71875 3.0625l-3.375 0q-0.140625 -0.671875 -0.609375 -1.046875q-0.46875 -0.375 -1.171875 -0.375q-0.84375 0 -1.390625 0.671875q-0.53125 0.65625 -0.53125 1.921875q0 1.265625 0.53125 1.9375q0.546875 0.65625 1.390625 0.65625q0.703125 0 1.171875 -0.375q0.46875 -0.375 0.609375 -1.046875l3.375 0q-0.34375 1.9375 -1.71875 3.046875q-1.359375 1.109375 -3.375 1.109375q-1.53125 0 -2.71875 -0.640625q-1.171875 -0.640625 -1.84375 -1.84375q-0.671875 -1.21875 -0.671875 -2.84375q0 -1.640625 0.65625 -2.84375q0.671875 -1.203125 1.859375 -1.84375q1.1875 -0.65625 2.71875 -0.65625z" fill-rule="nonzero"/><path fill="#000000" fill-opacity="0.0" d="m357.74408 148.15617l49.543335 -28.818901" fill-rule="evenodd"/><path stroke="#194cac" stroke-width="1.0" stroke-linejoin="round" stroke-linecap="butt" stroke-dasharray="1.0,3.0" d="m357.74408 148.15617l44.356934 -25.80204" fill-rule="evenodd"/><path fill="#194cac" stroke="#194cac" stroke-width="1.0" stroke-linecap="butt" d="m402.93155 123.78189l3.0921936 -3.7095566l-4.753235 0.8540573z" fill-rule="evenodd"/><path fill="#000000" fill-opacity="0.0" d="m357.74362 58.035435l49.543304 28.818897" fill-rule="evenodd"/><path stroke="#194cac" stroke-width="1.0" stroke-linejoin="round" stroke-linecap="butt" stroke-dasharray="1.0,3.0" d="m357.7436 58.035435l44.356934 25.802029" fill-rule="evenodd"/><path fill="#194cac" stroke="#194cac" stroke-width="1.0" stroke-linecap="butt" d="m401.27002 85.26521l4.753235 0.8540573l-3.0922241 -3.7095566z" fill-rule="evenodd"/><path fill="#000000" fill-opacity="0.0" d="m184.83202 6.0813646l246.96065 0l0 32.503937l-246.96065 0z" fill-rule="evenodd"/><path fill="#f9c3c0" d="m203.57443 15.925206q2.515625 0 4.171875 1.328126q1.65625 1.328125 2.140625 3.59375l-3.375 0q-0.375 -0.921875 -1.15625 -1.4375q-0.765625 -0.53125 -1.828125 -0.53125q-1.40625 0 -2.265625 1.03125q-0.859375 1.015625 -0.859375 2.734375q0 1.71875 0.859375 2.734375q0.859375 1.015625 2.265625 1.015625q1.0625 0 1.828125 -0.515625q0.78125 -0.53125 1.15625 -1.421875l3.375 0q-0.484375 2.234375 -2.140625 3.578125q-1.65625 1.328125 -4.171875 1.328125q-1.921875 0 -3.375 -0.84375q-1.453125 -0.84375 -2.25 -2.375q-0.796875 -1.53125 -0.796875 -3.5q0 -1.953125 0.796875 -3.484375q0.796875 -1.53125 2.25 -2.375q1.453125 -0.85937595 3.375 -0.85937595zm12.966537 2.781251q1.546875 0 2.765625 0.65625q1.234375 0.640625 1.921875 1.859375q0.703125 1.203125 0.703125 2.828125q0 1.625 -0.703125 2.84375q-0.6875 1.203125 -1.921875 1.84375q-1.21875 0.640625 -2.765625 0.640625q-1.546875 0 -2.78125 -0.640625q-1.234375 -0.640625 -1.9375 -1.84375q-0.6875 -1.21875 -0.6875 -2.84375q0 -1.625 0.6875 -2.828125q0.703125 -1.21875 1.9375 -1.859375q1.234375 -0.65625 2.78125 -0.65625zm0 2.765625q-0.90625 0 -1.53125 0.671875q-0.625 0.65625 -0.625 1.90625q0 1.25 0.625 1.90625q0.625 0.640625 1.53125 0.640625q0.921875 0 1.53125 -0.640625q0.609375 -0.65625 0.609375 -1.90625q0 -1.25 -0.609375 -1.90625q-0.609375 -0.671875 -1.53125 -0.671875zm13.655716 -2.734375q1.796875 0 2.84375 1.1875q1.0625 1.1875 1.0625 3.28125l0 6.046875l-3.203125 0l0 -5.671875q0 -1.046875 -0.546875 -1.625q-0.546875 -0.59375 -1.453125 -0.59375q-0.984375 0 -1.546875 0.625q-0.5625 0.609375 -0.5625 1.75l0 5.515625l-3.203125 0l0 -10.40625l3.203125 0l0 1.90625q0.4375 -0.9375 1.328125 -1.46875q0.890625 -0.546875 2.078125 -0.546875zm11.908508 7.765625l0 2.75l-1.4375 0q-1.828125 0 -2.84375 -0.90625q-1.015625 -0.90625 -1.015625 -3.0l0 -3.8125l-1.40625 0l0 -2.6875l1.40625 0l0 -2.5625l3.1875 0l0 2.5625l2.09375 0l0 2.6875l-2.09375 0l0 3.875q0 0.609375 0.25 0.859375q0.25 0.234375 0.84375 0.234375l1.015625 0zm1.4832458 -10.593751q0 -0.71875 0.515625 -1.1875q0.53125 -0.484375 1.390625 -0.484375q0.859375 0 1.375 0.484375q0.53125 0.46875 0.53125 1.1875q0 0.71875095 -0.53125 1.203126q-0.515625 0.46875 -1.375 0.46875q-0.859375 0 -1.390625 -0.46875q-0.515625 -0.484375 -0.515625 -1.203126zm3.5 2.937501l0 10.40625l-3.203125 0l0 -10.40625l3.203125 0zm8.797913 -0.109375q1.796875 0 2.84375 1.1875q1.0625 1.1875 1.0625 3.28125l0 6.046875l-3.203125 0l0 -5.671875q0 -1.046875 -0.546875 -1.625q-0.546875 -0.59375 -1.453125 -0.59375q-0.984375 0 -1.546875 0.625q-0.5625 0.609375 -0.5625 1.75l0 5.515625l-3.203125 0l0 -10.40625l3.203125 0l0 1.90625q0.4375 -0.9375 1.328125 -1.46875q0.890625 -0.546875 2.078125 -0.546875zm16.361633 0.109375l0 10.40625l-3.203125 0l0 -1.890625q-0.453125 0.921875 -1.34375 1.46875q-0.875 0.53125 -2.0625 0.53125q-1.78125 0 -2.84375 -1.1875q-1.046875 -1.203125 -1.046875 -3.28125l0 -6.046875l3.171875 0l0 5.65625q0 1.0625 0.546875 1.65625q0.546875 0.578125 1.484375 0.578125q0.96875 0 1.53125 -0.609375q0.5625 -0.625 0.5625 -1.765625l0 -5.515625l3.203125 0zm7.071289 -0.140625q1.546875 0 2.765625 0.65625q1.234375 0.640625 1.921875 1.859375q0.703125 1.203125 0.703125 2.828125q0 1.625 -0.703125 2.84375q-0.6875 1.203125 -1.921875 1.84375q-1.21875 0.640625 -2.765625 0.640625q-1.546875 0 -2.78125 -0.640625q-1.234375 -0.640625 -1.9375 -1.84375q-0.6875 -1.21875 -0.6875 -2.84375q0 -1.625 0.6875 -2.828125q0.703125 -1.21875 1.9375 -1.859375q1.234375 -0.65625 2.78125 -0.65625zm0 2.765625q-0.90625 0 -1.53125 0.671875q-0.625 0.65625 -0.625 1.90625q0 1.25 0.625 1.90625q0.625 0.640625 1.53125 0.640625q0.921875 0 1.53125 -0.640625q0.609375 -0.65625 0.609375 -1.90625q0 -1.25 -0.609375 -1.90625q-0.609375 -0.671875 -1.53125 -0.671875zm17.405731 -2.625l0 10.40625l-3.203125 0l0 -1.890625q-0.453125 0.921875 -1.34375 1.46875q-0.875 0.53125 -2.0625 0.53125q-1.78125 0 -2.84375 -1.1875q-1.046875 -1.203125 -1.046875 -3.28125l0 -6.046875l3.171875 0l0 5.65625q0 1.0625 0.546875 1.65625q0.546875 0.578125 1.484375 0.578125q0.96875 0 1.53125 -0.609375q0.5625 -0.625 0.5625 -1.765625l0 -5.515625l3.203125 0zm5.993164 -0.140625q1.96875 0 3.15625 1.0q1.1875 0.984375 1.484375 2.609375l-2.984375 0q-0.125 -0.640625 -0.59375 -1.0q-0.453125 -0.359375 -1.140625 -0.359375q-0.546875 0 -0.828125 0.234375q-0.265625 0.234375 -0.265625 0.65625q0 0.484375 0.5 0.734375q0.515625 0.234375 1.625 0.484375q1.1875 0.28125 1.953125 0.578125q0.765625 0.28125 1.328125 0.9375q0.5625 0.640625 0.5625 1.75q0 0.890625 -0.484375 1.578125q-0.484375 0.6875 -1.40625 1.078125q-0.90625 0.390625 -2.15625 0.390625q-2.109375 0 -3.390625 -0.921875q-1.265625 -0.9375 -1.546875 -2.671875l3.078125 0q0.078125 0.671875 0.5625 1.03125q0.5 0.34375 1.296875 0.34375q0.53125 0 0.8125 -0.25q0.28125 -0.25 0.28125 -0.65625q0 -0.546875 -0.515625 -0.78125q-0.515625 -0.234375 -1.671875 -0.484375q-1.15625 -0.25 -1.90625 -0.53125q-0.734375 -0.28125 -1.28125 -0.90625q-0.53125 -0.625 -0.53125 -1.703125q0 -1.40625 1.0625 -2.265625q1.0625 -0.875 3.0 -0.875zm13.491699 -2.640625l0 13.1875l-3.203125 0l0 -13.1875l3.203125 0zm8.797913 2.671875q1.796875 0 2.84375 1.1875q1.0625 1.1875 1.0625 3.28125l0 6.046875l-3.203125 0l0 -5.671875q0 -1.046875 -0.546875 -1.625q-0.546875 -0.59375 -1.453125 -0.59375q-0.984375 0 -1.546875 0.625q-0.5625 0.609375 -0.5625 1.75l0 5.515625l-3.203125 0l0 -10.40625l3.203125 0l0 1.90625q0.4375 -0.9375 1.328125 -1.46875q0.890625 -0.546875 2.078125 -0.546875zm11.908508 7.765625l0 2.75l-1.4375 0q-1.828125 0 -2.84375 -0.90625q-1.015625 -0.90625 -1.015625 -3.0l0 -3.8125l-1.40625 0l0 -2.6875l1.40625 0l0 -2.5625l3.1875 0l0 2.5625l2.09375 0l0 2.6875l-2.09375 0l0 3.875q0 0.609375 0.25 0.859375q0.25 0.234375 0.84375 0.234375l1.015625 0zm11.670746 -2.734375q0 0.390625 -0.09375 0.859375l-7.21875 0q0.0625 1.171875 0.59375 1.6875q0.546875 0.515625 1.390625 0.515625q0.703125 0 1.171875 -0.359375q0.46875 -0.359375 0.609375 -0.90625l3.390625 0q-0.21875 1.09375 -0.90625 1.96875q-0.6875 0.859375 -1.75 1.359375q-1.0625 0.484375 -2.375 0.484375q-1.53125 0 -2.71875 -0.640625q-1.171875 -0.640625 -1.84375 -1.84375q-0.671875 -1.21875 -0.671875 -2.84375q0 -1.640625 0.65625 -2.84375q0.671875 -1.203125 1.859375 -1.84375q1.1875 -0.65625 2.71875 -0.65625q1.546875 0 2.71875 0.640625q1.1875 0.640625 1.828125 1.78125q0.640625 1.140625 0.640625 2.640625zm-3.21875 -0.484375q0.015625 -1.03125 -0.5625 -1.53125q-0.5625 -0.515625 -1.40625 -0.515625q-0.875 0 -1.453125 0.515625q-0.578125 0.515625 -0.65625 1.53125l4.078125 0zm8.845093 -4.578125q1.1875 0 2.046875 0.546875q0.859375 0.546875 1.265625 1.46875l0 -1.875l3.171875 0l0 10.34375q0 1.46875 -0.5625 2.625q-0.5625 1.1718731 -1.71875 1.8593731q-1.15625 0.6875 -2.859375 0.6875q-2.359375 0 -3.765625 -1.109375q-1.40625 -1.109375 -1.6875 -3.015623l3.15625 0q0.140625 0.640625 0.671875 0.984375q0.53125 0.359375 1.390625 0.359375q0.984375 0 1.59375 -0.578125q0.609375 -0.5625 0.609375 -1.8125l0 -1.828125q-0.40625 0.9375 -1.265625 1.484375q-0.859375 0.53125 -2.046875 0.53125q-1.296875 0 -2.3125 -0.640625q-1.015625 -0.640625 -1.609375 -1.84375q-0.578125 -1.21875 -0.578125 -2.84375q0 -1.640625 0.578125 -2.84375q0.59375 -1.203125 1.609375 -1.84375q1.015625 -0.65625 2.3125 -0.65625zm1.015625 2.796875q-1.015625 0 -1.640625 0.671875q-0.625 0.671875 -0.625 1.875q0 1.1875 0.625 1.859375q0.625 0.671875 1.640625 0.671875q1.015625 0 1.65625 -0.6875q0.640625 -0.6875 0.640625 -1.84375q0 -1.171875 -0.640625 -1.859375q-0.640625 -0.6875 -1.65625 -0.6875zm10.867706 -0.703125q0.59375 -0.953125 1.53125 -1.5q0.9375 -0.5625 2.046875 -0.5625l0 3.40625l-0.921875 0q-1.265625 0 -1.96875 0.546875q-0.6875 0.53125 -0.6875 1.828125l0 4.734375l-3.203125 0l0 -10.40625l3.203125 0l0 1.953125zm8.881073 -2.09375q1.1875 0 2.046875 0.546875q0.859375 0.546875 1.265625 1.46875l0 -1.875l3.171875 0l0 10.40625l-3.171875 0l0 -1.890625q-0.40625 0.9375 -1.265625 1.484375q-0.859375 0.53125 -2.046875 0.53125q-1.296875 0 -2.3125 -0.640625q-1.015625 -0.640625 -1.609375 -1.84375q-0.578125 -1.21875 -0.578125 -2.84375q0 -1.640625 0.578125 -2.84375q0.59375 -1.203125 1.609375 -1.84375q1.015625 -0.65625 2.3125 -0.65625zm1.015625 2.796875q-1.015625 0 -1.640625 0.671875q-0.625 0.671875 -0.625 1.875q0 1.1875 0.625 1.859375q0.625 0.671875 1.640625 0.671875q1.015625 0 1.65625 -0.6875q0.640625 -0.6875 0.640625 -1.84375q0 -1.171875 -0.640625 -1.859375q-0.640625 -0.6875 -1.65625 -0.6875zm13.570831 5.0l0 2.75l-1.4375 0q-1.828125 0 -2.84375 -0.90625q-1.015625 -0.90625 -1.015625 -3.0l0 -3.8125l-1.40625 0l0 -2.6875l1.40625 0l0 -2.5625l3.1875 0l0 2.5625l2.09375 0l0 2.6875l-2.09375 0l0 3.875q0 0.609375 0.25 0.859375q0.25 0.234375 0.84375 0.234375l1.015625 0zm1.4832458 -10.593751q0 -0.71875 0.515625 -1.1875q0.53125 -0.484375 1.390625 -0.484375q0.859375 0 1.375 0.484375q0.53125 0.46875 0.53125 1.1875q0 0.71875095 -0.53125 1.203126q-0.515625 0.46875 -1.375 0.46875q-0.859375 0 -1.390625 -0.46875q-0.515625 -0.484375 -0.515625 -1.203126zm3.5 2.937501l0 10.40625l-3.203125 0l0 -10.40625l3.203125 0zm7.0635376 -0.140625q1.546875 0 2.765625 0.65625q1.234375 0.640625 1.921875 1.859375q0.703125 1.203125 0.703125 2.828125q0 1.625 -0.703125 2.84375q-0.6875 1.203125 -1.921875 1.84375q-1.21875 0.640625 -2.765625 0.640625q-1.546875 0 -2.78125 -0.640625q-1.234375 -0.640625 -1.9375 -1.84375q-0.6875 -1.21875 -0.6875 -2.84375q0 -1.625 0.6875 -2.828125q0.703125 -1.21875 1.9375 -1.859375q1.234375 -0.65625 2.78125 -0.65625zm0 2.765625q-0.90625 0 -1.53125 0.671875q-0.625 0.65625 -0.625 1.90625q0 1.25 0.625 1.90625q0.625 0.640625 1.53125 0.640625q0.921875 0 1.53125 -0.640625q0.609375 -0.65625 0.609375 -1.90625q0 -1.25 -0.609375 -1.90625q-0.609375 -0.671875 -1.53125 -0.671875zm13.655701 -2.734375q1.796875 0 2.84375 1.1875q1.0625 1.1875 1.0625 3.28125l0 6.046875l-3.203125 0l0 -5.671875q0 -1.046875 -0.546875 -1.625q-0.546875 -0.59375 -1.453125 -0.59375q-0.984375 0 -1.546875 0.625q-0.5625 0.609375 -0.5625 1.75l0 5.515625l-3.203125 0l0 -10.40625l3.203125 0l0 1.90625q0.4375 -0.9375 1.328125 -1.46875q0.890625 -0.546875 2.078125 -0.546875z" fill-rule="nonzero"/><path fill="#000000" fill-opacity="0.0" d="m456.79922 103.097115l49.88974 0" fill-rule="evenodd"/><path stroke="#194cac" stroke-width="1.0" stroke-linejoin="round" stroke-linecap="butt" stroke-dasharray="1.0,3.0" d="m456.79922 103.097115l43.88974 0" fill-rule="evenodd"/><path fill="#194cac" stroke="#194cac" stroke-width="1.0" stroke-linecap="butt" d="m500.68896 104.74885l4.5381165 -1.6517334l-4.5381165 -1.6517334z" fill-rule="evenodd"/><path fill="#000000" fill-opacity="0.0" d="m456.79922 103.097115l49.88974 45.07087" fill-rule="evenodd"/><path stroke="#194cac" stroke-width="1.0" stroke-linejoin="round" stroke-linecap="butt" stroke-dasharray="1.0,3.0" d="m456.79922 103.097115l45.43753 41.0487" fill-rule="evenodd"/><path fill="#194cac" stroke="#194cac" stroke-width="1.0" stroke-linecap="butt" d="m501.12952 145.37146l4.4746704 1.8165131l-2.2601624 -4.267807z" fill-rule="evenodd"/><path fill="#000000" fill-opacity="0.0" d="m456.79922 103.097115l49.88974 -45.07087" fill-rule="evenodd"/><path stroke="#194cac" stroke-width="1.0" stroke-linejoin="round" stroke-linecap="butt" stroke-dasharray="1.0,3.0" d="m456.79922 103.097115l45.43753 -41.048702" fill-rule="evenodd"/><path fill="#194cac" stroke="#194cac" stroke-width="1.0" stroke-linecap="butt" d="m503.34402 63.274055l2.2601624 -4.267807l-4.4746704 1.8165207z" fill-rule="evenodd"/></g></svg>