<svg version="1.1" viewBox="0.0 0.0 630.2204724409448 113.30971128608924" fill="none" stroke="none" stroke-linecap="square" stroke-miterlimit="10" xmlns:xlink="http://www.w3.org/1999/xlink" xmlns="http://www.w3.org/2000/svg"><clipPath id="p.0"><path d="m0 0l630.22046 0l0 113.30971l-630.22046 0l0 -113.30971z" clip-rule="nonzero"/></clipPath><g clip-path="url(#p.0)"><path fill="#000000" fill-opacity="0.0" d="m0 0l630.22046 0l0 113.30971l-630.22046 0z" fill-rule="evenodd"/><path fill="#000000" fill-opacity="0.0" d="m117.362206 8.905512l416.40945 0l0 93.57481l-416.40945 0z" fill-rule="evenodd"/><path fill="#f9c3c0" d="m156.54681 18.092287q3.1875 0 5.25 1.5625q2.078125 1.5625 2.578125 4.21875l-4.34375 0q-0.4375 -0.90625 -1.328125 -1.4375q-0.890625 -0.546875 -2.125 -0.546875q-1.953125 0 -3.125 1.3125q-1.171875 1.296875 -1.171875 3.53125q0 2.421875 1.234375 3.71875q1.234375 1.296875 3.515625 1.296875q1.453125 0 2.5625 -0.796875q1.109375 -0.8125 1.5625 -2.296875l-5.1875 0l0 -2.953125l8.625 0l0 4.0625q-0.484375 1.484375 -1.546875 2.765623q-1.046875 1.265625 -2.703125 2.0625q-1.640625 0.78125 -3.75 0.78125q-2.5625 0 -4.484375 -1.09375q-1.921875 -1.09375 -2.96875 -3.046873q-1.046875 -1.96875 -1.046875 -4.5q0 -2.515625 1.046875 -4.484375q1.046875 -1.96875 2.953125 -3.0625q1.90625 -1.09375 4.453125 -1.09375zm23.069199 10.078125q0 0.515625 -0.125 1.109375l-9.28125 0q0.0625 1.515625 0.75 2.171875q0.703125 0.6562481 1.78125 0.6562481q0.921875 0 1.515625 -0.4531231q0.609375 -0.453125 0.796875 -1.171875l4.34375 0q-0.265625 1.40625 -1.15625 2.531248q-0.890625 1.109375 -2.265625 1.75q-1.359375 0.640625 -3.03125 0.640625q-1.96875 0 -3.5 -0.828125q-1.515625 -0.828125 -2.390625 -2.390625q-0.859375 -1.5624981 -0.859375 -3.656248q0 -2.109375 0.84375 -3.65625q0.859375 -1.546875 2.390625 -2.375q1.546875 -0.828125 3.515625 -0.828125q1.984375 0 3.5 0.828125q1.515625 0.8125 2.34375 2.296875q0.828125 1.46875 0.828125 3.375zm-4.15625 -0.625q0.03125 -1.3125 -0.703125 -1.96875q-0.734375 -0.65625 -1.8125 -0.65625q-1.125 0 -1.875 0.671875q-0.75 0.671875 -0.84375 1.953125l5.234375 0zm13.871582 4.15625l0 3.531248l-1.84375 0q-2.359375 0 -3.671875 -1.15625q-1.296875 -1.171875 -1.296875 -3.859373l0 -4.921875l-1.796875 0l0 -3.453125l1.796875 0l0 -3.296875l4.09375 0l0 3.296875l2.6875 0l0 3.453125l-2.6875 0l0 5.0q0 0.78125 0.328125 1.09375q0.328125 0.3125 1.09375 0.3125l1.296875 0zm9.88797 0l0 3.531248l-1.84375 0q-2.359375 0 -3.671875 -1.15625q-1.296875 -1.171875 -1.296875 -3.859373l0 -4.921875l-1.796875 0l0 -3.453125l1.796875 0l0 -3.296875l4.09375 0l0 3.296875l2.6875 0l0 3.453125l-2.6875 0l0 5.0q0 0.78125 0.328125 1.09375q0.328125 0.3125 1.09375 0.3125l1.296875 0zm1.91922 -13.625q0 -0.9375 0.671875 -1.546875q0.671875 -0.609375 1.78125 -0.609375q1.09375 0 1.765625 0.609375q0.671875 0.609375 0.671875 1.546875q0 0.90625 -0.671875 1.515625q-0.671875 0.609375 -1.765625 0.609375q-1.109375 0 -1.78125 -0.609375q-0.671875 -0.609375 -0.671875 -1.515625zm4.484375 3.765625l0 13.390623l-4.09375 0l0 -13.390623l4.09375 0zm11.326599 -0.140625q2.3125 0 3.65625 1.53125q1.359375 1.53125 1.359375 4.21875l0 7.781248l-4.09375 0l0 -7.296873q0 -1.34375 -0.71875 -2.09375q-0.703125 -0.765625 -1.875 -0.765625q-1.25 0 -1.984375 0.796875q-0.734375 0.796875 -0.734375 2.25l0 7.109373l-4.09375 0l0 -13.390623l4.09375 0l0 2.453125q0.578125 -1.203125 1.71875 -1.890625q1.140625 -0.703125 2.671875 -0.703125zm12.817703 -0.03125q1.546875 0 2.640625 0.703125q1.109375 0.6875 1.640625 1.890625l0 -2.421875l4.078125 0l0 13.312498q0 1.875 -0.71875 3.375q-0.71875 1.5 -2.21875 2.390625q-1.484375 0.890625 -3.6875 0.890625q-3.03125 0 -4.84375 -1.4375q-1.8125 -1.421875 -2.171875 -3.875l4.0625 0q0.1875 0.828125 0.875 1.28125q0.6875 0.453125 1.78125 0.453125q1.28125 0 2.0625 -0.734375q0.78125 -0.734375 0.78125 -2.34375l0 -2.34375q-0.53125 1.203125 -1.640625 1.90625q-1.09375 0.6875 -2.640625 0.6875q-1.65625 0 -2.96875 -0.828125q-1.296875 -0.828125 -2.0625 -2.390625q-0.75 -1.5624981 -0.75 -3.656248q0 -2.109375 0.75 -3.65625q0.765625 -1.546875 2.0625 -2.375q1.3125 -0.828125 2.96875 -0.828125zm1.328125 3.609375q-1.328125 0 -2.140625 0.859375q-0.796875 0.859375 -0.796875 2.390625q0 1.546875 0.796875 2.40625q0.8125 0.859375 2.140625 0.859375q1.296875 0 2.125 -0.875q0.828125 -0.890625 0.828125 -2.390625q0 -1.5 -0.828125 -2.375q-0.828125 -0.875 -2.125 -0.875zm19.52507 -3.609375q2.546875 0 4.0625 1.28125q1.5312653 1.265625 1.9218903 3.359375l-3.8437653 0q-0.171875 -0.828125 -0.765625 -1.296875q-0.578125 -0.46875 -1.46875 -0.46875q-0.6875 0 -1.046875 0.3125q-0.359375 0.296875 -0.359375 0.84375q0 0.625 0.65625 0.9375q0.65625 0.3125 2.078125 0.625q1.53125 0.359375 2.515625 0.734375q0.984375 0.375 1.7031403 1.21875q0.71875 0.828125 0.71875 2.25q0 1.1562481 -0.625 2.046873q-0.62501526 0.875 -1.7968903 1.390625q-1.171875 0.5 -2.78125 0.5q-2.71875 0 -4.359375 -1.203125q-1.625 -1.203125 -1.984375 -3.437498l3.96875 0q0.09375 0.875 0.71875 1.3281231q0.640625 0.453125 1.65625 0.453125q0.6875 0 1.046875 -0.328125q0.359375 -0.3281231 0.359375 -0.8437481q0 -0.703125 -0.65625 -1.0q-0.65625 -0.296875 -2.140625 -0.640625q-1.484375 -0.3125 -2.453125 -0.671875q-0.953125 -0.359375 -1.65625 -1.15625q-0.6875 -0.8125 -0.6875 -2.203125q0 -1.796875 1.359375 -2.90625q1.375 -1.125 3.859375 -1.125zm16.038712 10.03125l0 3.531248l-1.84375 0q-2.359375 0 -3.671875 -1.15625q-1.296875 -1.171875 -1.296875 -3.859373l0 -4.921875l-1.796875 0l0 -3.453125l1.796875 0l0 -3.296875l4.09375 0l0 3.296875l2.6875 0l0 3.453125l-2.6875 0l0 5.0q0 0.78125 0.328125 1.09375q0.328125 0.3125 1.09375 0.3125l1.296875 0zm7.38797 -10.03125q1.546875 0 2.640625 0.703125q1.109375 0.6875 1.640625 1.890625l0 -2.421875l4.078125 0l0 13.390623l-4.078125 0l0 -2.421875q-0.53125 1.203125 -1.640625 1.90625q-1.09375 0.6875 -2.640625 0.6875q-1.65625 0 -2.96875 -0.828125q-1.296875 -0.828125 -2.0625 -2.390625q-0.75 -1.5624981 -0.75 -3.656248q0 -2.109375 0.75 -3.65625q0.765625 -1.546875 2.0625 -2.375q1.3125 -0.828125 2.96875 -0.828125zm1.328125 3.609375q-1.328125 0 -2.140625 0.859375q-0.796875 0.859375 -0.796875 2.390625q0 1.546875 0.796875 2.40625q0.8125 0.859375 2.140625 0.859375q1.296875 0 2.125 -0.875q0.828125 -0.890625 0.828125 -2.390625q0 -1.5 -0.828125 -2.375q-0.828125 -0.875 -2.125 -0.875zm13.959473 -0.921875q0.765625 -1.21875 1.984375 -1.9375q1.21875 -0.71875 2.625 -0.71875l0 4.390625l-1.171875 0q-1.640625 0 -2.546875 0.703125q-0.890625 0.6875 -0.890625 2.34375l0 6.093748l-4.09375 0l0 -13.390623l4.09375 0l0 2.515625zm13.924347 7.34375l0 3.531248l-1.84375 0q-2.359375 0 -3.671875 -1.15625q-1.296875 -1.171875 -1.296875 -3.859373l0 -4.921875l-1.796875 0l0 -3.453125l1.796875 0l0 -3.296875l4.09375 0l0 3.296875l2.6875 0l0 3.453125l-2.6875 0l0 5.0q0 0.78125 0.328125 1.09375q0.328125 0.3125 1.09375 0.3125l1.296875 0zm15.028595 -3.53125q0 0.515625 -0.125 1.109375l-9.28125 0q0.0625 1.515625 0.75 2.171875q0.703125 0.6562481 1.78125 0.6562481q0.921875 0 1.515625 -0.4531231q0.609375 -0.453125 0.796875 -1.171875l4.34375 0q-0.265625 1.40625 -1.15625 2.531248q-0.890625 1.109375 -2.265625 1.75q-1.359375 0.640625 -3.03125 0.640625q-1.96875 0 -3.5 -0.828125q-1.515625 -0.828125 -2.390625 -2.390625q-0.859375 -1.5624981 -0.859375 -3.656248q0 -2.109375 0.84375 -3.65625q0.859375 -1.546875 2.390625 -2.375q1.546875 -0.828125 3.515625 -0.828125q1.984375 0 3.5 0.828125q1.515625 0.8125 2.34375 2.296875q0.828125 1.46875 0.828125 3.375zm-4.15625 -0.625q0.03125 -1.3125 -0.703125 -1.96875q-0.734375 -0.65625 -1.8125 -0.65625q-1.125 0 -1.875 0.671875q-0.75 0.671875 -0.84375 1.953125l5.234375 0zm11.371582 -5.875q1.546875 0 2.640625 0.703125q1.109375 0.6875 1.609375 1.890625l0 -6.796875l4.109375 0l0 17.765623l-4.109375 0l0 -2.421875q-0.5 1.203125 -1.609375 1.90625q-1.09375 0.6875 -2.640625 0.6875q-1.65625 0 -2.96875 -0.828125q-1.296875 -0.828125 -2.0625 -2.390625q-0.75 -1.5624981 -0.75 -3.656248q0 -2.109375 0.75 -3.65625q0.765625 -1.546875 2.0625 -2.375q1.3125 -0.828125 2.96875 -0.828125zm1.328125 3.609375q-1.328125 0 -2.140625 0.859375q-0.796875 0.859375 -0.796875 2.390625q0 1.546875 0.796875 2.40625q0.8125 0.859375 2.140625 0.859375q1.296875 0 2.125 -0.875q0.828125 -0.890625 0.828125 -2.390625q0 -1.5 -0.828125 -2.375q-0.828125 -0.875 -2.125 -0.875zm14.850067 -8.234375q2.546875 0 4.046875 1.3125q1.515625 1.296875 1.515625 3.75q0 2.28125 -1.46875 3.578125q-1.46875 1.296875 -3.953125 1.34375l0 2.125l-3.859375 0l0 -4.765625l1.609375 0q1.734375 0 2.6875 -0.484375q0.953125 -0.5 0.953125 -1.78125q0 -0.8125 -0.453125 -1.265625q-0.453125 -0.453125 -1.21875 -0.453125q-0.859375 0 -1.359375 0.515625q-0.484375 0.515625 -0.484375 1.296875l-3.875 0q-0.046875 -1.4375 0.609375 -2.625q0.671875 -1.1875 2.015625 -1.859375q1.34375 -0.6875 3.234375 -0.6875zm0.359375 14.078125l0 4.109373l-4.265625 0l0 -4.109373l4.265625 0zm27.094696 4.109373l-4.09375 0l-6.875 -10.421873l0 10.421873l-4.09375 0l0 -16.968748l4.09375 0l6.875 10.515625l0 -10.515625l4.09375 0l0 16.968748zm9.107086 -13.562498q1.984375 0 3.546875 0.828125q1.578125 0.828125 2.46875 2.390625q0.90625 1.5625 0.90625 3.640625q0 2.09375 -0.90625 3.656248q-0.890625 1.5625 -2.46875 2.390625q-1.5625 0.828125 -3.546875 0.828125q-2.0 0 -3.59375 -0.828125q-1.578125 -0.828125 -2.484375 -2.390625q-0.890625 -1.5624981 -0.890625 -3.656248q0 -2.078125 0.890625 -3.640625q0.90625 -1.5625 2.484375 -2.390625q1.59375 -0.828125 3.59375 -0.828125zm0 3.546875q-1.1875 0 -2.0 0.859375q-0.796875 0.859375 -0.796875 2.453125q0 1.609375 0.796875 2.453125q0.8125 0.84375 2.0 0.84375q1.171875 0 1.953125 -0.84375q0.796875 -0.84375 0.796875 -2.453125q0 -1.59375 -0.796875 -2.453125q-0.78125 -0.859375 -1.953125 -0.859375zm17.96408 4.0625l0 5.953123l-4.09375 0l0 -16.968748l6.640625 0q3.03125 0 4.609375 1.5q1.578125 1.5 1.578125 4.046875q0 1.578125 -0.703125 2.8125q-0.703125 1.234375 -2.09375 1.953125q-1.390625 0.703125 -3.390625 0.703125l-2.546875 0zm2.09375 -3.28125q2.46875 0 2.46875 -2.1875q0 -2.234375 -2.46875 -2.234375l-2.09375 0l0 4.421875l2.09375 0zm12.762207 -1.640625q0.765625 -1.21875 1.984375 -1.9375q1.21875 -0.71875 2.625 -0.71875l0 4.390625l-1.171875 0q-1.640625 0 -2.546875 0.703125q-0.890625 0.6875 -0.890625 2.34375l0 6.093748l-4.09375 0l0 -13.390623l4.09375 0l0 2.515625zm12.611816 -2.6875q1.984375 0 3.546875 0.828125q1.578125 0.828125 2.46875 2.390625q0.90625 1.5625 0.90625 3.640625q0 2.09375 -0.90625 3.656248q-0.890625 1.5625 -2.46875 2.390625q-1.5625 0.828125 -3.546875 0.828125q-2.0 0 -3.59375 -0.828125q-1.578125 -0.828125 -2.484375 -2.390625q-0.890625 -1.5624981 -0.890625 -3.656248q0 -2.078125 0.890625 -3.640625q0.90625 -1.5625 2.484375 -2.390625q1.59375 -0.828125 3.59375 -0.828125zm0 3.546875q-1.1875 0 -2.0 0.859375q-0.796875 0.859375 -0.796875 2.453125q0 1.609375 0.796875 2.453125q0.8125 0.84375 2.0 0.84375q1.171875 0 1.953125 -0.84375q0.796875 -0.84375 0.796875 -2.453125q0 -1.59375 -0.796875 -2.453125q-0.78125 -0.859375 -1.953125 -0.859375zm17.414124 -3.546875q1.65625 0 2.96875 0.828125q1.3125 0.828125 2.0625 2.375q0.75 1.546875 0.75 3.65625q0 2.09375 -0.75 3.656248q-0.75 1.5625 -2.0625 2.390625q-1.3125 0.828125 -2.96875 0.828125q-1.53125 0 -2.640625 -0.6875q-1.09375 -0.703125 -1.609375 -1.90625l0 2.421875l-4.09375 0l0 -17.765623l4.09375 0l0 6.796875q0.515625 -1.203125 1.609375 -1.890625q1.109375 -0.703125 2.640625 -0.703125zm-1.3125 3.609375q-1.296875 0 -2.125 0.875q-0.828125 0.875 -0.828125 2.375q0 1.5 0.828125 2.390625q0.828125 0.875 2.125 0.875q1.3125 0 2.109375 -0.859375q0.8125 -0.859375 0.8125 -2.40625q0 -1.53125 -0.8125 -2.390625q-0.796875 -0.859375 -2.109375 -0.859375zm13.334473 -7.8125l0 17.765623l-4.09375 0l0 -17.765623l4.09375 0zm15.560974 10.703125q0 0.515625 -0.125 1.109375l-9.28125 0q0.0625 1.515625 0.75 2.171875q0.703125 0.6562481 1.78125 0.6562481q0.921875 0 1.515625 -0.4531231q0.609375 -0.453125 0.796875 -1.171875l4.34375 0q-0.265625 1.40625 -1.15625 2.531248q-0.890625 1.109375 -2.265625 1.75q-1.359375 0.640625 -3.03125 0.640625q-1.96875 0 -3.5 -0.828125q-1.515625 -0.828125 -2.390625 -2.390625q-0.859375 -1.5624981 -0.859375 -3.656248q0 -2.109375 0.84375 -3.65625q0.859375 -1.546875 2.390625 -2.375q1.546875 -0.828125 3.515625 -0.828125q1.984375 0 3.5 0.828125q1.515625 0.8125 2.34375 2.296875q0.828125 1.46875 0.828125 3.375zm-4.15625 -0.625q0.03125 -1.3125 -0.703125 -1.96875q-0.734375 -0.65625 -1.8125 -0.65625q-1.125 0 -1.875 0.671875q-0.75 0.671875 -0.84375 1.953125l5.234375 0zm23.637207 -5.84375q2.46875 0 3.890625 1.53125q1.421875 1.515625 1.421875 4.21875l0 7.781248l-4.09375 0l0 -7.296873q0 -1.265625 -0.6875 -1.96875q-0.671875 -0.71875 -1.84375 -0.71875q-1.234375 0 -1.9375 0.765625q-0.703125 0.75 -0.703125 2.109375l0 7.109373l-4.109375 0l0 -7.296873q0 -1.265625 -0.671875 -1.96875q-0.671875 -0.71875 -1.84375 -0.71875q-1.234375 0 -1.953125 0.75q-0.71875 0.734375 -0.71875 2.125l0 7.109373l-4.09375 0l0 -13.390623l4.09375 0l0 2.28125q0.53125 -1.125 1.625 -1.765625q1.09375 -0.65625 2.5625 -0.65625q1.53125 0 2.703125 0.703125q1.171875 0.703125 1.78125 2.03125q0.6875 -1.25 1.890625 -1.984375q1.21875 -0.75 2.6875 -0.75zm13.657532 -4.28125l-0.5 11.734375l-3.484375 0l-0.5 -11.734375l4.484375 0zm-0.09375 13.703125l0 4.109373l-4.28125 0l0 -4.109373l4.28125 0z" fill-rule="nonzero"/><path fill="#fd7a9e" d="m237.99881 47.26416l0 16.96875l-4.09375 0l0 -16.96875l4.09375 0zm10.420349 13.4375l0 3.53125l-1.84375 0q-2.359375 0 -3.671875 -1.15625q-1.296875 -1.171875 -1.296875 -3.859375l0 -4.921875l-1.796875 0l0 -3.453125l1.796875 0l0 -3.296875l4.09375 0l0 3.296875l2.6875 0l0 3.453125l-2.6875 0l0 5.0q0 0.78125 0.328125 1.09375q0.328125 0.3125 1.09375 0.3125l1.296875 0zm5.13797 -16.671875q0.453125 1.359375 0.453125 2.828125q0 1.65625 -0.859375 2.65625q-0.84375 0.984375 -2.46875 0.984375l0 -1.53125q1.234375 0 1.234375 -1.609375l0 -0.375l-1.5 0l0 -2.953125l3.140625 0zm7.8152466 6.640625q2.546875 0 4.0625 1.28125q1.53125 1.265625 1.921875 3.359375l-3.84375 0q-0.171875 -0.828125 -0.765625 -1.296875q-0.578125 -0.46875 -1.46875 -0.46875q-0.6875 0 -1.046875 0.3125q-0.359375 0.296875 -0.359375 0.84375q0 0.625 0.65625 0.9375q0.65625 0.3125 2.078125 0.625q1.53125 0.359375 2.515625 0.734375q0.984375 0.375 1.703125 1.21875q0.71875 0.828125 0.71875 2.25q0 1.15625 -0.625 2.046875q-0.625 0.875 -1.796875 1.390625q-1.171875 0.5 -2.78125 0.5q-2.71875 0 -4.359375 -1.203125q-1.625 -1.203125 -1.9843903 -3.4375l3.9687653 0q0.09375 0.875 0.71875 1.328125q0.640625 0.453125 1.65625 0.453125q0.6875 0 1.046875 -0.328125q0.359375 -0.328125 0.359375 -0.84375q0 -0.703125 -0.65625 -1.0q-0.65625 -0.296875 -2.140625 -0.640625q-1.484375 -0.3125 -2.453125 -0.671875q-0.953125 -0.359375 -1.65625 -1.15625q-0.6875 -0.8125 -0.6875 -2.203125q0 -1.796875 1.359375 -2.90625q1.375 -1.125 3.859375 -1.125zm18.338684 0q1.546875 0 2.640625 0.703125q1.109375 0.6875 1.640625 1.890625l0 -2.421875l4.078125 0l0 13.390625l-4.078125 0l0 -2.421875q-0.53125 1.203125 -1.640625 1.90625q-1.09375 0.6875 -2.640625 0.6875q-1.65625 0 -2.96875 -0.828125q-1.296875 -0.828125 -2.0625 -2.390625q-0.75 -1.5625 -0.75 -3.65625q0 -2.109375 0.75 -3.65625q0.765625 -1.546875 2.0625 -2.375q1.3125 -0.828125 2.96875 -0.828125zm1.328125 3.609375q-1.328125 0 -2.140625 0.859375q-0.796875 0.859375 -0.796875 2.390625q0 1.546875 0.796875 2.40625q0.8125 0.859375 2.140625 0.859375q1.296875 0 2.125 -0.875q0.828125 -0.890625 0.828125 -2.390625q0 -1.5 -0.828125 -2.375q-0.828125 -0.875 -2.125 -0.875zm14.725098 -3.609375q2.546875 0 4.0625 1.28125q1.53125 1.265625 1.921875 3.359375l-3.84375 0q-0.171875 -0.828125 -0.765625 -1.296875q-0.578125 -0.46875 -1.46875 -0.46875q-0.6875 0 -1.046875 0.3125q-0.359375 0.296875 -0.359375 0.84375q0 0.625 0.65625 0.9375q0.65625 0.3125 2.078125 0.625q1.53125 0.359375 2.515625 0.734375q0.984375 0.375 1.703125 1.21875q0.71875 0.828125 0.71875 2.25q0 1.15625 -0.625 2.046875q-0.625 0.875 -1.796875 1.390625q-1.171875 0.5 -2.78125 0.5q-2.71875 0 -4.359375 -1.203125q-1.625 -1.203125 -1.984375 -3.4375l3.96875 0q0.09375 0.875 0.71875 1.328125q0.640625 0.453125 1.65625 0.453125q0.6875 0 1.046875 -0.328125q0.359375 -0.328125 0.359375 -0.84375q0 -0.703125 -0.65625 -1.0q-0.65625 -0.296875 -2.140625 -0.640625q-1.484375 -0.3125 -2.453125 -0.671875q-0.953125 -0.359375 -1.65625 -1.15625q-0.6875 -0.8125 -0.6875 -2.203125q0 -1.796875 1.359375 -2.90625q1.375 -1.125 3.859375 -1.125zm25.97931 6.5q0 0.515625 -0.125 1.109375l-9.28125 0q0.0625 1.515625 0.75 2.171875q0.703125 0.65625 1.78125 0.65625q0.921875 0 1.515625 -0.453125q0.609375 -0.453125 0.796875 -1.171875l4.34375 0q-0.265625 1.40625 -1.15625 2.53125q-0.890625 1.109375 -2.265625 1.75q-1.359375 0.640625 -3.03125 0.640625q-1.96875 0 -3.5 -0.828125q-1.515625 -0.828125 -2.390625 -2.390625q-0.859375 -1.5625 -0.859375 -3.65625q0 -2.109375 0.84375 -3.65625q0.859375 -1.546875 2.390625 -2.375q1.546875 -0.828125 3.515625 -0.828125q1.984375 0 3.5 0.828125q1.515625 0.8125 2.34375 2.296875q0.828125 1.46875 0.828125 3.375zm-4.15625 -0.625q0.03125 -1.3125 -0.703125 -1.96875q-0.734375 -0.65625 -1.8125 -0.65625q-1.125 0 -1.875 0.671875q-0.75 0.671875 -0.84375 1.953125l5.234375 0zm11.371582 -5.875q1.546875 0 2.640625 0.703125q1.109375 0.6875 1.640625 1.890625l0 -2.421875l4.078125 0l0 13.390625l-4.078125 0l0 -2.421875q-0.53125 1.203125 -1.640625 1.90625q-1.09375 0.6875 -2.640625 0.6875q-1.65625 0 -2.96875 -0.828125q-1.296875 -0.828125 -2.0625 -2.390625q-0.75 -1.5625 -0.75 -3.65625q0 -2.109375 0.75 -3.65625q0.765625 -1.546875 2.0625 -2.375q1.3125 -0.828125 2.96875 -0.828125zm1.328125 3.609375q-1.328125 0 -2.140625 0.859375q-0.796875 0.859375 -0.796875 2.390625q0 1.546875 0.796875 2.40625q0.8125 0.859375 2.140625 0.859375q1.296875 0 2.125 -0.875q0.828125 -0.890625 0.828125 -2.390625q0 -1.5 -0.828125 -2.375q-0.828125 -0.875 -2.125 -0.875zm14.725098 -3.609375q2.546875 0 4.0625 1.28125q1.53125 1.265625 1.921875 3.359375l-3.84375 0q-0.171875 -0.828125 -0.765625 -1.296875q-0.578125 -0.46875 -1.46875 -0.46875q-0.6875 0 -1.046875 0.3125q-0.359375 0.296875 -0.359375 0.84375q0 0.625 0.65625 0.9375q0.65625 0.3125 2.078125 0.625q1.53125 0.359375 2.515625 0.734375q0.984375 0.375 1.703125 1.21875q0.71875 0.828125 0.71875 2.25q0 1.15625 -0.625 2.046875q-0.625 0.875 -1.796875 1.390625q-1.171875 0.5 -2.78125 0.5q-2.71875 0 -4.359375 -1.203125q-1.625 -1.203125 -1.984375 -3.4375l3.96875 0q0.09375 0.875 0.71875 1.328125q0.640625 0.453125 1.65625 0.453125q0.6875 0 1.046875 -0.328125q0.359375 -0.328125 0.359375 -0.84375q0 -0.703125 -0.65625 -1.0q-0.65625 -0.296875 -2.140625 -0.640625q-1.484375 -0.3125 -2.453125 -0.671875q-0.953125 -0.359375 -1.65625 -1.15625q-0.6875 -0.8125 -0.6875 -2.203125q0 -1.796875 1.359375 -2.90625q1.375 -1.125 3.859375 -1.125zm11.554321 0.171875l3.21875 8.203125l3.0 -8.203125l4.53125 0l-8.359375 19.78125l-4.5 0l3.140625 -6.890625l-5.625 -12.890625l4.59375 0zm22.000336 -0.171875q1.546875 0 2.640625 0.703125q1.109375 0.6875 1.640625 1.890625l0 -2.421875l4.078125 0l0 13.390625l-4.078125 0l0 -2.421875q-0.53125 1.203125 -1.640625 1.90625q-1.09375 0.6875 -2.640625 0.6875q-1.65625 0 -2.96875 -0.828125q-1.296875 -0.828125 -2.0625 -2.390625q-0.75 -1.5625 -0.75 -3.65625q0 -2.109375 0.75 -3.65625q0.765625 -1.546875 2.0625 -2.375q1.3125 -0.828125 2.96875 -0.828125zm1.328125 3.609375q-1.328125 0 -2.140625 0.859375q-0.796875 0.859375 -0.796875 2.390625q0 1.546875 0.796875 2.40625q0.8125 0.859375 2.140625 0.859375q1.296875 0 2.125 -0.875q0.828125 -0.890625 0.828125 -2.390625q0 -1.5 -0.828125 -2.375q-0.828125 -0.875 -2.125 -0.875zm14.725098 -3.609375q2.546875 0 4.0625 1.28125q1.53125 1.265625 1.921875 3.359375l-3.84375 0q-0.171875 -0.828125 -0.765625 -1.296875q-0.578125 -0.46875 -1.46875 -0.46875q-0.6875 0 -1.046875 0.3125q-0.359375 0.296875 -0.359375 0.84375q0 0.625 0.65625 0.9375q0.65625 0.3125 2.078125 0.625q1.53125 0.359375 2.515625 0.734375q0.984375 0.375 1.703125 1.21875q0.71875 0.828125 0.71875 2.25q0 1.15625 -0.625 2.046875q-0.625 0.875 -1.796875 1.390625q-1.171875 0.5 -2.78125 0.5q-2.71875 0 -4.359375 -1.203125q-1.625 -1.203125 -1.984375 -3.4375l3.96875 0q0.09375 0.875 0.71875 1.328125q0.640625 0.453125 1.65625 0.453125q0.6875 0 1.046875 -0.328125q0.359375 -0.328125 0.359375 -0.84375q0 -0.703125 -0.65625 -1.0q-0.65625 -0.296875 -2.140625 -0.640625q-1.484375 -0.3125 -2.453125 -0.671875q-0.953125 -0.359375 -1.65625 -1.15625q-0.6875 -0.8125 -0.6875 -2.203125q0 -1.796875 1.359375 -2.90625q1.375 -1.125 3.859375 -1.125zm11.976196 9.453125l0 4.109375l-4.234375 0l0 -4.109375l4.234375 0zm5.6640015 0l0 4.109375l-4.234375 0l0 -4.109375l4.234375 0zm5.663971 0l0 4.109375l-4.234375 0l0 -4.109375l4.234375 0z" fill-rule="nonzero"/><path fill="#fd775e" d="m154.97931 76.092285q3.234375 0 5.359375 1.703125q2.125 1.703125 2.75 4.609375l-4.34375 0q-0.484375 -1.171875 -1.484375 -1.84375q-0.984375 -0.671875 -2.359375 -0.671875q-1.796875 0 -2.90625 1.328125q-1.09375 1.3125 -1.09375 3.515625q0 2.21875 1.09375 3.53125q1.109375 1.296875 2.90625 1.296875q1.375 0 2.359375 -0.671875q1.0 -0.671875 1.484375 -1.828125l4.34375 0q-0.625 2.890625 -2.75 4.609375q-2.125 1.703125 -5.359375 1.703125q-2.46875 0 -4.34375 -1.09375q-1.875 -1.09375 -2.90625 -3.046875q-1.015625 -1.96875 -1.015625 -4.5q0 -2.515625 1.015625 -4.484375q1.03125 -1.96875 2.90625 -3.0625q1.875 -1.09375 4.34375 -1.09375zm14.5117035 -0.625l0 17.765625l-4.09375 0l0 -17.765625l4.09375 0zm9.107849 4.203125q1.984375 0 3.546875 0.828125q1.578125 0.828125 2.46875 2.390625q0.90625 1.5625 0.90625 3.640625q0 2.09375 -0.90625 3.65625q-0.890625 1.5625 -2.46875 2.390625q-1.5625 0.828125 -3.546875 0.828125q-2.0 0 -3.59375 -0.828125q-1.578125 -0.828125 -2.484375 -2.390625q-0.890625 -1.5625 -0.890625 -3.65625q0 -2.078125 0.890625 -3.640625q0.90625 -1.5625 2.484375 -2.390625q1.59375 -0.828125 3.59375 -0.828125zm0 3.546875q-1.1875 0 -2.0 0.859375q-0.796875 0.859375 -0.796875 2.453125q0 1.609375 0.796875 2.453125q0.8125 0.84375 2.0 0.84375q1.171875 0 1.953125 -0.84375q0.796875 -0.84375 0.796875 -2.453125q0 -1.59375 -0.796875 -2.453125q-0.78125 -0.859375 -1.953125 -0.859375zm17.554703 -3.515625q2.3125 0 3.65625 1.53125q1.359375 1.53125 1.359375 4.21875l0 7.78125l-4.09375 0l0 -7.296875q0 -1.34375 -0.71875 -2.09375q-0.703125 -0.765625 -1.875 -0.765625q-1.25 0 -1.984375 0.796875q-0.734375 0.796875 -0.734375 2.25l0 7.109375l-4.09375 0l0 -13.390625l4.09375 0l0 2.453125q0.578125 -1.203125 1.71875 -1.890625q1.140625 -0.703125 2.671875 -0.703125zm20.458328 6.46875q0 0.515625 -0.125 1.109375l-9.28125 0q0.0625 1.515625 0.75 2.171875q0.703125 0.65625 1.78125 0.65625q0.921875 0 1.515625 -0.453125q0.609375 -0.453125 0.796875 -1.171875l4.34375 0q-0.265625 1.40625 -1.15625 2.53125q-0.890625 1.109375 -2.265625 1.75q-1.359375 0.640625 -3.03125 0.640625q-1.96875 0 -3.5 -0.828125q-1.515625 -0.828125 -2.390625 -2.390625q-0.859375 -1.5625 -0.859375 -3.65625q0 -2.109375 0.84375 -3.65625q0.859375 -1.546875 2.390625 -2.375q1.546875 -0.828125 3.515625 -0.828125q1.984375 0 3.5 0.828125q1.515625 0.8125 2.34375 2.296875q0.828125 1.46875 0.828125 3.375zm-4.15625 -0.625q0.03125 -1.3125 -0.703125 -1.96875q-0.734375 -0.65625 -1.8125 -0.65625q-1.125 0 -1.875 0.671875q-0.75 0.671875 -0.84375 1.953125l5.234375 0zm8.934082 5.140625q0.71875 1.390625 0.71875 3.03125q0 1.65625 -0.875 2.734375q-0.875 1.078125 -2.734375 1.078125l0 -1.515625q0.65625 0 0.953125 -0.296875q0.296875 -0.28125 0.296875 -1.09375l0 -0.234375l-1.75 0l0 -3.703125l3.390625 0zm11.941101 -14.421875l0 16.96875l-4.09375 0l0 -16.96875l4.09375 0zm11.326599 3.4375q2.3125 0 3.65625 1.53125q1.359375 1.53125 1.359375 4.21875l0 7.78125l-4.09375 0l0 -7.296875q0 -1.34375 -0.71875 -2.09375q-0.703125 -0.765625 -1.875 -0.765625q-1.25 0 -1.984375 0.796875q-0.734375 0.796875 -0.734375 2.25l0 7.109375l-4.09375 0l0 -13.390625l4.09375 0l0 2.453125q0.578125 -1.203125 1.71875 -1.890625q1.140625 -0.703125 2.671875 -0.703125zm12.598953 -0.03125q2.546875 0 4.0625 1.28125q1.53125 1.265625 1.921875 3.359375l-3.84375 0q-0.171875 -0.828125 -0.765625 -1.296875q-0.578125 -0.46875 -1.46875 -0.46875q-0.6875 0 -1.046875 0.3125q-0.359375 0.296875 -0.359375 0.84375q0 0.625 0.65625 0.9375q0.65625 0.3125 2.078125 0.625q1.53125 0.359375 2.515625 0.734375q0.984375 0.375 1.703125 1.21875q0.71875 0.828125 0.71875 2.25q0 1.15625 -0.625 2.046875q-0.625 0.875 -1.796875 1.390625q-1.171875 0.5 -2.78125 0.5q-2.71875 0 -4.359375 -1.203125q-1.625 -1.203125 -1.984375 -3.4375l3.96875 0q0.09375 0.875 0.71875 1.328125q0.640625 0.453125 1.65625 0.453125q0.6875 0 1.046875 -0.328125q0.359375 -0.328125 0.359375 -0.84375q0 -0.703125 -0.65625 -1.0q-0.65625 -0.296875 -2.140625 -0.640625q-1.484375 -0.3125 -2.453125 -0.671875q-0.953125 -0.359375 -1.65625 -1.15625q-0.6875 -0.8125 -0.6875 -2.203125q0 -1.796875 1.359375 -2.90625q1.375 -1.125 3.859375 -1.125zm16.038727 10.03125l0 3.53125l-1.84375 0q-2.359375 0 -3.671875 -1.15625q-1.296875 -1.171875 -1.296875 -3.859375l0 -4.921875l-1.796875 0l0 -3.453125l1.796875 0l0 -3.296875l4.09375 0l0 3.296875l2.6875 0l0 3.453125l-2.6875 0l0 5.0q0 0.78125 0.328125 1.09375q0.328125 0.3125 1.09375 0.3125l1.296875 0zm7.38797 -10.03125q1.546875 0 2.640625 0.703125q1.109375 0.6875 1.640625 1.890625l0 -2.421875l4.078125 0l0 13.390625l-4.078125 0l0 -2.421875q-0.53125 1.203125 -1.640625 1.90625q-1.09375 0.6875 -2.640625 0.6875q-1.65625 0 -2.96875 -0.828125q-1.296875 -0.828125 -2.0625 -2.390625q-0.75 -1.5625 -0.75 -3.65625q0 -2.109375 0.75 -3.65625q0.765625 -1.546875 2.0625 -2.375q1.3125 -0.828125 2.96875 -0.828125zm1.328125 3.609375q-1.328125 0 -2.140625 0.859375q-0.796875 0.859375 -0.796875 2.390625q0 1.546875 0.796875 2.40625q0.8125 0.859375 2.140625 0.859375q1.296875 0 2.125 -0.875q0.828125 -0.890625 0.828125 -2.390625q0 -1.5 -0.828125 -2.375q-0.828125 -0.875 -2.125 -0.875zm13.959442 -7.8125l0 17.765625l-4.09375 0l0 -17.765625l4.09375 0zm6.935974 0l0 17.765625l-4.09375 0l0 -17.765625l4.09375 0zm5.482849 15.21875q0.71875 1.390625 0.71875 3.03125q0 1.65625 -0.875 2.734375q-0.875 1.078125 -2.734375 1.078125l0 -1.515625q0.65625 0 0.953125 -0.296875q0.296875 -0.28125 0.296875 -1.09375l0 -0.234375l-1.75 0l0 -3.703125l3.390625 0zm15.597351 -14.59375q3.234375 0 5.359375 1.703125q2.125 1.703125 2.75 4.609375l-4.34375 0q-0.484375 -1.171875 -1.484375 -1.84375q-0.984375 -0.671875 -2.359375 -0.671875q-1.796875 0 -2.90625 1.328125q-1.09375 1.3125 -1.09375 3.515625q0 2.21875 1.09375 3.53125q1.109375 1.296875 2.90625 1.296875q1.375 0 2.359375 -0.671875q1.0 -0.671875 1.484375 -1.828125l4.34375 0q-0.625 2.890625 -2.75 4.609375q-2.125 1.703125 -5.359375 1.703125q-2.46875 0 -4.34375 -1.09375q-1.875 -1.09375 -2.90625 -3.046875q-1.015625 -1.96875 -1.015625 -4.5q0 -2.515625 1.015625 -4.484375q1.03125 -1.96875 2.90625 -3.0625q1.875 -1.09375 4.34375 -1.09375zm16.683594 3.578125q1.984375 0 3.546875 0.828125q1.578125 0.828125 2.46875 2.390625q0.90625 1.5625 0.90625 3.640625q0 2.09375 -0.90625 3.65625q-0.890625 1.5625 -2.46875 2.390625q-1.5625 0.828125 -3.546875 0.828125q-2.0 0 -3.59375 -0.828125q-1.578125 -0.828125 -2.484375 -2.390625q-0.890625 -1.5625 -0.890625 -3.65625q0 -2.078125 0.890625 -3.640625q0.90625 -1.5625 2.484375 -2.390625q1.59375 -0.828125 3.59375 -0.828125zm0 3.546875q-1.1875 0 -2.0 0.859375q-0.796875 0.859375 -0.796875 2.453125q0 1.609375 0.796875 2.453125q0.8125 0.84375 2.0 0.84375q1.171875 0 1.953125 -0.84375q0.796875 -0.84375 0.796875 -2.453125q0 -1.59375 -0.796875 -2.453125q-0.78125 -0.859375 -1.953125 -0.859375zm17.554688 -3.515625q2.3125 0 3.65625 1.53125q1.359375 1.53125 1.359375 4.21875l0 7.78125l-4.09375 0l0 -7.296875q0 -1.34375 -0.71875 -2.09375q-0.703125 -0.765625 -1.875 -0.765625q-1.25 0 -1.984375 0.796875q-0.734375 0.796875 -0.734375 2.25l0 7.109375l-4.09375 0l0 -13.390625l4.09375 0l0 2.453125q0.578125 -1.203125 1.71875 -1.890625q1.140625 -0.703125 2.671875 -0.703125zm14.3020935 -1.6875q-1.0 0 -1.453125 0.4375q-0.453125 0.421875 -0.5 1.390625l2.421875 0l0 3.453125l-2.421875 0l0 9.9375l-4.109375 0l0 -9.9375l-1.609375 0l0 -3.453125l1.609375 0l0 -0.140625q0 -2.5 1.453125 -3.859375q1.453125 -1.359375 4.203125 -1.359375q0.578125 0 0.875 0.03125l0 3.53125l-0.46875 -0.03125zm1.8788452 -1.9375q0 -0.9375 0.671875 -1.546875q0.671875 -0.609375 1.78125 -0.609375q1.09375 0 1.765625 0.609375q0.671875 0.609375 0.671875 1.546875q0 0.90625 -0.671875 1.515625q-0.671875 0.609375 -1.765625 0.609375q-1.109375 0 -1.78125 -0.609375q-0.671875 -0.609375 -0.671875 -1.515625zm4.484375 3.765625l0 13.390625l-4.09375 0l0 -13.390625l4.09375 0zm7.920349 -0.171875q1.546875 0 2.640625 0.703125q1.109375 0.6875 1.640625 1.890625l0 -2.421875l4.078125 0l0 13.3125q0 1.875 -0.71875 3.375q-0.71875 1.5 -2.21875 2.390625q-1.484375 0.890625 -3.6875 0.890625q-3.03125 0 -4.84375 -1.4375q-1.8125 -1.421875 -2.171875 -3.875l4.0625 0q0.1875 0.828125 0.875 1.28125q0.6875 0.453125 1.78125 0.453125q1.28125 0 2.0625 -0.734375q0.78125 -0.734375 0.78125 -2.34375l0 -2.34375q-0.53125 1.203125 -1.640625 1.90625q-1.09375 0.6875 -2.640625 0.6875q-1.65625 0 -2.96875 -0.828125q-1.296875 -0.828125 -2.0625 -2.390625q-0.75 -1.5625 -0.75 -3.65625q0 -2.109375 0.75 -3.65625q0.765625 -1.546875 2.0625 -2.375q1.3125 -0.828125 2.96875 -0.828125zm1.328125 3.609375q-1.328125 0 -2.140625 0.859375q-0.796875 0.859375 -0.796875 2.390625q0 1.546875 0.796875 2.40625q0.8125 0.859375 2.140625 0.859375q1.296875 0 2.125 -0.875q0.828125 -0.890625 0.828125 -2.390625q0 -1.5 -0.828125 -2.375q-0.828125 -0.875 -2.125 -0.875zm23.178223 -3.4375l0 13.390625l-4.125 0l0 -2.421875q-0.578125 1.171875 -1.71875 1.875q-1.140625 0.6875 -2.65625 0.6875q-2.296875 0 -3.65625 -1.53125q-1.359375 -1.53125 -1.359375 -4.21875l0 -7.78125l4.078125 0l0 7.265625q0 1.375 0.703125 2.140625q0.71875 0.75 1.921875 0.75q1.25 0 1.96875 -0.796875q0.71875 -0.796875 0.71875 -2.25l0 -7.109375l4.125 0zm6.9331665 2.515625q0.765625 -1.21875 1.984375 -1.9375q1.21875 -0.71875 2.625 -0.71875l0 4.390625l-1.171875 0q-1.640625 0 -2.546875 0.703125q-0.890625 0.6875 -0.890625 2.34375l0 6.09375l-4.09375 0l0 -13.390625l4.09375 0l0 2.515625zm19.065002 3.8125q0 0.515625 -0.125 1.109375l-9.28125 0q0.0625 1.515625 0.75 2.171875q0.703125 0.65625 1.78125 0.65625q0.921875 0 1.515625 -0.453125q0.609375 -0.453125 0.796875 -1.171875l4.34375 0q-0.265625 1.40625 -1.15625 2.53125q-0.890625 1.109375 -2.265625 1.75q-1.359375 0.640625 -3.03125 0.640625q-1.96875 0 -3.5 -0.828125q-1.515625 -0.828125 -2.390625 -2.390625q-0.859375 -1.5625 -0.859375 -3.65625q0 -2.109375 0.84375 -3.65625q0.859375 -1.546875 2.390625 -2.375q1.546875 -0.828125 3.515625 -0.828125q1.984375 0 3.5 0.828125q1.515625 0.8125 2.34375 2.296875q0.828125 1.46875 0.828125 3.375zm-4.15625 -0.625q0.03125 -1.3125 -0.703125 -1.96875q-0.734375 -0.65625 -1.8125 -0.65625q-1.125 0 -1.875 0.671875q-0.75 0.671875 -0.84375 1.953125l5.234375 0zm8.934082 5.140625q0.71875 1.390625 0.71875 3.03125q0 1.65625 -0.875 2.734375q-0.875 1.078125 -2.734375 1.078125l0 -1.515625q0.65625 0 0.953125 -0.296875q0.296875 -0.28125 0.296875 -1.09375l0 -0.234375l-1.75 0l0 -3.703125l3.390625 0zm16.550476 2.546875l-3.671875 -6.40625l-0.9375 0l0 6.40625l-4.09375 0l0 -16.96875l7.0 0q2.015625 0 3.40625 0.703125q1.390625 0.6875 2.078125 1.90625q0.703125 1.203125 0.703125 2.765625q0 1.84375 -1.015625 3.140625q-1.015625 1.296875 -2.96875 1.78125l4.03125 6.671875l-4.53125 0zm-4.609375 -9.21875l2.546875 0q1.21875 0 1.796875 -0.53125q0.578125 -0.546875 0.578125 -1.609375q0 -1.0 -0.59375 -1.578125q-0.578125 -0.578125 -1.78125 -0.578125l-2.546875 0l0 4.296875zm24.482727 -4.171875l0 13.390625l-4.125 0l0 -2.421875q-0.578125 1.171875 -1.71875 1.875q-1.140625 0.6875 -2.65625 0.6875q-2.296875 0 -3.65625 -1.53125q-1.359375 -1.53125 -1.359375 -4.21875l0 -7.78125l4.078125 0l0 7.265625q0 1.375 0.703125 2.140625q0.71875 0.75 1.921875 0.75q1.25 0 1.96875 -0.796875q0.71875 -0.796875 0.71875 -2.25l0 -7.109375l4.125 0zm11.3237915 -0.140625q2.3125 0 3.65625 1.53125q1.359375 1.53125 1.359375 4.21875l0 7.78125l-4.09375 0l0 -7.296875q0 -1.34375 -0.71875 -2.09375q-0.703125 -0.765625 -1.875 -0.765625q-1.25 0 -1.984375 0.796875q-0.734375 0.796875 -0.734375 2.25l0 7.109375l-4.09375 0l0 -13.390625l4.09375 0l0 2.453125q0.578125 -1.203125 1.71875 -1.890625q1.140625 -0.703125 2.671875 -0.703125zm13.348999 -4.28125l-0.5 11.734375l-3.484375 0l-0.5 -11.734375l4.484375 0zm-0.09375 13.703125l0 4.109375l-4.28125 0l0 -4.109375l4.28125 0z" fill-rule="nonzero"/></g></svg>