<svg version="1.1" viewBox="0.0 0.0 700.0157480314961 239.0" fill="none" stroke="none" stroke-linecap="square" stroke-miterlimit="10" xmlns:xlink="http://www.w3.org/1999/xlink" xmlns="http://www.w3.org/2000/svg"><clipPath id="p.0"><path d="m0 0l700.01575 0l0 239.0l-700.01575 0l0 -239.0z" clip-rule="nonzero"/></clipPath><g clip-path="url(#p.0)"><path fill="#000000" fill-opacity="0.0" d="m0 0l700.01575 0l0 239.0l-700.01575 0z" fill-rule="evenodd"/><path fill="#000000" fill-opacity="0.0" d="m78.57481 13.391076l542.8661 0l0 205.66928l-542.8661 0z" fill-rule="evenodd"/><path fill="#f9c3c0" d="m105.774025 35.29697l0 3.265625l-4.609375 0l0 13.703125l-4.125 0l0 -13.703125l-4.5625 0l0 -3.265625l13.296875 0zm6.8105774 3.40625q1.546875 0 2.640625 0.703125q1.109375 0.6875 1.640625 1.890625l0 -2.421875l4.078125 0l0 13.390625l-4.078125 0l0 -2.421875q-0.53125 1.203125 -1.640625 1.90625q-1.09375 0.6875 -2.640625 0.6875q-1.65625 0 -2.96875 -0.828125q-1.296875 -0.828125 -2.0625 -2.390625q-0.75 -1.5625 -0.75 -3.65625q0 -2.109375 0.75 -3.65625q0.765625 -1.546875 2.0625 -2.375q1.3125 -0.828125 2.96875 -0.828125zm1.328125 3.609375q-1.328125 0 -2.140625 0.859375q-0.796875 0.859375 -0.796875 2.390625q0 1.546875 0.796875 2.40625q0.8125 0.859375 2.140625 0.859375q1.296875 0 2.125 -0.875q0.828125 -0.890625 0.828125 -2.390625q0 -1.5 -0.828125 -2.375q-0.828125 -0.875 -2.125 -0.875zm17.975075 9.953125l-4.0156174 -5.6875l0 5.6875l-4.09375 0l0 -17.765625l4.09375 0l0 9.75l4.0156174 -5.375l4.828125 0l-5.40625 6.6875l5.515625 6.703125l-4.9375 0zm19.153336 -7.0625q0 0.515625 -0.125 1.109375l-9.28125 0q0.0625 1.515625 0.75 2.171875q0.703125 0.65625 1.78125 0.65625q0.921875 0 1.515625 -0.453125q0.609375 -0.453125 0.796875 -1.171875l4.34375 0q-0.265625 1.40625 -1.15625 2.53125q-0.890625 1.109375 -2.265625 1.75q-1.359375 0.640625 -3.03125 0.640625q-1.96875 0 -3.5 -0.828125q-1.515625 -0.828125 -2.390625 -2.390625q-0.859375 -1.5625 -0.859375 -3.65625q0 -2.109375 0.84375 -3.65625q0.859375 -1.546875 2.390625 -2.375q1.546875 -0.828125 3.515625 -0.828125q1.984375 0 3.5 0.828125q1.515625 0.8125 2.34375 2.296875q0.828125 1.46875 0.828125 3.375zm-4.15625 -0.625q0.03125 -1.3125 -0.703125 -1.96875q-0.734375 -0.65625 -1.8125 -0.65625q-1.125 0 -1.875 0.671875q-0.75 0.671875 -0.84375 1.953125l5.234375 0zm16.17157 -5.875q1.546875 0 2.640625 0.703125q1.109375 0.6875 1.640625 1.890625l0 -2.421875l4.078125 0l0 13.390625l-4.078125 0l0 -2.421875q-0.53125 1.203125 -1.640625 1.90625q-1.09375 0.6875 -2.640625 0.6875q-1.65625 0 -2.96875 -0.828125q-1.296875 -0.828125 -2.0625 -2.390625q-0.75 -1.5625 -0.75 -3.65625q0 -2.109375 0.75 -3.65625q0.765625 -1.546875 2.0625 -2.375q1.3125 -0.828125 2.96875 -0.828125zm1.328125 3.609375q-1.328125 0 -2.140625 0.859375q-0.796875 0.859375 -0.796875 2.390625q0 1.546875 0.796875 2.40625q0.8125 0.859375 2.140625 0.859375q1.296875 0 2.125 -0.875q0.828125 -0.890625 0.828125 -2.390625q0 -1.5 -0.828125 -2.375q-0.828125 -0.875 -2.125 -0.875zm32.009445 -3.578125q2.46875 0 3.890625 1.53125q1.421875 1.515625 1.421875 4.21875l0 7.78125l-4.09375 0l0 -7.296875q0 -1.265625 -0.6875 -1.96875q-0.671875 -0.71875 -1.84375 -0.71875q-1.234375 0 -1.9375 0.765625q-0.703125 0.75 -0.703125 2.109375l0 7.109375l-4.109375 0l0 -7.296875q0 -1.265625 -0.671875 -1.96875q-0.671875 -0.71875 -1.84375 -0.71875q-1.234375 0 -1.953125 0.75q-0.71875 0.734375 -0.71875 2.125l0 7.109375l-4.09375 0l0 -13.390625l4.09375 0l0 2.28125q0.53125 -1.125 1.625 -1.765625q1.09375 -0.65625 2.5625 -0.65625q1.53125 0 2.703125 0.703125q1.171875 0.703125 1.78125 2.03125q0.6875 -1.25 1.890625 -1.984375q1.21875 -0.75 2.6875 -0.75zm14.313797 -0.03125q1.984375 0 3.546875 0.828125q1.578125 0.828125 2.46875 2.390625q0.90625 1.5625 0.90625 3.640625q0 2.09375 -0.90625 3.65625q-0.890625 1.5625 -2.46875 2.390625q-1.5625 0.828125 -3.546875 0.828125q-2.0 0 -3.59375 -0.828125q-1.578125 -0.828125 -2.484375 -2.390625q-0.890625 -1.5625 -0.890625 -3.65625q0 -2.078125 0.890625 -3.640625q0.90625 -1.5625 2.484375 -2.390625q1.59375 -0.828125 3.59375 -0.828125zm0 3.546875q-1.1875 0 -2.0 0.859375q-0.796875 0.859375 -0.796875 2.453125q0 1.609375 0.796875 2.453125q0.8125 0.84375 2.0 0.84375q1.171875 0 1.953125 -0.84375q0.796875 -0.84375 0.796875 -2.453125q0 -1.59375 -0.796875 -2.453125q-0.78125 -0.859375 -1.953125 -0.859375zm14.148453 -3.546875q1.546875 0 2.640625 0.703125q1.109375 0.6875 1.609375 1.890625l0 -6.796875l4.109375 0l0 17.765625l-4.109375 0l0 -2.421875q-0.5 1.203125 -1.609375 1.90625q-1.09375 0.6875 -2.640625 0.6875q-1.65625 0 -2.96875 -0.828125q-1.296875 -0.828125 -2.0625 -2.390625q-0.75 -1.5625 -0.75 -3.65625q0 -2.109375 0.75 -3.65625q0.765625 -1.546875 2.0625 -2.375q1.3125 -0.828125 2.96875 -0.828125zm1.328125 3.609375q-1.328125 0 -2.140625 0.859375q-0.796875 0.859375 -0.796875 2.390625q0 1.546875 0.796875 2.40625q0.8125 0.859375 2.140625 0.859375q1.296875 0 2.125 -0.875q0.828125 -0.890625 0.828125 -2.390625q0 -1.5 -0.828125 -2.375q-0.828125 -0.875 -2.125 -0.875zm22.584457 2.890625q0 0.515625 -0.125 1.109375l-9.28125 0q0.0625 1.515625 0.75 2.171875q0.703125 0.65625 1.78125 0.65625q0.921875 0 1.515625 -0.453125q0.609375 -0.453125 0.796875 -1.171875l4.34375 0q-0.265625 1.40625 -1.15625 2.53125q-0.890625 1.109375 -2.265625 1.75q-1.359375 0.640625 -3.03125 0.640625q-1.96875 0 -3.5 -0.828125q-1.515625 -0.828125 -2.390625 -2.390625q-0.859375 -1.5625 -0.859375 -3.65625q0 -2.109375 0.84375 -3.65625q0.859375 -1.546875 2.390625 -2.375q1.546875 -0.828125 3.515625 -0.828125q1.984375 0 3.5 0.828125q1.515625 0.8125 2.34375 2.296875q0.828125 1.46875 0.828125 3.375zm-4.15625 -0.625q0.03125 -1.3125 -0.703125 -1.96875q-0.734375 -0.65625 -1.8125 -0.65625q-1.125 0 -1.875 0.671875q-0.75 0.671875 -0.84375 1.953125l5.234375 0zm10.387207 -3.1875q0.765625 -1.21875 1.984375 -1.9375q1.21875 -0.71875 2.625 -0.71875l0 4.390625l-1.171875 0q-1.640625 0 -2.546875 0.703125q-0.890625 0.6875 -0.890625 2.34375l0 6.09375l-4.09375 0l0 -13.390625l4.09375 0l0 2.515625zm14.830597 -2.65625q2.3125 0 3.65625 1.53125q1.359375 1.53125 1.359375 4.21875l0 7.78125l-4.09375 0l0 -7.296875q0 -1.34375 -0.71875 -2.09375q-0.703125 -0.765625 -1.875 -0.765625q-1.25 0 -1.984375 0.796875q-0.734375 0.796875 -0.734375 2.25l0 7.109375l-4.09375 0l0 -13.390625l4.09375 0l0 2.453125q0.578125 -1.203125 1.71875 -1.890625q1.140625 -0.703125 2.671875 -0.703125zm17.398956 -0.03125q2.546875 0 4.0625 1.28125q1.53125 1.265625 1.921875 3.359375l-3.84375 0q-0.171875 -0.828125 -0.765625 -1.296875q-0.578125 -0.46875 -1.46875 -0.46875q-0.6875 0 -1.046875 0.3125q-0.359375 0.296875 -0.359375 0.84375q0 0.625 0.65625 0.9375q0.65625 0.3125 2.078125 0.625q1.53125 0.359375 2.515625 0.734375q0.984375 0.375 1.703125 1.21875q0.71875 0.828125 0.71875 2.25q0 1.15625 -0.625 2.046875q-0.625 0.875 -1.796875 1.390625q-1.171875 0.5 -2.78125 0.5q-2.71875 0 -4.359375 -1.203125q-1.625 -1.203125 -1.984375 -3.4375l3.96875 0q0.09375 0.875 0.71875 1.328125q0.640625 0.453125 1.65625 0.453125q0.6875 0 1.046875 -0.328125q0.359375 -0.328125 0.359375 -0.84375q0 -0.703125 -0.65625 -1.0q-0.65625 -0.296875 -2.140625 -0.640625q-1.484375 -0.3125 -2.453125 -0.671875q-0.953125 -0.359375 -1.65625 -1.15625q-0.6875 -0.8125 -0.6875 -2.203125q0 -1.796875 1.359375 -2.90625q1.375 -1.125 3.859375 -1.125zm21.179321 6.5q0 0.515625 -0.125 1.109375l-9.28125 0q0.0625 1.515625 0.75 2.171875q0.703125 0.65625 1.78125 0.65625q0.921875 0 1.515625 -0.453125q0.609375 -0.453125 0.796875 -1.171875l4.34375 0q-0.265625 1.40625 -1.15625 2.53125q-0.890625 1.109375 -2.265625 1.75q-1.359375 0.640625 -3.03125 0.640625q-1.96875 0 -3.5 -0.828125q-1.515625 -0.828125 -2.390625 -2.390625q-0.859375 -1.5625 -0.859375 -3.65625q0 -2.109375 0.84375 -3.65625q0.859375 -1.546875 2.390625 -2.375q1.546875 -0.828125 3.515625 -0.828125q1.984375 0 3.5 0.828125q1.515625 0.8125 2.34375 2.296875q0.828125 1.46875 0.828125 3.375zm-4.15625 -0.625q0.03125 -1.3125 -0.703125 -1.96875q-0.734375 -0.65625 -1.8125 -0.65625q-1.125 0 -1.875 0.671875q-0.75 0.671875 -0.84375 1.953125l5.234375 0zm13.871582 4.15625l0 3.53125l-1.84375 0q-2.359375 0 -3.671875 -1.15625q-1.296875 -1.171875 -1.296875 -3.859375l0 -4.921875l-1.796875 0l0 -3.453125l1.796875 0l0 -3.296875l4.09375 0l0 3.296875l2.6875 0l0 3.453125l-2.6875 0l0 5.0q0 0.78125 0.328125 1.09375q0.328125 0.3125 1.09375 0.3125l1.296875 0zm13.375458 -10.03125q1.984375 0 3.546875 0.828125q1.578125 0.828125 2.46875 2.390625q0.90625 1.5625 0.90625 3.640625q0 2.09375 -0.90625 3.65625q-0.890625 1.5625 -2.46875 2.390625q-1.5625 0.828125 -3.546875 0.828125q-2.0 0 -3.59375 -0.828125q-1.578125 -0.828125 -2.484375 -2.390625q-0.890625 -1.5625 -0.890625 -3.65625q0 -2.078125 0.890625 -3.640625q0.90625 -1.5625 2.484375 -2.390625q1.59375 -0.828125 3.59375 -0.828125zm0 3.546875q-1.1875 0 -2.0 0.859375q-0.796875 0.859375 -0.796875 2.453125q0 1.609375 0.796875 2.453125q0.8125 0.84375 2.0 0.84375q1.171875 0 1.953125 -0.84375q0.796875 -0.84375 0.796875 -2.453125q0 -1.59375 -0.796875 -2.453125q-0.78125 -0.859375 -1.953125 -0.859375zm15.6328125 -5.203125q-1.0 0 -1.453125 0.4375q-0.453125 0.421875 -0.5 1.390625l2.421875 0l0 3.453125l-2.421875 0l0 9.9375l-4.109375 0l0 -9.9375l-1.609375 0l0 -3.453125l1.609375 0l0 -0.140625q0 -2.5 1.453125 -3.859375q1.453125 -1.359375 4.203125 -1.359375q0.578125 0 0.875 0.03125l0 3.53125l-0.46875 -0.03125zm26.647583 1.828125l-3.4375 13.390625l-4.578125 0l-2.421875 -8.96875l-2.453125 8.96875l-4.578125 0l-3.4375 -13.390625l4.109375 0l1.765625 9.640625l2.5 -9.640625l4.375 0l2.5625 9.671875l1.78125 -9.671875l3.8125 0zm14.212585 6.328125q0 0.515625 -0.125 1.109375l-9.28125 0q0.0625 1.515625 0.75 2.171875q0.703125 0.65625 1.78125 0.65625q0.921875 0 1.515625 -0.453125q0.609375 -0.453125 0.796875 -1.171875l4.34375 0q-0.265625 1.40625 -1.15625 2.53125q-0.890625 1.109375 -2.265625 1.75q-1.359375 0.640625 -3.03125 0.640625q-1.96875 0 -3.5 -0.828125q-1.515625 -0.828125 -2.390625 -2.390625q-0.859375 -1.5625 -0.859375 -3.65625q0 -2.109375 0.84375 -3.65625q0.859375 -1.546875 2.390625 -2.375q1.546875 -0.828125 3.515625 -0.828125q1.984375 0 3.5 0.828125q1.515625 0.8125 2.34375 2.296875q0.828125 1.46875 0.828125 3.375zm-4.15625 -0.625q0.03125 -1.3125 -0.703125 -1.96875q-0.734375 -0.65625 -1.8125 -0.65625q-1.125 0 -1.875 0.671875q-0.75 0.671875 -0.84375 1.953125l5.234375 0zm10.387207 -10.078125l0 17.765625l-4.09375 0l0 -17.765625l4.09375 0zm6.935974 0l0 17.765625l-4.09375 0l0 -17.765625l4.09375 0zm15.751587 17.765625l-4.015625 -5.6875l0 5.6875l-4.09375 0l0 -17.765625l4.09375 0l0 9.75l4.015625 -5.375l4.828125 0l-5.40625 6.6875l5.515625 6.703125l-4.9375 0zm14.918945 -13.53125q2.3125 0 3.65625 1.53125q1.359375 1.53125 1.359375 4.21875l0 7.78125l-4.09375 0l0 -7.296875q0 -1.34375 -0.71875 -2.09375q-0.703125 -0.765625 -1.875 -0.765625q-1.25 0 -1.984375 0.796875q-0.734375 0.796875 -0.734375 2.25l0 7.109375l-4.09375 0l0 -13.390625l4.09375 0l0 2.453125q0.578125 -1.203125 1.71875 -1.890625q1.140625 -0.703125 2.671875 -0.703125zm14.005188 -0.03125q1.984375 0 3.546875 0.828125q1.578125 0.828125 2.46875 2.390625q0.90625 1.5625 0.90625 3.640625q0 2.09375 -0.90625 3.65625q-0.890625 1.5625 -2.46875 2.390625q-1.5625 0.828125 -3.546875 0.828125q-2.0 0 -3.59375 -0.828125q-1.578125 -0.828125 -2.484375 -2.390625q-0.890625 -1.5625 -0.890625 -3.65625q0 -2.078125 0.890625 -3.640625q0.90625 -1.5625 2.484375 -2.390625q1.59375 -0.828125 3.59375 -0.828125zm0 3.546875q-1.1875 0 -2.0 0.859375q-0.796875 0.859375 -0.796875 2.453125q0 1.609375 0.796875 2.453125q0.8125 0.84375 2.0 0.84375q1.171875 0 1.953125 -0.84375q0.796875 -0.84375 0.796875 -2.453125q0 -1.59375 -0.796875 -2.453125q-0.78125 -0.859375 -1.953125 -0.859375zm28.648438 -3.375l-3.4375 13.390625l-4.578125 0l-2.421875 -8.96875l-2.453125 8.96875l-4.578125 0l-3.4375 -13.390625l4.109375 0l1.765625 9.640625l2.5 -9.640625l4.375 0l2.5625 9.671875l1.78125 -9.671875l3.8125 0zm9.97821 -0.140625q2.3125 0 3.65625 1.53125q1.359375 1.53125 1.359375 4.21875l0 7.78125l-4.09375 0l0 -7.296875q0 -1.34375 -0.71875 -2.09375q-0.703125 -0.765625 -1.875 -0.765625q-1.25 0 -1.984375 0.796875q-0.734375 0.796875 -0.734375 2.25l0 7.109375l-4.09375 0l0 -13.390625l4.09375 0l0 2.453125q0.578125 -1.203125 1.71875 -1.890625q1.140625 -0.703125 2.671875 -0.703125zm20.117676 10.0l0 3.53125l-1.84375 0q-2.359375 0 -3.671875 -1.15625q-1.296875 -1.171875 -1.296875 -3.859375l0 -4.921875l-1.796875 0l0 -3.453125l1.796875 0l0 -3.296875l4.09375 0l0 3.296875l2.6875 0l0 3.453125l-2.6875 0l0 5.0q0 0.78125 0.328125 1.09375q0.328125 0.3125 1.09375 0.3125l1.296875 0zm8.57547 -10.03125q1.984375 0 3.546875 0.828125q1.578125 0.828125 2.46875 2.390625q0.90625 1.5625 0.90625 3.640625q0 2.09375 -0.90625 3.65625q-0.890625 1.5625 -2.46875 2.390625q-1.5625 0.828125 -3.546875 0.828125q-2.0 0 -3.59375 -0.828125q-1.578125 -0.828125 -2.484375 -2.390625q-0.890625 -1.5625 -0.890625 -3.65625q0 -2.078125 0.890625 -3.640625q0.90625 -1.5625 2.484375 -2.390625q1.59375 -0.828125 3.59375 -0.828125zm0 3.546875q-1.1875 0 -2.0 0.859375q-0.796875 0.859375 -0.796875 2.453125q0 1.609375 0.796875 2.453125q0.8125 0.84375 2.0 0.84375q1.171875 0 1.953125 -0.84375q0.796875 -0.84375 0.796875 -2.453125q0 -1.59375 -0.796875 -2.453125q-0.78125 -0.859375 -1.953125 -0.859375zm15.335999 -3.546875q1.984375 0 3.546875 0.828125q1.578125 0.828125 2.46875 2.390625q0.90625 1.5625 0.90625 3.640625q0 2.09375 -0.90625 3.65625q-0.890625 1.5625 -2.46875 2.390625q-1.5625 0.828125 -3.546875 0.828125q-2.0 0 -3.59375 -0.828125q-1.578125 -0.828125 -2.484375 -2.390625q-0.890625 -1.5625 -0.890625 -3.65625q0 -2.078125 0.890625 -3.640625q0.90625 -1.5625 2.484375 -2.390625q1.59375 -0.828125 3.59375 -0.828125zm0 3.546875q-1.1875 0 -2.0 0.859375q-0.796875 0.859375 -0.796875 2.453125q0 1.609375 0.796875 2.453125q0.8125 0.84375 2.0 0.84375q1.171875 0 1.953125 -0.84375q0.796875 -0.84375 0.796875 -2.453125q0 -1.59375 -0.796875 -2.453125q-0.78125 -0.859375 -1.953125 -0.859375zm13.1640625 -7.75l0 17.765625l-4.09375 0l0 -17.765625l4.09375 0zm7.701599 4.203125q2.546875 0 4.0625 1.28125q1.53125 1.265625 1.921875 3.359375l-3.84375 0q-0.171875 -0.828125 -0.765625 -1.296875q-0.578125 -0.46875 -1.46875 -0.46875q-0.6875 0 -1.046875 0.3125q-0.359375 0.296875 -0.359375 0.84375q0 0.625 0.65625 0.9375q0.65625 0.3125 2.078125 0.625q1.53125 0.359375 2.515625 0.734375q0.984375 0.375 1.703125 1.21875q0.71875 0.828125 0.71875 2.25q0 1.15625 -0.625 2.046875q-0.625 0.875 -1.796875 1.390625q-1.171875 0.5 -2.78125 0.5q-2.71875 0 -4.359375 -1.203125q-1.625 -1.203125 -1.984375 -3.4375l3.96875 0q0.09375 0.875 0.71875 1.328125q0.640625 0.453125 1.65625 0.453125q0.6875 0 1.046875 -0.328125q0.359375 -0.328125 0.359375 -0.84375q0 -0.703125 -0.65625 -1.0q-0.65625 -0.296875 -2.140625 -0.640625q-1.484375 -0.3125 -2.453125 -0.671875q-0.953125 -0.359375 -1.65625 -1.15625q-0.6875 -0.8125 -0.6875 -2.203125q0 -1.796875 1.359375 -2.90625q1.375 -1.125 3.859375 -1.125zm11.101196 11.015625q0.71875 1.390625 0.71875 3.03125q0 1.65625 -0.875 2.734375q-0.875 1.078125 -2.734375 1.078125l0 -1.515625q0.65625 0 0.953125 -0.296875q0.296875 -0.28125 0.296875 -1.09375l0 -0.234375l-1.75 0l0 -3.703125l3.390625 0zm15.425476 -0.984375l0 3.53125l-1.84375 0q-2.359375 0 -3.671875 -1.15625q-1.296875 -1.171875 -1.296875 -3.859375l0 -4.921875l-1.796875 0l0 -3.453125l1.796875 0l0 -3.296875l4.09375 0l0 3.296875l2.6875 0l0 3.453125l-2.6875 0l0 5.0q0 0.78125 0.328125 1.09375q0.328125 0.3125 1.09375 0.3125l1.296875 0zm10.794189 -10.0q2.3125 0 3.65625 1.53125q1.359436 1.53125 1.359436 4.21875l0 7.78125l-4.093811 0l0 -7.296875q0 -1.34375 -0.71875 -2.09375q-0.703125 -0.765625 -1.875 -0.765625q-1.25 0 -1.984375 0.796875q-0.734375 0.796875 -0.734375 2.25l0 7.109375l-4.09375 0l0 -17.765625l4.09375 0l0 6.828125q0.578125 -1.203125 1.71875 -1.890625q1.140625 -0.703125 2.671875 -0.703125zm20.458374 6.46875q0 0.515625 -0.125 1.109375l-9.28125 0q0.0625 1.515625 0.75 2.171875q0.703125 0.65625 1.78125 0.65625q0.921875 0 1.515625 -0.453125q0.609375 -0.453125 0.796875 -1.171875l4.34375 0q-0.265625 1.40625 -1.15625 2.53125q-0.890625 1.109375 -2.265625 1.75q-1.359375 0.640625 -3.03125 0.640625q-1.96875 0 -3.5 -0.828125q-1.515625 -0.828125 -2.390625 -2.390625q-0.859375 -1.5625 -0.859375 -3.65625q0 -2.109375 0.84375 -3.65625q0.859375 -1.546875 2.390625 -2.375q1.546875 -0.828125 3.515625 -0.828125q1.984375 0 3.5 0.828125q1.515625 0.8125 2.34375 2.296875q0.828125 1.46875 0.828125 3.375zm-4.15625 -0.625q0.03125 -1.3125 -0.703125 -1.96875q-0.734375 -0.65625 -1.8125 -0.65625q-1.125 0 -1.875 0.671875q-0.75 0.671875 -0.84375 1.953125l5.234375 0z" fill-rule="nonzero"/><path fill="#f9c3c0" d="m112.416084 67.703224q1.984375 0 3.546875 0.828125q1.578125 0.828125 2.46875 2.390625q0.90625 1.5625 0.90625 3.640625q0 2.09375 -0.90625 3.65625q-0.890625 1.5625 -2.46875 2.390625q-1.5625 0.828125 -3.546875 0.828125q-2.0 0 -3.59375 -0.828125q-1.578125 -0.828125 -2.484375 -2.390625q-0.890625 -1.5625 -0.890625 -3.65625q0 -2.078125 0.890625 -3.640625q0.90625 -1.5625 2.484375 -2.390625q1.59375 -0.828125 3.59375 -0.828125zm0 3.546875q-1.1875 0 -2.0 0.859375q-0.796875 0.859375 -0.796875 2.453125q0 1.609375 0.796875 2.453125q0.8125 0.84375 2.0 0.84375q1.171875 0 1.953125 -0.84375q0.796875 -0.84375 0.796875 -2.453125q0 -1.59375 -0.796875 -2.453125q-0.78125 -0.859375 -1.953125 -0.859375zm17.554695 -3.515625q2.3125 0 3.65625 1.53125q1.359375 1.53125 1.359375 4.21875l0 7.78125l-4.09375 0l0 -7.296875q0 -1.34375 -0.71875 -2.09375q-0.703125 -0.765625 -1.875 -0.765625q-1.2499924 0 -1.9843674 0.796875q-0.734375 0.796875 -0.734375 2.25l0 7.109375l-4.09375 0l0 -13.390625l4.09375 0l0 2.453125q0.578125 -1.203125 1.71875 -1.890625q1.1406174 -0.703125 2.6718674 -0.703125zm20.458328 6.46875q0 0.515625 -0.125 1.109375l-9.28125 0q0.0625 1.515625 0.75 2.171875q0.703125 0.65625 1.78125 0.65625q0.921875 0 1.515625 -0.453125q0.609375 -0.453125 0.796875 -1.171875l4.34375 0q-0.265625 1.40625 -1.15625 2.53125q-0.890625 1.109375 -2.265625 1.75q-1.359375 0.640625 -3.03125 0.640625q-1.96875 0 -3.5 -0.828125q-1.515625 -0.828125 -2.390625 -2.390625q-0.859375 -1.5625 -0.859375 -3.65625q0 -2.109375 0.84375 -3.65625q0.859375 -1.546875 2.390625 -2.375q1.546875 -0.828125 3.515625 -0.828125q1.984375 0 3.5 0.828125q1.515625 0.8125 2.34375 2.296875q0.828125 1.46875 0.828125 3.375zm-4.15625 -0.625q0.03125 -1.3125 -0.703125 -1.96875q-0.734375 -0.65625 -1.8125 -0.65625q-1.125 0 -1.875 0.671875q-0.75 0.671875 -0.84375 1.953125l5.234375 0zm11.152832 -5.875q2.546875 0 4.0625 1.28125q1.53125 1.265625 1.921875 3.359375l-3.84375 0q-0.171875 -0.828125 -0.765625 -1.296875q-0.578125 -0.46875 -1.46875 -0.46875q-0.6875 0 -1.046875 0.3125q-0.359375 0.296875 -0.359375 0.84375q0 0.625 0.65625 0.9375q0.65625 0.3125 2.078125 0.625q1.53125 0.359375 2.515625 0.734375q0.984375 0.375 1.703125 1.21875q0.71875 0.828125 0.71875 2.25q0 1.15625 -0.625 2.046875q-0.625 0.875 -1.796875 1.390625q-1.171875 0.5 -2.78125 0.5q-2.71875 0 -4.359375 -1.203125q-1.625 -1.203125 -1.984375 -3.4375l3.96875 0q0.09375 0.875 0.71875 1.328125q0.640625 0.453125 1.65625 0.453125q0.6875 0 1.046875 -0.328125q0.359375 -0.328125 0.359375 -0.84375q0 -0.703125 -0.65625 -1.0q-0.65625 -0.296875 -2.140625 -0.640625q-1.484375 -0.3125 -2.453125 -0.671875q-0.953125 -0.359375 -1.65625 -1.15625q-0.6875 -0.8125 -0.6875 -2.203125q0 -1.796875 1.359375 -2.90625q1.375 -1.125 3.859375 -1.125zm30.604324 0.03125q2.46875 0 3.890625 1.53125q1.421875 1.515625 1.421875 4.21875l0 7.78125l-4.09375 0l0 -7.296875q0 -1.265625 -0.6875 -1.96875q-0.671875 -0.71875 -1.84375 -0.71875q-1.234375 0 -1.9375 0.765625q-0.703125 0.75 -0.703125 2.109375l0 7.109375l-4.109375 0l0 -7.296875q0 -1.265625 -0.671875 -1.96875q-0.671875 -0.71875 -1.84375 -0.71875q-1.234375 0 -1.953125 0.75q-0.71875 0.734375 -0.71875 2.125l0 7.109375l-4.09375 0l0 -13.390625l4.09375 0l0 2.28125q0.53125 -1.125 1.625 -1.765625q1.09375 -0.65625 2.5625 -0.65625q1.53125 0 2.703125 0.703125q1.171875 0.703125 1.78125 2.03125q0.6875 -1.25 1.890625 -1.984375q1.21875 -0.75 2.6875 -0.75zm14.313797 -0.03125q1.984375 0 3.546875 0.828125q1.578125 0.828125 2.46875 2.390625q0.90625 1.5625 0.90625 3.640625q0 2.09375 -0.90625 3.65625q-0.890625 1.5625 -2.46875 2.390625q-1.5625 0.828125 -3.546875 0.828125q-2.0 0 -3.59375 -0.828125q-1.578125 -0.828125 -2.484375 -2.390625q-0.890625 -1.5625 -0.890625 -3.65625q0 -2.078125 0.890625 -3.640625q0.90625 -1.5625 2.484375 -2.390625q1.59375 -0.828125 3.59375 -0.828125zm0 3.546875q-1.1875 0 -2.0 0.859375q-0.796875 0.859375 -0.796875 2.453125q0 1.609375 0.796875 2.453125q0.8125 0.84375 2.0 0.84375q1.171875 0 1.953125 -0.84375q0.796875 -0.84375 0.796875 -2.453125q0 -1.59375 -0.796875 -2.453125q-0.78125 -0.859375 -1.953125 -0.859375zm13.929703 -3.546875q2.546875 0 4.0625 1.28125q1.53125 1.265625 1.921875 3.359375l-3.84375 0q-0.171875 -0.828125 -0.765625 -1.296875q-0.578125 -0.46875 -1.46875 -0.46875q-0.6875 0 -1.046875 0.3125q-0.359375 0.296875 -0.359375 0.84375q0 0.625 0.65625 0.9375q0.65625 0.3125 2.078125 0.625q1.53125 0.359375 2.515625 0.734375q0.984375 0.375 1.703125 1.21875q0.71875 0.828125 0.71875 2.25q0 1.15625 -0.625 2.046875q-0.625 0.875 -1.796875 1.390625q-1.171875 0.5 -2.78125 0.5q-2.71875 0 -4.359375 -1.203125q-1.625 -1.203125 -1.984375 -3.4375l3.96875 0q0.09375 0.875 0.71875 1.328125q0.640625 0.453125 1.65625 0.453125q0.6875 0 1.046875 -0.328125q0.359375 -0.328125 0.359375 -0.84375q0 -0.703125 -0.65625 -1.0q-0.65625 -0.296875 -2.140625 -0.640625q-1.484375 -0.3125 -2.453125 -0.671875q-0.953125 -0.359375 -1.65625 -1.15625q-0.6875 -0.8125 -0.6875 -2.203125q0 -1.796875 1.359375 -2.90625q1.375 -1.125 3.859375 -1.125zm16.038712 10.03125l0 3.53125l-1.84375 0q-2.359375 0 -3.671875 -1.15625q-1.296875 -1.171875 -1.296875 -3.859375l0 -4.921875l-1.796875 0l0 -3.453125l1.796875 0l0 -3.296875l4.09375 0l0 3.296875l2.6875 0l0 3.453125l-2.6875 0l0 5.0q0 0.78125 0.328125 1.09375q0.328125 0.3125 1.09375 0.3125l1.296875 0zm12.187958 -10.03125q1.546875 0 2.640625 0.703125q1.109375 0.6875 1.640625 1.890625l0 -2.421875l4.078125 0l0 13.390625l-4.078125 0l0 -2.421875q-0.53125 1.203125 -1.640625 1.90625q-1.09375 0.6875 -2.640625 0.6875q-1.65625 0 -2.96875 -0.828125q-1.296875 -0.828125 -2.0625 -2.390625q-0.75 -1.5625 -0.75 -3.65625q0 -2.109375 0.75 -3.65625q0.765625 -1.546875 2.0625 -2.375q1.3125 -0.828125 2.96875 -0.828125zm1.328125 3.609375q-1.328125 0 -2.140625 0.859375q-0.796875 0.859375 -0.796875 2.390625q0 1.546875 0.796875 2.40625q0.8125 0.859375 2.140625 0.859375q1.296875 0 2.125 -0.875q0.828125 -0.890625 0.828125 -2.390625q0 -1.5 -0.828125 -2.375q-0.828125 -0.875 -2.125 -0.875zm14.943848 -3.609375q1.546875 0 2.640625 0.703125q1.109375 0.6875 1.640625 1.890625l0 -2.421875l4.078125 0l0 13.3125q0 1.875 -0.71875 3.375q-0.71875 1.5 -2.21875 2.390625q-1.484375 0.890625 -3.6875 0.890625q-3.03125 0 -4.84375 -1.4375q-1.8125153 -1.421875 -2.1718903 -3.875l4.0625153 0q0.1875 0.828125 0.875 1.28125q0.6875 0.453125 1.78125 0.453125q1.28125 0 2.0625 -0.734375q0.78125 -0.734375 0.78125 -2.34375l0 -2.34375q-0.53125 1.203125 -1.640625 1.90625q-1.09375 0.6875 -2.640625 0.6875q-1.65625 0 -2.96875 -0.828125q-1.296875 -0.828125 -2.0625153 -2.390625q-0.75 -1.5625 -0.75 -3.65625q0 -2.109375 0.75 -3.65625q0.76564026 -1.546875 2.0625153 -2.375q1.3125 -0.828125 2.96875 -0.828125zm1.328125 3.609375q-1.328125 0 -2.140625 0.859375q-0.796875 0.859375 -0.796875 2.390625q0 1.546875 0.796875 2.40625q0.8125 0.859375 2.140625 0.859375q1.296875 0 2.125 -0.875q0.828125 -0.890625 0.828125 -2.390625q0 -1.5 -0.828125 -2.375q-0.828125 -0.875 -2.125 -0.875zm13.959442 -0.921875q0.765625 -1.21875 1.984375 -1.9375q1.21875 -0.71875 2.625 -0.71875l0 4.390625l-1.171875 0q-1.640625 0 -2.546875 0.703125q-0.890625 0.6875 -0.890625 2.34375l0 6.09375l-4.09375 0l0 -13.390625l4.09375 0l0 2.515625zm19.064972 3.8125q0 0.515625 -0.125 1.109375l-9.28125 0q0.0625 1.515625 0.75 2.171875q0.703125 0.65625 1.78125 0.65625q0.921875 0 1.515625 -0.453125q0.609375 -0.453125 0.796875 -1.171875l4.34375 0q-0.265625 1.40625 -1.15625 2.53125q-0.890625 1.109375 -2.265625 1.75q-1.359375 0.640625 -3.03125 0.640625q-1.96875 0 -3.5 -0.828125q-1.515625 -0.828125 -2.390625 -2.390625q-0.859375 -1.5625 -0.859375 -3.65625q0 -2.109375 0.84375 -3.65625q0.859375 -1.546875 2.390625 -2.375q1.546875 -0.828125 3.515625 -0.828125q1.984375 0 3.5 0.828125q1.515625 0.8125 2.34375 2.296875q0.828125 1.46875 0.828125 3.375zm-4.15625 -0.625q0.03125 -1.3125 -0.703125 -1.96875q-0.734375 -0.65625 -1.8125 -0.65625q-1.125 0 -1.875 0.671875q-0.75 0.671875 -0.84375 1.953125l5.234375 0zm19.012207 0.625q0 0.515625 -0.125 1.109375l-9.28125 0q0.0625 1.515625 0.75 2.171875q0.703125 0.65625 1.78125 0.65625q0.921875 0 1.515625 -0.453125q0.609375 -0.453125 0.796875 -1.171875l4.34375 0q-0.265625 1.40625 -1.15625 2.53125q-0.890625 1.109375 -2.265625 1.75q-1.359375 0.640625 -3.03125 0.640625q-1.96875 0 -3.5 -0.828125q-1.515625 -0.828125 -2.390625 -2.390625q-0.859375 -1.5625 -0.859375 -3.65625q0 -2.109375 0.84375 -3.65625q0.859375 -1.546875 2.390625 -2.375q1.546875 -0.828125 3.515625 -0.828125q1.984375 0 3.5 0.828125q1.515625 0.8125 2.34375 2.296875q0.828125 1.46875 0.828125 3.375zm-4.15625 -0.625q0.03125 -1.3125 -0.703125 -1.96875q-0.734375 -0.65625 -1.8125 -0.65625q-1.125 0 -1.875 0.671875q-0.75 0.671875 -0.84375 1.953125l5.234375 0zm11.371582 -5.875q1.546875 0 2.640625 0.703125q1.109375 0.6875 1.609375 1.890625l0 -6.796875l4.109375 0l0 17.765625l-4.109375 0l0 -2.421875q-0.5 1.203125 -1.609375 1.90625q-1.09375 0.6875 -2.640625 0.6875q-1.65625 0 -2.96875 -0.828125q-1.296875 -0.828125 -2.0625 -2.390625q-0.75 -1.5625 -0.75 -3.65625q0 -2.109375 0.75 -3.65625q0.765625 -1.546875 2.0625 -2.375q1.3125 -0.828125 2.96875 -0.828125zm1.328125 3.609375q-1.328125 0 -2.140625 0.859375q-0.796875 0.859375 -0.796875 2.390625q0 1.546875 0.796875 2.40625q0.8125 0.859375 2.140625 0.859375q1.296875 0 2.125 -0.875q0.828125 -0.890625 0.828125 -2.390625q0 -1.5 -0.828125 -2.375q-0.828125 -0.875 -2.125 -0.875zm20.931305 -3.609375q1.984375 0 3.546875 0.828125q1.578125 0.828125 2.46875 2.390625q0.90625 1.5625 0.90625 3.640625q0 2.09375 -0.90625 3.65625q-0.890625 1.5625 -2.46875 2.390625q-1.5625 0.828125 -3.546875 0.828125q-2.0 0 -3.59375 -0.828125q-1.5780945 -0.828125 -2.4843445 -2.390625q-0.890625 -1.5625 -0.890625 -3.65625q0 -2.078125 0.890625 -3.640625q0.90625 -1.5625 2.4843445 -2.390625q1.59375 -0.828125 3.59375 -0.828125zm0 3.546875q-1.1875 0 -2.0 0.859375q-0.796875 0.859375 -0.796875 2.453125q0 1.609375 0.796875 2.453125q0.8125 0.84375 2.0 0.84375q1.171875 0 1.953125 -0.84375q0.796875 -0.84375 0.796875 -2.453125q0 -1.59375 -0.796875 -2.453125q-0.78125 -0.859375 -1.953125 -0.859375zm17.554718 -3.515625q2.3125 0 3.65625 1.53125q1.359375 1.53125 1.359375 4.21875l0 7.78125l-4.09375 0l0 -7.296875q0 -1.34375 -0.71875 -2.09375q-0.703125 -0.765625 -1.875 -0.765625q-1.25 0 -1.984375 0.796875q-0.734375 0.796875 -0.734375 2.25l0 7.109375l-4.09375 0l0 -13.390625l4.09375 0l0 2.453125q0.578125 -1.203125 1.71875 -1.890625q1.140625 -0.703125 2.671875 -0.703125zm10.380188 10.984375q0.71875 1.390625 0.71875 3.03125q0 1.65625 -0.875 2.734375q-0.875 1.078125 -2.734375 1.078125l0 -1.515625q0.65625 0 0.953125 -0.296875q0.296875 -0.28125 0.296875 -1.09375l0 -0.234375l-1.75 0l0 -3.703125l3.390625 0z" fill-rule="nonzero"/><path fill="#fd7a9e" d="m394.8158 67.8751l-3.4375 13.390625l-4.578125 0l-2.421875 -8.96875l-2.453125 8.96875l-4.578125 0l-3.4375 -13.390625l4.109375 0l1.765625 9.640625l2.5 -9.640625l4.375 0l2.5625 9.671875l1.78125 -9.671875l3.8125 0zm5.587555 2.515625q0.765625 -1.21875 1.984375 -1.9375q1.21875 -0.71875 2.625 -0.71875l0 4.390625l-1.171875 0q-1.640625 0 -2.546875 0.703125q-0.890625 0.6875 -0.890625 2.34375l0 6.09375l-4.09375 0l0 -13.390625l4.09375 0l0 2.515625zm11.424377 -2.6875q1.546875 0 2.640625 0.703125q1.109375 0.6875 1.640625 1.890625l0 -2.421875l4.078125 0l0 13.390625l-4.078125 0l0 -2.421875q-0.53125 1.203125 -1.640625 1.90625q-1.09375 0.6875 -2.640625 0.6875q-1.65625 0 -2.96875 -0.828125q-1.296875 -0.828125 -2.0625 -2.390625q-0.75 -1.5625 -0.75 -3.65625q0 -2.109375 0.75 -3.65625q0.765625 -1.546875 2.0625 -2.375q1.3125 -0.828125 2.96875 -0.828125zm1.328125 3.609375q-1.328125 0 -2.140625 0.859375q-0.796875 0.859375 -0.796875 2.390625q0 1.546875 0.796875 2.40625q0.8125 0.859375 2.140625 0.859375q1.296875 0 2.125 -0.875q0.828125 -0.890625 0.828125 -2.390625q0 -1.5 -0.828125 -2.375q-0.828125 -0.875 -2.125 -0.875zm18.209442 -3.609375q1.65625 0 2.96875 0.828125q1.3125 0.828125 2.0625 2.375q0.75 1.546875 0.75 3.65625q0 2.09375 -0.75 3.65625q-0.75 1.5625 -2.0625 2.390625q-1.3125 0.828125 -2.96875 0.828125q-1.53125 0 -2.640625 -0.6875q-1.09375 -0.703125 -1.609375 -1.90625l0 8.8125l-4.09375 0l0 -19.78125l4.09375 0l0 2.421875q0.515625 -1.203125 1.609375 -1.890625q1.109375 -0.703125 2.640625 -0.703125zm-1.3125 3.609375q-1.296875 0 -2.125 0.875q-0.828125 0.875 -0.828125 2.375q0 1.5 0.828125 2.390625q0.828125 0.875 2.125 0.875q1.3125 0 2.109375 -0.859375q0.8125 -0.859375 0.8125 -2.40625q0 -1.53125 -0.8125 -2.390625q-0.796875 -0.859375 -2.109375 -0.859375zm21.618805 6.421875l0 3.53125l-1.84375 0q-2.359375 0 -3.671875 -1.15625q-1.296875 -1.171875 -1.296875 -3.859375l0 -4.921875l-1.796875 0l0 -3.453125l1.796875 0l0 -3.296875l4.09375 0l0 3.296875l2.6875 0l0 3.453125l-2.6875 0l0 5.0q0 0.78125 0.328125 1.09375q0.328125 0.3125 1.09375 0.3125l1.296875 0zm10.7942505 -10.0q2.3125 0 3.65625 1.53125q1.359375 1.53125 1.359375 4.21875l0 7.78125l-4.09375 0l0 -7.296875q0 -1.34375 -0.71875 -2.09375q-0.703125 -0.765625 -1.875 -0.765625q-1.25 0 -1.984375 0.796875q-0.734375 0.796875 -0.734375 2.25l0 7.109375l-4.09375 0l0 -17.765625l4.09375 0l0 6.828125q0.578125 -1.203125 1.71875 -1.890625q1.140625 -0.703125 2.671875 -0.703125zm20.458313 6.46875q0 0.515625 -0.125 1.109375l-9.28125 0q0.0625 1.515625 0.75 2.171875q0.703125 0.65625 1.78125 0.65625q0.921875 0 1.515625 -0.453125q0.609375 -0.453125 0.796875 -1.171875l4.34375 0q-0.265625 1.40625 -1.15625 2.53125q-0.890625 1.109375 -2.265625 1.75q-1.359375 0.640625 -3.03125 0.640625q-1.96875 0 -3.5 -0.828125q-1.515625 -0.828125 -2.390625 -2.390625q-0.859375 -1.5625 -0.859375 -3.65625q0 -2.109375 0.84375 -3.65625q0.859375 -1.546875 2.390625 -2.375q1.546875 -0.828125 3.515625 -0.828125q1.984375 0 3.5 0.828125q1.515625 0.8125 2.34375 2.296875q0.828125 1.46875 0.828125 3.375zm-4.15625 -0.625q0.03125 -1.3125 -0.703125 -1.96875q-0.734375 -0.65625 -1.8125 -0.65625q-1.125 0 -1.875 0.671875q-0.75 0.671875 -0.84375 1.953125l5.234375 0zm23.637207 -5.84375q2.46875 0 3.890625 1.53125q1.421875 1.515625 1.421875 4.21875l0 7.78125l-4.09375 0l0 -7.296875q0 -1.265625 -0.6875 -1.96875q-0.671875 -0.71875 -1.84375 -0.71875q-1.234375 0 -1.9375 0.765625q-0.703125 0.75 -0.703125 2.109375l0 7.109375l-4.109375 0l0 -7.296875q0 -1.265625 -0.671875 -1.96875q-0.671875 -0.71875 -1.84375 -0.71875q-1.234375 0 -1.953125 0.75q-0.71875 0.734375 -0.71875 2.125l0 7.109375l-4.09375 0l0 -13.390625l4.09375 0l0 2.28125q0.53125 -1.125 1.625 -1.765625q1.09375 -0.65625 2.5625 -0.65625q1.53125 0 2.703125 0.703125q1.171875 0.703125 1.78125 2.03125q0.6875 -1.25 1.890625 -1.984375q1.21875 -0.75 2.6875 -0.75zm26.160675 0.140625l0 13.390625l-4.125 0l0 -2.421875q-0.578125 1.171875 -1.71875 1.875q-1.140625 0.6875 -2.65625 0.6875q-2.296875 0 -3.65625 -1.53125q-1.359375 -1.53125 -1.359375 -4.21875l0 -7.78125l4.078125 0l0 7.265625q0 1.375 0.703125 2.140625q0.71875 0.75 1.921875 0.75q1.25 0 1.96875 -0.796875q0.71875 -0.796875 0.71875 -2.25l0 -7.109375l4.125 0zm11.183228 -0.171875q1.65625 0 2.96875 0.828125q1.3125 0.828125 2.0625 2.375q0.75 1.546875 0.75 3.65625q0 2.09375 -0.75 3.65625q-0.75 1.5625 -2.0625 2.390625q-1.3125 0.828125 -2.96875 0.828125q-1.53125 0 -2.640625 -0.6875q-1.09375 -0.703125 -1.609375 -1.90625l0 8.8125l-4.09375 0l0 -19.78125l4.09375 0l0 2.421875q0.515625 -1.203125 1.609375 -1.890625q1.109375 -0.703125 2.640625 -0.703125zm-1.3125 3.609375q-1.296875 0 -2.125 0.875q-0.828125 0.875 -0.828125 2.375q0 1.5 0.828125 2.390625q0.828125 0.875 2.125 0.875q1.3125 0 2.109375 -0.859375q0.8125 -0.859375 0.8125 -2.40625q0 -1.53125 -0.8125 -2.390625q-0.796875 -0.859375 -2.109375 -0.859375zm13.650024 -7.203125q0 -0.9375 0.671875 -1.546875q0.671875 -0.609375 1.78125 -0.609375q1.09375 0 1.765625 0.609375q0.671875 0.609375 0.671875 1.546875q0 0.90625 -0.671875 1.515625q-0.671875 0.609375 -1.765625 0.609375q-1.109375 0 -1.78125 -0.609375q-0.671875 -0.609375 -0.671875 -1.515625zm4.484375 3.765625l0 13.390625l-4.09375 0l0 -13.390625l4.09375 0zm11.326599 -0.140625q2.3125 0 3.65625 1.53125q1.359375 1.53125 1.359375 4.21875l0 7.78125l-4.09375 0l0 -7.296875q0 -1.34375 -0.71875 -2.09375q-0.703125 -0.765625 -1.875 -0.765625q-1.25 0 -1.984375 0.796875q-0.734375 0.796875 -0.734375 2.25l0 7.109375l-4.09375 0l0 -13.390625l4.09375 0l0 2.453125q0.578125 -1.203125 1.71875 -1.890625q1.140625 -0.703125 2.671875 -0.703125zm17.617737 -0.03125q1.546875 0 2.640625 0.703125q1.109375 0.6875 1.640625 1.890625l0 -2.421875l4.078125 0l0 13.390625l-4.078125 0l0 -2.421875q-0.53125 1.203125 -1.640625 1.90625q-1.09375 0.6875 -2.640625 0.6875q-1.65625 0 -2.96875 -0.828125q-1.296875 -0.828125 -2.0625 -2.390625q-0.75 -1.5625 -0.75 -3.65625q0 -2.109375 0.75 -3.65625q0.765625 -1.546875 2.0625 -2.375q1.3125 -0.828125 2.96875 -0.828125zm1.328125 3.609375q-1.328125 0 -2.140625 0.859375q-0.796875 0.859375 -0.796875 2.390625q0 1.546875 0.796875 2.40625q0.8125 0.859375 2.140625 0.859375q1.296875 0 2.125 -0.875q0.828125 -0.890625 0.828125 -2.390625q0 -1.5 -0.828125 -2.375q-0.828125 -0.875 -2.125 -0.875z" fill-rule="nonzero"/><path fill="#fd7a9e" d="m112.89384 96.703224q2.546875 0 4.0625 1.28125q1.53125 1.265625 1.921875 3.359375l-3.84375 0q-0.171875 -0.828125 -0.765625 -1.296875q-0.578125 -0.46875 -1.46875 -0.46875q-0.6875 0 -1.046875 0.3125q-0.359375 0.296875 -0.359375 0.84375q0 0.625 0.65625 0.9375q0.65625 0.3125 2.078125 0.625q1.53125 0.359375 2.515625 0.734375q0.984375 0.375 1.703125 1.21875q0.71875 0.828125 0.71875 2.25q0 1.15625 -0.625 2.046875q-0.625 0.875 -1.796875 1.390625q-1.171875 0.5 -2.78125 0.5q-2.71875 0 -4.359375 -1.203125q-1.625 -1.203125 -1.984375 -3.4375l3.96875 0q0.09375 0.875 0.71875 1.328125q0.640625 0.453125 1.65625 0.453125q0.6875 0 1.046875 -0.328125q0.359375 -0.328125 0.359375 -0.84375q0 -0.703125 -0.65625 -1.0q-0.65625 -0.296875 -2.140625 -0.640625q-1.484375 -0.3125 -2.453125 -0.671875q-0.953125 -0.359375 -1.65625 -1.15625q-0.6875 -0.8125 -0.6875 -2.203125q0 -1.796875 1.359375 -2.90625q1.375 -1.125 3.859375 -1.125zm8.069962 -3.59375q0 -0.9375 0.671875 -1.546875q0.671875 -0.609375 1.78125 -0.609375q1.09375 0 1.765625 0.609375q0.671875 0.609375 0.671875 1.546875q0 0.90625 -0.671875 1.515625q-0.671875 0.609375 -1.765625 0.609375q-1.109375 0 -1.78125 -0.609375q-0.671875 -0.609375 -0.671875 -1.515625zm4.484375 3.765625l0 13.390625l-4.09375 0l0 -13.390625l4.09375 0zm20.185966 -0.140625q2.46875 0 3.890625 1.53125q1.421875 1.515625 1.421875 4.21875l0 7.78125l-4.09375 0l0 -7.296875q0 -1.265625 -0.6875 -1.96875q-0.671875 -0.71875 -1.84375 -0.71875q-1.234375 0 -1.9375 0.765625q-0.703125 0.75 -0.703125 2.109375l0 7.109375l-4.109375 0l0 -7.296875q0 -1.265625 -0.671875 -1.96875q-0.671875 -0.71875 -1.84375 -0.71875q-1.234375 0 -1.953125 0.75q-0.71875 0.734375 -0.71875 2.125l0 7.109375l-4.09375 0l0 -13.390625l4.09375 0l0 2.28125q0.53125 -1.125 1.625 -1.765625q1.09375 -0.65625 2.5625 -0.65625q1.53125 0 2.703125 0.703125q1.171875 0.703125 1.78125 2.03125q0.6875 -1.25 1.890625 -1.984375q1.21875 -0.75 2.6875 -0.75zm16.391922 -0.03125q1.65625 0 2.96875 0.828125q1.3125 0.828125 2.0625 2.375q0.75 1.546875 0.75 3.65625q0 2.09375 -0.75 3.65625q-0.75 1.5625 -2.0625 2.390625q-1.3125 0.828125 -2.96875 0.828125q-1.53125 0 -2.640625 -0.6875q-1.09375 -0.703125 -1.609375 -1.90625l0 8.8125l-4.09375 0l0 -19.78125l4.09375 0l0 2.421875q0.515625 -1.203125 1.609375 -1.890625q1.109375 -0.703125 2.640625 -0.703125zm-1.3125 3.609375q-1.296875 0 -2.125 0.875q-0.828125 0.875 -0.828125 2.375q0 1.5 0.828125 2.390625q0.828125 0.875 2.125 0.875q1.3125 0 2.109375 -0.859375q0.8125 -0.859375 0.8125 -2.40625q0 -1.53125 -0.8125 -2.390625q-0.796875 -0.859375 -2.109375 -0.859375zm13.334457 -7.8125l0 17.765625l-4.09375 0l0 -17.765625l4.09375 0zm15.560974 10.703125q0 0.515625 -0.125 1.109375l-9.28125 0q0.0625 1.515625 0.75 2.171875q0.703125 0.65625 1.78125 0.65625q0.921875 0 1.515625 -0.453125q0.609375 -0.453125 0.796875 -1.171875l4.34375 0q-0.265625 1.40625 -1.15625 2.53125q-0.890625 1.109375 -2.265625 1.75q-1.359375 0.640625 -3.03125 0.640625q-1.96875 0 -3.5 -0.828125q-1.515625 -0.828125 -2.390625 -2.390625q-0.859375 -1.5625 -0.859375 -3.65625q0 -2.109375 0.84375 -3.65625q0.859375 -1.546875 2.390625 -2.375q1.546875 -0.828125 3.515625 -0.828125q1.984375 0 3.5 0.828125q1.515625 0.8125 2.34375 2.296875q0.828125 1.46875 0.828125 3.375zm-4.15625 -0.625q0.03125 -1.3125 -0.703125 -1.96875q-0.734375 -0.65625 -1.8125 -0.65625q-1.125 0 -1.875 0.671875q-0.75 0.671875 -0.84375 1.953125l5.234375 0zm18.67157 4.15625l0 3.53125l-1.84375 0q-2.359375 0 -3.671875 -1.15625q-1.296875 -1.171875 -1.296875 -3.859375l0 -4.921875l-1.796875 0l0 -3.453125l1.796875 0l0 -3.296875l4.09375 0l0 3.296875l2.6875 0l0 3.453125l-2.6875 0l0 5.0q0 0.78125 0.328125 1.09375q0.328125 0.3125 1.09375 0.3125l1.296875 0zm8.57547 -10.03125q1.984375 0 3.546875 0.828125q1.578125 0.828125 2.46875 2.390625q0.90625 1.5625 0.90625 3.640625q0 2.09375 -0.90625 3.65625q-0.890625 1.5625 -2.46875 2.390625q-1.5625 0.828125 -3.546875 0.828125q-2.0 0 -3.59375 -0.828125q-1.578125 -0.828125 -2.484375 -2.390625q-0.890625 -1.5625 -0.890625 -3.65625q0 -2.078125 0.890625 -3.640625q0.90625 -1.5625 2.484375 -2.390625q1.59375 -0.828125 3.59375 -0.828125zm0 3.546875q-1.1875 0 -2.0 0.859375q-0.796875 0.859375 -0.796875 2.453125q0 1.609375 0.796875 2.453125q0.8125 0.84375 2.0 0.84375q1.171875 0 1.953125 -0.84375q0.796875 -0.84375 0.796875 -2.453125q0 -1.59375 -0.796875 -2.453125q-0.78125 -0.859375 -1.953125 -0.859375zm27.182816 -3.375l0 13.390625l-4.125 0l0 -2.421875q-0.578125 1.171875 -1.71875 1.875q-1.140625 0.6875 -2.65625 0.6875q-2.296875 0 -3.65625 -1.53125q-1.359375 -1.53125 -1.359375 -4.21875l0 -7.78125l4.078125 0l0 7.265625q0 1.375 0.703125 2.140625q0.71875 0.75 1.921875 0.75q1.25 0 1.96875 -0.796875q0.71875 -0.796875 0.71875 -2.25l0 -7.109375l4.125 0zm7.698822 -0.171875q2.546875 0 4.0625 1.28125q1.53125 1.265625 1.921875 3.359375l-3.84375 0q-0.171875 -0.828125 -0.765625 -1.296875q-0.578125 -0.46875 -1.46875 -0.46875q-0.6875 0 -1.046875 0.3125q-0.359375 0.296875 -0.359375 0.84375q0 0.625 0.65625 0.9375q0.65625 0.3125 2.078125 0.625q1.53125 0.359375 2.515625 0.734375q0.984375 0.375 1.703125 1.21875q0.71875 0.828125 0.71875 2.25q0 1.15625 -0.625 2.046875q-0.625 0.875 -1.796875 1.390625q-1.171875 0.5 -2.78125 0.5q-2.71875 0 -4.359375 -1.203125q-1.625 -1.203125 -1.984375 -3.4375l3.96875 0q0.09375 0.875 0.71875 1.328125q0.640625 0.453125 1.65625 0.453125q0.6875 0 1.046875 -0.328125q0.359375 -0.328125 0.359375 -0.84375q0 -0.703125 -0.65625 -1.0q-0.65625 -0.296875 -2.140625 -0.640625q-1.484375 -0.3125 -2.453125 -0.671875q-0.953125 -0.359375 -1.65625 -1.15625q-0.6875 -0.8125 -0.6875 -2.203125q0 -1.796875 1.359375 -2.90625q1.375 -1.125 3.859375 -1.125zm21.179352 6.5q0 0.515625 -0.125 1.109375l-9.28125 0q0.0625 1.515625 0.75 2.171875q0.703125 0.65625 1.78125 0.65625q0.921875 0 1.515625 -0.453125q0.609375 -0.453125 0.796875 -1.171875l4.34375 0q-0.265625 1.40625 -1.15625 2.53125q-0.890625 1.109375 -2.265625 1.75q-1.359375 0.640625 -3.03125 0.640625q-1.96875 0 -3.5 -0.828125q-1.515625 -0.828125 -2.390625 -2.390625q-0.85939026 -1.5625 -0.85939026 -3.65625q0 -2.109375 0.84376526 -3.65625q0.859375 -1.546875 2.390625 -2.375q1.546875 -0.828125 3.515625 -0.828125q1.984375 0 3.5 0.828125q1.515625 0.8125 2.34375 2.296875q0.828125 1.46875 0.828125 3.375zm-4.15625 -0.625q0.03125 -1.3125 -0.703125 -1.96875q-0.734375 -0.65625 -1.8125 -0.65625q-1.125 0 -1.875 0.671875q-0.75 0.671875 -0.84375 1.953125l5.234375 0zm19.437195 -5.875q1.65625 0 2.96875 0.828125q1.3125 0.828125 2.0625 2.375q0.75 1.546875 0.75 3.65625q0 2.09375 -0.75 3.65625q-0.75 1.5625 -2.0625 2.390625q-1.3125 0.828125 -2.96875 0.828125q-1.53125 0 -2.640625 -0.6875q-1.09375 -0.703125 -1.609375 -1.90625l0 8.8125l-4.09375 0l0 -19.78125l4.09375 0l0 2.421875q0.515625 -1.203125 1.609375 -1.890625q1.109375 -0.703125 2.640625 -0.703125zm-1.3125 3.609375q-1.296875 0 -2.125 0.875q-0.828125 0.875 -0.828125 2.375q0 1.5 0.828125 2.390625q0.828125 0.875 2.125 0.875q1.3125 0 2.109375 -0.859375q0.8125 -0.859375 0.8125 -2.40625q0 -1.53125 -0.8125 -2.390625q-0.796875 -0.859375 -2.109375 -0.859375zm13.334442 -0.921875q0.765625 -1.21875 1.984375 -1.9375q1.21875 -0.71875 2.625 -0.71875l0 4.390625l-1.171875 0q-1.640625 0 -2.546875 0.703125q-0.890625 0.6875 -0.890625 2.34375l0 6.09375l-4.09375 0l0 -13.390625l4.09375 0l0 2.515625zm12.611847 -2.6875q1.984375 0 3.546875 0.828125q1.578125 0.828125 2.46875 2.390625q0.90625 1.5625 0.90625 3.640625q0 2.09375 -0.90625 3.65625q-0.890625 1.5625 -2.46875 2.390625q-1.5625 0.828125 -3.546875 0.828125q-2.0 0 -3.59375 -0.828125q-1.578125 -0.828125 -2.484375 -2.390625q-0.890625 -1.5625 -0.890625 -3.65625q0 -2.078125 0.890625 -3.640625q0.90625 -1.5625 2.484375 -2.390625q1.59375 -0.828125 3.59375 -0.828125zm0 3.546875q-1.1875 0 -2.0 0.859375q-0.796875 0.859375 -0.796875 2.453125q0 1.609375 0.796875 2.453125q0.8125 0.84375 2.0 0.84375q1.171875 0 1.953125 -0.84375q0.796875 -0.84375 0.796875 -2.453125q0 -1.59375 -0.796875 -2.453125q-0.78125 -0.859375 -1.953125 -0.859375zm11.148468 -5.015625q-1.09375 0 -1.765625 -0.609375q-0.671875 -0.609375 -0.671875 -1.515625q0 -0.9375 0.671875 -1.546875q0.671875 -0.609375 1.765625 -0.609375q1.109375 0 1.78125 0.609375q0.671875 0.609375 0.671875 1.546875q0 0.90625 -0.671875 1.515625q-0.671875 0.609375 -1.78125 0.609375zm-4.265625 17.890625l1.0 0q0.65625 0 0.9375 -0.28125q0.296875 -0.28125 0.296875 -0.921875l0 -15.046875l4.125 0l0 15.0q0 4.78125 -4.796875 4.78125l-1.5625 0l0 -3.53125zm21.86621 -9.921875q0 0.515625 -0.125 1.109375l-9.28125 0q0.0625 1.515625 0.75 2.171875q0.703125 0.65625 1.78125 0.65625q0.921875 0 1.515625 -0.453125q0.609375 -0.453125 0.796875 -1.171875l4.34375 0q-0.265625 1.40625 -1.15625 2.53125q-0.890625 1.109375 -2.265625 1.75q-1.359375 0.640625 -3.03125 0.640625q-1.96875 0 -3.5 -0.828125q-1.515625 -0.828125 -2.390625 -2.390625q-0.859375 -1.5625 -0.859375 -3.65625q0 -2.109375 0.84375 -3.65625q0.859375 -1.546875 2.390625 -2.375q1.546875 -0.828125 3.515625 -0.828125q1.984375 0 3.5 0.828125q1.515625 0.8125 2.34375 2.296875q0.828125 1.46875 0.828125 3.375zm-4.15625 -0.625q0.03125 -1.3125 -0.703125 -1.96875q-0.734375 -0.65625 -1.8125 -0.65625q-1.125 0 -1.875 0.671875q-0.75 0.671875 -0.84375 1.953125l5.234375 0zm12.340332 -5.875q2.59375 0 4.34375 1.4375q1.75 1.421875 2.203125 3.921875l-4.34375 0q-0.1875 -0.875 -0.796875 -1.34375q-0.59375 -0.484375 -1.5 -0.484375q-1.09375 0 -1.796875 0.859375q-0.6875 0.84375 -0.6875 2.46875q0 1.640625 0.6875 2.5q0.703125 0.84375 1.796875 0.84375q0.90625 0 1.5 -0.46875q0.609375 -0.484375 0.796875 -1.359375l4.34375 0q-0.453125 2.5 -2.203125 3.9375q-1.75 1.421875 -4.34375 1.421875q-1.96875 0 -3.5 -0.828125q-1.515625 -0.828125 -2.390625 -2.390625q-0.859375 -1.5625 -0.859375 -3.65625q0 -2.109375 0.84375 -3.65625q0.859375 -1.546875 2.390625 -2.375q1.546875 -0.828125 3.515625 -0.828125zm16.267212 10.03125l0 3.53125l-1.84375 0q-2.359375 0 -3.671875 -1.15625q-1.296875 -1.171875 -1.296875 -3.859375l0 -4.921875l-1.796875 0l0 -3.453125l1.796875 0l0 -3.296875l4.09375 0l0 3.296875l2.6875 0l0 3.453125l-2.6875 0l0 5.0q0 0.78125 0.328125 1.09375q0.328125 0.3125 1.09375 0.3125l1.296875 0zm26.687958 -9.859375l-3.4375 13.390625l-4.578125 0l-2.421875 -8.96875l-2.453125 8.96875l-4.578125 0l-3.4375 -13.390625l4.109375 0l1.765625 9.640625l2.5 -9.640625l4.375 0l2.5625 9.671875l1.78125 -9.671875l3.8125 0zm1.1032104 -3.765625q0 -0.9375 0.671875 -1.546875q0.671875 -0.609375 1.78125 -0.609375q1.09375 0 1.765625 0.609375q0.671875 0.609375 0.671875 1.546875q0 0.90625 -0.671875 1.515625q-0.671875 0.609375 -1.765625 0.609375q-1.109375 0 -1.78125 -0.609375q-0.671875 -0.609375 -0.671875 -1.515625zm4.484375 3.765625l0 13.390625l-4.09375 0l0 -13.390625l4.09375 0zm10.420349 9.859375l0 3.53125l-1.84375 0q-2.359375 0 -3.671875 -1.15625q-1.296875 -1.171875 -1.296875 -3.859375l0 -4.921875l-1.796875 0l0 -3.453125l1.796875 0l0 -3.296875l4.09375 0l0 3.296875l2.6875 0l0 3.453125l-2.6875 0l0 5.0q0 0.78125 0.328125 1.09375q0.328125 0.3125 1.09375 0.3125l1.296875 0zm10.79422 -10.0q2.3125 0 3.65625 1.53125q1.359375 1.53125 1.359375 4.21875l0 7.78125l-4.09375 0l0 -7.296875q0 -1.34375 -0.71875 -2.09375q-0.703125 -0.765625 -1.875 -0.765625q-1.25 0 -1.984375 0.796875q-0.734375 0.796875 -0.734375 2.25l0 7.109375l-4.09375 0l0 -17.765625l4.09375 0l0 6.828125q0.578125 -1.203125 1.71875 -1.890625q1.140625 -0.703125 2.671875 -0.703125zm16.633331 -4.234375l0 17.765625l-4.09375 0l0 -17.765625l4.09375 0zm9.107849 4.203125q1.984375 0 3.546875 0.828125q1.578125 0.828125 2.46875 2.390625q0.90625 1.5625 0.90625 3.640625q0 2.09375 -0.90625 3.65625q-0.890625 1.5625 -2.46875 2.390625q-1.5625 0.828125 -3.546875 0.828125q-2.0 0 -3.59375 -0.828125q-1.578125 -0.828125 -2.484375 -2.390625q-0.890625 -1.5625 -0.890625 -3.65625q0 -2.078125 0.890625 -3.640625q0.90625 -1.5625 2.484375 -2.390625q1.59375 -0.828125 3.59375 -0.828125zm0 3.546875q-1.1875 0 -2.0 0.859375q-0.796875 0.859375 -0.796875 2.453125q0 1.609375 0.796875 2.453125q0.8125 0.84375 2.0 0.84375q1.171875 0 1.953125 -0.84375q0.796875 -0.84375 0.796875 -2.453125q0 -1.59375 -0.796875 -2.453125q-0.78125 -0.859375 -1.953125 -0.859375zm16.648438 6.484375l0 3.53125l-1.84375 0q-2.359375 0 -3.671875 -1.15625q-1.296875 -1.171875 -1.296875 -3.859375l0 -4.921875l-1.796875 0l0 -3.453125l1.796875 0l0 -3.296875l4.09375 0l0 3.296875l2.6875 0l0 3.453125l-2.6875 0l0 5.0q0 0.78125 0.328125 1.09375q0.328125 0.3125 1.09375 0.3125l1.296875 0zm7.16922 -10.03125q2.546875 0 4.0625 1.28125q1.53125 1.265625 1.921875 3.359375l-3.84375 0q-0.171875 -0.828125 -0.765625 -1.296875q-0.578125 -0.46875 -1.46875 -0.46875q-0.6875 0 -1.046875 0.3125q-0.359375 0.296875 -0.359375 0.84375q0 0.625 0.65625 0.9375q0.65625 0.3125 2.078125 0.625q1.53125 0.359375 2.515625 0.734375q0.984375 0.375 1.703125 1.21875q0.71875 0.828125 0.71875 2.25q0 1.15625 -0.625 2.046875q-0.625 0.875 -1.796875 1.390625q-1.171875 0.5 -2.78125 0.5q-2.71875 0 -4.359375 -1.203125q-1.625 -1.203125 -1.984375 -3.4375l3.96875 0q0.09375 0.875 0.71875 1.328125q0.640625 0.453125 1.65625 0.453125q0.6875 0 1.046875 -0.328125q0.359375 -0.328125 0.359375 -0.84375q0 -0.703125 -0.65625 -1.0q-0.65625 -0.296875 -2.140625 -0.640625q-1.484375 -0.3125 -2.453125 -0.671875q-0.953125 -0.359375 -1.65625 -1.15625q-0.6875 -0.8125 -0.6875 -2.203125q0 -1.796875 1.359375 -2.90625q1.375 -1.125 3.859375 -1.125zm19.526215 0q1.984375 0 3.546875 0.828125q1.578125 0.828125 2.46875 2.390625q0.90625 1.5625 0.90625 3.640625q0 2.09375 -0.90625 3.65625q-0.890625 1.5625 -2.46875 2.390625q-1.5625 0.828125 -3.546875 0.828125q-2.0 0 -3.59375 -0.828125q-1.578125 -0.828125 -2.484375 -2.390625q-0.890625 -1.5625 -0.890625 -3.65625q0 -2.078125 0.890625 -3.640625q0.90625 -1.5625 2.484375 -2.390625q1.59375 -0.828125 3.59375 -0.828125zm0 3.546875q-1.1875 0 -2.0 0.859375q-0.796875 0.859375 -0.796875 2.453125q0 1.609375 0.796875 2.453125q0.8125 0.84375 2.0 0.84375q1.171875 0 1.953125 -0.84375q0.796875 -0.84375 0.796875 -2.453125q0 -1.59375 -0.796875 -2.453125q-0.78125 -0.859375 -1.953125 -0.859375zm15.6328125 -5.203125q-1.0 0 -1.453125 0.4375q-0.453125 0.421875 -0.5 1.390625l2.421875 0l0 3.453125l-2.421875 0l0 9.9375l-4.109375 0l0 -9.9375l-1.609375 0l0 -3.453125l1.609375 0l0 -0.140625q0 -2.5 1.453125 -3.859375q1.453125 -1.359375 4.203125 -1.359375q0.578125 0 0.875 0.03125l0 3.53125l-0.46875 -0.03125zm12.444489 1.703125q2.6875 0 3.984375 2.0625l0 -1.9375l4.078125 0l0 19.78125l-4.078125 0l0 -8.546875q-1.390625 2.296875 -3.984375 2.296875q-1.6875305 0 -3.0625305 -0.84375q-1.375 -0.859375 -2.203125 -2.390625q-0.8125 -1.53125 -0.8125 -3.53125q0 -1.984375 0.8125 -3.5625q0.828125 -1.578125 2.21875 -2.453125q1.390625 -0.875 3.0469055 -0.875zm1.03125 3.578125q-1.203125 0 -2.0781555 0.859375q-0.859375 0.84375 -0.859375 2.453125q0 1.578125 0.84375 2.390625q0.8594055 0.796875 2.0937805 0.796875q1.203125 0 2.078125 -0.84375q0.875 -0.859375 0.875 -2.421875q0 -1.546875 -0.875 -2.390625q-0.875 -0.84375 -2.078125 -0.84375zm23.178223 -3.453125l0 13.390625l-4.125 0l0 -2.421875q-0.578125 1.171875 -1.71875 1.875q-1.140625 0.6875 -2.65625 0.6875q-2.296875 0 -3.65625 -1.53125q-1.359375 -1.53125 -1.359375 -4.21875l0 -7.78125l4.078125 0l0 7.265625q0 1.375 0.703125 2.140625q0.71875 0.75 1.921875 0.75q1.25 0 1.96875 -0.796875q0.71875 -0.796875 0.71875 -2.25l0 -7.109375l4.125 0zm7.9175415 -0.171875q1.546875 0 2.640625 0.703125q1.109375 0.6875 1.640625 1.890625l0 -2.421875l4.078125 0l0 13.390625l-4.078125 0l0 -2.421875q-0.53125 1.203125 -1.640625 1.90625q-1.09375 0.6875 -2.640625 0.6875q-1.65625 0 -2.96875 -0.828125q-1.296875 -0.828125 -2.0625 -2.390625q-0.75 -1.5625 -0.75 -3.65625q0 -2.109375 0.75 -3.65625q0.765625 -1.546875 2.0625 -2.375q1.3125 -0.828125 2.96875 -0.828125zm1.328125 3.609375q-1.328125 0 -2.140625 0.859375q-0.796875 0.859375 -0.796875 2.390625q0 1.546875 0.796875 2.40625q0.8125 0.859375 2.140625 0.859375q1.296875 0 2.125 -0.875q0.828125 -0.890625 0.828125 -2.390625q0 -1.5 -0.828125 -2.375q-0.828125 -0.875 -2.125 -0.875zm13.959473 -7.8125l0 17.765625l-4.09375 0l0 -17.765625l4.09375 0zm2.4515991 0.609375q0 -0.9375 0.671875 -1.546875q0.671875 -0.609375 1.78125 -0.609375q1.09375 0 1.765625 0.609375q0.671875 0.609375 0.671875 1.546875q0 0.90625 -0.671875 1.515625q-0.671875 0.609375 -1.765625 0.609375q-1.109375 0 -1.78125 -0.609375q-0.671875 -0.609375 -0.671875 -1.515625zm4.484375 3.765625l0 13.390625l-4.09375 0l0 -13.390625l4.09375 0zm10.420349 9.859375l0 3.53125l-1.84375 0q-2.359375 0 -3.671875 -1.15625q-1.296875 -1.171875 -1.296875 -3.859375l0 -4.921875l-1.796875 0l0 -3.453125l1.796875 0l0 -3.296875l4.09375 0l0 3.296875l2.6875 0l0 3.453125l-2.6875 0l0 5.0q0 0.78125 0.328125 1.09375q0.328125 0.3125 1.09375 0.3125l1.296875 0zm5.4035645 -9.859375l3.21875 8.203125l3.0 -8.203125l4.531311 0l-8.359436 19.78125l-4.5 0l3.140625 -6.890625l-5.625 -12.890625l4.59375 0z" fill-rule="nonzero"/><path fill="#fd7a9e" d="m150.21646 125.703224q1.546875 0 2.640625 0.703125q1.109375 0.6875 1.609375 1.8906326l0 -6.7968826l4.109375 0l0 17.765633l-4.109375 0l0 -2.421875q-0.5 1.203125 -1.609375 1.90625q-1.09375 0.6875 -2.640625 0.6875q-1.65625 0 -2.96875 -0.828125q-1.296875 -0.828125 -2.0625 -2.390625q-0.75 -1.5625 -0.75 -3.65625q0 -2.109375 0.75 -3.65625q0.765625 -1.5468826 2.0625 -2.3750076q1.3125 -0.828125 2.96875 -0.828125zm1.328125 3.6093826q-1.328125 0 -2.140625 0.859375q-0.796875 0.859375 -0.796875 2.390625q0 1.546875 0.796875 2.40625q0.8125 0.859375 2.140625 0.859375q1.296875 0 2.125 -0.875q0.828125 -0.890625 0.828125 -2.390625q0 -1.5 -0.828125 -2.375q-0.828125 -0.875 -2.125 -0.875zm16.131332 -3.6093826q1.984375 0 3.546875 0.828125q1.578125 0.828125 2.46875 2.3906326q0.90625 1.5625 0.90625 3.640625q0 2.09375 -0.90625 3.65625q-0.890625 1.5625 -2.46875 2.390625q-1.5625 0.828125 -3.546875 0.828125q-2.0 0 -3.59375 -0.828125q-1.578125 -0.828125 -2.484375 -2.390625q-0.890625 -1.5625 -0.890625 -3.65625q0 -2.078125 0.890625 -3.640625q0.90625 -1.5625076 2.484375 -2.3906326q1.59375 -0.828125 3.59375 -0.828125zm0 3.5468826q-1.1875 0 -2.0 0.859375q-0.796875 0.859375 -0.796875 2.453125q0 1.609375 0.796875 2.453125q0.8125 0.84375 2.0 0.84375q1.171875 0 1.953125 -0.84375q0.796875 -0.84375 0.796875 -2.453125q0 -1.59375 -0.796875 -2.453125q-0.78125 -0.859375 -1.953125 -0.859375zm15.117203 -3.5468826q2.59375 0 4.34375 1.4375q1.75 1.4218826 2.203125 3.9218826l-4.34375 0q-0.1875 -0.875 -0.796875 -1.34375q-0.59375 -0.484375 -1.5 -0.484375q-1.09375 0 -1.796875 0.859375q-0.6875 0.84375 -0.6875 2.46875q0 1.640625 0.6875 2.5q0.703125 0.84375 1.796875 0.84375q0.90625 0 1.5 -0.46875q0.609375 -0.484375 0.796875 -1.359375l4.34375 0q-0.453125 2.5 -2.203125 3.9375q-1.75 1.421875 -4.34375 1.421875q-1.96875 0 -3.5 -0.828125q-1.515625 -0.828125 -2.390625 -2.390625q-0.859375 -1.5625 -0.859375 -3.65625q0 -2.109375 0.84375 -3.65625q0.859375 -1.5468826 2.390625 -2.3750076q1.546875 -0.828125 3.515625 -0.828125zm22.001587 0.171875l0 13.390633l-4.125 0l0 -2.421875q-0.578125 1.171875 -1.71875 1.875q-1.140625 0.6875 -2.65625 0.6875q-2.296875 0 -3.65625 -1.53125q-1.359375 -1.53125 -1.359375 -4.21875l0 -7.7812576l4.078125 0l0 7.2656326q0 1.375 0.703125 2.140625q0.71875 0.75 1.921875 0.75q1.25 0 1.96875 -0.796875q0.71875 -0.796875 0.71875 -2.25l0 -7.1093826l4.125 0zm20.183197 -0.140625q2.46875 0 3.890625 1.53125q1.421875 1.5156326 1.421875 4.2187576l0 7.78125l-4.09375 0l0 -7.296875q0 -1.265625 -0.6875 -1.96875q-0.671875 -0.71875 -1.84375 -0.71875q-1.234375 0 -1.9375 0.765625q-0.703125 0.75 -0.703125 2.109375l0 7.109375l-4.109375 0l0 -7.296875q0 -1.265625 -0.671875 -1.96875q-0.671875 -0.71875 -1.84375 -0.71875q-1.234375 0 -1.953125 0.75q-0.71875 0.734375 -0.71875 2.125l0 7.109375l-4.09375 0l0 -13.390633l4.09375 0l0 2.2812576q0.53125 -1.1250076 1.625 -1.7656326q1.09375 -0.65625 2.5625 -0.65625q1.53125 0 2.703125 0.703125q1.171875 0.703125 1.78125 2.0312576q0.6875 -1.2500076 1.890625 -1.9843826q1.21875 -0.75 2.6875 -0.75zm20.766922 6.4687576q0 0.515625 -0.125 1.109375l-9.28125 0q0.0625 1.515625 0.75 2.171875q0.703125 0.65625 1.78125 0.65625q0.921875 0 1.515625 -0.453125q0.609375 -0.453125 0.796875 -1.171875l4.34375 0q-0.265625 1.40625 -1.15625 2.53125q-0.890625 1.109375 -2.265625 1.75q-1.359375 0.640625 -3.03125 0.640625q-1.96875 0 -3.5 -0.828125q-1.515625 -0.828125 -2.390625 -2.390625q-0.859375 -1.5625 -0.859375 -3.65625q0 -2.109375 0.84375 -3.65625q0.859375 -1.5468826 2.390625 -2.3750076q1.546875 -0.828125 3.515625 -0.828125q1.984375 0 3.5 0.828125q1.515625 0.8125 2.34375 2.2968826q0.828125 1.46875 0.828125 3.375zm-4.15625 -0.625q0.03125 -1.3125 -0.703125 -1.96875q-0.734375 -0.65625 -1.8125 -0.65625q-1.125 0 -1.875 0.671875q-0.75 0.671875 -0.84375 1.953125l5.234375 0zm14.777847 -5.8437576q2.3125 0 3.65625 1.53125q1.359375 1.5312576 1.359375 4.2187576l0 7.78125l-4.09375 0l0 -7.296875q0 -1.34375 -0.71875 -2.09375q-0.70314026 -0.765625 -1.8750153 -0.765625q-1.25 0 -1.984375 0.796875q-0.734375 0.796875 -0.734375 2.25l0 7.109375l-4.09375 0l0 -13.390633l4.09375 0l0 2.4531326q0.578125 -1.2031326 1.71875 -1.8906326q1.140625 -0.703125 2.6718903 -0.703125zm15.317688 10.000008l0 3.53125l-1.84375 0q-2.359375 0 -3.671875 -1.15625q-1.296875 -1.171875 -1.296875 -3.859375l0 -4.921875l-1.796875 0l0 -3.4531326l1.796875 0l0 -3.296875l4.09375 0l0 3.296875l2.6875 0l0 3.4531326l-2.6875 0l0 5.0q0 0.78125 0.328125 1.09375q0.328125 0.3125 1.09375 0.3125l1.296875 0zm7.38797 -10.031258q1.546875 0 2.640625 0.703125q1.109375 0.6875 1.640625 1.8906326l0 -2.4218826l4.078125 0l0 13.390633l-4.078125 0l0 -2.421875q-0.53125 1.203125 -1.640625 1.90625q-1.09375 0.6875 -2.640625 0.6875q-1.65625 0 -2.96875 -0.828125q-1.296875 -0.828125 -2.0625 -2.390625q-0.75 -1.5625 -0.75 -3.65625q0 -2.109375 0.75 -3.65625q0.765625 -1.5468826 2.0625 -2.3750076q1.3125 -0.828125 2.96875 -0.828125zm1.328125 3.6093826q-1.328125 0 -2.140625 0.859375q-0.796875 0.859375 -0.796875 2.390625q0 1.546875 0.796875 2.40625q0.8125 0.859375 2.140625 0.859375q1.296875 0 2.125 -0.875q0.828125 -0.890625 0.828125 -2.390625q0 -1.5 -0.828125 -2.375q-0.828125 -0.875 -2.125 -0.875zm17.443848 6.421875l0 3.53125l-1.84375 0q-2.359375 0 -3.671875 -1.15625q-1.296875 -1.171875 -1.296875 -3.859375l0 -4.921875l-1.796875 0l0 -3.4531326l1.796875 0l0 -3.296875l4.09375 0l0 3.296875l2.6875 0l0 3.4531326l-2.6875 0l0 5.0q0 0.78125 0.328125 1.09375q0.328125 0.3125 1.09375 0.3125l1.296875 0zm1.91922 -13.625008q0 -0.9375 0.671875 -1.546875q0.671875 -0.609375 1.78125 -0.609375q1.09375 0 1.765625 0.609375q0.671875 0.609375 0.671875 1.546875q0 0.90625 -0.671875 1.515625q-0.671875 0.609375 -1.765625 0.609375q-1.109375 0 -1.78125 -0.609375q-0.671875 -0.609375 -0.671875 -1.515625zm4.484375 3.765625l0 13.390633l-4.09375 0l0 -13.390633l4.09375 0zm9.107849 -0.171875q1.984375 0 3.546875 0.828125q1.578125 0.828125 2.46875 2.3906326q0.90625 1.5625 0.90625 3.640625q0 2.09375 -0.90625 3.65625q-0.890625 1.5625 -2.46875 2.390625q-1.5625 0.828125 -3.546875 0.828125q-2.0 0 -3.59375 -0.828125q-1.578125 -0.828125 -2.484375 -2.390625q-0.890625 -1.5625 -0.890625 -3.65625q0 -2.078125 0.890625 -3.640625q0.90625 -1.5625076 2.484375 -2.3906326q1.59375 -0.828125 3.59375 -0.828125zm0 3.5468826q-1.1875 0 -2.0 0.859375q-0.796875 0.859375 -0.796875 2.453125q0 1.609375 0.796875 2.453125q0.8125 0.84375 2.0 0.84375q1.171875 0 1.953125 -0.84375q0.796875 -0.84375 0.796875 -2.453125q0 -1.59375 -0.796875 -2.453125q-0.78125 -0.859375 -1.953125 -0.859375zm17.554688 -3.5156326q2.3125 0 3.65625 1.53125q1.359375 1.5312576 1.359375 4.2187576l0 7.78125l-4.09375 0l0 -7.296875q0 -1.34375 -0.71875 -2.09375q-0.703125 -0.765625 -1.875 -0.765625q-1.25 0 -1.984375 0.796875q-0.734375 0.796875 -0.734375 2.25l0 7.109375l-4.09375 0l0 -13.390633l4.09375 0l0 2.4531326q0.578125 -1.2031326 1.71875 -1.8906326q1.140625 -0.703125 2.671875 -0.703125zm10.380188 10.984383q0.71875 1.390625 0.71875 3.03125q0 1.65625 -0.875 2.734375q-0.875 1.078125 -2.734375 1.078125l0 -1.515625q0.65625 0 0.953125 -0.296875q0.296875 -0.28125 0.296875 -1.09375l0 -0.234375l-1.75 0l0 -3.703125l3.390625 0z" fill-rule="nonzero"/><path fill="#fd775e" d="m354.21585 125.703224q1.546875 0 2.640625 0.703125q1.109375 0.6875 1.640625 1.8906326l0 -2.4218826l4.078125 0l0 13.390633l-4.078125 0l0 -2.421875q-0.53125 1.203125 -1.640625 1.90625q-1.09375 0.6875 -2.640625 0.6875q-1.65625 0 -2.96875 -0.828125q-1.296875 -0.828125 -2.0625 -2.390625q-0.75 -1.5625 -0.75 -3.65625q0 -2.109375 0.75 -3.65625q0.765625 -1.5468826 2.0625 -2.3750076q1.3125 -0.828125 2.96875 -0.828125zm1.328125 3.6093826q-1.328125 0 -2.140625 0.859375q-0.796875 0.859375 -0.796875 2.390625q0 1.546875 0.796875 2.40625q0.8125 0.859375 2.140625 0.859375q1.296875 0 2.125 -0.875q0.828125 -0.890625 0.828125 -2.390625q0 -1.5 -0.828125 -2.375q-0.828125 -0.875 -2.125 -0.875zm18.350098 -3.5781326q2.3125 0 3.65625 1.53125q1.359375 1.5312576 1.359375 4.2187576l0 7.78125l-4.09375 0l0 -7.296875q0 -1.34375 -0.71875 -2.09375q-0.703125 -0.765625 -1.875 -0.765625q-1.25 0 -1.984375 0.796875q-0.734375 0.796875 -0.734375 2.25l0 7.109375l-4.09375 0l0 -13.390633l4.09375 0l0 2.4531326q0.578125 -1.2031326 1.71875 -1.8906326q1.140625 -0.703125 2.671875 -0.703125zm12.817688 -0.03125q1.546875 0 2.640625 0.703125q1.109375 0.6875 1.609375 1.8906326l0 -6.7968826l4.109375 0l0 17.765633l-4.109375 0l0 -2.421875q-0.5 1.203125 -1.609375 1.90625q-1.09375 0.6875 -2.640625 0.6875q-1.65625 0 -2.96875 -0.828125q-1.296875 -0.828125 -2.0625 -2.390625q-0.75 -1.5625 -0.75 -3.65625q0 -2.109375 0.75 -3.65625q0.765625 -1.5468826 2.0625 -2.3750076q1.3125 -0.828125 2.96875 -0.828125zm1.328125 3.6093826q-1.328125 0 -2.140625 0.859375q-0.796875 0.859375 -0.796875 2.390625q0 1.546875 0.796875 2.40625q0.8125 0.859375 2.140625 0.859375q1.296875 0 2.125 -0.875q0.828125 -0.890625 0.828125 -2.390625q0 -1.5 -0.828125 -2.375q-0.828125 -0.875 -2.125 -0.875zm32.00946 -3.5781326q2.46875 0 3.890625 1.53125q1.421875 1.5156326 1.421875 4.2187576l0 7.78125l-4.09375 0l0 -7.296875q0 -1.265625 -0.6875 -1.96875q-0.671875 -0.71875 -1.84375 -0.71875q-1.234375 0 -1.9375 0.765625q-0.703125 0.75 -0.703125 2.109375l0 7.109375l-4.109375 0l0 -7.296875q0 -1.265625 -0.671875 -1.96875q-0.671875 -0.71875 -1.84375 -0.71875q-1.234375 0 -1.953125 0.75q-0.71875 0.734375 -0.71875 2.125l0 7.109375l-4.09375 0l0 -13.390633l4.09375 0l0 2.2812576q0.53125 -1.1250076 1.625 -1.7656326q1.09375 -0.65625 2.5625 -0.65625q1.53125 0 2.703125 0.703125q1.171875 0.703125 1.78125 2.0312576q0.6875 -1.2500076 1.890625 -1.9843826q1.21875 -0.75 2.6875 -0.75zm13.126282 -0.03125q1.546875 0 2.640625 0.703125q1.109375 0.6875 1.640625 1.8906326l0 -2.4218826l4.078125 0l0 13.390633l-4.078125 0l0 -2.421875q-0.53125 1.203125 -1.640625 1.90625q-1.09375 0.6875 -2.640625 0.6875q-1.65625 0 -2.96875 -0.828125q-1.296875 -0.828125 -2.0625 -2.390625q-0.75 -1.5625 -0.75 -3.65625q0 -2.109375 0.75 -3.65625q0.765625 -1.5468826 2.0625 -2.3750076q1.3125 -0.828125 2.96875 -0.828125zm1.328125 3.6093826q-1.328125 0 -2.140625 0.859375q-0.796875 0.859375 -0.796875 2.390625q0 1.546875 0.796875 2.40625q0.8125 0.859375 2.140625 0.859375q1.296875 0 2.125 -0.875q0.828125 -0.890625 0.828125 -2.390625q0 -1.5 -0.828125 -2.375q-0.828125 -0.875 -2.125 -0.875zm17.975098 9.953125l-4.015625 -5.6875l0 5.6875l-4.09375 0l0 -17.765633l4.09375 0l0 9.750008l4.015625 -5.3750076l4.828125 0l-5.40625 6.6875076l5.515625 6.703125l-4.9375 0zm19.15332 -7.0625q0 0.515625 -0.125 1.109375l-9.28125 0q0.0625 1.515625 0.75 2.171875q0.703125 0.65625 1.78125 0.65625q0.921875 0 1.515625 -0.453125q0.609375 -0.453125 0.796875 -1.171875l4.34375 0q-0.265625 1.40625 -1.15625 2.53125q-0.890625 1.109375 -2.265625 1.75q-1.359375 0.640625 -3.03125 0.640625q-1.96875 0 -3.5 -0.828125q-1.515625 -0.828125 -2.390625 -2.390625q-0.859375 -1.5625 -0.859375 -3.65625q0 -2.109375 0.84375 -3.65625q0.859375 -1.5468826 2.390625 -2.3750076q1.546875 -0.828125 3.515625 -0.828125q1.984375 0 3.5 0.828125q1.515625 0.8125 2.34375 2.2968826q0.828125 1.46875 0.828125 3.375zm-4.15625 -0.625q0.03125 -1.3125 -0.703125 -1.96875q-0.734375 -0.65625 -1.8125 -0.65625q-1.125 0 -1.875 0.671875q-0.75 0.671875 -0.84375 1.953125l5.234375 0zm16.17157 -5.8750076q1.546875 0 2.640625 0.703125q1.109375 0.6875 1.640625 1.8906326l0 -2.4218826l4.078125 0l0 13.390633l-4.078125 0l0 -2.421875q-0.53125 1.203125 -1.640625 1.90625q-1.09375 0.6875 -2.640625 0.6875q-1.65625 0 -2.96875 -0.828125q-1.296875 -0.828125 -2.0625 -2.390625q-0.75 -1.5625 -0.75 -3.65625q0 -2.109375 0.75 -3.65625q0.765625 -1.5468826 2.0625 -2.3750076q1.3125 -0.828125 2.96875 -0.828125zm1.328125 3.6093826q-1.328125 0 -2.140625 0.859375q-0.796875 0.859375 -0.796875 2.390625q0 1.546875 0.796875 2.40625q0.8125 0.859375 2.140625 0.859375q1.296875 0 2.125 -0.875q0.828125 -0.890625 0.828125 -2.390625q0 -1.5 -0.828125 -2.375q-0.828125 -0.875 -2.125 -0.875zm14.725098 -3.6093826q2.546875 0 4.0625 1.28125q1.53125 1.2656326 1.921875 3.3593826l-3.84375 0q-0.171875 -0.828125 -0.765625 -1.296875q-0.578125 -0.46875 -1.46875 -0.46875q-0.6875 0 -1.046875 0.3125q-0.359375 0.296875 -0.359375 0.84375q0 0.625 0.65625 0.9375q0.65625 0.3125 2.078125 0.625q1.53125 0.359375 2.515625 0.734375q0.984375 0.375 1.703125 1.21875q0.71875 0.828125 0.71875 2.25q0 1.15625 -0.625 2.046875q-0.625 0.875 -1.796875 1.390625q-1.171875 0.5 -2.78125 0.5q-2.71875 0 -4.359375 -1.203125q-1.625 -1.203125 -1.984375 -3.4375l3.96875 0q0.09375 0.875 0.71875 1.328125q0.640625 0.453125 1.65625 0.453125q0.6875 0 1.046875 -0.328125q0.359375 -0.328125 0.359375 -0.84375q0 -0.703125 -0.65625 -1.0q-0.65625 -0.296875 -2.140625 -0.640625q-1.484375 -0.3125 -2.453125 -0.671875q-0.953125 -0.359375 -1.65625 -1.15625q-0.6875 -0.8125 -0.6875 -2.203125q0 -1.7968826 1.359375 -2.9062576q1.375 -1.125 3.859375 -1.125zm19.82309 -1.65625q-1.0 0 -1.453125 0.4375q-0.453125 0.421875 -0.5 1.390625l2.421875 0l0 3.4531326l-2.421875 0l0 9.9375l-4.109375 0l0 -9.9375l-1.6094055 0l0 -3.4531326l1.6094055 0l0 -0.140625q0 -2.5 1.453125 -3.859375q1.453125 -1.359375 4.203125 -1.359375q0.578125 0 0.875 0.03125l0 3.53125l-0.46875 -0.03125zm14.98822 8.156258q0 0.515625 -0.125 1.109375l-9.28125 0q0.0625 1.515625 0.75 2.171875q0.703125 0.65625 1.78125 0.65625q0.921875 0 1.515625 -0.453125q0.609375 -0.453125 0.796875 -1.171875l4.34375 0q-0.265625 1.40625 -1.15625 2.53125q-0.890625 1.109375 -2.265625 1.75q-1.359375 0.640625 -3.03125 0.640625q-1.96875 0 -3.5 -0.828125q-1.515625 -0.828125 -2.390625 -2.390625q-0.859375 -1.5625 -0.859375 -3.65625q0 -2.109375 0.84375 -3.65625q0.859375 -1.5468826 2.390625 -2.3750076q1.546875 -0.828125 3.515625 -0.828125q1.984375 0 3.5 0.828125q1.515625 0.8125 2.34375 2.2968826q0.828125 1.46875 0.828125 3.375zm-4.15625 -0.625q0.03125 -1.3125 -0.703125 -1.96875q-0.734375 -0.65625 -1.8125 -0.65625q-1.125 0 -1.875 0.671875q-0.75 0.671875 -0.84375 1.953125l5.234375 0zm25.871582 -5.7031326l-3.4375 13.390633l-4.578125 0l-2.421875 -8.96875l-2.453125 8.96875l-4.578125 0l-3.4375 -13.390633l4.109375 0l1.765625 9.640633l2.5 -9.640633l4.375 0l2.5625 9.671883l1.78125 -9.671883l3.8125 0z" fill-rule="nonzero"/><path fill="#fd775e" d="m115.00858 154.70323q1.546875 0 2.640625 0.703125q1.109375 0.6875 1.609375 1.890625l0 -6.796875l4.109375 0l0 17.765625l-4.109375 0l0 -2.421875q-0.5 1.203125 -1.609375 1.90625q-1.09375 0.6875 -2.640625 0.6875q-1.65625 0 -2.96875 -0.828125q-1.296875 -0.828125 -2.0625 -2.390625q-0.75 -1.5625 -0.75 -3.65625q0 -2.109375 0.75 -3.65625q0.765625 -1.546875 2.0625 -2.375q1.3125 -0.828125 2.96875 -0.828125zm1.328125 3.609375q-1.328125 0 -2.140625 0.859375q-0.796875 0.859375 -0.796875 2.390625q0 1.546875 0.796875 2.40625q0.8125 0.859375 2.140625 0.859375q1.296875 0 2.125 -0.875q0.828125 -0.890625 0.828125 -2.390625q0 -1.5 -0.828125 -2.375q-0.828125 -0.875 -2.125 -0.875zm22.58445 2.890625q0 0.515625 -0.125 1.109375l-9.28125 0q0.0625 1.515625 0.75 2.171875q0.703125 0.65625 1.78125 0.65625q0.921875 0 1.515625 -0.453125q0.609375 -0.453125 0.796875 -1.171875l4.34375 0q-0.265625 1.40625 -1.15625 2.53125q-0.890625 1.109375 -2.265625 1.75q-1.359375 0.640625 -3.03125 0.640625q-1.96875 0 -3.5 -0.828125q-1.5156174 -0.828125 -2.3906174 -2.390625q-0.859375 -1.5625 -0.859375 -3.65625q0 -2.109375 0.84375 -3.65625q0.859375 -1.546875 2.3906174 -2.375q1.546875 -0.828125 3.515625 -0.828125q1.984375 0 3.5 0.828125q1.515625 0.8125 2.34375 2.296875q0.828125 1.46875 0.828125 3.375zm-4.15625 -0.625q0.03125 -1.3125 -0.703125 -1.96875q-0.734375 -0.65625 -1.8125 -0.65625q-1.125 0 -1.875 0.671875q-0.75 0.671875 -0.84375 1.953125l5.234375 0zm12.340332 -5.875q2.59375 0 4.34375 1.4375q1.75 1.421875 2.203125 3.921875l-4.34375 0q-0.1875 -0.875 -0.796875 -1.34375q-0.59375 -0.484375 -1.5 -0.484375q-1.09375 0 -1.796875 0.859375q-0.6875 0.84375 -0.6875 2.46875q0 1.640625 0.6875 2.5q0.703125 0.84375 1.796875 0.84375q0.90625 0 1.5 -0.46875q0.609375 -0.484375 0.796875 -1.359375l4.34375 0q-0.453125 2.5 -2.203125 3.9375q-1.75 1.421875 -4.34375 1.421875q-1.96875 0 -3.5 -0.828125q-1.515625 -0.828125 -2.390625 -2.390625q-0.859375 -1.5625 -0.859375 -3.65625q0 -2.109375 0.84375 -3.65625q0.859375 -1.546875 2.390625 -2.375q1.546875 -0.828125 3.515625 -0.828125zm8.298462 -3.59375q0 -0.9375 0.671875 -1.546875q0.671875 -0.609375 1.78125 -0.609375q1.09375 0 1.765625 0.609375q0.671875 0.609375 0.671875 1.546875q0 0.90625 -0.671875 1.515625q-0.671875 0.609375 -1.765625 0.609375q-1.109375 0 -1.78125 -0.609375q-0.671875 -0.609375 -0.671875 -1.515625zm4.484375 3.765625l0 13.390625l-4.09375 0l0 -13.390625l4.09375 0zm7.701599 -0.171875q2.546875 0 4.0625 1.28125q1.53125 1.265625 1.921875 3.359375l-3.84375 0q-0.171875 -0.828125 -0.765625 -1.296875q-0.578125 -0.46875 -1.46875 -0.46875q-0.6875 0 -1.046875 0.3125q-0.359375 0.296875 -0.359375 0.84375q0 0.625 0.65625 0.9375q0.65625 0.3125 2.078125 0.625q1.53125 0.359375 2.515625 0.734375q0.984375 0.375 1.703125 1.21875q0.71875 0.828125 0.71875 2.25q0 1.15625 -0.625 2.046875q-0.625 0.875 -1.796875 1.390625q-1.171875 0.5 -2.78125 0.5q-2.71875 0 -4.359375 -1.203125q-1.625 -1.203125 -1.984375 -3.4375l3.96875 0q0.09375 0.875 0.71875 1.328125q0.640625 0.453125 1.65625 0.453125q0.6875 0 1.046875 -0.328125q0.359375 -0.328125 0.359375 -0.84375q0 -0.703125 -0.65625 -1.0q-0.65625 -0.296875 -2.140625 -0.640625q-1.484375 -0.3125 -2.453125 -0.671875q-0.953125 -0.359375 -1.65625 -1.15625q-0.6875 -0.8125 -0.6875 -2.203125q0 -1.796875 1.359375 -2.90625q1.375 -1.125 3.859375 -1.125zm8.069962 -3.59375q0 -0.9375 0.671875 -1.546875q0.671875 -0.609375 1.78125 -0.609375q1.09375 0 1.765625 0.609375q0.671875 0.609375 0.671875 1.546875q0 0.90625 -0.671875 1.515625q-0.671875 0.609375 -1.765625 0.609375q-1.109375 0 -1.78125 -0.609375q-0.671875 -0.609375 -0.671875 -1.515625zm4.484375 3.765625l0 13.390625l-4.09375 0l0 -13.390625l4.09375 0zm9.107849 -0.171875q1.984375 0 3.546875 0.828125q1.578125 0.828125 2.46875 2.390625q0.90625 1.5625 0.90625 3.640625q0 2.09375 -0.90625 3.65625q-0.890625 1.5625 -2.46875 2.390625q-1.5625 0.828125 -3.546875 0.828125q-2.0 0 -3.59375 -0.828125q-1.578125 -0.828125 -2.484375 -2.390625q-0.890625 -1.5625 -0.890625 -3.65625q0 -2.078125 0.890625 -3.640625q0.90625 -1.5625 2.484375 -2.390625q1.59375 -0.828125 3.59375 -0.828125zm0 3.546875q-1.1875 0 -2.0 0.859375q-0.796875 0.859375 -0.796875 2.453125q0 1.609375 0.796875 2.453125q0.8125 0.84375 2.0 0.84375q1.171875 0 1.953125 -0.84375q0.796875 -0.84375 0.796875 -2.453125q0 -1.59375 -0.796875 -2.453125q-0.78125 -0.859375 -1.953125 -0.859375zm17.554703 -3.515625q2.3125 0 3.65625 1.53125q1.359375 1.53125 1.359375 4.21875l0 7.78125l-4.09375 0l0 -7.296875q0 -1.34375 -0.71875 -2.09375q-0.703125 -0.765625 -1.875 -0.765625q-1.25 0 -1.984375 0.796875q-0.734375 0.796875 -0.734375 2.25l0 7.109375l-4.09375 0l0 -13.390625l4.09375 0l0 2.453125q0.578125 -1.203125 1.71875 -1.890625q1.140625 -0.703125 2.671875 -0.703125zm12.598953 -0.03125q2.546875 0 4.0625 1.28125q1.53125 1.265625 1.921875 3.359375l-3.84375 0q-0.171875 -0.828125 -0.765625 -1.296875q-0.578125 -0.46875 -1.46875 -0.46875q-0.6875 0 -1.046875 0.3125q-0.359375 0.296875 -0.359375 0.84375q0 0.625 0.65625 0.9375q0.65625 0.3125 2.078125 0.625q1.53125 0.359375 2.515625 0.734375q0.984375 0.375 1.703125 1.21875q0.71875 0.828125 0.71875 2.25q0 1.15625 -0.625 2.046875q-0.625 0.875 -1.796875 1.390625q-1.171875 0.5 -2.78125 0.5q-2.71875 0 -4.359375 -1.203125q-1.625 -1.203125 -1.984375 -3.4375l3.96875 0q0.09375 0.875 0.71875 1.328125q0.640625 0.453125 1.65625 0.453125q0.6875 0 1.046875 -0.328125q0.359375 -0.328125 0.359375 -0.84375q0 -0.703125 -0.65625 -1.0q-0.65625 -0.296875 -2.140625 -0.640625q-1.484375 -0.3125 -2.453125 -0.671875q-0.953125 -0.359375 -1.65625 -1.15625q-0.6875 -0.8125 -0.6875 -2.203125q0 -1.796875 1.359375 -2.90625q1.375 -1.125 3.859375 -1.125zm18.3387 0q1.546875 0 2.640625 0.703125q1.109375 0.6875 1.640625 1.890625l0 -2.421875l4.078125 0l0 13.390625l-4.078125 0l0 -2.421875q-0.53125 1.203125 -1.640625 1.90625q-1.09375 0.6875 -2.640625 0.6875q-1.65625 0 -2.96875 -0.828125q-1.296875 -0.828125 -2.0625 -2.390625q-0.75 -1.5625 -0.75 -3.65625q0 -2.109375 0.75 -3.65625q0.765625 -1.546875 2.0625 -2.375q1.3125 -0.828125 2.96875 -0.828125zm1.328125 3.609375q-1.328125 0 -2.140625 0.859375q-0.796875 0.859375 -0.796875 2.390625q0 1.546875 0.796875 2.40625q0.8125 0.859375 2.140625 0.859375q1.296875 0 2.125 -0.875q0.828125 -0.890625 0.828125 -2.390625q0 -1.5 -0.828125 -2.375q-0.828125 -0.875 -2.125 -0.875zm14.725082 -3.609375q2.546875 0 4.0625 1.28125q1.53125 1.265625 1.921875 3.359375l-3.84375 0q-0.171875 -0.828125 -0.765625 -1.296875q-0.578125 -0.46875 -1.46875 -0.46875q-0.6875 0 -1.046875 0.3125q-0.359375 0.296875 -0.359375 0.84375q0 0.625 0.65625 0.9375q0.65625 0.3125 2.078125 0.625q1.53125 0.359375 2.515625 0.734375q0.984375 0.375 1.703125 1.21875q0.71875 0.828125 0.71875 2.25q0 1.15625 -0.625 2.046875q-0.625 0.875 -1.796875 1.390625q-1.171875 0.5 -2.78125 0.5q-2.71875 0 -4.359375 -1.203125q-1.625 -1.203125 -1.984375 -3.4375l3.96875 0q0.09375 0.875 0.71875 1.328125q0.640625 0.453125 1.65625 0.453125q0.6875 0 1.046875 -0.328125q0.359375 -0.328125 0.359375 -0.84375q0 -0.703125 -0.65625 -1.0q-0.65625 -0.296875 -2.140625 -0.640625q-1.484375 -0.3125 -2.453125 -0.671875q-0.953125 -0.359375 -1.65625 -1.15625q-0.6875 -0.8125 -0.6875 -2.203125q0 -1.796875 1.359375 -2.90625q1.375 -1.125 3.859375 -1.125zm21.60434 0q1.65625 0 2.96875 0.828125q1.3125 0.828125 2.0625 2.375q0.75 1.546875 0.75 3.65625q0 2.09375 -0.75 3.65625q-0.75 1.5625 -2.0625 2.390625q-1.3125 0.828125 -2.96875 0.828125q-1.53125 0 -2.640625 -0.6875q-1.09375 -0.703125 -1.609375 -1.90625l0 8.8125l-4.09375 0l0 -19.78125l4.09375 0l0 2.421875q0.515625 -1.203125 1.609375 -1.890625q1.109375 -0.703125 2.640625 -0.703125zm-1.3125 3.609375q-1.296875 0 -2.125 0.875q-0.828125 0.875 -0.828125 2.375q0 1.5 0.828125 2.390625q0.828125 0.875 2.125 0.875q1.3125 0 2.109375 -0.859375q0.8125 -0.859375 0.8125 -2.40625q0 -1.53125 -0.8125 -2.390625q-0.796875 -0.859375 -2.109375 -0.859375zm15.506317 -3.609375q1.984375 0 3.546875 0.828125q1.578125 0.828125 2.46875 2.390625q0.90625 1.5625 0.90625 3.640625q0 2.09375 -0.90625 3.65625q-0.890625 1.5625 -2.46875 2.390625q-1.5625 0.828125 -3.546875 0.828125q-2.0 0 -3.59375 -0.828125q-1.578125 -0.828125 -2.484375 -2.390625q-0.890625 -1.5625 -0.890625 -3.65625q0 -2.078125 0.890625 -3.640625q0.90625 -1.5625 2.484375 -2.390625q1.59375 -0.828125 3.59375 -0.828125zm0 3.546875q-1.1875 0 -2.0 0.859375q-0.796875 0.859375 -0.796875 2.453125q0 1.609375 0.796875 2.453125q0.8125 0.84375 2.0 0.84375q1.171875 0 1.953125 -0.84375q0.796875 -0.84375 0.796875 -2.453125q0 -1.59375 -0.796875 -2.453125q-0.78125 -0.859375 -1.953125 -0.859375zm13.929718 -3.546875q2.546875 0 4.0625 1.28125q1.53125 1.265625 1.921875 3.359375l-3.84375 0q-0.171875 -0.828125 -0.765625 -1.296875q-0.578125 -0.46875 -1.46875 -0.46875q-0.6875 0 -1.046875 0.3125q-0.359375 0.296875 -0.359375 0.84375q0 0.625 0.65625 0.9375q0.65625 0.3125 2.078125 0.625q1.53125 0.359375 2.515625 0.734375q0.984375 0.375 1.703125 1.21875q0.71875 0.828125 0.71875 2.25q0 1.15625 -0.625 2.046875q-0.625 0.875 -1.796875 1.390625q-1.171875 0.5 -2.78125 0.5q-2.71875 0 -4.359375 -1.203125q-1.625 -1.203125 -1.984375 -3.4375l3.96875 0q0.09375 0.875 0.71875 1.328125q0.640625 0.453125 1.65625 0.453125q0.6875 0 1.046875 -0.328125q0.359375 -0.328125 0.359375 -0.84375q0 -0.703125 -0.65625 -1.0q-0.65625 -0.296875 -2.140625 -0.640625q-1.484375 -0.3125 -2.453125 -0.671875q-0.953125 -0.359375 -1.65625 -1.15625q-0.6875 -0.8125 -0.6875 -2.203125q0 -1.796875 1.359375 -2.90625q1.375 -1.125 3.859375 -1.125zm13.319946 0q2.546875 0 4.0625 1.28125q1.53125 1.265625 1.921875 3.359375l-3.84375 0q-0.171875 -0.828125 -0.765625 -1.296875q-0.578125 -0.46875 -1.46875 -0.46875q-0.6875 0 -1.046875 0.3125q-0.359375 0.296875 -0.359375 0.84375q0 0.625 0.65625 0.9375q0.65625 0.3125 2.078125 0.625q1.53125 0.359375 2.515625 0.734375q0.984375 0.375 1.703125 1.21875q0.71875 0.828125 0.71875 2.25q0 1.15625 -0.625 2.046875q-0.625 0.875 -1.796875 1.390625q-1.171875 0.5 -2.78125 0.5q-2.71875 0 -4.359375 -1.203125q-1.625 -1.203125 -1.984375 -3.4375l3.96875 0q0.09375 0.875 0.71875 1.328125q0.640625 0.453125 1.65625 0.453125q0.6875 0 1.046875 -0.328125q0.359375 -0.328125 0.359375 -0.84375q0 -0.703125 -0.65625 -1.0q-0.65625 -0.296875 -2.140625 -0.640625q-1.484375 -0.3125 -2.453125 -0.671875q-0.953125 -0.359375 -1.65625 -1.15625q-0.6875 -0.8125 -0.6875 -2.203125q0 -1.796875 1.359375 -2.90625q1.375 -1.125 3.859375 -1.125zm8.069977 -3.59375q0 -0.9375 0.671875 -1.546875q0.671875 -0.609375 1.78125 -0.609375q1.09375 0 1.765625 0.609375q0.671875 0.609375 0.671875 1.546875q0 0.90625 -0.671875 1.515625q-0.671875 0.609375 -1.765625 0.609375q-1.109375 0 -1.78125 -0.609375q-0.671875 -0.609375 -0.671875 -1.515625zm4.484375 3.765625l0 13.390625l-4.09375 0l0 -13.390625l4.09375 0zm11.185944 -0.171875q1.65625 0 2.96875 0.828125q1.3125 0.828125 2.0625 2.375q0.75 1.546875 0.75 3.65625q0 2.09375 -0.75 3.65625q-0.75 1.5625 -2.0625 2.390625q-1.3125 0.828125 -2.96875 0.828125q-1.53125 0 -2.640625 -0.6875q-1.09375 -0.703125 -1.609375 -1.90625l0 2.421875l-4.0937195 0l0 -17.765625l4.0937195 0l0 6.796875q0.515625 -1.203125 1.609375 -1.890625q1.109375 -0.703125 2.640625 -0.703125zm-1.3125 3.609375q-1.296875 0 -2.125 0.875q-0.828125 0.875 -0.828125 2.375q0 1.5 0.828125 2.390625q0.828125 0.875 2.125 0.875q1.3125 0 2.109375 -0.859375q0.8125 -0.859375 0.8125 -2.40625q0 -1.53125 -0.8125 -2.390625q-0.796875 -0.859375 -2.109375 -0.859375zm13.334473 -7.8125l0 17.765625l-4.09375 0l0 -17.765625l4.09375 0zm15.560974 10.703125q0 0.515625 -0.125 1.109375l-9.28125 0q0.0625 1.515625 0.75 2.171875q0.703125 0.65625 1.78125 0.65625q0.921875 0 1.515625 -0.453125q0.609375 -0.453125 0.796875 -1.171875l4.34375 0q-0.265625 1.40625 -1.15625 2.53125q-0.890625 1.109375 -2.265625 1.75q-1.359375 0.640625 -3.03125 0.640625q-1.96875 0 -3.5 -0.828125q-1.515625 -0.828125 -2.390625 -2.390625q-0.859375 -1.5625 -0.859375 -3.65625q0 -2.109375 0.84375 -3.65625q0.859375 -1.546875 2.390625 -2.375q1.546875 -0.828125 3.515625 -0.828125q1.984375 0 3.5 0.828125q1.515625 0.8125 2.34375 2.296875q0.828125 1.46875 0.828125 3.375zm-4.15625 -0.625q0.03125 -1.3125 -0.703125 -1.96875q-0.734375 -0.65625 -1.8125 -0.65625q-1.125 0 -1.875 0.671875q-0.75 0.671875 -0.84375 1.953125l5.234375 0zm8.934082 5.140625q0.71875 1.390625 0.71875 3.03125q0 1.65625 -0.875 2.734375q-0.875 1.078125 -2.734375 1.078125l0 -1.515625q0.65625 0 0.953125 -0.296875q0.296875 -0.28125 0.296875 -1.09375l0 -0.234375l-1.75 0l0 -3.703125l3.390625 0zm9.925476 -12.484375q-1.09375 0 -1.765625 -0.609375q-0.671875 -0.609375 -0.671875 -1.515625q0 -0.9375 0.671875 -1.546875q0.671875 -0.609375 1.765625 -0.609375q1.109375 0 1.78125 0.609375q0.671875 0.609375 0.671875 1.546875q0 0.90625 -0.671875 1.515625q-0.671875 0.609375 -1.78125 0.609375zm-4.265625 17.890625l1.0 0q0.65625 0 0.9375 -0.28125q0.296875 -0.28125 0.296875 -0.921875l0 -15.046875l4.125 0l0 15.0q0 4.78125 -4.796875 4.78125l-1.5625 0l0 -3.53125zm22.45996 -16.25l0 13.390625l-4.125 0l0 -2.421875q-0.578125 1.171875 -1.71875 1.875q-1.140625 0.6875 -2.65625 0.6875q-2.296875 0 -3.65625 -1.53125q-1.359375 -1.53125 -1.359375 -4.21875l0 -7.78125l4.078125 0l0 7.265625q0 1.375 0.703125 2.140625q0.71875 0.75 1.921875 0.75q1.25 0 1.96875 -0.796875q0.71875 -0.796875 0.71875 -2.25l0 -7.109375l4.125 0zm7.698822 -0.171875q2.546875 0 4.0625 1.28125q1.53125 1.265625 1.921875 3.359375l-3.84375 0q-0.171875 -0.828125 -0.765625 -1.296875q-0.578125 -0.46875 -1.46875 -0.46875q-0.6875 0 -1.046875 0.3125q-0.359375 0.296875 -0.359375 0.84375q0 0.625 0.65625 0.9375q0.65625 0.3125 2.078125 0.625q1.53125 0.359375 2.515625 0.734375q0.984375 0.375 1.703125 1.21875q0.71875 0.828125 0.71875 2.25q0 1.15625 -0.625 2.046875q-0.625 0.875 -1.796875 1.390625q-1.171875 0.5 -2.78125 0.5q-2.71875 0 -4.359375 -1.203125q-1.625 -1.203125 -1.984375 -3.4375l3.96875 0q0.09375 0.875 0.71875 1.328125q0.640625 0.453125 1.65625 0.453125q0.6875 0 1.046875 -0.328125q0.359375 -0.328125 0.359375 -0.84375q0 -0.703125 -0.65625 -1.0q-0.65625 -0.296875 -2.140625 -0.640625q-1.484375 -0.3125 -2.453125 -0.671875q-0.953125 -0.359375 -1.65625 -1.15625q-0.6875 -0.8125 -0.6875 -2.203125q0 -1.796875 1.359375 -2.90625q1.375 -1.125 3.859375 -1.125zm16.038727 10.03125l0 3.53125l-1.84375 0q-2.359375 0 -3.671875 -1.15625q-1.296875 -1.171875 -1.296875 -3.859375l0 -4.921875l-1.796875 0l0 -3.453125l1.796875 0l0 -3.296875l4.09375 0l0 3.296875l2.6875 0l0 3.453125l-2.6875 0l0 5.0q0 0.78125 0.328125 1.09375q0.328125 0.3125 1.09375 0.3125l1.296875 0zm19.828583 -3.53125q0 0.515625 -0.125 1.109375l-9.28125 0q0.0625 1.515625 0.75 2.171875q0.703125 0.65625 1.78125 0.65625q0.921875 0 1.515625 -0.453125q0.609375 -0.453125 0.796875 -1.171875l4.34375 0q-0.265625 1.40625 -1.15625 2.53125q-0.890625 1.109375 -2.265625 1.75q-1.359375 0.640625 -3.03125 0.640625q-1.96875 0 -3.5 -0.828125q-1.515625 -0.828125 -2.390625 -2.390625q-0.859375 -1.5625 -0.859375 -3.65625q0 -2.109375 0.84375 -3.65625q0.859375 -1.546875 2.390625 -2.375q1.546875 -0.828125 3.515625 -0.828125q1.984375 0 3.5 0.828125q1.515625 0.8125 2.34375 2.296875q0.828125 1.46875 0.828125 3.375zm-4.15625 -0.625q0.03125 -1.3125 -0.703125 -1.96875q-0.734375 -0.65625 -1.8125 -0.65625q-1.125 0 -1.875 0.671875q-0.75 0.671875 -0.84375 1.953125l5.234375 0zm14.777832 -5.84375q2.3125 0 3.65625 1.53125q1.359375 1.53125 1.359375 4.21875l0 7.78125l-4.09375 0l0 -7.296875q0 -1.34375 -0.71875 -2.09375q-0.703125 -0.765625 -1.875 -0.765625q-1.25 0 -1.984375 0.796875q-0.734375 0.796875 -0.734375 2.25l0 7.109375l-4.09375 0l0 -13.390625l4.09375 0l0 2.453125q0.578125 -1.203125 1.71875 -1.890625q1.140625 -0.703125 2.671875 -0.703125zm14.0052185 -0.03125q1.984375 0 3.546875 0.828125q1.578125 0.828125 2.46875 2.390625q0.90625 1.5625 0.90625 3.640625q0 2.09375 -0.90625 3.65625q-0.890625 1.5625 -2.46875 2.390625q-1.5625 0.828125 -3.546875 0.828125q-2.0 0 -3.59375 -0.828125q-1.578125 -0.828125 -2.484375 -2.390625q-0.890625 -1.5625 -0.890625 -3.65625q0 -2.078125 0.890625 -3.640625q0.90625 -1.5625 2.484375 -2.390625q1.59375 -0.828125 3.59375 -0.828125zm0 3.546875q-1.1875 0 -2.0 0.859375q-0.796875 0.859375 -0.796875 2.453125q0 1.609375 0.796875 2.453125q0.8125 0.84375 2.0 0.84375q1.171875 0 1.953125 -0.84375q0.796875 -0.84375 0.796875 -2.453125q0 -1.59375 -0.796875 -2.453125q-0.78125 -0.859375 -1.953125 -0.859375zm22.382812 -3.375l0 13.390625l-4.125 0l0 -2.421875q-0.578125 1.171875 -1.71875 1.875q-1.140625 0.6875 -2.65625 0.6875q-2.296875 0 -3.65625 -1.53125q-1.359375 -1.53125 -1.359375 -4.21875l0 -7.78125l4.078125 0l0 7.265625q0 1.375 0.703125 2.140625q0.71875 0.75 1.921875 0.75q1.25 0 1.96875 -0.796875q0.71875 -0.796875 0.71875 -2.25l0 -7.109375l4.125 0zm7.917572 -0.171875q1.546875 0 2.640625 0.703125q1.109375 0.6875 1.640625 1.890625l0 -2.421875l4.078125 0l0 13.3125q0 1.875 -0.71875 3.375q-0.71875 1.5 -2.21875 2.390625q-1.484375 0.890625 -3.6875 0.890625q-3.03125 0 -4.84375 -1.4375q-1.8125 -1.421875 -2.171875 -3.875l4.0625 0q0.1875 0.828125 0.875 1.28125q0.6875 0.453125 1.78125 0.453125q1.28125 0 2.0625 -0.734375q0.78125 -0.734375 0.78125 -2.34375l0 -2.34375q-0.53125 1.203125 -1.640625 1.90625q-1.09375 0.6875 -2.640625 0.6875q-1.65625 0 -2.96875 -0.828125q-1.296875 -0.828125 -2.0625 -2.390625q-0.75 -1.5625 -0.75 -3.65625q0 -2.109375 0.75 -3.65625q0.765625 -1.546875 2.0625 -2.375q1.3125 -0.828125 2.96875 -0.828125zm1.328125 3.609375q-1.328125 0 -2.140625 0.859375q-0.796875 0.859375 -0.796875 2.390625q0 1.546875 0.796875 2.40625q0.8125 0.859375 2.140625 0.859375q1.296875 0 2.125 -0.875q0.828125 -0.890625 0.828125 -2.390625q0 -1.5 -0.828125 -2.375q-0.828125 -0.875 -2.125 -0.875zm18.350098 -3.578125q2.3125 0 3.65625 1.53125q1.359375 1.53125 1.359375 4.21875l0 7.78125l-4.09375 0l0 -7.296875q0 -1.34375 -0.71875 -2.09375q-0.703125 -0.765625 -1.875 -0.765625q-1.25 0 -1.984375 0.796875q-0.734375 0.796875 -0.734375 2.25l0 7.109375l-4.0937805 0l0 -17.765625l4.0937805 0l0 6.828125q0.578125 -1.203125 1.71875 -1.890625q1.140625 -0.703125 2.671875 -0.703125zm20.117676 10.0l0 3.53125l-1.84375 0q-2.359375 0 -3.671875 -1.15625q-1.296875 -1.171875 -1.296875 -3.859375l0 -4.921875l-1.796875 0l0 -3.453125l1.796875 0l0 -3.296875l4.09375 0l0 3.296875l2.6875 0l0 3.453125l-2.6875 0l0 5.0q0 0.78125 0.328125 1.09375q0.328125 0.3125 1.09375 0.3125l1.296875 0zm8.575439 -10.03125q1.984375 0 3.546875 0.828125q1.578125 0.828125 2.46875 2.390625q0.90625 1.5625 0.90625 3.640625q0 2.09375 -0.90625 3.65625q-0.890625 1.5625 -2.46875 2.390625q-1.5625 0.828125 -3.546875 0.828125q-2.0 0 -3.59375 -0.828125q-1.578125 -0.828125 -2.484375 -2.390625q-0.890625 -1.5625 -0.890625 -3.65625q0 -2.078125 0.890625 -3.640625q0.90625 -1.5625 2.484375 -2.390625q1.59375 -0.828125 3.59375 -0.828125zm0 3.546875q-1.1875 0 -2.0 0.859375q-0.796875 0.859375 -0.796875 2.453125q0 1.609375 0.796875 2.453125q0.8125 0.84375 2.0 0.84375q1.171875 0 1.953125 -0.84375q0.796875 -0.84375 0.796875 -2.453125q0 -1.59375 -0.796875 -2.453125q-0.78125 -0.859375 -1.953125 -0.859375zm22.214111 -3.546875q1.65625 0 2.96875 0.828125q1.3125 0.828125 2.0625 2.375q0.75 1.546875 0.75 3.65625q0 2.09375 -0.75 3.65625q-0.75 1.5625 -2.0625 2.390625q-1.3125 0.828125 -2.96875 0.828125q-1.53125 0 -2.640625 -0.6875q-1.09375 -0.703125 -1.609375 -1.90625l0 2.421875l-4.09375 0l0 -17.765625l4.09375 0l0 6.796875q0.515625 -1.203125 1.609375 -1.890625q1.109375 -0.703125 2.640625 -0.703125zm-1.3125 3.609375q-1.296875 0 -2.125 0.875q-0.828125 0.875 -0.828125 2.375q0 1.5 0.828125 2.390625q0.828125 0.875 2.125 0.875q1.3125 0 2.109375 -0.859375q0.8125 -0.859375 0.8125 -2.40625q0 -1.53125 -0.8125 -2.390625q-0.796875 -0.859375 -2.109375 -0.859375zm21.959473 2.890625q0 0.515625 -0.125 1.109375l-9.28125 0q0.0625 1.515625 0.75 2.171875q0.703125 0.65625 1.78125 0.65625q0.921875 0 1.515625 -0.453125q0.609375 -0.453125 0.796875 -1.171875l4.34375 0q-0.265625 1.40625 -1.15625 2.53125q-0.890625 1.109375 -2.265625 1.75q-1.359375 0.640625 -3.03125 0.640625q-1.96875 0 -3.5 -0.828125q-1.515625 -0.828125 -2.390625 -2.390625q-0.859375 -1.5625 -0.859375 -3.65625q0 -2.109375 0.84375 -3.65625q0.859375 -1.546875 2.390625 -2.375q1.546875 -0.828125 3.515625 -0.828125q1.984375 0 3.5 0.828125q1.515625 0.8125 2.34375 2.296875q0.828125 1.46875 0.828125 3.375zm-4.15625 -0.625q0.03125 -1.3125 -0.703125 -1.96875q-0.734375 -0.65625 -1.8125 -0.65625q-1.125 0 -1.875 0.671875q-0.75 0.671875 -0.84375 1.953125l5.234375 0z" fill-rule="nonzero"/><path fill="#fd775e" d="m210.84268 183.8751l0 13.390625l-4.125 0l0 -2.421875q-0.578125 1.171875 -1.71875 1.875q-1.140625 0.6875 -2.65625 0.6875q-2.296875 0 -3.65625 -1.53125q-1.359375 -1.53125 -1.359375 -4.21875l0 -7.78125l4.078125 0l0 7.265625q0 1.375 0.703125 2.140625q0.71875 0.75 1.921875 0.75q1.25 0 1.96875 -0.796875q0.71875 -0.796875 0.71875 -2.25l0 -7.109375l4.125 0zm7.698822 -0.171875q2.546875 0 4.0625 1.28125q1.53125 1.265625 1.921875 3.359375l-3.84375 0q-0.171875 -0.828125 -0.765625 -1.296875q-0.578125 -0.46875 -1.46875 -0.46875q-0.6875 0 -1.046875 0.3125q-0.359375 0.296875 -0.359375 0.84375q0 0.625 0.65625 0.9375q0.65625 0.3125 2.078125 0.625q1.53125 0.359375 2.515625 0.734375q0.984375 0.375 1.703125 1.21875q0.71875 0.828125 0.71875 2.25q0 1.15625 -0.625 2.046875q-0.625 0.875 -1.796875 1.390625q-1.171875 0.5 -2.78125 0.5q-2.71875 0 -4.359375 -1.203125q-1.625 -1.203125 -1.984375 -3.4375l3.96875 0q0.09375 0.875 0.71875 1.328125q0.640625 0.453125 1.65625 0.453125q0.6875 0 1.046875 -0.328125q0.359375 -0.328125 0.359375 -0.84375q0 -0.703125 -0.65625 -1.0q-0.65625 -0.296875 -2.140625 -0.640625q-1.484375 -0.3125 -2.453125 -0.671875q-0.953125 -0.359375 -1.65625 -1.15625q-0.6875 -0.8125 -0.6875 -2.203125q0 -1.796875 1.359375 -2.90625q1.375 -1.125 3.859375 -1.125zm21.179337 6.5q0 0.515625 -0.125 1.109375l-9.28125 0q0.0625 1.515625 0.75 2.171875q0.703125 0.65625 1.78125 0.65625q0.921875 0 1.515625 -0.453125q0.609375 -0.453125 0.796875 -1.171875l4.34375 0q-0.265625 1.40625 -1.15625 2.53125q-0.890625 1.109375 -2.265625 1.75q-1.359375 0.640625 -3.03125 0.640625q-1.96875 0 -3.5 -0.828125q-1.515625 -0.828125 -2.390625 -2.390625q-0.859375 -1.5625 -0.859375 -3.65625q0 -2.109375 0.84375 -3.65625q0.859375 -1.546875 2.390625 -2.375q1.546875 -0.828125 3.515625 -0.828125q1.984375 0 3.5 0.828125q1.515625 0.8125 2.34375 2.296875q0.828125 1.46875 0.828125 3.375zm-4.15625 -0.625q0.03125 -1.3125 -0.703125 -1.96875q-0.734375 -0.65625 -1.8125 -0.65625q-1.125 0 -1.875 0.671875q-0.75 0.671875 -0.84375 1.953125l5.234375 0zm12.855957 -7.53125q-1.0 0 -1.453125 0.4375q-0.453125 0.421875 -0.5 1.390625l2.421875 0l0 3.453125l-2.421875 0l0 9.9375l-4.109375 0l0 -9.9375l-1.609375 0l0 -3.453125l1.609375 0l0 -0.140625q0 -2.5 1.453125 -3.859375q1.453125 -1.359375 4.203125 -1.359375q0.578125 0 0.875 0.03125l0 3.53125l-0.46875 -0.03125zm15.581985 1.828125l0 13.390625l-4.125 0l0 -2.421875q-0.578125 1.171875 -1.71875 1.875q-1.140625 0.6875 -2.6562653 0.6875q-2.296875 0 -3.65625 -1.53125q-1.359375 -1.53125 -1.359375 -4.21875l0 -7.78125l4.078125 0l0 7.265625q0 1.375 0.703125 2.140625q0.71875 0.75 1.9218903 0.75q1.25 0 1.96875 -0.796875q0.71875 -0.796875 0.71875 -2.25l0 -7.109375l4.125 0zm6.933197 -4.375l0 17.765625l-4.09375 0l0 -17.765625l4.09375 0zm5.482849 15.21875q0.71875 1.390625 0.71875 3.03125q0 1.65625 -0.875 2.734375q-0.875 1.078125 -2.734375 1.078125l0 -1.515625q0.65625 0 0.953125 -0.296875q0.296875 -0.28125 0.296875 -1.09375l0 -0.234375l-1.75 0l0 -3.703125l3.390625 0zm12.925476 -11.015625q1.546875 0 2.640625 0.703125q1.109375 0.6875 1.640625 1.890625l0 -2.421875l4.078125 0l0 13.390625l-4.078125 0l0 -2.421875q-0.53125 1.203125 -1.640625 1.90625q-1.09375 0.6875 -2.640625 0.6875q-1.65625 0 -2.96875 -0.828125q-1.296875 -0.828125 -2.0625 -2.390625q-0.75 -1.5625 -0.75 -3.65625q0 -2.109375 0.75 -3.65625q0.765625 -1.546875 2.0625 -2.375q1.3125 -0.828125 2.96875 -0.828125zm1.328125 3.609375q-1.328125 0 -2.140625 0.859375q-0.796875 0.859375 -0.796875 2.390625q0 1.546875 0.796875 2.40625q0.8125 0.859375 2.140625 0.859375q1.296875 0 2.125 -0.875q0.828125 -0.890625 0.828125 -2.390625q0 -1.5 -0.828125 -2.375q-0.828125 -0.875 -2.125 -0.875zm18.350067 -3.578125q2.3125 0 3.65625 1.53125q1.359375 1.53125 1.359375 4.21875l0 7.78125l-4.09375 0l0 -7.296875q0 -1.34375 -0.71875 -2.09375q-0.703125 -0.765625 -1.875 -0.765625q-1.25 0 -1.984375 0.796875q-0.734375 0.796875 -0.734375 2.25l0 7.109375l-4.09375 0l0 -13.390625l4.09375 0l0 2.453125q0.578125 -1.203125 1.71875 -1.890625q1.140625 -0.703125 2.671875 -0.703125zm12.8177185 -0.03125q1.546875 0 2.640625 0.703125q1.109375 0.6875 1.609375 1.890625l0 -6.796875l4.109375 0l0 17.765625l-4.109375 0l0 -2.421875q-0.5 1.203125 -1.609375 1.90625q-1.09375 0.6875 -2.640625 0.6875q-1.65625 0 -2.96875 -0.828125q-1.296875 -0.828125 -2.0625 -2.390625q-0.75 -1.5625 -0.75 -3.65625q0 -2.109375 0.75 -3.65625q0.765625 -1.546875 2.0625 -2.375q1.3125 -0.828125 2.96875 -0.828125zm1.328125 3.609375q-1.328125 0 -2.140625 0.859375q-0.796875 0.859375 -0.796875 2.390625q0 1.546875 0.796875 2.40625q0.8125 0.859375 2.140625 0.859375q1.296875 0 2.125 -0.875q0.828125 -0.890625 0.828125 -2.390625q0 -1.5 -0.828125 -2.375q-0.828125 -0.875 -2.125 -0.875zm19.743805 -3.609375q1.546875 0 2.640625 0.703125q1.109375 0.6875 1.640625 1.890625l0 -2.421875l4.078125 0l0 13.3125q0 1.875 -0.71875 3.375q-0.71875 1.5 -2.21875 2.390625q-1.484375 0.890625 -3.6875 0.890625q-3.03125 0 -4.84375 -1.4375q-1.8125 -1.421875 -2.171875 -3.875l4.0625 0q0.1875 0.828125 0.875 1.28125q0.6875 0.453125 1.78125 0.453125q1.28125 0 2.0625 -0.734375q0.78125 -0.734375 0.78125 -2.34375l0 -2.34375q-0.53125 1.203125 -1.640625 1.90625q-1.09375 0.6875 -2.640625 0.6875q-1.65625 0 -2.96875 -0.828125q-1.296875 -0.828125 -2.0625 -2.390625q-0.75 -1.5625 -0.75 -3.65625q0 -2.109375 0.75 -3.65625q0.765625 -1.546875 2.0625 -2.375q1.3125 -0.828125 2.96875 -0.828125zm1.328125 3.609375q-1.328125 0 -2.140625 0.859375q-0.796875 0.859375 -0.796875 2.390625q0 1.546875 0.796875 2.40625q0.8125 0.859375 2.140625 0.859375q1.296875 0 2.125 -0.875q0.828125 -0.890625 0.828125 -2.390625q0 -1.5 -0.828125 -2.375q-0.828125 -0.875 -2.125 -0.875zm22.584473 2.890625q0 0.515625 -0.125 1.109375l-9.28125 0q0.0625 1.515625 0.75 2.171875q0.703125 0.65625 1.78125 0.65625q0.921875 0 1.515625 -0.453125q0.609375 -0.453125 0.796875 -1.171875l4.34375 0q-0.265625 1.40625 -1.15625 2.53125q-0.890625 1.109375 -2.265625 1.75q-1.359375 0.640625 -3.03125 0.640625q-1.96875 0 -3.5 -0.828125q-1.515625 -0.828125 -2.390625 -2.390625q-0.859375 -1.5625 -0.859375 -3.65625q0 -2.109375 0.84375 -3.65625q0.859375 -1.546875 2.390625 -2.375q1.546875 -0.828125 3.515625 -0.828125q1.984375 0 3.5 0.828125q1.515625 0.8125 2.34375 2.296875q0.828125 1.46875 0.828125 3.375zm-4.15625 -0.625q0.03125 -1.3125 -0.703125 -1.96875q-0.734375 -0.65625 -1.8125 -0.65625q-1.125 0 -1.875 0.671875q-0.75 0.671875 -0.84375 1.953125l5.234375 0zm13.871582 4.15625l0 3.53125l-1.84375 0q-2.359375 0 -3.671875 -1.15625q-1.296875 -1.171875 -1.296875 -3.859375l0 -4.921875l-1.796875 0l0 -3.453125l1.796875 0l0 -3.296875l4.09375 0l0 3.296875l2.6875 0l0 3.453125l-2.6875 0l0 5.0q0 0.78125 0.328125 1.09375q0.328125 0.3125 1.09375 0.3125l1.296875 0zm12.187927 -10.03125q1.546875 0 2.640625 0.703125q1.109375 0.6875 1.609375 1.890625l0 -6.796875l4.109375 0l0 17.765625l-4.109375 0l0 -2.421875q-0.5 1.203125 -1.609375 1.90625q-1.09375 0.6875 -2.640625 0.6875q-1.65625 0 -2.96875 -0.828125q-1.296875 -0.828125 -2.0625 -2.390625q-0.75 -1.5625 -0.75 -3.65625q0 -2.109375 0.75 -3.65625q0.765625 -1.546875 2.0625 -2.375q1.3125 -0.828125 2.96875 -0.828125zm1.328125 3.609375q-1.328125 0 -2.140625 0.859375q-0.796875 0.859375 -0.796875 2.390625q0 1.546875 0.796875 2.40625q0.8125 0.859375 2.140625 0.859375q1.296875 0 2.125 -0.875q0.828125 -0.890625 0.828125 -2.390625q0 -1.5 -0.828125 -2.375q-0.828125 -0.875 -2.125 -0.875zm22.584473 2.890625q0 0.515625 -0.125 1.109375l-9.28125 0q0.0625 1.515625 0.75 2.171875q0.703125 0.65625 1.78125 0.65625q0.921875 0 1.515625 -0.453125q0.609375 -0.453125 0.796875 -1.171875l4.34375 0q-0.265625 1.40625 -1.15625 2.53125q-0.890625 1.109375 -2.265625 1.75q-1.359375 0.640625 -3.03125 0.640625q-1.96875 0 -3.5 -0.828125q-1.515625 -0.828125 -2.390625 -2.390625q-0.859375 -1.5625 -0.859375 -3.65625q0 -2.109375 0.84375 -3.65625q0.859375 -1.546875 2.390625 -2.375q1.546875 -0.828125 3.515625 -0.828125q1.984375 0 3.5 0.828125q1.515625 0.8125 2.34375 2.296875q0.828125 1.46875 0.828125 3.375zm-4.15625 -0.625q0.03125 -1.3125 -0.703125 -1.96875q-0.734375 -0.65625 -1.8125 -0.65625q-1.125 0 -1.875 0.671875q-0.75 0.671875 -0.84375 1.953125l5.234375 0zm14.637207 -5.875q1.65625 0 2.96875 0.828125q1.3125 0.828125 2.0625 2.375q0.75 1.546875 0.75 3.65625q0 2.09375 -0.75 3.65625q-0.75 1.5625 -2.0625 2.390625q-1.3125 0.828125 -2.96875 0.828125q-1.53125 0 -2.640625 -0.6875q-1.09375 -0.703125 -1.609375 -1.90625l0 8.8125l-4.09375 0l0 -19.78125l4.09375 0l0 2.421875q0.515625 -1.203125 1.609375 -1.890625q1.109375 -0.703125 2.640625 -0.703125zm-1.3125 3.609375q-1.296875 0 -2.125 0.875q-0.828125 0.875 -0.828125 2.375q0 1.5 0.828125 2.390625q0.828125 0.875 2.125 0.875q1.3125 0 2.109375 -0.859375q0.8125 -0.859375 0.8125 -2.40625q0 -1.53125 -0.8125 -2.390625q-0.796875 -0.859375 -2.109375 -0.859375zm13.334473 -7.8125l0 17.765625l-4.09375 0l0 -17.765625l4.09375 0zm9.107849 4.203125q1.984375 0 3.546875 0.828125q1.578125 0.828125 2.46875 2.390625q0.90625 1.5625 0.90625 3.640625q0 2.09375 -0.90625 3.65625q-0.890625 1.5625 -2.46875 2.390625q-1.5625 0.828125 -3.546875 0.828125q-2.0 0 -3.59375 -0.828125q-1.578125 -0.828125 -2.484375 -2.390625q-0.890625 -1.5625 -0.890625 -3.65625q0 -2.078125 0.890625 -3.640625q0.90625 -1.5625 2.484375 -2.390625q1.59375 -0.828125 3.59375 -0.828125zm0 3.546875q-1.1875 0 -2.0 0.859375q-0.796875 0.859375 -0.796875 2.453125q0 1.609375 0.796875 2.453125q0.8125 0.84375 2.0 0.84375q1.171875 0 1.953125 -0.84375q0.796875 -0.84375 0.796875 -2.453125q0 -1.59375 -0.796875 -2.453125q-0.78125 -0.859375 -1.953125 -0.859375zm12.1640625 -3.375l3.21875 8.203125l3.0 -8.203125l4.53125 0l-8.359375 19.78125l-4.5 0l3.140625 -6.890625l-5.625 -12.890625l4.59375 0zm24.840942 6.328125q0 0.515625 -0.125 1.109375l-9.28125 0q0.0625 1.515625 0.75 2.171875q0.703125 0.65625 1.78125 0.65625q0.921875 0 1.515625 -0.453125q0.609375 -0.453125 0.796875 -1.171875l4.34375 0q-0.265625 1.40625 -1.15625 2.53125q-0.890625 1.109375 -2.265625 1.75q-1.359375 0.640625 -3.03125 0.640625q-1.96875 0 -3.5 -0.828125q-1.515625 -0.828125 -2.390625 -2.390625q-0.859375 -1.5625 -0.859375 -3.65625q0 -2.109375 0.84375 -3.65625q0.859375 -1.546875 2.390625 -2.375q1.546875 -0.828125 3.515625 -0.828125q1.984375 0 3.5 0.828125q1.515625 0.8125 2.34375 2.296875q0.828125 1.46875 0.828125 3.375zm-4.15625 -0.625q0.03125 -1.3125 -0.703125 -1.96875q-0.734375 -0.65625 -1.8125 -0.65625q-1.125 0 -1.875 0.671875q-0.75 0.671875 -0.84375 1.953125l5.234375 0zm11.371582 -5.875q1.546875 0 2.640625 0.703125q1.109375 0.6875 1.609375 1.890625l0 -6.796875l4.109375 0l0 17.765625l-4.109375 0l0 -2.421875q-0.5 1.203125 -1.609375 1.90625q-1.09375 0.6875 -2.640625 0.6875q-1.65625 0 -2.96875 -0.828125q-1.296875 -0.828125 -2.0625 -2.390625q-0.75 -1.5625 -0.75 -3.65625q0 -2.109375 0.75 -3.65625q0.765625 -1.546875 2.0625 -2.375q1.3125 -0.828125 2.96875 -0.828125zm1.328125 3.609375q-1.328125 0 -2.140625 0.859375q-0.796875 0.859375 -0.796875 2.390625q0 1.546875 0.796875 2.40625q0.8125 0.859375 2.140625 0.859375q1.296875 0 2.125 -0.875q0.828125 -0.890625 0.828125 -2.390625q0 -1.5 -0.828125 -2.375q-0.828125 -0.875 -2.125 -0.875zm13.381348 5.84375l0 4.109375l-4.234375 0l0 -4.109375l4.234375 0z" fill-rule="nonzero"/></g></svg>