<svg version="1.1" viewBox="0.0 0.0 630.2204724409448 113.30971128608924" fill="none" stroke="none" stroke-linecap="square" stroke-miterlimit="10" xmlns:xlink="http://www.w3.org/1999/xlink" xmlns="http://www.w3.org/2000/svg"><clipPath id="p.0"><path d="m0 0l630.22046 0l0 113.30971l-630.22046 0l0 -113.30971z" clip-rule="nonzero"/></clipPath><g clip-path="url(#p.0)"><path fill="#000000" fill-opacity="0.0" d="m0 0l630.22046 0l0 113.30971l-630.22046 0z" fill-rule="evenodd"/><path fill="#000000" fill-opacity="0.0" d="m117.362206 8.905512l416.40945 0l0 93.57481l-416.40945 0z" fill-rule="evenodd"/><path fill="#f9c3c0" d="m269.59464 26.717287q0 2.484375 -1.078125 4.421875q-1.0625 1.9374981 -3.078125 3.015623q-2.0 1.078125 -4.703125 1.078125l-6.40625 0l0 -16.968748l6.40625 0q2.734375 0 4.71875 1.0625q2.0 1.046875 3.0625 2.96875q1.078125 1.921875 1.078125 4.421875zm-9.21875 4.84375q2.390625 0 3.71875 -1.265625q1.34375 -1.28125 1.34375 -3.578125q0 -2.3125 -1.34375 -3.578125q-1.328125 -1.28125 -3.71875 -1.28125l-1.953125 0l0 9.703125l1.953125 0zm24.263824 -3.390625q0 0.515625 -0.125 1.109375l-9.28125 0q0.0625 1.515625 0.75 2.171875q0.703125 0.6562481 1.78125 0.6562481q0.921875 0 1.515625 -0.4531231q0.609375 -0.453125 0.796875 -1.171875l4.34375 0q-0.265625 1.40625 -1.15625 2.531248q-0.890625 1.109375 -2.265625 1.75q-1.359375 0.640625 -3.03125 0.640625q-1.96875 0 -3.5 -0.828125q-1.515625 -0.828125 -2.390625 -2.390625q-0.859375 -1.5624981 -0.859375 -3.656248q0 -2.109375 0.84375 -3.65625q0.859375 -1.546875 2.390625 -2.375q1.546875 -0.828125 3.515625 -0.828125q1.984375 0 3.5 0.828125q1.515625 0.8125 2.34375 2.296875q0.828125 1.46875 0.828125 3.375zm-4.15625 -0.625q0.03125 -1.3125 -0.703125 -1.96875q-0.734375 -0.65625 -1.8125 -0.65625q-1.125 0 -1.875 0.671875q-0.75 0.671875 -0.84375 1.953125l5.234375 0zm12.480957 3.671875l2.90625 -9.375l4.359375 0l-4.75 13.390623l-5.078125 0l-4.765625 -13.390623l4.375 0l2.953125 9.375zm21.699219 -3.046875q0 0.515625 -0.125 1.109375l-9.28125 0q0.0625 1.515625 0.75 2.171875q0.703125 0.6562481 1.78125 0.6562481q0.921875 0 1.515625 -0.4531231q0.609375 -0.453125 0.796875 -1.171875l4.34375 0q-0.265625 1.40625 -1.15625 2.531248q-0.890625 1.109375 -2.265625 1.75q-1.359375 0.640625 -3.03125 0.640625q-1.96875 0 -3.5 -0.828125q-1.515625 -0.828125 -2.390625 -2.390625q-0.859375 -1.5624981 -0.859375 -3.656248q0 -2.109375 0.84375 -3.65625q0.859375 -1.546875 2.390625 -2.375q1.546875 -0.828125 3.515625 -0.828125q1.984375 0 3.5 0.828125q1.515625 0.8125 2.34375 2.296875q0.828125 1.46875 0.828125 3.375zm-4.15625 -0.625q0.03125 -1.3125 -0.703125 -1.96875q-0.734375 -0.65625 -1.8125 -0.65625q-1.125 0 -1.875 0.671875q-0.75 0.671875 -0.84375 1.953125l5.234375 0zm10.387207 -10.078125l0 17.765623l-4.09375 0l0 -17.765623l4.09375 0zm9.107849 4.203125q1.984375 0 3.546875 0.828125q1.578125 0.828125 2.46875 2.390625q0.90625 1.5625 0.90625 3.640625q0 2.09375 -0.90625 3.656248q-0.890625 1.5625 -2.46875 2.390625q-1.5625 0.828125 -3.546875 0.828125q-2.0 0 -3.59375 -0.828125q-1.578125 -0.828125 -2.484375 -2.390625q-0.890625 -1.5624981 -0.890625 -3.656248q0 -2.078125 0.890625 -3.640625q0.90625 -1.5625 2.484375 -2.390625q1.59375 -0.828125 3.59375 -0.828125zm0 3.546875q-1.1875 0 -2.0 0.859375q-0.796875 0.859375 -0.796875 2.453125q0 1.609375 0.796875 2.453125q0.8125 0.84375 2.0 0.84375q1.171875 0 1.953125 -0.84375q0.796875 -0.84375 0.796875 -2.453125q0 -1.59375 -0.796875 -2.453125q-0.78125 -0.859375 -1.953125 -0.859375zm17.414062 -3.546875q1.65625 0 2.96875 0.828125q1.3125 0.828125 2.0625 2.375q0.75 1.546875 0.75 3.65625q0 2.09375 -0.75 3.656248q-0.75 1.5625 -2.0625 2.390625q-1.3125 0.828125 -2.96875 0.828125q-1.53125 0 -2.640625 -0.6875q-1.09375 -0.703125 -1.609375 -1.90625l0 8.8125l-4.09375 0l0 -19.781248l4.09375 0l0 2.421875q0.515625 -1.203125 1.609375 -1.890625q1.109375 -0.703125 2.640625 -0.703125zm-1.3125 3.609375q-1.296875 0 -2.125 0.875q-0.828125 0.875 -0.828125 2.375q0 1.5 0.828125 2.390625q0.828125 0.875 2.125 0.875q1.3125 0 2.109375 -0.859375q0.8125 -0.859375 0.8125 -2.40625q0 -1.53125 -0.8125 -2.390625q-0.796875 -0.859375 -2.109375 -0.859375zm21.959473 2.890625q0 0.515625 -0.125 1.109375l-9.28125 0q0.0625 1.515625 0.75 2.171875q0.703125 0.6562481 1.78125 0.6562481q0.921875 0 1.515625 -0.4531231q0.609375 -0.453125 0.796875 -1.171875l4.34375 0q-0.265625 1.40625 -1.15625 2.531248q-0.890625 1.109375 -2.265625 1.75q-1.359375 0.640625 -3.03125 0.640625q-1.96875 0 -3.5 -0.828125q-1.515625 -0.828125 -2.390625 -2.390625q-0.859375 -1.5624981 -0.859375 -3.656248q0 -2.109375 0.84375 -3.65625q0.859375 -1.546875 2.390625 -2.375q1.546875 -0.828125 3.515625 -0.828125q1.984375 0 3.5 0.828125q1.515625 0.8125 2.34375 2.296875q0.828125 1.46875 0.828125 3.375zm-4.15625 -0.625q0.03125 -1.3125 -0.703125 -1.96875q-0.734375 -0.65625 -1.8125 -0.65625q-1.125 0 -1.875 0.671875q-0.75 0.671875 -0.84375 1.953125l5.234375 0zm10.387207 -3.1875q0.765625 -1.21875 1.984375 -1.9375q1.21875 -0.71875 2.625 -0.71875l0 4.390625l-1.171875 0q-1.640625 0 -2.546875 0.703125q-0.890625 0.6875 -0.890625 2.34375l0 6.093748l-4.09375 0l0 -13.390623l4.09375 0l0 2.515625zm11.205597 -2.6875q2.546875 0 4.0625 1.28125q1.53125 1.265625 1.921875 3.359375l-3.84375 0q-0.171875 -0.828125 -0.765625 -1.296875q-0.578125 -0.46875 -1.46875 -0.46875q-0.6875 0 -1.046875 0.3125q-0.359375 0.296875 -0.359375 0.84375q0 0.625 0.65625 0.9375q0.65625 0.3125 2.078125 0.625q1.53125 0.359375 2.515625 0.734375q0.984375 0.375 1.703125 1.21875q0.71875 0.828125 0.71875 2.25q0 1.1562481 -0.625 2.046873q-0.625 0.875 -1.796875 1.390625q-1.171875 0.5 -2.78125 0.5q-2.71875 0 -4.359375 -1.203125q-1.625 -1.203125 -1.984375 -3.437498l3.96875 0q0.09375 0.875 0.71875 1.3281231q0.640625 0.453125 1.65625 0.453125q0.6875 0 1.046875 -0.328125q0.359375 -0.3281231 0.359375 -0.8437481q0 -0.703125 -0.65625 -1.0q-0.65625 -0.296875 -2.140625 -0.640625q-1.484375 -0.3125 -2.453125 -0.671875q-0.953125 -0.359375 -1.65625 -1.15625q-0.6875 -0.8125 -0.6875 -2.203125q0 -1.796875 1.359375 -2.90625q1.375 -1.125 3.859375 -1.125zm11.101196 11.015623q0.71875 1.390625 0.71875 3.03125q0 1.65625 -0.875 2.734375q-0.875 1.078125 -2.734375 1.078125l0 -1.515625q0.65625 0 0.953125 -0.296875q0.296875 -0.28125 0.296875 -1.09375l0 -0.234375l-1.75 0l0 -3.703125l3.390625 0z" fill-rule="nonzero"/><path fill="#fd7a9e" d="m269.59464 55.717285q0 2.484375 -1.078125 4.421875q-1.0625 1.9375 -3.078125 3.015625q-2.0 1.078125 -4.703125 1.078125l-6.40625 0l0 -16.96875l6.40625 0q2.734375 0 4.71875 1.0625q2.0 1.046875 3.0625 2.96875q1.078125 1.921875 1.078125 4.421875zm-9.21875 4.84375q2.390625 0 3.71875 -1.265625q1.34375 -1.28125 1.34375 -3.578125q0 -2.3125 -1.34375 -3.578125q-1.328125 -1.28125 -3.71875 -1.28125l-1.953125 0l0 9.703125l1.953125 0zm24.263824 -3.390625q0 0.515625 -0.125 1.109375l-9.28125 0q0.0625 1.515625 0.75 2.171875q0.703125 0.65625 1.78125 0.65625q0.921875 0 1.515625 -0.453125q0.609375 -0.453125 0.796875 -1.171875l4.34375 0q-0.265625 1.40625 -1.15625 2.53125q-0.890625 1.109375 -2.265625 1.75q-1.359375 0.640625 -3.03125 0.640625q-1.96875 0 -3.5 -0.828125q-1.515625 -0.828125 -2.390625 -2.390625q-0.859375 -1.5625 -0.859375 -3.65625q0 -2.109375 0.84375 -3.65625q0.859375 -1.546875 2.390625 -2.375q1.546875 -0.828125 3.515625 -0.828125q1.984375 0 3.5 0.828125q1.515625 0.8125 2.34375 2.296875q0.828125 1.46875 0.828125 3.375zm-4.15625 -0.625q0.03125 -1.3125 -0.703125 -1.96875q-0.734375 -0.65625 -1.8125 -0.65625q-1.125 0 -1.875 0.671875q-0.75 0.671875 -0.84375 1.953125l5.234375 0zm12.480957 3.671875l2.90625 -9.375l4.359375 0l-4.75 13.390625l-5.078125 0l-4.765625 -13.390625l4.375 0l2.953125 9.375zm21.699219 -3.046875q0 0.515625 -0.125 1.109375l-9.28125 0q0.0625 1.515625 0.75 2.171875q0.703125 0.65625 1.78125 0.65625q0.921875 0 1.515625 -0.453125q0.609375 -0.453125 0.796875 -1.171875l4.34375 0q-0.265625 1.40625 -1.15625 2.53125q-0.890625 1.109375 -2.265625 1.75q-1.359375 0.640625 -3.03125 0.640625q-1.96875 0 -3.5 -0.828125q-1.515625 -0.828125 -2.390625 -2.390625q-0.859375 -1.5625 -0.859375 -3.65625q0 -2.109375 0.84375 -3.65625q0.859375 -1.546875 2.390625 -2.375q1.546875 -0.828125 3.515625 -0.828125q1.984375 0 3.5 0.828125q1.515625 0.8125 2.34375 2.296875q0.828125 1.46875 0.828125 3.375zm-4.15625 -0.625q0.03125 -1.3125 -0.703125 -1.96875q-0.734375 -0.65625 -1.8125 -0.65625q-1.125 0 -1.875 0.671875q-0.75 0.671875 -0.84375 1.953125l5.234375 0zm10.387207 -10.078125l0 17.765625l-4.09375 0l0 -17.765625l4.09375 0zm9.107849 4.203125q1.984375 0 3.546875 0.828125q1.578125 0.828125 2.46875 2.390625q0.90625 1.5625 0.90625 3.640625q0 2.09375 -0.90625 3.65625q-0.890625 1.5625 -2.46875 2.390625q-1.5625 0.828125 -3.546875 0.828125q-2.0 0 -3.59375 -0.828125q-1.578125 -0.828125 -2.484375 -2.390625q-0.890625 -1.5625 -0.890625 -3.65625q0 -2.078125 0.890625 -3.640625q0.90625 -1.5625 2.484375 -2.390625q1.59375 -0.828125 3.59375 -0.828125zm0 3.546875q-1.1875 0 -2.0 0.859375q-0.796875 0.859375 -0.796875 2.453125q0 1.609375 0.796875 2.453125q0.8125 0.84375 2.0 0.84375q1.171875 0 1.953125 -0.84375q0.796875 -0.84375 0.796875 -2.453125q0 -1.59375 -0.796875 -2.453125q-0.78125 -0.859375 -1.953125 -0.859375zm17.414062 -3.546875q1.65625 0 2.96875 0.828125q1.3125 0.828125 2.0625 2.375q0.75 1.546875 0.75 3.65625q0 2.09375 -0.75 3.65625q-0.75 1.5625 -2.0625 2.390625q-1.3125 0.828125 -2.96875 0.828125q-1.53125 0 -2.640625 -0.6875q-1.09375 -0.703125 -1.609375 -1.90625l0 8.8125l-4.09375 0l0 -19.78125l4.09375 0l0 2.421875q0.515625 -1.203125 1.609375 -1.890625q1.109375 -0.703125 2.640625 -0.703125zm-1.3125 3.609375q-1.296875 0 -2.125 0.875q-0.828125 0.875 -0.828125 2.375q0 1.5 0.828125 2.390625q0.828125 0.875 2.125 0.875q1.3125 0 2.109375 -0.859375q0.8125 -0.859375 0.8125 -2.40625q0 -1.53125 -0.8125 -2.390625q-0.796875 -0.859375 -2.109375 -0.859375zm21.959473 2.890625q0 0.515625 -0.125 1.109375l-9.28125 0q0.0625 1.515625 0.75 2.171875q0.703125 0.65625 1.78125 0.65625q0.921875 0 1.515625 -0.453125q0.609375 -0.453125 0.796875 -1.171875l4.34375 0q-0.265625 1.40625 -1.15625 2.53125q-0.890625 1.109375 -2.265625 1.75q-1.359375 0.640625 -3.03125 0.640625q-1.96875 0 -3.5 -0.828125q-1.515625 -0.828125 -2.390625 -2.390625q-0.859375 -1.5625 -0.859375 -3.65625q0 -2.109375 0.84375 -3.65625q0.859375 -1.546875 2.390625 -2.375q1.546875 -0.828125 3.515625 -0.828125q1.984375 0 3.5 0.828125q1.515625 0.8125 2.34375 2.296875q0.828125 1.46875 0.828125 3.375zm-4.15625 -0.625q0.03125 -1.3125 -0.703125 -1.96875q-0.734375 -0.65625 -1.8125 -0.65625q-1.125 0 -1.875 0.671875q-0.75 0.671875 -0.84375 1.953125l5.234375 0zm10.387207 -3.1875q0.765625 -1.21875 1.984375 -1.9375q1.21875 -0.71875 2.625 -0.71875l0 4.390625l-1.171875 0q-1.640625 0 -2.546875 0.703125q-0.890625 0.6875 -0.890625 2.34375l0 6.09375l-4.09375 0l0 -13.390625l4.09375 0l0 2.515625zm11.205597 -2.6875q2.546875 0 4.0625 1.28125q1.53125 1.265625 1.921875 3.359375l-3.84375 0q-0.171875 -0.828125 -0.765625 -1.296875q-0.578125 -0.46875 -1.46875 -0.46875q-0.6875 0 -1.046875 0.3125q-0.359375 0.296875 -0.359375 0.84375q0 0.625 0.65625 0.9375q0.65625 0.3125 2.078125 0.625q1.53125 0.359375 2.515625 0.734375q0.984375 0.375 1.703125 1.21875q0.71875 0.828125 0.71875 2.25q0 1.15625 -0.625 2.046875q-0.625 0.875 -1.796875 1.390625q-1.171875 0.5 -2.78125 0.5q-2.71875 0 -4.359375 -1.203125q-1.625 -1.203125 -1.984375 -3.4375l3.96875 0q0.09375 0.875 0.71875 1.328125q0.640625 0.453125 1.65625 0.453125q0.6875 0 1.046875 -0.328125q0.359375 -0.328125 0.359375 -0.84375q0 -0.703125 -0.65625 -1.0q-0.65625 -0.296875 -2.140625 -0.640625q-1.484375 -0.3125 -2.453125 -0.671875q-0.953125 -0.359375 -1.65625 -1.15625q-0.6875 -0.8125 -0.6875 -2.203125q0 -1.796875 1.359375 -2.90625q1.375 -1.125 3.859375 -1.125zm11.101196 11.015625q0.71875 1.390625 0.71875 3.03125q0 1.65625 -0.875 2.734375q-0.875 1.078125 -2.734375 1.078125l0 -1.515625q0.65625 0 0.953125 -0.296875q0.296875 -0.28125 0.296875 -1.09375l0 -0.234375l-1.75 0l0 -3.703125l3.390625 0z" fill-rule="nonzero"/><path fill="#fd775e" d="m267.85464 84.717285q0 2.484375 -1.078125 4.421875q-1.0625 1.9375 -3.078125 3.015625q-2.0 1.078125 -4.703125 1.078125l-6.40625 0l0 -16.96875l6.40625 0q2.734375 0 4.71875 1.0625q2.0 1.046875 3.0625 2.96875q1.078125 1.921875 1.078125 4.421875zm-9.21875 4.84375q2.390625 0 3.71875 -1.265625q1.34375 -1.28125 1.34375 -3.578125q0 -2.3125 -1.34375 -3.578125q-1.328125 -1.28125 -3.71875 -1.28125l-1.953125 0l0 9.703125l1.953125 0zm24.263824 -3.390625q0 0.515625 -0.125 1.109375l-9.28125 0q0.0625 1.515625 0.75 2.171875q0.703125 0.65625 1.78125 0.65625q0.921875 0 1.515625 -0.453125q0.609375 -0.453125 0.796875 -1.171875l4.34375 0q-0.265625 1.40625 -1.15625 2.53125q-0.890625 1.109375 -2.265625 1.75q-1.359375 0.640625 -3.03125 0.640625q-1.96875 0 -3.5 -0.828125q-1.515625 -0.828125 -2.390625 -2.390625q-0.859375 -1.5625 -0.859375 -3.65625q0 -2.109375 0.84375 -3.65625q0.859375 -1.546875 2.390625 -2.375q1.546875 -0.828125 3.515625 -0.828125q1.984375 0 3.5 0.828125q1.515625 0.8125 2.34375 2.296875q0.828125 1.46875 0.828125 3.375zm-4.15625 -0.625q0.03125 -1.3125 -0.703125 -1.96875q-0.734375 -0.65625 -1.8125 -0.65625q-1.125 0 -1.875 0.671875q-0.75 0.671875 -0.84375 1.953125l5.234375 0zm12.480957 3.671875l2.90625 -9.375l4.359375 0l-4.75 13.390625l-5.078125 0l-4.765625 -13.390625l4.375 0l2.953125 9.375zm21.699219 -3.046875q0 0.515625 -0.125 1.109375l-9.28125 0q0.0625 1.515625 0.75 2.171875q0.703125 0.65625 1.78125 0.65625q0.921875 0 1.515625 -0.453125q0.609375 -0.453125 0.796875 -1.171875l4.34375 0q-0.265625 1.40625 -1.15625 2.53125q-0.890625 1.109375 -2.265625 1.75q-1.359375 0.640625 -3.03125 0.640625q-1.96875 0 -3.5 -0.828125q-1.515625 -0.828125 -2.390625 -2.390625q-0.859375 -1.5625 -0.859375 -3.65625q0 -2.109375 0.84375 -3.65625q0.859375 -1.546875 2.390625 -2.375q1.546875 -0.828125 3.515625 -0.828125q1.984375 0 3.5 0.828125q1.515625 0.8125 2.34375 2.296875q0.828125 1.46875 0.828125 3.375zm-4.15625 -0.625q0.03125 -1.3125 -0.703125 -1.96875q-0.734375 -0.65625 -1.8125 -0.65625q-1.125 0 -1.875 0.671875q-0.75 0.671875 -0.84375 1.953125l5.234375 0zm10.387207 -10.078125l0 17.765625l-4.09375 0l0 -17.765625l4.09375 0zm9.107849 4.203125q1.984375 0 3.546875 0.828125q1.578125 0.828125 2.46875 2.390625q0.90625 1.5625 0.90625 3.640625q0 2.09375 -0.90625 3.65625q-0.890625 1.5625 -2.46875 2.390625q-1.5625 0.828125 -3.546875 0.828125q-2.0 0 -3.59375 -0.828125q-1.578125 -0.828125 -2.484375 -2.390625q-0.890625 -1.5625 -0.890625 -3.65625q0 -2.078125 0.890625 -3.640625q0.90625 -1.5625 2.484375 -2.390625q1.59375 -0.828125 3.59375 -0.828125zm0 3.546875q-1.1875 0 -2.0 0.859375q-0.796875 0.859375 -0.796875 2.453125q0 1.609375 0.796875 2.453125q0.8125 0.84375 2.0 0.84375q1.171875 0 1.953125 -0.84375q0.796875 -0.84375 0.796875 -2.453125q0 -1.59375 -0.796875 -2.453125q-0.78125 -0.859375 -1.953125 -0.859375zm17.414062 -3.546875q1.65625 0 2.96875 0.828125q1.3125 0.828125 2.0625 2.375q0.75 1.546875 0.75 3.65625q0 2.09375 -0.75 3.65625q-0.75 1.5625 -2.0625 2.390625q-1.3125 0.828125 -2.96875 0.828125q-1.53125 0 -2.640625 -0.6875q-1.09375 -0.703125 -1.609375 -1.90625l0 8.8125l-4.09375 0l0 -19.78125l4.09375 0l0 2.421875q0.515625 -1.203125 1.609375 -1.890625q1.109375 -0.703125 2.640625 -0.703125zm-1.3125 3.609375q-1.296875 0 -2.125 0.875q-0.828125 0.875 -0.828125 2.375q0 1.5 0.828125 2.390625q0.828125 0.875 2.125 0.875q1.3125 0 2.109375 -0.859375q0.8125 -0.859375 0.8125 -2.40625q0 -1.53125 -0.8125 -2.390625q-0.796875 -0.859375 -2.109375 -0.859375zm21.959473 2.890625q0 0.515625 -0.125 1.109375l-9.28125 0q0.0625 1.515625 0.75 2.171875q0.703125 0.65625 1.78125 0.65625q0.921875 0 1.515625 -0.453125q0.609375 -0.453125 0.796875 -1.171875l4.34375 0q-0.265625 1.40625 -1.15625 2.53125q-0.890625 1.109375 -2.265625 1.75q-1.359375 0.640625 -3.03125 0.640625q-1.96875 0 -3.5 -0.828125q-1.515625 -0.828125 -2.390625 -2.390625q-0.859375 -1.5625 -0.859375 -3.65625q0 -2.109375 0.84375 -3.65625q0.859375 -1.546875 2.390625 -2.375q1.546875 -0.828125 3.515625 -0.828125q1.984375 0 3.5 0.828125q1.515625 0.8125 2.34375 2.296875q0.828125 1.46875 0.828125 3.375zm-4.15625 -0.625q0.03125 -1.3125 -0.703125 -1.96875q-0.734375 -0.65625 -1.8125 -0.65625q-1.125 0 -1.875 0.671875q-0.75 0.671875 -0.84375 1.953125l5.234375 0zm10.387207 -3.1875q0.765625 -1.21875 1.984375 -1.9375q1.21875 -0.71875 2.625 -0.71875l0 4.390625l-1.171875 0q-1.640625 0 -2.546875 0.703125q-0.890625 0.6875 -0.890625 2.34375l0 6.09375l-4.09375 0l0 -13.390625l4.09375 0l0 2.515625zm11.205597 -2.6875q2.546875 0 4.0625 1.28125q1.53125 1.265625 1.921875 3.359375l-3.84375 0q-0.171875 -0.828125 -0.765625 -1.296875q-0.578125 -0.46875 -1.46875 -0.46875q-0.6875 0 -1.046875 0.3125q-0.359375 0.296875 -0.359375 0.84375q0 0.625 0.65625 0.9375q0.65625 0.3125 2.078125 0.625q1.53125 0.359375 2.515625 0.734375q0.984375 0.375 1.703125 1.21875q0.71875 0.828125 0.71875 2.25q0 1.15625 -0.625 2.046875q-0.625 0.875 -1.796875 1.390625q-1.171875 0.5 -2.78125 0.5q-2.71875 0 -4.359375 -1.203125q-1.625 -1.203125 -1.984375 -3.4375l3.96875 0q0.09375 0.875 0.71875 1.328125q0.640625 0.453125 1.65625 0.453125q0.6875 0 1.046875 -0.328125q0.359375 -0.328125 0.359375 -0.84375q0 -0.703125 -0.65625 -1.0q-0.65625 -0.296875 -2.140625 -0.640625q-1.484375 -0.3125 -2.453125 -0.671875q-0.953125 -0.359375 -1.65625 -1.15625q-0.6875 -0.8125 -0.6875 -2.203125q0 -1.796875 1.359375 -2.90625q1.375 -1.125 3.859375 -1.125zm14.069946 -4.25l-0.5 11.734375l-3.484375 0l-0.5 -11.734375l4.484375 0zm-0.09375 13.703125l0 4.109375l-4.28125 0l0 -4.109375l4.28125 0z" fill-rule="nonzero"/></g></svg>