<svg version="1.1" viewBox="0.0 0.0 683.3858267716536 239.60367454068242" fill="none" stroke="none" stroke-linecap="square" stroke-miterlimit="10" xmlns:xlink="http://www.w3.org/1999/xlink" xmlns="http://www.w3.org/2000/svg"><clipPath id="p.0"><path d="m0 0l683.3858 0l0 239.60367l-683.3858 0l0 -239.60367z" clip-rule="nonzero"/></clipPath><g clip-path="url(#p.0)"><path fill="#000000" fill-opacity="0.0" d="m0 0l683.3858 0l0 239.60367l-683.3858 0z" fill-rule="evenodd"/><path fill="#f9c3c0" d="m13.878037 52.364937l0 0c0 -2.9919624 2.4254675 -5.417431 5.417432 -5.417431l107.11789 0c1.4367905 0 2.814743 0.57076263 3.8307037 1.586731c1.0159607 1.0159645 1.586731 2.3939095 1.586731 3.8307l0 21.669075c0 2.9919662 -2.4254608 5.4174347 -5.4174347 5.4174347l-107.11789 0c-2.9919643 0 -5.417432 -2.4254684 -5.417432 -5.4174347z" fill-rule="evenodd"/><path fill="#ffffff" d="m57.449135 67.99947l0 -6.234375l0.90625 0l0 6.234375l-0.90625 0zm0.453125 -7.453125q-0.296875 0 -0.515625 -0.203125q-0.203125 -0.21875 -0.203125 -0.53125q0 -0.296875 0.203125 -0.5q0.21875 -0.203125 0.515625 -0.203125q0.296875 0 0.5 0.203125q0.21875 0.203125 0.21875 0.515625q0 0.296875 -0.21875 0.515625q-0.203125 0.203125 -0.5 0.203125zm5.60318 1.0q0.65625 0 1.203125 0.265625q0.5625 0.265625 0.875 0.796875q0.328125 0.515625 0.328125 1.21875l0 4.171875l-0.90625 0l0 -3.765625q0 -1.859375 -1.640625 -1.859375q-0.96875 0 -1.453125 0.6875q-0.46875 0.671875 -0.46875 1.8125l0 3.125l-0.90625 0l0 -6.234375l0.90625 0l0 1.03125q0.3125 -0.59375 0.84375 -0.921875q0.53125 -0.328125 1.21875 -0.328125zm6.375931 6.671875q-0.90625 0 -1.59375 -0.390625q-0.671875 -0.390625 -1.03125 -1.09375l0.8125 -0.40625q0.484375 1.0625 1.921875 1.0625q0.703125 0 1.15625 -0.25q0.453125 -0.265625 0.453125 -0.796875q0 -0.546875 -0.375 -0.8125q-0.359375 -0.265625 -1.28125 -0.34375q-1.28125 -0.109375 -1.84375 -0.578125q-0.546875 -0.46875 -0.546875 -1.234375q0 -0.859375 0.625 -1.34375q0.625 -0.484375 1.71875 -0.484375q1.859375 0 2.53125 1.46875l-0.8125 0.40625q-0.234375 -0.546875 -0.671875 -0.796875q-0.421875 -0.25 -1.109375 -0.25q-0.6875 0 -1.0625 0.25q-0.359375 0.25 -0.359375 0.71875q0 0.4375 0.390625 0.71875q0.390625 0.265625 1.359375 0.359375q1.171875 0.09375 1.75 0.578125q0.59375 0.46875 0.59375 1.234375q0 0.625 -0.359375 1.078125q-0.359375 0.453125 -0.96875 0.6875q-0.59375 0.21875 -1.296875 0.21875zm4.3248596 -0.21875l0 -5.40625l-1.0625 0l0 -0.828125l1.0625 0l0 -2.0625l0.90625 0l0 2.0625l1.4375 0l0 0.828125l-1.4375 0l0 5.40625l-0.90625 0zm9.13398 -6.234375l0 6.234375l-0.90625 0l0 -0.921875q-0.390625 0.53125 -0.953125 0.84375q-0.5625 0.296875 -1.21875 0.296875q-0.8906326 0 -1.6093826 -0.421875q-0.703125 -0.4375 -1.109375 -1.1875q-0.390625 -0.765625 -0.390625 -1.734375q0 -0.96875 0.390625 -1.71875q0.390625 -0.75 1.09375 -1.171875q0.703125 -0.4375 1.5937576 -0.4375q0.6875 0 1.25 0.3125q0.5625 0.296875 0.953125 0.84375l0 -0.9375l0.90625 0zm-3.109375 5.625q0.640625 0 1.140625 -0.3125q0.5 -0.328125 0.78125 -0.90625q0.28125 -0.578125 0.28125 -1.296875q0 -0.71875 -0.28125 -1.28125q-0.28125 -0.578125 -0.78125 -0.890625q-0.5 -0.328125 -1.140625 -0.328125q-0.625 0 -1.1250076 0.328125q-0.484375 0.3125 -0.765625 0.875q-0.28125 0.5625 -0.28125 1.296875q0 0.71875 0.28125 1.296875q0.28125 0.578125 0.765625 0.90625q0.5000076 0.3125 1.1250076 0.3125zm4.852051 0.609375l0 -9.671875l0.90625 0l0 9.671875l-0.90625 0zm2.705597 0l0 -9.671875l0.90625 0l0 9.671875l-0.90625 0z" fill-rule="nonzero"/><path fill="#f9c3c0" d="m199.32439 92.564415l0 0c0 -2.9919662 2.425476 -5.4174347 5.4174347 -5.4174347l107.11789 0c1.4367981 0 2.8147278 0.57076263 3.830719 1.586731c1.0159607 1.0159683 1.586731 2.3939133 1.586731 3.8307037l0 21.669075c0 2.9919586 -2.425476 5.417427 -5.41745 5.417427l-107.11789 0c-2.9919586 0 -5.4174347 -2.4254684 -5.4174347 -5.417427z" fill-rule="evenodd"/><path fill="#ffffff" d="m250.65706 108.19895l0 -9.671875l0.90625 0l0 9.671875l-0.90625 0zm3.127472 0l0 -6.234375l0.90625 0l0 6.234375l-0.90625 0zm0.453125 -7.453125q-0.296875 0 -0.515625 -0.203125q-0.203125 -0.21875 -0.203125 -0.53125q0 -0.296875 0.203125 -0.5q0.21875 -0.203125 0.515625 -0.203125q0.296875 0 0.5 0.203125q0.21875 0.203125 0.21875 0.515625q0 0.296875 -0.21875 0.515625q-0.203125 0.203125 -0.5 0.203125zm5.6031647 1.0q0.65625 0 1.203125 0.265625q0.5625 0.265625 0.875 0.796875q0.328125 0.515625 0.328125 1.21875l0 4.171875l-0.90625 0l0 -3.765625q0 -1.859375 -1.640625 -1.859375q-0.96875 0 -1.453125 0.6875q-0.46875 0.671875 -0.46875 1.8125l0 3.125l-0.90625 0l0 -6.234375l0.90625 0l0 1.03125q0.3125 -0.59375 0.84375 -0.921875q0.53125 -0.328125 1.21875 -0.328125zm4.516571 6.453125l0 -5.40625l-1.0625 0l0 -0.828125l1.0625 0l0 -2.0625l0.90625 0l0 2.0625l1.4375 0l0 0.828125l-1.4375 0l0 5.40625l-0.90625 0z" fill-rule="nonzero"/><path fill="#fd7a9e" d="m384.77036 52.362312l0 0c0 -2.9919624 2.4254456 -5.417431 5.4174194 -5.417431l107.11789 0c1.4367981 0 2.8147583 0.57076263 3.830719 1.586731c1.0159607 1.0159645 1.586731 2.3939095 1.586731 3.8307l0 21.669075c0 2.9919662 -2.425476 5.4174347 -5.41745 5.4174347l-107.11789 0c-2.9919739 0 -5.4174194 -2.4254684 -5.4174194 -5.4174347z" fill-rule="evenodd"/><path fill="#ffffff" d="m433.50546 61.543724q0.890625 0 1.59375 0.4375q0.703125 0.421875 1.09375 1.171875q0.390625 0.75 0.390625 1.71875q0 0.96875 -0.40625 1.734375q-0.390625 0.75 -1.09375 1.1875q-0.703125 0.421875 -1.59375 0.421875q-0.671875 0 -1.234375 -0.296875q-0.5625 -0.3125 -0.9375 -0.84375l0 0.921875l-0.90625 0l0 -9.671875l0.90625 0l0 4.375q0.375 -0.546875 0.9375 -0.84375q0.578125 -0.3125 1.25 -0.3125zm0 5.84375q0.625 0 1.125 -0.3125q0.5 -0.328125 0.765625 -0.90625q0.28125 -0.578125 0.28125 -1.296875q0 -0.734375 -0.28125 -1.296875q-0.265625 -0.5625 -0.765625 -0.875q-0.5 -0.328125 -1.125 -0.328125q-0.640625 0 -1.140625 0.328125q-0.5 0.3125 -0.78125 0.890625q-0.265625 0.5625 -0.265625 1.28125q0 0.71875 0.265625 1.296875q0.28125 0.578125 0.78125 0.90625q0.5 0.3125 1.140625 0.3125zm9.836426 -5.625l0 6.234375l-0.90625 0l0 -1.046875q-0.3125 0.609375 -0.84375 0.9375q-0.53125 0.328125 -1.21875 0.328125q-0.65625 0 -1.203125 -0.265625q-0.546875 -0.265625 -0.875 -0.78125q-0.328125 -0.53125 -0.328125 -1.234375l0 -4.171875l0.90625 0l0 3.765625q0 1.859375 1.640625 1.859375q0.96875 0 1.4375 -0.671875q0.484375 -0.6875 0.484375 -1.84375l0 -3.109375l0.90625 0zm2.1727905 6.234375l0 -6.234375l0.90625 0l0 6.234375l-0.90625 0zm0.453125 -7.453125q-0.296875 0 -0.515625 -0.203125q-0.203125 -0.21875 -0.203125 -0.53125q0 -0.296875 0.203125 -0.5q0.21875 -0.203125 0.515625 -0.203125q0.296875 0 0.5 0.203125q0.21875 0.203125 0.21875 0.515625q0 0.296875 -0.21875 0.515625q-0.203125 0.203125 -0.5 0.203125zm2.69693 7.453125l0 -9.671875l0.90625 0l0 9.671875l-0.90625 0zm8.439972 -9.671875l0 9.671875l-0.90625 0l0 -0.921875q-0.390625 0.53125 -0.953125 0.84375q-0.5625 0.296875 -1.21875 0.296875q-0.890625 0 -1.609375 -0.421875q-0.703125 -0.4375 -1.109375 -1.1875q-0.390625 -0.765625 -0.390625 -1.734375q0 -0.96875 0.390625 -1.71875q0.390625 -0.75 1.09375 -1.171875q0.703125 -0.4375 1.59375 -0.4375q0.6875 0 1.25 0.3125q0.5625 0.296875 0.953125 0.84375l0 -4.375l0.90625 0zm-3.109375 9.0625q0.640625 0 1.140625 -0.3125q0.5 -0.328125 0.78125 -0.90625q0.28125 -0.578125 0.28125 -1.296875q0 -0.71875 -0.28125 -1.28125q-0.28125 -0.578125 -0.78125 -0.890625q-0.5 -0.328125 -1.140625 -0.328125q-0.625 0 -1.125 0.328125q-0.484375 0.3125 -0.765625 0.875q-0.28125 0.5625 -0.28125 1.296875q0 0.71875 0.28125 1.296875q0.28125 0.578125 0.765625 0.90625q0.5 0.3125 1.125 0.3125z" fill-rule="nonzero"/><path fill="#fd7a9e" d="m551.3189 52.362312l0 0c0 -2.9919624 2.425476 -5.417431 5.4174194 -5.417431l107.11786 0c1.4368286 0 2.8147583 0.57076263 3.8307495 1.586731c1.0159302 1.0159645 1.586731 2.3939095 1.586731 3.8307l0 21.669075c0 2.9919662 -2.425476 5.4174347 -5.4174805 5.4174347l-107.11786 0c-2.9919434 0 -5.4174194 -2.4254684 -5.4174194 -5.4174347z" fill-rule="evenodd"/><path fill="#ffffff" d="m567.91766 61.543724q0.890625 0 1.59375 0.4375q0.703125 0.421875 1.09375 1.1875q0.40625 0.75 0.40625 1.71875q0 0.96875 -0.390625 1.71875q-0.390625 0.75 -1.09375 1.1875q-0.703125 0.421875 -1.59375 0.421875q-0.671875 0 -1.25 -0.296875q-0.5625 -0.3125 -0.9375 -0.859375l0 3.609375l-0.90625 0l0 -8.90625l0.90625 0l0 0.921875q0.375 -0.53125 0.9375 -0.828125q0.5625 -0.3125 1.234375 -0.3125zm0.015625 5.84375q0.625 0 1.125 -0.3125q0.5 -0.328125 0.765625 -0.890625q0.28125 -0.578125 0.28125 -1.296875q0 -0.734375 -0.28125 -1.296875q-0.265625 -0.578125 -0.765625 -0.890625q-0.5 -0.328125 -1.125 -0.328125q-0.640625 0 -1.140625 0.328125q-0.5 0.3125 -0.78125 0.890625q-0.265625 0.5625 -0.265625 1.28125q0 0.71875 0.265625 1.296875q0.28125 0.578125 0.78125 0.90625q0.5 0.3125 1.140625 0.3125zm9.836426 -5.625l0 6.234375l-0.90625 0l0 -1.046875q-0.3125 0.609375 -0.84375 0.9375q-0.53125 0.328125 -1.21875 0.328125q-0.65625 0 -1.203125 -0.265625q-0.546875 -0.265625 -0.875 -0.78125q-0.328125 -0.53125 -0.328125 -1.234375l0 -4.171875l0.90625 0l0 3.765625q0 1.859375 1.640625 1.859375q0.96875 0 1.4375 -0.671875q0.484375 -0.6875 0.484375 -1.84375l0 -3.109375l0.90625 0zm3.8759766 6.453125q-0.90625 0 -1.59375 -0.390625q-0.671875 -0.390625 -1.03125 -1.09375l0.8125 -0.40625q0.484375 1.0625 1.921875 1.0625q0.703125 0 1.15625 -0.25q0.453125 -0.265625 0.453125 -0.796875q0 -0.546875 -0.375 -0.8125q-0.359375 -0.265625 -1.28125 -0.34375q-1.28125 -0.109375 -1.84375 -0.578125q-0.546875 -0.46875 -0.546875 -1.234375q0 -0.859375 0.625 -1.34375q0.625 -0.484375 1.71875 -0.484375q1.859375 0 2.53125 1.46875l-0.8125 0.40625q-0.234375 -0.546875 -0.671875 -0.796875q-0.421875 -0.25 -1.109375 -0.25q-0.6875 0 -1.0625 0.25q-0.359375 0.25 -0.359375 0.71875q0 0.4375 0.390625 0.71875q0.390625 0.265625 1.359375 0.359375q1.171875 0.09375 1.75 0.578125q0.59375 0.46875 0.59375 1.234375q0 0.625 -0.359375 1.078125q-0.359375 0.453125 -0.96875 0.6875q-0.59375 0.21875 -1.296875 0.21875zm6.965454 -6.671875q0.65625 0 1.203125 0.265625q0.5625 0.265625 0.875 0.796875q0.328125 0.515625 0.328125 1.21875l0 4.171875l-0.90625 0l0 -3.765625q0 -1.859375 -1.640625 -1.859375q-0.96875 0 -1.453125 0.6875q-0.46875 0.671875 -0.46875 1.8125l0 3.125l-0.90625 0l0 -9.671875l0.90625 0l0 4.46875q0.3125 -0.59375 0.84375 -0.921875q0.53125 -0.328125 1.21875 -0.328125zm4.0703125 3.546875l0 -0.75l3.015625 0l0 0.75l-3.015625 0zm7.312805 3.125q-0.90625 0 -1.625 -0.421875q-0.703125 -0.4375 -1.109375 -1.1875q-0.390625 -0.765625 -0.390625 -1.734375q0 -0.953125 0.390625 -1.703125q0.40625 -0.765625 1.109375 -1.1875q0.703125 -0.4375 1.59375 -0.4375q0.765625 0 1.328125 0.328125q0.5625 0.328125 1.03125 0.921875l-0.65625 0.53125q-0.65625 -0.953125 -1.703125 -0.953125q-0.625 0 -1.125 0.328125q-0.5 0.3125 -0.78125 0.890625q-0.28125 0.5625 -0.28125 1.28125q0 0.71875 0.28125 1.296875q0.28125 0.578125 0.78125 0.90625q0.5 0.3125 1.125 0.3125q0.640625 0 1.046875 -0.21875q0.421875 -0.21875 0.75 -0.65625l0.71875 0.5q-0.453125 0.546875 -1.09375 0.875q-0.640625 0.328125 -1.390625 0.328125zm6.373108 0q-0.890625 0 -1.609375 -0.421875q-0.703125 -0.4375 -1.109375 -1.203125q-0.390625 -0.765625 -0.390625 -1.71875q0 -0.96875 0.390625 -1.71875q0.390625 -0.75 1.09375 -1.171875q0.703125 -0.4375 1.59375 -0.4375q0.890625 0 1.59375 0.4375q0.71875 0.421875 1.109375 1.1875q0.40625 0.75 0.40625 1.703125q0 0.96875 -0.40625 1.734375q-0.390625 0.75 -1.09375 1.1875q-0.6875 0.421875 -1.578125 0.421875zm-0.03125 -0.828125q0.640625 0 1.140625 -0.3125q0.5 -0.328125 0.78125 -0.90625q0.28125 -0.578125 0.28125 -1.296875q0 -0.71875 -0.28125 -1.28125q-0.28125 -0.578125 -0.78125 -0.890625q-0.5 -0.328125 -1.140625 -0.328125q-0.625 0 -1.125 0.328125q-0.484375 0.3125 -0.765625 0.875q-0.28125 0.5625 -0.28125 1.296875q0 0.71875 0.28125 1.296875q0.28125 0.578125 0.765625 0.90625q0.5 0.3125 1.125 0.3125zm7.3584595 -5.84375q0.65625 0 1.203125 0.265625q0.5625 0.265625 0.875 0.796875q0.328125 0.515625 0.328125 1.21875l0 4.171875l-0.90625 0l0 -3.765625q0 -1.859375 -1.640625 -1.859375q-0.96875 0 -1.453125 0.6875q-0.46875 0.671875 -0.46875 1.8125l0 3.125l-0.90625 0l0 -6.234375l0.90625 0l0 1.03125q0.3125 -0.59375 0.84375 -0.921875q0.53125 -0.328125 1.21875 -0.328125zm4.5165405 6.453125l0 -5.40625l-1.0625 0l0 -0.828125l1.0625 0l0 -2.0625l0.90625 0l0 2.0625l1.4375 0l0 0.828125l-1.4375 0l0 5.40625l-0.90625 0zm9.133972 -6.234375l0 6.234375l-0.90625 0l0 -0.921875q-0.390625 0.53125 -0.953125 0.84375q-0.5625 0.296875 -1.21875 0.296875q-0.890625 0 -1.609375 -0.421875q-0.703125 -0.4375 -1.109375 -1.1875q-0.390625 -0.765625 -0.390625 -1.734375q0 -0.96875 0.390625 -1.71875q0.390625 -0.75 1.09375 -1.171875q0.703125 -0.4375 1.59375 -0.4375q0.6875 0 1.25 0.3125q0.5625 0.296875 0.953125 0.84375l0 -0.9375l0.90625 0zm-3.109375 5.625q0.640625 0 1.140625 -0.3125q0.5 -0.328125 0.78125 -0.90625q0.28125 -0.578125 0.28125 -1.296875q0 -0.71875 -0.28125 -1.28125q-0.28125 -0.578125 -0.78125 -0.890625q-0.5 -0.328125 -1.140625 -0.328125q-0.625 0 -1.125 0.328125q-0.484375 0.3125 -0.765625 0.875q-0.28125 0.5625 -0.28125 1.296875q0 0.71875 0.28125 1.296875q0.28125 0.578125 0.765625 0.90625q0.5 0.3125 1.125 0.3125zm5.273926 0.609375l0 -6.234375l0.90625 0l0 6.234375l-0.90625 0zm0.453125 -7.453125q-0.296875 0 -0.515625 -0.203125q-0.203125 -0.21875 -0.203125 -0.53125q0 -0.296875 0.203125 -0.5q0.21875 -0.203125 0.515625 -0.203125q0.296875 0 0.5 0.203125q0.21875 0.203125 0.21875 0.515625q0 0.296875 -0.21875 0.515625q-0.203125 0.203125 -0.5 0.203125zm5.6032104 1.0q0.65625 0 1.203125 0.265625q0.5625 0.265625 0.875 0.796875q0.328125 0.515625 0.328125 1.21875l0 4.171875l-0.90625 0l0 -3.765625q0 -1.859375 -1.640625 -1.859375q-0.96875 0 -1.453125 0.6875q-0.46875 0.671875 -0.46875 1.8125l0 3.125l-0.90625 0l0 -6.234375l0.90625 0l0 1.03125q0.3125 -0.59375 0.84375 -0.921875q0.53125 -0.328125 1.21875 -0.328125zm6.8759155 0q0.84375 0 1.515625 0.421875q0.6875 0.40625 1.0625 1.125q0.390625 0.703125 0.390625 1.59375q0 0.25 -0.015625 0.375l-5.125 0q0.046875 0.96875 0.625 1.65625q0.578125 0.671875 1.5625 0.671875q0.796875 0 1.3125 -0.296875q0.53125 -0.3125 0.859375 -0.84375l0.71875 0.484375q-0.4375 0.6875 -1.15625 1.09375q-0.71875 0.390625 -1.703125 0.390625q-0.90625 0 -1.625 -0.421875q-0.703125 -0.4375 -1.109375 -1.1875q-0.390625 -0.765625 -0.390625 -1.734375q0 -0.953125 0.390625 -1.703125q0.390625 -0.765625 1.09375 -1.1875q0.703125 -0.4375 1.59375 -0.4375zm2.0625 2.78125q-0.125 -0.984375 -0.65625 -1.46875q-0.515625 -0.484375 -1.40625 -0.484375q-0.859375 0 -1.421875 0.5625q-0.546875 0.546875 -0.703125 1.390625l4.1875 0zm5.3097534 -2.78125q0.3125 0 0.609375 0.09375l0 0.828125q-0.28125 -0.140625 -0.609375 -0.140625q-0.578125 0 -1.078125 0.328125q-0.484375 0.3125 -0.78125 0.921875q-0.296875 0.609375 -0.296875 1.4375l0 2.984375l-0.90625 0l0 -6.234375l0.90625 0l0 1.25q0.359375 -0.6875 0.90625 -1.078125q0.5625 -0.390625 1.25 -0.390625zm3.6431885 6.671875q-0.90625 0 -1.59375 -0.390625q-0.671875 -0.390625 -1.03125 -1.09375l0.8125 -0.40625q0.484375 1.0625 1.921875 1.0625q0.703125 0 1.15625 -0.25q0.453125 -0.265625 0.453125 -0.796875q0 -0.546875 -0.375 -0.8125q-0.359375 -0.265625 -1.28125 -0.34375q-1.28125 -0.109375 -1.84375 -0.578125q-0.546875 -0.46875 -0.546875 -1.234375q0 -0.859375 0.625 -1.34375q0.625 -0.484375 1.71875 -0.484375q1.859375 0 2.53125 1.46875l-0.8125 0.40625q-0.234375 -0.546875 -0.671875 -0.796875q-0.421875 -0.25 -1.109375 -0.25q-0.6875 0 -1.0625 0.25q-0.359375 0.25 -0.359375 0.71875q0 0.4375 0.390625 0.71875q0.390625 0.265625 1.359375 0.359375q1.171875 0.09375 1.75 0.578125q0.59375 0.46875 0.59375 1.234375q0 0.625 -0.359375 1.078125q-0.359375 0.453125 -0.96875 0.6875q-0.59375 0.21875 -1.296875 0.21875z" fill-rule="nonzero"/><path fill="#fd775e" d="m384.7743 131.1156l0 0c0 -2.9919739 2.4254456 -5.4174347 5.4174194 -5.4174347l157.4801 0c1.4367676 0 2.8147583 0.57076263 3.8306885 1.5867233c1.0159912 1.0159683 1.586731 2.3939133 1.586731 3.8307114l0 21.669067c0 2.9919586 -2.425476 5.4174347 -5.4174194 5.4174347l-157.4801 0l0 0c-2.9919739 0 -5.4174194 -2.425476 -5.4174194 -5.4174347z" fill-rule="evenodd"/><path fill="#ffffff" d="m409.3697 140.29701q0.3125 0 0.609375 0.09375l0 0.828125q-0.28125 -0.140625 -0.609375 -0.140625q-0.578125 0 -1.078125 0.328125q-0.484375 0.3125 -0.78125 0.921875q-0.296875 0.609375 -0.296875 1.4375l0 2.984375l-0.90625 0l0 -6.234375l0.90625 0l0 1.25q0.359375 -0.6875 0.90625 -1.078125q0.5625 -0.390625 1.25 -0.390625zm4.143219 0q0.84375 0 1.515625 0.421875q0.6875 0.40625 1.0625 1.125q0.390625 0.703125 0.390625 1.59375q0 0.25 -0.015625 0.375l-5.125 0q0.046875 0.96875 0.625 1.65625q0.578125 0.671875 1.5625 0.671875q0.796875 0 1.3125 -0.296875q0.53125 -0.3125 0.859375 -0.84375l0.71875 0.484375q-0.4375 0.6875 -1.15625 1.09375q-0.71875 0.390625 -1.703125 0.390625q-0.90625 0 -1.625 -0.421875q-0.703125 -0.4375 -1.109375 -1.1875q-0.390625 -0.765625 -0.390625 -1.734375q0 -0.953125 0.390625 -1.703125q0.390625 -0.765625 1.09375 -1.1875q0.703125 -0.4375 1.59375 -0.4375zm2.0625 2.78125q-0.125 -0.984375 -0.65625 -1.46875q-0.515625 -0.484375 -1.40625 -0.484375q-0.859375 0 -1.421875 0.5625q-0.546875 0.546875 -0.703125 1.390625l4.1875 0zm2.3097534 3.671875l0 -9.671875l0.90625 0l0 9.671875l-0.90625 0zm5.330597 -6.453125q0.84375 0 1.515625 0.421875q0.6875 0.40625 1.0625 1.125q0.390625 0.703125 0.390625 1.59375q0 0.25 -0.015625 0.375l-5.125 0q0.046875 0.96875 0.625 1.65625q0.578125 0.671875 1.5625 0.671875q0.796875 0 1.3125 -0.296875q0.53125 -0.3125 0.859375 -0.84375l0.71875 0.484375q-0.4375 0.6875 -1.15625 1.09375q-0.71875 0.390625 -1.703125 0.390625q-0.90625 0 -1.625 -0.421875q-0.703125 -0.4375 -1.109375 -1.1875q-0.390625 -0.765625 -0.390625 -1.734375q0 -0.953125 0.390625 -1.703125q0.390625 -0.765625 1.09375 -1.1875q0.703125 -0.4375 1.59375 -0.4375zm2.0625 2.78125q-0.125 -0.984375 -0.65625 -1.46875q-0.515625 -0.484375 -1.40625 -0.484375q-0.859375 0 -1.421875 0.5625q-0.546875 0.546875 -0.703125 1.390625l4.1875 0zm8.044098 -2.5625l0 6.234375l-0.90625 0l0 -0.921875q-0.390625 0.53125 -0.953125 0.84375q-0.5625 0.296875 -1.21875 0.296875q-0.890625 0 -1.609375 -0.421875q-0.703125 -0.4375 -1.109375 -1.1875q-0.390625 -0.765625 -0.390625 -1.734375q0 -0.96875 0.390625 -1.71875q0.390625 -0.75 1.09375 -1.171875q0.703125 -0.4375 1.59375 -0.4375q0.6875 0 1.25 0.3125q0.5625 0.296875 0.953125 0.84375l0 -0.9375l0.90625 0zm-3.109375 5.625q0.640625 0 1.140625 -0.3125q0.5 -0.328125 0.78125 -0.90625q0.28125 -0.578125 0.28125 -1.296875q0 -0.71875 -0.28125 -1.28125q-0.28125 -0.578125 -0.78125 -0.890625q-0.5 -0.328125 -1.140625 -0.328125q-0.625 0 -1.125 0.328125q-0.484375 0.3125 -0.765625 0.875q-0.28125 0.5625 -0.28125 1.296875q0 0.71875 0.28125 1.296875q0.28125 0.578125 0.765625 0.90625q0.5 0.3125 1.125 0.3125zm6.977051 0.828125q-0.90625 0 -1.59375 -0.390625q-0.671875 -0.390625 -1.03125 -1.09375l0.8125 -0.40625q0.484375 1.0625 1.921875 1.0625q0.703125 0 1.15625 -0.25q0.453125 -0.265625 0.453125 -0.796875q0 -0.546875 -0.375 -0.8125q-0.359375 -0.265625 -1.28125 -0.34375q-1.28125 -0.109375 -1.84375 -0.578125q-0.546875 -0.46875 -0.546875 -1.234375q0 -0.859375 0.625 -1.34375q0.625 -0.484375 1.71875 -0.484375q1.859375 0 2.53125 1.46875l-0.8125 0.40625q-0.234375 -0.546875 -0.671875 -0.796875q-0.421875 -0.25 -1.109375 -0.25q-0.6875 0 -1.0625 0.25q-0.359375 0.25 -0.359375 0.71875q0 0.4375 0.390625 0.71875q0.390625 0.265625 1.359375 0.359375q1.171875 0.09375 1.75 0.578125q0.59375 0.46875 0.59375 1.234375q0 0.625 -0.359375 1.078125q-0.359375 0.453125 -0.96875 0.6875q-0.59375 0.21875 -1.296875 0.21875zm6.6842346 -6.671875q0.84375 0 1.515625 0.421875q0.6875 0.40625 1.0625 1.125q0.390625 0.703125 0.390625 1.59375q0 0.25 -0.015625 0.375l-5.125 0q0.046875 0.96875 0.625 1.65625q0.578125 0.671875 1.5625 0.671875q0.796875 0 1.3125 -0.296875q0.53125 -0.3125 0.859375 -0.84375l0.71875 0.484375q-0.4375 0.6875 -1.15625 1.09375q-0.71875 0.390625 -1.703125 0.390625q-0.90625 0 -1.625 -0.421875q-0.703125 -0.4375 -1.109375 -1.1875q-0.390625 -0.765625 -0.390625 -1.734375q0 -0.953125 0.390625 -1.703125q0.390625 -0.765625 1.09375 -1.1875q0.703125 -0.4375 1.59375 -0.4375zm2.0625 2.78125q-0.125 -0.984375 -0.65625 -1.46875q-0.515625 -0.484375 -1.40625 -0.484375q-0.859375 0 -1.421875 0.5625q-0.546875 0.546875 -0.703125 1.390625l4.1875 0zm2.1691284 0.765625l0 -0.75l3.015625 0l0 0.75l-3.015625 0zm7.7033997 -3.546875q0.890625 0 1.59375 0.4375q0.703125 0.421875 1.09375 1.1875q0.40625 0.75 0.40625 1.71875q0 0.96875 -0.390625 1.71875q-0.390625 0.75 -1.09375 1.1875q-0.703125 0.421875 -1.59375 0.421875q-0.671875 0 -1.25 -0.296875q-0.5625 -0.3125 -0.9375 -0.859375l0 3.609375l-0.90625 0l0 -8.90625l0.90625 0l0 0.921875q0.375 -0.53125 0.9375 -0.828125q0.5625 -0.3125 1.234375 -0.3125zm0.015625 5.84375q0.625 0 1.125 -0.3125q0.5 -0.328125 0.765625 -0.890625q0.28125 -0.578125 0.28125 -1.296875q0 -0.734375 -0.28125 -1.296875q-0.265625 -0.578125 -0.765625 -0.890625q-0.5 -0.328125 -1.125 -0.328125q-0.640625 0 -1.140625 0.328125q-0.5 0.3125 -0.78125 0.890625q-0.265625 0.5625 -0.265625 1.28125q0 0.71875 0.265625 1.296875q0.28125 0.578125 0.78125 0.90625q0.5 0.3125 1.140625 0.3125zm7.430176 -5.84375q0.3125 0 0.609375 0.09375l0 0.828125q-0.28125 -0.140625 -0.609375 -0.140625q-0.578125 0 -1.078125 0.328125q-0.484375 0.3125 -0.78125 0.921875q-0.296875 0.609375 -0.296875 1.4375l0 2.984375l-0.90625 0l0 -6.234375l0.90625 0l0 1.25q0.359375 -0.6875 0.90625 -1.078125q0.5625 -0.390625 1.25 -0.390625zm4.143219 0q0.84375 0 1.515625 0.421875q0.6875 0.40625 1.0625 1.125q0.390625 0.703125 0.390625 1.59375q0 0.25 -0.015625 0.375l-5.125 0q0.046875 0.96875 0.625 1.65625q0.578125 0.671875 1.5625 0.671875q0.796875 0 1.3125 -0.296875q0.53125 -0.3125 0.859375 -0.84375l0.71875 0.484375q-0.4375 0.6875 -1.15625 1.09375q-0.71875 0.390625 -1.703125 0.390625q-0.90625 0 -1.625 -0.421875q-0.703125 -0.4375 -1.109375 -1.1875q-0.390625 -0.765625 -0.390625 -1.734375q0 -0.953125 0.390625 -1.703125q0.390625 -0.765625 1.09375 -1.1875q0.703125 -0.4375 1.59375 -0.4375zm2.0625 2.78125q-0.125 -0.984375 -0.65625 -1.46875q-0.515625 -0.484375 -1.40625 -0.484375q-0.859375 0 -1.421875 0.5625q-0.546875 0.546875 -0.703125 1.390625l4.1875 0zm5.3410034 -2.78125q0.890625 0 1.59375 0.4375q0.703125 0.421875 1.09375 1.1875q0.40625 0.75 0.40625 1.71875q0 0.96875 -0.390625 1.71875q-0.390625 0.75 -1.09375 1.1875q-0.703125 0.421875 -1.59375 0.421875q-0.671875 0 -1.25 -0.296875q-0.5625 -0.3125 -0.9375 -0.859375l0 3.609375l-0.90625 0l0 -8.90625l0.90625 0l0 0.921875q0.375 -0.53125 0.9375 -0.828125q0.5625 -0.3125 1.234375 -0.3125zm0.015625 5.84375q0.625 0 1.125 -0.3125q0.5 -0.328125 0.765625 -0.890625q0.28125 -0.578125 0.28125 -1.296875q0 -0.734375 -0.28125 -1.296875q-0.265625 -0.578125 -0.765625 -0.890625q-0.5 -0.328125 -1.125 -0.328125q-0.640625 0 -1.140625 0.328125q-0.5 0.3125 -0.78125 0.890625q-0.265625 0.5625 -0.265625 1.28125q0 0.71875 0.265625 1.296875q0.28125 0.578125 0.78125 0.90625q0.5 0.3125 1.140625 0.3125zm7.430176 -5.84375q0.3125 0 0.609375 0.09375l0 0.828125q-0.28125 -0.140625 -0.609375 -0.140625q-0.578125 0 -1.078125 0.328125q-0.484375 0.3125 -0.78125 0.921875q-0.296875 0.609375 -0.296875 1.4375l0 2.984375l-0.90625 0l0 -6.234375l0.90625 0l0 1.25q0.359375 -0.6875 0.90625 -1.078125q0.5625 -0.390625 1.25 -0.390625zm4.174469 6.671875q-0.890625 0 -1.609375 -0.421875q-0.703125 -0.4375 -1.109375 -1.203125q-0.390625 -0.765625 -0.390625 -1.71875q0 -0.96875 0.390625 -1.71875q0.390625 -0.75 1.09375 -1.171875q0.703125 -0.4375 1.59375 -0.4375q0.890625 0 1.59375 0.4375q0.71875 0.421875 1.109375 1.1875q0.40625 0.75 0.40625 1.703125q0 0.96875 -0.40625 1.734375q-0.390625 0.75 -1.09375 1.1875q-0.6875 0.421875 -1.578125 0.421875zm-0.03125 -0.828125q0.640625 0 1.140625 -0.3125q0.5 -0.328125 0.78125 -0.90625q0.28125 -0.578125 0.28125 -1.296875q0 -0.71875 -0.28125 -1.28125q-0.28125 -0.578125 -0.78125 -0.890625q-0.5 -0.328125 -1.140625 -0.328125q-0.625 0 -1.125 0.328125q-0.484375 0.3125 -0.765625 0.875q-0.28125 0.5625 -0.28125 1.296875q0 0.71875 0.28125 1.296875q0.28125 0.578125 0.765625 0.90625q0.5 0.3125 1.125 0.3125zm10.186584 -9.0625l0 9.671875l-0.90625 0l0 -0.921875q-0.390625 0.53125 -0.953125 0.84375q-0.5625 0.296875 -1.21875 0.296875q-0.890625 0 -1.609375 -0.421875q-0.703125 -0.4375 -1.109375 -1.1875q-0.390625 -0.765625 -0.390625 -1.734375q0 -0.96875 0.390625 -1.71875q0.390625 -0.75 1.09375 -1.171875q0.703125 -0.4375 1.59375 -0.4375q0.6875 0 1.25 0.3125q0.5625 0.296875 0.953125 0.84375l0 -4.375l0.90625 0zm-3.109375 9.0625q0.640625 0 1.140625 -0.3125q0.5 -0.328125 0.78125 -0.90625q0.28125 -0.578125 0.28125 -1.296875q0 -0.71875 -0.28125 -1.28125q-0.28125 -0.578125 -0.78125 -0.890625q-0.5 -0.328125 -1.140625 -0.328125q-0.625 0 -1.125 0.328125q-0.484375 0.3125 -0.765625 0.875q-0.28125 0.5625 -0.28125 1.296875q0 0.71875 0.28125 1.296875q0.28125 0.578125 0.765625 0.90625q0.5 0.3125 1.125 0.3125zm10.258301 -5.625l0 6.234375l-0.90625 0l0 -1.046875q-0.3125 0.609375 -0.84375 0.9375q-0.53125 0.328125 -1.21875 0.328125q-0.65625 0 -1.203125 -0.265625q-0.546875 -0.265625 -0.875 -0.78125q-0.328125 -0.53125 -0.328125 -1.234375l0 -4.171875l0.90625 0l0 3.765625q0 1.859375 1.640625 1.859375q0.96875 0 1.4375 -0.671875q0.484375 -0.6875 0.484375 -1.84375l0 -3.109375l0.90625 0zm4.3915405 6.453125q-0.90625 0 -1.625 -0.421875q-0.703125 -0.4375 -1.109375 -1.1875q-0.390625 -0.765625 -0.390625 -1.734375q0 -0.953125 0.390625 -1.703125q0.40625 -0.765625 1.109375 -1.1875q0.703125 -0.4375 1.59375 -0.4375q0.765625 0 1.328125 0.328125q0.5625 0.328125 1.03125 0.921875l-0.65625 0.53125q-0.65625 -0.953125 -1.703125 -0.953125q-0.625 0 -1.125 0.328125q-0.5 0.3125 -0.78125 0.890625q-0.28125 0.5625 -0.28125 1.28125q0 0.71875 0.28125 1.296875q0.28125 0.578125 0.78125 0.90625q0.5 0.3125 1.125 0.3125q0.640625 0 1.046875 -0.21875q0.421875 -0.21875 0.75 -0.65625l0.71875 0.5q-0.453125 0.546875 -1.09375 0.875q-0.640625 0.328125 -1.390625 0.328125zm3.9825134 -0.21875l0 -5.40625l-1.0625 0l0 -0.828125l1.0625 0l0 -2.0625l0.90625 0l0 2.0625l1.4375 0l0 0.828125l-1.4375 0l0 5.40625l-0.90625 0zm3.8214722 0l0 -6.234375l0.90625 0l0 6.234375l-0.90625 0zm0.453125 -7.453125q-0.296875 0 -0.515625 -0.203125q-0.203125 -0.21875 -0.203125 -0.53125q0 -0.296875 0.203125 -0.5q0.21875 -0.203125 0.515625 -0.203125q0.296875 0 0.5 0.203125q0.21875 0.203125 0.21875 0.515625q0 0.296875 -0.21875 0.515625q-0.203125 0.203125 -0.5 0.203125zm5.3531494 7.671875q-0.890625 0 -1.609375 -0.421875q-0.703125 -0.4375 -1.109375 -1.203125q-0.390625 -0.765625 -0.390625 -1.71875q0 -0.96875 0.390625 -1.71875q0.390625 -0.75 1.09375 -1.171875q0.703125 -0.4375 1.59375 -0.4375q0.890625 0 1.59375 0.4375q0.71875 0.421875 1.109375 1.1875q0.40625 0.75 0.40625 1.703125q0 0.96875 -0.40625 1.734375q-0.390625 0.75 -1.09375 1.1875q-0.6875 0.421875 -1.578125 0.421875zm-0.03125 -0.828125q0.640625 0 1.140625 -0.3125q0.5 -0.328125 0.78125 -0.90625q0.28125 -0.578125 0.28125 -1.296875q0 -0.71875 -0.28125 -1.28125q-0.28125 -0.578125 -0.78125 -0.890625q-0.5 -0.328125 -1.140625 -0.328125q-0.625 0 -1.125 0.328125q-0.484375 0.3125 -0.765625 0.875q-0.28125 0.5625 -0.28125 1.296875q0 0.71875 0.28125 1.296875q0.28125 0.578125 0.765625 0.90625q0.5 0.3125 1.125 0.3125zm7.3584595 -5.84375q0.65625 0 1.203125 0.265625q0.5625 0.265625 0.875 0.796875q0.328125 0.515625 0.328125 1.21875l0 4.171875l-0.90625 0l0 -3.765625q0 -1.859375 -1.640625 -1.859375q-0.96875 0 -1.453125 0.6875q-0.46875 0.671875 -0.46875 1.8125l0 3.125l-0.90625 0l0 -6.234375l0.90625 0l0 1.03125q0.3125 -0.59375 0.84375 -0.921875q0.53125 -0.328125 1.21875 -0.328125z" fill-rule="nonzero"/><path fill="#f9c3c0" d="m199.32425 52.364937l0 0c0 -2.9919624 2.4254608 -5.417431 5.4174194 -5.417431l107.11789 0c1.4367981 0 2.8147583 0.57076263 3.830719 1.586731c1.0159607 1.0159645 1.586731 2.3939095 1.586731 3.8307l0 21.669075c0 2.9919662 -2.425476 5.4174347 -5.41745 5.4174347l-107.11789 0c-2.9919586 0 -5.4174194 -2.4254684 -5.4174194 -5.4174347z" fill-rule="evenodd"/><path fill="#ffffff" d="m249.21654 67.99947l0 -5.40625l-1.0625 0l0 -0.828125l1.0625 0l0 -2.0625l0.90625 0l0 2.0625l1.4375 0l0 0.828125l-1.4375 0l0 5.40625l-0.90625 0zm6.024597 -6.453125q0.84376526 0 1.5156403 0.421875q0.6875 0.40625 1.0625 1.125q0.390625 0.703125 0.390625 1.59375q0 0.25 -0.015625 0.375l-5.1250153 0q0.046875 0.96875 0.625 1.65625q0.578125 0.671875 1.5625 0.671875q0.79689026 0 1.3125153 -0.296875q0.53125 -0.3125 0.859375 -0.84375l0.71875 0.484375q-0.4375 0.6875 -1.15625 1.09375q-0.71875 0.390625 -1.7031403 0.390625q-0.90625 0 -1.625 -0.421875q-0.703125 -0.4375 -1.109375 -1.1875q-0.390625 -0.765625 -0.390625 -1.734375q0 -0.953125 0.390625 -1.703125q0.390625 -0.765625 1.09375 -1.1875q0.703125 -0.4375 1.59375 -0.4375zm2.0625153 2.78125q-0.125 -0.984375 -0.65625 -1.46875q-0.515625 -0.484375 -1.4062653 -0.484375q-0.859375 0 -1.421875 0.5625q-0.546875 0.546875 -0.703125 1.390625l4.1875153 0zm4.434723 3.890625q-0.90625 0 -1.59375 -0.390625q-0.671875 -0.390625 -1.03125 -1.09375l0.8125 -0.40625q0.484375 1.0625 1.921875 1.0625q0.703125 0 1.15625 -0.25q0.453125 -0.265625 0.453125 -0.796875q0 -0.546875 -0.375 -0.8125q-0.359375 -0.265625 -1.28125 -0.34375q-1.28125 -0.109375 -1.84375 -0.578125q-0.546875 -0.46875 -0.546875 -1.234375q0 -0.859375 0.625 -1.34375q0.625 -0.484375 1.71875 -0.484375q1.859375 0 2.53125 1.46875l-0.8125 0.40625q-0.234375 -0.546875 -0.671875 -0.796875q-0.421875 -0.25 -1.109375 -0.25q-0.6875 0 -1.0625 0.25q-0.359375 0.25 -0.359375 0.71875q0 0.4375 0.390625 0.71875q0.390625 0.265625 1.359375 0.359375q1.171875 0.09375 1.75 0.578125q0.59375 0.46875 0.59375 1.234375q0 0.625 -0.359375 1.078125q-0.359375 0.453125 -0.96875 0.6875q-0.59375 0.21875 -1.296875 0.21875zm4.3248596 -0.21875l0 -5.40625l-1.0625 0l0 -0.828125l1.0625 0l0 -2.0625l0.90625 0l0 2.0625l1.4375 0l0 0.828125l-1.4375 0l0 5.40625l-0.90625 0z" fill-rule="nonzero"/><path fill="#000000" fill-opacity="0.0" d="m131.8308 63.199474l67.49606 0" fill-rule="evenodd"/><path stroke="#194cac" stroke-width="1.0" stroke-linejoin="round" stroke-linecap="butt" stroke-dasharray="1.0,3.0" d="m131.8308 63.199474l61.496063 0" fill-rule="evenodd"/><path fill="#194cac" stroke="#194cac" stroke-width="1.0" stroke-linecap="butt" d="m193.32686 64.851204l4.538086 -1.6517296l-4.538086 -1.6517334z" fill-rule="evenodd"/><path fill="#000000" fill-opacity="0.0" d="m131.8308 63.199474l67.49606 40.188976" fill-rule="evenodd"/><path stroke="#194cac" stroke-width="1.0" stroke-linejoin="round" stroke-linecap="butt" stroke-dasharray="1.0,3.0" d="m131.8308 63.199474l62.34073 37.11935" fill-rule="evenodd"/><path fill="#194cac" stroke="#194cac" stroke-width="1.0" stroke-linecap="butt" d="m193.32649 101.73804l4.7442627 0.90249634l-3.0541992 -3.7409058z" fill-rule="evenodd"/><path fill="#000000" fill-opacity="0.0" d="m317.277 63.199474l67.49606 0" fill-rule="evenodd"/><path stroke="#194cac" stroke-width="1.0" stroke-linejoin="round" stroke-linecap="butt" stroke-dasharray="1.0,3.0" d="m317.277 63.199474l61.496033 0" fill-rule="evenodd"/><path fill="#194cac" stroke="#194cac" stroke-width="1.0" stroke-linecap="butt" d="m378.77304 64.851204l4.5381165 -1.6517296l-4.5381165 -1.6517334z" fill-rule="evenodd"/><path fill="#000000" fill-opacity="0.0" d="m317.27716 103.39895l67.49606 -40.188976" fill-rule="evenodd"/><path stroke="#194cac" stroke-width="1.0" stroke-linejoin="round" stroke-linecap="butt" stroke-dasharray="1.0,3.0" d="m317.27716 103.39895l62.3407 -37.119354" fill-rule="evenodd"/><path fill="#194cac" stroke="#194cac" stroke-width="1.0" stroke-linecap="butt" d="m380.46292 67.6988l3.0541992 -3.7409096l-4.7442627 0.90250015z" fill-rule="evenodd"/><path fill="#000000" fill-opacity="0.0" d="m502.7231 63.19685l48.59842 0" fill-rule="evenodd"/><path stroke="#194cac" stroke-width="1.0" stroke-linejoin="round" stroke-linecap="butt" stroke-dasharray="1.0,3.0" d="m502.72308 63.19685l42.59845 0" fill-rule="evenodd"/><path fill="#194cac" stroke="#194cac" stroke-width="1.0" stroke-linecap="butt" d="m545.32153 64.84858l4.538086 -1.6517296l-4.538086 -1.6517334z" fill-rule="evenodd"/><path fill="#fd775e" d="m384.77692 193.81113l0 0c0 -2.9919586 2.4254456 -5.4174194 5.4174194 -5.4174194l157.4801 0c1.4367676 0 2.8147583 0.570755 3.8306885 1.5867157c1.0159912 1.015976 1.586731 2.393921 1.586731 3.8307037l0 21.669083c0 2.9919586 -2.425476 5.4174347 -5.4174194 5.4174347l-157.4801 0l0 0c-2.9919739 0 -5.4174194 -2.425476 -5.4174194 -5.4174347z" fill-rule="evenodd"/><path fill="#ffffff" d="m418.8686 202.99254q0.3125 0 0.609375 0.09375l0 0.828125q-0.28125 -0.140625 -0.609375 -0.140625q-0.578125 0 -1.078125 0.328125q-0.484375 0.3125 -0.78125 0.921875q-0.296875 0.609375 -0.296875 1.4375l0 2.984375l-0.90625 0l0 -6.234375l0.90625 0l0 1.25q0.359375 -0.6875 0.90625 -1.078125q0.5625 -0.390625 1.25 -0.390625zm4.143219 0q0.84375 0 1.515625 0.421875q0.6875 0.40625 1.0625 1.125q0.390625 0.703125 0.390625 1.59375q0 0.25 -0.015625 0.375l-5.125 0q0.046875 0.96875 0.625 1.65625q0.578125 0.671875 1.5625 0.671875q0.796875 0 1.3125 -0.296875q0.53125 -0.3125 0.859375 -0.84375l0.71875 0.484375q-0.4375 0.6875 -1.15625 1.09375q-0.71875 0.390625 -1.703125 0.390625q-0.90625 0 -1.625 -0.421875q-0.703125 -0.4375 -1.109375 -1.1875q-0.390625 -0.765625 -0.390625 -1.734375q0 -0.953125 0.390625 -1.703125q0.390625 -0.765625 1.09375 -1.1875q0.703125 -0.4375 1.59375 -0.4375zm2.0625 2.78125q-0.125 -0.984375 -0.65625 -1.46875q-0.515625 -0.484375 -1.40625 -0.484375q-0.859375 0 -1.421875 0.5625q-0.546875 0.546875 -0.703125 1.390625l4.1875 0zm2.309723 3.671875l0 -9.671875l0.90625 0l0 9.671875l-0.90625 0zm5.330597 -6.453125q0.84375 0 1.515625 0.421875q0.6875 0.40625 1.0625 1.125q0.390625 0.703125 0.390625 1.59375q0 0.25 -0.015625 0.375l-5.125 0q0.046875 0.96875 0.625 1.65625q0.578125 0.671875 1.5625 0.671875q0.796875 0 1.3125 -0.296875q0.53125 -0.3125 0.859375 -0.84375l0.71875 0.484375q-0.4375 0.6875 -1.15625 1.09375q-0.71875 0.390625 -1.703125 0.390625q-0.90625 0 -1.625 -0.421875q-0.703125 -0.4375 -1.109375 -1.1875q-0.390625 -0.765625 -0.390625 -1.734375q0 -0.953125 0.390625 -1.703125q0.390625 -0.765625 1.09375 -1.1875q0.703125 -0.4375 1.59375 -0.4375zm2.0625 2.78125q-0.125 -0.984375 -0.65625 -1.46875q-0.515625 -0.484375 -1.40625 -0.484375q-0.859375 0 -1.421875 0.5625q-0.546875 0.546875 -0.703125 1.390625l4.1875 0zm8.044128 -2.5625l0 6.234375l-0.90625 0l0 -0.921875q-0.390625 0.53125 -0.953125 0.84375q-0.5625 0.296875 -1.21875 0.296875q-0.890625 0 -1.609375 -0.421875q-0.703125 -0.4375 -1.109375 -1.1875q-0.390625 -0.765625 -0.390625 -1.734375q0 -0.96875 0.390625 -1.71875q0.390625 -0.75 1.09375 -1.171875q0.703125 -0.4375 1.59375 -0.4375q0.6875 0 1.25 0.3125q0.5625 0.296875 0.953125 0.84375l0 -0.9375l0.90625 0zm-3.109375 5.625q0.640625 0 1.140625 -0.3125q0.5 -0.328125 0.78125 -0.90625q0.28125 -0.578125 0.28125 -1.296875q0 -0.71875 -0.28125 -1.28125q-0.28125 -0.578125 -0.78125 -0.890625q-0.5 -0.328125 -1.140625 -0.328125q-0.625 0 -1.125 0.328125q-0.484375 0.3125 -0.765625 0.875q-0.28125 0.5625 -0.28125 1.296875q0 0.71875 0.28125 1.296875q0.28125 0.578125 0.765625 0.90625q0.5 0.3125 1.125 0.3125zm6.977051 0.828125q-0.90625 0 -1.59375 -0.390625q-0.671875 -0.390625 -1.03125 -1.09375l0.8125 -0.40625q0.484375 1.0625 1.921875 1.0625q0.703125 0 1.15625 -0.25q0.453125 -0.265625 0.453125 -0.796875q0 -0.546875 -0.375 -0.8125q-0.359375 -0.265625 -1.28125 -0.34375q-1.28125 -0.109375 -1.84375 -0.578125q-0.546875 -0.46875 -0.546875 -1.234375q0 -0.859375 0.625 -1.34375q0.625 -0.484375 1.71875 -0.484375q1.859375 0 2.53125 1.46875l-0.8125 0.40625q-0.234375 -0.546875 -0.671875 -0.796875q-0.421875 -0.25 -1.109375 -0.25q-0.6875 0 -1.0625 0.25q-0.359375 0.25 -0.359375 0.71875q0 0.4375 0.390625 0.71875q0.390625 0.265625 1.359375 0.359375q1.171875 0.09375 1.75 0.578125q0.59375 0.46875 0.59375 1.234375q0 0.625 -0.359375 1.078125q-0.359375 0.453125 -0.96875 0.6875q-0.59375 0.21875 -1.296875 0.21875zm6.6842346 -6.671875q0.84375 0 1.515625 0.421875q0.6875 0.40625 1.0625 1.125q0.390625 0.703125 0.390625 1.59375q0 0.25 -0.015625 0.375l-5.125 0q0.046875 0.96875 0.625 1.65625q0.578125 0.671875 1.5625 0.671875q0.796875 0 1.3125 -0.296875q0.53125 -0.3125 0.859375 -0.84375l0.71875 0.484375q-0.4375 0.6875 -1.15625 1.09375q-0.71875 0.390625 -1.703125 0.390625q-0.90625 0 -1.625 -0.421875q-0.703125 -0.4375 -1.109375 -1.1875q-0.390625 -0.765625 -0.390625 -1.734375q0 -0.953125 0.390625 -1.703125q0.390625 -0.765625 1.09375 -1.1875q0.703125 -0.4375 1.59375 -0.4375zm2.0625 2.78125q-0.125 -0.984375 -0.65625 -1.46875q-0.515625 -0.484375 -1.40625 -0.484375q-0.859375 0 -1.421875 0.5625q-0.546875 0.546875 -0.703125 1.390625l4.1875 0zm2.169098 0.765625l0 -0.75l3.015625 0l0 0.75l-3.015625 0zm7.70343 -3.546875q0.890625 0 1.59375 0.4375q0.703125 0.421875 1.09375 1.1875q0.40625 0.75 0.40625 1.71875q0 0.96875 -0.390625 1.71875q-0.390625 0.75 -1.09375 1.1875q-0.703125 0.421875 -1.59375 0.421875q-0.671875 0 -1.25 -0.296875q-0.5625 -0.3125 -0.9375 -0.859375l0 3.609375l-0.90625 0l0 -8.90625l0.90625 0l0 0.921875q0.375 -0.53125 0.9375 -0.828125q0.5625 -0.3125 1.234375 -0.3125zm0.015625 5.84375q0.625 0 1.125 -0.3125q0.5 -0.328125 0.765625 -0.890625q0.28125 -0.578125 0.28125 -1.296875q0 -0.734375 -0.28125 -1.296875q-0.265625 -0.578125 -0.765625 -0.890625q-0.5 -0.328125 -1.125 -0.328125q-0.640625 0 -1.140625 0.328125q-0.5 0.3125 -0.78125 0.890625q-0.265625 0.5625 -0.265625 1.28125q0 0.71875 0.265625 1.296875q0.28125 0.578125 0.78125 0.90625q0.5 0.3125 1.140625 0.3125zm7.430176 -5.84375q0.3125 0 0.609375 0.09375l0 0.828125q-0.28125 -0.140625 -0.609375 -0.140625q-0.578125 0 -1.078125 0.328125q-0.484375 0.3125 -0.78125 0.921875q-0.296875 0.609375 -0.296875 1.4375l0 2.984375l-0.90625 0l0 -6.234375l0.90625 0l0 1.25q0.359375 -0.6875 0.90625 -1.078125q0.5625 -0.390625 1.25 -0.390625zm4.174469 6.671875q-0.890625 0 -1.609375 -0.421875q-0.703125 -0.4375 -1.109375 -1.203125q-0.390625 -0.765625 -0.390625 -1.71875q0 -0.96875 0.390625 -1.71875q0.390625 -0.75 1.09375 -1.171875q0.703125 -0.4375 1.59375 -0.4375q0.890625 0 1.59375 0.4375q0.71875 0.421875 1.109375 1.1875q0.40625 0.75 0.40625 1.703125q0 0.96875 -0.40625 1.734375q-0.390625 0.75 -1.09375 1.1875q-0.6875 0.421875 -1.578125 0.421875zm-0.03125 -0.828125q0.640625 0 1.140625 -0.3125q0.5 -0.328125 0.78125 -0.90625q0.28125 -0.578125 0.28125 -1.296875q0 -0.71875 -0.28125 -1.28125q-0.28125 -0.578125 -0.78125 -0.890625q-0.5 -0.328125 -1.140625 -0.328125q-0.625 0 -1.125 0.328125q-0.484375 0.3125 -0.765625 0.875q-0.28125 0.5625 -0.28125 1.296875q0 0.71875 0.28125 1.296875q0.28125 0.578125 0.765625 0.90625q0.5 0.3125 1.125 0.3125zm10.186584 -9.0625l0 9.671875l-0.90625 0l0 -0.921875q-0.390625 0.53125 -0.953125 0.84375q-0.5625 0.296875 -1.21875 0.296875q-0.890625 0 -1.609375 -0.421875q-0.703125 -0.4375 -1.109375 -1.1875q-0.390625 -0.765625 -0.390625 -1.734375q0 -0.96875 0.390625 -1.71875q0.390625 -0.75 1.09375 -1.171875q0.703125 -0.4375 1.59375 -0.4375q0.6875 0 1.25 0.3125q0.5625 0.296875 0.953125 0.84375l0 -4.375l0.90625 0zm-3.109375 9.0625q0.640625 0 1.140625 -0.3125q0.5 -0.328125 0.78125 -0.90625q0.28125 -0.578125 0.28125 -1.296875q0 -0.71875 -0.28125 -1.28125q-0.28125 -0.578125 -0.78125 -0.890625q-0.5 -0.328125 -1.140625 -0.328125q-0.625 0 -1.125 0.328125q-0.484375 0.3125 -0.765625 0.875q-0.28125 0.5625 -0.28125 1.296875q0 0.71875 0.28125 1.296875q0.28125 0.578125 0.765625 0.90625q0.5 0.3125 1.125 0.3125zm10.258301 -5.625l0 6.234375l-0.90625 0l0 -1.046875q-0.3125 0.609375 -0.84375 0.9375q-0.53125 0.328125 -1.21875 0.328125q-0.65625 0 -1.203125 -0.265625q-0.546875 -0.265625 -0.875 -0.78125q-0.328125 -0.53125 -0.328125 -1.234375l0 -4.171875l0.90625 0l0 3.765625q0 1.859375 1.640625 1.859375q0.96875 0 1.4375 -0.671875q0.484375 -0.6875 0.484375 -1.84375l0 -3.109375l0.90625 0zm4.3915405 6.453125q-0.90625 0 -1.625 -0.421875q-0.703125 -0.4375 -1.109375 -1.1875q-0.390625 -0.765625 -0.390625 -1.734375q0 -0.953125 0.390625 -1.703125q0.40625 -0.765625 1.109375 -1.1875q0.703125 -0.4375 1.59375 -0.4375q0.765625 0 1.328125 0.328125q0.5625 0.328125 1.03125 0.921875l-0.65625 0.53125q-0.65625 -0.953125 -1.703125 -0.953125q-0.625 0 -1.125 0.328125q-0.5 0.3125 -0.78125 0.890625q-0.28125 0.5625 -0.28125 1.28125q0 0.71875 0.28125 1.296875q0.28125 0.578125 0.78125 0.90625q0.5 0.3125 1.125 0.3125q0.640625 0 1.046875 -0.21875q0.421875 -0.21875 0.75 -0.65625l0.71875 0.5q-0.453125 0.546875 -1.09375 0.875q-0.640625 0.328125 -1.390625 0.328125zm3.9825134 -0.21875l0 -5.40625l-1.0625 0l0 -0.828125l1.0625 0l0 -2.0625l0.90625 0l0 2.0625l1.4375 0l0 0.828125l-1.4375 0l0 5.40625l-0.90625 0zm3.8214722 0l0 -6.234375l0.90625 0l0 6.234375l-0.90625 0zm0.453125 -7.453125q-0.296875 0 -0.515625 -0.203125q-0.203125 -0.21875 -0.203125 -0.53125q0 -0.296875 0.203125 -0.5q0.21875 -0.203125 0.515625 -0.203125q0.296875 0 0.5 0.203125q0.21875 0.203125 0.21875 0.515625q0 0.296875 -0.21875 0.515625q-0.203125 0.203125 -0.5 0.203125zm5.35318 7.671875q-0.890625 0 -1.609375 -0.421875q-0.703125 -0.4375 -1.109375 -1.203125q-0.390625 -0.765625 -0.390625 -1.71875q0 -0.96875 0.390625 -1.71875q0.390625 -0.75 1.09375 -1.171875q0.703125 -0.4375 1.59375 -0.4375q0.890625 0 1.59375 0.4375q0.71875 0.421875 1.109375 1.1875q0.40625 0.75 0.40625 1.703125q0 0.96875 -0.40625 1.734375q-0.390625 0.75 -1.09375 1.1875q-0.6875 0.421875 -1.578125 0.421875zm-0.03125 -0.828125q0.640625 0 1.140625 -0.3125q0.5 -0.328125 0.78125 -0.90625q0.28125 -0.578125 0.28125 -1.296875q0 -0.71875 -0.28125 -1.28125q-0.28125 -0.578125 -0.78125 -0.890625q-0.5 -0.328125 -1.140625 -0.328125q-0.625 0 -1.125 0.328125q-0.484375 0.3125 -0.765625 0.875q-0.28125 0.5625 -0.28125 1.296875q0 0.71875 0.28125 1.296875q0.28125 0.578125 0.765625 0.90625q0.5 0.3125 1.125 0.3125zm7.3584595 -5.84375q0.65625 0 1.203125 0.265625q0.5625 0.265625 0.875 0.796875q0.328125 0.515625 0.328125 1.21875l0 4.171875l-0.90625 0l0 -3.765625q0 -1.859375 -1.640625 -1.859375q-0.96875 0 -1.453125 0.6875q-0.46875 0.671875 -0.46875 1.8125l0 3.125l-0.90625 0l0 -6.234375l0.90625 0l0 1.03125q0.3125 -0.59375 0.84375 -0.921875q0.53125 -0.328125 1.21875 -0.328125z" fill-rule="nonzero"/><path fill="#000000" fill-opacity="0.0" d="m5.8792653 9.897637l391.02362 0l0 37.354332l-391.02362 0z" fill-rule="evenodd"/><path fill="#194cac" d="m28.473015 22.275763l-2.25 9.421875l-2.828125 0l-1.5 -6.296875l-1.53125 6.296875l-2.8125 0l-2.265625 -9.421875l2.484375 0l1.21875 6.828125l1.640625 -6.828125l2.5 0l1.65625 6.828125l1.21875 -6.828125l2.46875 0zm4.6796875 1.890625q1.109375 0 1.984375 0.46875q0.875 0.453125 1.359375 1.328125q0.5 0.859375 0.5 2.015625q0 1.15625 -0.5 2.03125q-0.484375 0.859375 -1.359375 1.328125q-0.875 0.453125 -1.984375 0.453125q-1.109375 0 -1.984375 -0.453125q-0.875 -0.46875 -1.375 -1.328125q-0.5 -0.875 -0.5 -2.03125q0 -1.15625 0.5 -2.015625q0.5 -0.875 1.375 -1.328125q0.875 -0.46875 1.984375 -0.46875zm0 1.96875q-0.65625 0 -1.109375 0.484375q-0.4375 0.46875 -0.4375 1.359375q0 0.890625 0.4375 1.359375q0.453125 0.46875 1.109375 0.46875q0.65625 0 1.09375 -0.46875q0.4375 -0.46875 0.4375 -1.359375q0 -0.890625 -0.4375 -1.359375q-0.4375 -0.484375 -1.09375 -0.484375zm7.3135223 -0.46875q0.421875 -0.6875 1.09375 -1.078125q0.6875 -0.40625 1.46875 -0.40625l0 2.4375l-0.65625 0q-0.90625 0 -1.40625 0.390625q-0.5 0.375 -0.5 1.296875l0 3.390625l-2.28125 0l0 -7.4375l2.28125 0l0 1.40625zm8.032089 6.03125l-2.234375 -3.15625l0 3.15625l-2.28125 0l0 -9.859375l2.28125 0l0 5.40625l2.234375 -2.984375l2.671875 0l-3.0 3.71875l3.0625 3.71875l-2.734375 0zm7.2174377 -8.453125q-0.5625 0 -0.8125 0.25q-0.25 0.234375 -0.28125 0.765625l1.34375 0l0 1.921875l-1.34375 0l0 5.515625l-2.28125 0l0 -5.515625l-0.890625 0l0 -1.921875l0.890625 0l0 -0.078125q0 -1.390625 0.796875 -2.140625q0.8125 -0.75 2.359375 -0.75q0.3125 0 0.46875 0.015625l0 1.953125l-0.25 -0.015625zm3.5297394 -1.40625l0 9.859375l-2.28125 0l0 -9.859375l2.28125 0zm5.0549316 2.328125q1.109375 0 1.984375 0.46875q0.875 0.453125 1.359375 1.328125q0.5 0.859375 0.5 2.015625q0 1.15625 -0.5 2.03125q-0.484375 0.859375 -1.359375 1.328125q-0.875 0.453125 -1.984375 0.453125q-1.109375 0 -1.984375 -0.453125q-0.875 -0.46875 -1.375 -1.328125q-0.5 -0.875 -0.5 -2.03125q0 -1.15625 0.5 -2.015625q0.5 -0.875 1.375 -1.328125q0.875 -0.46875 1.984375 -0.46875zm0 1.96875q-0.65625 0 -1.109375 0.484375q-0.4375 0.46875 -0.4375 1.359375q0 0.890625 0.4375 1.359375q0.453125 0.46875 1.109375 0.46875q0.65625 0 1.09375 -0.46875q0.4375 -0.46875 0.4375 -1.359375q0 -0.890625 -0.4375 -1.359375q-0.4375 -0.484375 -1.09375 -0.484375zm15.907272 -1.875l-1.90625 7.4375l-2.546875 0l-1.34375 -4.984375l-1.359375 4.984375l-2.546875 0l-1.90625 -7.4375l2.28125 0l0.984375 5.359375l1.390625 -5.359375l2.421875 0l1.4375 5.375l0.984375 -5.375l2.109375 0zm3.530182 -0.09375q1.421875 0 2.265625 0.703125q0.84375 0.703125 1.0625 1.875l-2.140625 0q-0.09375 -0.453125 -0.421875 -0.71875q-0.3125 -0.265625 -0.8125 -0.265625q-0.390625 0 -0.59375 0.171875q-0.1875 0.171875 -0.1875 0.46875q0 0.359375 0.359375 0.53125q0.375 0.171875 1.15625 0.34375q0.859375 0.203125 1.40625 0.40625q0.546875 0.203125 0.9375 0.671875q0.40625 0.46875 0.40625 1.25q0 0.640625 -0.359375 1.140625q-0.34375 0.484375 -1.0 0.765625q-0.640625 0.28125 -1.53125 0.28125q-1.515625 0 -2.421875 -0.65625q-0.90625 -0.671875 -1.109375 -1.921875l2.203125 0q0.0625 0.484375 0.40625 0.734375q0.359375 0.25 0.921875 0.25q0.375 0 0.578125 -0.171875q0.203125 -0.1875 0.203125 -0.46875q0 -0.390625 -0.375 -0.546875q-0.359375 -0.171875 -1.1875 -0.359375q-0.828125 -0.171875 -1.359375 -0.375q-0.53125 -0.203125 -0.921875 -0.640625q-0.375 -0.453125 -0.375 -1.234375q0 -1.0 0.75 -1.609375q0.765625 -0.625 2.140625 -0.625zm7.0064545 -0.171875l0 2.28125l-2.375 0l0 -2.28125l2.375 0zm0 5.421875l0 2.28125l-2.375 0l0 -2.28125l2.375 0z" fill-rule="nonzero"/><path fill="#194cac" d="m101.492455 24.385138l0 7.3125l-1.21875 0l0 -1.71875q-0.28125 0.890625 -1.0 1.375q-0.703125 0.46875 -1.65625 0.46875q-1.265625 0 -2.0625 -0.8125q-0.78125 -0.828125 -0.78125 -2.359375l0 -4.265625l1.21875 0l0 4.140625q0 1.09375 0.5625 1.6875q0.5625 0.59375 1.515625 0.59375q1.0 0 1.59375 -0.640625q0.609375 -0.65625 0.609375 -1.890625l0 -3.890625l1.21875 0zm5.793747 -0.125q1.28125 0 2.0625 0.828125q0.78125 0.8125 0.78125 2.359375l0 4.25l-1.203125 0l0 -4.140625q0 -1.09375 -0.5625 -1.671875q-0.5625 -0.59375 -1.515625 -0.59375q-1.0 0 -1.609375 0.640625q-0.59375 0.640625 -0.59375 1.890625l0 3.875l-1.21875 0l0 -7.3125l1.21875 0l0 1.734375q0.28125 -0.90625 0.984375 -1.375q0.71875 -0.484375 1.65625 -0.484375zm8.210571 6.375l0 1.0625l-0.90625 0q-1.125 0 -1.6875 -0.53125q-0.546875 -0.53125 -0.546875 -1.78125l0 -3.953125l-1.09375 0l0 -1.046875l1.09375 0l0 -1.828125l1.234375 0l0 1.828125l1.890625 0l0 1.046875l-1.890625 0l0 3.96875q0 0.703125 0.25 0.96875q0.265625 0.265625 0.90625 0.265625l0.75 0zm4.4713745 -6.34375q1.0625 0 1.796875 0.53125q0.75 0.53125 1.046875 1.421875l0 -1.859375l1.21875 0l0 7.3125l-1.21875 0l0 -1.859375q-0.296875 0.890625 -1.046875 1.421875q-0.734375 0.53125 -1.796875 0.53125q-0.96875 0 -1.734375 -0.453125q-0.75 -0.453125 -1.1875 -1.296875q-0.4375 -0.84375 -0.4375 -2.0q0 -1.140625 0.4375 -1.984375q0.4375 -0.859375 1.1875 -1.3125q0.765625 -0.453125 1.734375 -0.453125zm0.34375 1.078125q-1.109375 0 -1.78125 0.71875q-0.671875 0.703125 -0.671875 1.953125q0 1.25 0.671875 1.96875q0.671875 0.71875 1.78125 0.71875q0.71875 0 1.28125 -0.328125q0.578125 -0.34375 0.890625 -0.953125q0.328125 -0.609375 0.328125 -1.40625q0 -0.796875 -0.328125 -1.40625q-0.3125 -0.609375 -0.890625 -0.9375q-0.5625 -0.328125 -1.28125 -0.328125zm8.639381 -1.078125q1.0625 0 1.796875 0.53125q0.75 0.53125 1.046875 1.421875l0 -1.859375l1.21875 0l0 7.4375q0 1.0156231 -0.4375 1.7968731q-0.421875 0.78125 -1.203125 1.21875q-0.765625 0.4375 -1.796875 0.4375q-1.46875 0 -2.4062576 -0.71875q-0.9375 -0.703125 -1.1875 -1.90625l1.203125 0q0.203125 0.71875 0.796875 1.140625q0.5937576 0.421875 1.5312576 0.421875q0.984375 0 1.625 -0.640625q0.65625 -0.625 0.65625 -1.7499981l0 -1.984375q-0.296875 0.890625 -1.046875 1.421875q-0.734375 0.53125 -1.796875 0.53125q-0.9687576 0 -1.7343826 -0.453125q-0.75 -0.453125 -1.1875 -1.296875q-0.4375 -0.84375 -0.4375 -2.0q0 -1.140625 0.4375 -1.984375q0.4375 -0.859375 1.1875 -1.3125q0.765625 -0.453125 1.7343826 -0.453125zm0.34375 1.078125q-1.109375 0 -1.7812576 0.71875q-0.671875 0.703125 -0.671875 1.953125q0 1.25 0.671875 1.96875q0.6718826 0.71875 1.7812576 0.71875q0.71875 0 1.28125 -0.328125q0.578125 -0.34375 0.890625 -0.953125q0.328125 -0.609375 0.328125 -1.40625q0 -0.796875 -0.328125 -1.40625q-0.3125 -0.609375 -0.890625 -0.9375q-0.5625 -0.328125 -1.28125 -0.328125zm8.639374 -1.078125q1.0625 0 1.796875 0.53125q0.75 0.53125 1.046875 1.421875l0 -1.859375l1.21875 0l0 7.4375q0 1.0156231 -0.4375 1.7968731q-0.421875 0.78125 -1.203125 1.21875q-0.765625 0.4375 -1.796875 0.4375q-1.46875 0 -2.40625 -0.71875q-0.9375 -0.703125 -1.1875 -1.90625l1.203125 0q0.203125 0.71875 0.796875 1.140625q0.59375 0.421875 1.53125 0.421875q0.984375 0 1.625 -0.640625q0.65625 -0.625 0.65625 -1.7499981l0 -1.984375q-0.296875 0.890625 -1.046875 1.421875q-0.734375 0.53125 -1.796875 0.53125q-0.96875 0 -1.734375 -0.453125q-0.75 -0.453125 -1.1875 -1.296875q-0.4375 -0.84375 -0.4375 -2.0q0 -1.140625 0.4375 -1.984375q0.4375 -0.859375 1.1875 -1.3125q0.765625 -0.453125 1.734375 -0.453125zm0.34375 1.078125q-1.109375 0 -1.78125 0.71875q-0.671875 0.703125 -0.671875 1.953125q0 1.25 0.671875 1.96875q0.671875 0.71875 1.78125 0.71875q0.71875 0 1.28125 -0.328125q0.578125 -0.34375 0.890625 -0.953125q0.328125 -0.609375 0.328125 -1.40625q0 -0.796875 -0.328125 -1.40625q-0.3125 -0.609375 -0.890625 -0.9375q-0.5625 -0.328125 -1.28125 -0.328125zm12.373749 2.265625q0 0.390625 -0.046875 0.65625l-5.859375 0q0.046875 1.265625 0.71875 1.890625q0.671875 0.625 1.640625 0.625q0.875 0 1.46875 -0.4375q0.59375 -0.453125 0.734375 -1.203125l1.296875 0q-0.140625 0.765625 -0.609375 1.359375q-0.453125 0.59375 -1.1875 0.9375q-0.734375 0.328125 -1.640625 0.328125q-1.0625 0 -1.875 -0.453125q-0.8125 -0.453125 -1.28125 -1.296875q-0.453125 -0.84375 -0.453125 -2.0q0 -1.140625 0.453125 -1.984375q0.46875 -0.859375 1.28125 -1.3125q0.8125 -0.453125 1.875 -0.453125q1.0625 0 1.84375 0.453125q0.796875 0.453125 1.21875 1.21875q0.421875 0.75 0.421875 1.671875zm-1.21875 0.078125q0.03125 -0.8125 -0.28125 -1.359375q-0.296875 -0.546875 -0.828125 -0.8125q-0.53125 -0.265625 -1.15625 -0.265625q-1.0 0 -1.6875 0.625q-0.671875 0.609375 -0.734375 1.8125l4.6875 0zm5.8011017 -3.421875q1.0625 0 1.796875 0.53125q0.75 0.53125 1.046875 1.421875l0 -4.40625l1.21875 0l0 9.859375l-1.21875 0l0 -1.859375q-0.296875 0.890625 -1.046875 1.421875q-0.734375 0.53125 -1.796875 0.53125q-0.96875 0 -1.734375 -0.453125q-0.75 -0.453125 -1.1875 -1.296875q-0.4375 -0.84375 -0.4375 -2.0q0 -1.140625 0.4375 -1.984375q0.4375 -0.859375 1.1875 -1.3125q0.765625 -0.453125 1.734375 -0.453125zm0.34375 1.078125q-1.109375 0 -1.78125 0.71875q-0.671875 0.703125 -0.671875 1.953125q0 1.25 0.671875 1.96875q0.671875 0.71875 1.78125 0.71875q0.71875 0 1.28125 -0.328125q0.578125 -0.34375 0.890625 -0.953125q0.328125 -0.609375 0.328125 -1.40625q0 -0.796875 -0.328125 -1.40625q-0.3125 -0.609375 -0.890625 -0.9375q-0.5625 -0.328125 -1.28125 -0.328125zm15.712662 6.328125l-2.046875 -2.265625q0 0.21875 -0.078125 0.53125q-0.140625 0.8125 -0.78125 1.328125q-0.640625 0.5 -1.546875 0.5q-0.828125 0 -1.46875 -0.34375q-0.640625 -0.359375 -1.0 -0.984375q-0.359375 -0.640625 -0.359375 -1.46875q0 -0.828125 0.328125 -1.4375q0.328125 -0.609375 0.875 -0.921875q0.546875 -0.3125 1.203125 -0.3125q0.109375 0 0.296875 0.03125l-0.203125 -0.25q-0.375 -0.453125 -0.5625 -0.859375q-0.1875 -0.40625 -0.1875 -0.953125q0 -0.546875 0.265625 -1.015625q0.28125 -0.484375 0.828125 -0.765625q0.546875 -0.296875 1.296875 -0.296875q1.140625 0 1.75 0.578125q0.609375 0.5625 0.71875 1.421875q0.078125 0.296875 0.078125 0.609375q0 0.125 -0.015625 0.203125l-1.140625 0q0.015625 -0.09375 0 -0.21875q0 -0.140625 0 -0.1875q-0.015625 -0.671875 -0.375 -1.03125q-0.359375 -0.375 -1.0 -0.375q-0.59375 0 -0.9375 0.359375q-0.328125 0.34375 -0.328125 0.828125q0 0.421875 0.15625 0.71875q0.15625 0.28125 0.5 0.6875l4.984375 5.890625l-1.25 0zm-4.453125 -0.953125q0.734375 0 1.203125 -0.453125q0.46875 -0.46875 0.46875 -1.203125q0 -0.515625 -0.265625 -0.921875q-0.265625 -0.40625 -0.703125 -0.640625q-0.421875 -0.25 -0.875 -0.25q-0.703125 0 -1.15625 0.4375q-0.4375 0.4375 -0.4375 1.25q0 0.828125 0.5 1.3125q0.515625 0.46875 1.265625 0.46875zm13.553665 -0.109375l0 1.0625l-0.90625 0q-1.125 0 -1.6875 -0.53125q-0.546875 -0.53125 -0.546875 -1.78125l0 -3.953125l-1.09375 0l0 -1.046875l1.09375 0l0 -1.828125l1.234375 0l0 1.828125l1.890625 0l0 1.046875l-1.890625 0l0 3.96875q0 0.703125 0.25 0.96875q0.265625 0.265625 0.90625 0.265625l0.75 0zm4.4713745 -6.34375q1.0625 0 1.796875 0.53125q0.75 0.53125 1.046875 1.421875l0 -1.859375l1.21875 0l0 7.3125l-1.21875 0l0 -1.859375q-0.296875 0.890625 -1.046875 1.421875q-0.734375 0.53125 -1.796875 0.53125q-0.96875 0 -1.734375 -0.453125q-0.75 -0.453125 -1.1875 -1.296875q-0.4375 -0.84375 -0.4375 -2.0q0 -1.140625 0.4375 -1.984375q0.4375 -0.859375 1.1875 -1.3125q0.765625 -0.453125 1.734375 -0.453125zm0.34375 1.078125q-1.109375 0 -1.78125 0.71875q-0.671875 0.703125 -0.671875 1.953125q0 1.25 0.671875 1.96875q0.671875 0.71875 1.78125 0.71875q0.71875 0 1.28125 -0.328125q0.578125 -0.34375 0.890625 -0.953125q0.328125 -0.609375 0.328125 -1.40625q0 -0.796875 -0.328125 -1.40625q-0.3125 -0.609375 -0.890625 -0.9375q-0.5625 -0.328125 -1.28125 -0.328125zm8.639374 -1.078125q1.0625 0 1.796875 0.53125q0.75 0.53125 1.046875 1.421875l0 -1.859375l1.21875 0l0 7.4375q0 1.0156231 -0.4375 1.7968731q-0.421875 0.78125 -1.203125 1.21875q-0.765625 0.4375 -1.796875 0.4375q-1.46875 0 -2.40625 -0.71875q-0.9375 -0.703125 -1.1875 -1.90625l1.203125 0q0.203125 0.71875 0.796875 1.140625q0.59375 0.421875 1.53125 0.421875q0.984375 0 1.625 -0.640625q0.65625 -0.625 0.65625 -1.7499981l0 -1.984375q-0.296875 0.890625 -1.046875 1.421875q-0.734375 0.53125 -1.796875 0.53125q-0.96875 0 -1.734375 -0.453125q-0.75 -0.453125 -1.1875 -1.296875q-0.4375 -0.84375 -0.4375 -2.0q0 -1.140625 0.4375 -1.984375q0.4375 -0.859375 1.1875 -1.3125q0.765625 -0.453125 1.734375 -0.453125zm0.34375 1.078125q-1.109375 0 -1.78125 0.71875q-0.671875 0.703125 -0.671875 1.953125q0 1.25 0.671875 1.96875q0.671875 0.71875 1.78125 0.71875q0.71875 0 1.28125 -0.328125q0.578125 -0.34375 0.890625 -0.953125q0.328125 -0.609375 0.328125 -1.40625q0 -0.796875 -0.328125 -1.40625q-0.3125 -0.609375 -0.890625 -0.9375q-0.5625 -0.328125 -1.28125 -0.328125zm8.639374 -1.078125q1.0625 0 1.796875 0.53125q0.75 0.53125 1.046875 1.421875l0 -1.859375l1.21875 0l0 7.4375q0 1.0156231 -0.4375 1.7968731q-0.421875 0.78125 -1.203125 1.21875q-0.765625 0.4375 -1.796875 0.4375q-1.46875 0 -2.40625 -0.71875q-0.9375 -0.703125 -1.1875 -1.90625l1.203125 0q0.203125 0.71875 0.796875 1.140625q0.59375 0.421875 1.53125 0.421875q0.984375 0 1.625 -0.640625q0.65625 -0.625 0.65625 -1.7499981l0 -1.984375q-0.296875 0.890625 -1.046875 1.421875q-0.734375 0.53125 -1.796875 0.53125q-0.96875 0 -1.734375 -0.453125q-0.75 -0.453125 -1.1875 -1.296875q-0.4375 -0.84375 -0.4375 -2.0q0 -1.140625 0.4375 -1.984375q0.4375 -0.859375 1.1875 -1.3125q0.765625 -0.453125 1.734375 -0.453125zm0.34375 1.078125q-1.109375 0 -1.78125 0.71875q-0.671875 0.703125 -0.671875 1.953125q0 1.25 0.671875 1.96875q0.671875 0.71875 1.78125 0.71875q0.71875 0 1.28125 -0.328125q0.578125 -0.34375 0.890625 -0.953125q0.328125 -0.609375 0.328125 -1.40625q0 -0.796875 -0.328125 -1.40625q-0.3125 -0.609375 -0.890625 -0.9375q-0.5625 -0.328125 -1.28125 -0.328125zm12.373749 2.265625q0 0.390625 -0.046875 0.65625l-5.859375 0q0.046875 1.265625 0.71875 1.890625q0.671875 0.625 1.640625 0.625q0.875 0 1.46875 -0.4375q0.59375 -0.453125 0.734375 -1.203125l1.296875 0q-0.140625 0.765625 -0.609375 1.359375q-0.453125 0.59375 -1.1875 0.9375q-0.734375 0.328125 -1.640625 0.328125q-1.0625 0 -1.875 -0.453125q-0.8125 -0.453125 -1.28125 -1.296875q-0.453125 -0.84375 -0.453125 -2.0q0 -1.140625 0.453125 -1.984375q0.46875 -0.859375 1.28125 -1.3125q0.8125 -0.453125 1.875 -0.453125q1.0625 0 1.84375 0.453125q0.796875 0.453125 1.21875 1.21875q0.421875 0.75 0.421875 1.671875zm-1.21875 0.078125q0.03125 -0.8125 -0.28125 -1.359375q-0.296875 -0.546875 -0.828125 -0.8125q-0.53125 -0.265625 -1.15625 -0.265625q-1.0 0 -1.6875 0.625q-0.671875 0.609375 -0.734375 1.8125l4.6875 0zm5.8011017 -3.421875q1.0625 0 1.796875 0.53125q0.75 0.53125 1.046875 1.421875l0 -4.40625l1.21875 0l0 9.859375l-1.21875 0l0 -1.859375q-0.296875 0.890625 -1.046875 1.421875q-0.734375 0.53125 -1.796875 0.53125q-0.96875 0 -1.734375 -0.453125q-0.75 -0.453125 -1.1875 -1.296875q-0.4375 -0.84375 -0.4375 -2.0q0 -1.140625 0.4375 -1.984375q0.4375 -0.859375 1.1875 -1.3125q0.765625 -0.453125 1.734375 -0.453125zm0.34375 1.078125q-1.109375 0 -1.78125 0.71875q-0.671875 0.703125 -0.671875 1.953125q0 1.25 0.671875 1.96875q0.671875 0.71875 1.78125 0.71875q0.71875 0 1.28125 -0.328125q0.578125 -0.34375 0.890625 -0.953125q0.328125 -0.609375 0.328125 -1.40625q0 -0.796875 -0.328125 -1.40625q-0.3125 -0.609375 -0.890625 -0.9375q-0.5625 -0.328125 -1.28125 -0.328125zm12.978287 -1.078125q0.96875 0 1.71875 0.453125q0.765625 0.453125 1.203125 1.3125q0.4375 0.84375 0.4375 1.984375q0 1.15625 -0.4375 2.0q-0.4375 0.84375 -1.203125 1.296875q-0.75 0.453125 -1.71875 0.453125q-1.078125 0 -1.8125 -0.53125q-0.734375 -0.546875 -1.015625 -1.421875l0 1.859375l-1.21875 0l0 -9.859375l1.21875 0l0 4.40625q0.28125 -0.875 1.015625 -1.40625q0.734375 -0.546875 1.8125 -0.546875zm-0.34375 1.078125q-0.71875 0 -1.296875 0.328125q-0.5625 0.328125 -0.890625 0.9375q-0.3125 0.609375 -0.3125 1.40625q0 0.796875 0.3125 1.40625q0.328125 0.609375 0.890625 0.953125q0.578125 0.328125 1.296875 0.328125q1.125 0 1.796875 -0.71875q0.671875 -0.71875 0.671875 -1.96875q0 -1.25 -0.671875 -1.953125q-0.671875 -0.71875 -1.796875 -0.71875zm11.795624 -0.984375l0 7.3125l-1.21875 0l0 -1.71875q-0.28125 0.890625 -1.0 1.375q-0.703125 0.46875 -1.65625 0.46875q-1.265625 0 -2.0625 -0.8125q-0.78125 -0.828125 -0.78125 -2.359375l0 -4.265625l1.21875 0l0 4.140625q0 1.09375 0.5625 1.6875q0.5625 0.59375 1.515625 0.59375q1.0 0 1.59375 -0.640625q0.609375 -0.65625 0.609375 -1.890625l0 -3.890625l1.21875 0zm1.731247 -2.15625q0 -0.328125 0.21875 -0.53125q0.234375 -0.203125 0.609375 -0.203125q0.359375 0 0.578125 0.203125q0.234375 0.203125 0.234375 0.53125q0 0.34375 -0.234375 0.546875q-0.21875 0.203125 -0.578125 0.203125q-0.375 0 -0.609375 -0.203125q-0.21875 -0.203125 -0.21875 -0.546875zm1.421875 2.15625l0 7.3125l-1.21875 0l0 -7.3125l1.21875 0zm3.1587524 -2.546875l0 9.859375l-1.21875 0l0 -9.859375l1.21875 0zm4.939987 2.453125q1.0625 0 1.796875 0.53125q0.75 0.53125 1.046875 1.421875l0 -4.40625l1.21875 0l0 9.859375l-1.21875 0l0 -1.859375q-0.296875 0.890625 -1.046875 1.421875q-0.734375 0.53125 -1.796875 0.53125q-0.96873474 0 -1.7343597 -0.453125q-0.75 -0.453125 -1.1875 -1.296875q-0.4375 -0.84375 -0.4375 -2.0q0 -1.140625 0.4375 -1.984375q0.4375 -0.859375 1.1875 -1.3125q0.765625 -0.453125 1.7343597 -0.453125zm0.34375 1.078125q-1.1093597 0 -1.7812347 0.71875q-0.671875 0.703125 -0.671875 1.953125q0 1.25 0.671875 1.96875q0.671875 0.71875 1.7812347 0.71875q0.71875 0 1.28125 -0.328125q0.578125 -0.34375 0.890625 -0.953125q0.328125 -0.609375 0.328125 -1.40625q0 -0.796875 -0.328125 -1.40625q-0.3125 -0.609375 -0.890625 -0.9375q-0.5625 -0.328125 -1.28125 -0.328125zm7.936249 -1.078125q1.234375 0 1.984375 0.640625q0.765625 0.640625 0.921875 1.734375l-1.15625 0q-0.078125 -0.640625 -0.546875 -1.0625q-0.453125 -0.421875 -1.234375 -0.421875q-0.65625 0 -1.015625 0.3125q-0.359375 0.3125 -0.359375 0.84375q0 0.40625 0.234375 0.65625q0.25 0.234375 0.609375 0.359375q0.375 0.125 1.015625 0.28125q0.8125 0.1875 1.3125 0.390625q0.5 0.1875 0.84375 0.609375q0.359375 0.421875 0.359375 1.140625q0 0.890625 -0.671875 1.453125q-0.671875 0.5625 -1.796875 0.5625q-1.296875 0 -2.125 -0.625q-0.828125 -0.625 -0.96875 -1.75l1.171875 0q0.0625 0.671875 0.578125 1.09375q0.515625 0.40625 1.34375 0.40625q0.625 0 0.984375 -0.3125q0.359375 -0.328125 0.359375 -0.859375q0 -0.421875 -0.265625 -0.671875q-0.25 -0.25 -0.625 -0.375q-0.359375 -0.140625 -1.015625 -0.296875q-0.8125 -0.1875 -1.3125 -0.375q-0.484375 -0.1875 -0.828125 -0.59375q-0.328125 -0.40625 -0.328125 -1.09375q0 -0.921875 0.671875 -1.484375q0.6875 -0.5625 1.859375 -0.5625z" fill-rule="nonzero"/><path fill="#000000" fill-opacity="0.0" d="m610.2953 79.44882l-57.1969 62.48819" fill-rule="evenodd"/><path stroke="#194cac" stroke-width="1.0" stroke-linejoin="round" stroke-linecap="butt" stroke-dasharray="1.0,3.0" d="m610.2953 79.44882l-53.145752 58.0623" fill-rule="evenodd"/><path fill="#194cac" stroke="#194cac" stroke-width="1.0" stroke-linecap="butt" d="m555.93115 136.39589l-1.8456421 4.4627533l4.2824097 -2.2322998z" fill-rule="evenodd"/><path fill="#000000" fill-opacity="0.0" d="m610.2953 79.44882l-57.1969 125.19685" fill-rule="evenodd"/><path stroke="#194cac" stroke-width="1.0" stroke-linejoin="round" stroke-linecap="butt" stroke-dasharray="1.0,3.0" d="m610.2953 79.44882l-54.703613 119.73941" fill-rule="evenodd"/><path fill="#194cac" stroke="#194cac" stroke-width="1.0" stroke-linecap="butt" d="m554.0893 198.50186l-0.38336182 4.814102l3.3881226 -3.4413605z" fill-rule="evenodd"/><path fill="#000000" fill-opacity="0.0" d="m376.7743 103.38845l174.55115 0l0 23.2126l-174.55115 0z" fill-rule="evenodd"/><path fill="#194cac" d="m388.16492 115.0972l0 4.34375q0 0.75 0.328125 1.140625q0.34375 0.390625 0.984375 0.390625q0.640625 0 0.96875 -0.390625q0.34375 -0.390625 0.34375 -1.140625l0 -4.34375l1.828125 0l0 4.34375q0 1.0625 -0.421875 1.796875q-0.40625 0.734375 -1.125 1.109375q-0.71875 0.359375 -1.625 0.359375q-0.90625 0 -1.609375 -0.359375q-0.6875 -0.375 -1.078125 -1.109375q-0.390625 -0.734375 -0.390625 -1.796875l0 -4.34375l1.796875 0zm9.443085 1.515625q1.015625 0 1.609375 0.6875q0.609375 0.6875 0.609375 1.875l0 3.453125l-1.8125 0l0 -3.234375q0 -0.609375 -0.328125 -0.9375q-0.3125 -0.328125 -0.828125 -0.328125q-0.5625 0 -0.890625 0.359375q-0.3125 0.34375 -0.3125 0.984375l0 3.15625l-1.828125 0l0 -5.953125l1.828125 0l0 1.09375q0.25 -0.53125 0.75 -0.84375q0.515625 -0.3125 1.203125 -0.3125zm6.797455 4.453125l0 1.5625l-0.828125 0q-1.046875 0 -1.625 -0.515625q-0.578125 -0.515625 -0.578125 -1.71875l0 -2.171875l-0.796875 0l0 -1.546875l0.796875 0l0 -1.453125l1.828125 0l0 1.453125l1.1875 0l0 1.546875l-1.1875 0l0 2.21875q0 0.34375 0.140625 0.484375q0.140625 0.140625 0.484375 0.140625l0.578125 0zm3.281067 -4.453125q0.671875 0 1.15625 0.3125q0.5 0.296875 0.734375 0.828125l0 -1.078125l1.8125 0l0 5.953125l-1.8125 0l0 -1.078125q-0.234375 0.53125 -0.734375 0.84375q-0.484375 0.3125 -1.15625 0.3125q-0.734375 0 -1.328125 -0.359375q-0.578125 -0.375 -0.921875 -1.0625q-0.328125 -0.703125 -0.328125 -1.625q0 -0.9375 0.328125 -1.625q0.34375 -0.6875 0.921875 -1.046875q0.59375 -0.375 1.328125 -0.375zm0.578125 1.59375q-0.578125 0 -0.9375 0.390625q-0.359375 0.375 -0.359375 1.0625q0 0.671875 0.359375 1.0625q0.359375 0.375 0.9375 0.375q0.578125 0 0.9375 -0.390625q0.375 -0.390625 0.375 -1.046875q0 -0.671875 -0.375 -1.0625q-0.359375 -0.390625 -0.9375 -0.390625zm6.646881 -1.59375q0.671875 0 1.15625 0.3125q0.5 0.296875 0.734375 0.828125l0 -1.078125l1.8125 0l0 5.921875q0 0.828125 -0.328125 1.484375q-0.3125 0.671875 -0.96875 1.0625q-0.65625 0.40625 -1.640625 0.40625q-1.34375 0 -2.15625 -0.640625q-0.796875 -0.625 -0.953125 -1.71875l1.796875 0q0.078125 0.359375 0.375 0.5625q0.3125 0.203125 0.8125 0.203125q0.5625 0 0.90625 -0.328125q0.34375 -0.3125 0.34375 -1.03125l0 -1.046875q-0.234375 0.53125 -0.734375 0.84375q-0.484375 0.3125 -1.15625 0.3125q-0.734375 0 -1.328125 -0.359375q-0.578125 -0.375 -0.921875 -1.0625q-0.328125 -0.703125 -0.328125 -1.625q0 -0.9375 0.328125 -1.625q0.34375 -0.6875 0.921875 -1.046875q0.59375 -0.375 1.328125 -0.375zm0.578125 1.59375q-0.578125 0 -0.9375 0.390625q-0.359375 0.375 -0.359375 1.0625q0 0.671875 0.359375 1.0625q0.359375 0.375 0.9375 0.375q0.578125 0 0.9375 -0.390625q0.375 -0.390625 0.375 -1.046875q0 -0.671875 -0.375 -1.0625q-0.359375 -0.390625 -0.9375 -0.390625zm6.646881 -1.59375q0.671875 0 1.15625 0.3125q0.5 0.296875 0.734375 0.828125l0 -1.078125l1.8125 0l0 5.921875q0 0.828125 -0.328125 1.484375q-0.3125 0.671875 -0.96875 1.0625q-0.65625 0.40625 -1.640625 0.40625q-1.34375 0 -2.15625 -0.640625q-0.796875 -0.625 -0.953125 -1.71875l1.796875 0q0.078125 0.359375 0.375 0.5625q0.3125 0.203125 0.8125 0.203125q0.5625 0 0.90625 -0.328125q0.34375 -0.3125 0.34375 -1.03125l0 -1.046875q-0.234375 0.53125 -0.734375 0.84375q-0.484375 0.3125 -1.15625 0.3125q-0.734375 0 -1.328125 -0.359375q-0.578125 -0.375 -0.921875 -1.0625q-0.328125 -0.703125 -0.328125 -1.625q0 -0.9375 0.328125 -1.625q0.34375 -0.6875 0.921875 -1.046875q0.59375 -0.375 1.328125 -0.375zm0.578125 1.59375q-0.578125 0 -0.9375 0.390625q-0.359375 0.375 -0.359375 1.0625q0 0.671875 0.359375 1.0625q0.359375 0.375 0.9375 0.375q0.578125 0 0.9375 -0.390625q0.375 -0.390625 0.375 -1.046875q0 -0.671875 -0.375 -1.0625q-0.359375 -0.390625 -0.9375 -0.390625zm10.037506 1.28125q0 0.234375 -0.0625 0.5l-4.125 0q0.03125 0.671875 0.34375 0.96875q0.3125 0.28125 0.796875 0.28125q0.40625 0 0.671875 -0.203125q0.265625 -0.203125 0.34375 -0.515625l1.9375 0q-0.125 0.625 -0.515625 1.125q-0.390625 0.5 -1.0 0.78125q-0.609375 0.28125 -1.359375 0.28125q-0.875 0 -1.546875 -0.359375q-0.671875 -0.375 -1.0625 -1.0625q-0.390625 -0.703125 -0.390625 -1.625q0 -0.9375 0.375 -1.625q0.390625 -0.6875 1.0625 -1.046875q0.6875 -0.375 1.5625 -0.375q0.890625 0 1.5625 0.359375q0.671875 0.359375 1.03125 1.015625q0.375 0.65625 0.375 1.5zm-1.84375 -0.265625q0 -0.59375 -0.328125 -0.875q-0.3125 -0.296875 -0.796875 -0.296875q-0.5 0 -0.828125 0.296875q-0.328125 0.296875 -0.375 0.875l2.328125 0zm5.049408 -2.609375q0.671875 0 1.15625 0.3125q0.5 0.296875 0.734375 0.828125l0 -3.015625l1.8125 0l0 7.890625l-1.8125 0l0 -1.078125q-0.234375 0.53125 -0.734375 0.84375q-0.484375 0.3125 -1.15625 0.3125q-0.734375 0 -1.328125 -0.359375q-0.578125 -0.375 -0.921875 -1.0625q-0.328125 -0.703125 -0.328125 -1.625q0 -0.9375 0.328125 -1.625q0.34375 -0.6875 0.921875 -1.046875q0.59375 -0.375 1.328125 -0.375zm0.578125 1.59375q-0.578125 0 -0.9375 0.390625q-0.359375 0.375 -0.359375 1.0625q0 0.671875 0.359375 1.0625q0.359375 0.375 0.9375 0.375q0.578125 0 0.9375 -0.390625q0.375 -0.390625 0.375 -1.046875q0 -0.671875 -0.375 -1.0625q-0.359375 -0.390625 -0.9375 -0.390625zm6.168762 0.140625q0 -2.03125 0.78125 -3.65625q0.796875 -1.625 2.109375 -2.640625l1.765625 0l0 0.1875q-1.46875 1.21875 -2.1875 2.734375q-0.71875 1.515625 -0.71875 3.375q0 3.6875 2.90625 6.109375l0 0.171875l-1.765625 0q-1.3125 -1.015625 -2.109375 -2.625q-0.78125 -1.625 -0.78125 -3.65625zm12.426636 -1.734375q1.109375 0 1.734375 0.6875q0.625 0.671875 0.625 1.875l0 3.453125l-1.8125 0l0 -3.234375q0 -0.5625 -0.3125 -0.875q-0.296875 -0.328125 -0.8125 -0.328125q-0.546875 0 -0.859375 0.34375q-0.3125 0.328125 -0.3125 0.9375l0 3.15625l-1.828125 0l0 -3.234375q0 -0.5625 -0.296875 -0.875q-0.296875 -0.328125 -0.8125 -0.328125q-0.546875 0 -0.875 0.34375q-0.3125 0.328125 -0.3125 0.9375l0 3.15625l-1.828125 0l0 -5.953125l1.828125 0l0 1.015625q0.234375 -0.5 0.71875 -0.78125q0.484375 -0.296875 1.140625 -0.296875q0.671875 0 1.1875 0.328125q0.53125 0.3125 0.796875 0.890625q0.3125 -0.546875 0.84375 -0.875q0.546875 -0.34375 1.1875 -0.34375zm5.8369446 0q0.671875 0 1.15625 0.3125q0.5 0.296875 0.734375 0.828125l0 -1.078125l1.8125 0l0 5.953125l-1.8125 0l0 -1.078125q-0.234375 0.53125 -0.734375 0.84375q-0.484375 0.3125 -1.15625 0.3125q-0.734375 0 -1.328125 -0.359375q-0.578125 -0.375 -0.921875 -1.0625q-0.328125 -0.703125 -0.328125 -1.625q0 -0.9375 0.328125 -1.625q0.34375 -0.6875 0.921875 -1.046875q0.59375 -0.375 1.328125 -0.375zm0.578125 1.59375q-0.578125 0 -0.9375 0.390625q-0.359375 0.375 -0.359375 1.0625q0 0.671875 0.359375 1.0625q0.359375 0.375 0.9375 0.375q0.578125 0 0.9375 -0.390625q0.375 -0.390625 0.375 -1.046875q0 -0.671875 -0.375 -1.0625q-0.359375 -0.390625 -0.9375 -0.390625zm6.553131 -1.59375q1.125 0 1.796875 0.5625q0.6875 0.5625 0.859375 1.484375l-1.71875 0q-0.0625 -0.359375 -0.328125 -0.5625q-0.265625 -0.203125 -0.65625 -0.203125q-0.3125 0 -0.46875 0.140625q-0.15625 0.125 -0.15625 0.359375q0 0.28125 0.28125 0.421875q0.296875 0.140625 0.921875 0.28125q0.6875 0.15625 1.125 0.328125q0.4375 0.15625 0.75 0.53125q0.328125 0.375 0.328125 1.0q0 0.515625 -0.28125 0.90625q-0.28125 0.390625 -0.796875 0.625q-0.515625 0.21875 -1.234375 0.21875q-1.203125 0 -1.9375 -0.53125q-0.71875 -0.53125 -0.875 -1.53125l1.75 0q0.046875 0.390625 0.328125 0.59375q0.28125 0.203125 0.734375 0.203125q0.3125 0 0.46875 -0.140625q0.15625 -0.15625 0.15625 -0.390625q0 -0.3125 -0.296875 -0.4375q-0.28125 -0.140625 -0.953125 -0.28125q-0.65625 -0.140625 -1.078125 -0.296875q-0.421875 -0.171875 -0.734375 -0.515625q-0.3125 -0.359375 -0.3125 -0.984375q0 -0.796875 0.609375 -1.28125q0.609375 -0.5 1.71875 -0.5zm7.117401 4.453125l0 1.5625l-0.828125 0q-1.046875 0 -1.625 -0.515625q-0.578125 -0.515625 -0.578125 -1.71875l0 -2.171875l-0.796875 0l0 -1.546875l0.796875 0l0 -1.453125l1.828125 0l0 1.453125l1.1875 0l0 1.546875l-1.1875 0l0 2.21875q0 0.34375 0.140625 0.484375q0.140625 0.140625 0.484375 0.140625l0.578125 0zm6.6716614 -1.578125q0 0.234375 -0.0625 0.5l-4.125 0q0.03125 0.671875 0.34375 0.96875q0.3125 0.28125 0.796875 0.28125q0.40625 0 0.671875 -0.203125q0.265625 -0.203125 0.34375 -0.515625l1.9375 0q-0.125 0.625 -0.515625 1.125q-0.390625 0.5 -1.0 0.78125q-0.609375 0.28125 -1.359375 0.28125q-0.875 0 -1.546875 -0.359375q-0.671875 -0.375 -1.0625 -1.0625q-0.390625 -0.703125 -0.390625 -1.625q0 -0.9375 0.375 -1.625q0.390625 -0.6875 1.0625 -1.046875q0.6875 -0.375 1.5625 -0.375q0.890625 0 1.5625 0.359375q0.671875 0.359375 1.03125 1.015625q0.375 0.65625 0.375 1.5zm-1.84375 -0.265625q0 -0.59375 -0.328125 -0.875q-0.3125 -0.296875 -0.796875 -0.296875q-0.5 0 -0.828125 0.296875q-0.328125 0.296875 -0.375 0.875l2.328125 0zm4.611908 -1.421875q0.34375 -0.546875 0.875 -0.859375q0.546875 -0.328125 1.171875 -0.328125l0 1.953125l-0.53125 0q-0.71875 0 -1.125 0.3125q-0.390625 0.3125 -0.390625 1.046875l0 2.703125l-1.828125 0l0 -5.953125l1.828125 0l0 1.125zm7.7199097 -1.1875q0.890625 0 1.578125 0.375q0.703125 0.359375 1.09375 1.046875q0.40625 0.6875 0.40625 1.625q0 0.921875 -0.40625 1.625q-0.390625 0.6875 -1.09375 1.0625q-0.6875 0.359375 -1.578125 0.359375q-0.875 0 -1.578125 -0.359375q-0.703125 -0.375 -1.109375 -1.0625q-0.40625 -0.703125 -0.40625 -1.625q0 -0.9375 0.40625 -1.625q0.40625 -0.6875 1.109375 -1.046875q0.703125 -0.375 1.578125 -0.375zm0 1.578125q-0.515625 0 -0.875 0.375q-0.359375 0.375 -0.359375 1.09375q0 0.703125 0.359375 1.078125q0.359375 0.375 0.875 0.375q0.53125 0 0.875 -0.375q0.359375 -0.375 0.359375 -1.078125q0 -0.71875 -0.359375 -1.09375q-0.34375 -0.375 -0.875 -0.375zm7.8094177 -1.578125q1.015625 0 1.609375 0.6875q0.609375 0.6875 0.609375 1.875l0 3.453125l-1.8125 0l0 -3.234375q0 -0.609375 -0.328125 -0.9375q-0.3125 -0.328125 -0.828125 -0.328125q-0.5625 0 -0.890625 0.359375q-0.3125 0.34375 -0.3125 0.984375l0 3.15625l-1.828125 0l0 -5.953125l1.828125 0l0 1.09375q0.25 -0.53125 0.75 -0.84375q0.515625 -0.3125 1.203125 -0.3125zm5.25058 -1.875l0 7.890625l-1.828125 0l0 -7.890625l1.828125 0zm2.6265564 1.9375l1.4375 3.65625l1.328125 -3.65625l2.015625 0l-3.71875 8.78125l-2.0 0l1.40625 -3.046875l-2.5 -5.734375l2.03125 0zm8.89679 1.65625q0 2.03125 -0.8125 3.65625q-0.796875 1.625 -2.09375 2.640625l-1.78125 0l0 -0.171875q2.921875 -2.421875 2.921875 -6.109375q0 -1.859375 -0.734375 -3.375q-0.71875 -1.515625 -2.1875 -2.734375l0 -0.1875l1.78125 0q1.296875 1.015625 2.09375 2.640625q0.8125 1.625 0.8125 3.640625z" fill-rule="nonzero"/><path fill="#000000" fill-opacity="0.0" d="m376.7743 165.1811l195.74805 0l0 23.2126l-195.74805 0z" fill-rule="evenodd"/><path fill="#194cac" d="m391.82117 176.88985l0 1.453125l-2.046875 0l0 6.078125l-1.84375 0l0 -6.078125l-2.015625 0l0 -1.453125l5.90625 0zm3.0244446 1.515625q0.671875 0 1.15625 0.3125q0.5 0.296875 0.734375 0.828125l0 -1.078125l1.8125 0l0 5.953125l-1.8125 0l0 -1.078125q-0.234375 0.53125 -0.734375 0.84375q-0.484375 0.3125 -1.15625 0.3125q-0.734375 0 -1.328125 -0.359375q-0.578125 -0.375 -0.921875 -1.0625q-0.328125 -0.703125 -0.328125 -1.625q0 -0.9375 0.328125 -1.625q0.34375 -0.6875 0.921875 -1.046875q0.59375 -0.375 1.328125 -0.375zm0.578125 1.59375q-0.578125 0 -0.9375 0.390625q-0.359375 0.375 -0.359375 1.0625q0 0.671875 0.359375 1.0625q0.359375 0.375 0.9375 0.375q0.578125 0 0.9375 -0.390625q0.375 -0.390625 0.375 -1.046875q0 -0.671875 -0.375 -1.0625q-0.359375 -0.390625 -0.9375 -0.390625zm6.646881 -1.59375q0.671875 0 1.15625 0.3125q0.5 0.296875 0.734375 0.828125l0 -1.078125l1.8125 0l0 5.921875q0 0.828125 -0.328125 1.484375q-0.3125 0.671875 -0.96875 1.0625q-0.65625 0.40625 -1.640625 0.40625q-1.34375 0 -2.15625 -0.640625q-0.796875 -0.625 -0.953125 -1.71875l1.796875 0q0.078125 0.359375 0.375 0.5625q0.3125 0.203125 0.8125 0.203125q0.5625 0 0.90625 -0.328125q0.34375 -0.3125 0.34375 -1.03125l0 -1.046875q-0.234375 0.53125 -0.734375 0.84375q-0.484375 0.3125 -1.15625 0.3125q-0.734375 0 -1.328125 -0.359375q-0.578125 -0.375 -0.921875 -1.0625q-0.328125 -0.703125 -0.328125 -1.625q0 -0.9375 0.328125 -1.625q0.34375 -0.6875 0.921875 -1.046875q0.59375 -0.375 1.328125 -0.375zm0.578125 1.59375q-0.578125 0 -0.9375 0.390625q-0.359375 0.375 -0.359375 1.0625q0 0.671875 0.359375 1.0625q0.359375 0.375 0.9375 0.375q0.578125 0 0.9375 -0.390625q0.375 -0.390625 0.375 -1.046875q0 -0.671875 -0.375 -1.0625q-0.359375 -0.390625 -0.9375 -0.390625zm6.646881 -1.59375q0.671875 0 1.15625 0.3125q0.5 0.296875 0.734375 0.828125l0 -1.078125l1.8125 0l0 5.921875q0 0.828125 -0.328125 1.484375q-0.3125 0.671875 -0.96875 1.0625q-0.65625 0.40625 -1.640625 0.40625q-1.34375 0 -2.15625 -0.640625q-0.796875 -0.625 -0.953125 -1.71875l1.796875 0q0.078125 0.359375 0.375 0.5625q0.3125 0.203125 0.8125 0.203125q0.5625 0 0.90625 -0.328125q0.34375 -0.3125 0.34375 -1.03125l0 -1.046875q-0.234375 0.53125 -0.734375 0.84375q-0.484375 0.3125 -1.15625 0.3125q-0.734375 0 -1.328125 -0.359375q-0.578125 -0.375 -0.921875 -1.0625q-0.328125 -0.703125 -0.328125 -1.625q0 -0.9375 0.328125 -1.625q0.34375 -0.6875 0.921875 -1.046875q0.59375 -0.375 1.328125 -0.375zm0.578125 1.59375q-0.578125 0 -0.9375 0.390625q-0.359375 0.375 -0.359375 1.0625q0 0.671875 0.359375 1.0625q0.359375 0.375 0.9375 0.375q0.578125 0 0.9375 -0.390625q0.375 -0.390625 0.375 -1.046875q0 -0.671875 -0.375 -1.0625q-0.359375 -0.390625 -0.9375 -0.390625zm10.037506 1.28125q0 0.234375 -0.0625 0.5l-4.125 0q0.03125 0.671875 0.34375 0.96875q0.3125 0.28125 0.796875 0.28125q0.40625 0 0.671875 -0.203125q0.265625 -0.203125 0.34375 -0.515625l1.9375 0q-0.125 0.625 -0.515625 1.125q-0.390625 0.5 -1.0 0.78125q-0.609375 0.28125 -1.359375 0.28125q-0.875 0 -1.546875 -0.359375q-0.671875 -0.375 -1.0625 -1.0625q-0.390625 -0.703125 -0.390625 -1.625q0 -0.9375 0.375 -1.625q0.390625 -0.6875 1.0625 -1.046875q0.6875 -0.375 1.5625 -0.375q0.890625 0 1.5625 0.359375q0.671875 0.359375 1.03125 1.015625q0.375 0.65625 0.375 1.5zm-1.84375 -0.265625q0 -0.59375 -0.328125 -0.875q-0.3125 -0.296875 -0.796875 -0.296875q-0.5 0 -0.828125 0.296875q-0.328125 0.296875 -0.375 0.875l2.328125 0zm5.049408 -2.609375q0.671875 0 1.15625 0.3125q0.5 0.296875 0.734375 0.828125l0 -3.015625l1.8125 0l0 7.890625l-1.8125 0l0 -1.078125q-0.234375 0.53125 -0.734375 0.84375q-0.484375 0.3125 -1.15625 0.3125q-0.734375 0 -1.328125 -0.359375q-0.578125 -0.375 -0.921875 -1.0625q-0.328125 -0.703125 -0.328125 -1.625q0 -0.9375 0.328125 -1.625q0.34375 -0.6875 0.921875 -1.046875q0.59375 -0.375 1.328125 -0.375zm0.578125 1.59375q-0.578125 0 -0.9375 0.390625q-0.359375 0.375 -0.359375 1.0625q0 0.671875 0.359375 1.0625q0.359375 0.375 0.9375 0.375q0.578125 0 0.9375 -0.390625q0.375 -0.390625 0.375 -1.046875q0 -0.671875 -0.375 -1.0625q-0.359375 -0.390625 -0.9375 -0.390625zm6.168762 0.140625q0 -2.03125 0.78125 -3.65625q0.796875 -1.625 2.109375 -2.640625l1.765625 0l0 0.1875q-1.46875 1.21875 -2.1875 2.734375q-0.71875 1.515625 -0.71875 3.375q0 3.6875 2.90625 6.109375l0 0.171875l-1.765625 0q-1.3125 -1.015625 -2.109375 -2.625q-0.78125 -1.625 -0.78125 -3.65625zm6.9891357 -1.734375q0.671875 0 1.15625 0.3125q0.5 0.296875 0.734375 0.828125l0 -1.078125l1.8125 0l0 5.953125l-1.8125 0l0 -1.078125q-0.234375 0.53125 -0.734375 0.84375q-0.484375 0.3125 -1.15625 0.3125q-0.734375 0 -1.328125 -0.359375q-0.578125 -0.375 -0.921875 -1.0625q-0.328125 -0.703125 -0.328125 -1.625q0 -0.9375 0.328125 -1.625q0.34375 -0.6875 0.921875 -1.046875q0.59375 -0.375 1.328125 -0.375zm0.578125 1.59375q-0.578125 0 -0.9375 0.390625q-0.359375 0.375 -0.359375 1.0625q0 0.671875 0.359375 1.0625q0.359375 0.375 0.9375 0.375q0.578125 0 0.9375 -0.390625q0.375 -0.390625 0.375 -1.046875q0 -0.671875 -0.375 -1.0625q-0.359375 -0.390625 -0.9375 -0.390625zm8.162506 -1.59375q1.015625 0 1.609375 0.6875q0.609375 0.6875 0.609375 1.875l0 3.453125l-1.8125 0l0 -3.234375q0 -0.609375 -0.328125 -0.9375q-0.3125 -0.328125 -0.828125 -0.328125q-0.5625 0 -0.890625 0.359375q-0.3125 0.34375 -0.3125 0.984375l0 3.15625l-1.828125 0l0 -5.953125l1.828125 0l0 1.09375q0.25 -0.53125 0.75 -0.84375q0.515625 -0.3125 1.203125 -0.3125zm4.797455 0.0625l1.4375 3.65625l1.328125 -3.65625l2.015625 0l-3.71875 8.78125l-2.0 0l1.40625 -3.046875l-2.5 -5.734375l2.03125 0zm10.887421 4.390625l0 1.5625l-0.828125 0q-1.046875 0 -1.625 -0.515625q-0.578125 -0.515625 -0.578125 -1.71875l0 -2.171875l-0.796875 0l0 -1.546875l0.796875 0l0 -1.453125l1.828125 0l0 1.453125l1.1875 0l0 1.546875l-1.1875 0l0 2.21875q0 0.34375 0.140625 0.484375q0.140625 0.140625 0.484375 0.140625l0.578125 0zm3.2810364 -4.453125q0.671875 0 1.15625 0.3125q0.5 0.296875 0.734375 0.828125l0 -1.078125l1.8125 0l0 5.953125l-1.8125 0l0 -1.078125q-0.234375 0.53125 -0.734375 0.84375q-0.484375 0.3125 -1.15625 0.3125q-0.734375 0 -1.328125 -0.359375q-0.578125 -0.375 -0.921875 -1.0625q-0.328125 -0.703125 -0.328125 -1.625q0 -0.9375 0.328125 -1.625q0.34375 -0.6875 0.921875 -1.046875q0.59375 -0.375 1.328125 -0.375zm0.578125 1.59375q-0.578125 0 -0.9375 0.390625q-0.359375 0.375 -0.359375 1.0625q0 0.671875 0.359375 1.0625q0.359375 0.375 0.9375 0.375q0.578125 0 0.9375 -0.390625q0.375 -0.390625 0.375 -1.046875q0 -0.671875 -0.375 -1.0625q-0.359375 -0.390625 -0.9375 -0.390625zm6.646881 -1.59375q0.671875 0 1.15625 0.3125q0.5 0.296875 0.734375 0.828125l0 -1.078125l1.8125 0l0 5.921875q0 0.828125 -0.328125 1.484375q-0.3125 0.671875 -0.96875 1.0625q-0.65625 0.40625 -1.640625 0.40625q-1.34375 0 -2.15625 -0.640625q-0.796875 -0.625 -0.953125 -1.71875l1.796875 0q0.078125 0.359375 0.375 0.5625q0.3125 0.203125 0.8125 0.203125q0.5625 0 0.90625 -0.328125q0.34375 -0.3125 0.34375 -1.03125l0 -1.046875q-0.234375 0.53125 -0.734375 0.84375q-0.484375 0.3125 -1.15625 0.3125q-0.734375 0 -1.328125 -0.359375q-0.578125 -0.375 -0.921875 -1.0625q-0.328125 -0.703125 -0.328125 -1.625q0 -0.9375 0.328125 -1.625q0.34375 -0.6875 0.921875 -1.046875q0.59375 -0.375 1.328125 -0.375zm0.578125 1.59375q-0.578125 0 -0.9375 0.390625q-0.359375 0.375 -0.359375 1.0625q0 0.671875 0.359375 1.0625q0.359375 0.375 0.9375 0.375q0.578125 0 0.9375 -0.390625q0.375 -0.390625 0.375 -1.046875q0 -0.671875 -0.375 -1.0625q-0.359375 -0.390625 -0.9375 -0.390625zm6.646881 -1.59375q0.671875 0 1.15625 0.3125q0.5 0.296875 0.734375 0.828125l0 -1.078125l1.8125 0l0 5.921875q0 0.828125 -0.328125 1.484375q-0.3125 0.671875 -0.96875 1.0625q-0.65625 0.40625 -1.640625 0.40625q-1.34375 0 -2.15625 -0.640625q-0.796875 -0.625 -0.953125 -1.71875l1.796875 0q0.078125 0.359375 0.375 0.5625q0.3125 0.203125 0.8125 0.203125q0.5625 0 0.90625 -0.328125q0.34375 -0.3125 0.34375 -1.03125l0 -1.046875q-0.234375 0.53125 -0.734375 0.84375q-0.484375 0.3125 -1.15625 0.3125q-0.734375 0 -1.328125 -0.359375q-0.578125 -0.375 -0.921875 -1.0625q-0.328125 -0.703125 -0.328125 -1.625q0 -0.9375 0.328125 -1.625q0.34375 -0.6875 0.921875 -1.046875q0.59375 -0.375 1.328125 -0.375zm0.578125 1.59375q-0.578125 0 -0.9375 0.390625q-0.359375 0.375 -0.359375 1.0625q0 0.671875 0.359375 1.0625q0.359375 0.375 0.9375 0.375q0.578125 0 0.9375 -0.390625q0.375 -0.390625 0.375 -1.046875q0 -0.671875 -0.375 -1.0625q-0.359375 -0.390625 -0.9375 -0.390625zm10.037506 1.28125q0 0.234375 -0.0625 0.5l-4.125 0q0.03125 0.671875 0.34375 0.96875q0.3125 0.28125 0.796875 0.28125q0.40625 0 0.671875 -0.203125q0.265625 -0.203125 0.34375 -0.515625l1.9375 0q-0.125 0.625 -0.515625 1.125q-0.390625 0.5 -1.0 0.78125q-0.609375 0.28125 -1.359375 0.28125q-0.875 0 -1.546875 -0.359375q-0.671875 -0.375 -1.0625 -1.0625q-0.390625 -0.703125 -0.390625 -1.625q0 -0.9375 0.375 -1.625q0.390625 -0.6875 1.0625 -1.046875q0.6875 -0.375 1.5625 -0.375q0.890625 0 1.5625 0.359375q0.671875 0.359375 1.03125 1.015625q0.375 0.65625 0.375 1.5zm-1.84375 -0.265625q0 -0.59375 -0.328125 -0.875q-0.3125 -0.296875 -0.796875 -0.296875q-0.5 0 -0.828125 0.296875q-0.328125 0.296875 -0.375 0.875l2.328125 0zm5.049408 -2.609375q0.671875 0 1.15625 0.3125q0.5 0.296875 0.734375 0.828125l0 -3.015625l1.8125 0l0 7.890625l-1.8125 0l0 -1.078125q-0.234375 0.53125 -0.734375 0.84375q-0.484375 0.3125 -1.15625 0.3125q-0.734375 0 -1.328125 -0.359375q-0.578125 -0.375 -0.921875 -1.0625q-0.328125 -0.703125 -0.328125 -1.625q0 -0.9375 0.328125 -1.625q0.34375 -0.6875 0.921875 -1.046875q0.59375 -0.375 1.328125 -0.375zm0.578125 1.59375q-0.578125 0 -0.9375 0.390625q-0.359375 0.375 -0.359375 1.0625q0 0.671875 0.359375 1.0625q0.359375 0.375 0.9375 0.375q0.578125 0 0.9375 -0.390625q0.375 -0.390625 0.375 -1.046875q0 -0.671875 -0.375 -1.0625q-0.359375 -0.390625 -0.9375 -0.390625zm8.340668 -0.40625q0.34375 -0.546875 0.875 -0.859375q0.546875 -0.328125 1.171875 -0.328125l0 1.953125l-0.53125 0q-0.71875 0 -1.125 0.3125q-0.390625 0.3125 -0.390625 1.046875l0 2.703125l-1.828125 0l0 -5.953125l1.828125 0l0 1.125zm8.463623 1.6875q0 0.234375 -0.0625 0.5l-4.125 0q0.03125 0.671875 0.34375 0.96875q0.3125 0.28125 0.796875 0.28125q0.40625 0 0.671875 -0.203125q0.265625 -0.203125 0.34375 -0.515625l1.9375 0q-0.125 0.625 -0.515625 1.125q-0.390625 0.5 -1.0 0.78125q-0.609375 0.28125 -1.359375 0.28125q-0.875 0 -1.546875 -0.359375q-0.671875 -0.375 -1.0625 -1.0625q-0.390625 -0.703125 -0.390625 -1.625q0 -0.9375 0.375 -1.625q0.390625 -0.6875 1.0625 -1.046875q0.6875 -0.375 1.5625 -0.375q0.890625 0 1.5625 0.359375q0.671875 0.359375 1.03125 1.015625q0.375 0.65625 0.375 1.5zm-1.84375 -0.265625q0 -0.59375 -0.328125 -0.875q-0.3125 -0.296875 -0.796875 -0.296875q-0.5 0 -0.828125 0.296875q-0.328125 0.296875 -0.375 0.875l2.328125 0zm4.6119385 -4.484375l0 7.890625l-1.8281555 0l0 -7.890625l1.8281555 0zm6.907776 4.75q0 0.234375 -0.0625 0.5l-4.125 0q0.03125 0.671875 0.34375 0.96875q0.3125 0.28125 0.796875 0.28125q0.40625 0 0.671875 -0.203125q0.265625 -0.203125 0.34375 -0.515625l1.9375 0q-0.125 0.625 -0.515625 1.125q-0.390625 0.5 -1.0 0.78125q-0.609375 0.28125 -1.359375 0.28125q-0.875 0 -1.546875 -0.359375q-0.671875 -0.375 -1.0625 -1.0625q-0.390625 -0.703125 -0.390625 -1.625q0 -0.9375 0.375 -1.625q0.390625 -0.6875 1.0625 -1.046875q0.6875 -0.375 1.5625 -0.375q0.890625 0 1.5625 0.359375q0.671875 0.359375 1.03125 1.015625q0.375 0.65625 0.375 1.5zm-1.84375 -0.265625q0 -0.59375 -0.328125 -0.875q-0.3125 -0.296875 -0.796875 -0.296875q-0.5 0 -0.828125 0.296875q-0.328125 0.296875 -0.375 0.875l2.328125 0zm5.0494385 -2.609375q0.671875 0 1.15625 0.3125q0.5 0.296875 0.734375 0.828125l0 -1.078125l1.8125 0l0 5.953125l-1.8125 0l0 -1.078125q-0.234375 0.53125 -0.734375 0.84375q-0.484375 0.3125 -1.15625 0.3125q-0.734375 0 -1.328125 -0.359375q-0.578125 -0.375 -0.921875 -1.0625q-0.328125 -0.703125 -0.328125 -1.625q0 -0.9375 0.328125 -1.625q0.34375 -0.6875 0.921875 -1.046875q0.59375 -0.375 1.328125 -0.375zm0.578125 1.59375q-0.578125 0 -0.9375 0.390625q-0.359375 0.375 -0.359375 1.0625q0 0.671875 0.359375 1.0625q0.359375 0.375 0.9375 0.375q0.578125 0 0.9375 -0.390625q0.375 -0.390625 0.375 -1.046875q0 -0.671875 -0.375 -1.0625q-0.359375 -0.390625 -0.9375 -0.390625zm6.5531006 -1.59375q1.125 0 1.796875 0.5625q0.6875 0.5625 0.859375 1.484375l-1.71875 0q-0.0625 -0.359375 -0.328125 -0.5625q-0.265625 -0.203125 -0.65625 -0.203125q-0.3125 0 -0.46875 0.140625q-0.15625 0.125 -0.15625 0.359375q0 0.28125 0.28125 0.421875q0.296875 0.140625 0.921875 0.28125q0.6875 0.15625 1.125 0.328125q0.4375 0.15625 0.75 0.53125q0.328125 0.375 0.328125 1.0q0 0.515625 -0.28125 0.90625q-0.28125 0.390625 -0.796875 0.625q-0.515625 0.21875 -1.234375 0.21875q-1.203125 0 -1.9375 -0.53125q-0.71875 -0.53125 -0.875 -1.53125l1.75 0q0.046875 0.390625 0.328125 0.59375q0.28125 0.203125 0.734375 0.203125q0.3125 0 0.46875 -0.140625q0.15625 -0.15625 0.15625 -0.390625q0 -0.3125 -0.296875 -0.4375q-0.28125 -0.140625 -0.953125 -0.28125q-0.65625 -0.140625 -1.078125 -0.296875q-0.421875 -0.171875 -0.734375 -0.515625q-0.3125 -0.359375 -0.3125 -0.984375q0 -0.796875 0.609375 -1.28125q0.609375 -0.5 1.71875 -0.5zm9.398682 2.875q0 0.234375 -0.0625 0.5l-4.125 0q0.03125 0.671875 0.34375 0.96875q0.3125 0.28125 0.796875 0.28125q0.40625 0 0.671875 -0.203125q0.265625 -0.203125 0.34375 -0.515625l1.9375 0q-0.125 0.625 -0.515625 1.125q-0.390625 0.5 -1.0 0.78125q-0.609375 0.28125 -1.359375 0.28125q-0.875 0 -1.546875 -0.359375q-0.671875 -0.375 -1.0625 -1.0625q-0.390625 -0.703125 -0.390625 -1.625q0 -0.9375 0.375 -1.625q0.390625 -0.6875 1.0625 -1.046875q0.6875 -0.375 1.5625 -0.375q0.890625 0 1.5625 0.359375q0.671875 0.359375 1.03125 1.015625q0.375 0.65625 0.375 1.5zm-1.84375 -0.265625q0 -0.59375 -0.328125 -0.875q-0.3125 -0.296875 -0.796875 -0.296875q-0.5 0 -0.828125 0.296875q-0.328125 0.296875 -0.375 0.875l2.328125 0zm6.2993774 -0.890625q0 2.03125 -0.8125 3.65625q-0.796875 1.625 -2.09375 2.640625l-1.78125 0l0 -0.171875q2.921875 -2.421875 2.921875 -6.109375q0 -1.859375 -0.734375 -3.375q-0.71875 -1.515625 -2.1875 -2.734375l0 -0.1875l1.78125 0q1.296875 1.015625 2.09375 2.640625q0.8125 1.625 0.8125 3.640625z" fill-rule="nonzero"/></g></svg>