<svg version="1.1" viewBox="0.0 0.0 682.5905511811023 194.0288713910761" fill="none" stroke="none" stroke-linecap="square" stroke-miterlimit="10" xmlns:xlink="http://www.w3.org/1999/xlink" xmlns="http://www.w3.org/2000/svg"><clipPath id="p.0"><path d="m0 0l682.5906 0l0 194.02887l-682.5906 0l0 -194.02887z" clip-rule="nonzero"/></clipPath><g clip-path="url(#p.0)"><path fill="#000000" fill-opacity="0.0" d="m0 0l682.5906 0l0 194.02887l-682.5906 0z" fill-rule="evenodd"/><path fill="#f9c3c0" d="m13.878037 52.364937l0 0c0 -2.9919624 2.4254675 -5.417431 5.417432 -5.417431l107.11789 0c1.4367905 0 2.814743 0.57076263 3.8307037 1.586731c1.0159607 1.0159645 1.586731 2.3939095 1.586731 3.8307l0 21.669075c0 2.9919662 -2.4254608 5.4174347 -5.4174347 5.4174347l-107.11789 0c-2.9919643 0 -5.417432 -2.4254684 -5.417432 -5.4174347z" fill-rule="evenodd"/><path fill="#ffffff" d="m57.449135 67.99947l0 -6.234375l0.90625 0l0 6.234375l-0.90625 0zm0.453125 -7.453125q-0.296875 0 -0.515625 -0.203125q-0.203125 -0.21875 -0.203125 -0.53125q0 -0.296875 0.203125 -0.5q0.21875 -0.203125 0.515625 -0.203125q0.296875 0 0.5 0.203125q0.21875 0.203125 0.21875 0.515625q0 0.296875 -0.21875 0.515625q-0.203125 0.203125 -0.5 0.203125zm5.60318 1.0q0.65625 0 1.203125 0.265625q0.5625 0.265625 0.875 0.796875q0.328125 0.515625 0.328125 1.21875l0 4.171875l-0.90625 0l0 -3.765625q0 -1.859375 -1.640625 -1.859375q-0.96875 0 -1.453125 0.6875q-0.46875 0.671875 -0.46875 1.8125l0 3.125l-0.90625 0l0 -6.234375l0.90625 0l0 1.03125q0.3125 -0.59375 0.84375 -0.921875q0.53125 -0.328125 1.21875 -0.328125zm6.375931 6.671875q-0.90625 0 -1.59375 -0.390625q-0.671875 -0.390625 -1.03125 -1.09375l0.8125 -0.40625q0.484375 1.0625 1.921875 1.0625q0.703125 0 1.15625 -0.25q0.453125 -0.265625 0.453125 -0.796875q0 -0.546875 -0.375 -0.8125q-0.359375 -0.265625 -1.28125 -0.34375q-1.28125 -0.109375 -1.84375 -0.578125q-0.546875 -0.46875 -0.546875 -1.234375q0 -0.859375 0.625 -1.34375q0.625 -0.484375 1.71875 -0.484375q1.859375 0 2.53125 1.46875l-0.8125 0.40625q-0.234375 -0.546875 -0.671875 -0.796875q-0.421875 -0.25 -1.109375 -0.25q-0.6875 0 -1.0625 0.25q-0.359375 0.25 -0.359375 0.71875q0 0.4375 0.390625 0.71875q0.390625 0.265625 1.359375 0.359375q1.171875 0.09375 1.75 0.578125q0.59375 0.46875 0.59375 1.234375q0 0.625 -0.359375 1.078125q-0.359375 0.453125 -0.96875 0.6875q-0.59375 0.21875 -1.296875 0.21875zm4.3248596 -0.21875l0 -5.40625l-1.0625 0l0 -0.828125l1.0625 0l0 -2.0625l0.90625 0l0 2.0625l1.4375 0l0 0.828125l-1.4375 0l0 5.40625l-0.90625 0zm9.13398 -6.234375l0 6.234375l-0.90625 0l0 -0.921875q-0.390625 0.53125 -0.953125 0.84375q-0.5625 0.296875 -1.21875 0.296875q-0.8906326 0 -1.6093826 -0.421875q-0.703125 -0.4375 -1.109375 -1.1875q-0.390625 -0.765625 -0.390625 -1.734375q0 -0.96875 0.390625 -1.71875q0.390625 -0.75 1.09375 -1.171875q0.703125 -0.4375 1.5937576 -0.4375q0.6875 0 1.25 0.3125q0.5625 0.296875 0.953125 0.84375l0 -0.9375l0.90625 0zm-3.109375 5.625q0.640625 0 1.140625 -0.3125q0.5 -0.328125 0.78125 -0.90625q0.28125 -0.578125 0.28125 -1.296875q0 -0.71875 -0.28125 -1.28125q-0.28125 -0.578125 -0.78125 -0.890625q-0.5 -0.328125 -1.140625 -0.328125q-0.625 0 -1.1250076 0.328125q-0.484375 0.3125 -0.765625 0.875q-0.28125 0.5625 -0.28125 1.296875q0 0.71875 0.28125 1.296875q0.28125 0.578125 0.765625 0.90625q0.5000076 0.3125 1.1250076 0.3125zm4.852051 0.609375l0 -9.671875l0.90625 0l0 9.671875l-0.90625 0zm2.705597 0l0 -9.671875l0.90625 0l0 9.671875l-0.90625 0z" fill-rule="nonzero"/><path fill="#f9c3c0" d="m199.32439 92.564415l0 0c0 -2.9919662 2.425476 -5.4174347 5.4174347 -5.4174347l107.11789 0c1.4367981 0 2.8147278 0.57076263 3.830719 1.586731c1.0159607 1.0159683 1.586731 2.3939133 1.586731 3.8307037l0 21.669075c0 2.9919586 -2.425476 5.417427 -5.41745 5.417427l-107.11789 0c-2.9919586 0 -5.4174347 -2.4254684 -5.4174347 -5.417427z" fill-rule="evenodd"/><path fill="#ffffff" d="m250.65706 108.19895l0 -9.671875l0.90625 0l0 9.671875l-0.90625 0zm3.127472 0l0 -6.234375l0.90625 0l0 6.234375l-0.90625 0zm0.453125 -7.453125q-0.296875 0 -0.515625 -0.203125q-0.203125 -0.21875 -0.203125 -0.53125q0 -0.296875 0.203125 -0.5q0.21875 -0.203125 0.515625 -0.203125q0.296875 0 0.5 0.203125q0.21875 0.203125 0.21875 0.515625q0 0.296875 -0.21875 0.515625q-0.203125 0.203125 -0.5 0.203125zm5.6031647 1.0q0.65625 0 1.203125 0.265625q0.5625 0.265625 0.875 0.796875q0.328125 0.515625 0.328125 1.21875l0 4.171875l-0.90625 0l0 -3.765625q0 -1.859375 -1.640625 -1.859375q-0.96875 0 -1.453125 0.6875q-0.46875 0.671875 -0.46875 1.8125l0 3.125l-0.90625 0l0 -6.234375l0.90625 0l0 1.03125q0.3125 -0.59375 0.84375 -0.921875q0.53125 -0.328125 1.21875 -0.328125zm4.516571 6.453125l0 -5.40625l-1.0625 0l0 -0.828125l1.0625 0l0 -2.0625l0.90625 0l0 2.0625l1.4375 0l0 0.828125l-1.4375 0l0 5.40625l-0.90625 0z" fill-rule="nonzero"/><path fill="#fd7a9e" d="m384.77036 52.362312l0 0c0 -2.9919624 2.4254456 -5.417431 5.4174194 -5.417431l107.11789 0c1.4367981 0 2.8147583 0.57076263 3.830719 1.586731c1.0159607 1.0159645 1.586731 2.3939095 1.586731 3.8307l0 21.669075c0 2.9919662 -2.425476 5.4174347 -5.41745 5.4174347l-107.11789 0c-2.9919739 0 -5.4174194 -2.4254684 -5.4174194 -5.4174347z" fill-rule="evenodd"/><path fill="#ffffff" d="m434.66266 67.99685l0 -5.40625l-1.0625 0l0 -0.828125l1.0625 0l0 -2.0625l0.90625 0l0 2.0625l1.4375 0l0 0.828125l-1.4375 0l0 5.40625l-0.90625 0zm6.024597 -6.453125q0.84375 0 1.515625 0.421875q0.6875 0.40625 1.0625 1.125q0.390625 0.703125 0.390625 1.59375q0 0.25 -0.015625 0.375l-5.125 0q0.046875 0.96875 0.625 1.65625q0.578125 0.671875 1.5625 0.671875q0.796875 0 1.3125 -0.296875q0.53125 -0.3125 0.859375 -0.84375l0.71875 0.484375q-0.4375 0.6875 -1.15625 1.09375q-0.71875 0.390625 -1.703125 0.390625q-0.90625 0 -1.625 -0.421875q-0.703125 -0.4375 -1.109375 -1.1875q-0.390625 -0.765625 -0.390625 -1.734375q0 -0.953125 0.390625 -1.703125q0.390625 -0.765625 1.09375 -1.1875q0.703125 -0.4375 1.59375 -0.4375zm2.0625 2.78125q-0.125 -0.984375 -0.65625 -1.46875q-0.515625 -0.484375 -1.40625 -0.484375q-0.859375 0 -1.421875 0.5625q-0.546875 0.546875 -0.703125 1.390625l4.1875 0zm4.434723 3.890625q-0.90625 0 -1.59375 -0.390625q-0.671875 -0.390625 -1.03125 -1.09375l0.8125 -0.40625q0.484375 1.0625 1.921875 1.0625q0.703125 0 1.15625 -0.25q0.453125 -0.265625 0.453125 -0.796875q0 -0.546875 -0.375 -0.8125q-0.359375 -0.265625 -1.28125 -0.34375q-1.28125 -0.109375 -1.84375 -0.578125q-0.546875 -0.46875 -0.546875 -1.234375q0 -0.859375 0.625 -1.34375q0.625 -0.484375 1.71875 -0.484375q1.859375 0 2.53125 1.46875l-0.8125 0.40625q-0.234375 -0.546875 -0.671875 -0.796875q-0.421875 -0.25 -1.109375 -0.25q-0.6875 0 -1.0625 0.25q-0.359375 0.25 -0.359375 0.71875q0 0.4375 0.390625 0.71875q0.390625 0.265625 1.359375 0.359375q1.171875 0.09375 1.75 0.578125q0.59375 0.46875 0.59375 1.234375q0 0.625 -0.359375 1.078125q-0.359375 0.453125 -0.96875 0.6875q-0.59375 0.21875 -1.296875 0.21875zm4.3248596 -0.21875l0 -5.40625l-1.0625 0l0 -0.828125l1.0625 0l0 -2.0625l0.90625 0l0 2.0625l1.4375 0l0 0.828125l-1.4375 0l0 5.40625l-0.90625 0z" fill-rule="nonzero"/><path fill="#fd7a9e" d="m384.77057 92.56179l0 0c0 -2.9919662 2.425476 -5.4174347 5.41745 -5.4174347l107.11789 0c1.4367981 0 2.8147278 0.57076263 3.8306885 1.586731c1.0159607 1.0159607 1.586731 2.3939056 1.586731 3.8307037l0 21.669075c0 2.9919586 -2.4254456 5.417427 -5.4174194 5.417427l-107.11789 0c-2.9919739 0 -5.41745 -2.4254684 -5.41745 -5.417427z" fill-rule="evenodd"/><path fill="#ffffff" d="m415.1182 108.19633l0 -9.671875l0.90625 0l0 9.671875l-0.90625 0zm3.127472 0l0 -6.234375l0.90625 0l0 6.234375l-0.90625 0zm0.453125 -7.453125q-0.296875 0 -0.515625 -0.203125q-0.203125 -0.21875 -0.203125 -0.53125q0 -0.296875 0.203125 -0.5q0.21875 -0.203125 0.515625 -0.203125q0.296875 0 0.5 0.203125q0.21875 0.203125 0.21875 0.515625q0 0.296875 -0.21875 0.515625q-0.203125 0.203125 -0.5 0.203125zm8.431305 1.21875l0 6.0q0 0.828125 -0.359375 1.484375q-0.34375 0.671875 -0.96875 1.046875q-0.625 0.375 -1.421875 0.375l-2.578125 0l0 -0.828125l2.578125 0q0.8125 0 1.328125 -0.59375q0.515625 -0.578125 0.515625 -1.484375l0 -0.6875q-0.390625 0.53125 -0.953125 0.84375q-0.5625 0.296875 -1.21875 0.296875q-0.890625 0 -1.609375 -0.421875q-0.703125 -0.4375 -1.109375 -1.1875q-0.390625 -0.765625 -0.390625 -1.734375q0 -0.96875 0.390625 -1.71875q0.390625 -0.75 1.09375 -1.171875q0.703125 -0.4375 1.59375 -0.4375q0.6875 0 1.25 0.3125q0.5625 0.296875 0.953125 0.84375l0 -0.9375l0.90625 0zm-3.109375 5.625q0.640625 0 1.140625 -0.3125q0.5 -0.328125 0.78125 -0.90625q0.28125 -0.578125 0.28125 -1.296875q0 -0.71875 -0.28125 -1.28125q-0.28125 -0.578125 -0.78125 -0.890625q-0.5 -0.328125 -1.140625 -0.328125q-0.625 0 -1.125 0.328125q-0.484375 0.3125 -0.765625 0.875q-0.28125 0.5625 -0.28125 1.296875q0 0.71875 0.28125 1.296875q0.28125 0.578125 0.765625 0.90625q0.5 0.3125 1.125 0.3125zm7.758301 -5.84375q0.65625 0 1.203125 0.265625q0.5625 0.265625 0.875 0.796875q0.328125 0.515625 0.328125 1.21875l0 4.171875l-0.90625 0l0 -3.765625q0 -1.859375 -1.640625 -1.859375q-0.96875 0 -1.453125 0.6875q-0.46875 0.671875 -0.46875 1.8125l0 3.125l-0.90625 0l0 -9.671875l0.90625 0l0 4.46875q0.3125 -0.59375 0.84375 -0.921875q0.53125 -0.328125 1.21875 -0.328125zm4.4765625 6.453125l0 -5.40625l-1.0625 0l0 -0.828125l1.0625 0l0 -2.0625l0.90625 0l0 2.0625l1.4375 0l0 0.828125l-1.4375 0l0 5.40625l-0.90625 0zm6.305847 -6.453125q0.65625 0 1.203125 0.265625q0.5625 0.265625 0.875 0.796875q0.328125 0.515625 0.328125 1.21875l0 4.171875l-0.90625 0l0 -3.765625q0 -1.859375 -1.640625 -1.859375q-0.96875 0 -1.453125 0.6875q-0.46875 0.671875 -0.46875 1.8125l0 3.125l-0.90625 0l0 -9.671875l0.90625 0l0 4.46875q0.3125 -0.59375 0.84375 -0.921875q0.53125 -0.328125 1.21875 -0.328125zm6.8671875 6.671875q-0.890625 0 -1.609375 -0.421875q-0.703125 -0.4375 -1.109375 -1.203125q-0.390625 -0.765625 -0.390625 -1.71875q0 -0.96875 0.390625 -1.71875q0.390625 -0.75 1.09375 -1.171875q0.703125 -0.4375 1.59375 -0.4375q0.890625 0 1.59375 0.4375q0.71875 0.421875 1.109375 1.1875q0.40625 0.75 0.40625 1.703125q0 0.96875 -0.40625 1.734375q-0.390625 0.75 -1.09375 1.1875q-0.6875 0.421875 -1.578125 0.421875zm-0.03125 -0.828125q0.640625 0 1.140625 -0.3125q0.5 -0.328125 0.78125 -0.90625q0.28125 -0.578125 0.28125 -1.296875q0 -0.71875 -0.28125 -1.28125q-0.28125 -0.578125 -0.78125 -0.890625q-0.5 -0.328125 -1.140625 -0.328125q-0.625 0 -1.125 0.328125q-0.484375 0.3125 -0.765625 0.875q-0.28125 0.5625 -0.28125 1.296875q0 0.71875 0.28125 1.296875q0.28125 0.578125 0.765625 0.90625q0.5 0.3125 1.125 0.3125zm9.858459 -5.625l0 6.234375l-0.90625 0l0 -1.046875q-0.3125 0.609375 -0.84375 0.9375q-0.53125 0.328125 -1.21875 0.328125q-0.65625 0 -1.203125 -0.265625q-0.546875 -0.265625 -0.875 -0.78125q-0.328125 -0.53125 -0.328125 -1.234375l0 -4.171875l0.90625 0l0 3.765625q0 1.859375 1.640625 1.859375q0.96875 0 1.4375 -0.671875q0.484375 -0.6875 0.484375 -1.84375l0 -3.109375l0.90625 0zm3.8759155 6.453125q-0.90625 0 -1.59375 -0.390625q-0.671875 -0.390625 -1.03125 -1.09375l0.8125 -0.40625q0.484375 1.0625 1.921875 1.0625q0.703125 0 1.15625 -0.25q0.453125 -0.265625 0.453125 -0.796875q0 -0.546875 -0.375 -0.8125q-0.359375 -0.265625 -1.28125 -0.34375q-1.28125 -0.109375 -1.84375 -0.578125q-0.546875 -0.46875 -0.546875 -1.234375q0 -0.859375 0.625 -1.34375q0.625 -0.484375 1.71875 -0.484375q1.859375 0 2.53125 1.46875l-0.8125 0.40625q-0.234375 -0.546875 -0.671875 -0.796875q-0.421875 -0.25 -1.109375 -0.25q-0.6875 0 -1.0625 0.25q-0.359375 0.25 -0.359375 0.71875q0 0.4375 0.390625 0.71875q0.390625 0.265625 1.359375 0.359375q1.171875 0.09375 1.75 0.578125q0.59375 0.46875 0.59375 1.234375q0 0.625 -0.359375 1.078125q-0.359375 0.453125 -0.96875 0.6875q-0.59375 0.21875 -1.296875 0.21875zm6.6842346 -6.671875q0.84375 0 1.515625 0.421875q0.6875 0.40625 1.0625 1.125q0.390625 0.703125 0.390625 1.59375q0 0.25 -0.015625 0.375l-5.125 0q0.046875 0.96875 0.625 1.65625q0.578125 0.671875 1.5625 0.671875q0.796875 0 1.3125 -0.296875q0.53125 -0.3125 0.859375 -0.84375l0.71875 0.484375q-0.4375 0.6875 -1.15625 1.09375q-0.71875 0.390625 -1.703125 0.390625q-0.90625 0 -1.625 -0.421875q-0.703125 -0.4375 -1.109375 -1.1875q-0.390625 -0.765625 -0.390625 -1.734375q0 -0.953125 0.390625 -1.703125q0.390625 -0.765625 1.09375 -1.1875q0.703125 -0.4375 1.59375 -0.4375zm2.0625 2.78125q-0.125 -0.984375 -0.65625 -1.46875q-0.515625 -0.484375 -1.40625 -0.484375q-0.859375 0 -1.421875 0.5625q-0.546875 0.546875 -0.703125 1.390625l4.1875 0z" fill-rule="nonzero"/><path fill="#fd7a9e" d="m551.3189 52.362312l0 0c0 -2.9919624 2.425476 -5.417431 5.4174194 -5.417431l107.11786 0c1.4368286 0 2.8147583 0.57076263 3.8307495 1.586731c1.0159302 1.0159645 1.586731 2.3939095 1.586731 3.8307l0 21.669075c0 2.9919662 -2.425476 5.4174347 -5.4174805 5.4174347l-107.11786 0c-2.9919434 0 -5.4174194 -2.4254684 -5.4174194 -5.4174347z" fill-rule="evenodd"/><path fill="#ffffff" d="m567.91766 61.543724q0.890625 0 1.59375 0.4375q0.703125 0.421875 1.09375 1.1875q0.40625 0.75 0.40625 1.71875q0 0.96875 -0.390625 1.71875q-0.390625 0.75 -1.09375 1.1875q-0.703125 0.421875 -1.59375 0.421875q-0.671875 0 -1.25 -0.296875q-0.5625 -0.3125 -0.9375 -0.859375l0 3.609375l-0.90625 0l0 -8.90625l0.90625 0l0 0.921875q0.375 -0.53125 0.9375 -0.828125q0.5625 -0.3125 1.234375 -0.3125zm0.015625 5.84375q0.625 0 1.125 -0.3125q0.5 -0.328125 0.765625 -0.890625q0.28125 -0.578125 0.28125 -1.296875q0 -0.734375 -0.28125 -1.296875q-0.265625 -0.578125 -0.765625 -0.890625q-0.5 -0.328125 -1.125 -0.328125q-0.640625 0 -1.140625 0.328125q-0.5 0.3125 -0.78125 0.890625q-0.265625 0.5625 -0.265625 1.28125q0 0.71875 0.265625 1.296875q0.28125 0.578125 0.78125 0.90625q0.5 0.3125 1.140625 0.3125zm9.836426 -5.625l0 6.234375l-0.90625 0l0 -1.046875q-0.3125 0.609375 -0.84375 0.9375q-0.53125 0.328125 -1.21875 0.328125q-0.65625 0 -1.203125 -0.265625q-0.546875 -0.265625 -0.875 -0.78125q-0.328125 -0.53125 -0.328125 -1.234375l0 -4.171875l0.90625 0l0 3.765625q0 1.859375 1.640625 1.859375q0.96875 0 1.4375 -0.671875q0.484375 -0.6875 0.484375 -1.84375l0 -3.109375l0.90625 0zm3.8759766 6.453125q-0.90625 0 -1.59375 -0.390625q-0.671875 -0.390625 -1.03125 -1.09375l0.8125 -0.40625q0.484375 1.0625 1.921875 1.0625q0.703125 0 1.15625 -0.25q0.453125 -0.265625 0.453125 -0.796875q0 -0.546875 -0.375 -0.8125q-0.359375 -0.265625 -1.28125 -0.34375q-1.28125 -0.109375 -1.84375 -0.578125q-0.546875 -0.46875 -0.546875 -1.234375q0 -0.859375 0.625 -1.34375q0.625 -0.484375 1.71875 -0.484375q1.859375 0 2.53125 1.46875l-0.8125 0.40625q-0.234375 -0.546875 -0.671875 -0.796875q-0.421875 -0.25 -1.109375 -0.25q-0.6875 0 -1.0625 0.25q-0.359375 0.25 -0.359375 0.71875q0 0.4375 0.390625 0.71875q0.390625 0.265625 1.359375 0.359375q1.171875 0.09375 1.75 0.578125q0.59375 0.46875 0.59375 1.234375q0 0.625 -0.359375 1.078125q-0.359375 0.453125 -0.96875 0.6875q-0.59375 0.21875 -1.296875 0.21875zm6.965454 -6.671875q0.65625 0 1.203125 0.265625q0.5625 0.265625 0.875 0.796875q0.328125 0.515625 0.328125 1.21875l0 4.171875l-0.90625 0l0 -3.765625q0 -1.859375 -1.640625 -1.859375q-0.96875 0 -1.453125 0.6875q-0.46875 0.671875 -0.46875 1.8125l0 3.125l-0.90625 0l0 -9.671875l0.90625 0l0 4.46875q0.3125 -0.59375 0.84375 -0.921875q0.53125 -0.328125 1.21875 -0.328125zm4.0703125 3.546875l0 -0.75l3.015625 0l0 0.75l-3.015625 0zm7.312805 3.125q-0.90625 0 -1.625 -0.421875q-0.703125 -0.4375 -1.109375 -1.1875q-0.390625 -0.765625 -0.390625 -1.734375q0 -0.953125 0.390625 -1.703125q0.40625 -0.765625 1.109375 -1.1875q0.703125 -0.4375 1.59375 -0.4375q0.765625 0 1.328125 0.328125q0.5625 0.328125 1.03125 0.921875l-0.65625 0.53125q-0.65625 -0.953125 -1.703125 -0.953125q-0.625 0 -1.125 0.328125q-0.5 0.3125 -0.78125 0.890625q-0.28125 0.5625 -0.28125 1.28125q0 0.71875 0.28125 1.296875q0.28125 0.578125 0.78125 0.90625q0.5 0.3125 1.125 0.3125q0.640625 0 1.046875 -0.21875q0.421875 -0.21875 0.75 -0.65625l0.71875 0.5q-0.453125 0.546875 -1.09375 0.875q-0.640625 0.328125 -1.390625 0.328125zm6.373108 0q-0.890625 0 -1.609375 -0.421875q-0.703125 -0.4375 -1.109375 -1.203125q-0.390625 -0.765625 -0.390625 -1.71875q0 -0.96875 0.390625 -1.71875q0.390625 -0.75 1.09375 -1.171875q0.703125 -0.4375 1.59375 -0.4375q0.890625 0 1.59375 0.4375q0.71875 0.421875 1.109375 1.1875q0.40625 0.75 0.40625 1.703125q0 0.96875 -0.40625 1.734375q-0.390625 0.75 -1.09375 1.1875q-0.6875 0.421875 -1.578125 0.421875zm-0.03125 -0.828125q0.640625 0 1.140625 -0.3125q0.5 -0.328125 0.78125 -0.90625q0.28125 -0.578125 0.28125 -1.296875q0 -0.71875 -0.28125 -1.28125q-0.28125 -0.578125 -0.78125 -0.890625q-0.5 -0.328125 -1.140625 -0.328125q-0.625 0 -1.125 0.328125q-0.484375 0.3125 -0.765625 0.875q-0.28125 0.5625 -0.28125 1.296875q0 0.71875 0.28125 1.296875q0.28125 0.578125 0.765625 0.90625q0.5 0.3125 1.125 0.3125zm7.3584595 -5.84375q0.65625 0 1.203125 0.265625q0.5625 0.265625 0.875 0.796875q0.328125 0.515625 0.328125 1.21875l0 4.171875l-0.90625 0l0 -3.765625q0 -1.859375 -1.640625 -1.859375q-0.96875 0 -1.453125 0.6875q-0.46875 0.671875 -0.46875 1.8125l0 3.125l-0.90625 0l0 -6.234375l0.90625 0l0 1.03125q0.3125 -0.59375 0.84375 -0.921875q0.53125 -0.328125 1.21875 -0.328125zm4.5165405 6.453125l0 -5.40625l-1.0625 0l0 -0.828125l1.0625 0l0 -2.0625l0.90625 0l0 2.0625l1.4375 0l0 0.828125l-1.4375 0l0 5.40625l-0.90625 0zm9.133972 -6.234375l0 6.234375l-0.90625 0l0 -0.921875q-0.390625 0.53125 -0.953125 0.84375q-0.5625 0.296875 -1.21875 0.296875q-0.890625 0 -1.609375 -0.421875q-0.703125 -0.4375 -1.109375 -1.1875q-0.390625 -0.765625 -0.390625 -1.734375q0 -0.96875 0.390625 -1.71875q0.390625 -0.75 1.09375 -1.171875q0.703125 -0.4375 1.59375 -0.4375q0.6875 0 1.25 0.3125q0.5625 0.296875 0.953125 0.84375l0 -0.9375l0.90625 0zm-3.109375 5.625q0.640625 0 1.140625 -0.3125q0.5 -0.328125 0.78125 -0.90625q0.28125 -0.578125 0.28125 -1.296875q0 -0.71875 -0.28125 -1.28125q-0.28125 -0.578125 -0.78125 -0.890625q-0.5 -0.328125 -1.140625 -0.328125q-0.625 0 -1.125 0.328125q-0.484375 0.3125 -0.765625 0.875q-0.28125 0.5625 -0.28125 1.296875q0 0.71875 0.28125 1.296875q0.28125 0.578125 0.765625 0.90625q0.5 0.3125 1.125 0.3125zm5.273926 0.609375l0 -6.234375l0.90625 0l0 6.234375l-0.90625 0zm0.453125 -7.453125q-0.296875 0 -0.515625 -0.203125q-0.203125 -0.21875 -0.203125 -0.53125q0 -0.296875 0.203125 -0.5q0.21875 -0.203125 0.515625 -0.203125q0.296875 0 0.5 0.203125q0.21875 0.203125 0.21875 0.515625q0 0.296875 -0.21875 0.515625q-0.203125 0.203125 -0.5 0.203125zm5.6032104 1.0q0.65625 0 1.203125 0.265625q0.5625 0.265625 0.875 0.796875q0.328125 0.515625 0.328125 1.21875l0 4.171875l-0.90625 0l0 -3.765625q0 -1.859375 -1.640625 -1.859375q-0.96875 0 -1.453125 0.6875q-0.46875 0.671875 -0.46875 1.8125l0 3.125l-0.90625 0l0 -6.234375l0.90625 0l0 1.03125q0.3125 -0.59375 0.84375 -0.921875q0.53125 -0.328125 1.21875 -0.328125zm6.8759155 0q0.84375 0 1.515625 0.421875q0.6875 0.40625 1.0625 1.125q0.390625 0.703125 0.390625 1.59375q0 0.25 -0.015625 0.375l-5.125 0q0.046875 0.96875 0.625 1.65625q0.578125 0.671875 1.5625 0.671875q0.796875 0 1.3125 -0.296875q0.53125 -0.3125 0.859375 -0.84375l0.71875 0.484375q-0.4375 0.6875 -1.15625 1.09375q-0.71875 0.390625 -1.703125 0.390625q-0.90625 0 -1.625 -0.421875q-0.703125 -0.4375 -1.109375 -1.1875q-0.390625 -0.765625 -0.390625 -1.734375q0 -0.953125 0.390625 -1.703125q0.390625 -0.765625 1.09375 -1.1875q0.703125 -0.4375 1.59375 -0.4375zm2.0625 2.78125q-0.125 -0.984375 -0.65625 -1.46875q-0.515625 -0.484375 -1.40625 -0.484375q-0.859375 0 -1.421875 0.5625q-0.546875 0.546875 -0.703125 1.390625l4.1875 0zm5.3097534 -2.78125q0.3125 0 0.609375 0.09375l0 0.828125q-0.28125 -0.140625 -0.609375 -0.140625q-0.578125 0 -1.078125 0.328125q-0.484375 0.3125 -0.78125 0.921875q-0.296875 0.609375 -0.296875 1.4375l0 2.984375l-0.90625 0l0 -6.234375l0.90625 0l0 1.25q0.359375 -0.6875 0.90625 -1.078125q0.5625 -0.390625 1.25 -0.390625zm3.6431885 6.671875q-0.90625 0 -1.59375 -0.390625q-0.671875 -0.390625 -1.03125 -1.09375l0.8125 -0.40625q0.484375 1.0625 1.921875 1.0625q0.703125 0 1.15625 -0.25q0.453125 -0.265625 0.453125 -0.796875q0 -0.546875 -0.375 -0.8125q-0.359375 -0.265625 -1.28125 -0.34375q-1.28125 -0.109375 -1.84375 -0.578125q-0.546875 -0.46875 -0.546875 -1.234375q0 -0.859375 0.625 -1.34375q0.625 -0.484375 1.71875 -0.484375q1.859375 0 2.53125 1.46875l-0.8125 0.40625q-0.234375 -0.546875 -0.671875 -0.796875q-0.421875 -0.25 -1.109375 -0.25q-0.6875 0 -1.0625 0.25q-0.359375 0.25 -0.359375 0.71875q0 0.4375 0.390625 0.71875q0.390625 0.265625 1.359375 0.359375q1.171875 0.09375 1.75 0.578125q0.59375 0.46875 0.59375 1.234375q0 0.625 -0.359375 1.078125q-0.359375 0.453125 -0.96875 0.6875q-0.59375 0.21875 -1.296875 0.21875z" fill-rule="nonzero"/><path fill="#fd775e" d="m486.61548 155.56178l0 0c0 -2.9919586 2.425476 -5.4174194 5.41745 -5.4174194l171.84232 0c1.4367676 0 2.8146973 0.570755 3.8306885 1.5867157c1.0159302 1.015976 1.586731 2.393921 1.586731 3.8307037l0 21.669083c0 2.9919586 -2.425476 5.4174347 -5.4174194 5.4174347l-171.84232 0c-2.9919739 0 -5.41745 -2.425476 -5.41745 -5.4174347z" fill-rule="evenodd"/><path fill="#ffffff" d="m518.392 164.7432q0.3125 0 0.609375 0.09375l0 0.828125q-0.28125 -0.140625 -0.609375 -0.140625q-0.578125 0 -1.078125 0.328125q-0.484375 0.3125 -0.78125 0.921875q-0.296875 0.609375 -0.296875 1.4375l0 2.984375l-0.90625 0l0 -6.234375l0.90625 0l0 1.25q0.359375 -0.6875 0.90625 -1.078125q0.5625 -0.390625 1.25 -0.390625zm4.1431885 0q0.84375 0 1.515625 0.421875q0.6875 0.40625 1.0625 1.125q0.390625 0.703125 0.390625 1.59375q0 0.25 -0.015625 0.375l-5.125 0q0.046875 0.96875 0.625 1.65625q0.578125 0.671875 1.5625 0.671875q0.796875 0 1.3125 -0.296875q0.53125 -0.3125 0.859375 -0.84375l0.71875 0.484375q-0.4375 0.6875 -1.15625 1.09375q-0.71875 0.390625 -1.703125 0.390625q-0.90625 0 -1.625 -0.421875q-0.703125 -0.4375 -1.109375 -1.1875q-0.390625 -0.765625 -0.390625 -1.734375q0 -0.953125 0.390625 -1.703125q0.390625 -0.765625 1.09375 -1.1875q0.703125 -0.4375 1.59375 -0.4375zm2.0625 2.78125q-0.125 -0.984375 -0.65625 -1.46875q-0.515625 -0.484375 -1.40625 -0.484375q-0.859375 0 -1.421875 0.5625q-0.546875 0.546875 -0.703125 1.390625l4.1875 0zm2.3097534 3.671875l0 -9.671875l0.90625 0l0 9.671875l-0.90625 0zm5.3305664 -6.453125q0.84375 0 1.515625 0.421875q0.6875 0.40625 1.0625 1.125q0.390625 0.703125 0.390625 1.59375q0 0.25 -0.015625 0.375l-5.125 0q0.046875 0.96875 0.625 1.65625q0.578125 0.671875 1.5625 0.671875q0.796875 0 1.3125 -0.296875q0.53125 -0.3125 0.859375 -0.84375l0.71875 0.484375q-0.4375 0.6875 -1.15625 1.09375q-0.71875 0.390625 -1.703125 0.390625q-0.90625 0 -1.625 -0.421875q-0.703125 -0.4375 -1.109375 -1.1875q-0.390625 -0.765625 -0.390625 -1.734375q0 -0.953125 0.390625 -1.703125q0.390625 -0.765625 1.09375 -1.1875q0.703125 -0.4375 1.59375 -0.4375zm2.0625 2.78125q-0.125 -0.984375 -0.65625 -1.46875q-0.515625 -0.484375 -1.40625 -0.484375q-0.859375 0 -1.421875 0.5625q-0.546875 0.546875 -0.703125 1.390625l4.1875 0zm8.044128 -2.5625l0 6.234375l-0.90625 0l0 -0.921875q-0.390625 0.53125 -0.953125 0.84375q-0.5625 0.296875 -1.21875 0.296875q-0.890625 0 -1.609375 -0.421875q-0.703125 -0.4375 -1.109375 -1.1875q-0.390625 -0.765625 -0.390625 -1.734375q0 -0.96875 0.390625 -1.71875q0.390625 -0.75 1.09375 -1.171875q0.703125 -0.4375 1.59375 -0.4375q0.6875 0 1.25 0.3125q0.5625 0.296875 0.953125 0.84375l0 -0.9375l0.90625 0zm-3.109375 5.625q0.640625 0 1.140625 -0.3125q0.5 -0.328125 0.78125 -0.90625q0.28125 -0.578125 0.28125 -1.296875q0 -0.71875 -0.28125 -1.28125q-0.28125 -0.578125 -0.78125 -0.890625q-0.5 -0.328125 -1.140625 -0.328125q-0.625 0 -1.125 0.328125q-0.484375 0.3125 -0.765625 0.875q-0.28125 0.5625 -0.28125 1.296875q0 0.71875 0.28125 1.296875q0.28125 0.578125 0.765625 0.90625q0.5 0.3125 1.125 0.3125zm6.977051 0.828125q-0.90625 0 -1.59375 -0.390625q-0.671875 -0.390625 -1.03125 -1.09375l0.8125 -0.40625q0.484375 1.0625 1.921875 1.0625q0.703125 0 1.15625 -0.25q0.453125 -0.265625 0.453125 -0.796875q0 -0.546875 -0.375 -0.8125q-0.359375 -0.265625 -1.28125 -0.34375q-1.28125 -0.109375 -1.84375 -0.578125q-0.546875 -0.46875 -0.546875 -1.234375q0 -0.859375 0.625 -1.34375q0.625 -0.484375 1.71875 -0.484375q1.859375 0 2.53125 1.46875l-0.8125 0.40625q-0.234375 -0.546875 -0.671875 -0.796875q-0.421875 -0.25 -1.109375 -0.25q-0.6875 0 -1.0625 0.25q-0.359375 0.25 -0.359375 0.71875q0 0.4375 0.390625 0.71875q0.390625 0.265625 1.359375 0.359375q1.171875 0.09375 1.75 0.578125q0.59375 0.46875 0.59375 1.234375q0 0.625 -0.359375 1.078125q-0.359375 0.453125 -0.96875 0.6875q-0.59375 0.21875 -1.296875 0.21875zm6.684265 -6.671875q0.84375 0 1.515625 0.421875q0.6875 0.40625 1.0625 1.125q0.390625 0.703125 0.390625 1.59375q0 0.25 -0.015625 0.375l-5.125 0q0.046875 0.96875 0.625 1.65625q0.578125 0.671875 1.5625 0.671875q0.796875 0 1.3125 -0.296875q0.53125 -0.3125 0.859375 -0.84375l0.71875 0.484375q-0.4375 0.6875 -1.15625 1.09375q-0.71875 0.390625 -1.703125 0.390625q-0.90625 0 -1.625 -0.421875q-0.703125 -0.4375 -1.109375 -1.1875q-0.390625 -0.765625 -0.390625 -1.734375q0 -0.953125 0.390625 -1.703125q0.390625 -0.765625 1.09375 -1.1875q0.703125 -0.4375 1.59375 -0.4375zm2.0625 2.78125q-0.125 -0.984375 -0.65625 -1.46875q-0.515625 -0.484375 -1.40625 -0.484375q-0.859375 0 -1.421875 0.5625q-0.546875 0.546875 -0.703125 1.390625l4.1875 0zm2.1690674 0.765625l0 -0.75l3.015625 0l0 0.75l-3.015625 0zm7.70343 -3.546875q0.890625 0 1.59375 0.4375q0.703125 0.421875 1.09375 1.1875q0.40625 0.75 0.40625 1.71875q0 0.96875 -0.390625 1.71875q-0.390625 0.75 -1.09375 1.1875q-0.703125 0.421875 -1.59375 0.421875q-0.671875 0 -1.25 -0.296875q-0.5625 -0.3125 -0.9375 -0.859375l0 3.609375l-0.90625 0l0 -8.90625l0.90625 0l0 0.921875q0.375 -0.53125 0.9375 -0.828125q0.5625 -0.3125 1.234375 -0.3125zm0.015625 5.84375q0.625 0 1.125 -0.3125q0.5 -0.328125 0.765625 -0.890625q0.28125 -0.578125 0.28125 -1.296875q0 -0.734375 -0.28125 -1.296875q-0.265625 -0.578125 -0.765625 -0.890625q-0.5 -0.328125 -1.125 -0.328125q-0.640625 0 -1.140625 0.328125q-0.5 0.3125 -0.78125 0.890625q-0.265625 0.5625 -0.265625 1.28125q0 0.71875 0.265625 1.296875q0.28125 0.578125 0.78125 0.90625q0.5 0.3125 1.140625 0.3125zm7.430176 -5.84375q0.3125 0 0.609375 0.09375l0 0.828125q-0.28125 -0.140625 -0.609375 -0.140625q-0.578125 0 -1.078125 0.328125q-0.484375 0.3125 -0.78125 0.921875q-0.296875 0.609375 -0.296875 1.4375l0 2.984375l-0.90625 0l0 -6.234375l0.90625 0l0 1.25q0.359375 -0.6875 0.90625 -1.078125q0.5625 -0.390625 1.25 -0.390625zm4.1432495 0q0.84375 0 1.515625 0.421875q0.6875 0.40625 1.0625 1.125q0.390625 0.703125 0.390625 1.59375q0 0.25 -0.015625 0.375l-5.125 0q0.046875 0.96875 0.625 1.65625q0.578125 0.671875 1.5625 0.671875q0.796875 0 1.3125 -0.296875q0.53125 -0.3125 0.859375 -0.84375l0.71875 0.484375q-0.4375 0.6875 -1.15625 1.09375q-0.71875 0.390625 -1.703125 0.390625q-0.90625 0 -1.625 -0.421875q-0.703125 -0.4375 -1.109375 -1.1875q-0.390625 -0.765625 -0.390625 -1.734375q0 -0.953125 0.390625 -1.703125q0.390625 -0.765625 1.09375 -1.1875q0.703125 -0.4375 1.59375 -0.4375zm2.0625 2.78125q-0.125 -0.984375 -0.65625 -1.46875q-0.515625 -0.484375 -1.40625 -0.484375q-0.859375 0 -1.421875 0.5625q-0.546875 0.546875 -0.703125 1.390625l4.1875 0zm5.3409424 -2.78125q0.890625 0 1.59375 0.4375q0.703125 0.421875 1.09375 1.1875q0.40625 0.75 0.40625 1.71875q0 0.96875 -0.390625 1.71875q-0.390625 0.75 -1.09375 1.1875q-0.703125 0.421875 -1.59375 0.421875q-0.671875 0 -1.25 -0.296875q-0.5625 -0.3125 -0.9375 -0.859375l0 3.609375l-0.90625 0l0 -8.90625l0.90625 0l0 0.921875q0.375 -0.53125 0.9375 -0.828125q0.5625 -0.3125 1.234375 -0.3125zm0.015625 5.84375q0.625 0 1.125 -0.3125q0.5 -0.328125 0.765625 -0.890625q0.28125 -0.578125 0.28125 -1.296875q0 -0.734375 -0.28125 -1.296875q-0.265625 -0.578125 -0.765625 -0.890625q-0.5 -0.328125 -1.125 -0.328125q-0.640625 0 -1.140625 0.328125q-0.5 0.3125 -0.78125 0.890625q-0.265625 0.5625 -0.265625 1.28125q0 0.71875 0.265625 1.296875q0.28125 0.578125 0.78125 0.90625q0.5 0.3125 1.140625 0.3125zm7.430176 -5.84375q0.3125 0 0.609375 0.09375l0 0.828125q-0.28125 -0.140625 -0.609375 -0.140625q-0.578125 0 -1.078125 0.328125q-0.484375 0.3125 -0.78125 0.921875q-0.296875 0.609375 -0.296875 1.4375l0 2.984375l-0.90625 0l0 -6.234375l0.90625 0l0 1.25q0.359375 -0.6875 0.90625 -1.078125q0.5625 -0.390625 1.25 -0.390625zm4.1744995 6.671875q-0.890625 0 -1.609375 -0.421875q-0.703125 -0.4375 -1.109375 -1.203125q-0.390625 -0.765625 -0.390625 -1.71875q0 -0.96875 0.390625 -1.71875q0.390625 -0.75 1.09375 -1.171875q0.703125 -0.4375 1.59375 -0.4375q0.890625 0 1.59375 0.4375q0.71875 0.421875 1.109375 1.1875q0.40625 0.75 0.40625 1.703125q0 0.96875 -0.40625 1.734375q-0.390625 0.75 -1.09375 1.1875q-0.6875 0.421875 -1.578125 0.421875zm-0.03125 -0.828125q0.640625 0 1.140625 -0.3125q0.5 -0.328125 0.78125 -0.90625q0.28125 -0.578125 0.28125 -1.296875q0 -0.71875 -0.28125 -1.28125q-0.28125 -0.578125 -0.78125 -0.890625q-0.5 -0.328125 -1.140625 -0.328125q-0.625 0 -1.125 0.328125q-0.484375 0.3125 -0.765625 0.875q-0.28125 0.5625 -0.28125 1.296875q0 0.71875 0.28125 1.296875q0.28125 0.578125 0.765625 0.90625q0.5 0.3125 1.125 0.3125zm10.186584 -9.0625l0 9.671875l-0.90625 0l0 -0.921875q-0.390625 0.53125 -0.953125 0.84375q-0.5625 0.296875 -1.21875 0.296875q-0.890625 0 -1.609375 -0.421875q-0.703125 -0.4375 -1.109375 -1.1875q-0.390625 -0.765625 -0.390625 -1.734375q0 -0.96875 0.390625 -1.71875q0.390625 -0.75 1.09375 -1.171875q0.703125 -0.4375 1.59375 -0.4375q0.6875 0 1.25 0.3125q0.5625 0.296875 0.953125 0.84375l0 -4.375l0.90625 0zm-3.109375 9.0625q0.640625 0 1.140625 -0.3125q0.5 -0.328125 0.78125 -0.90625q0.28125 -0.578125 0.28125 -1.296875q0 -0.71875 -0.28125 -1.28125q-0.28125 -0.578125 -0.78125 -0.890625q-0.5 -0.328125 -1.140625 -0.328125q-0.625 0 -1.125 0.328125q-0.484375 0.3125 -0.765625 0.875q-0.28125 0.5625 -0.28125 1.296875q0 0.71875 0.28125 1.296875q0.28125 0.578125 0.765625 0.90625q0.5 0.3125 1.125 0.3125zm10.258301 -5.625l0 6.234375l-0.90625 0l0 -1.046875q-0.3125 0.609375 -0.84375 0.9375q-0.53125 0.328125 -1.21875 0.328125q-0.65625 0 -1.203125 -0.265625q-0.546875 -0.265625 -0.875 -0.78125q-0.328125 -0.53125 -0.328125 -1.234375l0 -4.171875l0.90625 0l0 3.765625q0 1.859375 1.640625 1.859375q0.96875 0 1.4375 -0.671875q0.484375 -0.6875 0.484375 -1.84375l0 -3.109375l0.90625 0zm4.3915405 6.453125q-0.90625 0 -1.625 -0.421875q-0.703125 -0.4375 -1.109375 -1.1875q-0.390625 -0.765625 -0.390625 -1.734375q0 -0.953125 0.390625 -1.703125q0.40625 -0.765625 1.109375 -1.1875q0.703125 -0.4375 1.59375 -0.4375q0.765625 0 1.328125 0.328125q0.5625 0.328125 1.03125 0.921875l-0.65625 0.53125q-0.65625 -0.953125 -1.703125 -0.953125q-0.625 0 -1.125 0.328125q-0.5 0.3125 -0.78125 0.890625q-0.28125 0.5625 -0.28125 1.28125q0 0.71875 0.28125 1.296875q0.28125 0.578125 0.78125 0.90625q0.5 0.3125 1.125 0.3125q0.640625 0 1.046875 -0.21875q0.421875 -0.21875 0.75 -0.65625l0.71875 0.5q-0.453125 0.546875 -1.09375 0.875q-0.640625 0.328125 -1.390625 0.328125zm3.982483 -0.21875l0 -5.40625l-1.0625 0l0 -0.828125l1.0625 0l0 -2.0625l0.90625 0l0 2.0625l1.4375 0l0 0.828125l-1.4375 0l0 5.40625l-0.90625 0zm3.8214722 0l0 -6.234375l0.90625 0l0 6.234375l-0.90625 0zm0.453125 -7.453125q-0.296875 0 -0.515625 -0.203125q-0.203125 -0.21875 -0.203125 -0.53125q0 -0.296875 0.203125 -0.5q0.21875 -0.203125 0.515625 -0.203125q0.296875 0 0.5 0.203125q0.21875 0.203125 0.21875 0.515625q0 0.296875 -0.21875 0.515625q-0.203125 0.203125 -0.5 0.203125zm5.3532104 7.671875q-0.890625 0 -1.609375 -0.421875q-0.703125 -0.4375 -1.109375 -1.203125q-0.390625 -0.765625 -0.390625 -1.71875q0 -0.96875 0.390625 -1.71875q0.390625 -0.75 1.09375 -1.171875q0.703125 -0.4375 1.59375 -0.4375q0.890625 0 1.59375 0.4375q0.71875 0.421875 1.109375 1.1875q0.40625 0.75 0.40625 1.703125q0 0.96875 -0.40625 1.734375q-0.390625 0.75 -1.09375 1.1875q-0.6875 0.421875 -1.578125 0.421875zm-0.03125 -0.828125q0.640625 0 1.140625 -0.3125q0.5 -0.328125 0.78125 -0.90625q0.28125 -0.578125 0.28125 -1.296875q0 -0.71875 -0.28125 -1.28125q-0.28125 -0.578125 -0.78125 -0.890625q-0.5 -0.328125 -1.140625 -0.328125q-0.625 0 -1.125 0.328125q-0.484375 0.3125 -0.765625 0.875q-0.28125 0.5625 -0.28125 1.296875q0 0.71875 0.28125 1.296875q0.28125 0.578125 0.765625 0.90625q0.5 0.3125 1.125 0.3125zm7.3584595 -5.84375q0.65625 0 1.203125 0.265625q0.5625 0.265625 0.875 0.796875q0.328125 0.515625 0.328125 1.21875l0 4.171875l-0.90625 0l0 -3.765625q0 -1.859375 -1.640625 -1.859375q-0.96875 0 -1.453125 0.6875q-0.46875 0.671875 -0.46875 1.8125l0 3.125l-0.90625 0l0 -6.234375l0.90625 0l0 1.03125q0.3125 -0.59375 0.84375 -0.921875q0.53125 -0.328125 1.21875 -0.328125z" fill-rule="nonzero"/><path fill="#f9c3c0" d="m199.32425 52.364937l0 0c0 -2.9919624 2.4254608 -5.417431 5.4174194 -5.417431l107.11789 0c1.4367981 0 2.8147583 0.57076263 3.830719 1.586731c1.0159607 1.0159645 1.586731 2.3939095 1.586731 3.8307l0 21.669075c0 2.9919662 -2.425476 5.4174347 -5.41745 5.4174347l-107.11789 0c-2.9919586 0 -5.4174194 -2.4254684 -5.4174194 -5.4174347z" fill-rule="evenodd"/><path fill="#ffffff" d="m248.05934 61.54635q0.890625 0 1.59375 0.4375q0.703125 0.421875 1.09375 1.171875q0.390625 0.75 0.390625 1.71875q0 0.96875 -0.40625 1.734375q-0.390625 0.75 -1.09375 1.1875q-0.703125 0.421875 -1.59375 0.421875q-0.671875 0 -1.234375 -0.296875q-0.5625 -0.3125 -0.9375 -0.84375l0 0.921875l-0.90625 0l0 -9.671875l0.90625 0l0 4.375q0.375 -0.546875 0.9375 -0.84375q0.578125 -0.3125 1.25 -0.3125zm0 5.84375q0.625 0 1.125 -0.3125q0.5 -0.328125 0.765625 -0.90625q0.28125 -0.578125 0.28125 -1.296875q0 -0.734375 -0.28125 -1.296875q-0.265625 -0.5625 -0.765625 -0.875q-0.5 -0.328125 -1.125 -0.328125q-0.640625 0 -1.140625 0.328125q-0.5 0.3125 -0.78125 0.890625q-0.265625 0.5625 -0.265625 1.28125q0 0.71875 0.265625 1.296875q0.28125 0.578125 0.78125 0.90625q0.5 0.3125 1.140625 0.3125zm9.836441 -5.625l0 6.234375l-0.90625 0l0 -1.046875q-0.3125 0.609375 -0.84375 0.9375q-0.53126526 0.328125 -1.2187653 0.328125q-0.65625 0 -1.203125 -0.265625q-0.546875 -0.265625 -0.875 -0.78125q-0.328125 -0.53125 -0.328125 -1.234375l0 -4.171875l0.90625 0l0 3.765625q0 1.859375 1.640625 1.859375q0.96876526 0 1.4375153 -0.671875q0.484375 -0.6875 0.484375 -1.84375l0 -3.109375l0.90625 0zm2.1727905 6.234375l0 -6.234375l0.90625 0l0 6.234375l-0.90625 0zm0.453125 -7.453125q-0.296875 0 -0.515625 -0.203125q-0.203125 -0.21875 -0.203125 -0.53125q0 -0.296875 0.203125 -0.5q0.21875 -0.203125 0.515625 -0.203125q0.296875 0 0.5 0.203125q0.21875 0.203125 0.21875 0.515625q0 0.296875 -0.21875 0.515625q-0.203125 0.203125 -0.5 0.203125zm2.69693 7.453125l0 -9.671875l0.90625 0l0 9.671875l-0.90625 0zm8.439972 -9.671875l0 9.671875l-0.90625 0l0 -0.921875q-0.390625 0.53125 -0.953125 0.84375q-0.5625 0.296875 -1.21875 0.296875q-0.890625 0 -1.609375 -0.421875q-0.703125 -0.4375 -1.109375 -1.1875q-0.390625 -0.765625 -0.390625 -1.734375q0 -0.96875 0.390625 -1.71875q0.390625 -0.75 1.09375 -1.171875q0.703125 -0.4375 1.59375 -0.4375q0.6875 0 1.25 0.3125q0.5625 0.296875 0.953125 0.84375l0 -4.375l0.90625 0zm-3.109375 9.0625q0.640625 0 1.140625 -0.3125q0.5 -0.328125 0.78125 -0.90625q0.28125 -0.578125 0.28125 -1.296875q0 -0.71875 -0.28125 -1.28125q-0.28125 -0.578125 -0.78125 -0.890625q-0.5 -0.328125 -1.140625 -0.328125q-0.625 0 -1.125 0.328125q-0.484375 0.3125 -0.765625 0.875q-0.28125 0.5625 -0.28125 1.296875q0 0.71875 0.28125 1.296875q0.28125 0.578125 0.765625 0.90625q0.5 0.3125 1.125 0.3125z" fill-rule="nonzero"/><path fill="#000000" fill-opacity="0.0" d="m131.8308 63.199474l67.49606 0" fill-rule="evenodd"/><path stroke="#194cac" stroke-width="1.0" stroke-linejoin="round" stroke-linecap="butt" stroke-dasharray="1.0,3.0" d="m131.8308 63.199474l61.496063 0" fill-rule="evenodd"/><path fill="#194cac" stroke="#194cac" stroke-width="1.0" stroke-linecap="butt" d="m193.32686 64.851204l4.538086 -1.6517296l-4.538086 -1.6517334z" fill-rule="evenodd"/><path fill="#000000" fill-opacity="0.0" d="m131.8308 63.199474l67.49606 40.188976" fill-rule="evenodd"/><path stroke="#194cac" stroke-width="1.0" stroke-linejoin="round" stroke-linecap="butt" stroke-dasharray="1.0,3.0" d="m131.8308 63.199474l62.34073 37.11935" fill-rule="evenodd"/><path fill="#194cac" stroke="#194cac" stroke-width="1.0" stroke-linecap="butt" d="m193.32649 101.73804l4.7442627 0.90249634l-3.0541992 -3.7409058z" fill-rule="evenodd"/><path fill="#000000" fill-opacity="0.0" d="m317.277 63.199474l67.49606 0" fill-rule="evenodd"/><path stroke="#194cac" stroke-width="1.0" stroke-linejoin="round" stroke-linecap="butt" stroke-dasharray="1.0,3.0" d="m317.277 63.199474l61.496033 0" fill-rule="evenodd"/><path fill="#194cac" stroke="#194cac" stroke-width="1.0" stroke-linecap="butt" d="m378.77304 64.851204l4.5381165 -1.6517296l-4.5381165 -1.6517334z" fill-rule="evenodd"/><path fill="#000000" fill-opacity="0.0" d="m317.27716 103.39895l67.49606 0" fill-rule="evenodd"/><path stroke="#194cac" stroke-width="1.0" stroke-linejoin="round" stroke-linecap="butt" stroke-dasharray="1.0,3.0" d="m317.27716 103.39895l61.496063 0" fill-rule="evenodd"/><path fill="#194cac" stroke="#194cac" stroke-width="1.0" stroke-linecap="butt" d="m378.77322 105.05068l4.538086 -1.6517334l-4.538086 -1.6517334z" fill-rule="evenodd"/><path fill="#000000" fill-opacity="0.0" d="m317.277 63.199474l67.49606 40.188976" fill-rule="evenodd"/><path stroke="#194cac" stroke-width="1.0" stroke-linejoin="round" stroke-linecap="butt" stroke-dasharray="1.0,3.0" d="m317.277 63.199474l62.3407 37.11935" fill-rule="evenodd"/><path fill="#194cac" stroke="#194cac" stroke-width="1.0" stroke-linecap="butt" d="m378.77267 101.73803l4.7442627 0.90250397l-3.0541992 -3.7409058z" fill-rule="evenodd"/><path fill="#000000" fill-opacity="0.0" d="m317.27716 103.39895l67.49606 -40.188976" fill-rule="evenodd"/><path stroke="#194cac" stroke-width="1.0" stroke-linejoin="round" stroke-linecap="butt" stroke-dasharray="1.0,3.0" d="m317.27716 103.39895l62.3407 -37.119354" fill-rule="evenodd"/><path fill="#194cac" stroke="#194cac" stroke-width="1.0" stroke-linecap="butt" d="m380.46292 67.6988l3.0541992 -3.7409096l-4.7442627 0.90250015z" fill-rule="evenodd"/><path fill="#000000" fill-opacity="0.0" d="m502.72333 103.396324l48.59845 -40.188976" fill-rule="evenodd"/><path stroke="#194cac" stroke-width="1.0" stroke-linejoin="round" stroke-linecap="butt" stroke-dasharray="1.0,3.0" d="m502.72336 103.396324l43.97464 -36.365288" fill-rule="evenodd"/><path fill="#194cac" stroke="#194cac" stroke-width="1.0" stroke-linecap="butt" d="m547.7506 68.30392l2.44458 -4.1649246l-4.5498047 1.6191711z" fill-rule="evenodd"/><path fill="#000000" fill-opacity="0.0" d="m502.7231 63.19685l48.59842 0" fill-rule="evenodd"/><path stroke="#194cac" stroke-width="1.0" stroke-linejoin="round" stroke-linecap="butt" stroke-dasharray="1.0,3.0" d="m502.72308 63.19685l42.59845 0" fill-rule="evenodd"/><path fill="#194cac" stroke="#194cac" stroke-width="1.0" stroke-linecap="butt" d="m545.32153 64.84858l4.538086 -1.6517296l-4.538086 -1.6517334z" fill-rule="evenodd"/><path fill="#fd775e" d="m260.59186 155.56178l0 0c0 -2.9919586 2.425476 -5.4174194 5.41745 -5.4174194l171.84229 0c1.4367981 0 2.8147278 0.570755 3.830719 1.5867157c1.0159607 1.015976 1.586731 2.393921 1.586731 3.8307037l0 21.669083c0 2.9919586 -2.425476 5.4174347 -5.41745 5.4174347l-171.84229 0c-2.9919739 0 -5.41745 -2.425476 -5.41745 -5.4174347z" fill-rule="evenodd"/><path fill="#ffffff" d="m299.1724 164.7432q0.3125 0 0.609375 0.09375l0 0.828125q-0.28125 -0.140625 -0.609375 -0.140625q-0.578125 0 -1.078125 0.328125q-0.484375 0.3125 -0.78125 0.921875q-0.296875 0.609375 -0.296875 1.4375l0 2.984375l-0.90625 0l0 -6.234375l0.90625 0l0 1.25q0.359375 -0.6875 0.90625 -1.078125q0.5625 -0.390625 1.25 -0.390625zm4.143219 0q0.84375 0 1.515625 0.421875q0.6875 0.40625 1.0625 1.125q0.390625 0.703125 0.390625 1.59375q0 0.25 -0.015625 0.375l-5.125 0q0.046875 0.96875 0.625 1.65625q0.578125 0.671875 1.5625 0.671875q0.796875 0 1.3125 -0.296875q0.53125 -0.3125 0.859375 -0.84375l0.71875 0.484375q-0.4375 0.6875 -1.15625 1.09375q-0.71875 0.390625 -1.703125 0.390625q-0.90625 0 -1.625 -0.421875q-0.703125 -0.4375 -1.109375 -1.1875q-0.390625 -0.765625 -0.390625 -1.734375q0 -0.953125 0.390625 -1.703125q0.390625 -0.765625 1.09375 -1.1875q0.703125 -0.4375 1.59375 -0.4375zm2.0625 2.78125q-0.125 -0.984375 -0.65625 -1.46875q-0.515625 -0.484375 -1.40625 -0.484375q-0.859375 0 -1.421875 0.5625q-0.546875 0.546875 -0.703125 1.390625l4.1875 0zm8.059723 -2.5625l0 8.90625l-0.90625 0l0 -3.609375q-0.390625 0.546875 -0.96875 0.859375q-0.5625 0.296875 -1.234375 0.296875q-0.890625 0 -1.59375 -0.421875q-0.703125 -0.4375 -1.09375 -1.1875q-0.390625 -0.75 -0.390625 -1.71875q0 -0.96875 0.390625 -1.71875q0.40625 -0.765625 1.109375 -1.1875q0.703125 -0.4375 1.609375 -0.4375q0.65625 0 1.21875 0.3125q0.5625 0.296875 0.953125 0.828125l0 -0.921875l0.90625 0zm-3.109375 5.625q0.640625 0 1.140625 -0.3125q0.5 -0.328125 0.78125 -0.90625q0.28125 -0.578125 0.28125 -1.296875q0 -0.71875 -0.28125 -1.28125q-0.28125 -0.578125 -0.78125 -0.890625q-0.5 -0.328125 -1.140625 -0.328125q-0.625 0 -1.125 0.328125q-0.484375 0.3125 -0.765625 0.890625q-0.28125 0.5625 -0.28125 1.296875q0 0.71875 0.28125 1.296875q0.28125 0.5625 0.765625 0.890625q0.5 0.3125 1.125 0.3125zm10.242676 -5.625l0 6.234375l-0.90625 0l0 -1.046875q-0.3125 0.609375 -0.84375 0.9375q-0.53125 0.328125 -1.21875 0.328125q-0.65625 0 -1.203125 -0.265625q-0.546875 -0.265625 -0.875 -0.78125q-0.328125 -0.53125 -0.328125 -1.234375l0 -4.171875l0.90625 0l0 3.765625q0 1.859375 1.640625 1.859375q0.96875 0 1.4375 -0.671875q0.484375 -0.6875 0.484375 -1.84375l0 -3.109375l0.90625 0zm4.375946 -0.21875q0.84375 0 1.515625 0.421875q0.6875 0.40625 1.0625 1.125q0.390625 0.703125 0.390625 1.59375q0 0.25 -0.015625 0.375l-5.125 0q0.046875 0.96875 0.625 1.65625q0.578125 0.671875 1.5625 0.671875q0.796875 0 1.3125 -0.296875q0.53125 -0.3125 0.859375 -0.84375l0.71875 0.484375q-0.4375 0.6875 -1.15625 1.09375q-0.71875 0.390625 -1.703125 0.390625q-0.90625 0 -1.625 -0.421875q-0.703125 -0.4375 -1.109375 -1.1875q-0.390625 -0.765625 -0.390625 -1.734375q0 -0.953125 0.390625 -1.703125q0.390625 -0.765625 1.09375 -1.1875q0.703125 -0.4375 1.59375 -0.4375zm2.0625 2.78125q-0.125 -0.984375 -0.65625 -1.46875q-0.515625 -0.484375 -1.40625 -0.484375q-0.859375 0 -1.421875 0.5625q-0.546875 0.546875 -0.703125 1.390625l4.1875 0zm4.434723 3.890625q-0.90625 0 -1.59375 -0.390625q-0.671875 -0.390625 -1.03125 -1.09375l0.8125 -0.40625q0.484375 1.0625 1.921875 1.0625q0.703125 0 1.15625 -0.25q0.453125 -0.265625 0.453125 -0.796875q0 -0.546875 -0.375 -0.8125q-0.359375 -0.265625 -1.28125 -0.34375q-1.28125 -0.109375 -1.84375 -0.578125q-0.546875 -0.46875 -0.546875 -1.234375q0 -0.859375 0.625 -1.34375q0.625 -0.484375 1.71875 -0.484375q1.859375 0 2.53125 1.46875l-0.8125 0.40625q-0.234375 -0.546875 -0.671875 -0.796875q-0.421875 -0.25 -1.109375 -0.25q-0.6875 0 -1.0625 0.25q-0.359375 0.25 -0.359375 0.71875q0 0.4375 0.390625 0.71875q0.390625 0.265625 1.359375 0.359375q1.171875 0.09375 1.75 0.578125q0.59375 0.46875 0.59375 1.234375q0 0.625 -0.359375 1.078125q-0.359375 0.453125 -0.96875 0.6875q-0.59375 0.21875 -1.296875 0.21875zm4.3248596 -0.21875l0 -5.40625l-1.0625 0l0 -0.828125l1.0625 0l0 -2.0625l0.90625 0l0 2.0625l1.4375 0l0 0.828125l-1.4375 0l0 5.40625l-0.90625 0zm3.2589722 -2.90625l0 -0.75l3.015625 0l0 0.75l-3.015625 0zm10.406555 -6.765625l0 9.671875l-0.90625 0l0 -0.921875q-0.390625 0.53125 -0.953125 0.84375q-0.5625 0.296875 -1.21875 0.296875q-0.890625 0 -1.609375 -0.421875q-0.703125 -0.4375 -1.109375 -1.1875q-0.390625 -0.765625 -0.390625 -1.734375q0 -0.96875 0.390625 -1.71875q0.390625 -0.75 1.09375 -1.171875q0.703125 -0.4375 1.59375 -0.4375q0.6875 0 1.25 0.3125q0.5625 0.296875 0.953125 0.84375l0 -4.375l0.90625 0zm-3.109375 9.0625q0.640625 0 1.140625 -0.3125q0.5 -0.328125 0.78125 -0.90625q0.28125 -0.578125 0.28125 -1.296875q0 -0.71875 -0.28125 -1.28125q-0.28125 -0.578125 -0.78125 -0.890625q-0.5 -0.328125 -1.140625 -0.328125q-0.625 0 -1.125 0.328125q-0.484375 0.3125 -0.765625 0.875q-0.28125 0.5625 -0.28125 1.296875q0 0.71875 0.28125 1.296875q0.28125 0.578125 0.765625 0.90625q0.5 0.3125 1.125 0.3125zm7.477051 -5.84375q0.84375 0 1.515625 0.421875q0.6875 0.40625 1.0625 1.125q0.390625 0.703125 0.390625 1.59375q0 0.25 -0.015625 0.375l-5.125 0q0.046875 0.96875 0.625 1.65625q0.578125 0.671875 1.5625 0.671875q0.796875 0 1.3125 -0.296875q0.53125 -0.3125 0.859375 -0.84375l0.71875 0.484375q-0.4375 0.6875 -1.15625 1.09375q-0.71875 0.390625 -1.703125 0.390625q-0.90625 0 -1.625 -0.421875q-0.703125 -0.4375 -1.109375 -1.1875q-0.390625 -0.765625 -0.390625 -1.734375q0 -0.953125 0.390625 -1.703125q0.390625 -0.765625 1.09375 -1.1875q0.703125 -0.4375 1.59375 -0.4375zm2.0625 2.78125q-0.125 -0.984375 -0.65625 -1.46875q-0.515625 -0.484375 -1.40625 -0.484375q-0.859375 0 -1.421875 0.5625q-0.546875 0.546875 -0.703125 1.390625l4.1875 0zm5.340973 -2.78125q0.890625 0 1.59375 0.4375q0.703125 0.421875 1.09375 1.1875q0.40625 0.75 0.40625 1.71875q0 0.96875 -0.390625 1.71875q-0.390625 0.75 -1.09375 1.1875q-0.703125 0.421875 -1.59375 0.421875q-0.671875 0 -1.25 -0.296875q-0.5625 -0.3125 -0.9375 -0.859375l0 3.609375l-0.90625 0l0 -8.90625l0.90625 0l0 0.921875q0.375 -0.53125 0.9375 -0.828125q0.5625 -0.3125 1.234375 -0.3125zm0.015625 5.84375q0.625 0 1.125 -0.3125q0.5 -0.328125 0.765625 -0.890625q0.28125 -0.578125 0.28125 -1.296875q0 -0.734375 -0.28125 -1.296875q-0.265625 -0.578125 -0.765625 -0.890625q-0.5 -0.328125 -1.125 -0.328125q-0.640625 0 -1.140625 0.328125q-0.5 0.3125 -0.78125 0.890625q-0.265625 0.5625 -0.265625 1.28125q0 0.71875 0.265625 1.296875q0.28125 0.578125 0.78125 0.90625q0.5 0.3125 1.140625 0.3125zm4.430176 0.609375l0 -9.671875l0.90625 0l0 9.671875l-0.90625 0zm5.361847 0.21875q-0.890625 0 -1.609375 -0.421875q-0.703125 -0.4375 -1.109375 -1.203125q-0.390625 -0.765625 -0.390625 -1.71875q0 -0.96875 0.390625 -1.71875q0.390625 -0.75 1.09375 -1.171875q0.703125 -0.4375 1.59375 -0.4375q0.890625 0 1.59375 0.4375q0.71875 0.421875 1.109375 1.1875q0.40625 0.75 0.40625 1.703125q0 0.96875 -0.40625 1.734375q-0.390625 0.75 -1.09375 1.1875q-0.6875 0.421875 -1.578125 0.421875zm-0.03125 -0.828125q0.640625 0 1.140625 -0.3125q0.5 -0.328125 0.78125 -0.90625q0.28125 -0.578125 0.28125 -1.296875q0 -0.71875 -0.28125 -1.28125q-0.28125 -0.578125 -0.78125 -0.890625q-0.5 -0.328125 -1.140625 -0.328125q-0.625 0 -1.125 0.328125q-0.484375 0.3125 -0.765625 0.875q-0.28125 0.5625 -0.28125 1.296875q0 0.71875 0.28125 1.296875q0.28125 0.578125 0.765625 0.90625q0.5 0.3125 1.125 0.3125zm8.670959 -5.625l0.859375 0l-3.375 8.90625l-0.90625 0l0.984375 -2.546875l-2.546875 -6.359375l0.9375 0l2.0625 5.171875l1.984375 -5.171875zm8.343689 -0.21875q0.859375 0 1.421875 0.609375q0.578125 0.609375 0.578125 1.671875l0 4.171875l-0.90625 0l0 -3.765625q0 -1.0 -0.375 -1.421875q-0.359375 -0.4375 -0.96875 -0.4375q-0.734375 0 -1.140625 0.578125q-0.40625 0.5625 -0.46875 1.53125l0 3.515625l-0.90625 0l0 -3.765625q0 -1.0 -0.375 -1.421875q-0.375 -0.4375 -0.96875 -0.4375q-0.8125 0 -1.21875 0.6875q-0.40625 0.671875 -0.40625 1.8125l0 3.125l-0.90625 0l0 -6.234375l0.90625 0l0 0.96875q0.296875 -0.578125 0.765625 -0.875q0.484375 -0.3125 1.09375 -0.3125q0.6875 0 1.1875 0.375q0.5 0.359375 0.703125 1.046875q0.296875 -0.671875 0.796875 -1.046875q0.515625 -0.375 1.1875 -0.375zm6.3094788 0q0.84375 0 1.515625 0.421875q0.6875 0.40625 1.0625 1.125q0.390625 0.703125 0.390625 1.59375q0 0.25 -0.015625 0.375l-5.125 0q0.046875 0.96875 0.625 1.65625q0.578125 0.671875 1.5625 0.671875q0.796875 0 1.3125 -0.296875q0.53125 -0.3125 0.859375 -0.84375l0.71875 0.484375q-0.4375 0.6875 -1.15625 1.09375q-0.71875 0.390625 -1.703125 0.390625q-0.90625 0 -1.625 -0.421875q-0.703125 -0.4375 -1.109375 -1.1875q-0.390625 -0.765625 -0.390625 -1.734375q0 -0.953125 0.390625 -1.703125q0.390625 -0.765625 1.09375 -1.1875q0.703125 -0.4375 1.59375 -0.4375zm2.0625 2.78125q-0.125 -0.984375 -0.65625 -1.46875q-0.515625 -0.484375 -1.40625 -0.484375q-0.859375 0 -1.421875 0.5625q-0.546875 0.546875 -0.703125 1.390625l4.1875 0zm5.2160034 -2.78125q0.65625 0 1.203125 0.265625q0.5625 0.265625 0.875 0.796875q0.328125 0.515625 0.328125 1.21875l0 4.171875l-0.90625 0l0 -3.765625q0 -1.859375 -1.640625 -1.859375q-0.96875 0 -1.453125 0.6875q-0.46875 0.671875 -0.46875 1.8125l0 3.125l-0.90625 0l0 -6.234375l0.90625 0l0 1.03125q0.3125 -0.59375 0.84375 -0.921875q0.53125 -0.328125 1.21875 -0.328125zm4.5165405 6.453125l0 -5.40625l-1.0625 0l0 -0.828125l1.0625 0l0 -2.0625l0.90625 0l0 2.0625l1.4375 0l0 0.828125l-1.4375 0l0 5.40625l-0.90625 0z" fill-rule="nonzero"/><path fill="#fd775e" d="m34.56824 155.56178l0 0c0 -2.9919586 2.4254684 -5.4174194 5.417431 -5.4174194l171.8423 0c1.4367981 0 2.814743 0.570755 3.8307037 1.5867157c1.0159607 1.015976 1.586731 2.393921 1.586731 3.8307037l0 21.669083c0 2.9919586 -2.4254608 5.4174347 -5.4174347 5.4174347l-171.8423 0c-2.9919624 0 -5.417431 -2.425476 -5.417431 -5.4174347z" fill-rule="evenodd"/><path fill="#ffffff" d="m75.84102 164.7432q0.3125 0 0.609375 0.09375l0 0.828125q-0.28125 -0.140625 -0.609375 -0.140625q-0.578125 0 -1.078125 0.328125q-0.484375 0.3125 -0.78125 0.921875q-0.296875 0.609375 -0.296875 1.4375l0 2.984375l-0.90625 0l0 -6.234375l0.90625 0l0 1.25q0.359375 -0.6875 0.90625 -1.078125q0.5625 -0.390625 1.25 -0.390625zm4.143219 0q0.84375 0 1.515625 0.421875q0.6875 0.40625 1.0625 1.125q0.390625 0.703125 0.390625 1.59375q0 0.25 -0.015625 0.375l-5.125 0q0.046875 0.96875 0.625 1.65625q0.578125 0.671875 1.5625 0.671875q0.796875 0 1.3125 -0.296875q0.53125 -0.3125 0.859375 -0.84375l0.71875 0.484375q-0.4375 0.6875 -1.15625 1.09375q-0.71875 0.390625 -1.703125 0.390625q-0.90625 0 -1.625 -0.421875q-0.703125 -0.4375 -1.109375 -1.1875q-0.390625 -0.765625 -0.390625 -1.734375q0 -0.953125 0.390625 -1.703125q0.390625 -0.765625 1.09375 -1.1875q0.703125 -0.4375 1.59375 -0.4375zm2.0625 2.78125q-0.125 -0.984375 -0.65625 -1.46875q-0.515625 -0.484375 -1.40625 -0.484375q-0.859375 0 -1.421875 0.5625q-0.546875 0.546875 -0.703125 1.390625l4.1875 0zm2.3097382 3.671875l0 -9.671875l0.90625 0l0 9.671875l-0.90625 0zm5.330597 -6.453125q0.84375 0 1.515625 0.421875q0.6875 0.40625 1.0625 1.125q0.390625 0.703125 0.390625 1.59375q0 0.25 -0.015625 0.375l-5.125 0q0.046875 0.96875 0.625 1.65625q0.578125 0.671875 1.5625 0.671875q0.796875 0 1.3125 -0.296875q0.53125 -0.3125 0.859375 -0.84375l0.71875 0.484375q-0.4375 0.6875 -1.15625 1.09375q-0.71875 0.390625 -1.703125 0.390625q-0.90625 0 -1.625 -0.421875q-0.703125 -0.4375 -1.109375 -1.1875q-0.390625 -0.765625 -0.390625 -1.734375q0 -0.953125 0.390625 -1.703125q0.390625 -0.765625 1.09375 -1.1875q0.703125 -0.4375 1.59375 -0.4375zm2.0625 2.78125q-0.125 -0.984375 -0.65625 -1.46875q-0.515625 -0.484375 -1.40625 -0.484375q-0.859375 0 -1.421875 0.5625q-0.546875 0.546875 -0.703125 1.390625l4.1875 0zm8.044113 -2.5625l0 6.234375l-0.90625 0l0 -0.921875q-0.390625 0.53125 -0.953125 0.84375q-0.5625 0.296875 -1.21875 0.296875q-0.890625 0 -1.609375 -0.421875q-0.703125 -0.4375 -1.109375 -1.1875q-0.390625 -0.765625 -0.390625 -1.734375q0 -0.96875 0.390625 -1.71875q0.390625 -0.75 1.09375 -1.171875q0.703125 -0.4375 1.59375 -0.4375q0.6875 0 1.25 0.3125q0.5625 0.296875 0.953125 0.84375l0 -0.9375l0.90625 0zm-3.109375 5.625q0.640625 0 1.140625 -0.3125q0.5 -0.328125 0.78125 -0.90625q0.28125 -0.578125 0.28125 -1.296875q0 -0.71875 -0.28125 -1.28125q-0.28125 -0.578125 -0.78125 -0.890625q-0.5 -0.328125 -1.140625 -0.328125q-0.625 0 -1.125 0.328125q-0.484375 0.3125 -0.765625 0.875q-0.28125 0.5625 -0.28125 1.296875q0 0.71875 0.28125 1.296875q0.28125 0.578125 0.765625 0.90625q0.5 0.3125 1.125 0.3125zm6.977051 0.828125q-0.90625 0 -1.59375 -0.390625q-0.671875 -0.390625 -1.03125 -1.09375l0.8125 -0.40625q0.484375 1.0625 1.921875 1.0625q0.703125 0 1.15625 -0.25q0.453125 -0.265625 0.453125 -0.796875q0 -0.546875 -0.375 -0.8125q-0.359375 -0.265625 -1.28125 -0.34375q-1.28125 -0.109375 -1.84375 -0.578125q-0.546875 -0.46875 -0.546875 -1.234375q0 -0.859375 0.625 -1.34375q0.625 -0.484375 1.71875 -0.484375q1.859375 0 2.53125 1.46875l-0.8125 0.40625q-0.234375 -0.546875 -0.671875 -0.796875q-0.421875 -0.25 -1.109375 -0.25q-0.6875 0 -1.0625 0.25q-0.359375 0.25 -0.359375 0.71875q0 0.4375 0.390625 0.71875q0.390625 0.265625 1.359375 0.359375q1.171875 0.09375 1.75 0.578125q0.59375 0.46875 0.59375 1.234375q0 0.625 -0.359375 1.078125q-0.359375 0.453125 -0.96875 0.6875q-0.59375 0.21875 -1.296875 0.21875zm6.6842346 -6.671875q0.84375 0 1.515625 0.421875q0.6875 0.40625 1.0625 1.125q0.390625 0.703125 0.390625 1.59375q0 0.25 -0.015625 0.375l-5.125 0q0.046875 0.96875 0.625 1.65625q0.578125 0.671875 1.5625 0.671875q0.796875 0 1.3125 -0.296875q0.53125 -0.3125 0.859375 -0.84375l0.71875 0.484375q-0.4375 0.6875 -1.15625 1.09375q-0.71875 0.390625 -1.703125 0.390625q-0.90625 0 -1.625 -0.421875q-0.703125 -0.4375 -1.109375 -1.1875q-0.390625 -0.765625 -0.390625 -1.734375q0 -0.953125 0.390625 -1.703125q0.390625 -0.765625 1.09375 -1.1875q0.703125 -0.4375 1.59375 -0.4375zm2.0625 2.78125q-0.125 -0.984375 -0.65625 -1.46875q-0.515625 -0.484375 -1.40625 -0.484375q-0.859375 0 -1.421875 0.5625q-0.546875 0.546875 -0.703125 1.390625l4.1875 0zm2.1691132 0.765625l0 -0.75l3.015625 0l0 0.75l-3.015625 0zm7.703415 -3.546875q0.890625 0 1.59375 0.4375q0.703125 0.421875 1.09375 1.1875q0.40625 0.75 0.40625 1.71875q0 0.96875 -0.390625 1.71875q-0.390625 0.75 -1.09375 1.1875q-0.703125 0.421875 -1.59375 0.421875q-0.671875 0 -1.25 -0.296875q-0.5625 -0.3125 -0.9375 -0.859375l0 3.609375l-0.90625 0l0 -8.90625l0.90625 0l0 0.921875q0.375 -0.53125 0.9375 -0.828125q0.5625 -0.3125 1.234375 -0.3125zm0.015625 5.84375q0.625 0 1.125 -0.3125q0.5 -0.328125 0.765625 -0.890625q0.28125 -0.578125 0.28125 -1.296875q0 -0.734375 -0.28125 -1.296875q-0.265625 -0.578125 -0.765625 -0.890625q-0.5 -0.328125 -1.125 -0.328125q-0.640625 0 -1.140625 0.328125q-0.5 0.3125 -0.78125 0.890625q-0.265625 0.5625 -0.265625 1.28125q0 0.71875 0.265625 1.296875q0.28125 0.578125 0.78125 0.90625q0.5 0.3125 1.140625 0.3125zm7.430176 -5.84375q0.3125 0 0.609375 0.09375l0 0.828125q-0.28125 -0.140625 -0.609375 -0.140625q-0.578125 0 -1.078125 0.328125q-0.484375 0.3125 -0.78125 0.921875q-0.296875 0.609375 -0.296875 1.4375l0 2.984375l-0.90625 0l0 -6.234375l0.90625 0l0 1.25q0.359375 -0.6875 0.90625 -1.078125q0.5625 -0.390625 1.25 -0.390625zm4.174469 6.671875q-0.890625 0 -1.609375 -0.421875q-0.703125 -0.4375 -1.109375 -1.203125q-0.390625 -0.765625 -0.390625 -1.71875q0 -0.96875 0.390625 -1.71875q0.390625 -0.75 1.09375 -1.171875q0.703125 -0.4375 1.59375 -0.4375q0.890625 0 1.59375 0.4375q0.71875 0.421875 1.109375 1.1875q0.40625 0.75 0.40625 1.703125q0 0.96875 -0.40625 1.734375q-0.390625 0.75 -1.09375 1.1875q-0.6875 0.421875 -1.578125 0.421875zm-0.03125 -0.828125q0.640625 0 1.140625 -0.3125q0.5 -0.328125 0.78125 -0.90625q0.28125 -0.578125 0.28125 -1.296875q0 -0.71875 -0.28125 -1.28125q-0.28125 -0.578125 -0.78125 -0.890625q-0.5 -0.328125 -1.140625 -0.328125q-0.625 0 -1.125 0.328125q-0.484375 0.3125 -0.765625 0.875q-0.28125 0.5625 -0.28125 1.296875q0 0.71875 0.28125 1.296875q0.28125 0.578125 0.765625 0.90625q0.5 0.3125 1.125 0.3125zm10.186584 -9.0625l0 9.671875l-0.90625 0l0 -0.921875q-0.390625 0.53125 -0.953125 0.84375q-0.5625 0.296875 -1.21875 0.296875q-0.890625 0 -1.609375 -0.421875q-0.703125 -0.4375 -1.109375 -1.1875q-0.390625 -0.765625 -0.390625 -1.734375q0 -0.96875 0.390625 -1.71875q0.390625 -0.75 1.09375 -1.171875q0.703125 -0.4375 1.59375 -0.4375q0.6875 0 1.25 0.3125q0.5625 0.296875 0.953125 0.84375l0 -4.375l0.90625 0zm-3.109375 9.0625q0.640625 0 1.140625 -0.3125q0.5 -0.328125 0.78125 -0.90625q0.28125 -0.578125 0.28125 -1.296875q0 -0.71875 -0.28125 -1.28125q-0.28125 -0.578125 -0.78125 -0.890625q-0.5 -0.328125 -1.140625 -0.328125q-0.625 0 -1.125 0.328125q-0.484375 0.3125 -0.765625 0.875q-0.28125 0.5625 -0.28125 1.296875q0 0.71875 0.28125 1.296875q0.28125 0.578125 0.765625 0.90625q0.5 0.3125 1.125 0.3125zm10.258301 -5.625l0 6.234375l-0.90625 0l0 -1.046875q-0.3125 0.609375 -0.84375 0.9375q-0.53125 0.328125 -1.21875 0.328125q-0.65625 0 -1.203125 -0.265625q-0.546875 -0.265625 -0.875 -0.78125q-0.328125 -0.53125 -0.328125 -1.234375l0 -4.171875l0.90625 0l0 3.765625q0 1.859375 1.640625 1.859375q0.96875 0 1.4375 -0.671875q0.484375 -0.6875 0.484375 -1.84375l0 -3.109375l0.90625 0zm4.391556 6.453125q-0.90625 0 -1.625 -0.421875q-0.703125 -0.4375 -1.109375 -1.1875q-0.390625 -0.765625 -0.390625 -1.734375q0 -0.953125 0.390625 -1.703125q0.40625 -0.765625 1.109375 -1.1875q0.703125 -0.4375 1.59375 -0.4375q0.765625 0 1.328125 0.328125q0.5625 0.328125 1.03125 0.921875l-0.65625 0.53125q-0.65625 -0.953125 -1.703125 -0.953125q-0.625 0 -1.125 0.328125q-0.5 0.3125 -0.78125 0.890625q-0.28125 0.5625 -0.28125 1.28125q0 0.71875 0.28125 1.296875q0.28125 0.578125 0.78125 0.90625q0.5 0.3125 1.125 0.3125q0.640625 0 1.046875 -0.21875q0.421875 -0.21875 0.75 -0.65625l0.71875 0.5q-0.453125 0.546875 -1.09375 0.875q-0.640625 0.328125 -1.390625 0.328125zm3.9824982 -0.21875l0 -5.40625l-1.0625 0l0 -0.828125l1.0625 0l0 -2.0625l0.90625 0l0 2.0625l1.4375 0l0 0.828125l-1.4375 0l0 5.40625l-0.90625 0zm3.8214722 0l0 -6.234375l0.90625 0l0 6.234375l-0.90625 0zm0.453125 -7.453125q-0.296875 0 -0.515625 -0.203125q-0.203125 -0.21875 -0.203125 -0.53125q0 -0.296875 0.203125 -0.5q0.21875 -0.203125 0.515625 -0.203125q0.296875 0 0.5 0.203125q0.21875 0.203125 0.21875 0.515625q0 0.296875 -0.21875 0.515625q-0.203125 0.203125 -0.5 0.203125zm5.35318 7.671875q-0.890625 0 -1.609375 -0.421875q-0.703125 -0.4375 -1.109375 -1.203125q-0.390625 -0.765625 -0.390625 -1.71875q0 -0.96875 0.390625 -1.71875q0.390625 -0.75 1.09375 -1.171875q0.703125 -0.4375 1.59375 -0.4375q0.890625 0 1.59375 0.4375q0.71875 0.421875 1.109375 1.1875q0.40625 0.75 0.40625 1.703125q0 0.96875 -0.40625 1.734375q-0.390625 0.75 -1.09375 1.1875q-0.6875 0.421875 -1.578125 0.421875zm-0.03125 -0.828125q0.640625 0 1.140625 -0.3125q0.5 -0.328125 0.78125 -0.90625q0.28125 -0.578125 0.28125 -1.296875q0 -0.71875 -0.28125 -1.28125q-0.28125 -0.578125 -0.78125 -0.890625q-0.5 -0.328125 -1.140625 -0.328125q-0.625 0 -1.125 0.328125q-0.484375 0.3125 -0.765625 0.875q-0.28125 0.5625 -0.28125 1.296875q0 0.71875 0.28125 1.296875q0.28125 0.578125 0.765625 0.90625q0.5 0.3125 1.125 0.3125zm7.3584595 -5.84375q0.65625 0 1.203125 0.265625q0.5625 0.265625 0.875 0.796875q0.328125 0.515625 0.328125 1.21875l0 4.171875l-0.90625 0l0 -3.765625q0 -1.859375 -1.640625 -1.859375q-0.96875 0 -1.453125 0.6875q-0.46875 0.671875 -0.46875 1.8125l0 3.125l-0.90625 0l0 -6.234375l0.90625 0l0 1.03125q0.3125 -0.59375 0.84375 -0.921875q0.53125 -0.328125 1.21875 -0.328125z" fill-rule="nonzero"/><path fill="#000000" fill-opacity="0.0" d="m610.2953 79.44882l-32.346497 70.708664" fill-rule="evenodd"/><path stroke="#194cac" stroke-width="1.0" stroke-linejoin="round" stroke-linecap="butt" stroke-dasharray="1.0,3.0" d="m610.2953 79.44882l-29.850464 65.25247" fill-rule="evenodd"/><path fill="#194cac" stroke="#194cac" stroke-width="1.0" stroke-linecap="butt" d="m578.9428 144.01418l-0.38586426 4.813904l3.3898926 -3.4396667z" fill-rule="evenodd"/><path fill="#000000" fill-opacity="0.0" d="m486.61548 166.39633l-43.338562 0" fill-rule="evenodd"/><path stroke="#194cac" stroke-width="1.0" stroke-linejoin="round" stroke-linecap="butt" stroke-dasharray="1.0,3.0" d="m486.61548 166.39633l-37.338562 0" fill-rule="evenodd"/><path fill="#194cac" stroke="#194cac" stroke-width="1.0" stroke-linecap="butt" d="m449.27692 164.7446l-4.5381165 1.6517334l4.5381165 1.6517334z" fill-rule="evenodd"/><path fill="#000000" fill-opacity="0.0" d="m260.59186 166.39633l-43.338577 0" fill-rule="evenodd"/><path stroke="#194cac" stroke-width="1.0" stroke-linejoin="round" stroke-linecap="butt" stroke-dasharray="1.0,3.0" d="m260.59186 166.39633l-37.338577 0" fill-rule="evenodd"/><path fill="#194cac" stroke="#194cac" stroke-width="1.0" stroke-linecap="butt" d="m223.25328 164.7446l-4.538101 1.6517334l4.538101 1.6517334z" fill-rule="evenodd"/><path fill="#000000" fill-opacity="0.0" d="m5.8792653 1.8976378l261.25983 0l0 37.354332l-261.25983 0z" fill-rule="evenodd"/><path fill="#194cac" d="m33.910515 15.630136l-3.15625 13.187501l-3.953125 0l-2.109375 -8.828125l-2.125 8.828125l-3.953125 0l-3.15625 -13.187501l3.46875 0l1.703125 9.546876l2.3125 -9.546876l3.484375 0l2.3125 9.546876l1.71875 -9.546876l3.453125 0zm6.545227 2.640626q1.546875 0 2.765625 0.65625q1.234375 0.640625 1.921875 1.859375q0.703125 1.203125 0.703125 2.828125q0 1.625 -0.703125 2.84375q-0.6875 1.203125 -1.921875 1.84375q-1.21875 0.640625 -2.765625 0.640625q-1.546875 0 -2.78125 -0.640625q-1.234375 -0.640625 -1.9375 -1.84375q-0.6875 -1.21875 -0.6875 -2.84375q0 -1.625 0.6875 -2.828125q0.703125 -1.21875 1.9375 -1.859375q1.234375 -0.65625 2.78125 -0.65625zm0 2.765625q-0.90625 0 -1.53125 0.671875q-0.625 0.65625 -0.625 1.90625q0 1.25 0.625 1.90625q0.625 0.640625 1.53125 0.640625q0.921875 0 1.53125 -0.640625q0.609375 -0.65625 0.609375 -1.90625q0 -1.25 -0.609375 -1.90625q-0.609375 -0.671875 -1.53125 -0.671875zm10.249466 -0.671875q0.59375 -0.953125 1.53125 -1.5q0.9375 -0.5625 2.046875 -0.5625l0 3.40625l-0.921875 0q-1.265625 0 -1.96875 0.546875q-0.6875 0.53125 -0.6875 1.828125l0 4.734375l-3.203125 0l0 -10.40625l3.203125 0l0 1.953125zm11.224838 8.453125l-3.109375 -4.421875l0 4.421875l-3.203125 0l0 -13.812501l3.203125 0l0 7.578126l3.109375 -4.171875l3.75 0l-4.203125 5.203125l4.296875 5.203125l-3.84375 0zm10.118195 -11.828125q-0.796875 0 -1.15625 0.34375q-0.34375 0.328125 -0.375 1.078125l1.875 0l0 2.6875l-1.875 0l0 7.71875l-3.1875 0l0 -7.71875l-1.25 0l0 -2.6875l1.25 0l0 -0.109375q0 -1.953125 1.125 -3.000001q1.125 -1.0625 3.265625 -1.0625q0.453125 0 0.671875 0.03125l0 2.734376l-0.34375 -0.015625zm4.943634 -1.984376l0 13.812501l-3.203125 0l0 -13.812501l3.203125 0zm7.0635376 3.265626q1.546875 0 2.765625 0.65625q1.234375 0.640625 1.921875 1.859375q0.703125 1.203125 0.703125 2.828125q0 1.625 -0.703125 2.84375q-0.6875 1.203125 -1.921875 1.84375q-1.21875 0.640625 -2.765625 0.640625q-1.546875 0 -2.78125 -0.640625q-1.234375 -0.640625 -1.9375 -1.84375q-0.6875 -1.21875 -0.6875 -2.84375q0 -1.625 0.6875 -2.828125q0.703125 -1.21875 1.9375 -1.859375q1.234375 -0.65625 2.78125 -0.65625zm0 2.765625q-0.90625 0 -1.53125 0.671875q-0.625 0.65625 -0.625 1.90625q0 1.25 0.625 1.90625q0.625 0.640625 1.53125 0.640625q0.921875 0 1.53125 -0.640625q0.609375 -0.65625 0.609375 -1.90625q0 -1.25 -0.609375 -1.90625q-0.609375 -0.671875 -1.53125 -0.671875zm22.280716 -2.625l-2.671875 10.40625l-3.5625 0l-1.890625 -6.984375l-1.890625 6.984375l-3.5625 0l-2.671875 -10.40625l3.1875 0l1.375 7.5l1.9375 -7.5l3.40625 0l2.0 7.515625l1.375 -7.515625l2.96875 0zm4.380188 -0.375l0 3.1875l-3.328125 0l0 -3.1875l3.328125 0zm0 7.59375l0 3.1875l-3.328125 0l0 -3.1875l3.328125 0z" fill-rule="nonzero"/><path fill="#194cac" d="m121.537224 27.317636l0 1.5l-1.265625 0q-1.5625 0 -2.34375 -0.75q-0.78125 -0.75 -0.78125 -2.5l0 -5.515625l-1.53125 0l0 -1.484375l1.53125 0l0 -2.546875l1.71875 0l0 2.546875l2.65625 0l0 1.484375l-2.65625 0l0 5.5625q0 0.984375 0.359375 1.34375q0.375 0.359375 1.265625 0.359375l1.046875 0zm11.490044 -4.1875q0 0.53125 -0.078125 0.9375l-8.187508 0q0.0625 1.75 1.0 2.625q0.9375 0.875 2.3125076 0.875q1.21875 0 2.046875 -0.625q0.84375 -0.625 1.03125 -1.671875l1.796875 0q-0.1875 1.0625 -0.828125 1.90625q-0.640625 0.84375 -1.671875 1.3125q-1.015625 0.453125 -2.3125 0.453125q-1.4687576 0 -2.6093826 -0.625q-1.140625 -0.640625 -1.78125 -1.8125q-0.640625 -1.1875 -0.640625 -2.796875q0 -1.609375 0.640625 -2.796875q0.640625 -1.203125 1.78125 -1.828125q1.140625 -0.640625 2.6093826 -0.640625q1.5 0 2.609375 0.640625q1.109375 0.625 1.6875 1.6875q0.59375 1.0625 0.59375 2.359375zm-1.71875 0.109375q0.0625 -1.140625 -0.375 -1.90625q-0.421875 -0.765625 -1.171875 -1.140625q-0.75 -0.375 -1.625 -0.375q-1.3906326 0 -2.3437576 0.875q-0.953125 0.875 -1.03125 2.546875l6.5468826 0zm7.157135 -4.796875q1.734375 0 2.78125 0.90625q1.046875 0.90625 1.28125 2.4375l-1.625 0q-0.109375 -0.921875 -0.765625 -1.5q-0.640625 -0.59375 -1.71875 -0.59375q-0.90625 0 -1.421875 0.4375q-0.515625 0.4375 -0.515625 1.1875q0 0.5625 0.34375 0.90625q0.34375 0.34375 0.859375 0.53125q0.515625 0.171875 1.40625 0.375q1.140625 0.265625 1.84375 0.53125q0.703125 0.265625 1.1875 0.875q0.5 0.59375 0.5 1.59375q0 1.25 -0.953125 2.03125q-0.9375 0.78125 -2.5 0.78125q-1.828125 0 -2.984375 -0.875q-1.15625 -0.875 -1.359375 -2.4375l1.640625 0q0.09375 0.9375 0.8125 1.515625q0.71875 0.578125 1.890625 0.578125q0.875 0 1.359375 -0.453125q0.5 -0.453125 0.5 -1.171875q0 -0.609375 -0.359375 -0.953125q-0.34375 -0.359375 -0.875 -0.546875q-0.515625 -0.1875 -1.421875 -0.390625q-1.140625 -0.265625 -1.828125 -0.515625q-0.671875 -0.265625 -1.15625 -0.828125q-0.46875 -0.578125 -0.46875 -1.546875q0 -1.28125 0.9375 -2.078125q0.953125 -0.796875 2.609375 -0.796875zm11.317154 8.875l0 1.5l-1.265625 0q-1.5625 0 -2.34375 -0.75q-0.78125 -0.75 -0.78125 -2.5l0 -5.515625l-1.53125 0l0 -1.484375l1.53125 0l0 -2.546875l1.71875 0l0 2.546875l2.65625 0l0 1.484375l-2.65625 0l0 5.5625q0 0.984375 0.359375 1.34375q0.375 0.359375 1.265625 0.359375l1.046875 0zm11.443161 2.140625l0 1.65625l-9.9375 0l0 -1.65625l9.9375 0zm6.3017273 -11.015625q1.484375 0 2.515625 0.75q1.046875 0.75 1.453125 2.0l0 -2.625l1.703125 0l0 10.25l-1.703125 0l0 -2.609375q-0.40625 1.25 -1.453125 2.0q-1.03125 0.734375 -2.515625 0.734375q-1.359375 0 -2.421875 -0.625q-1.0625 -0.640625 -1.671875 -1.8125q-0.609375 -1.1875 -0.609375 -2.796875q0 -1.609375 0.609375 -2.796875q0.609375 -1.203125 1.671875 -1.828125q1.0625 -0.640625 2.421875 -0.640625zm0.484375 1.515625q-1.5625 0 -2.515625 1.0q-0.9375 1.0 -0.9375 2.75q0 1.75 0.9375 2.75q0.953125 1.0 2.515625 1.0q1.0 0 1.796875 -0.46875q0.796875 -0.46875 1.234375 -1.3125q0.453125 -0.859375 0.453125 -1.96875q0 -1.125 -0.453125 -1.984375q-0.4375 -0.859375 -1.234375 -1.3125q-0.796875 -0.453125 -1.796875 -0.453125zm13.277435 -1.546875q1.796875 0 2.890625 1.15625q1.109375 1.140625 1.109375 3.296875l0 5.953125l-1.703125 0l0 -5.796875q0 -1.53125 -0.78125 -2.34375q-0.78125 -0.828125 -2.125 -0.828125q-1.40625 0 -2.25 0.90625q-0.828125 0.90625 -0.828125 2.640625l0 5.421875l-1.703125 0l0 -10.25l1.703125 0l0 2.4375q0.390625 -1.25 1.390625 -1.921875q1.0 -0.671875 2.296875 -0.671875zm10.808472 0.03125q1.484375 0 2.515625 0.75q1.046875 0.75 1.453125 2.0l0 -6.187501l1.703125 0l0 13.812501l-1.703125 0l0 -2.609375q-0.40625 1.25 -1.453125 2.0q-1.03125 0.734375 -2.515625 0.734375q-1.359375 0 -2.421875 -0.625q-1.0625 -0.640625 -1.671875 -1.8125q-0.609375 -1.1875 -0.609375 -2.796875q0 -1.609375 0.609375 -2.796875q0.609375 -1.203125 1.671875 -1.828125q1.0625 -0.640625 2.421875 -0.640625zm0.484375 1.515625q-1.5625 0 -2.515625 1.0q-0.9375 1.0 -0.9375 2.75q0 1.75 0.9375 2.75q0.953125 1.0 2.515625 1.0q1.0 0 1.796875 -0.46875q0.796875 -0.46875 1.234375 -1.3125q0.453125 -0.859375 0.453125 -1.96875q0 -1.125 -0.453125 -1.984375q-0.4375 -0.859375 -1.234375 -1.3125q-0.796875 -0.453125 -1.796875 -0.453125zm17.26181 9.5l0 1.65625l-9.9375 0l0 -1.65625l9.9375 0zm7.7548523 -11.015625q1.359375 0 2.421875 0.640625q1.0625 0.625 1.671875 1.828125q0.609375 1.1875 0.609375 2.796875q0 1.609375 -0.609375 2.796875q-0.609375 1.171875 -1.671875 1.8125q-1.0625 0.625 -2.421875 0.625q-1.5 0 -2.53125 -0.75q-1.03125 -0.75 -1.421875 -1.984375l0 2.609375l-1.703125 0l0 -13.812501l1.703125 0l0 6.187501q0.390625 -1.234375 1.421875 -1.984375q1.03125 -0.765625 2.53125 -0.765625zm-0.484375 1.515625q-0.984375 0 -1.796875 0.453125q-0.796875 0.453125 -1.25 1.3125q-0.4375 0.859375 -0.4375 1.984375q0 1.109375 0.4375 1.96875q0.453125 0.84375 1.25 1.3125q0.8125 0.46875 1.796875 0.46875q1.578125 0 2.515625 -1.0q0.953125 -1.0 0.953125 -2.75q0 -1.75 -0.953125 -2.75q-0.9375 -1.0 -2.515625 -1.0zm16.51181 -1.390625l0 10.25l-1.703125 0l0 -2.40625q-0.390625 1.25 -1.390625 1.921875q-1.0 0.65625 -2.3125 0.65625q-1.78125 0 -2.890625 -1.140625q-1.09375 -1.15625 -1.09375 -3.296875l0 -5.984375l1.703125 0l0 5.8125q0 1.53125 0.78125 2.359375q0.78125 0.828125 2.125 0.828125q1.40625 0 2.234375 -0.90625q0.84375 -0.90625 0.84375 -2.640625l0 -5.453125l1.703125 0zm2.421814 -3.000001q0 -0.46875 0.3125 -0.75q0.328125 -0.296875 0.84375 -0.296875q0.53125 0 0.84375 0.296875q0.3125 0.28125 0.3125 0.75q0 0.46875095 -0.3125 0.76562595q-0.3125 0.28125 -0.84375 0.28125q-0.515625 0 -0.84375 -0.28125q-0.3125 -0.296875 -0.3125 -0.76562595zm2.0 3.000001l0 10.25l-1.703125 0l0 -10.25l1.703125 0zm4.4215393 -3.562501l0 13.812501l-1.703125 0l0 -13.812501l1.703125 0zm6.9215393 3.437501q1.484375 0 2.515625 0.75q1.046875 0.75 1.453125 2.0l0 -6.187501l1.703125 0l0 13.812501l-1.703125 0l0 -2.609375q-0.40625 1.25 -1.453125 2.0q-1.03125 0.734375 -2.515625 0.734375q-1.359375 0 -2.421875 -0.625q-1.0625 -0.640625 -1.671875 -1.8125q-0.609375 -1.1875 -0.609375 -2.796875q0 -1.609375 0.609375 -2.796875q0.609375 -1.203125 1.671875 -1.828125q1.0625 -0.640625 2.421875 -0.640625zm0.484375 1.515625q-1.5625 0 -2.515625 1.0q-0.9375 1.0 -0.9375 2.75q0 1.75 0.9375 2.75q0.953125 1.0 2.515625 1.0q1.0 0 1.796875 -0.46875q0.796875 -0.46875 1.234375 -1.3125q0.453125 -0.859375 0.453125 -1.96875q0 -1.125 -0.453125 -1.984375q-0.4375 -0.859375 -1.234375 -1.3125q-0.796875 -0.453125 -1.796875 -0.453125z" fill-rule="nonzero"/></g></svg>